<svg width="36" height="36" viewBox="0 0 36 36" fill="none" xmlns="http://www.w3.org/2000/svg">
<rect width="36" height="36" rx="18" fill="#DB4D29"/>
<path d="M22.8263 14.7199H22.5597L20.3063 12.4665C20.1263 12.2865 19.833 12.2865 19.6463 12.4665C19.4663 12.6465 19.4663 12.9399 19.6463 13.1265L21.2397 14.7199H14.7597L16.353 13.1265C16.533 12.9465 16.533 12.6532 16.353 12.4665C16.173 12.2865 15.8797 12.2865 15.693 12.4665L13.4463 14.7199H13.1797C12.5797 14.7199 11.333 14.7199 11.333 16.4265C11.333 17.0732 11.4663 17.4999 11.7463 17.7799C11.9063 17.9465 12.0997 18.0332 12.3063 18.0799C12.4997 18.1265 12.7063 18.1332 12.9063 18.1332H23.093C23.2997 18.1332 23.493 18.1199 23.6797 18.0799C24.2397 17.9465 24.6663 17.5465 24.6663 16.4265C24.6663 14.7199 23.4197 14.7199 22.8263 14.7199Z" fill="white"/>
<path d="M22.7004 19H13.2471C12.8338 19 12.5204 19.3667 12.5871 19.7733L13.1471 23.2C13.3338 24.3467 13.8338 25.6667 16.0538 25.6667H19.7938C22.0404 25.6667 22.4404 24.54 22.6804 23.28L23.3538 19.7933C23.4338 19.38 23.1204 19 22.7004 19ZM17.0738 23.3C17.0738 23.56 16.8671 23.7667 16.6138 23.7667C16.3538 23.7667 16.1471 23.56 16.1471 23.3V21.1C16.1471 20.8467 16.3538 20.6333 16.6138 20.6333C16.8671 20.6333 17.0738 20.8467 17.0738 21.1V23.3ZM19.9271 23.3C19.9271 23.56 19.7204 23.7667 19.4604 23.7667C19.2071 23.7667 18.9938 23.56 18.9938 23.3V21.1C18.9938 20.8467 19.2071 20.6333 19.4604 20.6333C19.7204 20.6333 19.9271 20.8467 19.9271 21.1V23.3Z" fill="white"/>
</svg>
