<svg width="303" height="190" viewBox="0 0 303 190" fill="none" xmlns="http://www.w3.org/2000/svg">
<path d="M130.927 182.628C132.714 183.588 133.389 185.825 132.431 187.624C131.477 189.422 129.251 190.101 127.466 189.14C114.378 182.102 104.22 167.804 98.6436 151.788C92.9856 135.535 91.995 117.362 97.4061 103.112C102.323 90.1711 111.307 84.76 120.364 84.3834C124.54 84.2092 128.704 85.1315 132.462 86.8993C130.522 88.434 128.291 90.2402 125.768 92.3155C124.102 91.8953 122.391 91.7032 120.685 91.7749C114.345 92.0388 107.961 96.074 104.281 105.759C99.4992 118.351 100.457 134.646 105.577 149.359C110.594 163.753 119.539 176.507 130.927 182.628ZM137.522 86.866C138.349 86.2563 139.179 85.6491 140.012 85.0444L140.032 85.0316C141.048 84.2937 142.067 83.561 143.085 82.8282C145.092 81.3832 147.093 79.9434 149.062 78.4779C148.614 74.0481 148.252 69.4749 148.031 64.9221H148.041L147.995 64.1253L147.992 64.0946C147.926 62.6163 147.875 61.1431 147.842 59.6776L147.824 58.722C147.817 58.1583 147.814 57.5818 147.812 56.9977C147.809 54.0821 147.875 50.9897 148.015 47.7257C148.265 43.3856 148.741 39.2709 149.505 35.5508V35.5431L149.538 35.3869C150.271 31.946 151.399 29.0842 152.426 26.7067C152.823 25.7869 153.24 24.9542 153.678 24.201C155.843 20.7935 158.611 18.398 161.554 17.0068C164.093 15.8052 166.767 15.3414 169.328 15.6028C171.961 15.8692 174.462 16.8992 176.57 18.6747C178.669 20.4399 180.357 22.9276 181.352 26.1123L172.114 24.5878C172.028 24.5059 171.941 24.429 171.849 24.3521C170.905 23.5553 169.779 23.0942 168.595 22.9738C167.337 22.8457 165.993 23.0891 164.681 23.7116C163.604 24.2215 162.558 24.9747 161.59 25.979L169.12 27.2216L174.243 28.0671L188.016 30.3396L269.419 43.7673C279.263 38.8815 288.914 32.8299 296.499 23.6655C297.803 22.0975 300.123 21.89 301.681 23.1992C303.24 24.511 303.446 26.845 302.145 28.413C296.273 35.5047 289.451 40.8312 282.301 45.1713L294.248 44.7563C296.27 44.9484 296.864 47.1133 296.11 48.5327C297.638 49.9213 296.662 53.0061 294.363 52.9394L278.227 50.7002L271.247 51.1204L250.402 52.3758L178.355 56.721C174.248 66.1929 167.419 73.3 159.632 79.6385C159.308 76.6307 159.079 73.6254 158.758 70.6022L158.743 70.6047C163.041 66.6643 166.83 62.3319 169.675 57.2437L155.153 58.1199C155.16 58.5785 155.168 59.0397 155.178 59.5008C155.265 63.2798 155.469 67.1229 155.756 70.9301L155.71 70.9352C156.097 74.5887 156.344 78.2268 156.808 81.8803C157.679 89.4486 158.761 96.3994 159.723 101.787C160.587 106.627 163.456 95.7256 164.478 93.5299C168.06 85.8233 173.148 78.6444 181.271 78.442C193.061 78.1499 196.694 88.9054 199.796 98.0929C200.812 101.103 201.762 103.909 202.808 105.584C203.544 106.76 204.316 106.865 205.051 106.402C208.224 104.393 211.787 98.467 214.374 93.7041C214.784 97.0399 215.759 100.301 217.333 103.225C214.863 107.073 211.97 110.76 208.95 112.671C204.535 115.466 200.196 115.294 196.575 109.504C195.044 107.055 193.97 103.878 192.819 100.468C190.522 93.6631 187.828 85.6952 181.452 85.854C174.775 86.018 170.4 97.87 167.426 105.93C165.351 111.559 163.759 115.866 160.467 116.46C156.905 117.106 154.363 113.527 152.494 103.089C151.69 98.5951 150.806 93.0303 150.024 86.9224L147.343 88.8567C145.283 90.3402 143.223 91.8236 141.188 93.3378C143.327 95.6923 145.041 98.4234 146.156 101.413C149.266 109.75 147.796 119.929 138.036 129.422C133.351 133.977 127.879 135.204 123.16 134.072C120.812 133.508 118.663 132.358 116.896 130.741C115.152 129.142 113.777 127.077 112.952 124.659C111.205 119.545 111.951 112.922 117.003 106.079C119.944 102.097 123.315 98.5797 126.936 95.3387C129.956 92.8458 132.523 90.7655 134.634 89.1001C135.704 88.2598 136.666 87.5142 137.522 86.866ZM144.753 58.7476L4.49911 67.2049C-1.9534 66.59 -0.85846 54.41 3.95673 54.8686L144.865 49.9598C144.781 52.4706 144.738 54.8225 144.743 57.0131C144.743 57.5998 144.748 58.1788 144.753 58.7476ZM147.088 32.5046L7.83231 13.1842C1.66245 11.3113 5.2401 -0.44845 9.84395 0.947864L150.251 24.1062C150.032 24.5469 149.821 25.0055 149.614 25.4846C148.744 27.5009 147.822 29.8247 147.088 32.5046ZM263.547 54.6739C262.016 55.3529 260.499 56.019 258.994 56.68C246.995 61.9373 236.038 66.7412 229.848 74.8603C230.416 74.4913 230.994 74.1378 231.574 73.8073C235.636 71.4809 240.021 70.0283 244.217 69.9053C248.757 69.7721 253.053 71.1428 256.529 74.54C258.948 76.9022 260.901 80.2098 262.162 84.6217C264.932 94.3216 261.031 101.915 254.499 106.596C250.29 109.614 244.951 111.357 239.682 111.585C234.302 111.818 228.916 110.478 224.74 107.314L224.735 107.321C223.879 106.673 223.077 105.953 222.339 105.159C218.473 100.583 216.877 94.2498 217.274 88.2239L217.284 88.2085C217.401 86.843 217.605 85.4185 217.911 83.9248L217.918 83.8966C217.995 83.5251 218.076 83.1511 218.165 82.7719C221.3 69.2827 230.854 61.9963 242.908 55.9191L263.547 54.6739ZM182.412 37.4058C182.338 40.3086 182.07 43.0397 181.63 45.6222L173.986 45.8887C174.63 42.9551 175.002 39.7987 175.055 36.3861L157.444 33.9419C156.199 38.3614 155.527 43.7468 155.267 49.5985L168.985 49.122V49.1502L187.166 48.5148V48.4866L247.199 46.396L182.412 37.4058ZM139.281 104.009C138.431 101.728 137.066 99.6481 135.347 97.8726C130.697 101.675 126.399 105.766 122.913 110.486C119.493 115.115 118.875 119.253 119.898 122.256C120.308 123.455 120.993 124.482 121.864 125.281C122.712 126.058 123.741 126.608 124.864 126.877C127.303 127.462 130.252 126.714 132.936 124.103C140.213 117.029 141.433 109.781 139.281 104.009ZM235.208 80.2431C230.94 82.6873 227.062 86.3434 224.552 90.353C224.46 95.6564 226.316 99.2561 229.15 101.403L229.153 101.418C231.883 103.489 235.575 104.36 239.359 104.196C243.257 104.027 247.179 102.758 250.234 100.568C254.372 97.601 256.845 92.7946 255.093 86.6636C254.207 83.5584 252.936 81.3346 251.416 79.8486C249.509 77.9834 247.072 77.2327 244.452 77.3096C241.488 77.3967 238.271 78.4881 235.208 80.2431Z" fill="#DB4D29"/>
</svg>
