<svg width="18" height="24" viewBox="0 0 18 24" fill="none" xmlns="http://www.w3.org/2000/svg">
<path d="M9.00003 0.75C7.80656 0.75 6.66196 1.22411 5.81805 2.06802C4.97414 2.91193 4.50003 4.05653 4.50003 5.25V6H3.87753C3.24612 5.99934 2.63878 6.24222 2.18194 6.6781C1.72511 7.11398 1.45399 7.70925 1.42503 8.34L0.83253 20.6775C0.817342 21.0093 0.869487 21.3407 0.985823 21.6517C1.10216 21.9628 1.28028 22.2471 1.50944 22.4875C1.7386 22.7278 2.01407 22.9193 2.31923 23.0504C2.62439 23.1814 2.95292 23.2493 3.28503 23.25H14.715C15.0471 23.2493 15.3757 23.1814 15.6808 23.0504C15.986 22.9193 16.2615 22.7278 16.4906 22.4875C16.7198 22.2471 16.8979 21.9628 17.0142 21.6517C17.1306 21.3407 17.1827 21.0093 17.1675 20.6775L16.575 8.34C16.5461 7.70925 16.2749 7.11398 15.8181 6.6781C15.3613 6.24222 14.7539 5.99934 14.1225 6H13.5V5.25C13.5 4.05653 13.0259 2.91193 12.182 2.06802C11.3381 1.22411 10.1935 0.75 9.00003 0.75ZM6.00003 5.25C6.00003 4.45435 6.3161 3.69129 6.87871 3.12868C7.44132 2.56607 8.20438 2.25 9.00003 2.25C9.79568 2.25 10.5587 2.56607 11.1213 3.12868C11.684 3.69129 12 4.45435 12 5.25V6H6.00003V5.25ZM15.075 8.4075L15.6675 20.7525C15.6722 20.8815 15.6515 21.0102 15.6064 21.1311C15.5614 21.2521 15.493 21.363 15.405 21.4575C15.3153 21.5497 15.208 21.623 15.0895 21.6733C14.971 21.7235 14.8437 21.7496 14.715 21.75H3.28503C3.15635 21.7496 3.02904 21.7235 2.91056 21.6733C2.79208 21.623 2.68481 21.5497 2.59503 21.4575C2.50711 21.363 2.43867 21.2521 2.39363 21.1311C2.34859 21.0102 2.32783 20.8815 2.33253 20.7525L2.92503 8.4075C2.93661 8.16276 3.04204 7.9319 3.21943 7.76289C3.39682 7.59388 3.63252 7.49973 3.87753 7.5H14.1225C14.3675 7.49973 14.6032 7.59388 14.7806 7.76289C14.958 7.9319 15.0635 8.16276 15.075 8.4075Z" fill="white"/>
</svg>
