<svg width="156" height="138" viewBox="0 0 156 138" fill="none" xmlns="http://www.w3.org/2000/svg">
<path d="M79.9088 6.03395C83.9965 2.55571 90.0035 2.55571 94.0912 6.03395V6.03395C96.9798 8.49191 100.935 9.2787 104.545 8.11327V8.11327C109.652 6.46409 115.202 8.76288 117.647 13.5406V13.5406C119.376 16.9169 122.729 19.1575 126.509 19.462V19.462C131.859 19.893 136.107 24.1406 136.538 29.4905V29.4905C136.842 33.2711 139.083 36.6244 142.459 38.3525V38.3525C147.237 40.798 149.536 46.3478 147.887 51.4554V51.4554C146.721 55.0647 147.508 59.0202 149.966 61.9088V61.9088C153.444 65.9965 153.444 72.0035 149.966 76.0912V76.0912C147.508 78.9798 146.721 82.9353 147.887 86.5447V86.5447C149.536 91.6522 147.237 97.202 142.459 99.6475V99.6475C139.083 101.376 136.842 104.729 136.538 108.509V108.509C136.107 113.859 131.859 118.107 126.509 118.538V118.538C122.729 118.842 119.376 121.083 117.647 124.459V124.459C115.202 129.237 109.652 131.536 104.545 129.887V129.887C100.935 128.721 96.9798 129.508 94.0912 131.966V131.966C90.0035 135.444 83.9965 135.444 79.9088 131.966V131.966C77.0202 129.508 73.0647 128.721 69.4554 129.887V129.887C64.3478 131.536 58.798 129.237 56.3525 124.459V124.459C54.6244 121.083 51.2711 118.842 47.4905 118.538V118.538C42.1406 118.107 37.893 113.859 37.462 108.509V108.509C37.1575 104.729 34.9169 101.376 31.5406 99.6475V99.6475C26.7629 97.202 24.4641 91.6522 26.1133 86.5447V86.5447C27.2787 82.9353 26.4919 78.9798 24.034 76.0912V76.0912C20.5557 72.0035 20.5557 65.9965 24.034 61.9088V61.9088C26.4919 59.0202 27.2787 55.0647 26.1133 51.4554V51.4554C24.4641 46.3478 26.7629 40.798 31.5406 38.3525V38.3525C34.9169 36.6244 37.1575 33.2711 37.462 29.4905V29.4905C37.893 24.1406 42.1406 19.893 47.4905 19.462V19.462C51.2711 19.1575 54.6244 16.9169 56.3525 13.5406V13.5406C58.798 8.76288 64.3478 6.46409 69.4554 8.11327V8.11327C73.0647 9.2787 77.0202 8.49191 79.9088 6.03395V6.03395Z" fill="#DB4D29"/>
<path d="M109.301 81.121C105.995 81.9671 103.814 86.0296 103.204 90.5021C103.16 90.908 103.116 91.315 103.112 91.7085C103.923 92.0583 104.975 91.9379 106.042 91.5943C107.109 91.2506 108.153 90.6962 108.868 90.0733C112.339 87.1674 113.606 79.9966 109.301 81.121ZM109.301 81.121C105.995 81.9671 103.814 86.0296 103.204 90.5021C103.16 90.908 103.116 91.315 103.112 91.7085C103.923 92.0583 104.975 91.9379 106.042 91.5943C107.109 91.2506 108.153 90.6962 108.868 90.0733C112.339 87.1674 113.606 79.9966 109.301 81.121ZM109.301 81.121C105.995 81.9671 103.814 86.0296 103.204 90.5021C103.16 90.908 103.116 91.315 103.112 91.7085C103.923 92.0583 104.975 91.9379 106.042 91.5943C107.109 91.2506 108.153 90.6962 108.868 90.0733C112.339 87.1674 113.606 79.9966 109.301 81.121ZM109.301 81.121C105.995 81.9671 103.814 86.0296 103.204 90.5021C103.16 90.908 103.116 91.315 103.112 91.7085C103.923 92.0583 104.975 91.9379 106.042 91.5943C107.109 91.2506 108.153 90.6962 108.868 90.0733C112.339 87.1674 113.606 79.9966 109.301 81.121ZM109.301 81.121C105.995 81.9671 103.814 86.0296 103.204 90.5021C103.16 90.908 103.116 91.315 103.112 91.7085C103.923 92.0583 104.975 91.9379 106.042 91.5943C107.109 91.2506 108.153 90.6962 108.868 90.0733C112.339 87.1674 113.606 79.9966 109.301 81.121ZM109.301 81.121C105.995 81.9671 103.814 86.0296 103.204 90.5021C103.16 90.908 103.116 91.315 103.112 91.7085C103.923 92.0583 104.975 91.9379 106.042 91.5943C107.109 91.2506 108.153 90.6962 108.868 90.0733C112.339 87.1674 113.606 79.9966 109.301 81.121ZM109.301 81.121C105.995 81.9671 103.814 86.0296 103.204 90.5021C103.16 90.908 103.116 91.315 103.112 91.7085C103.923 92.0583 104.975 91.9379 106.042 91.5943C107.109 91.2506 108.153 90.6962 108.868 90.0733C112.339 87.1674 113.606 79.9966 109.301 81.121Z" fill="white"/>
<path d="M53.3806 83.6668C54.1094 84.0561 54.3845 84.9625 53.9942 85.6913C53.6048 86.4201 52.6975 86.6952 51.9697 86.3059C46.6334 83.454 42.492 77.6598 40.2184 71.1701C37.9115 64.5838 37.5077 57.2199 39.7138 51.4455C41.7186 46.2016 45.3813 44.0089 49.0742 43.8563C50.7768 43.7857 52.4742 44.1595 54.0066 44.8758C53.2155 45.4977 52.3061 46.2296 51.2772 47.0706C50.5982 46.9003 49.9006 46.8224 49.205 46.8515C46.6199 46.9584 44.0171 48.5936 42.5169 52.5179C40.5672 57.6207 40.9576 64.2236 43.0454 70.1859C45.0906 76.0185 48.7378 81.1866 53.3806 83.6668ZM56.0695 44.8623C56.4069 44.6152 56.7454 44.3692 57.0849 44.1242L57.0932 44.119C57.5074 43.82 57.9227 43.523 58.338 43.2261C59.1561 42.6406 59.9721 42.0571 60.7746 41.4633C60.5919 39.6682 60.4444 37.8151 60.3541 35.9702H60.3583L60.3396 35.6473L60.3385 35.6349C60.3116 35.0358 60.2908 34.4389 60.2773 33.845L60.27 33.4578C60.2669 33.2294 60.2659 32.9958 60.2648 32.7591C60.2638 31.5776 60.2908 30.3245 60.3479 29.0019C60.4496 27.2432 60.6438 25.5758 60.9552 24.0684V24.0652L60.9687 24.0019C61.2677 22.6076 61.7277 21.448 62.146 20.4845C62.308 20.1118 62.4783 19.7744 62.6568 19.4692C63.5393 18.0884 64.6678 17.1177 65.868 16.5539C66.903 16.067 67.9931 15.8791 69.0376 15.985C70.1111 16.093 71.1306 16.5103 71.9902 17.2298C72.8457 17.9451 73.534 18.9532 73.9399 20.2437L70.1733 19.6259C70.138 19.5927 70.1027 19.5616 70.0654 19.5304C69.6802 19.2075 69.2213 19.0207 68.7386 18.9719C68.2257 18.92 67.6775 19.0186 67.1429 19.2709C66.7037 19.4775 66.277 19.7827 65.8825 20.1897L68.9524 20.6932L71.0413 21.0358L76.6569 21.9567L109.846 27.3979C113.859 25.418 117.794 22.9658 120.887 19.2522C121.419 18.6168 122.364 18.5327 123 19.0632C123.635 19.5948 123.719 20.5406 123.189 21.176C120.795 24.0497 118.013 26.2081 115.098 27.9668L119.969 27.7986C120.794 27.8765 121.035 28.7537 120.728 29.3289C121.351 29.8916 120.953 31.1416 120.016 31.1146L113.437 30.2072L110.591 30.3775L102.093 30.8862L72.718 32.6469C71.0434 36.4851 68.2589 39.3651 65.0841 41.9336C64.9523 40.7147 64.8588 39.4969 64.728 38.2719L64.7218 38.2729C66.4743 36.6762 68.0191 34.9206 69.1788 32.8587L63.258 33.2138C63.2611 33.3996 63.2642 33.5865 63.2683 33.7734C63.3036 35.3047 63.3867 36.862 63.504 38.4048L63.4853 38.4068C63.6431 39.8873 63.7438 41.3615 63.9328 42.842C64.2878 45.9088 64.7291 48.7254 65.1215 50.9087C65.4734 52.8699 66.6435 48.4524 67.0598 47.5627C68.5205 44.4398 70.5949 41.5308 73.9067 41.4487C78.7135 41.3304 80.195 45.6887 81.4595 49.4117C81.8738 50.6315 82.261 51.7684 82.6877 52.4473C82.9878 52.9239 83.3023 52.9664 83.6024 52.7785C84.896 51.9646 86.3484 49.5632 87.4032 47.6332C87.5703 48.985 87.968 50.3066 88.6096 51.4912C87.6025 53.0505 86.4231 54.5445 85.1918 55.319C83.3916 56.4517 81.6225 56.3821 80.1462 54.0358C79.5223 53.0433 79.0842 51.7559 78.6149 50.3741C77.6784 47.6166 76.58 44.3879 73.9804 44.4522C71.2583 44.5187 69.4746 49.3214 68.262 52.5875C67.4159 54.8684 66.767 56.6136 65.4247 56.8545C63.9722 57.1161 62.9361 55.6657 62.1741 51.4361C61.846 49.6152 61.4858 47.3602 61.167 44.8852L60.0738 45.669C59.2339 46.2701 58.394 46.8712 57.5645 47.4848C58.4366 48.4389 59.1353 49.5456 59.59 50.7572C60.8576 54.1354 60.2586 58.2602 56.2792 62.1067C54.3689 63.9526 52.1379 64.4499 50.2141 63.991C49.2569 63.7626 48.3807 63.2965 47.6601 62.6414C46.949 61.9935 46.3884 61.1567 46.052 60.1767C45.3398 58.1045 45.644 55.4207 47.7038 52.6477C48.9029 51.0344 50.2774 49.6089 51.7537 48.2956C52.985 47.2855 54.0315 46.4424 54.8922 45.7676C55.3282 45.4271 55.7207 45.125 56.0695 44.8623ZM59.018 33.4682L1.83435 36.8952C-0.796428 36.6461 -0.350006 31.7105 1.61322 31.8963L59.0637 29.9072C59.0294 30.9246 59.0117 31.8776 59.0138 32.7653C59.0138 33.003 59.0159 33.2377 59.018 33.4682ZM59.97 22.834L3.19334 15.0049C0.677804 14.246 2.13646 9.48073 4.01351 10.0465L61.2594 19.4308C61.1701 19.6093 61.084 19.7952 60.9999 19.9893C60.6448 20.8064 60.269 21.748 59.97 22.834ZM107.452 31.8174C106.828 32.0925 106.209 32.3625 105.595 32.6303C100.703 34.7607 96.2361 36.7073 93.7123 39.9973C93.9438 39.8478 94.1795 39.7046 94.4162 39.5707C96.0721 38.628 97.8599 38.0393 99.5708 37.9895C101.422 37.9355 103.173 38.4909 104.59 39.8676C105.577 40.8248 106.373 42.1651 106.887 43.9529C108.016 47.8835 106.426 50.9607 103.763 52.8574C102.047 54.0804 99.8698 54.7864 97.7218 54.8788C95.5281 54.9733 93.3323 54.4303 91.6297 53.1481L91.6276 53.1512C91.2788 52.8886 90.9517 52.5968 90.6506 52.275C89.0747 50.4208 88.4237 47.8544 88.5857 45.4126L88.5898 45.4063C88.6376 44.853 88.7207 44.2757 88.8452 43.6705L88.8483 43.6591C88.8795 43.5085 88.9127 43.3569 88.9491 43.2033C90.2271 37.7372 94.1224 34.7846 99.0372 32.322L107.452 31.8174ZM74.3718 24.82C74.3417 25.9963 74.2327 27.103 74.0531 28.1495L70.9364 28.2575C71.1991 27.0687 71.3507 25.7897 71.3725 24.4068L64.1923 23.4164C63.6846 25.2073 63.4106 27.3895 63.3047 29.7608L68.8974 29.5677V29.5791L76.3101 29.3216V29.3102L100.787 28.463L74.3718 24.82ZM56.7869 51.8089C56.4401 50.8849 55.8837 50.0419 55.1829 49.3224C53.2872 50.8631 51.5347 52.5211 50.1134 54.4334C48.7191 56.3094 48.4668 57.9861 48.8842 59.2029C49.0513 59.6887 49.3306 60.1051 49.6857 60.429C50.0314 60.7435 50.4508 60.9667 50.9087 61.0758C51.9032 61.3125 53.1055 61.0093 54.1997 59.9514C57.1669 57.085 57.6642 54.1479 56.7869 51.8089ZM95.8977 42.1786C94.1577 43.169 92.5765 44.6505 91.5528 46.2753C91.5155 48.4243 92.2723 49.883 93.4278 50.753L93.4288 50.7592C94.5418 51.5981 96.0472 51.9511 97.5899 51.8846C99.1794 51.8161 100.778 51.3022 102.024 50.4146C103.711 49.2123 104.719 47.2647 104.005 44.7803C103.644 43.522 103.126 42.6209 102.506 42.0187C101.728 41.2629 100.735 40.9587 99.6663 40.9899C98.4579 41.0252 97.1466 41.4674 95.8977 42.1786Z" fill="white"/>
<path d="M49.7506 111.412C49.9344 111.566 50.1825 111.615 50.3019 111.513C50.6632 111.135 51.0079 110.797 51.4242 110.466C52.234 109.794 53.0189 109.133 53.7601 108.351C54.0924 108.002 53.4051 107.692 53.214 107.84C52.3139 108.5 51.5934 109.46 50.6383 110.02C50.6632 109.095 51.2301 108.314 51.4086 107.476C51.4927 107.121 50.8771 107.083 50.7286 107.225C50.1607 107.898 50.1036 108.881 49.8181 109.748C49.6863 110.158 49.7558 110.642 49.5814 111.113C49.5368 111.233 49.6655 111.341 49.7506 111.412ZM53.5857 112.561C53.3895 112.904 53.1206 113.298 53.3438 113.689C53.4632 113.91 53.7425 114.011 53.8069 113.916C54.4921 112.791 54.9167 111.439 55.9248 110.546C55.9985 110.496 55.9829 110.346 55.9715 110.288C55.7888 109.826 55.3714 109.73 55.1025 110.074C54.4796 110.862 54.0591 111.729 53.5857 112.561ZM57.2277 112.933C57.1602 113.066 57.101 113.252 56.9692 113.356C56.9173 113.373 56.8415 113.365 56.8228 113.402C56.6608 113.476 56.7553 113.708 56.7252 113.836C56.5788 114.452 56.1127 114.883 55.9902 115.523C55.931 115.708 56.1874 115.778 56.3234 115.909C56.8342 116.259 57.4146 116.245 58.0115 116.358C58.2316 116.396 58.4268 116.254 58.4901 115.973C58.4715 115.923 58.4486 115.812 58.4029 115.833C57.86 115.686 57.2402 115.792 56.7937 115.385C56.9671 114.959 57.1073 114.387 57.4405 114.271C57.8506 114.124 58.2763 114.868 58.7694 114.539C58.8473 113.832 58.0282 113.913 57.7478 113.423C58.0489 113.162 58.0437 112.443 58.4735 112.484C58.8172 112.519 58.9771 112.935 59.2781 113.071C59.5128 113.166 59.7547 113.004 59.6851 112.826C59.3695 112.006 58.4351 111.534 57.7499 111.908C57.4239 112.077 57.4 112.594 57.2277 112.933ZM61.0939 118.688C61.2943 118.691 61.5777 118.697 61.6546 118.503C62.1903 117.24 62.7436 115.974 63.4911 114.811C63.9521 114.985 63.7444 114.978 64.276 115.101C64.5127 115.121 64.7556 115.016 64.7774 114.75C64.7639 114.698 64.7722 114.573 64.7369 114.556C63.57 114.084 63.1537 113.628 61.8445 113.705C61.5518 113.722 61.3753 114.062 61.5694 114.292C61.7314 114.498 62.0729 114.357 62.2941 114.416C62.4155 114.427 62.7146 114.395 62.6408 114.581C62.13 115.866 61.3545 117.016 60.9071 118.332C60.8718 118.444 60.9039 118.68 61.0939 118.688ZM65.2519 119.98C65.3567 120.275 65.7367 120.369 65.8551 120.192C66.1645 119.724 66.1562 119.126 66.5133 118.687C66.5714 119.19 66.5932 119.748 66.7573 120.231C66.8289 120.431 67.1248 120.527 67.3023 120.42C67.6698 120.238 67.8567 119.792 67.9906 119.404C68.2928 118.527 68.6239 117.635 68.6156 116.703C68.6115 116.476 68.1671 116.328 68.0592 116.546C67.7602 117.127 67.8443 117.865 67.6314 118.481C67.5203 118.805 67.4664 119.153 67.239 119.429C67.0147 118.597 67.2878 117.708 67.0625 116.875C67.0085 116.745 66.6659 116.567 66.5818 116.713C66.0025 117.702 65.7326 118.772 65.2498 119.791C65.2405 119.821 65.227 119.906 65.2519 119.98ZM71.1114 118.67C70.7491 119.273 70.4148 119.927 70.12 120.549C69.8905 121.032 69.5043 121.435 69.4836 121.979C70.1542 122.602 70.2217 121.277 70.6339 121.092C70.9578 120.941 71.4042 121.011 71.6388 121.262C71.9462 121.604 71.6129 122.155 71.7759 122.603C71.8735 122.859 72.2919 122.876 72.376 122.664C72.568 122.17 72.2078 121.585 72.5722 121.105C72.6189 121.075 72.6449 120.969 72.6262 120.885C72.5867 120.751 72.4227 120.703 72.4486 120.597C72.4601 119.5 72.5608 118.464 72.3905 117.427C72.3594 117.225 71.9763 117.227 71.8807 117.322C71.5143 117.644 71.4032 118.197 71.1114 118.67ZM71.343 119.525C71.4343 119.281 71.535 119.031 71.753 118.858C71.8371 119.398 71.9804 119.991 71.7209 120.465C71.5921 120.699 71.1395 120.524 70.9869 120.365C70.8207 120.193 71.2173 119.847 71.343 119.525ZM78.6259 124.14C78.8148 124.13 79.0515 124.009 79.0214 123.79C78.7899 122.175 79.0744 120.558 78.8169 118.965C77.7849 118.493 77.5077 120.111 76.9056 120.801C76.8703 120.829 76.8111 120.699 76.7789 120.65C76.6658 119.878 76.7405 119.104 76.4187 118.423C76.3429 118.196 75.8248 118.105 75.7387 118.423C75.5123 119.222 75.3774 120.027 75.1511 120.826C74.9808 121.455 74.4233 122.16 74.7648 122.707C74.9092 122.947 75.5238 122.969 75.6089 122.651C75.6951 122.332 75.64 121.903 75.803 121.599C75.9006 121.411 75.8217 120.944 75.993 121.051C76.2007 121.182 76.2069 121.67 76.1913 122.044C76.1664 122.211 76.2962 122.395 76.4343 122.463C76.6751 122.633 76.9648 122.471 77.1143 122.249C77.1651 122.172 77.106 122.042 77.1558 121.966C77.4984 121.445 77.6635 120.85 78.0383 120.377C78.3134 121.589 77.9012 122.85 78.2532 124.074C78.2843 124.122 78.4535 124.144 78.6259 124.14ZM81.5287 121.224C81.5204 121.376 81.5411 121.572 81.4633 121.728C81.4228 121.767 81.3511 121.796 81.3491 121.839C81.2328 121.984 81.4093 122.147 81.4342 122.276C81.5474 122.901 81.2982 123.511 81.4425 124.146C81.4633 124.341 81.7207 124.282 81.8962 124.336C82.4952 124.407 83.0133 124.12 83.5947 123.937C83.8075 123.867 83.9269 123.645 83.8729 123.363C83.8366 123.327 83.7712 123.238 83.7379 123.279C83.1898 123.405 82.6748 123.795 82.1111 123.64C82.0976 123.174 81.9969 122.593 82.2502 122.33C82.5617 122.003 83.2396 122.469 83.5542 121.94C83.3424 121.267 82.6374 121.729 82.191 121.422C82.3582 121.044 82.0675 120.399 82.4713 120.23C82.7953 120.098 83.1036 120.397 83.4296 120.375C83.6788 120.348 83.8314 120.088 83.6995 119.961C83.0891 119.372 82.0602 119.391 81.592 120.054C81.3657 120.36 81.5484 120.836 81.5287 121.224ZM86.1414 121.169C86.7674 121.977 87.6592 122.256 88.2852 123.055C88.3776 123.236 88.3859 123.464 88.2219 123.615C87.9343 123.764 87.6498 124.006 87.3041 123.844C87.1307 123.759 86.9626 123.809 86.7913 123.774C86.6272 123.732 86.6148 123.411 86.4009 123.463C86.0303 123.666 85.7925 124.293 86.2327 124.484C87.2148 124.92 88.8105 124.642 89.0566 123.432C89.3421 122.04 87.601 121.751 86.9273 120.718C86.8847 120.627 86.9667 120.538 87.0498 120.484C87.5844 120.138 88.2125 120.202 88.797 119.937C88.9652 119.887 89.2123 119.69 89.1106 119.466C89.0338 119.283 88.8043 119.142 88.5988 119.211C87.6384 119.527 86.5047 119.588 85.8704 120.539C85.7084 120.776 85.9534 120.925 86.1414 121.169ZM91.4507 121.206C91.4642 121.357 91.5109 121.547 91.4559 121.714C91.4206 121.76 91.3552 121.802 91.3583 121.843C91.2638 122.005 91.461 122.138 91.5026 122.261C91.7009 122.86 91.5389 123.503 91.7683 124.107C91.8161 124.297 92.0632 124.196 92.2428 124.22C92.845 124.192 93.3173 123.822 93.8676 123.545C94.068 123.44 94.1562 123.201 94.0628 122.931C94.0212 122.901 93.9454 122.824 93.9185 122.87C93.3942 123.085 92.9384 123.555 92.3601 123.495C92.2823 123.037 92.1026 122.479 92.3176 122.176C92.5802 121.802 93.3153 122.15 93.553 121.575C93.2509 120.945 92.6176 121.518 92.1338 121.288C92.247 120.886 91.8711 120.296 92.2459 120.064C92.548 119.88 92.8948 120.125 93.2135 120.049C93.4554 119.982 93.5717 119.699 93.4232 119.595C92.7391 119.115 91.7237 119.303 91.3531 120.036C91.1703 120.378 91.4174 120.82 91.4507 121.206ZM100.029 122.46C100.268 122.638 100.63 122.48 100.636 122.261C100.648 121.683 100.331 121.195 100.398 120.612C100.706 120.99 101.013 121.437 101.399 121.732C101.562 121.854 101.855 121.748 101.946 121.549C102.154 121.17 102.077 120.688 101.986 120.286C101.781 119.376 101.592 118.436 101.101 117.673C100.979 117.488 100.538 117.643 100.561 117.889C100.616 118.552 101.067 119.109 101.212 119.748C101.288 120.084 101.424 120.404 101.38 120.772C100.763 120.226 100.528 119.323 99.9109 118.777C99.7988 118.704 99.425 118.77 99.4312 118.942C99.4665 120.116 99.7988 121.165 99.9296 122.304C99.9379 122.336 99.9711 122.414 100.029 122.46ZM103.954 119.435C103.999 120.106 104.472 120.604 105.022 120.784C105.572 120.965 106.119 120.707 106.478 120.174C107.029 119.369 106.901 118.119 106.074 117.536C104.821 116.652 103.892 118.258 103.954 119.435ZM104.868 119.626C104.745 119.396 104.807 118.476 105.031 118.335C105.253 118.186 105.692 118.123 105.865 118.406C106.169 118.914 106.188 119.58 105.801 119.998C105.457 120.355 105.074 119.985 104.868 119.626ZM108.752 117.502C108.828 118.171 109.322 118.642 109.88 118.794C110.437 118.945 110.972 118.659 111.307 118.107C111.82 117.274 111.637 116.032 110.785 115.494C109.493 114.678 108.638 116.331 108.752 117.502ZM109.673 117.646C109.539 117.423 109.56 116.501 109.778 116.348C109.993 116.187 110.428 116.101 110.614 116.374C110.941 116.866 110.988 117.529 110.62 117.969C110.294 118.343 109.896 117.993 109.673 117.646ZM114.491 116.777C114.866 116.722 115.143 116.448 115.351 116.118C115.997 115.142 116.052 113.487 114.896 112.866C114.45 112.628 114.05 112.506 113.58 112.454C113.23 112.417 112.884 112.532 112.625 112.681C112.461 112.738 112.216 112.918 112.283 113.203C112.298 113.233 112.317 113.346 112.359 113.36C112.461 113.426 112.624 113.456 112.667 113.545C113.185 114.382 113.685 115.2 114.076 116.063C114.13 116.193 113.986 116.344 113.977 116.473C114.006 116.695 114.289 116.809 114.491 116.777ZM114.745 115.838C114.683 115.874 113.468 113.54 113.349 113.294C113.907 113.057 114.548 113.355 114.925 113.738C115.261 114.069 115.226 114.614 115.192 115.083C115.172 115.333 115.032 115.748 114.745 115.838ZM117.916 113.427C118.184 113.871 118.332 114.562 118.908 114.552C119.465 113.574 120.818 113.397 120.957 112.216C120.977 112.08 120.652 111.971 120.47 111.929C120.275 111.959 120.181 112.138 120.121 112.302C119.873 112.764 119.355 113.117 118.955 113.405C117.976 112.391 117.85 110.815 116.98 109.785C116.739 109.493 116.271 109.972 116.384 110.284C116.825 111.413 117.314 112.426 117.916 113.427ZM121.452 108.797C121.54 108.916 121.675 109.045 121.713 109.219C121.707 109.278 121.672 109.352 121.696 109.385C121.699 109.578 121.931 109.569 122.028 109.646C122.495 110.025 122.685 110.661 123.181 111.025C123.316 111.155 123.471 110.921 123.634 110.832C124.122 110.446 124.328 109.851 124.648 109.288C124.762 109.08 124.715 108.828 124.502 108.659C124.452 108.659 124.35 108.642 124.35 108.695C124.021 109.191 123.879 109.858 123.366 110.158C123.07 109.823 122.638 109.466 122.665 109.085C122.695 108.615 123.484 108.461 123.392 107.838C122.822 107.494 122.584 108.355 122.064 108.456C121.955 108.053 121.344 107.788 121.54 107.367C121.698 107.031 122.111 107.026 122.339 106.771C122.507 106.568 122.46 106.263 122.284 106.266C121.471 106.278 120.719 107.048 120.78 107.884C120.801 108.276 121.229 108.495 121.452 108.797ZM127.469 102.72C128.433 102.813 129.247 102.327 130.205 102.415C130.387 102.474 130.54 102.629 130.52 102.863C130.411 103.19 130.363 103.579 130.013 103.731C129.836 103.804 129.749 103.969 129.604 104.076C129.46 104.171 129.245 103.952 129.127 104.154C128.993 104.584 129.226 105.213 129.662 105.012C130.641 104.568 131.6 103.144 130.997 102.093C130.308 100.883 128.882 102.014 127.74 101.796C127.651 101.763 127.652 101.638 127.676 101.535C127.835 100.878 128.323 100.441 128.569 99.8034C128.656 99.6393 128.706 99.3082 128.49 99.2272C128.319 99.1566 128.065 99.2324 127.962 99.439C127.48 100.401 126.713 101.316 126.871 102.48C126.907 102.772 127.178 102.689 127.469 102.72ZM131.779 99.2459C132.128 99.8013 132.766 99.9705 133.324 99.8231C133.883 99.6757 134.237 99.1524 134.301 98.4932C134.405 97.4955 133.72 96.4853 132.736 96.4386C131.247 96.3659 131.184 98.2648 131.779 99.2459ZM132.658 98.9085C132.445 98.7776 132.075 97.9492 132.204 97.7042C132.327 97.4529 132.676 97.157 132.957 97.3055C133.454 97.5775 133.777 98.1412 133.634 98.7174C133.502 99.2147 133 99.1047 132.658 98.9085ZM136.601 95.3308C137.519 95.1845 137.672 93.8005 137.381 92.9544C136.954 91.7169 135.969 91.0327 134.925 90.4576C134.862 90.4098 134.806 90.5728 134.71 90.5001C134.59 90.8396 134.429 91.2414 134.685 91.3847C135.244 91.8072 135.91 92.045 136.376 92.6139C136.827 93.0582 137.352 93.9791 136.66 94.3176C135.732 94.7754 134.576 93.8587 134.049 92.9264C133.938 92.7904 133.799 92.7883 133.684 92.8049C133.373 93.0001 133.337 93.4445 133.516 93.6947C134.271 94.7277 135.37 95.5395 136.601 95.3308ZM137.039 89.2273C137.854 89.8305 138.687 90.3963 139.648 90.8168C139.707 90.8043 139.803 90.8054 139.885 90.7493C140.125 90.47 140.083 90.0672 139.901 89.8513C139.605 89.5647 139.163 89.5658 138.815 89.2958C138.997 88.0728 139.418 86.1844 138.061 85.5708C136.789 85.8677 135.868 87.017 135.69 88.4071C135.673 88.5608 135.899 88.8629 136.134 88.784C136.216 88.728 136.277 88.6096 136.351 88.5483C136.498 88.8494 136.786 89.0446 137.039 89.2273ZM137.296 88.322C137.115 88.2109 137.029 87.995 136.84 87.8797C136.726 87.8102 136.512 87.9503 136.535 87.9057C136.698 87.2039 137.363 86.854 137.947 86.5727C138.458 87.0959 138.541 88.268 138.067 88.7321C137.869 88.9314 137.566 88.486 137.296 88.322Z" fill="white"/>
<path d="M137.891 79.8266C137.727 79.8993 137.536 79.8245 137.465 79.6615C137.392 79.4975 137.467 79.3064 137.63 79.2348C139.525 78.3991 140.039 79.2587 140.589 80.1785C141.019 80.899 141.479 81.6683 143.192 81.0766C143.362 81.0184 143.546 81.1077 143.604 81.2769C143.663 81.4462 143.573 81.631 143.404 81.6891C141.192 82.4532 140.593 81.4503 140.031 80.5118C139.634 79.8453 139.262 79.2224 137.891 79.8266ZM136.933 81.7566C136.769 81.8293 136.578 81.7545 136.506 81.5915C136.434 81.4275 136.508 81.2364 136.671 81.1648C138.567 80.3291 139.081 81.1887 139.63 82.1085C140.061 82.829 140.521 83.5983 142.234 83.0066C142.403 82.9484 142.588 83.0377 142.646 83.2069C142.704 83.3762 142.615 83.561 142.446 83.6191C140.233 84.3832 139.634 83.3803 139.073 82.4418C138.675 81.7753 138.303 81.1523 136.933 81.7566Z" fill="white"/>
<path d="M48.5786 102.984C48.5828 102.806 48.7312 102.665 48.9108 102.669C49.0905 102.673 49.2306 102.821 49.2265 103.001C49.1735 105.072 48.1758 105.17 47.1096 105.274C46.2738 105.356 45.3831 105.443 45.1858 107.245C45.1661 107.424 45.0062 107.551 44.8287 107.533C44.6511 107.513 44.5224 107.353 44.5411 107.176C44.7944 104.849 45.9572 104.735 47.0463 104.629C47.8176 104.552 48.5402 104.482 48.5786 102.984ZM47.2425 101.293C47.2466 101.115 47.3951 100.973 47.5747 100.978C47.7533 100.982 47.8945 101.13 47.8903 101.31C47.8374 103.381 46.8396 103.479 45.7734 103.582C44.9377 103.664 44.0469 103.752 43.8497 105.554C43.8299 105.732 43.6701 105.86 43.4925 105.842C43.314 105.822 43.1863 105.662 43.2049 105.484C43.4583 103.158 44.621 103.044 45.7101 102.938C46.4815 102.861 47.2041 102.79 47.2425 101.293Z" fill="white"/>
<path d="M48.8655 81.2156C48.7596 78.1186 49.587 74.9438 51.2336 72.0701C52.8127 69.3137 55.1445 66.8293 58.1261 64.9554C61.8771 62.5976 66.0496 61.5844 69.9491 61.8107C73.9773 62.0443 77.7241 63.5964 80.4473 66.3528C80.6134 66.521 80.7899 66.7099 80.9747 66.9186C81.1449 67.1107 81.3121 67.31 81.4761 67.5166C81.6485 67.7346 81.8063 67.9443 81.9475 68.1426C82.0866 68.3388 82.2309 68.5558 82.3814 68.7957L79.9604 70.3156C79.8597 70.1547 79.7413 69.9802 79.6105 69.7944C79.4776 69.6065 79.3509 69.4373 79.2316 69.2867C79.1059 69.1279 78.9741 68.9711 78.836 68.8154C78.7125 68.6763 78.5713 68.5257 78.4124 68.3648C76.1969 66.1223 73.1176 64.8578 69.7882 64.6647C66.4566 64.4716 62.879 65.3447 59.6481 67.3764C57.0734 68.995 55.0666 71.1274 53.7159 73.4852C52.333 75.899 51.6374 78.5474 51.7257 81.1148L48.8655 81.2156Z" fill="white"/>
<path d="M54.5963 81.392C54.5205 79.1806 55.1102 76.9163 56.2834 74.869C57.4046 72.912 59.0585 71.1492 61.1712 69.8213C63.8311 68.1499 66.7909 67.4314 69.5608 67.5923C72.4387 67.7595 75.1172 68.8714 77.069 70.846C77.1853 70.9634 77.312 71.0994 77.449 71.254C77.5695 71.39 77.6888 71.5323 77.8062 71.6797L77.8082 71.6787C77.9183 71.8168 78.0314 71.9683 78.1467 72.1313C78.2432 72.2684 78.3481 72.4251 78.4592 72.6016L76.0381 74.1215C75.9758 74.0229 75.899 73.9087 75.8097 73.7831C75.7381 73.6813 75.6561 73.5723 75.5657 73.4592L75.5647 73.454C75.4848 73.3522 75.3986 73.2515 75.3103 73.1508C75.2356 73.0657 75.1422 72.9681 75.0342 72.8581C73.5911 71.3973 71.578 70.573 69.3989 70.4463C67.1979 70.3186 64.8319 70.8969 62.6922 72.2424C60.9864 73.3149 59.6575 74.7247 58.7657 76.2841C57.8563 77.8704 57.3984 79.6094 57.4566 81.2913L54.5963 81.392Z" fill="white"/>
<path d="M73.0889 65.0709C73.5509 63.4004 74.5236 61.8462 75.8795 60.5921C77.171 59.3972 78.8103 58.4732 80.6853 57.9811C82.8416 57.4142 85.4994 57.5575 87.7471 58.4887C89.7778 59.3297 91.5033 60.807 92.3183 62.98L89.6428 63.9766C89.1372 62.6301 88.0077 61.6895 86.6611 61.1309C84.9834 60.4364 83.0088 60.3274 81.4131 60.7458C79.996 61.1174 78.7699 61.8047 77.8168 62.6861C76.8523 63.5779 76.165 64.6691 75.8432 65.8319L73.0889 65.0709Z" fill="white"/>
<path d="M103.148 63.5414C103.524 60.9729 104.585 58.4917 106.193 56.3904C107.748 54.3596 109.82 52.6788 112.286 51.6116C115.411 50.2588 118.651 50.1197 121.506 50.9866C124.439 51.8773 126.961 53.8229 128.545 56.6011C128.653 56.7901 128.752 56.9759 128.844 57.1565C128.948 57.3631 129.04 57.5573 129.119 57.7348C129.179 57.8719 129.261 58.0722 129.362 58.3349C129.456 58.582 129.531 58.7875 129.584 58.9474L126.864 59.832C126.795 59.6233 126.739 59.4644 126.698 59.3534C126.66 59.2558 126.594 59.1 126.5 58.8872C126.426 58.718 126.356 58.5706 126.293 58.4439C126.215 58.2892 126.137 58.1449 126.061 58.011C124.851 55.8858 122.922 54.3981 120.679 53.717C118.448 53.0401 115.897 53.1564 113.418 54.2299C111.424 55.0926 109.739 56.463 108.468 58.1241C107.155 59.8403 106.289 61.8627 105.983 63.9546L103.148 63.5414Z" fill="white"/>
<path d="M107.202 64.6359C107.68 61.3697 109.47 58.8313 111.781 57.2242C113.259 56.1964 114.956 55.5475 116.664 55.3337C118.396 55.1167 120.15 55.3492 121.716 56.0863C123.717 57.0269 125.373 58.7659 126.239 61.405L123.519 62.2895C122.921 60.4696 121.821 59.2902 120.507 58.6725C119.453 58.1762 118.236 58.0236 117.011 58.1773C115.761 58.334 114.51 58.8126 113.415 59.5747C111.709 60.7613 110.386 62.6363 110.034 65.0491L107.202 64.6359Z" fill="white"/>
<path d="M92.3066 63.0476C92.5849 61.3357 93.4217 59.8386 94.601 58.6478C95.6974 57.5411 97.0948 56.7001 98.6105 56.2028C100.122 55.7066 101.766 55.5509 103.358 55.8094C105.096 56.0918 106.768 56.8683 108.146 58.2325L106.131 60.2591C105.207 59.3434 104.078 58.8222 102.899 58.6301C101.772 58.4464 100.592 58.5627 99.4951 58.9219C98.4029 59.28 97.4021 59.8791 96.6266 60.6619C95.8521 61.4436 95.3049 62.4133 95.1274 63.5055L92.3066 63.0476Z" fill="white"/>
<path d="M76.9561 65.946L76.9675 65.9315C77.9911 64.6099 79.8267 63.4689 81.8117 62.9996C83.8621 62.5148 86.1171 62.7141 87.9194 64.098L87.9349 64.1105L86.2001 66.3831L86.1845 66.3706C85.1474 65.5743 83.7604 65.4799 82.4616 65.7872C81.0984 66.109 79.8754 66.8451 79.2297 67.6777L79.2183 67.6923L76.9561 65.946Z" fill="white"/>
<path d="M96.1816 62.7544C96.6166 62.1938 97.1305 61.6913 97.7109 61.2719C98.2715 60.867 98.8965 60.54 99.5745 60.3147C100.681 59.9461 101.788 59.8932 102.813 60.1091C103.893 60.3365 104.881 60.8587 105.683 61.6187L103.713 63.6898C103.296 63.2953 102.786 63.0244 102.23 62.9071C101.678 62.7908 101.077 62.8209 100.47 63.0223C100.082 63.151 99.7157 63.3441 99.3793 63.5881C99.0294 63.8404 98.7148 64.1498 98.4439 64.4996L96.1816 62.7544Z" fill="white"/>
<path d="M81.9062 71.7836C81.9862 70.0343 82.5904 68.2922 83.638 66.7619C84.6336 65.3063 86.0372 64.0335 87.7741 63.1272L87.7762 63.1261C90.001 61.9654 92.663 61.547 95.0799 62.0142C97.5913 62.5001 99.8545 63.9203 101.164 66.4255L101.175 66.4483L101.176 66.4494L99.8244 67.1252L98.6336 67.7471C97.7719 66.0964 96.2468 65.1537 94.5431 64.8246C92.7439 64.4768 90.7589 64.7893 89.0978 65.6562L89.0957 65.6572C87.7938 66.3373 86.7442 67.2882 86.0009 68.3742C85.2492 69.4716 84.8173 70.6987 84.7623 71.9072L81.9062 71.7836Z" fill="white"/>
<path d="M132.623 53.5576L42.0293 82.7339C47.0759 98.2539 59.3495 109.417 73.9205 113.693C74.0544 112.699 74.0959 111.623 74.0534 110.503C73.6879 101.242 67.4339 87.3757 72.3424 78.6393C68.7887 79.3909 65.8703 79.6765 63.4991 80.4406C51.3242 84.3618 53.9997 96.3259 60.4894 96.1557C61.1331 96.1235 61.7643 96.0508 62.3177 95.8722C64.6889 95.1092 66.1278 93.0743 66.4123 90.9761C66.7538 88.3796 65.1042 85.29 61.2556 85.3948L61.54 84.5175C65.8963 84.9037 67.7163 87.982 67.6041 91.2907C67.5045 94.6389 65.3928 98.2414 61.9532 99.3492C61.4788 99.5018 60.9524 99.6274 60.4396 99.6616C51.5267 100.569 48.7121 84.2424 63.0465 79.7138C65.5371 78.9113 68.7576 78.6165 72.8906 77.6343C74.396 75.5351 75.7332 74.5374 76.7215 74.2187C78.9744 73.493 79.0076 76.7114 73.038 78.6331C70.5017 84.0317 79.0128 101.926 76.653 110.582C78.7647 106.98 83.1884 90.373 87.117 81.1673C90.2658 73.7401 93.4728 69.6091 98.0585 68.1328C98.9274 67.8525 99.8753 67.6781 100.888 67.5711L100.022 70.0306C98.7748 69.9528 97.6318 70.0586 96.5645 70.4023C93.2838 71.4592 90.8067 74.744 88.0337 81.4393C84.0294 91.081 80.0624 106.975 75.8744 114.221C84.1747 116.281 93.1333 116.127 101.873 113.313C126.846 105.27 140.591 78.5376 132.623 53.5576ZM92.0245 79.2248C92.1314 77.7952 93.263 76.2961 94.567 75.8756C95.8326 75.4687 96.7555 76.3054 96.6496 77.7361C96.5167 79.2186 95.3851 80.7178 94.1196 81.1247C92.8156 81.5452 91.8916 80.7084 92.0245 79.2248ZM127.994 90.9388C124.912 96.9478 121.517 98.8705 119.459 98.5736C116.949 98.202 116.36 95.675 116.564 92.5708C116.285 93.2446 115.985 93.8935 115.665 94.5164C113.573 98.7242 110.52 101.976 107.769 102.643C103.637 103.642 101.712 100.494 101.048 96.9592C100.679 98.0805 100.312 99.0927 99.9293 99.9762C97.4802 105.783 94.7279 107.803 92.6692 107.506C88.9577 106.957 90.1464 101.164 91.1939 96.2896C91.8999 92.7899 92.4325 88.2125 90.8098 86.2918L96.5811 84.4324C93.8434 88.9361 92.8592 92.6559 92.1543 96.1546C91.4794 99.208 92.2653 102.053 93.9161 102.437C95.0944 102.712 97.0421 102.39 98.8028 99.7291C99.4745 98.7221 100.232 97.3091 100.844 95.5006C100.695 93.9267 100.766 92.3777 100.977 91.1755C101.857 86.0499 104.842 81.7726 108.993 80.4354C114.329 78.7172 115.512 87.6726 110.439 91.8368C109.578 92.55 108.64 93.1574 107.691 93.4636C106.149 93.9599 104.549 93.7336 103.119 92.4057C103.232 95.4663 104.624 98.0286 106.683 98.3255C107.456 98.4252 108.39 98.3421 109.378 98.0244C113.205 96.7921 115.778 93.1335 116.973 89.4396C116.78 90.5079 116.631 91.5689 116.565 92.5698C117.083 91.3239 117.533 89.9971 117.906 88.6028L117.154 88.8447C117.098 89.042 117.038 89.2403 116.974 89.4375C117.068 88.9205 117.172 88.4014 117.283 87.8875C117.914 85.2412 118.659 81.5981 119.354 77.9281L116.152 78.9591L116.464 78.0299L119.547 77.0374C120.697 71.1259 121.649 65.2778 121.696 63.2564L126.717 61.6399C124.71 65.2965 122.668 71.0148 121.049 76.5536L126.187 74.8987L125.876 75.8279L120.777 77.4693C120.056 79.9703 119.428 82.3539 118.945 84.5165C117.997 88.6174 118.386 92.9414 120.795 93.7803C122.418 94.3482 124.793 93.1906 126.709 90.7415C127.854 89.2829 129.178 86.8929 129.843 84.7584L130.594 84.5165C129.859 86.9781 128.851 89.2662 127.994 90.9388Z" fill="white"/>
</svg>
