<svg width="16" height="16" viewBox="0 0 16 16" fill="none" xmlns="http://www.w3.org/2000/svg">
<path d="M12.4794 9.6969C12.2364 9.91965 12.1282 10.2534 12.1944 10.5763L13.0719 14.8269C13.1347 15.1282 12.9416 15.4233 12.6403 15.4863C12.5073 15.5141 12.3688 15.4923 12.2506 15.425L8.46126 13.2763C8.17532 13.1137 7.82469 13.1137 7.53876 13.2763L3.74938 15.425C3.48201 15.5773 3.14169 15.4839 2.98944 15.2165C2.92213 15.0984 2.90038 14.9598 2.92813 14.8269L3.80563 10.5763C3.87182 10.2534 3.76363 9.91965 3.52063 9.6969L0.305005 6.77565C0.0770054 6.56846 0.059943 6.21559 0.267131 5.9874C0.358443 5.8869 0.48313 5.82315 0.61813 5.80815L4.94751 5.32815C5.27376 5.29027 5.55669 5.08477 5.69376 4.78627L7.49188 0.828148C7.61863 0.547461 7.94882 0.422773 8.22932 0.549336C8.35307 0.605211 8.45226 0.704398 8.50813 0.828148L10.3063 4.78627C10.4433 5.08477 10.7263 5.29027 11.0525 5.32815L15.3819 5.80815C15.6881 5.84246 15.9086 6.11846 15.8743 6.42465C15.8591 6.55946 15.7953 6.68434 15.695 6.77565L12.4794 9.6969Z" fill="#DB4D29"/>
</svg>
