<svg width="48" height="48" viewBox="0 0 48 48" fill="none" xmlns="http://www.w3.org/2000/svg">
<circle cx="24" cy="24" r="24" fill="#DB4D29"/>
<path d="M31.24 17.5801H30.84L27.46 14.2001C27.19 13.9301 26.75 13.9301 26.47 14.2001C26.2 14.4701 26.2 14.9101 26.47 15.1901L28.86 17.5801H19.14L21.53 15.1901C21.8 14.9201 21.8 14.4801 21.53 14.2001C21.26 13.9301 20.82 13.9301 20.54 14.2001L17.17 17.5801H16.77C15.87 17.5801 14 17.5801 14 20.1401C14 21.1101 14.2 21.7501 14.62 22.1701C14.86 22.4201 15.15 22.5501 15.46 22.6201C15.75 22.6901 16.06 22.7001 16.36 22.7001H31.64C31.95 22.7001 32.24 22.6801 32.52 22.6201C33.36 22.4201 34 21.8201 34 20.1401C34 17.5801 32.13 17.5801 31.24 17.5801Z" fill="white"/>
<path d="M31.0497 24H16.8697C16.2497 24 15.7797 24.55 15.8797 25.16L16.7197 30.3C16.9997 32.02 17.7497 34 21.0797 34H26.6897C30.0597 34 30.6597 32.31 31.0197 30.42L32.0297 25.19C32.1497 24.57 31.6797 24 31.0497 24ZM22.6097 30.45C22.6097 30.84 22.2997 31.15 21.9197 31.15C21.5297 31.15 21.2197 30.84 21.2197 30.45V27.15C21.2197 26.77 21.5297 26.45 21.9197 26.45C22.2997 26.45 22.6097 26.77 22.6097 27.15V30.45ZM26.8897 30.45C26.8897 30.84 26.5797 31.15 26.1897 31.15C25.8097 31.15 25.4897 30.84 25.4897 30.45V27.15C25.4897 26.77 25.8097 26.45 26.1897 26.45C26.5797 26.45 26.8897 26.77 26.8897 27.15V30.45Z" fill="white"/>
</svg>
