<svg width="81" height="64" viewBox="0 0 81 64" fill="none" xmlns="http://www.w3.org/2000/svg">
<path d="M29.7906 41.112C30.1974 41.3292 30.3509 41.835 30.133 42.2418C29.9158 42.6485 29.4094 42.802 29.0032 42.5848C26.0251 40.9932 23.7139 37.7596 22.4451 34.1378C21.1577 30.4621 20.9323 26.3525 22.1635 23.1299C23.2823 20.2034 25.3264 18.9797 27.3873 18.8945C28.3375 18.8551 29.2848 19.0637 30.14 19.4635C29.6985 19.8105 29.191 20.219 28.6168 20.6883C28.2378 20.5933 27.8485 20.5498 27.4603 20.5661C26.0176 20.6257 24.5651 21.5383 23.7278 23.7284C22.6397 26.5761 22.8576 30.2611 24.0228 33.5885C25.1642 36.8436 27.1996 39.7278 29.7906 41.112ZM31.2913 19.4559C31.4796 19.3181 31.6684 19.1807 31.8579 19.044L31.8625 19.0411C32.0937 18.8742 32.3255 18.7085 32.5572 18.5428C33.0138 18.216 33.4692 17.8904 33.9171 17.559C33.8151 16.5572 33.7328 15.523 33.6824 14.4934H33.6847L33.6743 14.3132L33.6737 14.3063C33.6587 13.972 33.6471 13.6388 33.6395 13.3074L33.6355 13.0913C33.6337 12.9638 33.6332 12.8335 33.6326 12.7014C33.632 12.042 33.6471 11.3427 33.6789 10.6045C33.7357 9.62305 33.8441 8.69255 34.0179 7.85127V7.84953L34.0254 7.81419C34.1923 7.03606 34.449 6.38888 34.6824 5.8512C34.7728 5.6432 34.8679 5.4549 34.9675 5.28456C35.46 4.51396 36.0898 3.97223 36.7596 3.65762C37.3372 3.38588 37.9456 3.28101 38.5285 3.34011C39.1276 3.40036 39.6965 3.63328 40.1763 4.0348C40.6537 4.434 41.0378 4.99659 41.2644 5.71678L39.1623 5.37204C39.1426 5.3535 39.1229 5.33612 39.1021 5.31874C38.8871 5.13855 38.631 5.03426 38.3616 5.00702C38.0754 4.97805 37.7695 5.0331 37.4711 5.17389C37.226 5.28919 36.9879 5.45953 36.7677 5.68665L38.481 5.96766L39.6467 6.15886L42.7806 6.67278L61.3027 9.70939C63.5426 8.60448 65.7385 7.23595 67.4646 5.16346C67.7612 4.80887 68.289 4.76194 68.6436 5.05801C68.9982 5.35466 69.0451 5.88249 68.7491 6.23708C67.413 7.84084 65.8608 9.0454 64.2339 10.0269L66.9524 9.93303C67.4124 9.97649 67.5474 10.4661 67.3759 10.7871C67.7235 11.1011 67.5016 11.7987 66.9784 11.7836L63.3068 11.2772L61.7187 11.3722L56.9758 11.6561L40.5824 12.6388C39.6479 14.7808 38.0939 16.3881 36.3221 17.8215C36.2485 17.1413 36.1964 16.4616 36.1234 15.778L36.1199 15.7785C37.0979 14.8874 37.9601 13.9077 38.6073 12.757L35.303 12.9551C35.3047 13.0589 35.3065 13.1632 35.3088 13.2674C35.3285 14.122 35.3748 14.9911 35.4403 15.8521L35.4299 15.8533C35.5179 16.6795 35.5741 17.5022 35.6796 18.3284C35.8777 20.04 36.124 21.6119 36.343 22.8303C36.5394 23.9248 37.1924 21.4595 37.4247 20.963C38.2399 19.2201 39.3976 17.5967 41.2458 17.5509C43.9284 17.4848 44.7552 19.9171 45.4609 21.9949C45.6921 22.6756 45.9082 23.3101 46.1463 23.689C46.3138 23.9549 46.4893 23.9787 46.6568 23.8738C47.3787 23.4196 48.1893 22.0794 48.7779 21.0024C48.8712 21.7567 49.0931 22.4943 49.4512 23.1554C48.8892 24.0256 48.231 24.8594 47.5438 25.2916C46.5392 25.9237 45.5519 25.8849 44.728 24.5755C44.3798 24.0216 44.1353 23.3031 43.8734 22.532C43.3508 20.9931 42.7378 19.1912 41.287 19.2271C39.7678 19.2642 38.7724 21.9444 38.0957 23.7672C37.6234 25.0401 37.2613 26.0141 36.5122 26.1485C35.7016 26.2945 35.1234 25.4851 34.6981 23.1247C34.515 22.1084 34.314 20.85 34.1361 19.4687L33.526 19.9061C33.0572 20.2416 32.5885 20.5771 32.1256 20.9195C32.6123 21.452 33.0022 22.0696 33.256 22.7457C33.9634 24.6311 33.6291 26.933 31.4083 29.0797C30.3422 30.1098 29.0971 30.3874 28.0235 30.1313C27.4893 30.0038 27.0003 29.7437 26.5982 29.3781C26.2013 29.0165 25.8884 28.5495 25.7007 28.0026C25.3032 26.8461 25.473 25.3484 26.6225 23.8008C27.2917 22.9004 28.0588 22.1049 28.8827 21.372C29.5699 20.8083 30.1539 20.3378 30.6342 19.9612C30.8776 19.7711 31.0966 19.6025 31.2913 19.4559ZM32.9367 13.0971L1.02371 15.0097C-0.44447 14.8706 -0.195331 12.1162 0.900303 12.2199L32.9622 11.1098C32.9431 11.6776 32.9333 12.2095 32.9344 12.7049C32.9344 12.8375 32.9356 12.9685 32.9367 13.0971ZM33.468 7.16237L1.78214 2.79316C0.378269 2.36962 1.19232 -0.289795 2.23986 0.0259742L34.1876 5.26311C34.1378 5.36277 34.0897 5.46648 34.0428 5.57483C33.8446 6.03081 33.6349 6.55632 33.468 7.16237ZM59.9666 12.1759C59.6184 12.3294 59.2731 12.48 58.9307 12.6295C56.2006 13.8184 53.7074 14.9048 52.2989 16.7409C52.4281 16.6575 52.5596 16.5775 52.6917 16.5028C53.6159 15.9767 54.6136 15.6482 55.5684 15.6204C56.6015 15.5902 57.5789 15.9002 58.3698 16.6685C58.9202 17.2027 59.3646 17.9507 59.6514 18.9484C60.2818 21.142 59.3942 22.8593 57.908 23.9179C56.9503 24.6004 55.7353 24.9944 54.5365 25.0459C53.3123 25.0987 52.0869 24.7956 51.1367 24.0801L51.1355 24.0818C50.9408 23.9352 50.7583 23.7724 50.5903 23.5928C49.7108 22.558 49.3475 21.1258 49.4379 19.763L49.4402 19.7596C49.4668 19.4507 49.5132 19.1286 49.5827 18.7908L49.5845 18.7844C49.6018 18.7004 49.6204 18.6158 49.6407 18.5301C50.3539 15.4796 52.5278 13.8318 55.2706 12.4575L59.9666 12.1759ZM41.5054 8.27075C41.4886 8.9272 41.4277 9.54484 41.3275 10.1289L39.5882 10.1891C39.7348 9.52572 39.8194 8.8119 39.8315 8.04015L35.8244 7.48741C35.5411 8.48686 35.3881 9.70475 35.329 11.0281L38.4502 10.9203V10.9267L42.5871 10.783V10.7766L56.2469 10.3038L41.5054 8.27075ZM31.6916 23.3327C31.4981 22.817 31.1875 22.3465 30.7965 21.945C29.7385 22.8048 28.7605 23.7301 27.9673 24.7974C27.1891 25.8443 27.0484 26.7801 27.2813 27.4591C27.3746 27.7303 27.5304 27.9626 27.7286 28.1434C27.9215 28.3189 28.1556 28.4435 28.4111 28.5043C28.9661 28.6364 29.6371 28.4673 30.2478 27.8769C31.9037 26.2772 32.1812 24.6381 31.6916 23.3327ZM53.5185 17.9582C52.5475 18.511 51.6651 19.3378 51.0938 20.2445C51.0729 21.4438 51.4953 22.2579 52.1402 22.7434L52.1407 22.7469C52.7619 23.2151 53.602 23.4121 54.463 23.375C55.35 23.3367 56.2423 23.0499 56.9375 22.5545C57.8791 21.8836 58.4417 20.7967 58.043 19.4102C57.8414 18.708 57.5523 18.205 57.2064 17.869C56.7724 17.4472 56.2179 17.2774 55.6217 17.2948C54.9473 17.3145 54.2156 17.5613 53.5185 17.9582Z" fill="#DB4D29"/>
<path d="M27.7656 56.5965C27.8681 56.6823 28.0066 56.7095 28.0732 56.6527C28.2749 56.4418 28.4672 56.2529 28.6995 56.0681C29.1515 55.6932 29.5895 55.3242 30.0032 54.8879C30.1886 54.6932 29.805 54.52 29.6984 54.6028C29.1961 54.9713 28.794 55.5067 28.2609 55.8195C28.2749 55.3033 28.5912 54.8676 28.6909 54.3994C28.7378 54.2013 28.3942 54.1804 28.3114 54.2598C27.9944 54.6353 27.9626 55.1839 27.8032 55.6677C27.7296 55.8966 27.7685 56.1666 27.6711 56.4296C27.6462 56.4963 27.7181 56.5565 27.7656 56.5965ZM29.9058 57.2373C29.7963 57.4291 29.6463 57.6487 29.7708 57.8671C29.8375 57.9905 29.9933 58.0467 30.0293 57.9934C30.4117 57.3659 30.6486 56.6116 31.2112 56.1127C31.2524 56.0849 31.2437 56.0015 31.2373 55.969C31.1353 55.7112 30.9024 55.6573 30.7523 55.8497C30.4047 56.2894 30.17 56.7732 29.9058 57.2373ZM31.9384 57.4453C31.9007 57.5195 31.8677 57.6232 31.7941 57.6811C31.7651 57.6904 31.7228 57.6863 31.7124 57.7066C31.622 57.7483 31.6747 57.8775 31.6579 57.9488C31.5762 58.293 31.3161 58.5334 31.2477 58.8903C31.2147 58.994 31.3578 59.0329 31.4337 59.1059C31.7188 59.3011 32.0427 59.2936 32.3758 59.3567C32.4986 59.3776 32.6076 59.2982 32.6429 59.1418C32.6325 59.114 32.6197 59.052 32.5942 59.0636C32.2912 58.9813 31.9453 59.0404 31.6962 58.8133C31.7929 58.5757 31.8711 58.2565 32.0571 58.1916C32.286 58.1099 32.5235 58.5247 32.7988 58.3416C32.8422 57.9471 32.3851 57.9923 32.2286 57.7188C32.3967 57.5728 32.3938 57.1718 32.6336 57.1944C32.8254 57.2141 32.9146 57.4465 33.0827 57.5224C33.2136 57.5751 33.3486 57.4847 33.3098 57.3856C33.1336 56.9279 32.6122 56.6643 32.2298 56.8729C32.0479 56.9673 32.0345 57.2559 31.9384 57.4453ZM34.096 60.6569C34.2078 60.6586 34.366 60.6621 34.4089 60.5538C34.7079 59.8486 35.0167 59.1424 35.4338 58.4934C35.6911 58.5902 35.5752 58.5861 35.8719 58.6551C36.004 58.6661 36.1395 58.6076 36.1517 58.4593C36.1442 58.4303 36.1488 58.3602 36.1291 58.3509C35.4779 58.0873 35.2455 57.8329 34.5149 57.8758C34.3515 57.8857 34.253 58.0751 34.3614 58.2037C34.4518 58.3185 34.6424 58.2397 34.7658 58.2727C34.8336 58.2791 35.0005 58.2611 34.9593 58.3648C34.6743 59.0821 34.2415 59.7235 33.9917 60.4582C33.972 60.5207 33.99 60.6523 34.096 60.6569ZM36.4165 61.3777C36.475 61.5428 36.6871 61.5949 36.7531 61.4964C36.9258 61.2351 36.9211 60.9014 37.1205 60.6563C37.1529 60.9367 37.1651 61.2485 37.2566 61.5179C37.2966 61.6297 37.4617 61.683 37.5608 61.6233C37.7659 61.5219 37.8702 61.2728 37.9449 61.0567C38.1135 60.5671 38.2984 60.0694 38.2937 59.5491C38.2914 59.4222 38.0434 59.3399 37.9832 59.4616C37.8163 59.7855 37.8632 60.1974 37.7445 60.5416C37.6825 60.7224 37.6523 60.9165 37.5255 61.0706C37.4003 60.6059 37.5527 60.1099 37.427 59.6453C37.3968 59.5723 37.2056 59.4732 37.1587 59.5549C36.8354 60.1065 36.6848 60.7038 36.4153 61.2722C36.4101 61.289 36.4026 61.3365 36.4165 61.3777ZM39.6866 60.647C39.4844 60.9831 39.2978 61.3481 39.1333 61.6952C39.0052 61.9652 38.7897 62.19 38.7781 62.4936C39.1524 62.8412 39.1901 62.1019 39.4201 61.9982C39.6008 61.9142 39.85 61.953 39.9809 62.0932C40.1524 62.2844 39.9664 62.5915 40.0574 62.8418C40.1119 62.9843 40.3454 62.9942 40.3923 62.876C40.4995 62.6002 40.2984 62.2734 40.5018 62.0057C40.5279 61.9889 40.5424 61.9298 40.5319 61.8829C40.5099 61.8082 40.4184 61.7815 40.4329 61.7224C40.4392 61.11 40.4954 60.5317 40.4004 59.9529C40.383 59.8405 40.1692 59.8417 40.1159 59.8944C39.9114 60.074 39.8494 60.3828 39.6866 60.647ZM39.8158 61.1239C39.8668 60.9877 39.923 60.8481 40.0447 60.7519C40.0916 61.0532 40.1715 61.384 40.0267 61.6488C39.9549 61.7792 39.7022 61.6813 39.6171 61.5926C39.5244 61.497 39.7457 61.3035 39.8158 61.1239ZM43.8802 63.6993C43.9857 63.6941 44.1178 63.6263 44.101 63.504C43.9718 62.6031 44.1305 61.7004 43.9869 60.8116C43.4109 60.548 43.2562 61.4512 42.9202 61.836C42.9005 61.8516 42.8675 61.7792 42.8495 61.7519C42.7864 61.3209 42.8281 60.8892 42.6485 60.5092C42.6062 60.3823 42.317 60.3313 42.269 60.5092C42.1426 60.9547 42.0673 61.4043 41.941 61.8499C41.846 62.201 41.5349 62.5944 41.7255 62.8997C41.806 63.0336 42.149 63.0457 42.1965 62.8684C42.2446 62.6906 42.2139 62.4513 42.3049 62.2815C42.3593 62.1766 42.3153 61.9159 42.4109 61.9756C42.5268 62.0486 42.5303 62.3209 42.5216 62.5295C42.5077 62.6228 42.5801 62.7259 42.6571 62.7636C42.7916 62.8586 42.9532 62.7682 43.0366 62.6442C43.065 62.6013 43.032 62.5289 43.0598 62.486C43.251 62.1952 43.3431 61.8632 43.5523 61.5996C43.7059 62.2757 43.4758 62.9797 43.6722 63.6628C43.6896 63.6894 43.7841 63.7016 43.8802 63.6993ZM45.5002 62.0724C45.4956 62.1569 45.5072 62.2665 45.4637 62.3534C45.4411 62.3754 45.4012 62.3916 45.4 62.4154C45.3351 62.4965 45.4336 62.5874 45.4475 62.6593C45.5107 63.0081 45.3716 63.3482 45.4521 63.7028C45.4637 63.8117 45.6074 63.7787 45.7053 63.8088C46.0396 63.8488 46.3288 63.6883 46.6532 63.5863C46.772 63.5469 46.8386 63.4235 46.8085 63.2659C46.7882 63.2456 46.7517 63.1964 46.7332 63.219C46.4273 63.2891 46.1399 63.5069 45.8253 63.4206C45.8177 63.1605 45.7615 62.836 45.9029 62.6894C46.0767 62.5069 46.4551 62.767 46.6306 62.4716C46.5124 62.0961 46.119 62.3539 45.8699 62.1824C45.9632 61.9715 45.8009 61.6117 46.0263 61.5173C46.2071 61.4437 46.3792 61.6106 46.5611 61.5984C46.7002 61.5833 46.7853 61.4379 46.7117 61.3672C46.3711 61.0387 45.7969 61.0491 45.5356 61.4194C45.4093 61.5897 45.5112 61.8557 45.5002 62.0724ZM48.0745 62.0416C48.4239 62.4924 48.9216 62.6483 49.2709 63.0938C49.3225 63.1952 49.3271 63.3221 49.2356 63.4067C49.0751 63.4896 48.9163 63.6246 48.7234 63.5342C48.6266 63.4867 48.5328 63.515 48.4372 63.4953C48.3456 63.4716 48.3387 63.2926 48.2193 63.3215C48.0125 63.4351 47.8798 63.785 48.1255 63.8917C48.6736 64.135 49.5641 63.9797 49.7014 63.3041C49.8607 62.5278 48.8891 62.3661 48.5131 61.7896C48.4893 61.7392 48.5351 61.6894 48.5814 61.6592C48.8798 61.4663 49.2304 61.5017 49.5566 61.3539C49.6504 61.3261 49.7883 61.216 49.7315 61.0909C49.6887 60.9889 49.5606 60.9101 49.4459 60.9489C48.91 61.125 48.2773 61.1592 47.9233 61.69C47.8329 61.8221 47.9696 61.9055 48.0745 62.0416ZM51.0375 62.0619C51.045 62.1465 51.0711 62.2525 51.0404 62.3458C51.0207 62.3713 50.9842 62.3945 50.9859 62.4177C50.9332 62.5081 51.0433 62.5822 51.0665 62.6506C51.1771 62.9849 51.0867 63.3441 51.2148 63.6813C51.2414 63.7874 51.3793 63.7306 51.4796 63.7439C51.8156 63.7283 52.0793 63.522 52.3863 63.3673C52.4982 63.3088 52.5474 63.1755 52.4953 63.0249C52.4721 63.0081 52.4298 62.9652 52.4147 62.9907C52.1221 63.1106 51.8678 63.3731 51.545 63.3395C51.5016 63.084 51.4014 62.7723 51.5213 62.6037C51.6679 62.3945 52.0781 62.5892 52.2108 62.2682C52.0422 61.9165 51.6887 62.2363 51.4187 62.1077C51.4819 61.8835 51.2722 61.5544 51.4813 61.4246C51.6499 61.322 51.8434 61.4588 52.0213 61.4165C52.1563 61.3788 52.2212 61.2212 52.1383 61.1633C51.7565 60.895 51.1899 60.9999 50.983 61.4089C50.8811 61.6001 51.019 61.8464 51.0375 62.0619ZM55.825 62.7618C55.9583 62.8615 56.1605 62.7728 56.1634 62.6506C56.1703 62.3284 55.9936 62.0561 56.0307 61.7305C56.2028 61.9414 56.3743 62.1911 56.5892 62.3557C56.6802 62.4235 56.8442 62.3644 56.8946 62.2537C57.011 62.0422 56.9676 61.7728 56.9172 61.5486C56.8025 61.041 56.697 60.5161 56.423 60.0902C56.3552 59.9871 56.1089 60.0734 56.1217 60.2108C56.1524 60.581 56.4044 60.8916 56.485 61.2485C56.5273 61.4362 56.6032 61.6146 56.5788 61.8197C56.2347 61.515 56.1031 61.0115 55.759 60.7067C55.6964 60.6656 55.4878 60.7027 55.4913 60.7988C55.511 61.4536 55.6964 62.0393 55.7694 62.6749C55.774 62.6929 55.7926 62.7363 55.825 62.7618ZM58.0151 61.0735C58.0406 61.4483 58.3043 61.7259 58.6113 61.8267C58.9184 61.9275 59.2238 61.7838 59.4242 61.486C59.7313 61.037 59.66 60.3394 59.1983 60.0138C58.4989 59.5207 57.981 60.417 58.0151 61.0735ZM58.5256 61.1801C58.4566 61.052 58.4914 60.5387 58.6165 60.4599C58.7405 60.3765 58.985 60.3417 59.0818 60.4993C59.2516 60.7832 59.262 61.1546 59.0459 61.3881C58.8541 61.5874 58.6403 61.3806 58.5256 61.1801ZM60.6931 59.9952C60.7354 60.3684 61.0112 60.6314 61.3223 60.716C61.6335 60.8 61.9318 60.6407 62.119 60.3324C62.4052 59.8678 62.3032 59.1748 61.8276 58.8741C61.1068 58.4187 60.6294 59.3417 60.6931 59.9952ZM61.207 60.0752C61.1323 59.9506 61.1439 59.4361 61.2655 59.3509C61.3855 59.2611 61.6282 59.213 61.7319 59.3654C61.9145 59.6401 61.9411 60.0103 61.7354 60.2554C61.5535 60.4645 61.3316 60.2687 61.207 60.0752ZM63.896 59.5902C64.1051 59.5595 64.2598 59.4066 64.3757 59.2223C64.7361 58.6777 64.7668 57.7541 64.1219 57.4077C63.8728 57.275 63.6497 57.2066 63.3873 57.1776C63.192 57.1574 62.9991 57.2211 62.8542 57.3045C62.7627 57.3364 62.626 57.4366 62.6636 57.596C62.6717 57.6128 62.6827 57.6753 62.7059 57.6834C62.7627 57.7199 62.8537 57.7368 62.878 57.7866C63.1671 58.2536 63.4458 58.7101 63.6642 59.1916C63.6944 59.2646 63.6138 59.3486 63.6092 59.4205C63.6254 59.5445 63.783 59.6082 63.896 59.5902ZM64.0374 59.0665C64.0032 59.0862 63.3247 57.7837 63.2587 57.6464C63.5698 57.5143 63.9279 57.6805 64.1382 57.8943C64.3253 58.0792 64.3062 58.3834 64.2871 58.6452C64.2761 58.7843 64.1979 59.0161 64.0374 59.0665ZM65.8074 57.7205C65.9569 57.9685 66.0392 58.3544 66.3607 58.3486C66.6719 57.8028 67.4268 57.7043 67.5045 57.045C67.5155 56.9691 67.3341 56.9082 67.2327 56.885C67.1238 56.9013 67.0711 57.0015 67.038 57.093C66.8996 57.3509 66.6104 57.5479 66.3874 57.7084C65.841 57.1429 65.7703 56.2633 65.2848 55.688C65.1504 55.5252 64.8891 55.7929 64.9522 55.9667C65.1985 56.5971 65.4714 57.162 65.8074 57.7205ZM67.7808 55.137C67.8295 55.2031 67.9048 55.2755 67.9263 55.3722C67.9228 55.4053 67.9037 55.4464 67.917 55.4649C67.9187 55.5727 68.0479 55.5675 68.1018 55.611C68.3625 55.8224 68.4686 56.177 68.7455 56.3804C68.8208 56.4528 68.9072 56.3225 68.9981 56.2726C69.2704 56.0571 69.3857 55.7251 69.5642 55.4111C69.6279 55.2946 69.6019 55.1544 69.4825 55.0599C69.4547 55.0599 69.3979 55.0501 69.3979 55.0802C69.2142 55.3566 69.1349 55.7292 68.8486 55.8966C68.6835 55.7095 68.4425 55.5101 68.4576 55.2975C68.4744 55.035 68.9147 54.9493 68.8631 54.6016C68.545 54.4099 68.4124 54.8902 68.1221 54.9464C68.0613 54.7216 67.7206 54.5738 67.8295 54.3386C67.9181 54.1515 68.1482 54.1486 68.2756 54.006C68.3695 53.8931 68.3434 53.7227 68.2449 53.7244C67.7913 53.7308 67.3718 54.1607 67.4054 54.6271C67.4175 54.8462 67.6563 54.9684 67.7808 55.137ZM71.1384 51.7452C71.6767 51.7974 72.1309 51.5262 72.6657 51.5755C72.7671 51.6079 72.8523 51.6948 72.8412 51.8252C72.7804 52.0077 72.7538 52.225 72.5585 52.3096C72.4594 52.3501 72.4108 52.4422 72.3302 52.5019C72.2497 52.5552 72.1298 52.433 72.0637 52.546C71.989 52.7858 72.1193 53.1369 72.3627 53.0245C72.909 52.7766 73.4438 51.9822 73.1078 51.3953C72.723 50.7203 71.927 51.3512 71.2896 51.2296C71.2404 51.2116 71.241 51.1415 71.2543 51.0841C71.3429 50.7174 71.6153 50.4735 71.7526 50.1177C71.8012 50.0262 71.8291 49.8413 71.7085 49.7962C71.6129 49.7568 71.471 49.7991 71.4136 49.9144C71.1448 50.4515 70.7166 50.9619 70.8047 51.6114C70.825 51.7742 70.9762 51.7279 71.1384 51.7452ZM73.5441 49.8066C73.7387 50.1166 74.0945 50.211 74.4062 50.1287C74.7179 50.0465 74.9155 49.7544 74.9514 49.3865C75.0093 48.8297 74.6269 48.266 74.0783 48.2399C73.2468 48.1993 73.2121 49.2591 73.5441 49.8066ZM74.0342 49.6183C73.9154 49.5453 73.7092 49.0829 73.781 48.9462C73.85 48.806 74.0446 48.6408 74.2011 48.7237C74.4786 48.8755 74.6588 49.1901 74.5794 49.5117C74.5053 49.7892 74.2254 49.7278 74.0342 49.6183ZM76.2348 47.6217C76.7475 47.54 76.8327 46.7677 76.6705 46.2955C76.4318 45.6048 75.8825 45.223 75.2996 44.902C75.2643 44.8754 75.233 44.9663 75.1797 44.9258C75.1125 45.1152 75.0227 45.3395 75.1658 45.4194C75.4775 45.6552 75.8495 45.7879 76.1096 46.1054C76.3611 46.3534 76.6542 46.8673 76.2678 47.0562C75.7498 47.3117 75.1049 46.8001 74.8106 46.2798C74.7486 46.2039 74.671 46.2028 74.6072 46.212C74.4334 46.321 74.4131 46.5689 74.5134 46.7086C74.9346 47.2851 75.5482 47.7381 76.2348 47.6217ZM76.4793 44.2154C76.9341 44.5521 77.3993 44.8678 77.9353 45.1025C77.9683 45.0955 78.0222 45.0961 78.068 45.0648C78.2018 44.909 78.178 44.6842 78.0766 44.5636C77.9115 44.4037 77.6647 44.4043 77.4706 44.2537C77.572 43.5711 77.8072 42.5172 77.05 42.1748C76.3396 42.3405 75.8257 42.9819 75.7266 43.7577C75.7174 43.8435 75.8431 44.0121 75.9746 43.968C76.0204 43.9367 76.054 43.8707 76.0957 43.8365C76.1774 44.0045 76.3385 44.1135 76.4793 44.2154ZM76.623 43.7102C76.5216 43.6482 76.474 43.5277 76.3686 43.4634C76.3049 43.4246 76.1855 43.5028 76.1983 43.4779C76.2892 43.0862 76.66 42.8909 76.9862 42.7339C77.2713 43.0259 77.3176 43.6801 77.0529 43.9391C76.9428 44.0503 76.7736 43.8017 76.623 43.7102Z" fill="#DB4D29"/>
<path d="M76.9545 38.9688C76.8629 39.0094 76.7563 38.9677 76.7163 38.8767C76.6758 38.7852 76.7175 38.6786 76.8084 38.6386C77.8664 38.1722 78.1532 38.6519 78.4597 39.1652C78.7002 39.5673 78.9568 39.9967 79.9128 39.6664C80.0073 39.634 80.1104 39.6838 80.1429 39.7782C80.1753 39.8727 80.1255 39.9758 80.031 40.0083C78.7963 40.4347 78.462 39.875 78.1486 39.3512C77.9273 38.9793 77.7193 38.6316 76.9545 38.9688ZM76.4197 40.0459C76.3281 40.0865 76.2215 40.0448 76.1815 39.9538C76.141 39.8623 76.1827 39.7556 76.2737 39.7157C77.3316 39.2493 77.6184 39.729 77.9249 40.2423C78.1654 40.6444 78.4221 41.0738 79.3781 40.7435C79.4725 40.7111 79.5756 40.7609 79.6081 40.8553C79.6405 40.9498 79.5907 41.0529 79.4963 41.0854C78.2616 41.5118 77.9273 40.9521 77.6138 40.4283C77.3919 40.0564 77.1845 39.7087 76.4197 40.0459Z" fill="#DB4D29"/>
<path d="M27.1113 51.893C27.1136 51.7933 27.1965 51.7145 27.2967 51.7168C27.3969 51.7192 27.4751 51.802 27.4728 51.9022C27.4433 53.0581 26.8865 53.1126 26.2914 53.1705C25.825 53.2163 25.3279 53.265 25.2178 54.2708C25.2068 54.3705 25.1176 54.4417 25.0185 54.4313C24.9194 54.4203 24.8476 54.3311 24.858 54.232C24.9994 52.9336 25.6483 52.8698 26.2561 52.8107C26.6866 52.7679 27.0898 52.7285 27.1113 51.893ZM26.3656 50.9491C26.3679 50.8495 26.4508 50.7707 26.551 50.773C26.6507 50.7753 26.7295 50.8582 26.7271 50.9584C26.6976 52.1143 26.1408 52.1688 25.5458 52.2267C25.0793 52.2725 24.5822 52.3211 24.4721 53.327C24.4611 53.426 24.3719 53.4979 24.2728 53.4875C24.1732 53.4764 24.1019 53.3872 24.1123 53.2881C24.2537 51.9897 24.9026 51.926 25.5104 51.8669C25.9409 51.824 26.3442 51.7846 26.3656 50.9491Z" fill="#DB4D29"/>
<path d="M27.2707 39.7442C27.2116 38.0158 27.6733 36.244 28.5923 34.6403C29.4735 33.102 30.7748 31.7155 32.4389 30.6697C34.5322 29.3539 36.8608 28.7884 39.037 28.9147C41.285 29.0451 43.3761 29.9113 44.8958 31.4496C44.9885 31.5434 45.087 31.6489 45.1902 31.7653C45.2852 31.8725 45.3785 31.9838 45.47 32.0991C45.5662 32.2207 45.6543 32.3378 45.7331 32.4484C45.8107 32.5579 45.8912 32.679 45.9752 32.8129L44.6241 33.6611C44.5679 33.5713 44.5018 33.474 44.4288 33.3703C44.3547 33.2654 44.284 33.1709 44.2174 33.0869C44.1473 32.9983 44.0737 32.9108 43.9966 32.8239C43.9277 32.7462 43.8489 32.6622 43.7602 32.5724C42.5238 31.3209 40.8053 30.6152 38.9472 30.5075C37.0879 30.3997 35.0913 30.887 33.2882 32.0208C31.8514 32.9241 30.7314 34.1142 29.9776 35.43C29.2058 36.7771 28.8176 38.2551 28.8669 39.688L27.2707 39.7442Z" fill="#DB4D29"/>
<path d="M30.4685 39.842C30.4262 38.6079 30.7553 37.3443 31.41 36.2017C32.0357 35.1095 32.9587 34.1257 34.1378 33.3847C35.6222 32.4518 37.274 32.0509 38.8198 32.1407C40.4259 32.234 41.9208 32.8545 43.01 33.9565C43.0749 34.022 43.1456 34.0979 43.2221 34.1842C43.2893 34.2601 43.3559 34.3395 43.4214 34.4218L43.4226 34.4212C43.484 34.4983 43.5471 34.5829 43.6114 34.6738C43.6653 34.7503 43.7238 34.8378 43.7858 34.9363L42.4347 35.7845C42.3999 35.7295 42.357 35.6657 42.3072 35.5956C42.2672 35.5389 42.2215 35.478 42.1711 35.4149L42.1705 35.412C42.1259 35.3552 42.0778 35.299 42.0285 35.2428C41.9868 35.1953 41.9347 35.1408 41.8744 35.0794C41.0691 34.2642 39.9456 33.8042 38.7295 33.7335C37.5011 33.6622 36.1807 33.9849 34.9866 34.7358C34.0346 35.3343 33.293 36.1212 32.7953 36.9914C32.2878 37.8767 32.0323 38.8472 32.0647 39.7858L30.4685 39.842Z" fill="#DB4D29"/>
<path d="M40.7891 30.7337C41.0469 29.8015 41.5898 28.9341 42.3465 28.2342C43.0672 27.5673 43.9821 27.0517 45.0285 26.777C46.2319 26.4607 47.7151 26.5407 48.9695 27.0604C50.1028 27.5297 51.0658 28.3542 51.5206 29.5668L50.0275 30.123C49.7453 29.3716 49.115 28.8466 48.3635 28.5349C47.4272 28.1473 46.3252 28.0865 45.4346 28.32C44.6438 28.5274 43.9595 28.911 43.4276 29.4029C42.8894 29.9006 42.5058 30.5095 42.3262 31.1584L40.7891 30.7337Z" fill="#DB4D29"/>
<path d="M57.5645 29.8804C57.7742 28.447 58.3663 27.0622 59.2638 25.8895C60.1312 24.7562 61.2876 23.8182 62.6637 23.2226C64.4077 22.4676 66.216 22.39 67.8093 22.8738C69.4461 23.3709 70.854 24.4567 71.7376 26.0072C71.7978 26.1126 71.8535 26.2163 71.9045 26.3171C71.9624 26.4324 72.014 26.5408 72.058 26.6399C72.0916 26.7163 72.1374 26.8282 72.1936 26.9747C72.2463 27.1126 72.288 27.2274 72.3176 27.3166L70.7996 27.8102C70.7613 27.6938 70.73 27.6051 70.7068 27.5431C70.686 27.4887 70.6489 27.4018 70.5968 27.283C70.555 27.1885 70.5162 27.1063 70.4809 27.0356C70.4374 26.9493 70.394 26.8687 70.3517 26.794C69.6761 25.608 68.5996 24.7777 67.3481 24.3976C66.103 24.0198 64.6794 24.0847 63.2958 24.6838C62.1828 25.1653 61.2425 25.9301 60.5333 26.8571C59.8003 27.8149 59.3171 28.9435 59.1462 30.111L57.5645 29.8804Z" fill="#DB4D29"/>
<path d="M59.8281 30.4911C60.0946 28.6684 61.0935 27.2517 62.3833 26.3548C63.2083 25.7812 64.1556 25.4191 65.1087 25.2998C66.0752 25.1787 67.0543 25.3085 67.9281 25.7198C69.0445 26.2448 69.9687 27.2152 70.4525 28.6881L68.9345 29.1817C68.6007 28.166 67.9866 27.5078 67.2531 27.1631C66.665 26.8861 65.9859 26.801 65.3022 26.8867C64.6046 26.9742 63.9065 27.2413 63.2952 27.6666C62.3433 28.3288 61.6051 29.3752 61.4087 30.7217L59.8281 30.4911Z" fill="#DB4D29"/>
<path d="M51.5137 29.6049C51.6689 28.6495 52.1359 27.814 52.7941 27.1495C53.406 26.5318 54.1858 26.0625 55.0318 25.785C55.8753 25.5081 56.7925 25.4211 57.6813 25.5654C58.6512 25.723 59.584 26.1564 60.3535 26.9177L59.2289 28.0487C58.7132 27.5377 58.0828 27.2468 57.4252 27.1396C56.796 27.0371 56.1378 27.102 55.5254 27.3024C54.9159 27.5023 54.3573 27.8366 53.9245 28.2735C53.4923 28.7098 53.187 29.2509 53.0879 29.8605L51.5137 29.6049Z" fill="#DB4D29"/>
<path d="M42.9473 31.222L42.9536 31.2139C43.5249 30.4763 44.5493 29.8395 45.6571 29.5777C46.8014 29.3071 48.0598 29.4183 49.0657 30.1907L49.0744 30.1976L48.1062 31.4659L48.0975 31.4589C47.5187 31.0145 46.7446 30.9618 46.0198 31.1333C45.259 31.3129 44.5765 31.7237 44.2161 32.1884L44.2098 32.1965L42.9473 31.222Z" fill="#DB4D29"/>
<path d="M53.6777 29.4418C53.9205 29.1289 54.2073 28.8485 54.5312 28.6144C54.8441 28.3885 55.1929 28.206 55.5712 28.0802C56.1888 27.8746 56.8065 27.845 57.3783 27.9655C57.9815 28.0924 58.5325 28.3838 58.9803 28.808L57.8807 29.9638C57.6483 29.7437 57.3633 29.5925 57.0533 29.527C56.745 29.4621 56.4096 29.4789 56.0712 29.5913C55.8545 29.6631 55.65 29.7709 55.4623 29.9071C55.267 30.0479 55.0915 30.2205 54.9402 30.4158L53.6777 29.4418Z" fill="#DB4D29"/>
<path d="M45.7109 34.4806C45.7556 33.5043 46.0928 32.5321 46.6774 31.6781C47.233 30.8658 48.0163 30.1554 48.9857 29.6496L48.9868 29.649C50.2285 29.0013 51.714 28.7678 53.0629 29.0285C54.4644 29.2997 55.7275 30.0923 56.4581 31.4903L56.4645 31.5031L56.4651 31.5037L55.7107 31.8809L55.0461 32.2279C54.5652 31.3067 53.7141 30.7806 52.7633 30.5969C51.7592 30.4028 50.6514 30.5772 49.7244 31.061L49.7232 31.0616C48.9967 31.4411 48.4109 31.9718 47.9961 32.5779C47.5766 33.1903 47.3356 33.8751 47.3049 34.5495L45.7109 34.4806Z" fill="#DB4D29"/>
<path d="M74.0136 24.3091L23.4551 40.5918C26.2715 49.2532 33.1211 55.4828 41.2529 57.8693C41.3276 57.3148 41.3508 56.714 41.3271 56.0894C41.1231 50.9206 37.6329 43.1823 40.3722 38.3067C38.389 38.7261 36.7603 38.8855 35.4369 39.3119C28.6424 41.5003 30.1355 48.1772 33.7573 48.0822C34.1165 48.0642 34.4688 48.0237 34.7776 47.924C36.1009 47.4982 36.904 46.3626 37.0627 45.1916C37.2533 43.7425 36.3327 42.0183 34.1849 42.0768L34.3436 41.5872C36.7748 41.8027 37.7904 43.5206 37.7279 45.3672C37.6722 47.2357 36.4938 49.2462 34.5742 49.8644C34.3094 49.9496 34.0157 50.0197 33.7295 50.0388C28.7554 50.5452 27.1846 41.4337 35.1843 38.9063C36.5743 38.4585 38.3716 38.2939 40.6781 37.7458C41.5183 36.5743 42.2645 36.0175 42.8161 35.8396C44.0734 35.4346 44.0919 37.2307 40.7604 38.3032C39.345 41.316 44.0948 51.3025 42.7779 56.1335C43.9564 54.123 46.4252 44.855 48.6176 39.7175C50.3749 35.5725 52.1646 33.2671 54.7238 32.4432C55.2088 32.2868 55.7378 32.1894 56.3027 32.1297L55.8194 33.5023C55.1236 33.4589 54.4857 33.518 53.8901 33.7097C52.0592 34.2996 50.6767 36.1328 49.1292 39.8693C46.8945 45.2501 44.6806 54.1201 42.3433 58.1642C46.9756 59.3137 51.9752 59.228 56.8525 57.6573C70.7898 53.1687 78.4604 38.2499 74.0136 24.3091ZM51.3564 38.6334C51.4161 37.8356 52.0476 36.999 52.7753 36.7643C53.4816 36.5372 53.9967 37.0042 53.9376 37.8026C53.8634 38.63 53.2319 39.4666 52.5256 39.6937C51.7979 39.9284 51.2822 39.4614 51.3564 38.6334ZM71.4301 45.1707C69.7104 48.5243 67.8158 49.5973 66.6669 49.4316C65.2665 49.2242 64.9374 47.8139 65.0515 46.0816C64.8957 46.4576 64.7282 46.8197 64.5498 47.1673C63.3823 49.5156 61.6783 51.3303 60.1429 51.7028C57.8369 52.2602 56.7627 50.5035 56.3925 48.5306C56.1862 49.1564 55.9817 49.7213 55.7679 50.2144C54.4011 53.4549 52.8651 54.5824 51.7162 54.4167C49.6448 54.1102 50.3083 50.8772 50.8929 48.1569C51.2868 46.2038 51.5841 43.6493 50.6785 42.5774L53.8993 41.5397C52.3715 44.0531 51.8222 46.1291 51.4288 48.0816C51.0522 49.7856 51.4908 51.3732 52.412 51.5875C53.0696 51.7411 54.1566 51.5615 55.1392 50.0765C55.5141 49.5145 55.9371 48.7259 56.2783 47.7166C56.1955 46.8382 56.2349 45.9738 56.3525 45.3028C56.8438 42.4424 58.5096 40.0553 60.826 39.309C63.8041 38.3501 64.464 43.348 61.6331 45.6719C61.1528 46.07 60.629 46.4089 60.0994 46.5798C59.239 46.8568 58.3462 46.7305 57.5478 45.9894C57.6109 47.6975 58.3879 49.1274 59.5368 49.2931C59.9685 49.3487 60.4894 49.3024 61.0409 49.1251C63.1766 48.4374 64.6129 46.3956 65.2798 44.3341C65.172 44.9303 65.0886 45.5224 65.0521 46.081C65.3412 45.3857 65.5921 44.6452 65.8001 43.8671L65.3806 44.0021C65.3493 44.1122 65.3157 44.2229 65.2804 44.3329C65.3325 44.0444 65.3905 43.7547 65.4524 43.4679C65.8047 41.991 66.2207 39.9579 66.6083 37.9098L64.8215 38.4851L64.9953 37.9666L66.7161 37.4127C67.3581 34.1136 67.8894 30.8499 67.9155 29.7218L70.7174 28.8197C69.5974 30.8603 68.4578 34.0516 67.5545 37.1427L70.4219 36.2191L70.2481 36.7377L67.4027 37.6537C67 39.0494 66.6495 40.3797 66.3801 41.5866C65.8511 43.8752 66.0683 46.2884 67.4125 46.7565C68.3181 47.0735 69.6438 46.4274 70.7133 45.0607C71.3518 44.2466 72.0911 42.9128 72.462 41.7216L72.8814 41.5866C72.4712 42.9604 71.9086 44.2373 71.4301 45.1707Z" fill="#DB4D29"/>
</svg>
