<svg width="21" height="19" viewBox="0 0 21 19" fill="none" xmlns="http://www.w3.org/2000/svg">
<path d="M10.0264 0.958922C10.1797 0.505983 10.8203 0.505985 10.9736 0.958921L12.6029 5.77269C12.809 6.38184 13.3806 6.7918 14.0237 6.7918H19.2065C19.6957 6.7918 19.8938 7.42198 19.4925 7.7019L15.3707 10.5768C14.8234 10.9585 14.5941 11.6559 14.808 12.2879L16.3988 16.988C16.5535 17.4451 16.0349 17.8345 15.6391 17.5584L11.3581 14.5725C10.8425 14.2129 10.1575 14.2129 9.64189 14.5725L5.36085 17.5584C4.96506 17.8345 4.4465 17.4451 4.60121 16.988L6.19199 12.2879C6.40592 11.6559 6.17659 10.9585 5.62928 10.5768L1.50751 7.70189C1.1062 7.42199 1.30426 6.7918 1.79355 6.7918H6.97631C7.61941 6.7918 8.19096 6.38184 8.39713 5.77269L10.0264 0.958922Z" fill="white" stroke="#E6E6E6"/>
</svg>
