<svg width="16" height="16" viewBox="0 0 16 16" fill="none" xmlns="http://www.w3.org/2000/svg">
<g clipPath="url(#clip0_1084_19827)">
<path d="M9.99989 8.66672C9.63125 8.66672 9.33328 8.96542 9.33328 9.33334V12.0001C9.33328 12.3674 9.03457 12.6667 8.66653 12.6667H6.66656V2.66678C6.66656 2.09745 6.30389 1.58879 5.75861 1.39946L5.56122 1.33342H8.66653C9.03457 1.33342 9.33328 1.63273 9.33328 2.00016V4.00014C9.33328 4.36806 9.63125 4.66676 9.99989 4.66676C10.3685 4.66676 10.6665 4.36806 10.6665 4.00014V2.00016C10.6665 0.897513 9.76918 0.000183105 8.66653 0.000183105H1.49998C1.47459 0.000183105 1.45335 0.0115355 1.4287 0.0148314C1.39659 0.0121459 1.36595 0.000183105 1.33336 0.000183105C0.598016 0.000183105 0 0.598077 0 1.33342V13.3333C0 13.9026 0.362667 14.4113 0.907949 14.6006L4.91999 15.938C5.05598 15.98 5.19123 16 5.33332 16C6.06866 16 6.66656 15.402 6.66656 14.6667V14H8.66653C9.76918 14 10.6665 13.1027 10.6665 12.0001V9.33334C10.6665 8.96542 10.3685 8.66672 9.99989 8.66672V8.66672Z" fill="#DB4D29"/>
<path d="M15.8045 6.19542L13.1378 3.52883C12.9472 3.33815 12.6605 3.28078 12.4112 3.38405C12.1626 3.48744 11.9998 3.73073 11.9998 4.00013V6.00011H9.33324C8.96521 6.00011 8.6665 6.29869 8.6665 6.66673C8.6665 7.03477 8.96521 7.33335 9.33324 7.33335H11.9998V9.33333C11.9998 9.60274 12.1626 9.84602 12.4112 9.94941C12.6605 10.0527 12.9472 9.99531 13.1378 9.80476L15.8045 7.13804C16.0651 6.87742 16.0651 6.45604 15.8045 6.19542V6.19542Z" fill="#DB4D29"/>
</g>
<defs>
<clipPath id="clip0_1084_19827">
<rect width="16" height="16" fill="white"/>
</clipPath>
</defs>
</svg>
