<svg xmlns="http://www.w3.org/2000/svg" width="68" height="68" viewBox="0 0 68 68" fill="none">
<rect width="68" height="68" rx="16" fill="white"/>
<g clip-path="url(#clip0_13297_56257)" filter="url(#filter0_d_13297_56257)">
<path d="M57.3501 24.7797H10.6572V55.9925H57.3501V24.7797Z" fill="#FF9C00"/>
<path d="M59 54.6318H9V56H59V54.6318Z" fill="#006478"/>
<path d="M58.6898 24.7871H9.3103L14.358 13.8491H53.6421L58.6898 24.7871Z" fill="#006478"/>
<path d="M58.6896 24.7871L53.6419 13.8491H33.9961V24.7871H58.6896Z" fill="#006E82"/>
<path d="M26.194 29.7186H13.2002V56H26.194V29.7186Z" fill="#BE3C00"/>
<path d="M54.6409 31.0117H28.7214V48.257H54.6409V31.0117Z" fill="#BEF5FA"/>
<path d="M36.3497 48.287L34.9724 46.9263L33.8751 45.8362C33.8787 45.7937 33.8787 45.751 33.8751 45.7084C33.6355 45.5268 33.4344 45.3001 33.2831 45.0412C33.1318 44.7823 33.0333 44.4964 32.9933 44.1997C32.9532 43.903 32.9724 43.6014 33.0497 43.3121C33.1269 43.0228 33.2608 42.7514 33.4437 42.5135C33.6266 42.2756 33.8548 42.0758 34.1154 41.9255C34.376 41.7752 34.6638 41.6773 34.9625 41.6375C35.2612 41.5977 35.5648 41.6168 35.856 41.6936C36.1473 41.7703 36.4205 41.9033 36.66 42.085L36.8946 42.318V42.3631L41.4352 46.8737L42.8201 48.2343L36.3497 48.287Z" fill="#B4EBF0"/>
<path d="M24.8998 31.0117H14.5774V48.257H24.8998V31.0117Z" fill="#BEF5FA"/>
<g opacity="0.5">
<path d="M21.1008 48.257H17.6953L14.5774 45.1522V41.7769L21.1008 48.257Z" fill="white"/>
</g>
<g opacity="0.5">
<path d="M24.8923 34.5901V39.7471L16.0986 31.0117H21.2901L24.8923 34.5901Z" fill="white"/>
</g>
<path d="M55.7838 48.257H27.5713V49.6252H55.7838V48.257Z" fill="#BE3C00"/>
<path d="M55.7838 29.7939H27.5713L29.8643 27.3657H53.4908L55.7838 29.7939Z" fill="#FFD200"/>
<path d="M49.5934 12.6689H45.1587V17.0742H49.5934V12.6689Z" fill="#FF9C00"/>
<g opacity="0.5">
<path d="M54.6333 34.5901V39.7471L45.8396 31.0117H51.0311L54.6333 34.5901Z" fill="white"/>
</g>
<path d="M50.509 11H44.2354V12.6689H50.509V11Z" fill="#BE3C00"/>
<path d="M54.6409 39.4088H28.7214V39.8674H54.6409V39.4088Z" fill="#BE3C00"/>
<path d="M41.9121 31.0117H41.4504V48.257H41.9121V31.0117Z" fill="#BE3C00"/>
<path d="M48.5566 31.0117H48.095V48.257H48.5566V31.0117Z" fill="#BE3C00"/>
<path d="M35.4492 31.0117H34.9875V48.257H35.4492V31.0117Z" fill="#BE3C00"/>
<path d="M24.8922 39.4088H14.4185V39.8674H24.8922V39.4088Z" fill="#BE3C00"/>
<path d="M19.9655 31.0117H19.5039V48.257H19.9655V31.0117Z" fill="#BE3C00"/>
<path d="M55.8065 29.7938H27.594V32.222H55.8065V29.7938Z" fill="#FFD200"/>
<path d="M20.6921 48.9937H14.5774V50.3618H20.6921V48.9937Z" fill="#FFD200"/>
<path d="M54.6335 46.9037V48.2569H49.4344L48.0874 46.9188L46.9901 45.8287C46.9936 45.7887 46.9936 45.7485 46.9901 45.7084C46.5063 45.3416 46.1892 44.7989 46.1083 44.1997C46.0274 43.6005 46.1894 42.994 46.5587 42.5135C46.928 42.033 47.4743 41.7179 48.0775 41.6375C48.6807 41.5572 49.2913 41.7181 49.775 42.085H49.8128L50.0474 42.318L50.0853 42.3631L54.6335 46.9037Z" fill="#B4EBF0"/>
<g opacity="0.5">
<path d="M35.2448 48.257H31.8393L28.7214 45.1522V41.7769L35.2448 48.257Z" fill="white"/>
</g>
<path d="M37.5076 43.8367C37.5045 44.3482 37.3264 44.8435 37.0025 45.2412C36.6787 45.6389 36.2283 45.9155 35.7254 46.0254C35.2225 46.1354 34.6969 46.0723 34.2349 45.8464C33.7728 45.6205 33.4018 45.2453 33.1827 44.7823C32.9637 44.3194 32.9095 43.7962 33.0292 43.2987C33.1489 42.8011 33.4353 42.3588 33.8414 42.0443C34.2476 41.7298 34.7493 41.5617 35.2642 41.5678C35.7791 41.5738 36.2767 41.7536 36.6752 42.0776C36.7608 42.1475 36.8393 42.2256 36.9098 42.3106C37.2945 42.7269 37.5079 43.2715 37.5076 43.8367Z" fill="#006400"/>
<path d="M35.4492 42.9194H34.9875V46.4903H35.4492V42.9194Z" fill="#3C1E1E"/>
<path d="M35.0407 45.686L33.845 44.4907L34.1628 44.1749L35.3661 45.3627L35.0407 45.686Z" fill="#3C1E1E"/>
<path d="M35.3659 44.7463L35.0405 44.423L36.1227 43.348L36.4481 43.6638L35.3659 44.7463Z" fill="#3C1E1E"/>
<path d="M36.5618 45.6934C36.5164 46.2046 36.4861 46.5955 36.4558 46.9864C36.4256 47.3774 36.3953 47.7382 36.3499 48.2719H34.0796C34.0342 47.7532 34.0039 47.3623 33.9736 46.9789C33.9434 46.5955 33.9131 46.2723 33.8752 45.8137C33.8789 45.7712 33.8789 45.7284 33.8752 45.6859L36.5618 45.6934Z" fill="#DC5000"/>
<path d="M50.6225 43.8366C50.624 44.2008 50.5366 44.5599 50.3679 44.8833C50.1993 45.2067 49.9542 45.4846 49.6538 45.6934C49.2679 45.9688 48.8047 46.1169 48.3295 46.1169C47.8543 46.1169 47.3911 45.9688 47.0051 45.6934C46.5224 45.3276 46.2058 44.7862 46.1249 44.1885C46.044 43.5907 46.2055 42.9855 46.5738 42.506C46.9421 42.0265 47.4871 41.712 48.0888 41.6316C48.6906 41.5513 49.2998 41.7116 49.7825 42.0775H49.8279C49.9117 42.1494 49.9901 42.2273 50.0625 42.3105H50.1003C50.4577 42.738 50.6436 43.2814 50.6225 43.8366Z" fill="#006400"/>
<path d="M48.5566 42.9194H48.095V46.4903H48.5566V42.9194Z" fill="#3C1E1E"/>
<path d="M47.277 44.1716L46.9504 44.4957L48.1487 45.6869L48.4752 45.3627L47.277 44.1716Z" fill="#3C1E1E"/>
<path d="M48.4734 44.7463L48.1479 44.423L49.2377 43.348L49.5555 43.6638L48.4734 44.7463Z" fill="#3C1E1E"/>
<path d="M49.669 45.6934C49.6311 46.2046 49.6009 46.5955 49.5706 46.9864C49.5403 47.3774 49.51 47.7382 49.4571 48.2719H47.1867C47.1413 47.7532 47.1186 47.3623 47.0884 46.9789C47.0581 46.5955 47.0278 46.2723 46.99 45.8137C46.99 45.8137 46.99 45.731 46.99 45.6859L49.669 45.6934Z" fill="#DC5000"/>
<path d="M29.5465 29.7938H27.5713V32.222H29.5465V29.7938Z" fill="#DC5000"/>
<path d="M33.2923 29.7938H31.3171V32.222H33.2923V29.7938Z" fill="#DC5000"/>
<path d="M37.046 29.7938H35.0708V32.222H37.046V29.7938Z" fill="#DC5000"/>
<path d="M40.7921 29.7938H38.8169V32.222H40.7921V29.7938Z" fill="#DC5000"/>
<path d="M44.5382 29.7938H42.563V32.222H44.5382V29.7938Z" fill="#DC5000"/>
<path d="M48.284 29.7938H46.3164V32.222H48.284V29.7938Z" fill="#DC5000"/>
<path d="M52.0377 29.7938H50.0625V32.222H52.0377V29.7938Z" fill="#DC5000"/>
<path d="M55.7838 29.7938H53.8086V32.222H55.7838V29.7938Z" fill="#DC5000"/>
<path d="M55.7611 29.7939H27.5864C27.7453 29.3128 27.874 28.9444 27.9951 28.5836C28.1162 28.2227 28.2373 27.8318 28.4037 27.3657H54.9438C55.1103 27.8544 55.2313 28.2152 55.3524 28.5836C55.4735 28.9519 55.6022 29.3128 55.7611 29.7939Z" fill="#FFB400"/>
<path d="M29.554 29.7939H27.5864C27.7453 29.3128 27.874 28.9444 27.9951 28.5836C28.1162 28.2227 28.2373 27.8318 28.4037 27.3657H30.2578C30.1216 27.8544 30.0157 28.2152 29.9097 28.5836C29.8038 28.9519 29.6978 29.3128 29.554 29.7939Z" fill="#DC5000"/>
<path d="M33.2999 29.7939H31.3247L31.6274 28.5836L31.9301 27.3657H33.7842C33.6858 27.8544 33.6177 28.2152 33.5421 28.5836C33.4664 28.9519 33.3983 29.3128 33.2999 29.7939Z" fill="#DC5000"/>
<path d="M37.0384 29.7939H35.0708C35.1465 29.3128 35.207 28.9444 35.26 28.5836C35.313 28.2227 35.3811 27.8318 35.4568 27.3657H37.3108C37.2579 27.8544 37.22 28.2152 37.1746 28.5836C37.1292 28.9519 37.099 29.3128 37.0384 29.7939Z" fill="#DC5000"/>
<path d="M40.7845 29.7939H38.8169C38.8169 29.3128 38.8699 28.9444 38.9001 28.5836C38.9304 28.2227 38.9455 27.8318 38.9834 27.3657H40.8375C40.8375 27.8544 40.8375 28.2152 40.8375 28.5836C40.8375 28.9519 40.7845 29.3128 40.7845 29.7939Z" fill="#DC5000"/>
<path d="M44.5684 29.7939H42.6008C42.6008 29.3128 42.6008 28.9444 42.6008 28.5836C42.6008 28.2227 42.6008 27.8318 42.6008 27.3657H44.4549C44.4928 27.8544 44.5155 28.2152 44.5382 28.5836C44.5609 28.9519 44.5003 29.3128 44.5684 29.7939Z" fill="#DC5000"/>
<path d="M48.2764 29.7939H46.3088C46.2483 29.3128 46.2104 28.9444 46.1726 28.5836C46.1348 28.2227 46.0894 27.8318 46.0364 27.3657H47.8905C47.9661 27.8544 48.0267 28.2152 48.0797 28.5836C48.1326 28.9519 48.2008 29.3128 48.2764 29.7939Z" fill="#DC5000"/>
<path d="M52.0225 29.7939H50.0473C49.9565 29.3128 49.8808 28.9444 49.8052 28.5836C49.7295 28.2227 49.6614 27.8318 49.563 27.3657H51.4171L51.7198 28.5836L52.0225 29.7939Z" fill="#DC5000"/>
<path d="M55.761 29.7939H53.7934C53.6572 29.3128 53.5437 28.9444 53.4377 28.5836C53.3318 28.2227 53.2334 27.8318 53.0896 27.3657H54.9437C55.1102 27.8544 55.2313 28.2152 55.3524 28.5836C55.4734 28.9519 55.6021 29.3128 55.761 29.7939Z" fill="#DC5000"/>
<path d="M57.3501 24.7797H10.6572V26.1103H57.3501V24.7797Z" fill="#F08200"/>
</g>
<defs>
<filter id="filter0_d_13297_56257" x="5" y="11" width="58" height="53" filterUnits="userSpaceOnUse" color-interpolation-filters="sRGB">
<feFlood flood-opacity="0" result="BackgroundImageFix"/>
<feColorMatrix in="SourceAlpha" type="matrix" values="0 0 0 0 0 0 0 0 0 0 0 0 0 0 0 0 0 0 127 0" result="hardAlpha"/>
<feOffset dy="4"/>
<feGaussianBlur stdDeviation="2"/>
<feComposite in2="hardAlpha" operator="out"/>
<feColorMatrix type="matrix" values="0 0 0 0 0 0 0 0 0 0 0 0 0 0 0 0 0 0 0.25 0"/>
<feBlend mode="normal" in2="BackgroundImageFix" result="effect1_dropShadow_13297_56257"/>
<feBlend mode="normal" in="SourceGraphic" in2="effect1_dropShadow_13297_56257" result="shape"/>
</filter>
<clipPath id="clip0_13297_56257">
<rect width="50" height="45" fill="white" transform="translate(9 11)"/>
</clipPath>
</defs>
</svg>