<svg xmlns="http://www.w3.org/2000/svg" width="52" height="52" viewBox="0 0 52 52" fill="#C0C0C0">
<path fill-rule="evenodd" clip-rule="evenodd" d="M11.439 25.3333C10.8333 27.1244 10.8333 29.7002 10.8333 33.6666V35.6666C10.8333 41.3235 10.8333 44.1519 12.5906 45.9093C14.2228 47.5414 16.7788 47.6577 21.6666 47.666V38.8333C21.6666 37.7287 22.562 36.8333 23.6666 36.8333H28.3333C29.4378 36.8333 30.3333 37.7287 30.3333 38.8333V47.666C35.221 47.6577 37.7771 47.5414 39.4092 45.9093C41.1666 44.1519 41.1666 41.3235 41.1666 35.6666V33.6666C41.1666 29.7002 41.1666 27.1244 40.5608 25.3333H40.2218L40.1419 25.3333C39.4016 25.3334 38.7139 25.3335 38.1454 25.2625C37.5149 25.1838 36.8513 25.0003 36.2652 24.5039C36.0597 24.3298 35.8907 24.1401 35.7499 23.9408C35.6092 24.1401 35.4401 24.3298 35.2346 24.5039C34.6486 25.0003 33.985 25.1838 33.3545 25.2625C32.786 25.3335 32.0982 25.3334 31.3579 25.3333L31.2781 25.3333H30.4718L30.3919 25.3333C29.6516 25.3334 28.9639 25.3335 28.3954 25.2625C27.7649 25.1838 27.1013 25.0003 26.5152 24.5039C26.3097 24.3298 26.1407 24.1401 25.9999 23.9408C25.8592 24.1401 25.6901 24.3298 25.4846 24.5039C24.8986 25.0003 24.235 25.1838 23.6045 25.2625C23.036 25.3335 22.3482 25.3334 21.6079 25.3333L21.5281 25.3333H20.7218L20.6419 25.3333C19.9016 25.3334 19.2139 25.3335 18.6454 25.2625C18.0149 25.1838 17.3513 25.0003 16.7652 24.5039C16.5597 24.3298 16.3907 24.1401 16.2499 23.9407C16.1092 24.1401 15.9401 24.3298 15.7346 24.5039C15.1486 25.0003 14.485 25.1838 13.8545 25.2625C13.2859 25.3335 12.5982 25.3334 11.8579 25.3333L11.7781 25.3333H11.439ZM18.5277 21.7115C18.5458 21.7859 18.5641 21.8543 18.5831 21.918C18.6301 22.076 18.6675 22.1544 18.688 22.1902C18.6974 22.2066 18.7027 22.2131 18.7033 22.2138L18.7043 22.2148L18.7055 22.2156C18.7063 22.2161 18.7136 22.2203 18.7312 22.2268C18.7699 22.2412 18.8535 22.2652 19.017 22.2856C19.3771 22.3306 19.8741 22.3333 20.7218 22.3333H21.5281C22.3758 22.3333 22.8727 22.3306 23.2328 22.2856C23.3964 22.2652 23.4799 22.2412 23.5186 22.2268C23.5363 22.2203 23.5436 22.2161 23.5444 22.2156L23.5455 22.2148L23.5465 22.2138C23.5471 22.2131 23.5524 22.2066 23.5618 22.1902C23.5823 22.1544 23.6197 22.076 23.6668 21.918C23.6895 21.8417 23.7112 21.7587 23.7329 21.6666H22.8333C21.1679 21.6666 19.7476 21.6666 18.5277 21.7115ZM28.267 21.6666H29.1666C30.832 21.6666 32.2522 21.6666 33.4722 21.7115C33.454 21.7859 33.4357 21.8543 33.4168 21.918C33.3697 22.076 33.3323 22.1544 33.3118 22.1902C33.3024 22.2066 33.2971 22.2131 33.2965 22.2138L33.2955 22.2148L33.2944 22.2156C33.2936 22.2161 33.2863 22.2203 33.2686 22.2268C33.2299 22.2412 33.1464 22.2652 32.9828 22.2856C32.6227 22.3306 32.1258 22.3333 31.2781 22.3333H30.4718C29.6241 22.3333 29.1271 22.3306 28.767 22.2856C28.6035 22.2652 28.5199 22.2412 28.4812 22.2268C28.4636 22.2203 28.4563 22.2161 28.4555 22.2156L28.4543 22.2148L28.4533 22.2138C28.4527 22.2131 28.4474 22.2066 28.438 22.1902C28.4175 22.1544 28.3801 22.076 28.3331 21.918C28.3104 21.8417 28.2886 21.7587 28.267 21.6666ZM23.6666 47.6666H28.3333V38.8333H23.6666V47.6666Z" />
<path d="M8.56094 15.5896C9.65228 11.2242 10.1979 9.04153 11.8255 7.77077C13.4531 6.5 15.7029 6.5 20.2026 6.5H31.7973C36.2971 6.5 38.5469 6.5 40.1745 7.77077C41.8021 9.04153 42.3477 11.2242 43.4391 15.5896L44.8787 21.3483C45.1647 22.4922 45.3077 23.0642 45.0074 23.4487C44.7072 23.8333 44.1176 23.8333 42.9384 23.8333H40.2218C38.6035 23.8333 37.7943 23.8333 37.2348 23.3594C36.6753 22.8854 36.5423 22.0873 36.2763 20.4909L35.9473 18.517C35.8722 18.0667 35.8347 17.8416 35.75 17.8416C35.6653 17.8416 35.6278 18.0667 35.5527 18.517L35.2237 20.4909C34.9577 22.0873 34.8247 22.8854 34.2652 23.3594C33.7057 23.8333 32.8965 23.8333 31.2782 23.8333H30.4718C28.8535 23.8333 28.0443 23.8333 27.4848 23.3594C26.9253 22.8854 26.7923 22.0873 26.5263 20.4909L26.1973 18.517C26.1222 18.0667 26.0847 17.8416 26 17.8416C25.9153 17.8416 25.8778 18.0667 25.8027 18.517L25.4737 20.4909C25.2077 22.0873 25.0747 22.8854 24.5152 23.3594C23.9557 23.8333 23.1465 23.8333 21.5282 23.8333H20.7218C19.1035 23.8333 18.2943 23.8333 17.7348 23.3594C17.1753 22.8854 17.0423 22.0873 16.7763 20.4909L16.4473 18.517C16.3722 18.0667 16.3347 17.8416 16.25 17.8416C16.1653 17.8416 16.1278 18.0667 16.0527 18.517L15.7237 20.4909C15.4577 22.0873 15.3247 22.8854 14.7652 23.3594C14.2057 23.8333 13.3965 23.8333 11.7782 23.8333H9.06155C7.88242 23.8333 7.29285 23.8333 6.99257 23.4487C6.69229 23.0642 6.83529 22.4922 7.12127 21.3483L8.56094 15.5896Z" />
</svg>