<svg width="18" height="17" viewBox="0 0 18 17" fill="none" xmlns="http://www.w3.org/2000/svg">
<path d="M15.025 4.78325C14.825 4.57492 14.55 4.45825 14.2666 4.45825H3.73329C3.44995 4.45825 3.16662 4.57492 2.97495 4.78325C2.78329 4.99159 2.67495 5.27492 2.69162 5.56659L3.20829 14.1166C3.29995 15.3833 3.41662 16.9666 6.32495 16.9666H11.675C14.5833 16.9666 14.7 15.3916 14.7916 14.1166L15.3083 5.57492C15.325 5.27492 15.2166 4.99159 15.025 4.78325ZM10.3833 12.7916H7.60829C7.26662 12.7916 6.98329 12.5083 6.98329 12.1666C6.98329 11.8249 7.26662 11.5416 7.60829 11.5416H10.3833C10.725 11.5416 11.0083 11.8249 11.0083 12.1666C11.0083 12.5083 10.725 12.7916 10.3833 12.7916ZM11.0833 9.45825H6.91662C6.57495 9.45825 6.29162 9.17492 6.29162 8.83325C6.29162 8.49159 6.57495 8.20825 6.91662 8.20825H11.0833C11.425 8.20825 11.7083 8.49159 11.7083 8.83325C11.7083 9.17492 11.425 9.45825 11.0833 9.45825Z" fill="#959595"/>
<path d="M16.5584 3.35841C15.2167 3.22508 13.875 3.12508 12.525 3.05008V3.04175L12.3417 1.95841C12.2167 1.19175 12.0334 0.041748 10.0834 0.041748H7.90005C5.95838 0.041748 5.77505 1.14175 5.64172 1.95008L5.46672 3.01675C4.69172 3.06675 3.91672 3.11675 3.14172 3.19175L1.44172 3.35841C1.09172 3.39175 0.841717 3.70008 0.87505 4.04175C0.908383 4.38341 1.20838 4.63341 1.55838 4.60008L3.25838 4.43341C7.62505 4.00008 12.0251 4.16675 16.4417 4.60841C16.4667 4.60841 16.4834 4.60841 16.5084 4.60841C16.8251 4.60841 17.1001 4.36675 17.1334 4.04175C17.1584 3.70008 16.9084 3.39175 16.5584 3.35841Z" fill="#959595"/>
</svg>
