<svg width="121" height="120" viewBox="0 0 121 120" fill="none" xmlns="http://www.w3.org/2000/svg">
<path d="M60.5 5.62506V1.87506C45.0898 1.89293 30.3158 8.02253 19.4191 18.9192C8.52247 29.8159 2.39286 44.5898 2.375 60.0001H6.125C6.14088 45.5838 11.8748 31.7625 22.0686 21.5687C32.2625 11.3748 46.0837 5.64094 60.5 5.62506Z" fill="#EC0101"/>
<path d="M114.875 60.0001C114.859 74.4162 109.125 88.2372 98.9308 98.4309C88.7371 108.625 74.9161 114.359 60.5 114.375V118.125C75.9104 118.108 90.6846 111.978 101.581 101.081C112.478 90.1847 118.608 75.4104 118.625 60.0001H114.875Z" fill="#EC0101"/>
<path d="M60.5 13.1251C51.229 13.1251 42.1662 15.8742 34.4576 21.0249C26.7491 26.1756 20.741 33.4965 17.1931 42.0618C13.6453 50.6271 12.717 60.0521 14.5257 69.1449C16.3344 78.2378 20.7988 86.5901 27.3544 93.1457C33.91 99.7013 42.2623 104.166 51.3551 105.974C60.448 107.783 69.873 106.855 78.4383 103.307C87.0036 99.7591 94.3244 93.751 99.4751 86.0424C104.626 78.3339 107.375 69.2711 107.375 60.0001C107.361 47.5723 102.418 35.6575 93.6303 26.8698C84.8425 18.082 72.9278 13.139 60.5 13.1251ZM60.5 103.125C51.9707 103.125 43.6329 100.596 36.541 95.8572C29.4492 91.1186 23.9217 84.3833 20.6577 76.5033C17.3937 68.6232 16.5396 59.9522 18.2036 51.5868C19.8676 43.2214 23.9749 35.5372 30.006 29.5061C36.0372 23.4749 43.7213 19.3677 52.0867 17.7037C60.4522 16.0397 69.1232 16.8937 77.0032 20.1578C84.8833 23.4218 91.6185 28.9492 96.3571 36.0411C101.096 43.133 103.625 51.4707 103.625 60.0001C103.612 71.4336 99.0644 82.3951 90.9797 90.4798C82.895 98.5645 71.9335 103.112 60.5 103.125Z" fill="#EC0101"/>
<path d="M7.54812 72.4182L3.8975 73.2713C4.18437 74.4957 4.51625 75.7313 4.88375 76.9407L8.47062 75.8494C8.12687 74.7207 7.81937 73.5769 7.54812 72.4182Z" fill="#EC0101"/>
<path d="M9.61438 79.2094L6.10625 80.5332C6.54875 81.7051 7.04375 82.8844 7.56313 84.0376L10.9756 82.4851C10.4919 81.4101 10.0381 80.3182 9.61438 79.2094Z" fill="#EC0101"/>
<path d="M6.39125 65.4094L2.65813 65.7844C2.78313 67.0532 2.94875 68.3082 3.155 69.5494L6.85625 68.9382C6.66375 67.7744 6.50875 66.5982 6.39125 65.4094Z" fill="#EC0101"/>
<path d="M12.5528 85.6669L9.24902 87.4388C9.84777 88.5563 10.4821 89.6513 11.1521 90.7238L14.3396 88.7401C13.7084 87.7363 13.1128 86.7119 12.5528 85.6669Z" fill="#EC0101"/>
<path d="M43.6063 115.631C44.8044 115.995 46.0438 116.327 47.2775 116.614L48.1288 112.961C46.97 112.693 45.8256 112.386 44.6956 112.043L43.6063 115.631Z" fill="#EC0101"/>
<path d="M51.005 117.353C52.2488 117.558 53.5044 117.722 54.7719 117.846L55.1356 114.114C53.9506 113.998 52.7762 113.844 51.6125 113.653L51.005 117.353Z" fill="#EC0101"/>
<path d="M36.5 112.952C37.6513 113.475 38.8325 113.964 40.0119 114.409L41.3244 110.901C40.2131 110.481 39.1187 110.026 38.0412 109.538L36.5 112.952Z" fill="#EC0101"/>
<path d="M18.0838 99.7501C18.95 100.675 19.8456 101.57 20.7706 102.435L23.3338 99.6976C22.4688 98.8901 21.6313 98.0532 20.8213 97.1869L18.0838 99.7501Z" fill="#EC0101"/>
<path d="M23.626 104.933C24.6035 105.738 25.6072 106.509 26.6372 107.248L28.8254 104.201C27.8616 103.51 26.9241 102.788 26.0129 102.036L23.626 104.933Z" fill="#EC0101"/>
<path d="M29.7969 109.363C30.8694 110.032 31.9656 110.666 33.0856 111.266L34.8575 107.963C33.8112 107.4 32.7856 106.806 31.7806 106.181L29.7969 109.363Z" fill="#EC0101"/>
<path d="M16.3077 91.6876L13.2627 93.8776C14.0027 94.9063 14.7746 95.9094 15.5783 96.8869L18.4733 94.5001C17.7233 93.5901 17.0014 92.6526 16.3077 91.6876Z" fill="#EC0101"/>
<path d="M111.386 40.7907L114.894 39.4669C114.451 38.2951 113.956 37.1157 113.437 35.9626L110.024 37.5151C110.508 38.5901 110.962 39.6819 111.386 40.7907Z" fill="#EC0101"/>
<path d="M69.995 2.64756C68.7525 2.44381 67.4969 2.27943 66.2281 2.15443L65.8644 5.88568C67.0494 6.00193 68.2238 6.15568 69.3875 6.34693L69.995 2.64756Z" fill="#EC0101"/>
<path d="M114.609 54.5907L118.342 54.2157C118.217 52.9469 118.051 51.6919 117.845 50.4507L114.144 51.0619C114.338 52.2269 114.493 53.4032 114.609 54.5907Z" fill="#EC0101"/>
<path d="M108.447 34.3332L111.751 32.5613C111.152 31.4438 110.518 30.3488 109.848 29.2763L106.66 31.2601C107.291 32.2638 107.887 33.2882 108.447 34.3332Z" fill="#EC0101"/>
<path d="M113.452 47.5819L117.102 46.7288C116.816 45.5044 116.484 44.2688 116.116 43.0594L112.529 44.1507C112.873 45.2794 113.181 46.4232 113.452 47.5819Z" fill="#EC0101"/>
<path d="M77.3937 4.36881C76.1956 4.00506 74.9562 3.67319 73.7225 3.38631L72.875 7.03881C74.0337 7.30631 75.1781 7.61256 76.3081 7.95756L77.3937 4.36881Z" fill="#EC0101"/>
<path d="M97.3742 15.0676C96.3979 14.2638 95.3942 13.4913 94.3629 12.7501L92.1748 15.7988C93.1386 16.4901 94.0761 17.2119 94.9873 17.9644L97.3742 15.0676Z" fill="#EC0101"/>
<path d="M84.5 7.04819C83.3487 6.52506 82.1675 6.03569 80.9881 5.59131L79.6756 9.09944C80.7869 9.51944 81.8813 9.97381 82.9588 10.4626L84.5 7.04819Z" fill="#EC0101"/>
<path d="M91.2031 10.6369C90.1306 9.96694 89.0344 9.33256 87.9144 8.73381L86.1425 12.0376C87.1887 12.6001 88.2144 13.1938 89.2194 13.8188L91.2031 10.6369Z" fill="#EC0101"/>
<path d="M102.916 20.2501C102.05 19.3251 101.154 18.4301 100.229 17.5651L97.6662 20.3026C98.53 21.1101 99.3675 21.9469 100.179 22.8132L102.916 20.2501Z" fill="#EC0101"/>
<path d="M104.692 28.3126L107.737 26.1244C106.997 25.0944 106.225 24.0913 105.421 23.1151L102.526 25.5001C103.276 26.4101 103.998 27.3476 104.692 28.3126Z" fill="#EC0101"/>
<path d="M84.875 44.1301C84.8756 42.4478 84.3771 40.8031 83.4427 39.4042C82.5083 38.0053 81.1799 36.915 79.6257 36.2712C78.0714 35.6275 76.3611 35.4592 74.7112 35.7878C73.0613 36.1163 71.546 36.9269 70.3569 38.1169L60.5 47.9738L50.6431 38.1169C49.8535 37.3273 48.916 36.7009 47.8843 36.2735C46.8525 35.8462 45.7467 35.6262 44.63 35.6262C43.5133 35.6262 42.4075 35.8462 41.3757 36.2735C40.344 36.7009 39.4065 37.3273 38.6169 38.1169C37.8272 38.9066 37.2008 39.844 36.7735 40.8758C36.3461 41.9075 36.1262 43.0133 36.1262 44.1301C36.1262 45.2468 36.3461 46.3526 36.7735 47.3843C37.2008 48.4161 37.8272 49.3535 38.6169 50.1432L48.4738 60.0001L38.6169 69.8588C37.0221 71.4536 36.1262 73.6166 36.1262 75.8719C36.1262 78.1273 37.0221 80.2903 38.6169 81.8851C40.2117 83.4798 42.3746 84.3758 44.63 84.3758C46.8854 84.3758 49.0483 83.4798 50.6431 81.8851L60.5 72.0263L70.3569 81.8851C71.9517 83.4798 74.1146 84.3758 76.37 84.3758C78.6254 84.3758 80.7883 83.4798 82.3831 81.8851C83.9779 80.2903 84.8738 78.1273 84.8738 75.8719C84.8738 73.6166 83.9779 71.4536 82.3831 69.8588L72.5263 60.0001L82.3831 50.1432C83.1754 49.3554 83.8036 48.4184 84.2314 47.3862C84.6591 46.3541 84.8779 45.2473 84.875 44.1301ZM79.7319 47.4919L68.5494 58.6744C68.1979 59.0261 68.0004 59.5029 68.0004 60.0001C68.0004 60.4972 68.1979 60.9741 68.5494 61.3257L79.7319 72.5101C80.6004 73.4064 81.0817 74.6083 81.0719 75.8564C81.062 77.1045 80.5618 78.2987 79.6793 79.1812C78.7967 80.0638 77.6026 80.564 76.3545 80.5738C75.1064 80.5836 73.9045 80.1023 73.0081 79.2338L61.8256 68.0494C61.474 67.6979 60.9972 67.5005 60.5 67.5005C60.0028 67.5005 59.526 67.6979 59.1744 68.0494L47.9919 79.2338C47.553 79.6868 47.0283 80.0479 46.4485 80.2962C45.8686 80.5444 45.2452 80.6748 44.6145 80.6798C43.9838 80.6848 43.3583 80.5642 42.7747 80.3251C42.191 80.086 41.6607 79.7332 41.2147 79.2872C40.7687 78.8412 40.4159 78.3109 40.1768 77.7273C39.9377 77.1436 39.8172 76.5182 39.8221 75.8875C39.8271 75.2567 39.9575 74.6333 40.2058 74.0535C40.454 73.4736 40.8151 72.949 41.2681 72.5101L52.4506 61.3257C52.8021 60.9741 52.9996 60.4972 52.9996 60.0001C52.9996 59.5029 52.8021 59.0261 52.4506 58.6744L41.2681 47.4919C40.8151 47.053 40.454 46.5284 40.2058 45.9485C39.9575 45.3687 39.8271 44.7453 39.8221 44.1145C39.8172 43.4838 39.9377 42.8584 40.1768 42.2747C40.4159 41.6911 40.7687 41.1608 41.2147 40.7148C41.6607 40.2688 42.191 39.916 42.7747 39.6769C43.3583 39.4378 43.9838 39.3172 44.6145 39.3222C45.2452 39.3272 45.8686 39.4576 46.4485 39.7058C47.0283 39.9541 47.553 40.3152 47.9919 40.7682L59.1744 51.9507C59.526 52.3022 60.0028 52.4997 60.5 52.4997C60.9972 52.4997 61.474 52.3022 61.8256 51.9507L73.0081 40.7682C73.447 40.3152 73.9717 39.9541 74.5515 39.7058C75.1314 39.4576 75.7548 39.3272 76.3855 39.3222C77.0162 39.3172 77.6417 39.4378 78.2253 39.6769C78.809 39.916 79.3393 40.2688 79.7853 40.7148C80.2313 41.1608 80.5841 41.6911 80.8232 42.2747C81.0623 42.8584 81.1828 43.4838 81.1779 44.1145C81.1729 44.7453 81.0425 45.3687 80.7942 45.9485C80.546 46.5284 80.1849 47.053 79.7319 47.4919Z" fill="#EC0101"/>
</svg>
