<svg width="24" height="24" viewBox="0 0 24 24" fill="none" xmlns="http://www.w3.org/2000/svg">
<path d="M22 12C22 14.6522 20.9464 17.1957 19.0711 19.0711C17.1957 20.9464 14.6522 22 12 22C9.34784 22 6.8043 20.9464 4.92893 19.0711C3.05357 17.1957 2 14.6522 2 12C2 9.34784 3.05357 6.8043 4.92893 4.92893C6.8043 3.05357 9.34784 2 12 2C14.6522 2 17.1957 3.05357 19.0711 4.92893C20.9464 6.8043 22 9.34784 22 12ZM12 6.375C12 6.20924 11.9342 6.05027 11.8169 5.93306C11.6997 5.81585 11.5408 5.75 11.375 5.75C11.2092 5.75 11.0503 5.81585 10.9331 5.93306C10.8158 6.05027 10.75 6.20924 10.75 6.375V13.25C10.75 13.3602 10.7792 13.4684 10.8345 13.5636C10.8898 13.6589 10.9693 13.7379 11.065 13.7925L15.44 16.2925C15.5836 16.3701 15.7518 16.3885 15.9087 16.3437C16.0657 16.2989 16.1988 16.1944 16.2798 16.0527C16.3608 15.9111 16.3831 15.7433 16.342 15.5854C16.301 15.4274 16.1997 15.2918 16.06 15.2075L12 12.8875V6.375Z" fill="#C1C1C1"/>
</svg>
