<svg width="61" height="60" viewBox="0 0 61 60" fill="none" xmlns="http://www.w3.org/2000/svg">
<g clip-path="url(#clip0_1206_24223)">
<path d="M8.9375 20.625C8.68886 20.625 8.4504 20.7238 8.27459 20.8996C8.09877 21.0754 8 21.3139 8 21.5625V26.25H6.125V21.5625C6.125 21.3139 6.02623 21.0754 5.85041 20.8996C5.6746 20.7238 5.43614 20.625 5.1875 20.625C4.93886 20.625 4.7004 20.7238 4.52459 20.8996C4.34877 21.0754 4.25 21.3139 4.25 21.5625V26.25H2.375V21.5625C2.375 21.3139 2.27623 21.0754 2.10041 20.8996C1.9246 20.7238 1.68614 20.625 1.4375 20.625C1.18886 20.625 0.950403 20.7238 0.774587 20.8996C0.598772 21.0754 0.5 21.3139 0.5 21.5625L0.5 29.0625C0.500709 29.644 0.68129 30.2111 1.01698 30.6859C1.35267 31.1607 1.82702 31.5201 2.375 31.7147V53.4375C2.39376 54.1775 2.69609 54.882 3.21953 55.4055C3.74296 55.9289 4.44749 56.2312 5.1875 56.25C5.92751 56.2312 6.63204 55.9289 7.15547 55.4055C7.67891 54.882 7.98124 54.1775 8 53.4375V31.7147C8.54798 31.5201 9.02233 31.1607 9.35802 30.6859C9.69371 30.2111 9.87429 29.644 9.875 29.0625V21.5625C9.875 21.3139 9.77623 21.0754 9.60041 20.8996C9.4246 20.7238 9.18614 20.625 8.9375 20.625ZM8 29.0625C8 29.3111 7.90123 29.5496 7.72541 29.7254C7.5496 29.9012 7.31114 30 7.0625 30C6.81386 30 6.5754 30.0988 6.39959 30.2746C6.22377 30.4504 6.125 30.6889 6.125 30.9375V53.4375C6.10972 53.6811 6.00605 53.9108 5.83343 54.0834C5.66082 54.256 5.43113 54.3597 5.1875 54.375C4.94387 54.3597 4.71418 54.256 4.54157 54.0834C4.36895 53.9108 4.26528 53.6811 4.25 53.4375V30.9375C4.25 30.6889 4.15123 30.4504 3.97541 30.2746C3.7996 30.0988 3.56114 30 3.3125 30C3.06386 30 2.8254 29.9012 2.64959 29.7254C2.47377 29.5496 2.375 29.3111 2.375 29.0625V28.125H8V29.0625Z" fill="#888A98"/>
<path d="M60.0959 20.7919C59.9714 20.7055 59.8279 20.6505 59.6775 20.6317C59.5271 20.613 59.3744 20.6309 59.2325 20.6841C58.9062 20.8125 51.125 23.9672 51.125 45C51.125 45.2486 51.2238 45.4871 51.3996 45.6629C51.5754 45.8387 51.8139 45.9375 52.0625 45.9375H55.7234L55.0559 53.2753C55.0274 53.6455 55.077 54.0175 55.2017 54.3672C55.3264 54.7169 55.5233 55.0364 55.7797 55.305C56.0301 55.5898 56.3361 55.8206 56.6788 55.9831C57.0215 56.1456 57.3938 56.2364 57.7728 56.25C58.4874 56.2229 59.1655 55.9268 59.6711 55.4211C60.1768 54.9155 60.4729 54.2374 60.5 53.5228V21.5625C60.4999 21.411 60.4632 21.2617 60.3928 21.1275C60.3224 20.9933 60.2206 20.8781 60.0959 20.7919ZM58.625 53.5228C58.6028 53.7413 58.5059 53.9454 58.3506 54.1006C58.1954 54.2559 57.9913 54.3528 57.7728 54.375C57.5356 54.3432 57.3187 54.2242 57.1644 54.0413C57.0865 53.9632 57.025 53.8703 56.9838 53.768C56.9426 53.6657 56.9224 53.5562 56.9244 53.4459L57.6875 45.0853C57.6994 44.9552 57.684 44.8241 57.6422 44.7003C57.6004 44.5765 57.5333 44.4628 57.445 44.3665C57.3567 44.2702 57.2493 44.1934 57.1296 44.1411C57.0099 44.0887 56.8806 44.062 56.75 44.0625H53.0056C53.1613 30.5306 56.6788 25.2675 58.625 23.3869V53.5228Z" fill="#888A98"/>
<path d="M26.2178 9.62907L25.5194 13.9116C25.4912 14.0851 25.5123 14.2631 25.5805 14.4252C25.6486 14.5873 25.7609 14.7269 25.9047 14.8282C26.0484 14.9295 26.2177 14.9883 26.3932 14.998C26.5688 15.0076 26.7435 14.9677 26.8975 14.8828L30.5003 12.8916L34.1031 14.8828C34.2415 14.96 34.3974 15.0003 34.5559 15C34.6918 15 34.8261 14.9705 34.9494 14.9135C35.0727 14.8564 35.1822 14.7733 35.2702 14.6697C35.3582 14.5662 35.4227 14.4448 35.4591 14.3139C35.4956 14.183 35.5031 14.0457 35.4812 13.9116L34.7828 9.62907L37.734 6.60564C37.8544 6.48226 37.9385 6.32808 37.9769 6.16004C38.0154 5.992 38.0068 5.8166 37.9521 5.65314C37.8973 5.48968 37.7985 5.34447 37.6666 5.23349C37.5347 5.12251 37.3748 5.05005 37.2044 5.02407L33.1647 4.40626L31.3487 0.539073C31.273 0.378014 31.153 0.241831 31.0028 0.146441C30.8525 0.0510518 30.6783 0.000396729 30.5003 0.000396729C30.3223 0.000396729 30.148 0.0510518 29.9978 0.146441C29.8476 0.241831 29.7276 0.378014 29.6519 0.539073L27.8359 4.40626L23.7962 5.02407C23.6258 5.05005 23.4659 5.12251 23.3339 5.23349C23.202 5.34447 23.1033 5.48968 23.0485 5.65314C22.9938 5.8166 22.9852 5.992 23.0236 6.16004C23.0621 6.32808 23.1461 6.48226 23.2665 6.60564L26.2178 9.62907ZM28.614 6.18751C28.7662 6.16419 28.9103 6.10376 29.0336 6.01154C29.1569 5.91932 29.2556 5.79816 29.3209 5.65876L30.5003 3.14439L31.6797 5.65595C31.745 5.79535 31.8437 5.91651 31.967 6.00873C32.0903 6.10095 32.2344 6.16138 32.3865 6.1847L35.1175 6.60189L33.1103 8.65876C33.0078 8.76387 32.9314 8.89158 32.8872 9.03162C32.8431 9.17167 32.8325 9.32011 32.8562 9.46501L33.325 12.3084L30.9578 10.9959C30.8191 10.9195 30.6633 10.8793 30.505 10.8793C30.3466 10.8793 30.1908 10.9195 30.0522 10.9959L27.685 12.3084L28.149 9.46501C28.1728 9.32011 28.1622 9.17167 28.118 9.03162C28.0739 8.89158 27.9975 8.76387 27.895 8.65876L25.8831 6.60189L28.614 6.18751Z" fill="#888A98"/>
<path d="M50.6254 13.9181C50.775 14.0124 50.9482 14.0624 51.1251 14.0624C51.3019 14.0624 51.4751 14.0124 51.6248 13.9181C52.2501 13.5272 57.6876 9.99376 57.6876 6.39283C57.7091 5.51512 57.3988 4.66159 56.8185 4.00273C56.2382 3.34388 55.4307 2.92821 54.5573 2.83876C53.911 2.76918 53.2576 2.8638 52.6577 3.11388C52.0577 3.36396 51.5306 3.7614 51.1251 4.26939C50.7199 3.76106 50.1928 3.36338 49.5927 3.11327C48.9927 2.86316 48.3392 2.76874 47.6929 2.83876C46.8195 2.92821 46.012 3.34388 45.4317 4.00273C44.8514 4.66159 44.541 5.51512 44.5626 6.39283C44.5626 9.99376 50.0048 13.5272 50.6254 13.9181ZM47.916 4.70158C47.9891 4.69209 48.0627 4.68739 48.1363 4.68751C48.6548 4.71109 49.1482 4.91782 49.5286 5.27093C49.909 5.62404 50.1518 6.10064 50.2138 6.61595C50.2632 6.82039 50.38 7.00227 50.5453 7.13235C50.7105 7.26243 50.9147 7.33316 51.1251 7.33316C51.3354 7.33316 51.5396 7.26243 51.7049 7.13235C51.8702 7.00227 51.9869 6.82039 52.0363 6.61595C52.0954 6.0608 52.3683 5.55046 52.7973 5.19311C53.2262 4.83575 53.7774 4.65945 54.3341 4.70158C54.7515 4.73747 55.1387 4.93372 55.4144 5.2491C55.6901 5.56447 55.8328 5.97443 55.8126 6.39283C55.8126 8.17876 53.1182 10.635 51.1251 12.0028C49.132 10.635 46.4376 8.17876 46.4376 6.39283C46.4174 5.97443 46.5601 5.56447 46.8358 5.2491C47.1115 4.93372 47.4987 4.73747 47.916 4.70158Z" fill="#888A98"/>
<path d="M15.0004 22.3556C15.15 22.4499 15.3232 22.4999 15.5001 22.4999C15.6769 22.4999 15.8501 22.4499 15.9998 22.3556C16.6251 21.9647 22.0626 18.4313 22.0626 14.8303C22.0841 13.9526 21.7738 13.0991 21.1935 12.4402C20.6132 11.7814 19.8057 11.3657 18.9323 11.2763C18.286 11.2063 17.6325 11.3008 17.0325 11.5509C16.4325 11.801 15.9054 12.1986 15.5001 12.7069C15.095 12.1984 14.5679 11.8007 13.9678 11.5505C13.3678 11.3004 12.7142 11.2061 12.0679 11.2763C11.1945 11.3657 10.387 11.7814 9.80668 12.4402C9.22638 13.0991 8.91601 13.9526 8.93758 14.8303C8.93758 18.4313 14.3798 21.9647 15.0004 22.3556ZM12.291 13.1391C12.3641 13.1296 12.4377 13.1249 12.5113 13.125C13.0298 13.1486 13.5232 13.3553 13.9036 13.7084C14.284 14.0615 14.5268 14.5381 14.5888 15.0535C14.6382 15.2579 14.755 15.4398 14.9203 15.5699C15.0855 15.6999 15.2897 15.7707 15.5001 15.7707C15.7104 15.7707 15.9146 15.6999 16.0799 15.5699C16.2452 15.4398 16.3619 15.2579 16.4113 15.0535C16.4706 14.4984 16.7436 13.9882 17.1725 13.6309C17.6014 13.2736 18.1525 13.0972 18.7091 13.1391C19.1265 13.175 19.5137 13.3712 19.7894 13.6866C20.0651 14.002 20.2078 14.4119 20.1876 14.8303C20.1876 16.6116 17.4932 19.0725 15.5001 20.4403C13.507 19.0725 10.8126 16.6163 10.8126 14.8303C10.7924 14.4119 10.9351 14.002 11.2108 13.6866C11.4865 13.3712 11.8737 13.175 12.291 13.1391Z" fill="#888A98"/>
<path d="M30.5 20.625C26.6062 20.625 22.7998 21.7797 19.5622 23.9429C16.3246 26.1062 13.8012 29.181 12.3111 32.7784C10.821 36.3758 10.4312 40.3343 11.1908 44.1533C11.9504 47.9723 13.8255 51.4803 16.5788 54.2337C19.3322 56.987 22.8402 58.8621 26.6592 59.6217C30.4782 60.3814 34.4367 59.9915 38.0341 58.5014C41.6315 57.0113 44.7063 54.4879 46.8696 51.2503C49.0329 48.0127 50.1875 44.2063 50.1875 40.3125C50.1816 35.0929 48.1054 30.0887 44.4146 26.3979C40.7238 22.7071 35.7196 20.631 30.5 20.625ZM30.5 58.125C26.977 58.125 23.5332 57.0803 20.6039 55.1231C17.6747 53.1658 15.3916 50.3839 14.0434 47.129C12.6952 43.8742 12.3425 40.2927 13.0298 36.8375C13.7171 33.3822 15.4135 30.2083 17.9047 27.7172C20.3958 25.226 23.5697 23.5296 27.025 22.8423C30.4802 22.155 34.0617 22.5077 37.3166 23.8559C40.5714 25.2041 43.3533 27.4872 45.3106 30.4164C47.2678 33.3457 48.3125 36.7895 48.3125 40.3125C48.3073 45.0351 46.429 49.5627 43.0896 52.9021C39.7502 56.2414 35.2226 58.1198 30.5 58.125Z" fill="#888A98"/>
<path d="M39.9506 31.1569C39.8562 31.2361 39.7784 31.3332 39.7215 31.4425C39.6647 31.5519 39.63 31.6713 39.6194 31.7941C39.6087 31.9169 39.6224 32.0405 39.6596 32.158C39.6968 32.2755 39.7568 32.3845 39.8362 32.4788C41.7955 34.8181 42.804 37.8084 42.6617 40.8566C42.5194 43.9047 41.2366 46.788 39.0678 48.9346C36.899 51.0812 34.0026 52.3342 30.9532 52.4452C27.9037 52.5561 24.9239 51.5169 22.6049 49.5336C20.2858 47.5503 18.7969 44.7678 18.4334 41.7381C18.0699 38.7084 18.8585 35.6527 20.6426 33.1771C22.4267 30.7016 25.0761 28.987 28.0653 28.3735C31.0544 27.76 34.165 28.2923 36.78 29.865C36.8855 29.9343 37.0038 29.9815 37.128 30.004C37.2522 30.0264 37.3796 30.0235 37.5027 29.9955C37.6257 29.9675 37.7419 29.9149 37.8441 29.841C37.9464 29.767 38.0326 29.6731 38.0977 29.565C38.1628 29.4569 38.2054 29.3368 38.223 29.2118C38.2405 29.0869 38.2327 28.9596 38.1999 28.8378C38.1671 28.7159 38.1101 28.6019 38.0321 28.5026C37.9542 28.4034 37.8571 28.3208 37.7465 28.26C34.7228 26.4419 31.126 25.8268 27.67 26.5369C24.2139 27.2469 21.151 29.2302 19.089 32.0933C17.027 34.9563 16.1166 38.4899 16.5384 41.9928C16.9602 45.4958 18.6834 48.7122 21.3661 51.0039C24.0488 53.2956 27.4949 54.4952 31.0208 54.3645C34.5467 54.2338 37.8946 52.7826 40.4003 50.2986C42.906 47.8146 44.3864 44.4795 44.5478 40.9549C44.7092 37.4303 43.5398 33.9738 41.2715 31.2713C41.1923 31.177 41.0953 31.0993 40.986 31.0425C40.8768 30.9858 40.7574 30.9511 40.6348 30.9405C40.5121 30.9299 40.3885 30.9435 40.2712 30.9806C40.1538 31.0178 40.0448 31.0777 39.9506 31.1569Z" fill="#888A98"/>
<path d="M30.5 48.75C32.0047 48.7726 33.4874 48.3877 34.7913 47.6363C36.0951 46.8849 37.1714 45.7948 37.9062 44.4816C37.9616 44.3715 37.9948 44.2516 38.0039 44.1287C38.013 44.0058 37.9977 43.8824 37.9591 43.7654C37.9204 43.6484 37.8591 43.5401 37.7786 43.4468C37.6981 43.3535 37.6001 43.277 37.49 43.2216C37.3799 43.1662 37.26 43.133 37.1371 43.1239C37.0143 43.1149 36.8908 43.1301 36.7738 43.1688C36.6568 43.2074 36.5485 43.2687 36.4552 43.3492C36.3619 43.4297 36.2854 43.5278 36.23 43.6378C35.6355 44.6249 34.796 45.4415 33.7928 46.0084C32.7896 46.5753 31.6569 46.8732 30.5047 46.8732C29.3524 46.8732 28.2197 46.5753 27.2166 46.0084C26.2134 45.4415 25.3738 44.6249 24.7794 43.6378C24.6675 43.4156 24.4719 43.2468 24.2356 43.1688C23.9993 43.0907 23.7417 43.1097 23.5194 43.2216C23.2971 43.3335 23.1284 43.5291 23.0503 43.7654C22.9722 44.0017 22.9912 44.2593 23.1031 44.4816C23.8372 45.7934 24.912 46.8825 26.2141 47.6339C27.5161 48.3852 28.9969 48.7709 30.5 48.75Z" fill="#888A98"/>
<path d="M23.9375 38.4553C23.9368 38.3322 23.9603 38.2101 24.0067 38.0961C24.0531 37.9821 24.1216 37.8783 24.2081 37.7908C24.3829 37.6139 24.6207 37.5137 24.8694 37.5122C25.118 37.5107 25.3571 37.608 25.5339 37.7828C25.7108 37.9576 25.811 38.1954 25.8125 38.4441C25.8125 38.6927 25.9113 38.9312 26.0871 39.107C26.2629 39.2828 26.5014 39.3816 26.75 39.3816C26.9986 39.3816 27.2371 39.2828 27.4129 39.107C27.5887 38.9312 27.6875 38.6927 27.6875 38.4441C27.6875 37.6981 27.3912 36.9828 26.8637 36.4553C26.3363 35.9279 25.6209 35.6316 24.875 35.6316C24.1291 35.6316 23.4137 35.9279 22.8863 36.4553C22.3588 36.9828 22.0625 37.6981 22.0625 38.4441C22.0627 38.6899 22.1601 38.9257 22.3334 39.1001C22.5068 39.2745 22.742 39.3733 22.9878 39.375H23C23.2451 39.3736 23.4801 39.2768 23.6551 39.1051C23.8301 38.9335 23.9314 38.7004 23.9375 38.4553Z" fill="#888A98"/>
<path d="M38.9375 38.4441C38.9375 37.6981 38.6412 36.9828 38.1137 36.4553C37.5863 35.9279 36.8709 35.6316 36.125 35.6316C35.3791 35.6316 34.6637 35.9279 34.1363 36.4553C33.6088 36.9828 33.3125 37.6981 33.3125 38.4441C33.3127 38.6899 33.4101 38.9257 33.5834 39.1001C33.7568 39.2745 33.992 39.3733 34.2378 39.375H34.25C34.4951 39.3736 34.7301 39.2768 34.9051 39.1051C35.0801 38.9335 35.1814 38.7004 35.1875 38.4553C35.1868 38.3322 35.2103 38.2101 35.2567 38.0961C35.3031 37.9821 35.3716 37.8783 35.4581 37.7908C35.6329 37.6139 35.8707 37.5137 36.1194 37.5122C36.368 37.5107 36.6071 37.608 36.7839 37.7828C36.9608 37.9576 37.061 38.1954 37.0625 38.4441C37.0625 38.6927 37.1613 38.9312 37.3371 39.107C37.5129 39.2828 37.7514 39.3816 38 39.3816C38.2486 39.3816 38.4871 39.2828 38.6629 39.107C38.8387 38.9312 38.9375 38.6927 38.9375 38.4441Z" fill="#888A98"/>
<path d="M42.4997 21.5438C42.5613 21.5566 42.6242 21.5629 42.6872 21.5625C42.9031 21.5623 43.1124 21.4876 43.2797 21.351C43.4469 21.2143 43.5618 21.0241 43.605 20.8125L44.5425 16.125C44.5714 16.0026 44.5754 15.8755 44.5541 15.7515C44.5329 15.6275 44.4869 15.509 44.419 15.4031C44.351 15.2972 44.2624 15.2061 44.1584 15.1352C44.0545 15.0643 43.9373 15.015 43.8139 14.9903C43.6905 14.9657 43.5635 14.9661 43.4402 14.9916C43.317 15.017 43.2002 15.0671 43.0967 15.1387C42.9932 15.2102 42.9052 15.3019 42.8379 15.4083C42.7706 15.5146 42.7254 15.6334 42.705 15.7575L41.7675 20.445C41.7199 20.6877 41.7702 20.9394 41.9074 21.1452C42.0445 21.351 42.2574 21.4942 42.4997 21.5438Z" fill="#888A98"/>
<path d="M49.8362 16.1428C49.7401 16.0659 49.6297 16.0086 49.5114 15.9743C49.3931 15.9399 49.2693 15.9293 49.1469 15.9429C49.0244 15.9564 48.9059 15.994 48.798 16.0534C48.6901 16.1128 48.595 16.1929 48.5181 16.2891L44.7681 20.9766C44.6911 21.0727 44.6339 21.1831 44.5996 21.3014C44.5653 21.4197 44.5546 21.5435 44.5682 21.6659C44.5818 21.7883 44.6194 21.9069 44.6787 22.0147C44.7381 22.1226 44.8182 22.2178 44.9143 22.2947C45.0105 22.3717 45.1209 22.4289 45.2391 22.4632C45.3574 22.4975 45.4813 22.5082 45.6037 22.4946C45.7261 22.481 45.8446 22.4434 45.9525 22.3841C46.0604 22.3247 46.1555 22.2446 46.2325 22.1485L49.9825 17.461C50.0594 17.3648 50.1167 17.2545 50.151 17.1362C50.1854 17.0179 50.196 16.894 50.1824 16.7716C50.1689 16.6492 50.1313 16.5307 50.0719 16.4228C50.0125 16.3149 49.9324 16.2198 49.8362 16.1428Z" fill="#888A98"/>
<path d="M48.3124 24.375C48.4575 24.375 48.6006 24.3413 48.7305 24.2766L52.4805 22.4016C52.5907 22.3466 52.6889 22.2704 52.7697 22.1774C52.8504 22.0843 52.9121 21.9763 52.9511 21.8595C52.9901 21.7427 53.0057 21.6193 52.997 21.4965C52.9883 21.3736 52.9555 21.2536 52.9005 21.1435C52.8455 21.0333 52.7693 20.935 52.6763 20.8543C52.5832 20.7735 52.4752 20.7119 52.3584 20.6729C52.1225 20.5941 51.8649 20.6123 51.6424 20.7235L47.8924 22.5985C47.7031 22.6928 47.5513 22.8483 47.4616 23.0398C47.3719 23.2313 47.3495 23.4474 47.3982 23.6532C47.4468 23.859 47.5636 24.0423 47.7296 24.1733C47.8955 24.3044 48.1009 24.3754 48.3124 24.375Z" fill="#888A98"/>
</g>
<defs>
<clipPath id="clip0_1206_24223">
<rect width="60" height="60" fill="white" transform="translate(0.5)"/>
</clipPath>
</defs>
</svg>
