<svg width="24" height="24" viewBox="0 0 24 24" fill="none" xmlns="http://www.w3.org/2000/svg">
<g clip-path="url(#clip0_4906_55239)">
<path d="M12 0C11.8007 0 11.6025 0.00510937 11.4056 0.0151875L1.06479 7.96837C0.708731 9.07655 0.515747 10.2578 0.515747 11.4843C0.515747 17.8269 5.65747 22.9687 12.0001 22.9687C18.3427 22.9687 23.4844 17.8269 23.4844 11.4843C23.4844 5.14172 18.3426 0 12 0Z" fill="#FFA318"/>
<path d="M22.4213 16.2045L15.5735 4.34375C15.8916 5.17756 16.0664 6.08155 16.0664 7.02575V21.5595C16.0664 22.0712 15.9078 22.5464 15.6376 22.9391L21.528 19.5382C22.6934 18.8654 23.0942 17.3699 22.4213 16.2045Z" fill="#FF5024"/>
<path d="M20.9494 19.7588C20.6383 19.6601 20.5991 19.3927 20.6098 19.2173C20.6152 19.1305 20.5613 19.0489 20.4789 19.0211C20.2337 18.9385 20.1774 18.7433 20.1711 18.6025C20.1669 18.5085 20.1005 18.4295 20.0082 18.4118C17.0896 17.8532 16.3363 15.2881 16.1892 14.6269C16.1744 14.5603 16.1271 14.5083 16.0664 14.4849V21.5593C16.0664 22.071 15.9078 22.5462 15.6376 22.939L21.0418 19.8188C21.0175 19.7917 20.9861 19.7704 20.9494 19.7588Z" fill="#E83100"/>
<path d="M21.3421 16.8278L16.0664 7.68994V21.2528L20.905 18.4592C21.4753 18.1299 21.6714 17.3981 21.3421 16.8278Z" fill="#E83100"/>
<path d="M20.1711 18.6025C20.1669 18.5085 20.1005 18.4295 20.0082 18.4118C17.0896 17.8532 16.3364 15.2881 16.1893 14.6269C16.1745 14.5603 16.1271 14.5083 16.0664 14.4849V21.2524L20.241 18.8422C20.1914 18.7631 20.1744 18.6755 20.1711 18.6025Z" fill="#D30000"/>
<path d="M15.6654 21.9035C15.5355 21.9035 15.409 21.8365 15.3386 21.7162C15.2331 21.5359 15.2937 21.3042 15.474 21.1987L20.7139 18.1326C21.1054 17.9064 21.2394 17.4064 21.0145 17.0168L15.3379 7.22827C15.233 7.04757 15.2946 6.8161 15.4753 6.71129C15.6559 6.60643 15.8875 6.66802 15.9923 6.84873L21.6693 16.6379C22.1032 17.3894 21.845 18.353 21.0941 18.7866L15.8561 21.8517C15.7961 21.8868 15.7303 21.9035 15.6654 21.9035Z" fill="#D30000"/>
<path d="M20.4789 19.0212C20.2337 18.9385 20.1774 18.7433 20.1711 18.6025C20.169 18.5555 20.1513 18.5122 20.1226 18.4785L15.4741 21.1986C15.2939 21.3041 15.2332 21.5358 15.3387 21.7161C15.4091 21.8364 15.5356 21.9034 15.6655 21.9034C15.7304 21.9034 15.7962 21.8867 15.8562 21.8516L20.5729 19.0915C20.5499 19.0596 20.5178 19.0343 20.4789 19.0212Z" fill="#FF5024"/>
<path d="M11.4056 0.0151367C11.2327 0.0239492 11.0609 0.0370273 10.8901 0.0534336L10.8902 0.0535742L10.036 0.167949V0.167527C5.79821 0.897934 2.35552 3.95081 1.06482 7.96832V21.5594C1.06482 22.9052 2.15958 23.9999 3.50527 23.9999H13.7183C15.0639 23.9999 16.1587 22.9052 16.1587 21.5595V7.02571C16.1587 3.85087 14.1879 1.12786 11.4056 0.0151367ZM8.61174 5.92514C7.81529 5.92514 7.16963 5.27948 7.16963 4.48307C7.16963 3.68662 7.81529 3.04097 8.61174 3.04097C9.40819 3.04097 10.0539 3.68662 10.0539 4.48307C10.0539 5.27948 9.40819 5.92514 8.61174 5.92514Z" fill="#FFC670"/>
<path d="M13.8738 23.9944C13.8576 23.9601 13.8333 23.9295 13.8 23.9068C13.5482 23.7351 13.5688 23.4908 13.6258 23.3227C13.6593 23.2241 13.6228 23.1127 13.5335 23.0592C13.3127 22.9268 13.2881 22.6926 13.3007 22.5357C13.3085 22.4382 13.2493 22.3491 13.1587 22.3122C11.8754 21.7903 11.753 20.6624 11.7693 20.1454C11.7736 20.0077 11.6544 19.9001 11.5173 19.9135C9.16606 20.1441 9.27096 17.923 9.36204 17.2192C9.37549 17.1151 9.31554 17.0174 9.21828 16.9778C9.02613 16.8997 8.98034 16.6973 8.96951 16.5992C8.96529 16.5611 8.95207 16.5246 8.92971 16.4935L8.33693 15.6672C8.30149 15.6178 8.24745 15.5854 8.18749 15.5754C8.05184 15.5526 7.98729 15.477 7.9572 15.4014C7.91674 15.2998 7.80603 15.2447 7.69854 15.2649L6.66851 15.4586C6.62674 15.4664 6.58324 15.4629 6.54382 15.447C5.04035 14.8409 5.68568 13.3116 5.90407 12.8816C5.94101 12.8088 5.93534 12.7217 5.89015 12.6537L5.70935 12.3818C5.67129 12.3246 5.60932 12.2885 5.54093 12.2813C3.50215 12.0672 2.89737 10.5353 2.73935 9.9485C2.70893 9.83544 2.59732 9.76639 2.48163 9.78449C2.2039 9.82789 2.06079 9.65877 1.99137 9.52002C1.94759 9.4325 1.85337 9.38038 1.75667 9.39552C1.30113 9.467 1.13815 9.20029 1.08631 9.06889C1.08059 9.05436 1.07304 9.04082 1.0647 9.02783V21.5595C1.06484 22.9051 2.1596 23.9998 3.50529 23.9998H13.7183C13.7705 23.9998 13.8223 23.9976 13.8738 23.9944Z" fill="#FFBA52"/>
<path d="M7.85603 4.01865C7.97721 4.33416 8.27388 4.53802 8.6118 4.53802H8.61189C8.82082 4.53798 8.99013 4.36862 8.99008 4.15974C8.99004 3.95087 8.82072 3.78155 8.61185 3.78155H8.6118C8.57533 3.78155 8.56643 3.75854 8.56221 3.74748L7.47836 0.924805C7.24539 1.0247 7.01627 1.1318 6.7915 1.24637L7.85603 4.01865Z" fill="#C8CEFC"/>
<path d="M14.9125 7.02585C14.9125 3.55161 12.0859 0.725098 8.61171 0.725098C8.35676 0.725098 8.10546 0.740754 7.85834 0.770332C5.82269 1.55774 4.06751 2.90811 2.78416 4.63105C2.47948 5.36975 2.31091 6.17844 2.31091 7.0259V21.5596C2.31091 22.2182 2.84669 22.7539 3.50519 22.7539H13.7182C14.3767 22.7539 14.9125 22.2182 14.9125 21.5596V7.02585ZM8.61166 5.92527C7.81521 5.92527 7.16955 5.27961 7.16955 4.48321C7.16955 3.68675 7.81521 3.0411 8.61166 3.0411C9.40812 3.0411 10.0538 3.68675 10.0538 4.48321C10.0538 5.27961 9.40812 5.92527 8.61166 5.92527Z" fill="#FFBA52"/>
<path d="M13.3007 22.5358C13.3085 22.4383 13.2493 22.3492 13.1587 22.3123C11.8754 21.7905 11.753 20.6625 11.7693 20.1455C11.7736 20.0078 11.6544 19.9002 11.5173 19.9136C9.16605 20.1443 9.27096 17.9231 9.36204 17.2194C9.37549 17.1152 9.31554 17.0175 9.21827 16.978C9.02613 16.8998 8.98033 16.6974 8.96951 16.5993C8.96529 16.5612 8.95207 16.5247 8.92971 16.4936L8.33693 15.6673C8.30149 15.618 8.24744 15.5855 8.18749 15.5755C8.05183 15.5527 7.98729 15.4771 7.95719 15.4015C7.91674 15.3 7.80602 15.2448 7.69854 15.265L6.66851 15.4587C6.62674 15.4666 6.58324 15.463 6.54382 15.4472C5.04035 14.841 5.68568 13.3118 5.90407 12.8817C5.94101 12.8089 5.93533 12.7218 5.89015 12.6538L5.70935 12.3819C5.67129 12.3247 5.60932 12.2886 5.54093 12.2814C3.50215 12.0673 2.89737 10.5354 2.73935 9.94862C2.70893 9.83556 2.59732 9.76651 2.48163 9.78461C2.41774 9.79459 2.3613 9.79295 2.31091 9.78339V21.5597C2.31091 22.2182 2.84669 22.7539 3.50519 22.7539H13.3148C13.2969 22.6764 13.2956 22.5997 13.3007 22.5358Z" fill="#FF9D09"/>
<path d="M6.95383 20.0363C6.697 19.9285 6.57615 19.6329 6.68397 19.3761L9.52741 12.6008C9.63517 12.344 9.93081 12.2231 10.1876 12.3309C10.4444 12.4387 10.5653 12.7343 10.4575 12.9911L7.61401 19.7665C7.50676 20.022 7.21192 20.1446 6.95383 20.0363Z" fill="#E3E7FC"/>
<path d="M6.60459 15.9042C5.63372 15.9042 4.84387 15.023 4.84387 13.9399C4.84387 12.8568 5.63372 11.9756 6.60459 11.9756C7.57547 11.9756 8.36531 12.8568 8.36531 13.9399C8.36531 15.023 7.57542 15.9042 6.60459 15.9042ZM6.60459 12.9842C6.18989 12.9842 5.85253 13.413 5.85253 13.9399C5.85253 14.4669 6.18993 14.8955 6.60459 14.8955C7.01929 14.8955 7.35665 14.4668 7.35665 13.9399C7.35665 13.413 7.01925 12.9842 6.60459 12.9842Z" fill="#E3E7FC"/>
<path d="M10.4448 20.5365C9.47393 20.5365 8.68408 19.6553 8.68408 18.5722C8.68408 17.4891 9.47393 16.6079 10.4448 16.6079C11.4157 16.6079 12.2055 17.4891 12.2055 18.5722C12.2056 19.6553 11.4157 20.5365 10.4448 20.5365ZM10.4448 17.6165C10.0301 17.6165 9.69274 18.0452 9.69274 18.5722C9.69274 19.0991 10.0301 19.5278 10.4448 19.5278C10.8595 19.5278 11.1969 19.0991 11.1969 18.5722C11.1969 18.0453 10.8595 17.6165 10.4448 17.6165Z" fill="#E3E7FC"/>
<path d="M9.25549 7.91663H7.8858C7.67693 7.91663 7.50757 7.74727 7.50757 7.53839C7.50757 7.32952 7.67693 7.16016 7.8858 7.16016H9.25549C9.46437 7.16016 9.63372 7.32952 9.63372 7.53839C9.63372 7.74731 9.46437 7.91663 9.25549 7.91663Z" fill="#FFC670"/>
<path d="M10.3552 9.28284H6.78607C6.5772 9.28284 6.40784 9.11348 6.40784 8.9046C6.40784 8.69573 6.5772 8.52637 6.78607 8.52637H10.3552C10.5641 8.52637 10.7334 8.69573 10.7334 8.9046C10.7334 9.11348 10.5641 9.28284 10.3552 9.28284Z" fill="#FFC670"/>
<path d="M10.3552 10.649H6.78607C6.5772 10.649 6.40784 10.4797 6.40784 10.2708C6.40784 10.0619 6.5772 9.89258 6.78607 9.89258H10.3552C10.5641 9.89258 10.7334 10.0619 10.7334 10.2708C10.7334 10.4797 10.5641 10.649 10.3552 10.649Z" fill="#FFC670"/>
<path d="M15.2908 21.5596V7.02586C15.2908 3.5123 12.5636 0.62377 9.11483 0.365723C7.92875 0.672613 6.81702 1.16414 5.81225 1.80802C6.6464 1.35868 7.59979 1.10335 8.61182 1.10335C11.8775 1.10335 14.5343 3.76018 14.5343 7.02586V21.5596C14.5343 22.0096 14.1682 22.3756 13.7183 22.3756H3.50525C3.05525 22.3756 2.68921 22.0096 2.68921 21.5596V7.02586C2.68921 5.44027 3.31565 3.99825 4.33391 2.93414C3.43705 3.7388 2.66746 4.68225 2.05916 5.73108C1.97647 6.15014 1.93274 6.58299 1.93274 7.02591V21.5597C1.93274 22.4268 2.63816 23.1322 3.50525 23.1322H13.7183C14.5853 23.1322 15.2908 22.4267 15.2908 21.5596Z" fill="#FF9D09"/>
<path d="M13.5335 23.0592C13.3126 22.9269 13.2881 22.6926 13.3007 22.5357C13.3055 22.4757 13.2848 22.4189 13.2471 22.3755H3.50518C3.05518 22.3755 2.68913 22.0094 2.68913 21.5595V9.8578C2.63851 9.80155 2.56135 9.77193 2.48162 9.7844C2.20388 9.8278 2.06077 9.65868 1.99135 9.51993C1.97687 9.49096 1.95643 9.46635 1.93262 9.44629V21.5595C1.93262 22.4266 2.63804 23.132 3.50513 23.132H13.6053C13.5879 23.103 13.564 23.0775 13.5335 23.0592Z" fill="#E38C08"/>
<path d="M10.0359 0.168086L8.6614 3.74779C8.65713 3.75885 8.64832 3.78187 8.61175 3.78187C8.40283 3.78187 8.23352 3.95123 8.23352 4.1601C8.23352 4.36898 8.40288 4.53834 8.61175 4.53834C8.94972 4.53834 9.24644 4.33448 9.36757 4.01896L10.8901 0.0537109C10.6021 0.0813203 10.3173 0.119617 10.0359 0.168086Z" fill="#E3E7FC"/>
</g>
<defs>
<clipPath id="clip0_4906_55239">
<rect width="24" height="24" fill="white"/>
</clipPath>
</defs>
</svg>
