<svg width="114" height="113" viewBox="0 0 114 113" fill="none" xmlns="http://www.w3.org/2000/svg">
<path d="M97.6094 88.2812H106.438L105.006 104.027C104.987 104.954 105.325 105.852 105.95 106.536C106.575 107.22 107.439 107.638 108.364 107.703C109.244 107.66 110.076 107.291 110.699 106.668C111.322 106.045 111.691 105.213 111.734 104.333V44.1406C111.734 44.1406 97.6094 49.4375 97.6094 88.2812Z" fill="#D3D3D3"/>
<path d="M57 1.76562L60.819 9.90339L69.3594 11.2082L63.1797 17.5415L64.6381 26.4844L57 22.2628L49.3619 26.4844L50.8203 17.5415L44.6406 11.2082L53.181 9.90339L57 1.76562Z" fill="#F0F0F0"/>
<path d="M106.438 12.0419C106.438 18.045 95.8438 24.719 95.8438 24.719C95.8438 24.719 85.25 18.0432 85.25 12.0419C85.25 6.04049 94.0781 4.80279 95.8438 12.0419C97.6094 4.79573 106.438 6.03873 106.438 12.0419Z" fill="#D3D3D3"/>
<path d="M39.3438 27.9325C39.3438 33.9356 28.75 40.6097 28.75 40.6097C28.75 40.6097 18.1562 33.9338 18.1562 27.9325C18.1562 21.9311 26.9844 20.6934 28.75 27.9325C30.5156 20.6864 39.3438 21.9294 39.3438 27.9325Z" fill="#D3D3D3"/>
<path d="M57 111.234C76.5026 111.234 92.3125 95.4244 92.3125 75.9219C92.3125 56.4193 76.5026 40.6094 57 40.6094C37.4974 40.6094 21.6875 56.4193 21.6875 75.9219C21.6875 95.4244 37.4974 111.234 57 111.234Z" fill="#D9D9D9"/>
<path d="M57 100.641C70.6518 100.641 81.7188 89.5737 81.7188 75.9219C81.7188 62.2701 70.6518 51.2031 57 51.2031C43.3482 51.2031 32.2812 62.2701 32.2812 75.9219C32.2812 89.5737 43.3482 100.641 57 100.641Z" fill="#F0F0F0"/>
<path d="M14.625 44.1406C14.1567 44.1406 13.7076 44.3266 13.3765 44.6578C13.0454 44.9889 12.8594 45.438 12.8594 45.9062V54.7344H11.0938V45.9062C11.0938 45.438 10.9077 44.9889 10.5766 44.6578C10.2455 44.3266 9.7964 44.1406 9.32812 44.1406C8.85985 44.1406 8.41076 44.3266 8.07964 44.6578C7.74852 44.9889 7.5625 45.438 7.5625 45.9062V54.7344H5.79688V45.9062C5.79688 45.438 5.61085 44.9889 5.27974 44.6578C4.94862 44.3266 4.49952 44.1406 4.03125 44.1406C3.56298 44.1406 3.11388 44.3266 2.78276 44.6578C2.45165 44.9889 2.26563 45.438 2.26562 45.9062V58.2656C2.26563 59.2022 2.63767 60.1004 3.2999 60.7626C3.96214 61.4248 4.86033 61.7969 5.79688 61.7969V104.172C5.82772 105.099 6.20966 105.979 6.86533 106.635C7.521 107.29 8.40138 107.672 9.32812 107.703C10.2549 107.672 11.1352 107.29 11.7909 106.635C12.4466 105.979 12.8285 105.099 12.8594 104.172V61.7969C13.7959 61.7969 14.6941 61.4248 15.3563 60.7626C16.0186 60.1004 16.3906 59.2022 16.3906 58.2656V45.9062C16.3906 45.438 16.2046 44.9889 15.8735 44.6578C15.5424 44.3266 15.0933 44.1406 14.625 44.1406Z" fill="#D3D3D3"/>
<path d="M56.9994 81.2135C59.8317 81.1727 62.6224 81.8982 65.0762 83.3133C67.5301 84.7284 69.5558 86.7805 70.939 89.2524C71.1497 89.6711 71.1855 90.1563 71.0385 90.6013C70.8915 91.0463 70.5737 91.4147 70.1551 91.6254C69.7364 91.8362 69.2512 91.8719 68.8062 91.7249C68.3612 91.5779 67.9928 91.2601 67.7821 90.8415C66.6625 88.9825 65.0813 87.4445 63.192 86.3769C61.3027 85.3093 59.1695 84.7482 56.9994 84.7482C54.8293 84.7482 52.6961 85.3092 50.8068 86.3769C48.9175 87.4445 47.3363 88.9825 46.2167 90.8415C46.006 91.2601 45.6376 91.5779 45.1926 91.7249C44.7475 91.8719 44.2624 91.8361 43.8437 91.6254C43.4251 91.4147 43.1073 91.0463 42.9603 90.6013C42.8133 90.1563 42.8491 89.6711 43.0598 89.2524C44.443 86.7805 46.4687 84.7284 48.9225 83.3133C51.3764 81.8982 54.1671 81.1727 56.9994 81.2135Z" fill="#282828"/>
<path d="M42.875 67.1064C43.3433 67.1064 43.7924 67.2925 44.1235 67.6236C44.4546 67.9547 44.6406 68.4038 44.6406 68.8721C44.6434 69.3403 44.8322 69.7883 45.1653 70.1175C45.4984 70.4466 45.9486 70.6299 46.4168 70.6271C46.8851 70.6243 47.3331 70.4356 47.6622 70.1025C47.9914 69.7694 48.1747 69.3192 48.1719 68.8509C48.1833 68.3893 48.3741 67.9504 48.7037 67.627C49.0333 67.3037 49.4758 67.1214 49.9375 67.1188L49.9605 67.1188C50.4235 67.1221 50.8664 67.3082 51.1928 67.6366C51.5193 67.965 51.7027 68.409 51.7031 68.8721C51.7031 70.2769 51.1451 71.6242 50.1517 72.6175C49.1584 73.6109 47.8111 74.1689 46.4062 74.1689C45.0014 74.1689 43.6542 73.6109 42.6608 72.6175C41.6674 71.6242 41.1094 70.2769 41.1094 68.8721C41.1094 68.4038 41.2954 67.9547 41.6265 67.6236C41.9576 67.2925 42.4067 67.1064 42.875 67.1064Z" fill="#282828"/>
<path d="M64.0625 67.1064C64.5308 67.1064 64.9799 67.2925 65.311 67.6236C65.6421 67.9547 65.8281 68.4038 65.8281 68.8721C65.8309 69.3403 66.0196 69.7883 66.3528 70.1175C66.6859 70.4466 67.1361 70.6299 67.6043 70.6271C68.0726 70.6243 68.5206 70.4356 68.8497 70.1025C69.1789 69.7694 69.3622 69.3192 69.3594 68.8509C69.3708 68.3893 69.5616 67.9504 69.8912 67.627C70.2208 67.3037 70.6633 67.1214 71.125 67.1188L71.148 67.1188C71.611 67.1221 72.0539 67.3082 72.3803 67.6366C72.7068 67.965 72.8902 68.409 72.8906 68.8721C72.8906 70.2769 72.3326 71.6242 71.3392 72.6175C70.3458 73.6109 68.9986 74.1689 67.5938 74.1689C66.1889 74.1689 64.8417 73.6109 63.8483 72.6175C62.8549 71.6242 62.2969 70.2769 62.2969 68.8721C62.2969 68.4038 62.4829 67.9547 62.814 67.6236C63.1451 67.2925 63.5942 67.1064 64.0625 67.1064Z" fill="#282828"/>
<path d="M79.9535 40.6096C79.8349 40.6104 79.7165 40.5985 79.6004 40.5743C79.3732 40.528 79.1573 40.4373 78.9651 40.3075C78.7729 40.1777 78.6081 40.0114 78.4802 39.8179C78.3523 39.6244 78.2638 39.4076 78.2197 39.1799C78.1756 38.9522 78.1768 38.7181 78.2232 38.4909L79.9889 29.6627C80.0273 29.4289 80.1124 29.2052 80.2392 29.0049C80.3659 28.8047 80.5317 28.632 80.7266 28.4972C80.9214 28.3624 81.1415 28.2682 81.3736 28.2202C81.6056 28.1722 81.845 28.1714 82.0774 28.2179C82.3097 28.2644 82.5304 28.3571 82.7261 28.4907C82.9219 28.6242 83.0888 28.7958 83.2168 28.9953C83.3448 29.1947 83.4314 29.4178 83.4714 29.6514C83.5114 29.885 83.5039 30.1242 83.4495 30.3549L81.6839 39.183C81.6053 39.5844 81.3899 39.9461 81.0743 40.2063C80.7587 40.4665 80.3626 40.609 79.9535 40.6096Z" fill="#D3D3D3"/>
<path d="M85.2508 42.3755C84.9183 42.3753 84.5926 42.2812 84.3112 42.104C84.0298 41.9268 83.8041 41.6737 83.6602 41.3739C83.5163 41.0741 83.46 40.7398 83.4978 40.4094C83.5355 40.079 83.6658 39.766 83.8737 39.5064L90.9362 30.6783C91.0811 30.4972 91.2602 30.3464 91.4634 30.2345C91.6666 30.1227 91.8898 30.052 92.1203 30.0264C92.3509 30.0008 92.5842 30.0209 92.8069 30.0855C93.0297 30.1501 93.2375 30.2579 93.4186 30.4028C93.5997 30.5477 93.7505 30.7269 93.8623 30.9301C93.9742 31.1333 94.0449 31.3565 94.0705 31.587C94.0961 31.8175 94.076 32.0508 94.0114 32.2736C93.9468 32.4963 93.839 32.7042 93.6941 32.8853L86.6316 41.7134C86.4659 41.9203 86.2557 42.0873 86.0167 42.2019C85.7777 42.3166 85.5159 42.3759 85.2508 42.3755Z" fill="#D3D3D3"/>
<path d="M90.5464 45.906C90.1482 45.9068 89.7614 45.7729 89.4488 45.5261C89.1363 45.2793 88.9163 44.9342 88.8247 44.5466C88.7331 44.1591 88.7752 43.7519 88.9441 43.3913C89.1131 43.0307 89.399 42.7378 89.7554 42.5602L96.8179 39.0289C97.237 38.8196 97.7221 38.7853 98.1664 38.9337C98.3865 39.0071 98.5899 39.1232 98.765 39.2752C98.9402 39.4273 99.0837 39.6124 99.1874 39.8199C99.291 40.0274 99.3528 40.2533 99.3691 40.4847C99.3854 40.7161 99.356 40.9484 99.2826 41.1685C99.2091 41.3885 99.0931 41.5919 98.941 41.7671C98.789 41.9422 98.6039 42.0857 98.3964 42.1894L91.3339 45.7206C91.0893 45.8425 90.8197 45.906 90.5464 45.906Z" fill="#D3D3D3"/>
</svg>
