<svg width="24" height="24" viewBox="0 0 24 24" fill="none" xmlns="http://www.w3.org/2000/svg">
<path d="M18.2686 9.88948C18.1389 9.55854 17.9345 7.10623 17.4337 6.06335C17.3918 5.998 17.3366 5.94228 17.2716 5.8999C17.2065 5.85751 17.1333 5.82942 17.0566 5.81749C16.9799 5.80556 16.9015 5.81006 16.8267 5.83069C16.7519 5.85132 16.6823 5.88761 16.6226 5.93716C16.4904 6.0656 16.2892 6.50885 15.9346 6.50885C15.6356 6.50885 15.5825 6.28948 15.4471 6.14248C15.3748 6.04071 15.2799 5.9571 15.1698 5.89821C15.0597 5.83933 14.9374 5.80677 14.8126 5.8031C14.6831 5.80651 14.5559 5.83853 14.4401 5.89688C14.3244 5.95523 14.223 6.03846 14.1433 6.1406C14.0427 6.26887 13.9144 6.37264 13.7679 6.44409C13.6214 6.51555 13.4606 6.55282 13.2976 6.5531C13.1627 6.55904 13.0283 6.5329 12.9054 6.47685C12.7825 6.42079 12.6747 6.3364 12.5908 6.2306C12.4033 6.0281 12.2439 5.8031 11.7883 5.8031C11.4095 5.8031 11.2426 6.02998 11.0308 6.23435C10.9356 6.33781 10.8195 6.41977 10.6902 6.47474C10.5609 6.52971 10.4213 6.55643 10.2808 6.5531C10.1379 6.557 9.99612 6.52789 9.86637 6.46806C9.73661 6.40822 9.62241 6.31926 9.53264 6.2081C9.35076 6.01123 9.19514 5.8031 8.82764 5.8031C8.47889 5.8031 8.33639 6.00748 8.16389 6.20248C8.07724 6.3161 7.96457 6.40725 7.83536 6.46827C7.70615 6.52928 7.56418 6.55838 7.42139 6.5531V8.0006H9.35826C9.3657 7.88336 9.41649 7.77308 9.50076 7.69123C9.54568 7.6453 9.59936 7.60885 9.65862 7.58406C9.71788 7.55926 9.78152 7.5466 9.84576 7.54685H13.0164C13.14 7.54655 13.2592 7.59326 13.3497 7.6775C13.4402 7.76175 13.4953 7.87724 13.5039 8.0006C13.7474 8.00052 13.9877 8.05601 14.2066 8.16285C14.4254 8.26969 14.617 8.42506 14.7667 8.61712C14.9164 8.80919 15.0203 9.03289 15.0705 9.27118C15.1207 9.50948 15.1159 9.75608 15.0564 9.99223L12.2814 21.0011H18.9058C19.0692 21.0012 19.2267 20.9399 19.3471 20.8294C19.4675 20.7189 19.542 20.5671 19.5558 20.4043C19.7658 17.961 19.4668 12.9472 18.2686 9.88948Z" fill="#E48258"/>
<path d="M16.4532 6.2888C16.4364 6.2054 16.4025 6.12639 16.3536 6.05682C16.3046 5.98725 16.2417 5.92864 16.1689 5.88472C16.096 5.8408 16.0148 5.81253 15.9304 5.80172C15.8461 5.79091 15.7604 5.79779 15.6788 5.82192C15.5124 5.87381 15.373 5.98894 15.2907 6.14255C15.1538 6.36005 15.0619 6.5963 14.7375 6.5963C14.3344 6.5963 14.1863 6.3563 13.9875 6.14067C13.8974 6.03011 13.7826 5.94217 13.6523 5.8839C13.5221 5.82562 13.3801 5.79862 13.2375 5.80505C12.8475 5.80505 12.6563 6.02255 12.435 6.23067C12.3285 6.34707 12.1986 6.43976 12.0539 6.50275C11.9092 6.56573 11.7529 6.59761 11.595 6.5963C11.4537 6.60551 11.3124 6.57682 11.1859 6.51321C11.0593 6.44959 10.952 6.35335 10.875 6.23442C10.71 6.0263 10.5638 5.80505 10.1007 5.80505C9.73879 5.80505 9.56254 6.00755 9.37691 6.20817C9.29049 6.32652 9.17776 6.42318 9.04761 6.49053C8.91746 6.55789 8.77344 6.59409 8.62691 6.5963C8.29129 6.5963 8.16004 6.4013 8.00816 6.20255C7.94554 6.10125 7.86253 6.0141 7.76439 5.94664C7.66626 5.87917 7.55516 5.83287 7.43816 5.81067C7.31779 5.79748 7.19659 5.82682 7.09557 5.8936C6.99455 5.96037 6.92007 6.06038 6.88504 6.1763C6.71254 6.78755 6.60379 7.95005 6.51004 8.75442C6.46178 9.16526 6.33849 9.56374 6.14629 9.93005C4.07629 13.9388 4.15879 18.6432 4.23941 20.3775C4.24759 20.5457 4.32007 20.7043 4.44186 20.8205C4.56365 20.9367 4.72545 21.0016 4.89379 21.0019H14.2763C14.3652 21.0018 14.4532 20.9835 14.5348 20.9482C14.6164 20.9128 14.69 20.8612 14.7509 20.7964C14.8118 20.7316 14.8589 20.655 14.8891 20.5714C14.9194 20.4878 14.9323 20.3988 14.9269 20.31C14.8125 18.4482 14.6419 13.2394 16.0088 9.92817C16.143 9.60986 16.2307 9.27393 16.2694 8.93067C16.3463 8.18442 16.5338 6.90755 16.4532 6.2888ZM13.02 8.3813C12.9746 8.42711 12.9206 8.46346 12.8611 8.48824C12.8015 8.51303 12.7377 8.52575 12.6732 8.52567H10.065C9.93528 8.52557 9.81086 8.47398 9.71911 8.38223C9.62735 8.29047 9.57576 8.16606 9.57566 8.0363C9.57535 8.02439 9.57598 8.01248 9.57754 8.00067C9.58498 7.88343 9.63577 7.77315 9.72004 7.6913C9.76496 7.64537 9.81864 7.60893 9.8779 7.58413C9.93716 7.55933 10.0008 7.54668 10.065 7.54692H12.6732C12.7968 7.54663 12.916 7.59333 13.0065 7.67757C13.097 7.76182 13.1521 7.87732 13.1607 8.00067C13.1622 8.01248 13.1628 8.02439 13.1625 8.0363C13.1627 8.10036 13.1502 8.16381 13.1257 8.22302C13.1013 8.28223 13.0654 8.33602 13.02 8.3813Z" fill="#F5AF77"/>
<path d="M15.3035 9.69707H7.04733C6.98246 9.69707 6.92024 9.6713 6.87437 9.62543C6.8285 9.57956 6.80273 9.51735 6.80273 9.45248C6.80273 9.38761 6.8285 9.3254 6.87437 9.27953C6.92024 9.23365 6.98246 9.20789 7.04733 9.20789H15.3035C15.3684 9.20789 15.4306 9.23365 15.4765 9.27953C15.5223 9.3254 15.5481 9.38761 15.5481 9.45248C15.5481 9.51735 15.5223 9.57956 15.4765 9.62543C15.4306 9.6713 15.3684 9.69707 15.3035 9.69707Z" fill="#E48258"/>
<path d="M11.8819 1.74224C11.897 1.75838 11.9152 1.77125 11.9354 1.78004C11.9556 1.78884 11.9774 1.79338 11.9995 1.79338C12.0215 1.79338 12.0434 1.78884 12.0636 1.78004C12.0838 1.77125 12.102 1.75838 12.117 1.74224C12.5265 1.30236 13.3834 1.43755 13.7014 1.89561C14.2521 2.6938 13.8702 3.90561 12.1709 4.5643C12.0606 4.60649 11.9386 4.60649 11.8283 4.5643C10.1292 3.90561 9.74704 2.6938 10.3004 1.89561C10.6159 1.43755 11.4726 1.30236 11.8819 1.74224Z" fill="#FF5C7B"/>
<path d="M9.96937 15.1888C9.91372 15.1888 9.85932 15.1723 9.81304 15.1414C9.76677 15.1105 9.7307 15.0666 9.7094 15.0152C9.68811 14.9637 9.68254 14.9072 9.6934 14.8526C9.70426 14.798 9.73107 14.7479 9.77043 14.7086L10.1949 14.2841C10.2476 14.2312 10.3191 14.2014 10.3937 14.2013C10.4683 14.2012 10.5399 14.2307 10.5928 14.2833C10.6457 14.336 10.6754 14.4075 10.6756 14.4821C10.6757 14.5567 10.6462 14.6283 10.5936 14.6812L10.1691 15.1057C10.1429 15.1321 10.1118 15.153 10.0775 15.1673C10.0433 15.1815 10.0065 15.1888 9.96937 15.1888Z" fill="#FCCCB6"/>
<path d="M10.131 14.7624C10.0243 14.656 9.87966 14.5962 9.72891 14.5962C9.57816 14.5962 9.43356 14.656 9.32682 14.7624L7.86244 16.227C7.75791 16.3341 7.69979 16.478 7.70069 16.6277C7.70159 16.7773 7.76144 16.9206 7.86725 17.0264C7.97306 17.1322 8.11632 17.192 8.26595 17.1929C8.41559 17.1938 8.55956 17.1357 8.66663 17.0312L10.131 15.5666C10.2375 15.4599 10.2974 15.3153 10.2974 15.1645C10.2974 15.0137 10.2375 14.8691 10.131 14.7624Z" fill="#D3714F"/>
<path d="M12.2195 13.4002C12.1803 13.3741 12.1333 13.3627 12.0865 13.3679C12.0398 13.3731 11.9964 13.3945 11.9639 13.4285L11.4978 13.8947C11.4824 13.9101 11.4615 13.9187 11.4397 13.9188C11.4179 13.9188 11.397 13.9101 11.3816 13.8947C11.3662 13.8794 11.3575 13.8585 11.3575 13.8367C11.3575 13.8149 11.3661 13.794 11.3815 13.7786L11.858 13.3022C11.8941 13.266 11.9143 13.217 11.9143 13.166C11.9143 13.1149 11.894 13.0659 11.8579 13.0298C11.8217 12.9937 11.7728 12.9734 11.7217 12.9734C11.6706 12.9735 11.6216 12.9938 11.5855 13.0299L11.1093 13.5062C11.1017 13.5138 11.0926 13.5198 11.0826 13.524C11.0727 13.5281 11.062 13.5302 11.0512 13.5303C11.0404 13.5303 11.0298 13.5281 11.0198 13.524C11.0098 13.5199 11.0008 13.5139 10.9931 13.5062C10.9855 13.4986 10.9794 13.4896 10.9753 13.4796C10.9712 13.4697 10.969 13.459 10.969 13.4482C10.969 13.4374 10.9711 13.4267 10.9752 13.4167C10.9794 13.4068 10.9854 13.3977 10.993 13.3901L11.4592 12.9238C11.4932 12.8913 11.5146 12.8479 11.5198 12.8011C11.525 12.7544 11.5135 12.7073 11.4875 12.6682C11.4712 12.6453 11.4501 12.6262 11.4257 12.6123C11.4013 12.5984 11.3742 12.59 11.3462 12.5876C11.3182 12.5852 11.2901 12.589 11.2637 12.5987C11.2373 12.6083 11.2133 12.6236 11.1935 12.6435L10.1622 13.6747C10.1002 13.7436 10.0524 13.8241 10.0216 13.9115C9.99072 13.999 9.97744 14.0916 9.98249 14.1842C9.98754 14.2768 10.0108 14.3674 10.051 14.451C10.0912 14.5345 10.1474 14.6093 10.2166 14.6711C10.2784 14.7402 10.3532 14.7965 10.4367 14.8367C10.5203 14.8769 10.611 14.9002 10.7036 14.9052C10.7962 14.9103 10.8888 14.897 10.9763 14.8661C11.0637 14.8353 11.1442 14.7875 11.2132 14.7255L12.2444 13.6942C12.2643 13.6743 12.2795 13.6504 12.2892 13.624C12.2988 13.5976 12.3026 13.5694 12.3002 13.5414C12.2978 13.5134 12.2894 13.4863 12.2754 13.4619C12.2615 13.4375 12.2424 13.4165 12.2195 13.4002Z" fill="#FFE1D2"/>
<path d="M9.48578 15.1899C9.41124 15.1899 9.33976 15.1603 9.28703 15.1076L8.84172 14.6625C8.81486 14.6366 8.79343 14.6055 8.77869 14.5712C8.76395 14.5369 8.75619 14.5 8.75587 14.4626C8.75555 14.4253 8.76266 14.3883 8.7768 14.3537C8.79094 14.3191 8.81183 14.2877 8.83824 14.2613C8.86464 14.2349 8.89605 14.214 8.93061 14.1999C8.96517 14.1858 9.00221 14.1786 9.03955 14.179C9.0769 14.1793 9.1138 14.187 9.14812 14.2018C9.18243 14.2165 9.21346 14.238 9.23941 14.2648L9.68472 14.7101C9.72402 14.7495 9.75077 14.7996 9.76159 14.8541C9.77242 14.9087 9.76683 14.9652 9.74554 15.0166C9.72425 15.0679 9.68821 15.1118 9.64198 15.1427C9.59575 15.1736 9.54139 15.1899 9.48578 15.1899Z" fill="#FCCCB6"/>
<path d="M11.5606 16.1931L10.0825 14.715C10.03 14.6612 9.96724 14.6183 9.89798 14.5889C9.82871 14.5594 9.75429 14.544 9.67904 14.5436C9.60378 14.5431 9.52919 14.5576 9.45957 14.5862C9.38996 14.6148 9.32671 14.6569 9.2735 14.7101C9.22028 14.7634 9.17816 14.8266 9.14957 14.8962C9.12098 14.9658 9.10649 15.0404 9.10694 15.1157C9.1074 15.1909 9.12278 15.2654 9.15221 15.3346C9.18163 15.4039 9.22451 15.4666 9.27836 15.5192L10.7564 16.9974C10.8092 17.0502 10.8719 17.0921 10.9409 17.1207C11.0099 17.1493 11.0839 17.164 11.1586 17.164C11.2333 17.164 11.3072 17.1492 11.3762 17.1207C11.4452 17.0921 11.5079 17.0502 11.5607 16.9973C11.6135 16.9445 11.6554 16.8818 11.684 16.8128C11.7125 16.7438 11.7272 16.6699 11.7272 16.5952C11.7272 16.5205 11.7125 16.4466 11.6839 16.3776C11.6553 16.3086 11.6134 16.2459 11.5606 16.1931Z" fill="#E48258"/>
<path d="M8.91242 14.775C9.0183 14.7476 9.11492 14.6923 9.19226 14.615C9.2696 14.5376 9.32486 14.441 9.35229 14.3351C9.41131 14.1179 9.4092 13.8886 9.34617 13.6726C9.28314 13.4565 9.16165 13.262 8.9951 13.1106C8.81937 12.9438 8.60535 12.8226 8.37185 12.7579C8.22828 12.7189 8.07696 12.7186 7.93319 12.7568C7.78943 12.7951 7.65832 12.8707 7.55312 12.9759C7.44792 13.081 7.37237 13.2122 7.3341 13.3559C7.29583 13.4997 7.2962 13.651 7.33517 13.7946C7.39961 14.0284 7.52053 14.2427 7.68729 14.4188C7.83886 14.5853 8.03348 14.7066 8.24967 14.7695C8.46585 14.8324 8.69521 14.8343 8.91242 14.775Z" fill="#FFE1D2"/>
</svg>
