<svg width="24" height="24" viewBox="0 0 24 24" fill="none" xmlns="http://www.w3.org/2000/svg">
<path d="M10.125 19.4513C10.4471 19.3687 10.7325 19.1812 10.9362 18.9185C11.1399 18.6557 11.2503 18.3325 11.25 18.0001V10.5001C11.2503 10.1676 11.1399 9.84444 10.9362 9.58166C10.7325 9.31888 10.4471 9.1314 10.125 9.04881C10.0029 9.01531 9.87665 8.99891 9.75 9.00006H2.25C2.053 9 1.85792 9.03876 1.67591 9.11412C1.4939 9.18949 1.32851 9.29997 1.18922 9.43927C1.04992 9.57857 0.93943 9.74395 0.864067 9.92597C0.788705 10.108 0.749944 10.3031 0.75 10.5001V18.0001C0.749946 18.1971 0.788708 18.3921 0.864071 18.5741C0.939434 18.7562 1.04992 18.9215 1.18922 19.0608C1.32852 19.2001 1.4939 19.3106 1.67591 19.386C1.85792 19.4613 2.053 19.5001 2.25 19.5001H9.75C9.87665 19.5012 10.0028 19.4848 10.125 19.4513ZM4.125 18.0001H2.625C2.52651 17.9986 2.43254 17.9584 2.36341 17.8883C2.29428 17.8181 2.25553 17.7235 2.25553 17.625C2.25554 17.5265 2.29429 17.432 2.36343 17.3618C2.43256 17.2917 2.52653 17.2515 2.62502 17.2501H4.125C4.22349 17.2515 4.31746 17.2917 4.38659 17.3618C4.45573 17.432 4.49448 17.5266 4.49448 17.6251C4.49448 17.7236 4.45573 17.8181 4.38659 17.8883C4.31746 17.9584 4.22349 17.9986 4.125 18.0001ZM4.875 16.5001H2.625C2.52651 16.4986 2.43254 16.4584 2.36341 16.3883C2.29428 16.3181 2.25553 16.2235 2.25553 16.125C2.25554 16.0265 2.29429 15.932 2.36343 15.8618C2.43256 15.7917 2.52653 15.7515 2.62502 15.7501H4.875C4.97349 15.7515 5.06746 15.7917 5.13659 15.8618C5.20573 15.932 5.24448 16.0266 5.24448 16.1251C5.24448 16.2236 5.20573 16.3181 5.13659 16.3883C5.06746 16.4584 4.97349 16.4986 4.875 16.5001ZM8.25 10.8751C8.24913 11.1732 8.13032 11.4588 7.91953 11.6696C7.70874 11.8804 7.4231 11.9992 7.125 12.0001H4.875C4.5769 11.9992 4.29126 11.8804 4.08047 11.6696C3.86968 11.4588 3.75087 11.1732 3.75 10.8751V9.75006H4.5V10.8751C4.5003 10.9744 4.5399 11.0696 4.61016 11.1399C4.68042 11.2102 4.77564 11.2498 4.875 11.2501H7.125C7.22436 11.2498 7.31958 11.2102 7.38984 11.1399C7.4601 11.0696 7.4997 10.9744 7.5 10.8751V9.75006H8.25V10.8751Z" fill="black"/>
<path d="M13.5 6.375H17.25C17.548 6.37391 17.8335 6.25503 18.0443 6.04429C18.255 5.83355 18.3739 5.54803 18.375 5.25V3.375C18.3741 3.0769 18.2553 2.79126 18.0445 2.58047C17.8337 2.36968 17.5481 2.25087 17.25 2.25H13.5C13.2019 2.25087 12.9163 2.36968 12.7055 2.58047C12.4947 2.79126 12.3759 3.0769 12.375 3.375V5.25C12.3763 5.54797 12.4952 5.83337 12.7059 6.04407C12.9166 6.25477 13.202 6.37371 13.5 6.375Z" fill="black"/>
<path d="M21.3751 3.75H19.1251V5.25H20.6251C20.8238 5.25058 21.0143 5.32978 21.1548 5.47031C21.2953 5.61084 21.3745 5.80127 21.3751 6V19.5C21.3745 19.6987 21.2953 19.8892 21.1548 20.0297C21.0143 20.1702 20.8238 20.2494 20.6251 20.25C18.7105 20.2514 9.24013 20.2485 7.5376 20.25C7.62408 20.6735 7.85421 21.0541 8.18904 21.3274C8.52388 21.6008 8.94286 21.7501 9.3751 21.75H21.3751C21.8723 21.7498 22.3491 21.5522 22.7007 21.2006C23.0523 20.849 23.2499 20.3722 23.2501 19.875V5.625C23.2499 5.12777 23.0523 4.65097 22.7007 4.29937C22.3491 3.94778 21.8723 3.75018 21.3751 3.75Z" fill="black"/>
<path d="M9.375 6C9.37558 5.80127 9.45478 5.61084 9.59531 5.47031C9.73584 5.32978 9.92627 5.25058 10.125 5.25H11.625V3.75H9.375C8.87777 3.75018 8.40097 3.94778 8.04937 4.29937C7.69778 4.65097 7.50018 5.12777 7.5 5.625V8.25H9.375V6Z" fill="black"/>
<path d="M10.125 8.28C10.6496 8.36858 11.1258 8.6402 11.469 9.04663C11.8123 9.45307 12.0004 9.968 12 10.5V18C12.0005 18.5537 11.7962 19.088 11.4262 19.5H20.625V6H18.9675C18.8197 6.33278 18.579 6.61589 18.2744 6.81541C17.9698 7.01494 17.6141 7.12243 17.25 7.125H13.5C13.1362 7.12326 12.7806 7.01606 12.4765 6.81639C12.1723 6.61672 11.9325 6.33314 11.7863 6H10.125V8.28ZM16.7963 9.10875C16.8671 9.03849 16.9628 8.99907 17.0625 8.99907C17.1622 8.99907 17.2579 9.03849 17.3287 9.10875L17.8125 9.59625L19.2338 8.17125C19.3048 8.10294 19.3999 8.06522 19.4984 8.0662C19.597 8.06718 19.6913 8.10678 19.761 8.17649C19.8307 8.2462 19.8703 8.34047 19.8713 8.43905C19.8723 8.53763 19.8346 8.63267 19.7662 8.70375L18.0787 10.3912C18.0075 10.4607 17.912 10.4996 17.8125 10.4996C17.713 10.4996 17.6175 10.4607 17.5463 10.3912L16.7963 9.64125C16.726 9.57045 16.6866 9.47475 16.6866 9.375C16.6866 9.27525 16.726 9.17955 16.7963 9.10875ZM16.7963 12.4838C16.8671 12.4135 16.9628 12.3741 17.0625 12.3741C17.1622 12.3741 17.2579 12.4135 17.3287 12.4838L17.8125 12.9713L19.2338 11.5463C19.3048 11.4779 19.3999 11.4402 19.4984 11.4412C19.597 11.4422 19.6913 11.4818 19.761 11.5515C19.8307 11.6212 19.8703 11.7155 19.8713 11.814C19.8723 11.9126 19.8346 12.0077 19.7662 12.0787L18.0787 13.7662C18.0075 13.8357 17.912 13.8746 17.8125 13.8746C17.713 13.8746 17.6175 13.8357 17.5463 13.7662L16.7963 13.0162C16.726 12.9454 16.6866 12.8497 16.6866 12.75C16.6866 12.6503 16.726 12.5546 16.7963 12.4838ZM16.7963 15.8588C16.8671 15.7885 16.9628 15.7491 17.0625 15.7491C17.1622 15.7491 17.2579 15.7885 17.3287 15.8588L17.8125 16.3463L19.2338 14.9213C19.3048 14.8529 19.3999 14.8152 19.4984 14.8162C19.597 14.8172 19.6913 14.8568 19.761 14.9265C19.8307 14.9962 19.8703 15.0905 19.8713 15.1891C19.8723 15.2876 19.8346 15.3827 19.7662 15.4537L18.0787 17.1412C18.0075 17.2107 17.912 17.2496 17.8125 17.2496C17.713 17.2496 17.6175 17.2107 17.5463 17.1412L16.7963 16.3912C16.726 16.3204 16.6866 16.2247 16.6866 16.125C16.6866 16.0253 16.726 15.9296 16.7963 15.8588ZM12.5625 9.375C12.5937 9.37569 15.573 9.3745 15.5625 9.375C15.661 9.37647 15.755 9.41662 15.8241 9.4868C15.8932 9.55697 15.932 9.65152 15.932 9.75002C15.932 9.84853 15.8932 9.94307 15.8241 10.0132C15.7549 10.0834 15.661 10.1235 15.5625 10.125H12.5625C12.464 10.1235 12.37 10.0834 12.3009 10.0132C12.2318 9.94305 12.193 9.8485 12.193 9.75C12.193 9.6515 12.2318 9.55695 12.3009 9.48678C12.37 9.41661 12.464 9.37646 12.5625 9.375ZM12.5625 12.75C12.5937 12.7507 15.573 12.7495 15.5625 12.75C15.661 12.7515 15.755 12.7916 15.8241 12.8618C15.8932 12.932 15.932 13.0265 15.932 13.125C15.932 13.2235 15.8932 13.3181 15.8241 13.3882C15.7549 13.4584 15.661 13.4985 15.5625 13.5H12.5625C12.464 13.4985 12.37 13.4584 12.3009 13.3882C12.2318 13.3181 12.193 13.2235 12.193 13.125C12.193 13.0265 12.2318 12.9319 12.3009 12.8618C12.37 12.7916 12.464 12.7515 12.5625 12.75ZM12.5625 16.125C12.5937 16.1257 15.573 16.1245 15.5625 16.125C15.661 16.1265 15.755 16.1666 15.8241 16.2368C15.8932 16.307 15.932 16.4015 15.932 16.5C15.932 16.5985 15.8932 16.6931 15.8241 16.7632C15.7549 16.8334 15.661 16.8735 15.5625 16.875H12.5625C12.464 16.8735 12.37 16.8334 12.3009 16.7632C12.2318 16.6931 12.193 16.5985 12.193 16.5C12.193 16.4015 12.2318 16.3069 12.3009 16.2368C12.37 16.1666 12.464 16.1265 12.5625 16.125Z" fill="black"/>
</svg>
