<svg width="24" height="24" viewBox="0 0 24 24" fill="none" xmlns="http://www.w3.org/2000/svg">
<path d="M22.4401 13.0354C22.3838 13.1724 22.2883 13.2897 22.1655 13.3724C22.0427 13.4552 21.8982 13.4997 21.7501 13.5004H19.5001V21.0004C19.5001 21.5972 19.2631 22.1695 18.8411 22.5914C18.4191 23.0134 17.8468 23.2504 17.2501 23.2504H14.2501C14.0512 23.2504 13.8604 23.1714 13.7198 23.0308C13.5791 22.8901 13.5001 22.6994 13.5001 22.5004V18.0004C13.5001 17.8015 13.4211 17.6108 13.2804 17.4701C13.1398 17.3295 12.949 17.2504 12.7501 17.2504H11.2501C11.0512 17.2504 10.8604 17.3295 10.7198 17.4701C10.5791 17.6108 10.5001 17.8015 10.5001 18.0004V22.5004C10.5001 22.6994 10.4211 22.8901 10.2804 23.0308C10.1398 23.1714 9.94902 23.2504 9.75011 23.2504H6.75011C6.15337 23.2504 5.58107 23.0134 5.15911 22.5914C4.73716 22.1695 4.5001 21.5972 4.5001 21.0004V13.5004H2.2501C2.10204 13.4997 1.9575 13.4552 1.83471 13.3724C1.71192 13.2897 1.61637 13.1724 1.5601 13.0354C1.50267 12.8989 1.48698 12.7483 1.51501 12.6028C1.54304 12.4573 1.61354 12.3234 1.7176 12.2179L11.4676 2.46794C11.5373 2.39765 11.6203 2.34185 11.7117 2.30377C11.8031 2.2657 11.9011 2.24609 12.0001 2.24609C12.0991 2.24609 12.1971 2.2657 12.2885 2.30377C12.3799 2.34185 12.4629 2.39765 12.5326 2.46794L22.2826 12.2179C22.3867 12.3234 22.4572 12.4573 22.4852 12.6028C22.5132 12.7483 22.4975 12.8989 22.4401 13.0354Z" fill="black"/>
</svg>
