<svg width="24" height="24" viewBox="0 0 24 24" fill="none" xmlns="http://www.w3.org/2000/svg">
<path d="M18.33 9.31312L16.4512 9.10499L16.7531 8.44312C16.9007 8.11687 17.2847 7.97212 17.6109 8.11968C17.7546 8.18456 17.8695 8.29968 17.9344 8.44312L18.33 9.31312Z" fill="#DB4D29"/>
<path d="M20.5387 14.2875C20.3692 14.4418 20.2937 14.6741 20.34 14.8987L20.8594 17.4075C20.9312 17.7581 20.7054 18.1005 20.3548 18.1723C20.2012 18.2038 20.0413 18.1785 19.905 18.1012L17.6644 16.8319C17.4712 16.7227 17.2357 16.7197 17.04 16.8244L16.56 14.5012C16.5208 14.3075 16.5862 14.1075 16.7325 13.9744L19.8 11.1881L22.0725 11.4412C22.4282 11.48 22.6851 11.7999 22.6461 12.1556C22.6288 12.3127 22.5549 12.458 22.4381 12.5644L20.5387 14.2875Z" fill="#DB4D29"/>
<path d="M7.26749 13.9744C7.41374 14.1076 7.47918 14.3076 7.43999 14.5013L6.95624 16.8413L6.93937 16.8319C6.74118 16.7194 6.49818 16.7194 6.29999 16.8319L4.05937 18.1013C3.74868 18.2783 3.35343 18.1699 3.17643 17.8594C3.09843 17.7226 3.07312 17.5619 3.10499 17.4076L3.62249 14.8988C3.66974 14.6742 3.59418 14.4413 3.42374 14.2876L1.52624 12.5644C1.26112 12.325 1.24031 11.9159 1.47974 11.6508C1.58606 11.533 1.73212 11.4584 1.88999 11.4413L4.19624 11.1844L7.26749 13.9744Z" fill="#DB4D29"/>
<path d="M7.51312 9.10877L5.63249 9.31877L6.02999 8.44314C6.1768 8.11745 6.55987 7.97252 6.88555 8.11933C7.02937 8.1842 7.14449 8.29933 7.20937 8.44314L7.51312 9.10877Z" fill="#DB4D29"/>
<path d="M16.4794 13.6969C16.2364 13.9196 16.1282 14.2534 16.1944 14.5763L17.0719 18.8269C17.1347 19.1282 16.9416 19.4233 16.6402 19.4863C16.5073 19.5141 16.3687 19.4923 16.2506 19.425L12.4612 17.2763C12.1753 17.1137 11.8247 17.1137 11.5387 17.2763L7.74937 19.425C7.48199 19.5773 7.14168 19.4839 6.98943 19.2165C6.92212 19.0984 6.90037 18.9598 6.92812 18.8269L7.80562 14.5763C7.8718 14.2534 7.76362 13.9196 7.52062 13.6969L4.30499 10.7756C4.07699 10.5685 4.05993 10.2156 4.26712 9.9874C4.35843 9.8869 4.48312 9.82315 4.61812 9.80815L8.94749 9.32815C9.27374 9.29027 9.55668 9.08477 9.69374 8.78627L11.4919 4.82815C11.6186 4.54746 11.9488 4.42277 12.2293 4.54934C12.3531 4.60521 12.4522 4.7044 12.5081 4.82815L14.3062 8.78627C14.4433 9.08477 14.7262 9.29027 15.0525 9.32815L19.3819 9.80815C19.6881 9.84246 19.9086 10.1185 19.8742 10.4246C19.8591 10.5595 19.7953 10.6843 19.695 10.7756L16.4794 13.6969Z" fill="#DB4D29"/>
</svg>
