<svg width="24" height="24" viewBox="0 0 24 24" fill="none" xmlns="http://www.w3.org/2000/svg">
<path d="M11.2793 21.9139C11.2791 21.9139 11.2794 21.9139 11.2792 21.9139C8.16731 21.9139 5.5491 21.7679 3.5092 21.5889C2.25178 21.4786 1.46446 20.1769 1.94653 19.0104C3.28368 15.7743 4.93457 12.5776 6.87126 9.47734C8.18953 7.36698 9.46214 5.58821 10.5383 4.18871C11.2888 3.21268 12.7571 3.2124 13.5076 4.18838C14.5784 5.5809 15.8443 7.34959 17.156 9.44696C19.0828 12.5278 20.7275 15.7044 22.0624 18.9205C22.5471 20.0881 21.7567 21.3917 20.4974 21.5024C17.3876 21.7757 14.2972 21.9139 11.2793 21.9139Z" fill="#E80F1C"/>
<path d="M12.4627 3.50842C12.0976 3.60442 11.7557 3.8334 11.503 4.19486C10.5158 5.60673 9.34843 7.40143 8.13924 9.53054C6.36258 12.6584 4.8481 15.8834 3.62171 19.1478C3.22083 20.2142 3.7764 21.3926 4.74268 21.6872C4.31063 21.6561 3.89949 21.6228 3.50926 21.5888C2.25165 21.4784 1.46466 20.1769 1.9464 19.0099C3.2836 15.7743 4.93472 12.5776 6.87141 9.4772C8.18972 7.36698 9.46215 5.58784 10.5384 4.18871C11.0135 3.57076 11.7767 3.34389 12.4627 3.50842Z" fill="#B6010C"/>
<path d="M20.7111 12.7531V12.6174C20.7111 12.1389 21.0816 11.7421 21.559 11.7094L23.0275 11.6086C23.5535 11.5725 24 11.9895 24 12.5167V12.8538C24 13.381 23.5534 13.798 23.0275 13.7619L21.559 13.6611C21.0817 13.6284 20.7111 13.2316 20.7111 12.7531Z" fill="#E80F1C"/>
<path d="M19.578 8.38839L19.5102 8.27087C19.2709 7.85645 19.3934 7.32756 19.7904 7.06051L21.0118 6.23907C21.4492 5.94484 22.0444 6.08265 22.308 6.53921L22.4766 6.8312C22.7402 7.28776 22.5619 7.8721 22.0884 8.10385L20.7663 8.75082C20.3365 8.9612 19.8172 8.80281 19.578 8.38839Z" fill="#E80F1C"/>
<path d="M16.4143 5.17496L16.2968 5.10714C15.8824 4.86789 15.724 4.3486 15.9343 3.91881L16.5813 2.59675C16.8131 2.12321 17.3974 1.945 17.854 2.20857L18.146 2.37714C18.6025 2.64076 18.7403 3.23589 18.4461 3.67337L17.6247 4.8947C17.3576 5.29173 16.8287 5.41421 16.4143 5.17496Z" fill="#E80F1C"/>
<path d="M3.28884 12.7531V12.6174C3.28884 12.1389 2.91834 11.7421 2.44092 11.7094L0.972469 11.6086C0.446531 11.5725 0 11.9895 0 12.5167V12.8538C0 13.381 0.446531 13.798 0.972469 13.7619L2.44092 13.6611C2.9183 13.6284 3.28884 13.2316 3.28884 12.7531Z" fill="#E80F1C"/>
<path d="M4.42201 8.38839L4.48984 8.27087C4.72908 7.85645 4.6066 7.32756 4.20957 7.06051L2.98824 6.23907C2.55076 5.94484 1.95563 6.08265 1.69201 6.53921L1.52344 6.8312C1.25982 7.28776 1.43809 7.8721 1.91162 8.10385L3.23368 8.75082C3.66348 8.9612 4.18276 8.80281 4.42201 8.38839Z" fill="#E80F1C"/>
<path d="M7.58569 5.17496L7.7032 5.10714C8.11763 4.86789 8.27597 4.3486 8.06564 3.91881L7.41867 2.59675C7.18692 2.12321 6.60258 1.945 6.14602 2.20857L5.85403 2.37714C5.39747 2.64076 5.25966 3.23589 5.55389 3.67337L6.37533 4.8947C6.64238 5.29173 7.17127 5.41421 7.58569 5.17496Z" fill="#E80F1C"/>
<path d="M11.4797 8.44315C11.8299 8.40795 12.18 8.40795 12.5302 8.44315C12.9732 8.48773 13.3124 8.85771 13.3287 9.30265C13.3821 10.7581 13.3821 12.2135 13.3287 13.6689C13.3124 14.1139 12.9732 14.4839 12.5302 14.5284C12.18 14.5636 11.8299 14.5636 11.4797 14.5284C11.0367 14.4838 10.6976 14.1139 10.6812 13.6689C10.6278 12.2135 10.6278 10.7581 10.6812 9.30265C10.6976 8.85767 11.0367 8.48768 11.4797 8.44315Z" fill="white"/>
<path d="M11.5052 16.1257C11.8384 16.1098 12.1716 16.1098 12.5049 16.1257C12.9641 16.1477 13.3329 16.5174 13.3536 16.9766C13.3738 17.4244 13.3738 17.8721 13.3536 18.3199C13.3329 18.7792 12.9641 19.1489 12.5049 19.1709C12.1716 19.1868 11.8384 19.1868 11.5052 19.1709C11.0459 19.1489 10.6771 18.7792 10.6564 18.3199C10.6362 17.8722 10.6362 17.4244 10.6564 16.9766C10.6771 16.5174 11.0459 16.1477 11.5052 16.1257Z" fill="white"/>
</svg>
