<svg width="18" height="14" viewBox="0 0 18 14" fill="none" xmlns="http://www.w3.org/2000/svg">
<path d="M17.1231 11.6708C16.68 8.16313 14.0092 5.32005 10.5385 4.65544C10.4892 4.64313 10.4277 4.63082 10.3785 4.61852C10.2677 4.5939 10.1938 4.49544 10.1938 4.38467V3.33852C10.3046 3.3139 10.4031 3.28928 10.5015 3.26467C11.0308 3.11698 11.4 2.57544 11.3385 2.0339C11.2892 1.51698 10.8215 1.00005 10.3538 0.987746C9.4923 0.975439 8.63076 0.975439 7.76923 0.987746C7.20307 1.00005 6.74769 1.44313 6.68615 1.99698C6.62461 2.57544 6.96923 3.09236 7.51076 3.25236C7.60923 3.27698 7.70769 3.30159 7.83076 3.32621C7.83076 3.70775 7.84307 4.06467 7.81846 4.4339C7.81846 4.49544 7.70769 4.58159 7.63384 4.5939C4.92615 5.11082 2.9323 6.58775 1.66461 9.02467C1.06153 10.1816 0.790763 11.437 0.815379 12.7539C0.827686 13.3201 1.31999 13.837 1.83692 13.837H16.0769C16.6431 13.837 17.1477 13.357 17.16 12.7908C17.1846 12.4339 17.1723 12.0524 17.1231 11.6708ZM14.1323 12.1631C14.12 12.1631 14.0954 12.1631 14.0831 12.1631C13.8738 12.1631 13.6892 12.0031 13.6523 11.7816C13.3077 8.97544 10.9938 7.85544 10.8954 7.80621C10.6861 7.70775 10.5877 7.44928 10.6861 7.24005C10.7846 7.03082 11.0431 6.93236 11.2523 7.03082C11.3631 7.08005 14.0954 8.38467 14.5015 11.6708C14.5385 11.917 14.3661 12.1262 14.1323 12.1631Z" fill="#DB4D29"/>
</svg>
