<svg width="114" height="114" viewBox="0 0 114 114" fill="none" xmlns="http://www.w3.org/2000/svg">
<g clip-path="url(#clip0_264_4453)">
<path d="M89.3339 106.258H32.2029C14.6939 106.258 0.5 92.0644 0.5 74.5554V17.4244C0.5 11.7199 5.12439 7.0957 10.8287 7.0957H89.3339C95.0384 7.0957 99.6626 11.7201 99.6626 17.4244V95.9296C99.6628 101.634 95.0384 106.258 89.3339 106.258Z" fill="#F0F0F0"/>
<path d="M99.6633 17.4247C99.6633 16.7735 99.6001 16.1369 99.4849 15.5192C99.3161 15.5132 99.1475 15.5068 98.9775 15.5068C95.2073 15.5068 91.6625 16.975 88.9967 19.641L46.188 62.4495C42.8688 65.7687 40.6636 69.9627 39.8106 74.5782L38.0425 84.1446C37.4084 87.575 38.3228 91.0782 40.551 93.7565C42.7859 96.4426 46.0615 97.9829 49.5378 97.9831H49.5385C50.2536 97.9831 50.9753 97.9167 51.6835 97.7858L61.2499 96.0176C65.8654 95.1643 70.0595 92.9591 73.3786 89.6401L99.6635 63.3553V17.4247H99.6633Z" fill="#D9D9D9"/>
<path d="M31.0819 37.6551C34.9538 37.6551 38.0926 35.1555 38.0926 32.0722C38.0926 28.9888 34.9538 26.4893 31.0819 26.4893C27.2101 26.4893 24.0713 28.9888 24.0713 32.0722C24.0713 35.1555 27.2101 37.6551 31.0819 37.6551Z" fill="#FAFAFA"/>
<path d="M69.081 37.6551C72.9528 37.6551 76.0916 35.1555 76.0916 32.0722C76.0916 28.9888 72.9528 26.4893 69.081 26.4893C65.2091 26.4893 62.0703 28.9888 62.0703 32.0722C62.0703 35.1555 65.2091 37.6551 69.081 37.6551Z" fill="#FAFAFA"/>
<path d="M35.168 28.285C34.2538 28.285 33.5127 27.5439 33.5127 26.6297V23.9014C33.5127 22.9872 34.2538 22.2461 35.168 22.2461C36.0821 22.2461 36.8232 22.9872 36.8232 23.9014V26.6297C36.8232 27.5439 36.0821 28.285 35.168 28.285Z" fill="#4E5660"/>
<path d="M50.0828 24.9578C52.0684 24.9578 53.9563 25.8176 55.2627 27.3169C55.8632 28.0061 55.7912 29.0518 55.102 29.6524C54.4127 30.2527 53.367 30.1809 52.7665 29.4917C52.0892 28.7141 51.1108 28.2683 50.0825 28.2683C49.0543 28.2683 48.0759 28.7141 47.3983 29.4917C46.7976 30.1812 45.7521 30.2527 45.0629 29.6521C44.3736 29.0516 44.3019 28.0059 44.9024 27.3169C46.2092 25.8176 48.0973 24.9578 50.0828 24.9578Z" fill="#4E5660"/>
<path d="M68.6839 28.2087C67.7698 28.2087 67.0287 27.4675 67.0287 26.5534C67.0287 25.7227 66.3529 25.0469 65.5221 25.0469C64.6914 25.0469 64.0156 25.7227 64.0156 26.5534C64.0156 27.4675 63.2745 28.2087 62.3604 28.2087C61.4462 28.2087 60.7051 27.4675 60.7051 26.5534C60.7051 23.8972 62.866 21.7363 65.5221 21.7363C68.1783 21.7363 70.3392 23.8972 70.3392 26.5534C70.3392 27.4675 69.5981 28.2087 68.6839 28.2087Z" fill="#4E5660"/>
<path d="M79.1428 50.6172H21.0195C20.1054 50.6172 19.3643 49.8761 19.3643 48.9619C19.3643 48.0478 20.1054 47.3066 21.0195 47.3066H79.1428C80.0569 47.3066 80.7981 48.0478 80.7981 48.9619C80.7981 49.8763 80.0569 50.6172 79.1428 50.6172Z" fill="#4E5660"/>
<path d="M71.091 64.2764H29.0713C28.1571 64.2764 27.416 63.5352 27.416 62.6211C27.416 61.7069 28.1571 60.9658 29.0713 60.9658H71.0907C72.0049 60.9658 72.746 61.7069 72.746 62.6211C72.7462 63.5352 72.0051 64.2764 71.091 64.2764Z" fill="#4E5660"/>
<path d="M86.8711 31.3945L104.413 48.9362L96.7599 56.5891L79.2183 39.0474L86.8711 31.3945Z" fill="#CECECE"/>
<path d="M111.364 31.6925L104.135 24.4636C101.286 21.615 96.6677 21.615 93.8193 24.4636L86.876 31.4069L104.42 48.9513L111.364 42.008C114.212 39.1596 114.212 34.5411 111.364 31.6925Z" fill="#FAFAFA"/>
<path d="M60.0093 89.3105L50.4429 91.0788C47.0736 91.7016 44.1259 88.7539 44.7487 85.3847L46.517 75.8183C47.1153 72.5808 48.6821 69.6011 51.0103 67.2729L79.2217 39.0615L96.766 56.6059L68.5547 84.8173C66.2265 87.1452 63.2467 88.712 60.0093 89.3105Z" fill="white"/>
<path d="M55.0915 74.3517L58.0284 75.412C59.1399 75.8132 60.0148 76.6883 60.416 77.7996L61.4763 80.7365C61.8775 81.8477 62.7526 82.7228 63.8638 83.124L68.5551 84.8175L96.7665 56.6059L79.2221 39.0615L51.0107 67.2729L52.7042 71.9642C53.1052 73.0754 53.9803 73.9505 55.0915 74.3517Z" fill="#F0F0F0"/>
<path d="M65.286 52.9971L51.0107 67.2724L52.7042 71.9636C53.1054 73.0749 53.9805 73.95 55.0918 74.3512L58.0287 75.4115C59.1401 75.8127 60.015 76.6878 60.4162 77.799L61.4765 80.7359C61.8777 81.8472 62.7528 82.7223 63.8641 83.1235L68.5553 84.8169L71.9427 81.4296C65.2938 74.5346 64.2609 62.0428 65.286 52.9971Z" fill="#CECECE"/>
<path d="M46.1484 77.8115L44.7487 85.3845C44.1259 88.7538 47.0736 91.7015 50.4429 91.0787L58.0159 89.679L46.1484 77.8115Z" fill="#4E5660"/>
<path d="M69.6074 67.8754C69.1838 67.8754 68.7601 67.7137 68.437 67.3906C67.7905 66.7441 67.7905 65.696 68.437 65.0496L75.23 58.2563C75.8764 57.6099 76.9246 57.6099 77.571 58.2563C78.2174 58.9028 78.2174 59.9509 77.571 60.5971L70.778 67.3903C70.4546 67.7139 70.0311 67.8754 69.6074 67.8754Z" fill="#CECECE"/>
<path d="M0.5 74.5552C0.5 92.0643 14.6939 106.258 32.2029 106.258H41.6468C35.2389 106.258 30.0444 101.064 30.0444 94.6558V84.7261C30.0444 80.301 26.4571 76.7137 22.032 76.7137H12.1024C5.69447 76.7137 0.5 71.519 0.5 65.1113L0.5 74.5552Z" fill="#D9D9D9"/>
</g>
<defs>
<clipPath id="clip0_264_4453">
<rect width="113" height="113" fill="white" transform="translate(0.5 0.176758)"/>
</clipPath>
</defs>
</svg>
