<svg width="24" height="25" viewBox="0 0 24 25" fill="none" xmlns="http://www.w3.org/2000/svg">
<path d="M7.99983 22.0039H15.9998C20.0198 22.0039 20.7398 20.3939 20.9498 18.4339L21.6998 10.4339C21.9698 7.99391 21.2698 6.00391 16.9998 6.00391H6.99983C2.72983 6.00391 2.02983 7.99391 2.29983 10.4339L3.04983 18.4339C3.25983 20.3939 3.97983 22.0039 7.99983 22.0039Z" stroke="#282828" stroke-width="1.5" stroke-miterlimit="10" stroke-linecap="round" stroke-linejoin="round"/>
<path d="M8 6.00391V5.20391C8 3.43391 8 2.00391 11.2 2.00391H12.8C16 2.00391 16 3.43391 16 5.20391V6.00391" stroke="#282828" stroke-width="1.5" stroke-miterlimit="10" stroke-linecap="round" stroke-linejoin="round"/>
<path d="M14 13.0039V14.0039C14 14.0139 14 14.0139 14 14.0239C14 15.1139 13.99 16.0039 12 16.0039C10.02 16.0039 10 15.1239 10 14.0339V13.0039C10 12.0039 10 12.0039 11 12.0039H13C14 12.0039 14 12.0039 14 13.0039Z" stroke="#282828" stroke-width="1.5" stroke-miterlimit="10" stroke-linecap="round" stroke-linejoin="round"/>
<path d="M21.65 11.0039C19.34 12.6839 16.7 13.6839 14 14.0239" stroke="#282828" stroke-width="1.5" stroke-miterlimit="10" stroke-linecap="round" stroke-linejoin="round"/>
<path d="M2.62012 11.2734C4.87012 12.8134 7.41012 13.7434 10.0001 14.0334" stroke="#282828" stroke-width="1.5" stroke-miterlimit="10" stroke-linecap="round" stroke-linejoin="round"/>
</svg>
