<svg width="36" height="30" viewBox="0 0 36 30" fill="none" xmlns="http://www.w3.org/2000/svg">
<rect width="26.5403" height="27" rx="7.5" fill="#F2F4FF"/>
<g filter="url(#filter0_d_1336_20415)">
<path d="M11.6446 4.99723C11.1397 4.97995 10.8406 4.68627 10.6603 4.27034C10.4785 3.86991 10.3846 3.434 10.3852 2.99293C10.3858 2.55186 10.4808 2.1162 10.6636 1.71626C10.8732 1.23853 11.2298 1 11.7804 1C16.3361 1.01285 20.8919 1.01285 25.4476 1C25.9988 1 26.362 1.23853 26.5579 1.72091C26.9622 2.71091 26.9589 3.68564 26.3561 4.61318C26.3146 4.69685 26.3051 4.7932 26.3293 4.88361C26.8518 7.04567 27.3861 9.20574 27.9092 11.3678C27.9654 11.6007 27.9941 11.8396 27.9948 12.0794C28 16.1506 28.0013 20.2218 27.9987 24.293C27.9987 24.7814 27.8929 24.891 27.4109 24.891H10.5878C10.1071 24.891 10.0033 24.784 10.0033 24.293C10.0059 20.2685 10.0118 16.2454 10 12.2243C10 11.52 10.2194 10.8715 10.3782 10.207C10.7779 8.534 11.1965 6.86561 11.6073 5.19523C11.621 5.13941 11.6289 5.08161 11.6446 4.99723ZM23.306 24.0817V23.7681C23.306 19.8807 23.306 15.9931 23.306 12.1053C23.2991 11.9401 23.3114 11.7746 23.3426 11.6123C23.7077 10.0841 24.0806 8.55592 24.4529 7.03305C24.6175 6.35931 24.7834 5.68624 24.9519 4.99789H12.4675C12.4466 5.06832 12.4257 5.13078 12.41 5.1939C11.9829 6.93604 11.5492 8.67685 11.1319 10.4217C10.9862 11.0329 10.7837 11.6229 10.7837 12.2674C10.7942 16.1052 10.789 19.943 10.789 23.7807V24.0817H23.306ZM24.0898 23.5462C24.4366 23.1874 24.7207 22.8724 25.0277 22.5828C25.1089 22.5112 25.1729 22.4217 25.2147 22.321C25.2565 22.2203 25.2749 22.1112 25.2687 22.002C25.2608 18.9177 25.2591 15.8332 25.2634 12.7485C25.2584 12.6658 25.2606 12.5829 25.27 12.5007C25.3078 12.286 25.4385 12.1571 25.6546 12.1571C25.8708 12.1571 26.0008 12.29 26.0393 12.5007C26.0487 12.5831 26.0509 12.6663 26.0459 12.7492C26.0459 15.8667 26.0459 18.9842 26.0459 22.1017C26.0459 22.1961 26.0459 22.321 26.1001 22.3794C26.4488 22.7562 26.8126 23.1183 27.2176 23.5322V23.2485C27.2176 19.5175 27.2165 15.7865 27.2143 12.0555C27.2125 11.8735 27.1892 11.6924 27.1451 11.516C26.7793 10.0051 26.4092 8.49524 26.0348 6.98654C25.9172 6.51014 25.797 6.0344 25.6782 5.55801C25.6215 5.62174 25.5827 5.69975 25.5658 5.78391C25.1837 7.34201 24.7964 8.89944 24.4242 10.4602C24.2935 11.005 24.1074 11.5578 24.1035 12.108C24.0747 15.8142 24.0885 19.5204 24.0885 23.2273L24.0898 23.5462ZM24.6952 1.8033H24.43C20.2187 1.8033 16.0074 1.80131 11.7961 1.79732C11.5577 1.79732 11.431 1.88835 11.3526 2.09233C11.1195 2.67439 11.1195 3.32616 11.3526 3.90822C11.4329 4.11486 11.5642 4.19791 11.7993 4.19725C16.0028 4.18928 20.2061 4.18728 24.4091 4.19127H24.6952C24.4095 3.42182 24.4095 2.57275 24.6952 1.8033ZM25.6605 1.8033C25.121 2.26242 25.138 3.85706 25.6749 4.17798C26.1673 3.8039 26.1634 2.18136 25.6573 1.80596L25.6605 1.8033ZM24.6952 24.0923H26.5808L25.6403 23.1322L24.6952 24.0923Z" fill="url(#paint0_linear_1336_20415)"/>
<path d="M24.0886 23.5458V23.2262C24.0886 19.5193 24.0749 15.8131 24.1036 12.1069C24.1075 11.5568 24.2943 11.004 24.4243 10.4591C24.7966 8.89838 25.1839 7.34095 25.5659 5.78286C25.5835 5.69872 25.623 5.62093 25.6802 5.55762C25.7991 6.03402 25.9193 6.50975 26.0368 6.98615C26.4078 8.49574 26.7779 10.0055 27.1471 11.5156C27.1913 11.692 27.2145 11.8731 27.2164 12.0551C27.2203 15.7861 27.2214 19.5171 27.2196 23.2481V23.5318C26.8147 23.1179 26.4509 22.7558 26.1021 22.379C26.0479 22.3206 26.0486 22.1957 26.0479 22.1013C26.0453 18.9838 26.0453 15.8663 26.0479 12.7488C26.053 12.6659 26.0508 12.5827 26.0414 12.5003C26.0029 12.2863 25.8729 12.1568 25.6567 12.1568C25.4405 12.1568 25.3099 12.2857 25.272 12.5003C25.2626 12.5825 25.2605 12.6655 25.2655 12.7481C25.2655 15.8324 25.2672 18.9169 25.2707 22.0017C25.277 22.1108 25.2585 22.2199 25.2167 22.3206C25.1749 22.4213 25.111 22.5108 25.0297 22.5824C24.7195 22.8721 24.4341 23.187 24.0886 23.5458Z" fill="white"/>
<path d="M24.6953 1.80334C24.41 2.5722 24.41 3.42046 24.6953 4.18932H24.4092C20.2061 4.18932 16.0029 4.19131 11.7994 4.1953C11.5643 4.1953 11.433 4.11291 11.3526 3.90627C11.1195 3.32421 11.1195 2.67244 11.3526 2.09038C11.4278 1.88839 11.5545 1.79736 11.7929 1.79736C16.0042 1.80534 20.2155 1.80733 24.4268 1.80334H24.6953Z" fill="white"/>
<path d="M25.6573 1.80615C26.1635 2.18156 26.1674 3.8041 25.6717 4.17818C25.1381 3.85725 25.1211 2.26262 25.6573 1.80615Z" fill="white"/>
<path d="M24.6954 24.0924L25.6404 23.1323L26.5809 24.0924H24.6954Z" fill="white"/>
<path fill-rule="evenodd" clip-rule="evenodd" d="M10.7885 24.0824H23.3062L23.3069 23.7687V12.106C23.2999 11.9407 23.3122 11.7753 23.3434 11.613C23.6029 10.5312 23.8657 9.45138 24.1287 8.37052C24.2371 7.92516 24.3455 7.47963 24.4537 7.03369C24.5464 6.65428 24.6395 6.27508 24.7333 5.89324C24.806 5.59704 24.8791 5.29924 24.9527 4.99854H12.4677C12.461 5.02107 12.4543 5.04244 12.4478 5.06327C12.4339 5.10755 12.4209 5.14935 12.4102 5.19454C12.3412 5.47458 12.2722 5.75457 12.2032 6.03456C11.8427 7.49643 11.4823 8.95796 11.132 10.4223C11.0998 10.5571 11.0647 10.6911 11.0296 10.8251C10.9064 11.296 10.7833 11.7663 10.7833 12.2681C10.7911 15.1464 10.7901 18.0247 10.7892 20.9031C10.7888 21.8625 10.7885 22.8219 10.7885 23.7814V24.0824Z" fill="url(#paint1_linear_1336_20415)"/>
<path d="M24.5327 17.5815V17.8561H16.4376C16.4041 17.5101 16.4419 17.1609 16.5485 16.8307C16.6551 16.5004 16.8282 16.1964 17.0567 15.938C17.2852 15.6797 17.5641 15.4726 17.8757 15.3301C18.1872 15.1875 18.5245 15.1127 18.8661 15.1102H22.1042C22.7482 15.1102 23.3659 15.3706 23.8214 15.834C24.2768 16.2975 24.5327 16.9261 24.5327 17.5815ZM21.4026 19.9588C21.314 20.0189 21.2098 20.051 21.1033 20.051C20.9968 20.051 20.8927 20.0189 20.8041 19.9588L19.3211 18.9544H16.4376C16.4042 19.3003 16.4421 19.6495 16.5487 19.9797C16.6553 20.3099 16.8284 20.6139 17.0569 20.8723C17.2854 21.1306 17.5643 21.3377 17.8758 21.4802C18.1873 21.6228 18.5246 21.6977 18.8661 21.7003H22.1042C22.4457 21.6978 22.7831 21.6229 23.0946 21.4804C23.4062 21.3379 23.6851 21.1308 23.9136 20.8724C24.1421 20.6141 24.3152 20.3101 24.4218 19.9798C24.5284 19.6496 24.5661 19.3003 24.5327 18.9544H22.8867L21.4026 19.9588ZM15.3583 17.5815V19.229C15.3584 20.1541 15.7131 21.0426 16.3469 21.7058H15.1057C14.4483 21.705 13.8137 21.4602 13.321 21.0174C12.8282 20.5746 12.511 19.9641 12.4289 19.3004L11.6124 12.6785C11.5704 12.441 11.5798 12.1972 11.6399 11.9638C11.7001 11.7305 11.8095 11.5133 11.9606 11.3274C12.1118 11.1415 12.3009 10.9914 12.5149 10.8876C12.7289 10.7837 12.9625 10.7287 13.1996 10.7262H16.7706L16.8639 9.96611C16.913 9.56792 17.1032 9.20162 17.3988 8.936C17.6944 8.67037 18.0751 8.52367 18.4695 8.52344H20.2153C20.3584 8.52344 20.4957 8.5813 20.5969 8.68429C20.6981 8.78728 20.755 8.92696 20.755 9.07261C20.755 9.21826 20.6981 9.35794 20.5969 9.46093C20.4957 9.56392 20.3584 9.62178 20.2153 9.62178H18.4695C17.8812 9.62178 17.9152 10.3055 17.8575 10.7267H19.136C19.3779 10.7285 19.6164 10.7851 19.8341 10.8924C20.0519 10.9997 20.2434 11.155 20.3947 11.3471C20.5461 11.5392 20.6534 11.7632 20.709 12.0028C20.7646 12.2424 20.7671 12.4916 20.7161 12.7323L20.558 14.0119H18.8661C17.936 14.0127 17.0443 14.3891 16.3866 15.0583C15.729 15.7276 15.3591 16.635 15.3583 17.5815ZM17.722 11.8251L17.5887 12.9135H19.6071L19.653 12.5428C19.678 12.4601 19.6838 12.3726 19.6697 12.2873C19.6556 12.2019 19.6221 12.1211 19.5719 12.0513C19.5217 11.9814 19.4561 11.9245 19.3804 11.885C19.3047 11.8456 19.221 11.8247 19.136 11.824L17.722 11.8251ZM16.5013 12.9135L16.6357 11.8229H13.1996C13.119 11.8234 13.0395 11.8422 12.9669 11.8779C12.8944 11.9136 12.8305 11.9653 12.78 12.0293C12.7296 12.0932 12.6937 12.1678 12.6751 12.2476C12.6564 12.3274 12.6555 12.4104 12.6723 12.4907L12.7263 12.9135H16.5013Z" fill="white"/>
</g>
<defs>
<filter id="filter0_d_1336_20415" x="8.5" y="0.25" width="21" height="26.8911" filterUnits="userSpaceOnUse" color-interpolation-filters="sRGB">
<feFlood flood-opacity="0" result="BackgroundImageFix"/>
<feColorMatrix in="SourceAlpha" type="matrix" values="0 0 0 0 0 0 0 0 0 0 0 0 0 0 0 0 0 0 127 0" result="hardAlpha"/>
<feOffset dy="0.75"/>
<feGaussianBlur stdDeviation="0.75"/>
<feComposite in2="hardAlpha" operator="out"/>
<feColorMatrix type="matrix" values="0 0 0 0 0.192157 0 0 0 0 0.239216 0 0 0 0 0.682353 0 0 0 0.25 0"/>
<feBlend mode="normal" in2="BackgroundImageFix" result="effect1_dropShadow_1336_20415"/>
<feBlend mode="normal" in="SourceGraphic" in2="effect1_dropShadow_1336_20415" result="shape"/>
</filter>
<linearGradient id="paint0_linear_1336_20415" x1="15.6151" y1="5.39411" x2="27.5704" y2="24.5451" gradientUnits="userSpaceOnUse">
<stop stop-color="#695FA2"/>
<stop offset="1" stop-color="#3A2B89"/>
</linearGradient>
<linearGradient id="paint1_linear_1336_20415" x1="10.7228" y1="1.93256" x2="22.2568" y2="23.2997" gradientUnits="userSpaceOnUse">
<stop stop-color="#786EAB"/>
<stop offset="1" stop-color="#261777"/>
</linearGradient>
</defs>
</svg>
