<svg width="24" height="25" viewBox="0 0 24 25" fill="none" xmlns="http://www.w3.org/2000/svg">
<g clip-path="url(#clip0_5852_65393)">
<path fill-rule="evenodd" clip-rule="evenodd" d="M10.2532 24.2353C10.1482 24.2353 10.0509 24.1763 10.0026 24.0814L8.71719 21.552L6.44077 23.1212C6.34372 23.1879 6.21499 23.1873 6.1191 23.1194C6.02288 23.0512 5.97909 22.9305 6.00959 22.8166L7.99441 15.4101C8.02231 15.3064 8.10691 15.2272 8.21254 15.2068C8.31812 15.1864 8.4262 15.2279 8.49081 15.3138L8.77632 15.693L10.5168 15.6528C10.5604 15.653 10.6103 15.6626 10.6523 15.6841L12.2592 16.5141C12.2907 16.524 12.3204 16.5394 12.3467 16.5604C12.4342 16.6301 12.4768 16.7427 12.4479 16.8507L10.5252 24.0265C10.495 24.139 10.3986 24.2212 10.2829 24.2335C10.2728 24.2348 10.263 24.2353 10.2532 24.2353Z" fill="#DA4A54"/>
<path fill-rule="evenodd" clip-rule="evenodd" d="M7.66992 15.9676L7.82871 15.375C7.85661 15.2713 7.94121 15.1922 8.04684 15.1717C8.15242 15.1514 8.26049 15.1928 8.3251 15.2787L8.61062 15.658L10.3511 15.6178C10.3947 15.618 10.4446 15.6275 10.4866 15.649L12.0935 16.479C12.125 16.489 12.1547 16.5044 12.181 16.5253C12.2685 16.5951 12.3111 16.7077 12.2822 16.8157L12.1279 17.3918C12.0862 17.4001 12.0438 17.4043 12.001 17.4043C11.8962 17.4043 11.793 17.3792 11.6999 17.3311L10.205 16.5589L8.48777 16.5986C8.277 16.6035 8.07509 16.5059 7.94825 16.3374L7.66992 15.9676Z" fill="#D5646C"/>
<path fill-rule="evenodd" clip-rule="evenodd" d="M14.0813 24.2348C14.0713 24.2348 14.0616 24.2342 14.052 24.2332C13.936 24.221 13.8397 24.139 13.8096 24.0262L11.8964 16.8856C11.8858 16.8469 11.884 16.8064 11.8905 16.7672C11.8935 16.6848 11.9325 16.6065 12.002 16.5555C12.013 16.5477 12.0244 16.5405 12.0366 16.534C12.0407 16.5319 12.054 16.5252 12.0583 16.5231L13.7191 15.6751C13.7611 15.6536 13.8103 15.644 13.8548 15.6444L15.5598 15.6923L15.8457 15.3161C15.9105 15.2306 16.0187 15.1888 16.1238 15.2103C16.2291 15.231 16.3137 15.3099 16.3412 15.4134L18.3134 22.7728C18.3296 22.8084 18.3385 22.8478 18.3385 22.8894C18.3385 23.0447 18.2125 23.1706 18.0573 23.1706C18.0563 23.1709 18.0587 23.1709 18.0573 23.1706C18.0017 23.1706 17.9419 23.154 17.8938 23.1209L15.6176 21.5517L14.3322 24.0812C14.2834 24.1758 14.1862 24.2348 14.0813 24.2348Z" fill="#DA4A54"/>
<path fill-rule="evenodd" clip-rule="evenodd" d="M11.8753 17.3919L11.7303 16.8509C11.7198 16.8122 11.718 16.7718 11.7245 16.7326C11.7275 16.6501 11.7665 16.5718 11.836 16.5209C11.847 16.513 11.8583 16.5058 11.8706 16.4994C11.8747 16.4972 11.888 16.4905 11.8923 16.4884L13.5531 15.6405C13.5951 15.619 13.6443 15.6093 13.6888 15.6098L15.3937 15.6576L15.6797 15.2815C15.7445 15.1959 15.8527 15.1541 15.9578 15.1756C16.0631 15.1963 16.1476 15.2752 16.1752 15.3787L16.3335 15.9697L16.0525 16.3395C15.9251 16.5071 15.7219 16.6042 15.5116 16.5983L13.8295 16.5512L12.2995 17.3322C12.2073 17.3793 12.1053 17.4042 12.0017 17.4042C11.9591 17.4042 11.9168 17.4001 11.8753 17.3919Z" fill="#D5646C"/>
<path fill-rule="evenodd" clip-rule="evenodd" d="M12.0011 17.0293C11.9568 17.0293 11.9126 17.0188 11.8721 16.9979L10.2921 16.1818L8.47917 16.2237C8.38909 16.2229 8.30261 16.1841 8.24791 16.1118L7.17844 14.6911L5.52663 13.9423C5.4442 13.9051 5.38463 13.8301 5.36707 13.7412L5.01999 11.9972L3.85662 10.6059C3.79849 10.5364 3.77734 10.443 3.80004 10.3552L4.24417 8.63344L3.79965 6.87522C3.77734 6.78731 3.79882 6.69413 3.85745 6.62481L5.00477 5.26617L5.36708 3.48931C5.38524 3.40045 5.44503 3.32582 5.5278 3.28878L7.15114 2.56223L8.24851 1.11861C8.30333 1.04658 8.38399 1.00379 8.48033 1.00766L10.2579 1.05749L11.8732 0.232949C11.9537 0.191924 12.0492 0.192145 12.13 0.233502L13.71 1.04968L15.5229 1.00766C15.6135 1.00412 15.6996 1.0473 15.7541 1.11978L16.8236 2.54053L18.4753 3.28906C18.5579 3.32637 18.6173 3.40133 18.6348 3.49019L18.9819 5.23439L20.1451 6.62547C20.2033 6.69501 20.2244 6.78841 20.2017 6.87622L19.7576 8.59816L20.2021 10.3562C20.2242 10.4441 20.2027 10.5373 20.1443 10.6066L18.9971 11.9653L18.6346 13.7421C18.6164 13.8309 18.5566 13.9053 18.4738 13.9425L16.8507 14.669L15.7533 16.1127C15.6985 16.1849 15.6113 16.221 15.5215 16.2236L13.7437 16.1738L12.1284 16.9983C12.0888 17.019 12.0451 17.0293 12.0011 17.0293Z" fill="#FCCF2E"/>
<path fill-rule="evenodd" clip-rule="evenodd" d="M8.07074 20.3645C8.04655 20.3645 8.02207 20.3614 7.99766 20.3548C7.84745 20.3147 7.75859 20.1604 7.79868 20.0103L8.59642 17.0326C8.63667 16.8826 8.79092 16.7924 8.9409 16.8338C9.09111 16.8738 9.17996 17.0282 9.13988 17.1783L8.34214 20.156C8.30864 20.2816 8.19498 20.3645 8.07074 20.3645Z" fill="#F38F98"/>
<path fill-rule="evenodd" clip-rule="evenodd" d="M15.9311 20.3643C15.8068 20.3643 15.6932 20.2813 15.6596 20.1559L14.8612 17.1767C14.821 17.0265 14.91 16.8722 15.06 16.8322C15.2108 16.7912 15.3645 16.8812 15.4045 17.031L16.2029 20.0102C16.2431 20.1604 16.154 20.3147 16.0041 20.3547C15.9797 20.3613 15.9551 20.3643 15.9311 20.3643Z" fill="#EE888F"/>
<path fill-rule="evenodd" clip-rule="evenodd" d="M12.0016 14.9826C8.49101 14.9826 5.63477 12.1264 5.63477 8.61571C5.63477 5.1051 8.49095 2.24908 12.0016 2.24908C15.5123 2.24908 18.3685 5.10527 18.3685 8.61571C18.3685 12.1264 15.5122 14.9826 12.0016 14.9826Z" fill="#FF8C21"/>
<path fill-rule="evenodd" clip-rule="evenodd" d="M12.0008 13.4036C9.36076 13.4036 7.21289 11.2557 7.21289 8.61588C7.21289 5.97606 9.36075 3.82819 12.0008 3.82819C14.6407 3.82819 16.7886 5.97604 16.7886 8.61588C16.7886 11.2557 14.6408 13.4036 12.0008 13.4036Z" fill="#FBEB7E"/>
<path fill-rule="evenodd" clip-rule="evenodd" d="M14.3335 10.3939H9.63915C9.5034 10.3939 9.38702 10.297 9.36244 10.1634L9.08473 8.65167C9.07028 8.57333 9.08983 8.4925 9.13849 8.42916C9.18727 8.36593 9.26035 8.32646 9.33985 8.32037C9.42113 8.31411 9.49399 8.27159 9.53983 8.20316C9.58512 8.13578 9.65753 8.09127 9.7382 8.08108C9.81925 8.06996 9.89992 8.09614 9.96071 8.1504L10.6958 8.8068L11.3617 7.86179C11.4115 7.79109 11.491 7.7474 11.5773 7.74303C11.6635 7.73877 11.747 7.77425 11.8038 7.8397C11.905 7.95651 12.1048 7.95652 12.2056 7.83992C12.2621 7.77453 12.3461 7.73838 12.4321 7.74308C12.5186 7.7474 12.5983 7.79136 12.6479 7.86184L13.3139 8.80691L14.046 8.15306C14.1062 8.0993 14.1868 8.07394 14.2667 8.08374C14.347 8.09332 14.419 8.13689 14.4649 8.20344C14.5107 8.26965 14.5825 8.31146 14.662 8.31788C14.7421 8.3243 14.8156 8.36499 14.8638 8.42894C14.9119 8.49294 14.9308 8.57482 14.9148 8.65355L14.6093 10.1677C14.5829 10.2995 14.4675 10.3939 14.3335 10.3939Z" fill="#FF8C21"/>
<path fill-rule="evenodd" clip-rule="evenodd" d="M9.31848 8.88367C8.86189 8.88367 8.49023 8.51223 8.49023 8.05542C8.49023 7.59856 8.86167 7.22717 9.31848 7.22717C9.7753 7.22717 10.1467 7.59856 10.1467 8.05542C10.1467 8.51224 9.77524 8.88367 9.31848 8.88367Z" fill="#FF8C21"/>
<path fill-rule="evenodd" clip-rule="evenodd" d="M12.006 8.49403C11.5494 8.49403 11.1777 8.12259 11.1777 7.66578C11.1777 7.20896 11.5494 6.83752 12.006 6.83752C12.4626 6.83752 12.8342 7.20896 12.8342 7.66578C12.8342 8.12259 12.4626 8.49403 12.006 8.49403Z" fill="#FF8C21"/>
<path fill-rule="evenodd" clip-rule="evenodd" d="M14.6837 8.88123C14.2271 8.88123 13.8555 8.50985 13.8555 8.05298C13.8555 7.59617 14.2271 7.22473 14.6837 7.22473C15.1404 7.22473 15.512 7.59617 15.512 8.05298C15.512 8.50985 15.1404 8.88123 14.6837 8.88123Z" fill="#FF8C21"/>
<path fill-rule="evenodd" clip-rule="evenodd" d="M12.0016 2.24908C8.49096 2.24908 5.63477 5.10511 5.63477 8.61571C5.63477 10.3544 6.33529 11.9325 7.46888 13.0826C6.55785 11.981 6.0098 10.5687 6.0098 9.03095C6.0098 5.52034 8.86599 2.66432 12.3767 2.66432C14.1488 2.66432 15.7541 3.39209 16.9095 4.56437C15.7408 3.15109 13.9745 2.24908 12.0016 2.24908Z" fill="#FEA848"/>
<path fill-rule="evenodd" clip-rule="evenodd" d="M12.0008 3.8282C9.36076 3.8282 7.21289 5.97606 7.21289 8.61589C7.21289 9.94818 7.75995 11.1551 8.64124 12.024C7.98251 11.2036 7.58793 10.1625 7.58793 9.03112C7.58793 6.3913 9.73579 4.24342 12.3758 4.24342C13.6834 4.24342 14.8703 4.77038 15.7353 5.6231C14.8571 4.52949 13.5093 3.8282 12.0008 3.8282Z" fill="#FBDE71"/>
</g>
<defs>
<clipPath id="clip0_5852_65393">
<rect width="24" height="24" fill="white" transform="translate(0 0.201294)"/>
</clipPath>
</defs>
</svg>
