<svg width="24" height="24" viewBox="0 0 24 24" fill="none" xmlns="http://www.w3.org/2000/svg">
<path d="M9.73586 2.0542C11.0203 0.888817 12.9797 0.888817 14.2641 2.0542C14.9174 2.64693 15.7771 2.95984 16.6586 2.92572C18.3917 2.85863 19.8926 4.11805 20.1275 5.83643C20.2469 6.71043 20.7044 7.50273 21.4015 8.04319C22.7723 9.10579 23.1125 11.0353 22.1879 12.5027C21.7176 13.249 21.5587 14.15 21.7454 15.0121C22.1124 16.7072 21.1327 18.404 19.4812 18.9337C18.6413 19.2031 17.9404 19.7912 17.5293 20.5716C16.7208 22.106 14.8797 22.7762 13.2741 22.1204C12.4574 21.7868 11.5426 21.7868 10.7259 22.1204C9.12032 22.7762 7.27918 22.106 6.47074 20.5716C6.05956 19.7912 5.35873 19.2031 4.51875 18.9337C2.86726 18.404 1.88761 16.7072 2.25462 15.0121C2.44129 14.15 2.28242 13.249 1.81214 12.5027C0.887507 11.0353 1.22774 9.10579 2.59846 8.04319C3.29564 7.50273 3.75307 6.71043 3.87253 5.83643C4.10741 4.11805 5.60833 2.85863 7.34139 2.92572C8.22286 2.95984 9.08255 2.64693 9.73586 2.0542Z" fill="url(#paint0_linear_16227_69918)"/>
<path d="M10.389 15.3419C10.3144 15.4583 10.2212 15.5326 10.1093 15.565C10.0049 15.6038 9.8967 15.6102 9.78481 15.5844C9.68038 15.565 9.59087 15.5197 9.51628 15.4486C9.44169 15.3839 9.39693 15.3031 9.38201 15.206C9.36709 15.1026 9.39693 14.9926 9.47152 14.8762L13.6002 8.66765C13.6748 8.55124 13.7643 8.47363 13.8687 8.43483C13.9806 8.39602 14.0888 8.38955 14.1932 8.41542C14.2976 8.43483 14.3871 8.4801 14.4617 8.55124C14.5363 8.62238 14.5811 8.70968 14.596 8.81316C14.6184 8.91017 14.5923 9.01365 14.5177 9.12359L10.389 15.3419ZM9.1918 12.6644C8.56523 12.6644 8.07665 12.4769 7.72607 12.1018C7.37549 11.7267 7.2002 11.2157 7.2002 10.569C7.2002 10.1357 7.27852 9.76385 7.43516 9.45342C7.5918 9.14299 7.81931 8.9037 8.11768 8.73555C8.41605 8.5674 8.77409 8.48333 9.1918 8.48333C9.81838 8.48333 10.307 8.67088 10.6575 9.04598C11.0081 9.41462 11.1834 9.9223 11.1834 10.569C11.1834 11.0023 11.1051 11.3774 10.9484 11.6943C10.7918 12.0048 10.5643 12.244 10.2659 12.4122C9.96756 12.5803 9.60952 12.6644 9.1918 12.6644ZM9.1918 11.8495C9.37082 11.8495 9.52374 11.8043 9.65054 11.7137C9.77735 11.6167 9.87432 11.4744 9.94145 11.2869C10.0086 11.0993 10.0422 10.86 10.0422 10.569C10.0422 10.1357 9.96756 9.81559 9.81838 9.60863C9.66919 9.40168 9.46034 9.2982 9.1918 9.2982C9.01278 9.2982 8.85987 9.34348 8.73306 9.43402C8.60626 9.52456 8.50929 9.6636 8.44215 9.85116C8.37502 10.0387 8.34145 10.278 8.34145 10.569C8.34145 11.0088 8.41605 11.3322 8.56523 11.5391C8.71441 11.7461 8.92327 11.8495 9.1918 11.8495ZM14.8086 15.5165C14.182 15.5165 13.6934 15.3289 13.3429 14.9538C12.9923 14.5787 12.817 14.0678 12.817 13.4211C12.817 12.9878 12.8953 12.6159 13.0519 12.3055C13.2086 11.9951 13.4361 11.7558 13.7345 11.5876C14.0328 11.4195 14.3909 11.3354 14.8086 11.3354C15.4352 11.3354 15.9237 11.5229 16.2743 11.898C16.6249 12.2667 16.8002 12.7744 16.8002 13.4211C16.8002 13.8544 16.7219 14.2295 16.5652 14.5464C16.4086 14.8568 16.1811 15.0961 15.8827 15.2643C15.5843 15.4324 15.2263 15.5165 14.8086 15.5165ZM14.8086 14.7016C14.9876 14.7016 15.1405 14.6563 15.2673 14.5658C15.3941 14.4752 15.4911 14.3362 15.5582 14.1486C15.6254 13.9546 15.6589 13.7121 15.6589 13.4211C15.6589 12.9878 15.5843 12.6676 15.4352 12.4607C15.286 12.2537 15.0771 12.1503 14.8086 12.1503C14.6296 12.1503 14.4767 12.1955 14.3498 12.2861C14.223 12.3766 14.1261 12.5157 14.0589 12.7032C13.9918 12.8908 13.9582 13.1301 13.9582 13.4211C13.9582 13.8609 14.0328 14.1842 14.182 14.3912C14.3312 14.5981 14.5401 14.7016 14.8086 14.7016Z" fill="white"/>
<defs>
<linearGradient id="paint0_linear_16227_69918" x1="7.27273" y1="1.45455" x2="19.2727" y2="24" gradientUnits="userSpaceOnUse">
<stop stop-color="#EBBA0F"/>
<stop offset="1" stop-color="#FF8C21"/>
</linearGradient>
</defs>
</svg>
