<svg width="24" height="24" viewBox="0 0 24 24" fill="none" xmlns="http://www.w3.org/2000/svg">
<rect width="24" height="24" fill="white"/>
<path d="M10.9103 16.8426C11.6893 16.8426 12.4608 16.6892 13.1805 16.3911C13.9003 16.0929 14.5542 15.656 15.1051 15.1051C15.656 14.5542 16.0929 13.9002 16.3911 13.1805C16.6892 12.4608 16.8426 11.6893 16.8426 10.9103C16.8426 10.1312 16.6892 9.35982 16.3911 8.64008C16.0929 7.92033 15.656 7.26636 15.1051 6.71549C14.5542 6.16462 13.9003 5.72765 13.1805 5.42952C12.4608 5.13139 11.6893 4.97794 10.9103 4.97794C9.33694 4.97794 7.82802 5.60296 6.71549 6.71549C5.60296 7.82802 4.97795 9.33693 4.97795 10.9103C4.97795 12.4836 5.60296 13.9926 6.71549 15.1051C7.82802 16.2176 9.33694 16.8426 10.9103 16.8426ZM17.159 15.761L20.6987 19.3006C20.793 19.3919 20.8683 19.501 20.92 19.6217C20.9717 19.7424 20.9989 19.8721 21 20.0034C21.001 20.1347 20.9759 20.2648 20.9261 20.3863C20.8763 20.5078 20.8028 20.6181 20.7099 20.7109C20.617 20.8037 20.5066 20.877 20.385 20.9266C20.2635 20.9763 20.1333 21.0012 20.002 21C19.8707 20.9987 19.741 20.9714 19.6204 20.9195C19.4998 20.8676 19.3908 20.7922 19.2996 20.6977L15.76 17.158C14.1706 18.3918 12.1707 18.9735 10.1675 18.7847C8.16432 18.5959 6.30838 17.6507 4.9775 16.1417C3.64663 14.6326 2.94086 12.6731 3.00388 10.662C3.06691 8.65096 3.89398 6.73948 5.31673 5.31673C6.73948 3.89398 8.65096 3.06691 10.662 3.00388C12.6731 2.94086 14.6327 3.64663 16.1417 4.9775C17.6507 6.30838 18.5959 8.16432 18.7847 10.1675C18.9735 12.1707 18.3918 14.1706 17.158 15.76L17.159 15.761Z" fill="#494949"/>
</svg>
