<svg width="19" height="19" viewBox="0 0 19 19" fill="none" xmlns="http://www.w3.org/2000/svg">
<path d="M0.0692103 7.97216C0.0479212 7.99836 0.0146223 8.02566 0.0124388 8.05404C0.00425065 8.18669 -0.00393762 8.32098 0.00206701 8.45363C0.0113469 8.65997 0.0326369 8.8663 0.0490132 9.07647C0.0779446 9.07865 0.108513 9.08083 0.139082 9.08356C0.14072 9.08957 0.142358 9.09612 0.144541 9.10213C0.110697 9.1196 0.0768516 9.13706 0.0528331 9.14962C0.0544707 9.29973 0.0528329 9.44493 0.0577457 9.59014C0.0637504 9.76209 0.0757602 9.93295 0.0839484 10.1044C0.085586 10.1366 0.0784905 10.1699 0.0746694 10.2021C0.063206 10.3041 0.0522881 10.4002 0.111789 10.4985C0.156005 10.5716 0.168013 10.665 0.188211 10.7507C0.198582 10.7954 0.196399 10.8429 0.199674 10.8844C0.177293 10.9297 0.131986 10.9788 0.13417 11.0247C0.139083 11.1251 0.163646 11.225 0.188211 11.3238C0.239523 11.5302 0.294657 11.7365 0.350336 11.9434C0.356341 11.9663 0.38036 11.9844 0.396736 12.0035C0.41202 12.0209 0.4344 12.0335 0.44368 12.0537C0.491171 12.1552 0.535388 12.2578 0.579058 12.361C0.580696 12.3648 0.576328 12.3719 0.57469 12.3774C0.553947 12.379 0.534296 12.3801 0.514099 12.3817C0.509186 12.3948 0.504274 12.4074 0.499361 12.4205C0.620545 12.373 0.651113 12.4472 0.678953 12.5275C0.686595 12.5493 0.707885 12.5657 0.717165 12.587C0.746096 12.6536 0.772298 12.7218 0.796862 12.7851C0.698604 12.8687 0.702426 12.7142 0.615086 12.7404C0.672403 12.8872 0.713344 13.0373 0.778849 13.1711C0.91368 13.4462 1.05888 13.7082 1.20463 13.9637C1.31108 14.1504 1.42626 14.3294 1.54144 14.5079C1.55345 14.5265 1.57201 14.5396 1.58729 14.556C1.68555 14.6608 1.79309 14.7601 1.87879 14.8753C1.91045 14.9173 1.94375 14.9479 1.98414 14.967C2.03436 15.0931 2.10642 15.1936 2.20631 15.3005C2.22706 15.3229 2.25053 15.342 2.27564 15.3584C2.29693 15.3852 2.32368 15.413 2.35643 15.4447C2.38754 15.4747 2.42849 15.5003 2.44923 15.5358C2.52729 15.6701 2.60371 15.8071 2.68013 15.9441C2.71452 16.0058 2.76365 16.0326 2.83407 16.0364C2.83571 16.0244 2.83571 16.0167 2.83789 16.0091C2.84444 15.984 2.85099 15.9589 2.85754 15.9332C2.88484 15.949 2.91868 15.9605 2.93833 15.9818C2.9951 16.044 3.04478 16.1112 3.1021 16.1739C3.11574 16.1892 3.15559 16.2072 3.16269 16.2023C3.21673 16.1647 3.25985 16.2051 3.28878 16.24C3.34173 16.3039 3.38431 16.3748 3.42798 16.4382C3.51969 16.502 3.6114 16.567 3.7042 16.6314C3.72821 16.6483 3.75824 16.6734 3.78007 16.6729C3.79754 16.6723 3.80573 16.6374 3.82047 16.6205C3.84012 16.5986 3.87233 16.5572 3.88215 16.5621C3.9482 16.5959 4.02353 16.6308 4.06829 16.6822C4.1005 16.7193 4.11797 16.7351 4.16546 16.746C4.19876 16.7537 4.26044 16.8077 4.25717 16.8181C4.23861 16.8738 4.27791 16.9038 4.32158 16.9278C4.4444 16.996 4.56668 17.0648 4.69114 17.1243C4.72007 17.138 4.77903 17.127 4.79595 17.1052C4.82815 17.0643 4.77739 17.0348 4.73645 17.0086C4.46133 16.8306 4.16928 16.6685 3.90508 16.4704C3.74623 16.3508 3.59393 16.2236 3.44436 16.0937C3.29534 15.9643 3.15068 15.8317 3.00602 15.704C2.96672 15.669 2.92796 15.6292 3.0093 15.5806C3.03987 15.7176 3.21837 15.734 3.25985 15.8644C3.26149 15.8704 3.27405 15.8748 3.28223 15.8797C3.37667 15.9354 3.47111 15.9916 3.56718 16.0462C3.6245 16.079 3.68454 16.1079 3.74132 16.1417C3.94384 16.2624 4.14526 16.3847 4.34669 16.5053C4.40728 16.5413 4.46842 16.5932 4.52956 16.6063C4.62072 16.6259 4.67476 16.6805 4.73481 16.7373C4.75446 16.7558 4.77793 16.7766 4.80141 16.7853C4.90949 16.8246 5.01976 16.8579 5.12784 16.8978C5.25175 16.9436 5.37567 16.9917 5.49576 17.0512C5.54817 17.0768 5.61531 17.0992 5.63114 17.1756C5.63605 17.198 5.69337 17.222 5.72994 17.2477C5.74577 17.234 5.7616 17.2204 5.77307 17.2106C5.80473 17.2253 5.8282 17.2373 5.85222 17.2471C5.90844 17.2701 5.96521 17.2919 6.02144 17.3143C6.04655 17.3241 6.07111 17.3361 6.09622 17.3427C6.26599 17.3863 6.4374 17.4224 6.60716 17.4693C6.67813 17.489 6.74309 17.5463 6.81405 17.5654C7.06952 17.6347 7.32281 17.7062 7.57664 17.7559C7.73658 17.7875 7.90198 17.7908 8.06683 17.8007C8.20985 17.8083 8.35451 17.8012 8.49917 17.8083C8.59906 17.8127 8.69787 17.8367 8.79722 17.8432C8.89547 17.8503 8.99428 17.8547 9.09199 17.8476C9.26176 17.835 9.43043 17.8121 9.59856 17.7914C9.68536 17.7805 9.7727 17.7559 9.85676 17.7581C10.0675 17.7641 10.2705 17.7166 10.4758 17.6746C10.6248 17.644 10.7744 17.6118 10.925 17.5807C11.0544 17.5539 11.1843 17.5266 11.3159 17.501C11.5299 17.4589 11.7226 17.3367 11.9513 17.3317C11.9628 17.3317 11.9748 17.3257 11.9868 17.3225C12.1009 17.2903 12.2155 17.2586 12.3307 17.2258C12.3541 17.2193 12.3782 17.2133 12.4011 17.204C12.6642 17.0959 12.9224 16.9737 13.1899 16.8721C13.3553 16.8072 13.5038 16.7231 13.6413 16.6237C13.9274 16.4169 14.2036 16.1991 14.465 15.9665C14.7156 15.7438 14.9105 15.4643 15.1305 15.2121C15.2085 15.1226 15.297 15.0194 15.2904 14.9042C15.226 14.9381 15.1605 14.973 15.1103 15.0282C15.0715 15.0707 15.0448 15.122 15.0164 15.1723C14.9067 15.3661 14.7702 15.5446 14.6135 15.7007C14.5819 15.7323 14.548 15.7634 14.5093 15.7831C14.4863 15.7946 14.4612 15.8017 14.4394 15.8158C14.3624 15.8661 14.3488 15.978 14.2876 16.0495C14.2303 16.1155 14.1392 16.1619 14.0737 16.2193C13.9847 16.2973 13.864 16.3508 13.7641 16.413C13.7592 16.4065 13.7543 16.3999 13.7499 16.3934C13.8165 16.3393 13.8826 16.2848 13.9486 16.2296C13.9454 16.222 13.9426 16.2138 13.9394 16.2062C13.8919 16.2253 13.8411 16.2378 13.7974 16.264C13.7489 16.293 13.7101 16.3415 13.6593 16.3694C13.3564 16.537 13.049 16.7073 12.7324 16.8557C12.4753 16.9764 12.1975 17.025 11.9224 17.0735C11.7679 17.1008 11.6036 17.1178 11.4687 17.1811C11.2493 17.2826 11.0228 17.2701 10.8028 17.3154C10.7973 17.3165 10.7902 17.3099 10.7782 17.3039C10.8077 17.2875 10.8317 17.2739 10.8754 17.2493C10.6254 17.2864 10.4015 17.3192 10.1788 17.3519C10.1761 17.3399 10.1734 17.3274 10.1706 17.3148C10.3339 17.2744 10.4982 17.234 10.663 17.1936C10.4605 17.2182 10.2623 17.2668 10.0636 17.3012C9.8655 17.3356 9.66461 17.3558 9.45554 17.3225C9.74322 17.2984 10.0183 17.2395 10.2907 17.1691C10.4523 17.127 10.6226 17.0533 10.7869 17.031C10.9387 17.0108 11.0828 17.0583 11.24 17.008C11.3656 16.9682 11.4807 16.9027 11.6047 16.8585C11.7772 16.7968 11.9611 16.7777 12.1402 16.7384C12.7685 16.6008 13.3171 16.2209 13.7974 15.7929C13.6544 15.7798 13.5065 15.8295 13.4 15.9261C13.6899 15.5467 14.0846 15.2476 14.5284 15.0707C14.4874 15.1499 14.447 15.229 14.4061 15.3076C14.4907 15.3328 14.5731 15.2672 14.637 15.2067C14.7423 15.1073 14.8477 15.0074 14.9531 14.9081C15.0382 14.8278 15.1239 14.747 15.1883 14.6493C15.2795 14.5128 15.3264 14.3474 15.4362 14.2252C15.4957 14.1586 15.5737 14.1051 15.6097 14.0232C15.643 13.9473 15.6349 13.8578 15.6676 13.7814C15.7025 13.7006 15.7773 13.646 15.8363 13.5805C15.9072 13.5013 15.9182 13.3933 15.9558 13.2977C15.9749 13.2497 16.0781 12.9189 16.1043 12.9069C16.2129 12.8583 16.2948 12.7038 16.2888 12.5242C16.3139 12.545 16.3341 12.5619 16.3767 12.5968C16.3985 12.5106 16.4204 12.4402 16.434 12.3681C16.4542 12.2589 16.4367 12.1399 16.5115 12.0449C16.5175 12.0373 16.5154 12.022 16.517 12.0105C16.5306 11.9298 16.5454 11.8495 16.5596 11.7693C16.5688 11.7715 16.5781 11.7731 16.588 11.7753C16.5776 11.8806 16.6103 11.9914 16.5443 12.0919C16.5268 12.1186 16.5306 12.1601 16.5235 12.1945C16.4984 12.3212 16.5235 12.4516 16.4722 12.5804C16.4144 12.7246 16.3936 12.8861 16.362 13.0406C16.3581 13.0603 16.3843 13.0908 16.4024 13.1094C16.4149 13.1225 16.4438 13.1187 16.4559 13.1318C16.4777 13.1547 16.4924 13.1853 16.5104 13.2126C16.4831 13.2257 16.4559 13.2502 16.4286 13.2502C16.297 13.2508 16.297 13.2486 16.2599 13.3905C16.2872 13.3954 16.3139 13.4003 16.3401 13.4042C16.4428 13.4189 16.4591 13.4555 16.4062 13.5516C16.3854 13.5892 16.368 13.6291 16.3483 13.6689C16.2446 13.6596 16.2424 13.6586 16.1862 13.7519C16.1573 13.8005 16.1409 13.8572 16.1103 13.9042C16.101 13.9184 16.0634 13.9129 16.0388 13.9162C16.0399 13.8955 16.035 13.8725 16.0432 13.8556C16.0563 13.8278 16.0776 13.8043 16.1081 13.7606C16.0743 13.7639 16.0514 13.759 16.0404 13.7683C15.9984 13.8048 15.9629 13.9762 15.9869 14.0265C15.9597 14.0396 15.9324 14.0527 15.9051 14.0658L15.928 14.0734C15.9023 14.1537 15.8761 14.2339 15.851 14.3114C15.8734 14.3202 15.8958 14.3294 15.9187 14.3387C15.9127 14.3491 15.9072 14.3589 15.9007 14.3693C15.8205 14.3605 15.7462 14.4839 15.6611 14.3906C15.6452 14.4064 15.6294 14.4217 15.613 14.4381C15.6802 14.4899 15.6878 14.5068 15.6523 14.533C15.5655 14.5969 15.5388 14.6837 15.5339 14.776C15.5197 14.7836 15.506 14.7918 15.4935 14.8043C15.4569 14.8409 15.4405 14.8917 15.416 14.937C15.4154 14.9375 15.4154 14.9375 15.4149 14.9381C15.4023 14.9545 15.3892 14.9708 15.3794 14.9888C15.3756 14.9938 15.3734 14.9992 15.3717 15.0052C15.3712 15.0063 15.3707 15.0069 15.3707 15.008C15.3608 15.0336 15.3652 15.0609 15.3783 15.08C15.3734 15.0986 15.3701 15.1182 15.3701 15.139C15.3701 15.1925 15.4443 15.2137 15.4678 15.1608C15.5142 15.0571 15.5841 14.9523 15.6583 14.8715C15.7009 14.8251 15.7489 14.7847 15.7926 14.7399C15.8166 14.7154 15.8456 14.6853 15.8723 14.652C15.9165 14.6155 15.9564 14.5713 15.9869 14.5107C16.0754 14.3354 16.19 14.1755 16.2943 14.0101C16.3003 14.0008 16.3085 13.9893 16.3177 13.9861C16.3298 13.9822 16.3483 13.9801 16.3565 13.9872C16.3647 13.9937 16.3696 14.0161 16.3647 14.0259C16.3308 14.0996 16.2997 14.175 16.2582 14.2437C16.1977 14.3442 16.1272 14.4386 16.065 14.538C16.0268 14.5996 15.9979 14.6635 15.922 14.6908C15.8892 14.7028 15.8581 14.7492 15.8445 14.7874C15.7997 14.9086 15.7156 14.9927 15.6267 15.0756C15.5786 15.1204 15.5361 15.1734 15.4907 15.2236C15.3625 15.3655 15.2342 15.5096 15.101 15.6526C15.0628 15.6936 14.9918 15.7089 15.0126 15.7896C15.0142 15.7951 14.9891 15.812 14.9754 15.8219C14.9514 15.8393 14.9236 15.8513 14.9028 15.8721C14.7249 16.0495 14.5524 16.2345 14.3641 16.4016C14.2489 16.5026 14.114 16.5779 13.9852 16.6598C13.9301 16.6947 13.8629 16.7138 13.8138 16.7537C13.673 16.8678 13.5267 16.9753 13.37 17.0692C13.2134 17.1631 13.048 17.2433 12.8684 17.3034C12.7079 17.3574 12.561 17.4502 12.3989 17.5102C12.233 17.5714 12.0594 17.6205 11.8902 17.6833C11.6369 17.7777 11.3645 17.835 11.0915 17.8558C11.0069 17.8623 10.9207 17.8662 10.8426 17.894C10.782 17.9158 10.7231 17.9519 10.6597 17.9486C10.5713 17.9437 10.5216 17.9246 10.4408 17.9753C10.3923 18.0059 10.3732 18.0654 10.3279 18.0943C10.2056 18.1718 10.1559 17.971 10.0527 18.0823C10.032 18.1047 10.0156 18.1309 9.98886 18.1478C9.90425 18.2013 9.75305 18.1216 9.66461 18.1145C9.51887 18.1025 9.37639 18.1085 9.23992 18.1789C9.22245 18.1877 9.20498 18.1986 9.19516 18.2144C9.17442 18.2477 9.20007 18.2887 9.23665 18.3012C9.42388 18.3662 9.75086 18.3039 9.95884 18.2881C10.1439 18.2739 10.3377 18.2625 10.5309 18.2423C10.7242 18.2221 10.9174 18.1942 11.1008 18.1467C11.2941 18.0971 11.4889 18.0463 11.6833 17.9939C11.8776 17.9415 12.0708 17.8853 12.2613 17.8258C12.5496 17.7324 12.8296 17.6282 13.0987 17.5097C13.3678 17.3912 13.6271 17.2542 13.8766 17.1019C14.1282 16.9485 14.3712 16.7799 14.6059 16.5992C14.8259 16.43 15.0191 16.2455 15.2527 16.1041C15.3712 16.0326 15.476 15.9338 15.5584 15.8169C15.6065 15.7487 15.6474 15.6739 15.7069 15.6166C15.767 15.5582 15.8428 15.5216 15.9105 15.473C15.976 15.4261 16.0099 15.3748 16.047 15.3044C16.0792 15.2427 16.1343 15.193 16.1654 15.127C16.261 14.9261 16.4051 14.7645 16.5181 14.5794C16.5563 14.5167 16.6005 14.4861 16.6655 14.5194C16.648 14.5887 16.6311 14.657 16.6136 14.7246C16.6213 14.7268 16.6294 14.7296 16.6371 14.7317C16.684 14.6297 16.731 14.5276 16.7774 14.4255C16.7141 14.3491 16.7141 14.3502 16.8047 14.3283C16.8156 14.3256 16.8314 14.2961 16.8292 14.2934C16.7681 14.2175 16.8418 14.1837 16.8729 14.1384C16.9581 14.015 17.0459 13.8922 17.1327 13.7688C17.1409 13.7573 17.1475 13.7421 17.1584 13.7361C17.2534 13.688 17.308 13.6122 17.3303 13.503C17.3686 13.319 17.4062 13.1345 17.4608 12.956C17.5219 12.7568 17.6077 12.5668 17.6693 12.3692C17.7594 12.0788 17.8402 11.7851 17.9281 11.4931C17.9461 11.4341 17.987 11.3708 17.879 11.344C17.9128 11.3315 17.9455 11.3288 17.9499 11.3156C17.9696 11.2643 17.9849 11.2103 17.9936 11.1557C18.0127 11.0318 18.0274 10.9068 18.0416 10.7818C18.0646 10.5765 18.0853 10.3707 18.1088 10.1655C18.117 10.0929 18.1153 10.0296 18.0351 9.99736C18.0285 9.99463 18.0285 9.97443 18.0225 9.95151C18.0564 9.96461 18.0787 9.97334 18.1033 9.98263C18.1208 9.89146 18.1377 9.80303 18.1546 9.71405C18.165 9.71514 18.1754 9.71623 18.1857 9.71787C18.1912 9.76918 18.1966 9.81995 18.2021 9.87126C18.2218 9.83305 18.2349 9.79593 18.2343 9.75826C18.2321 9.6611 18.2299 9.56393 18.2267 9.46677C18.2234 9.3696 18.219 9.27189 18.2136 9.17418C18.2114 9.13215 18.1994 9.06937 18.1715 9.05245C18.0394 8.97057 18.0585 8.83356 18.0444 8.70691C18.0296 8.57972 18.0192 8.45144 18.0045 8.32371C17.9947 8.23964 17.9739 8.15667 17.9701 8.07151C17.9663 7.98035 17.9925 7.88155 17.9767 7.79475C17.9592 7.69486 17.903 7.60752 17.8729 7.51035C17.8724 7.50817 17.8719 7.50598 17.8713 7.50325C17.8402 7.43884 17.8195 7.37006 17.8053 7.29746C17.7916 7.22595 17.8113 7.1659 17.8484 7.1206C17.8457 7.10749 17.8451 7.09439 17.8467 7.08075C17.8386 6.93336 17.8031 6.79034 17.7539 6.65333C17.7048 6.51577 17.6426 6.38421 17.5847 6.25702C17.5274 6.13093 17.4766 6.00756 17.4346 5.88037C17.4253 5.87545 17.416 5.86945 17.4062 5.86508C17.4144 5.8558 17.4188 5.84597 17.421 5.83615C17.4111 5.80613 17.4013 5.77665 17.3926 5.74608C17.3806 5.70405 17.3686 5.66202 17.356 5.61998C17.2567 5.47424 17.1753 5.32139 17.1322 5.15217C17.1224 5.11341 17.1245 5.07683 17.1349 5.04354C17.1027 5.02334 17.07 5.00423 17.0405 4.98404C17.0678 4.92072 17.0913 4.86613 17.1207 4.79681C17.0651 4.8039 17.0208 4.80718 16.9777 4.81591C16.8625 4.83938 16.8183 4.82027 16.7599 4.7242C16.7201 4.65869 16.6895 4.58173 16.636 4.53205C16.5066 4.41032 16.4619 4.23564 16.3631 4.09535C16.3467 4.07242 16.3439 4.03967 16.3292 3.99436C16.3658 4.01511 16.3909 4.02057 16.3996 4.03585C16.4553 4.13302 16.4973 4.24165 16.6131 4.28368C16.6202 4.28641 16.6229 4.30497 16.6251 4.31643C16.6354 4.37866 16.63 4.44963 16.6578 4.50148C16.7059 4.58883 16.7763 4.66361 16.8352 4.73785C16.9117 4.70291 16.9777 4.67234 17.0449 4.64177C17.0372 4.62103 17.0356 4.59756 17.0225 4.58282C16.9231 4.46709 16.826 4.35137 16.7299 4.23455C16.6813 4.17505 16.6338 4.11555 16.5497 4.10627C16.5366 4.10463 16.5137 4.06588 16.5181 4.05223C16.5503 3.94742 16.4881 3.95397 16.4466 3.96107C16.4275 3.90975 16.4215 3.85899 16.3947 3.82896C16.2009 3.61607 16.0044 3.407 15.8101 3.19739C15.7544 3.08275 15.6671 2.98341 15.5541 2.90535C15.5322 2.89006 15.5093 2.87696 15.4858 2.8644C15.4574 2.83656 15.4291 2.80927 15.4007 2.78198C15.3996 2.79672 15.4012 2.812 15.4045 2.82728C15.3575 2.80872 15.3095 2.79289 15.2615 2.77979C15.2451 2.75632 15.2287 2.73284 15.2113 2.71046C15.2047 2.70228 15.184 2.70228 15.1709 2.70446C15.1174 2.71429 15.1059 2.67771 15.0884 2.63568C15.0628 2.5729 15.0355 2.5074 14.9945 2.45554C14.9498 2.39986 14.8892 2.35674 14.833 2.31198C14.8084 2.29233 14.7784 2.28086 14.7505 2.26612C14.7505 2.29614 14.7516 2.32617 14.7505 2.35619C14.75 2.36765 14.7462 2.37858 14.7429 2.39495C14.7211 2.3884 14.6976 2.38785 14.6856 2.3753C14.6577 2.34636 14.6359 2.31143 14.6113 2.27923C14.643 2.25794 14.6747 2.23665 14.7069 2.21645C14.7282 2.2028 14.7494 2.1908 14.7849 2.17005C14.6212 2.05269 14.4771 1.93914 14.3231 1.84307C14.1621 1.74263 13.9907 1.66075 13.8253 1.56686C13.7609 1.53028 13.7019 1.48225 13.6402 1.44022C13.5933 1.40801 13.5491 1.3687 13.4978 1.34632C13.4448 1.32339 13.3831 1.32176 13.3274 1.30375C13.2619 1.28246 13.1959 1.25898 13.1358 1.22514C13.0802 1.19402 13.0343 1.14271 12.9786 1.11051C12.9317 1.08321 12.876 1.05373 12.8247 1.05537C12.6839 1.05974 12.6839 1.06629 12.6582 0.935821C12.6123 0.919991 12.5676 0.905254 12.5234 0.889969C12.5348 0.926543 12.5638 0.948377 12.5758 0.977308C12.5867 1.00351 12.5867 1.04009 12.5774 1.06738C12.5736 1.07884 12.5326 1.08376 12.5103 1.08103C12.4196 1.06902 12.4071 0.998052 12.3995 0.923267C12.3962 0.894336 12.3967 0.851211 12.3798 0.840839C12.311 0.798807 12.239 0.760597 12.1625 0.733303C12.0293 0.685812 11.8918 0.648694 11.7564 0.604478C11.6434 0.567358 11.5342 0.518776 11.4196 0.489299C11.287 0.455454 11.151 0.430343 11.0162 0.412875C10.8907 0.396498 10.7635 0.395955 10.6374 0.388313C10.6172 0.387221 10.5964 0.387762 10.5773 0.382849C10.4889 0.362651 10.4015 0.334267 10.312 0.322257C10.2492 0.313523 10.1821 0.318985 10.1199 0.33154C10.0325 0.349008 9.94956 0.377394 9.87587 0.291145C9.86004 0.272586 9.82183 0.27149 9.79289 0.267123C9.70665 0.254568 9.6204 0.242559 9.53415 0.232733C9.40641 0.21854 9.27267 0.179239 9.15149 0.200528C8.94351 0.237102 8.73007 0.172141 8.52646 0.23983C8.49535 0.250201 8.45332 0.224002 8.4162 0.222365C8.36488 0.220181 8.30265 0.206534 8.2639 0.229461C8.01007 0.380123 7.72457 0.411785 7.44072 0.456001C7.24748 0.486024 7.05314 0.517134 6.85772 0.546612C6.82933 0.550979 6.79931 0.540611 6.76983 0.537336L6.77202 0.502945C6.87191 0.482748 6.97126 0.463099 7.07061 0.443993C6.98982 0.429801 6.9134 0.425974 6.83698 0.424336C6.82988 0.424336 6.82224 0.433621 6.8146 0.436897C6.75728 0.460369 6.7016 0.492576 6.64264 0.505131C6.48762 0.537884 6.32713 0.528055 6.17865 0.597381C6.06402 0.650877 5.9472 0.699459 5.83038 0.74695C5.79435 0.761689 5.75341 0.768241 5.71575 0.768787C5.65134 0.768787 5.58419 0.743676 5.52415 0.761144C5.4308 0.787892 5.34019 0.836476 5.2523 0.885058C5.04105 1.00024 4.83088 1.1176 4.62509 1.24206C4.33577 1.41674 4.05137 1.59633 3.76861 1.77538C3.6971 1.82069 3.62777 1.87364 3.565 1.93204C3.5115 1.98172 3.46456 2.00301 3.40779 1.96753C3.34992 1.9315 3.29916 1.92659 3.26095 2.0112C3.25276 2.02921 3.2342 2.04395 3.21837 2.05651C3.15996 2.10127 3.09063 2.13457 3.04314 2.18806C2.92687 2.31962 2.81715 2.45718 2.70743 2.59365C2.62391 2.69736 2.55185 2.81145 2.46178 2.90971C2.42193 2.95338 2.3537 2.98995 2.29693 2.9965C2.2216 3.00524 2.19867 3.03472 2.18448 3.10077C2.17247 3.15754 2.14354 3.21213 2.12334 3.26781C2.11297 3.29674 2.09878 3.32785 2.09878 3.35624C2.09878 3.42775 2.07312 3.46978 1.99233 3.47906C1.97322 3.48124 1.93665 3.52055 1.93883 3.52491C1.99779 3.62863 1.90608 3.67557 1.84221 3.73617C1.81765 3.75964 1.79582 3.79458 1.79036 3.82569C1.77835 3.8901 1.75706 3.9365 1.68227 3.95997C1.64679 3.97144 1.61786 4.0091 1.58674 4.0364C1.56273 4.05714 1.54362 4.08335 1.51796 4.10081C1.40715 4.17669 1.29088 4.24765 1.30835 4.39995C1.30944 4.40978 1.30562 4.42288 1.29961 4.43107C1.22319 4.53533 1.14349 4.63686 1.07417 4.74385C0.989011 4.87595 0.920775 5.01733 0.833981 5.14725C0.736815 5.29355 0.662577 5.4453 0.616724 5.61453C0.587246 5.72316 0.517373 5.82032 0.480799 5.92786C0.432216 6.06979 0.397827 6.21662 0.356886 6.36128C0.346515 6.39731 0.347607 6.44317 0.323589 6.46718C0.251533 6.54033 0.249894 6.6293 0.24389 6.7221C0.226422 6.99395 0.0719392 7.2396 0.0823108 7.52345C0.0828567 7.54474 0.0615681 7.56549 0.0539259 7.58787C0.0380955 7.63645 0.0304531 7.68012 0.0981417 7.70195C0.169106 7.72488 0.191486 7.78711 0.167467 7.84716C0.153275 7.89356 0.1036 7.92904 0.0692103 7.97216ZM16.3914 9.50935C16.4122 9.50007 16.4329 9.4897 16.4542 9.48151C16.4875 9.46895 16.5208 9.45749 16.5552 9.44821C16.5579 9.44766 16.5743 9.48096 16.5727 9.4826C16.5399 9.50771 16.5061 9.53282 16.47 9.55193C16.458 9.55848 16.4373 9.54919 16.4204 9.54701C16.4105 9.535 16.4013 9.5219 16.3914 9.50935ZM16.6797 10.7403C16.7244 10.7485 16.7408 10.7812 16.7064 10.8047C16.6464 10.8462 16.577 10.8751 16.5088 10.903C16.4979 10.9073 16.4657 10.8811 16.4586 10.8631C16.4526 10.8473 16.4629 10.8173 16.4766 10.8036C16.4946 10.7856 16.5225 10.7774 16.5459 10.7654C16.5323 10.7583 16.5181 10.7512 16.5044 10.7436C16.499 10.7032 16.4935 10.6633 16.4875 10.6229C16.4864 10.6147 16.4853 10.6049 16.4804 10.5995C16.3914 10.493 16.4509 10.3871 16.4793 10.2812C16.4875 10.2501 16.4979 10.2201 16.5088 10.1901C16.5192 10.1633 16.5323 10.1382 16.5443 10.112C16.5765 10.1404 16.6158 10.1639 16.6376 10.1988C16.6562 10.2288 16.6256 10.2861 16.6889 10.2971C16.6939 10.2976 16.6944 10.3282 16.6955 10.3451C16.701 10.4133 16.7048 10.481 16.7113 10.5487C16.7157 10.5945 16.7233 10.6399 16.7299 10.6852C16.7173 10.6901 16.7048 10.695 16.6922 10.6999C16.6731 10.6781 16.654 10.6562 16.6344 10.6344C16.5918 10.7201 16.5929 10.7245 16.6797 10.7403ZM16.6988 9.16654C16.6393 9.1851 16.5781 9.19929 16.5383 9.20966C16.3783 9.20966 16.3194 9.11632 16.3762 8.98695C16.3794 8.97876 16.3843 8.96893 16.3909 8.96566C16.4509 8.93836 16.5334 8.95146 16.5612 8.86576C16.5618 8.86357 16.5825 8.86467 16.5847 8.86904C16.6333 8.95474 16.6808 9.04044 16.7255 9.12778C16.7288 9.13433 16.7113 9.16217 16.6988 9.16654ZM17.1377 11.5144C17.1568 11.3855 17.1808 11.2572 17.2097 11.1301C17.2534 10.9341 17.3025 10.7381 17.3484 10.5411C17.3511 10.5301 17.3636 10.5165 17.3604 10.5099C17.2856 10.3533 17.3587 10.1835 17.3178 10.0225C17.3069 9.97935 17.3271 9.92804 17.3353 9.85926C17.2627 9.80194 17.2408 9.69386 17.2856 9.59342C17.3205 9.51536 17.4084 9.53664 17.4805 9.56012C17.4908 9.52191 17.5023 9.48151 17.5138 9.44002C17.4963 9.41436 17.4755 9.38379 17.4515 9.34886C17.5607 9.26315 17.564 9.15835 17.5056 9.0388C17.4985 9.02407 17.5099 8.99077 17.5236 8.97767C17.5378 8.96347 17.5733 8.95146 17.5842 8.96019C17.6011 8.9733 17.6137 9.0055 17.6131 9.02843C17.612 9.18509 17.6131 9.34231 17.6104 9.49789C17.6082 9.65401 17.6027 9.80958 17.5891 9.96351C17.5613 10.2807 17.4947 10.5929 17.4548 10.9062C17.4308 11.0946 17.3626 11.2687 17.32 11.4494C17.2774 11.6355 17.2201 11.8179 17.1655 12.0002C17.1104 12.1825 17.0498 12.3632 16.9908 12.5439C16.981 12.5733 16.9613 12.6001 16.9461 12.6279C16.9346 12.6236 16.9231 12.6192 16.9117 12.6148C16.9204 12.5444 16.9379 12.4734 16.9357 12.403C16.9308 12.248 17.0187 12.1323 17.0814 12.0051C17.0962 11.9756 17.094 11.9369 17.0973 11.9019C17.1104 11.7731 17.1185 11.6432 17.1377 11.5144ZM17.0814 10.9374C17.0945 11.0471 17.0525 11.165 16.9837 11.1836C16.9914 11.1322 16.9985 11.0869 17.0094 11.016C17.0072 11.0105 16.9952 10.9832 16.9777 10.9428C17.023 10.9406 17.0525 10.939 17.0814 10.9374ZM16.797 7.84934C16.809 7.88537 16.8374 7.91758 16.862 7.9476C16.8975 7.99018 16.9297 8.04531 16.8778 8.07916C16.8407 8.10318 16.7588 8.10808 16.7315 8.08188C16.6671 8.02074 16.6202 7.93777 16.5721 7.86026C16.5416 7.81059 16.5874 7.7489 16.6507 7.74835C16.7255 7.74235 16.7725 7.77346 16.797 7.84934ZM16.5448 6.9612C16.5721 6.96338 16.6076 6.96721 16.6234 6.98522C16.6616 7.02944 16.69 7.08184 16.7266 7.13752C16.6693 7.22704 16.6169 7.23195 16.5661 7.14734C16.5399 7.10367 16.5285 7.05018 16.5159 6.99941C16.5132 6.98959 16.5356 6.96065 16.5448 6.9612ZM16.6125 8.232C16.6769 8.20962 16.7605 8.27021 16.7173 8.40067C16.7899 8.42906 16.8325 8.46782 16.7752 8.55188C16.7632 8.56989 16.7894 8.61739 16.7959 8.65123C16.8036 8.6889 16.8167 8.7282 16.8123 8.76368C16.8107 8.77678 16.755 8.79753 16.7446 8.7888C16.7091 8.75823 16.6742 8.71892 16.6556 8.6758C16.6349 8.6294 16.6344 8.57426 16.6196 8.52404C16.6169 8.51531 16.5863 8.50385 16.5759 8.50931C16.559 8.5175 16.5366 8.53769 16.5366 8.55407C16.5361 8.60592 16.5454 8.65833 16.5487 8.71073C16.5503 8.73748 16.5525 8.76532 16.5459 8.78988C16.5426 8.80244 16.5203 8.81718 16.5077 8.815C16.4902 8.81227 16.4586 8.79152 16.4597 8.78497C16.4668 8.7413 16.4591 8.708 16.4351 8.66651C16.4149 8.63158 16.422 8.58081 16.4155 8.52677C16.3298 8.47055 16.3063 8.32371 16.3734 8.24947C16.3822 8.24019 16.3936 8.22708 16.3931 8.21617C16.3904 8.1523 16.4307 8.1332 16.475 8.1463C16.5186 8.15885 16.5557 8.19488 16.6125 8.232ZM16.3019 7.38808C16.3439 7.50107 16.4788 7.56057 16.4788 7.72324C16.333 7.65337 16.3205 7.5038 16.2331 7.38753C16.2675 7.38753 16.2997 7.38207 16.3019 7.38808ZM15.7566 12.7606C15.7506 12.772 15.7244 12.7857 15.72 12.7819C15.7069 12.771 15.6933 12.7518 15.6927 12.7355C15.6916 12.7098 15.6982 12.6825 15.708 12.6585C15.7167 12.6372 15.7348 12.6197 15.7484 12.6006C15.7637 12.6219 15.7784 12.6432 15.7932 12.664C15.779 12.7033 15.7708 12.7338 15.7566 12.7606ZM15.4749 5.76136C15.5109 5.76628 15.5579 5.81814 15.5726 5.85908C15.6605 6.10636 15.7413 6.35691 15.8221 6.60747C15.8363 6.6506 15.839 6.69755 15.8483 6.74886C15.7724 6.74613 15.7353 6.72811 15.744 6.65169C15.7473 6.62494 15.7364 6.59219 15.7233 6.56653C15.6589 6.43989 15.589 6.31652 15.5273 6.18879C15.5006 6.13311 15.5082 6.05505 15.4214 6.05123C15.4149 6.05123 15.4056 6.03485 15.4029 6.02503C15.3652 5.89784 15.3286 5.77064 15.2899 5.6369C15.3297 5.60524 15.3543 5.6249 15.3701 5.67457C15.3876 5.72861 15.4154 5.75372 15.4749 5.76136ZM15.1376 5.27826C15.2156 5.34541 15.2822 5.42783 15.3494 5.50808C15.3559 5.51572 15.3341 5.54902 15.3275 5.56704C15.3046 5.56212 15.297 5.56321 15.2937 5.55994C15.2244 5.48625 15.149 5.41692 15.0895 5.33558C15.0535 5.28591 15.1075 5.25261 15.1376 5.27826ZM12.5823 3.00305C12.6151 2.98941 12.6473 2.97576 12.6811 2.96157C12.7046 3.00197 12.7226 3.03362 12.7412 3.06474C12.7373 3.07511 12.7335 3.08548 12.7297 3.09586C12.6795 3.07566 12.6293 3.05491 12.579 3.03472C12.5801 3.0238 12.5812 3.01342 12.5823 3.00305ZM6.23378 16.5058C6.06183 16.4109 5.88988 16.3153 5.71793 16.2203C5.72339 16.2083 5.72885 16.1969 5.73376 16.1849C5.90462 16.2826 6.07548 16.3803 6.24688 16.4775C6.24252 16.4867 6.23815 16.4966 6.23378 16.5058ZM6.57878 16.6156C6.58205 16.6167 6.58478 16.6177 6.58806 16.6188C6.59734 16.6254 6.60662 16.6325 6.6159 16.6379C6.6361 16.6499 6.65738 16.6603 6.67922 16.6696C6.70815 16.6822 6.73708 16.6931 6.76656 16.7018C6.79331 16.7258 6.88665 16.7417 6.94288 16.7619C6.97181 16.7722 7.00074 16.7842 7.04605 16.8017C6.88829 16.8432 6.69014 16.764 6.57878 16.6156ZM7.66725 1.98827C7.61813 1.99701 7.57227 2.0243 7.52314 2.03522C7.27259 2.09035 7.02094 2.14112 6.76983 2.20171C6.65193 2.2301 6.53784 2.27759 6.42047 2.31034C6.27527 2.35128 6.12461 2.37421 5.98432 2.4277C5.85222 2.47847 5.72994 2.55817 5.60275 2.62367C5.55253 2.64933 5.50067 2.67116 5.44827 2.69245C5.40787 2.70883 5.36584 2.72029 5.31835 2.73612C5.32217 2.74813 5.32545 2.75905 5.32872 2.76942C5.08308 2.87478 4.85654 3.01998 4.6431 3.18483C4.42966 3.35023 4.22824 3.5342 4.03281 3.7187C4.03063 3.71979 4.02899 3.72143 4.02681 3.72252C4.02736 3.72252 4.02735 3.72307 4.0279 3.72307C3.91272 3.83115 3.79972 3.93923 3.68673 4.04459C3.42416 4.28969 3.17743 4.54461 2.96563 4.82082C2.75383 5.09703 2.58242 5.39509 2.45905 5.72479C2.44595 5.74881 2.43285 5.77283 2.41975 5.79685C2.41593 5.79084 2.41156 5.78593 2.4061 5.78156C2.4072 5.77556 2.40774 5.76955 2.40829 5.76355C2.41429 5.74499 2.42139 5.72752 2.42739 5.71169C2.45196 5.64946 2.48526 5.5916 2.51364 5.53101C2.54585 5.46332 2.56987 5.39181 2.5988 5.32248C2.61572 5.28209 2.64138 5.24223 2.66103 5.20075C2.70088 5.13633 2.73581 5.07902 2.77293 5.02443C2.82479 4.94801 2.88211 4.87487 2.93342 4.79735C2.94761 4.77606 2.96344 4.74331 2.96508 4.72147C2.97109 4.71602 2.97654 4.71001 2.982 4.704C2.99128 4.69745 2.99947 4.68872 3.00547 4.67835C3.00766 4.67453 3.0093 4.67071 3.01148 4.66689C3.02076 4.65379 3.02895 4.64014 3.03659 4.62649C3.03768 4.62649 3.03823 4.62703 3.03932 4.62703C3.04041 4.62267 3.0426 4.61721 3.04423 4.6123C3.05133 4.59974 3.05733 4.58609 3.06061 4.57244C3.06334 4.56153 3.06443 4.55116 3.06388 4.54024C3.06388 4.53806 3.06498 4.53587 3.06498 4.53369C3.07153 4.40868 3.11793 4.34373 3.23201 4.29078C3.2735 4.27167 3.31171 4.23564 3.34501 4.20125C3.39414 4.14994 3.43835 4.09372 3.48366 4.03804C3.58465 3.91412 3.684 3.78803 3.78499 3.66357C3.90235 3.51891 4.02845 3.38408 4.16328 3.25853C4.29866 3.13352 4.44277 3.01834 4.5978 2.91462C4.8358 2.75522 5.07707 2.59801 5.32599 2.45063C5.4772 2.36219 5.63769 2.29287 5.79599 2.21918C5.93956 2.15258 6.09295 2.10618 6.23051 2.02812C6.55967 1.84088 6.92596 1.80813 7.27586 1.72188C7.44017 1.68149 7.61703 1.70278 7.78789 1.69732C7.98495 1.69077 8.18202 1.67931 8.37853 1.68313C8.46696 1.68477 8.55485 1.71643 8.64328 1.73608C8.69678 1.74809 8.74918 1.76173 8.80213 1.77483C8.80268 1.78357 8.80322 1.79176 8.80377 1.80049C8.77374 1.80541 8.74372 1.81086 8.71315 1.81577C8.58924 1.83542 8.46532 1.85508 8.34141 1.87528C8.33541 1.87637 8.33049 1.88019 8.32449 1.88128C8.10723 1.91676 7.88724 1.95006 7.66725 1.98827ZM3.02622 3.95506C3.0415 4.10027 3.01421 4.14612 2.90776 4.18487C2.90176 4.14557 2.8963 4.11228 2.88757 4.05878C2.91923 4.03585 2.9689 3.99819 3.02622 3.95506ZM3.06006 3.33931C3.10755 3.29674 3.15505 3.25416 3.20254 3.21103C3.20963 3.21922 3.21618 3.22741 3.22328 3.23614C3.17524 3.27763 3.12666 3.31966 3.07808 3.36115C3.07207 3.35351 3.06607 3.34641 3.06006 3.33931ZM3.79427 2.53033C3.73968 2.57018 3.69273 2.62422 3.63705 2.66025C3.60758 2.67935 3.56609 2.67444 3.52952 2.6799C3.54207 2.63841 3.54371 2.58546 3.56991 2.55708C3.63596 2.48447 3.72439 2.45336 3.80791 2.40915C3.89416 2.36384 3.9755 2.32781 4.06502 2.30925C4.07812 2.30652 4.09177 2.30815 4.11306 2.30706C4.00006 2.38676 3.8958 2.45609 3.79427 2.53033ZM4.13162 2.87532C4.31667 2.7192 4.50882 2.57072 4.70369 2.42388C4.85872 2.30652 5.02303 2.20935 5.19225 2.12147C5.36257 2.03467 5.53779 1.9577 5.71356 1.88183C5.89097 1.80486 6.06402 1.71479 6.24306 1.63836C6.36097 1.58814 6.48325 1.54884 6.60443 1.50572L6.61481 1.53301C6.58424 1.54884 6.55367 1.56522 6.5231 1.5816C6.34241 1.67767 6.16118 1.76446 5.96412 1.81687C5.86914 1.84198 5.78562 1.92441 5.69555 1.97626C5.65406 1.99974 5.60712 2.0243 5.56345 2.02703C5.38276 2.03795 5.24902 2.16241 5.10437 2.25903C4.99901 2.32945 4.89475 2.40041 4.79322 2.47574C4.66494 2.57127 4.5443 2.6788 4.41384 2.7656C4.279 2.85512 4.17802 2.98286 4.05738 3.08548C4.02026 3.11714 3.97222 3.13352 3.92964 3.15645C3.92255 3.14553 3.91545 3.13516 3.90835 3.12424C3.98259 3.04072 4.0481 2.94574 4.13162 2.87532ZM3.57919 3.20012C3.60703 3.17446 3.66326 3.18211 3.71129 3.17337C3.71457 3.25252 3.66598 3.2951 3.61795 3.32731C3.56991 3.35951 3.51532 3.37316 3.51096 3.44904C3.50986 3.47196 3.47111 3.49762 3.44982 3.52218C3.47657 3.50799 3.50331 3.49325 3.53061 3.47906C3.53498 3.48452 3.53989 3.49052 3.54426 3.49598C3.49676 3.56148 3.44982 3.62699 3.40233 3.69249C3.39305 3.68867 3.38377 3.68485 3.37449 3.68103C3.38213 3.65374 3.38977 3.62644 3.39741 3.59915C3.37394 3.61061 3.35101 3.62699 3.327 3.63136C3.31117 3.63409 3.29042 3.62371 3.27951 3.61116C3.27295 3.60352 3.27678 3.58005 3.28333 3.56695C3.30516 3.52546 3.32536 3.48179 3.35538 3.44631C3.42634 3.36115 3.4984 3.2749 3.57919 3.20012ZM6.70433 1.4817C6.78621 1.45386 6.86809 1.42657 6.94997 1.39928C6.9527 1.40856 6.95543 1.41784 6.95816 1.42657C6.87628 1.45386 6.7944 1.48116 6.71252 1.50845C6.70979 1.49972 6.70706 1.49043 6.70433 1.4817ZM9.11819 1.23114C9.30816 1.21477 9.49812 1.19893 9.68809 1.18201C9.70555 1.18037 9.72302 1.1711 9.73995 1.17274C9.94683 1.19348 10.1537 1.21531 10.3612 1.23605C10.3612 1.24915 10.3612 1.26226 10.3612 1.27536C10.3197 1.27918 10.2787 1.28573 10.2372 1.28573C10.0527 1.28682 9.86822 1.28792 9.68372 1.28792C9.49921 1.28792 9.31525 1.28737 9.13129 1.28464C9.06797 1.28354 9.0052 1.25079 8.94188 1.23223C8.92495 1.22732 8.90912 1.21532 8.8922 1.21477C8.71861 1.20604 8.54502 1.19839 8.37143 1.19129C8.3567 1.19075 8.33432 1.18966 8.32886 1.19784C8.25844 1.30866 8.16018 1.2437 8.07229 1.24042C7.98277 1.23715 7.89325 1.23169 7.78134 1.22678C7.86213 1.16946 8.14981 1.1307 8.47078 1.11924C8.79176 1.10778 9.14658 1.12306 9.3622 1.16946C9.27977 1.17874 9.19734 1.18856 9.11492 1.19784C9.11655 1.20985 9.11765 1.22022 9.11819 1.23114ZM8.95716 1.8185C8.95716 1.80922 8.95716 1.80049 8.95661 1.79121C9.02102 1.7459 9.35237 1.76556 9.43207 1.8196L8.95716 1.8185ZM9.32126 1.93532L8.38563 1.93478C8.6935 1.83434 9.00574 1.8458 9.31853 1.88947C9.31962 1.90476 9.32017 1.92004 9.32126 1.93532ZM8.50081 1.62472C8.3698 1.63891 8.24588 1.65856 8.12142 1.66293C8.04991 1.66511 7.97895 1.66184 7.90362 1.62799C7.83375 1.59688 7.73603 1.62745 7.65142 1.63836C7.57828 1.64764 7.50622 1.66784 7.43307 1.68094C7.41834 1.68367 7.40196 1.6733 7.38231 1.66839C7.45655 1.59033 7.71857 1.53847 7.97076 1.52701C8.22296 1.51555 8.46532 1.54447 8.50081 1.62472ZM8.32394 2.23119C8.37362 2.14876 9.14821 2.05923 9.27104 2.13784C8.93969 2.16131 8.64164 2.26886 8.32394 2.23119ZM10.1712 16.7127C9.93646 16.7804 9.69464 16.7619 9.45172 16.7782C9.69191 16.7313 9.92936 16.6893 10.1712 16.7127ZM10.5631 17.0446C10.2782 17.1101 9.99541 17.1751 9.71047 17.234C9.65861 17.2449 9.60075 17.2319 9.54561 17.2291C9.54671 17.2231 9.54725 17.2166 9.54834 17.2106C9.7263 17.1762 9.90316 17.1407 10.0789 17.1047C10.2547 17.0686 10.4316 17.0321 10.6095 16.9955C10.6123 17.0026 10.6144 17.0091 10.6172 17.0162C10.5992 17.0255 10.5822 17.0397 10.5631 17.0446ZM10.7564 1.5543C10.5238 1.5483 10.2918 1.54175 10.0604 1.53411C9.82892 1.52646 9.59802 1.51882 9.36711 1.51063C9.36766 1.50135 9.36766 1.49262 9.3682 1.48334C9.46865 1.41565 9.75141 1.40692 10.0418 1.42548C10.3317 1.44404 10.6297 1.48825 10.7569 1.53028C10.7564 1.53847 10.7564 1.54611 10.7564 1.5543ZM10.9059 1.59906C11.0047 1.54338 11.1963 1.60616 11.2269 1.69951C10.9873 1.69405 10.9774 1.69077 10.9059 1.59906ZM11.2744 2.47629C11.2646 2.46155 11.2564 2.44517 11.2498 2.4288C11.2362 2.39495 11.2247 2.36111 11.2122 2.32672C11.2608 2.32453 11.3126 2.31034 11.3574 2.3218C11.4682 2.34964 11.4988 2.44681 11.5277 2.54779C11.4212 2.59365 11.335 2.56745 11.2744 2.47629ZM11.5888 2.10236C11.5812 2.11764 11.5599 2.13512 11.5435 2.13512C11.4998 2.13566 11.454 2.13512 11.4136 2.12201C11.3388 2.098 11.2673 2.06415 11.1892 2.03249C11.3022 1.95552 11.4878 1.96971 11.5703 2.05705C11.5817 2.06906 11.5937 2.09253 11.5888 2.10236ZM12.3361 2.66789C12.3803 2.69409 12.4262 2.71811 12.4677 2.74868C12.4781 2.75632 12.4791 2.78744 12.4731 2.80327C12.4699 2.812 12.4404 2.81964 12.4273 2.81473C12.3716 2.79344 12.3181 2.76778 12.3116 2.699C12.3198 2.68918 12.3279 2.67881 12.3361 2.66789ZM12.1309 2.66134C12.1604 2.66844 12.1904 2.67334 12.2193 2.68317C12.2422 2.69081 12.2641 2.70446 12.2859 2.71538C12.2848 2.72466 12.2832 2.73394 12.2821 2.74322C12.2575 2.7465 12.2308 2.75795 12.2095 2.7514C12.1784 2.74212 12.1505 2.72084 12.1243 2.70064C12.1189 2.69682 12.1282 2.67499 12.1309 2.66134ZM6.59079 0.632318C6.42157 0.680355 6.30311 0.867588 6.10932 0.834836C6.02471 0.820643 5.96085 0.853941 5.8877 0.888877C5.82438 0.919446 5.74905 0.917263 5.67917 0.930364C5.67863 0.922176 5.67808 0.913991 5.67754 0.906348C5.96958 0.774247 6.26381 0.649786 6.59079 0.632318ZM4.6573 1.6864C4.74682 1.65856 4.83962 1.64655 4.93132 1.6269C4.94443 1.62417 4.95807 1.61708 4.96899 1.6078C5.00338 1.57777 5.03668 1.54557 5.06834 1.51663C4.99301 1.50408 4.8811 1.58542 4.8156 1.47297C4.91822 1.35288 5.06561 1.29173 5.21245 1.22896C5.27195 1.2033 5.33309 1.17983 5.39041 1.14817C5.54325 1.06356 5.69883 1.02808 5.86586 1.04446C5.93301 1.05101 6.0067 1.02371 6.10168 1.00843C6.0602 0.990959 6.03945 0.982224 6.01926 0.97349C6.0198 0.96421 6.01816 0.956569 6.02089 0.953839C6.03399 0.94183 6.04764 0.923817 6.06292 0.920542C6.23488 0.88506 6.40737 0.850124 6.5826 0.825013C6.71142 0.807545 6.84134 0.801535 6.97072 0.792256C7.02312 0.788434 7.07771 0.796628 7.12738 0.784073C7.17815 0.771518 7.22237 0.735485 7.27204 0.717471C7.30425 0.705462 7.34082 0.705467 7.37576 0.702738C7.49585 0.692912 7.61594 0.684177 7.73767 0.654154C7.63068 0.597929 7.51168 0.612668 7.39868 0.579369C7.47565 0.56081 7.55153 0.538428 7.62904 0.524235C7.72839 0.506767 7.82883 0.493122 7.92873 0.484388C7.96749 0.481112 8.00733 0.493662 8.04664 0.499667C8.11378 0.510039 8.17055 0.502943 8.2366 0.466369C8.30975 0.425975 8.40746 0.430341 8.49426 0.417786C8.52264 0.413419 8.55376 0.421609 8.57996 0.412875C8.70333 0.37248 8.82615 0.380124 8.9779 0.428161C8.92222 0.453817 8.88456 0.470736 8.82178 0.499667C9.1171 0.497484 9.38076 0.614305 9.65697 0.571726C9.51068 0.464735 9.33709 0.538425 9.18151 0.493663C9.17987 0.481654 9.17824 0.469643 9.1766 0.45818C9.21645 0.448354 9.25685 0.429795 9.29669 0.431433C9.42225 0.436345 9.5478 0.453813 9.67335 0.45818C9.83056 0.464185 9.98232 0.48657 10.1297 0.551529C10.2072 0.585919 10.2924 0.60721 10.3759 0.620856C10.4146 0.627407 10.4703 0.61376 10.4965 0.587012C10.5522 0.530787 10.6046 0.549345 10.6668 0.56463C10.8241 0.603387 10.9824 0.65306 11.1428 0.665069C11.3197 0.67817 11.4867 0.742585 11.6652 0.74859C11.7258 0.750773 11.7842 0.806453 11.8432 0.837568C11.8443 0.843026 11.8454 0.848481 11.8465 0.85394C11.8083 0.854486 11.7695 0.853397 11.7313 0.856672C11.7062 0.858855 11.6816 0.867046 11.6565 0.872504C11.6751 0.892702 11.6898 0.924359 11.7122 0.930364C11.7897 0.952199 11.871 0.960937 11.9486 0.982772C11.9775 0.99096 12.001 1.01934 12.0272 1.03845C12.0222 1.04554 12.0173 1.05209 12.013 1.05919C11.9469 1.04663 11.8814 1.03408 11.8154 1.02153C11.7952 1.01771 11.7739 1.01115 11.7537 1.01334C11.6052 1.02862 11.6052 1.02917 11.4382 0.96694C11.4545 0.951655 11.4682 0.938006 11.4977 0.910167C11.4202 0.887786 11.3546 0.859403 11.2864 0.851761C11.204 0.842481 11.1188 0.855581 11.0359 0.850668C10.7684 0.834838 10.5003 0.828831 10.2378 0.786798C10.133 0.769876 10.008 0.749681 9.92172 0.659612C9.90262 0.639414 9.89552 0.606659 9.8775 0.567901L9.75577 0.567355C9.79126 0.702186 9.93428 0.69127 10.0183 0.793895C9.9381 0.806996 9.86986 0.823917 9.80054 0.827192C9.49539 0.841931 9.19025 0.84521 8.88565 0.865408C8.61053 0.883968 8.3365 0.916171 8.06247 0.951107C7.93855 0.966938 7.81628 1.00078 7.69291 1.02753C7.68145 1.03026 7.66998 1.03845 7.65907 1.0379C7.43417 1.02862 7.218 1.08703 7.00074 1.14052C6.89757 1.16618 6.79604 1.20167 6.69341 1.23169C6.59679 1.26007 6.49853 1.28464 6.40301 1.31685C6.36425 1.32995 6.3304 1.35943 6.29328 1.37853C6.18247 1.4353 6.0722 1.49316 5.9603 1.54666C5.94283 1.55485 5.91718 1.54174 5.87787 1.53628C5.95866 1.48224 6.02471 1.43803 6.09077 1.39436C6.08913 1.38781 6.08749 1.38126 6.08585 1.37471C5.85386 1.41838 5.6235 1.46423 5.39477 1.51172C5.39859 1.51827 5.40242 1.52537 5.40624 1.53192C5.3844 1.55703 5.36584 1.59524 5.33964 1.60561C5.16823 1.67385 5.00229 1.75518 4.84289 1.84689C4.68295 1.93914 4.52901 2.04177 4.3789 2.15203C4.32922 2.18861 4.27627 2.21809 4.22496 2.25084C4.17474 2.2825 4.14417 2.27049 4.1207 2.22081C4.10596 2.1897 4.07648 2.16787 4.04537 2.13293C4.08194 2.12037 4.12616 2.10564 4.17911 2.08817C4.16164 2.06743 4.14799 2.05105 4.12616 2.02485C4.1862 1.97572 4.24461 1.92604 4.30466 1.87964C4.34942 1.84471 4.39473 1.80868 4.44386 1.78193C4.51428 1.7459 4.58469 1.70878 4.6573 1.6864ZM2.63428 3.02162C2.6714 2.97413 2.69433 2.91517 2.73472 2.87095C2.82479 2.77215 2.90995 2.66079 3.0153 2.5871C3.15286 2.49048 3.19162 2.47683 3.31608 2.33163C3.33737 2.30652 3.37394 2.29669 3.40178 2.2765C3.48475 2.21699 3.56773 2.15695 3.64852 2.09254C3.69601 2.05487 3.76261 2.0303 3.74732 1.94133C3.74459 1.92495 3.79481 1.88674 3.82429 1.86436C3.93128 1.78357 4.03827 1.70278 4.14799 1.62581C4.21677 1.57723 4.29047 1.53683 4.36198 1.49262C4.36525 1.49917 4.36907 1.50627 4.37235 1.51282C4.24625 1.60998 4.1136 1.69732 3.99679 1.8054C3.87942 1.91403 3.77734 2.04232 3.66107 2.16896C3.68236 2.20662 3.68182 2.24375 3.60485 2.27268C3.56063 2.2896 3.52624 2.34855 3.48585 2.38622C3.40287 2.46482 3.31935 2.54343 3.23365 2.61821C3.1807 2.66407 3.12229 2.70337 3.06771 2.74759C3.02404 2.78307 2.97327 2.80381 2.94816 2.87041C2.93506 2.90534 2.86082 2.92008 2.8166 2.94846C2.73527 3.00032 2.65502 3.05601 2.57369 3.10896C2.56768 3.09913 2.56113 3.0893 2.55513 3.07948C2.58188 3.06037 2.61517 3.04618 2.63428 3.02162ZM2.07967 5.82087C2.09878 5.75427 2.11843 5.68822 2.13644 5.62108C2.13862 5.61835 2.14081 5.61507 2.14354 5.61234C2.16537 5.58505 2.18502 5.55612 2.20358 5.52719C2.22815 5.49826 2.24725 5.4655 2.26145 5.43002C2.268 5.41856 2.274 5.40709 2.28055 5.39563C2.28164 5.39399 2.28274 5.39236 2.28383 5.39017C2.28656 5.3929 2.28929 5.39563 2.29202 5.3989C2.32422 5.34049 2.35425 5.28591 2.38318 5.23241C2.42466 5.168 2.46124 5.1014 2.47598 5.02552C2.48635 5.02771 2.49672 5.02989 2.50818 5.03317C2.51528 4.99659 2.51855 4.95948 2.53002 4.92563C2.54148 4.89124 2.55786 4.8563 2.57969 4.82737C2.59006 4.81318 2.61736 4.81154 2.63701 4.80444C2.63755 4.81809 2.63756 4.8312 2.6381 4.84484C2.63646 4.84866 2.63483 4.85194 2.63319 4.85576C2.62336 4.86613 2.61681 4.88087 2.61572 4.89943C2.59716 4.9502 2.58024 5.00205 2.55076 5.04845C2.54476 5.04845 2.53875 5.049 2.5322 5.049C2.53493 5.05391 2.53711 5.05937 2.5393 5.06428C2.49563 5.12651 2.43722 5.17564 2.40501 5.24606C2.39791 5.26134 2.39628 5.27554 2.39846 5.28864C2.393 5.29792 2.38754 5.30719 2.38263 5.31647C2.37226 5.32248 2.36298 5.33285 2.35643 5.34814C2.33023 5.40982 2.29911 5.47532 2.28328 5.54192C2.28219 5.54137 2.28164 5.54083 2.28055 5.54029C2.21941 5.66802 2.15937 5.79357 2.09932 5.91858C2.09768 5.91967 2.0955 5.92076 2.09386 5.92185C2.09113 5.92349 2.08786 5.92513 2.08458 5.92677C2.08404 5.92731 2.08295 5.92731 2.0824 5.92786C2.08022 5.9284 2.07858 5.92895 2.07639 5.93004C2.06821 5.92622 2.06002 5.92294 2.05238 5.91912C2.06111 5.88637 2.07039 5.85362 2.07967 5.82087ZM2.01198 3.68322C2.01198 3.82897 1.9956 3.85135 1.89189 3.86227C1.92901 3.80659 1.96667 3.75036 2.01198 3.68322ZM2.00816 6.03485C2.0098 6.03594 2.01089 6.03649 2.01253 6.03758C1.92519 6.30397 1.83839 6.5709 1.75105 6.83838C1.72922 6.74176 1.89243 6.20243 2.00816 6.03485ZM1.06762 11.9407C0.958987 11.8282 0.906037 11.7 0.870009 11.5558C0.833981 11.4101 0.769568 11.2725 0.724806 11.1295C0.706246 11.0711 0.707338 11.0056 0.69915 10.9434C0.67131 10.737 0.640196 10.5307 0.617815 10.3233C0.609081 10.2425 0.619999 10.1595 0.619999 10.0771C0.619999 10.0454 0.612902 10.0137 0.609627 9.98208C0.601439 9.90238 0.593797 9.82268 0.586155 9.74298C0.597618 9.7408 0.608535 9.73862 0.619452 9.73589C0.635283 9.77574 0.660393 9.81394 0.665306 9.85489C0.676769 9.96078 0.670219 10.07 0.687687 10.1748C0.70843 10.2981 0.734087 10.4242 0.782124 10.5378C0.823065 10.636 0.806688 10.7381 0.835074 10.8347C0.875469 10.9745 0.904945 11.1169 0.943156 11.2578C0.915863 11.3664 0.926781 11.4821 0.944249 11.5946C0.938244 11.5553 0.932785 11.516 0.926781 11.4772C0.933877 11.5269 0.940428 11.5766 0.947524 11.6262C0.963901 11.6912 0.997745 11.7616 1.03159 11.8184C1.04906 11.8473 1.06871 11.8741 1.08945 11.8986C1.08509 11.9123 1.07853 11.9265 1.06762 11.9407ZM1.64624 13.337C1.63806 13.4014 1.62714 13.4658 1.61677 13.5352C1.55836 13.5445 1.42517 13.4599 1.39842 13.3911C1.36894 13.3157 1.33128 13.2437 1.29416 13.1711C1.25485 13.0941 1.24448 13.0182 1.27832 12.9254C1.3018 12.8616 1.30016 12.7884 1.31272 12.6973C1.35311 12.7819 1.39132 12.8468 1.41425 12.9178C1.42571 12.9527 1.40824 13.0002 1.4077 13.0417C1.4077 13.0652 1.41534 13.0881 1.41971 13.111C1.43445 13.0968 1.44918 13.0832 1.46338 13.0685C1.48194 13.0494 1.50322 13.0117 1.51796 13.0133C1.53925 13.0161 1.56327 13.0434 1.5731 13.0668C1.60094 13.1345 1.62332 13.2044 1.64515 13.2743C1.65061 13.2934 1.64897 13.3163 1.64624 13.337ZM1.64242 8.37939C1.63205 8.3843 1.62168 8.38866 1.61185 8.39357C1.59712 8.3701 1.56819 8.34554 1.56873 8.32316C1.57583 8.16868 1.58729 8.01474 1.5993 7.86135C1.60148 7.83296 1.61568 7.80622 1.63151 7.75654L1.64242 8.37939ZM1.53216 4.81809C1.54526 4.82191 1.55836 4.82628 1.57146 4.8301C1.55017 4.9038 1.54526 4.98786 1.50486 5.049C1.44318 5.14289 1.44045 5.24933 1.40442 5.34705C1.37222 5.43439 1.32309 5.51517 1.27887 5.5976C1.27123 5.61234 1.25103 5.62053 1.23629 5.63144C1.23193 5.62708 1.22756 5.62271 1.22319 5.61834C1.32363 5.35141 1.42517 5.08393 1.53216 4.81809ZM0.63583 6.54142C0.693692 6.33999 0.737908 6.13584 0.785399 5.9426C0.755376 5.91094 0.730812 5.88528 0.705702 5.85908C0.749918 5.83997 0.794679 5.82141 0.858546 5.79358C0.904946 5.64892 0.958987 5.48188 1.01303 5.31484C1.01412 5.31211 1.01467 5.30938 1.01576 5.30665C1.07308 5.17946 1.12603 5.05009 1.19153 4.92672C1.24339 4.8301 1.31872 4.80772 1.3673 4.86285C1.38313 4.88141 1.39296 4.92072 1.38368 4.94255C1.32527 5.08175 1.26522 5.2204 1.20245 5.35741C1.12439 5.52773 1.05888 5.70678 0.956258 5.86126C0.862914 6.00155 0.837258 6.1544 0.799592 6.30833C0.77339 6.41478 0.747188 6.52177 0.719348 6.63531C0.731358 6.63804 0.751008 6.64241 0.776118 6.64841C0.754829 6.75977 0.704063 6.84711 0.62764 6.92735C0.591612 6.96502 0.580696 7.0267 0.560498 7.07911C0.551219 7.10313 0.547397 7.12879 0.525562 7.15007C0.525562 6.93882 0.579059 6.73958 0.63583 6.54142ZM0.592705 12.1126C0.612902 12.1361 0.634738 12.1585 0.652752 12.1841C0.676224 12.218 0.698058 12.2535 0.718256 12.29C0.756467 12.3605 0.790858 12.4331 0.829615 12.5018C0.84872 12.5362 0.870556 12.5717 0.898396 12.5968C0.963355 12.6547 0.965539 12.6831 0.896758 12.7617C0.786491 12.5548 0.674586 12.3474 0.560498 12.1399C0.57087 12.1312 0.581787 12.1219 0.592705 12.1126Z" fill="#DB4D29"/>
</svg>
