<svg width="23" height="24" viewBox="0 0 23 24" fill="none" xmlns="http://www.w3.org/2000/svg">
<path d="M11.5 0C11.3007 0 11.1025 0.00510937 10.9056 0.0151875L0.564794 7.96837C0.208731 9.07655 0.0157471 10.2578 0.0157471 11.4843C0.0157471 17.8269 5.15747 22.9687 11.5001 22.9687C17.8427 22.9687 22.9844 17.8269 22.9844 11.4843C22.9844 5.14172 17.8426 0 11.5 0Z" fill="#FFDD40"/>
<path d="M21.9213 16.2046L15.0735 4.34381C15.3916 5.17762 15.5664 6.08161 15.5664 7.02581V21.5595C15.5664 22.0712 15.4078 22.5465 15.1376 22.9392L21.028 19.5383C22.1934 18.8655 22.5942 17.37 21.9213 16.2046Z" fill="#5C5C87"/>
<path d="M20.4494 19.759C20.1383 19.6604 20.0991 19.393 20.1098 19.2175C20.1152 19.1307 20.0613 19.0491 19.9789 19.0214C19.7337 18.9387 19.6774 18.7435 19.6711 18.6027C19.6669 18.5088 19.6005 18.4297 19.5082 18.4121C16.5896 17.8534 15.8363 15.2884 15.6892 14.6271C15.6744 14.5606 15.6271 14.5086 15.5664 14.4851V21.5596C15.5664 22.0713 15.4078 22.5465 15.1376 22.9392L20.5418 19.8191C20.5175 19.7919 20.4861 19.7706 20.4494 19.759Z" fill="#41416B"/>
<path d="M20.8421 16.8276L15.5664 7.68982V21.2526L20.405 18.4591C20.9752 18.1298 21.1714 17.398 20.8421 16.8276Z" fill="#41416B"/>
<path d="M19.6711 18.6027C19.6669 18.5088 19.6005 18.4297 19.5081 18.4121C16.5896 17.8534 15.8363 15.2884 15.6892 14.6271C15.6744 14.5606 15.6271 14.5086 15.5664 14.4851V21.2527L19.741 18.8425C19.6914 18.7634 19.6744 18.6758 19.6711 18.6027Z" fill="#35355E"/>
<path d="M15.1655 21.9035C15.0355 21.9035 14.909 21.8366 14.8387 21.7163C14.7332 21.536 14.7938 21.3043 14.9741 21.1988L20.2139 18.1326C20.6055 17.9065 20.7395 17.4065 20.5145 17.0168L14.8379 7.22833C14.7331 7.04763 14.7947 6.81616 14.9754 6.71135C15.156 6.60649 15.3875 6.66808 15.4923 6.84879L21.1693 16.6379C21.6032 17.3894 21.3451 18.3531 20.5942 18.7867L15.3562 21.8517C15.2961 21.8868 15.2304 21.9035 15.1655 21.9035Z" fill="#35355E"/>
<path d="M19.9789 19.0214C19.7337 18.9387 19.6774 18.7435 19.6711 18.6027C19.669 18.5557 19.6513 18.5124 19.6226 18.4787L14.9741 21.1988C14.7939 21.3043 14.7332 21.536 14.8387 21.7163C14.9091 21.8366 15.0356 21.9036 15.1655 21.9036C15.2304 21.9036 15.2962 21.8869 15.3562 21.8518L20.0729 19.0917C20.0499 19.0598 20.0178 19.0344 19.9789 19.0214Z" fill="#28284C"/>
<path d="M10.9056 0.0151978C10.7327 0.0240103 10.5609 0.0370884 10.3901 0.0534946L10.3902 0.0536353L9.53599 0.16801V0.167588C5.29821 0.897995 1.85552 3.95087 0.564819 7.96839V21.5595C0.564819 22.9052 1.65958 24 3.00527 24H13.2183C14.5639 24 15.6587 22.9052 15.6587 21.5596V7.02578C15.6587 3.85093 13.6879 1.12792 10.9056 0.0151978ZM8.11174 5.9252C7.31529 5.9252 6.66963 5.27954 6.66963 4.48314C6.66963 3.68668 7.31529 3.04103 8.11174 3.04103C8.90819 3.04103 9.55385 3.68668 9.55385 4.48314C9.55385 5.27954 8.90819 5.9252 8.11174 5.9252Z" fill="#FF7186"/>
<path d="M13.3737 23.9945C13.3576 23.9603 13.3332 23.9296 13.3 23.9069C13.0481 23.7352 13.0688 23.4909 13.1258 23.3228C13.1592 23.2242 13.1228 23.1128 13.0334 23.0593C12.8126 22.927 12.788 22.6927 12.8007 22.5358C12.8085 22.4383 12.7492 22.3492 12.6586 22.3123C11.3754 21.7905 11.253 20.6625 11.2692 20.1455C11.2735 20.0078 11.1543 19.9002 11.0172 19.9136C8.666 20.1443 8.7709 17.9231 8.86198 17.2194C8.87543 17.1152 8.81548 17.0175 8.71821 16.978C8.52607 16.8998 8.48028 16.6975 8.46945 16.5993C8.46523 16.5612 8.45201 16.5247 8.42965 16.4936L7.83687 15.6673C7.80143 15.618 7.74739 15.5855 7.68743 15.5755C7.55178 15.5527 7.48723 15.4771 7.45714 15.4015C7.41668 15.3 7.30596 15.2448 7.19848 15.265L6.16845 15.4587C6.12668 15.4666 6.08318 15.463 6.04376 15.4472C4.54029 14.841 5.18562 13.3118 5.40401 12.8817C5.44095 12.8089 5.43528 12.7218 5.39009 12.6538L5.20929 12.3819C5.17123 12.3247 5.10926 12.2886 5.04087 12.2814C3.00209 12.0673 2.39731 10.5354 2.23929 9.94863C2.20887 9.83556 2.09726 9.76652 1.98157 9.78461C1.70384 9.82802 1.56073 9.65889 1.49131 9.52014C1.44753 9.43263 1.35331 9.3805 1.2566 9.39564C0.801074 9.46713 0.638089 9.20041 0.586246 9.06902C0.580527 9.05449 0.57298 9.04094 0.564636 9.02795V21.5597C0.564777 22.9052 1.65954 24 3.00523 24H13.2182C13.2705 24 13.3222 23.9978 13.3737 23.9945Z" fill="#FF4155"/>
<path d="M7.35597 4.01883C7.47715 4.33435 7.77382 4.53821 8.11174 4.53821H8.11183C8.32076 4.53816 8.49007 4.3688 8.49002 4.15993C8.48997 3.95105 8.32066 3.78174 8.11179 3.78174H8.11174C8.07527 3.78174 8.06636 3.75872 8.06215 3.74766L6.9783 0.924988C6.74533 1.02488 6.51621 1.13199 6.29144 1.24655L7.35597 4.01883Z" fill="#C8CEFC"/>
<path d="M14.4125 7.02579C14.4125 3.55155 11.586 0.725037 8.11177 0.725037C7.85682 0.725037 7.60552 0.740693 7.3584 0.770271C5.32276 1.55768 3.56757 2.90805 2.28422 4.63099C1.97954 5.36969 1.81097 6.17838 1.81097 7.02583V21.5596C1.81097 22.2181 2.34676 22.7538 3.00526 22.7538H13.2182C13.8767 22.7538 14.4125 22.2181 14.4125 21.5596V7.02579ZM8.11172 5.92521C7.31527 5.92521 6.66961 5.27955 6.66961 4.48315C6.66961 3.68669 7.31527 3.04104 8.11172 3.04104C8.90818 3.04104 9.55383 3.68669 9.55383 4.48315C9.55383 5.27955 8.90818 5.92521 8.11172 5.92521Z" fill="#FF4155"/>
<path d="M12.8006 22.5358C12.8085 22.4383 12.7492 22.3492 12.6586 22.3123C11.3754 21.7905 11.253 20.6625 11.2692 20.1455C11.2735 20.0078 11.1543 19.9002 11.0172 19.9136C8.66599 20.1443 8.7709 17.9231 8.86198 17.2194C8.87543 17.1152 8.81548 17.0175 8.71821 16.978C8.52607 16.8998 8.48027 16.6974 8.46945 16.5993C8.46523 16.5612 8.45201 16.5247 8.42965 16.4936L7.83687 15.6673C7.80143 15.618 7.74738 15.5855 7.68743 15.5755C7.55177 15.5527 7.48723 15.4771 7.45713 15.4015C7.41668 15.3 7.30596 15.2448 7.19848 15.265L6.16845 15.4587C6.12668 15.4666 6.08318 15.463 6.04376 15.4472C4.54029 14.841 5.18562 13.3118 5.40401 12.8817C5.44095 12.8089 5.43527 12.7218 5.39009 12.6538L5.20929 12.3819C5.17123 12.3247 5.10926 12.2886 5.04087 12.2814C3.00209 12.0673 2.39731 10.5354 2.23929 9.94862C2.20887 9.83556 2.09726 9.76651 1.98157 9.78461C1.91768 9.79459 1.86124 9.79295 1.81085 9.78339V21.5597C1.81085 22.2182 2.34663 22.7539 3.00513 22.7539H12.8147C12.7969 22.6764 12.7955 22.5997 12.8006 22.5358Z" fill="#E80054"/>
<path d="M6.45377 20.0361C6.19694 19.9284 6.07609 19.6328 6.18391 19.3759L9.02734 12.6006C9.13511 12.3438 9.43075 12.2229 9.68753 12.3308C9.94436 12.4385 10.0652 12.7341 9.95739 12.9909L7.11395 19.7663C7.0067 20.0218 6.71186 20.1444 6.45377 20.0361Z" fill="#E3E7FC"/>
<path d="M6.10465 15.9042C5.13378 15.9042 4.34393 15.023 4.34393 13.9399C4.34393 12.8569 5.13378 11.9756 6.10465 11.9756C7.07553 11.9756 7.86537 12.8569 7.86537 13.9399C7.86537 15.0231 7.07548 15.9042 6.10465 15.9042ZM6.10465 12.9843C5.68995 12.9843 5.35259 13.413 5.35259 13.9399C5.35259 14.4669 5.69 14.8956 6.10465 14.8956C6.51935 14.8956 6.85671 14.4669 6.85671 13.9399C6.85671 13.413 6.51931 12.9843 6.10465 12.9843Z" fill="#E3E7FC"/>
<path d="M9.9448 20.5367C8.97393 20.5367 8.18408 19.6555 8.18408 18.5724C8.18408 17.4893 8.97393 16.6081 9.9448 16.6081C10.9157 16.6081 11.7055 17.4893 11.7055 18.5724C11.7056 19.6555 10.9157 20.5367 9.9448 20.5367ZM9.9448 17.6167C9.5301 17.6167 9.19274 18.0454 9.19274 18.5723C9.19274 19.0993 9.53015 19.528 9.9448 19.528C10.3595 19.528 10.6969 19.0993 10.6969 18.5723C10.6969 18.0455 10.3595 17.6167 9.9448 17.6167Z" fill="#E3E7FC"/>
<path d="M8.75555 7.91675H7.38586C7.17699 7.91675 7.00763 7.74739 7.00763 7.53851C7.00763 7.32964 7.17699 7.16028 7.38586 7.16028H8.75555C8.96443 7.16028 9.13379 7.32964 9.13379 7.53851C9.13379 7.74743 8.96443 7.91675 8.75555 7.91675Z" fill="#FF7186"/>
<path d="M9.85524 9.2829H6.28613C6.07726 9.2829 5.9079 9.11354 5.9079 8.90466C5.9079 8.69579 6.07726 8.52643 6.28613 8.52643H9.85524C10.0641 8.52643 10.2335 8.69579 10.2335 8.90466C10.2335 9.11354 10.0642 9.2829 9.85524 9.2829Z" fill="#FF7186"/>
<path d="M9.85524 10.649H6.28613C6.07726 10.649 5.9079 10.4796 5.9079 10.2708C5.9079 10.0619 6.07726 9.89252 6.28613 9.89252H9.85524C10.0641 9.89252 10.2335 10.0619 10.2335 10.2708C10.2335 10.4796 10.0642 10.649 9.85524 10.649Z" fill="#FF7186"/>
<path d="M14.7907 21.5595V7.02574C14.7907 3.51218 12.0635 0.623647 8.61477 0.365601C7.42869 0.672491 6.31696 1.16402 5.31219 1.8079C6.14633 1.35855 7.09973 1.10323 8.11176 1.10323C11.3774 1.10323 14.0343 3.76005 14.0343 7.02574V21.5595C14.0343 22.0095 13.6682 22.3755 13.2182 22.3755H3.00519C2.55519 22.3755 2.18915 22.0094 2.18915 21.5595V7.02574C2.18915 5.44015 2.81558 3.99813 3.83385 2.93402C2.93699 3.73868 2.1674 4.68213 1.5591 5.73096C1.47641 6.15002 1.43268 6.58287 1.43268 7.02579V21.5596C1.43268 22.4267 2.1381 23.1321 3.00519 23.1321H13.2182C14.0853 23.132 14.7907 22.4266 14.7907 21.5595Z" fill="#E80054"/>
<path d="M13.0335 23.0593C12.8126 22.9269 12.7881 22.6927 12.8007 22.5358C12.8055 22.4758 12.7848 22.419 12.7471 22.3756H3.00518C2.55518 22.3756 2.18913 22.0095 2.18913 21.5596V9.85787C2.13851 9.80162 2.06135 9.77199 1.98162 9.78446C1.70388 9.82787 1.56077 9.65874 1.49135 9.51999C1.47687 9.49102 1.45643 9.46641 1.43262 9.44635V21.5596C1.43262 22.4266 2.13804 23.1321 3.00513 23.1321H13.1053C13.0879 23.1031 13.064 23.0776 13.0335 23.0593Z" fill="#CC0053"/>
<path d="M9.53597 0.167964L8.16146 3.74767C8.15719 3.75873 8.14838 3.78175 8.11182 3.78175C7.90289 3.78175 7.73358 3.9511 7.73358 4.15998C7.73358 4.36885 7.90294 4.53821 8.11182 4.53821C8.44978 4.53821 8.7465 4.33435 8.86763 4.01884L10.3902 0.0535889C10.1022 0.0811982 9.81732 0.119495 9.53597 0.167964Z" fill="#E3E7FC"/>
</svg>
