<svg width="24" height="24" viewBox="0 0 24 24" xmlns="http://www.w3.org/2000/svg">
<path d="M23.2969 17.7422H0.703125C0.314812 17.7422 0 18.057 0 18.4453C0 20.128 1.36411 21.4922 3.04688 21.4922H20.9531C22.6358 21.4922 24 20.1281 24 18.4453C24 18.057 23.6852 17.7422 23.2969 17.7422Z"/>
<path d="M13.875 4.75725V4.38281C13.875 3.3473 13.0355 2.50781 12 2.50781C10.9645 2.50781 10.125 3.3473 10.125 4.38281V4.75725C10.7401 4.66467 11.3664 4.61719 12 4.61719C12.6336 4.61719 13.2599 4.66467 13.875 4.75725Z" />
<path d="M19.7899 9.24984C17.7093 7.16925 14.9431 6.02344 12.0007 6.02344C9.05831 6.02344 6.29208 7.16925 4.21148 9.24984C2.29753 11.1638 1.17539 13.6582 1.00781 16.3359H22.9935C22.826 13.6582 21.7039 11.1638 19.7899 9.24984Z"/>
</svg>