<svg width="20" height="20" viewBox="0 0 20 20" fill="none" xmlns="http://www.w3.org/2000/svg">
<path d="M17.5 4.16663H2.5C2.27898 4.16663 2.06702 4.25442 1.91074 4.4107C1.75446 4.56698 1.66666 4.77895 1.66666 4.99996C1.66666 5.22097 1.75446 5.43293 1.91074 5.58921C2.06702 5.7455 2.27898 5.83329 2.5 5.83329H4.16666V15.8333C4.16686 16.4963 4.43032 17.132 4.89912 17.6008C5.36791 18.0696 6.00368 18.3331 6.66666 18.3333H13.3333C13.9963 18.3331 14.6321 18.0697 15.1009 17.6009C15.5697 17.1321 15.8332 16.4963 15.8333 15.8333V5.83329H17.5C17.721 5.83329 17.933 5.7455 18.0893 5.58921C18.2455 5.43293 18.3333 5.22097 18.3333 4.99996C18.3333 4.77895 18.2455 4.56698 18.0893 4.4107C17.933 4.25442 17.721 4.16663 17.5 4.16663ZM9.16666 13.3333C9.16666 13.5543 9.07887 13.7663 8.92259 13.9226C8.76631 14.0788 8.55434 14.1666 8.33333 14.1666C8.11232 14.1666 7.90036 14.0788 7.74408 13.9226C7.5878 13.7663 7.5 13.5543 7.5 13.3333V9.16663C7.5 8.94561 7.5878 8.73365 7.74408 8.57737C7.90036 8.42109 8.11232 8.33329 8.33333 8.33329C8.55434 8.33329 8.76631 8.42109 8.92259 8.57737C9.07887 8.73365 9.16666 8.94561 9.16666 9.16663V13.3333ZM12.5 13.3333C12.5 13.5543 12.4122 13.7663 12.2559 13.9226C12.0996 14.0788 11.8877 14.1666 11.6667 14.1666C11.4457 14.1666 11.2337 14.0788 11.0774 13.9226C10.9211 13.7663 10.8333 13.5543 10.8333 13.3333V9.16663C10.8333 8.94561 10.9211 8.73365 11.0774 8.57737C11.2337 8.42109 11.4457 8.33329 11.6667 8.33329C11.8877 8.33329 12.0996 8.42109 12.2559 8.57737C12.4122 8.73365 12.5 8.94561 12.5 9.16663V13.3333Z" fill="#B8B8B8"/>
<path d="M8.33333 3.33329H11.6667C11.8877 3.33329 12.0996 3.2455 12.2559 3.08922C12.4122 2.93293 12.5 2.72097 12.5 2.49996C12.5 2.27895 12.4122 2.06698 12.2559 1.9107C12.0996 1.75442 11.8877 1.66663 11.6667 1.66663H8.33333C8.11232 1.66663 7.90036 1.75442 7.74408 1.9107C7.5878 2.06698 7.5 2.27895 7.5 2.49996C7.5 2.72097 7.5878 2.93293 7.74408 3.08922C7.90036 3.2455 8.11232 3.33329 8.33333 3.33329Z" fill="#B8B8B8"/>
</svg>
