<svg width="33" height="32" viewBox="0 0 33 32" style="border-radius: 7px;" fill="none" xmlns="http://www.w3.org/2000/svg">
<path d="M27.1667 10.0417C26.3889 10.3889 25.5486 10.625 24.6458 10.75C25.5903 10.1944 26.2361 9.38194 26.5833 8.3125C25.6806 8.84028 24.75 9.19444 23.7917 9.375C22.9444 8.45833 21.8819 8 20.6042 8C19.3958 8 18.3646 8.42708 17.5104 9.28125C16.6563 10.1354 16.2292 11.1667 16.2292 12.375C16.2292 12.7778 16.2639 13.1111 16.3333 13.375C14.5417 13.2778 12.8611 12.8264 11.2917 12.0208C9.72222 11.2153 8.38889 10.1389 7.29167 8.79167C6.88889 9.48611 6.6875 10.2222 6.6875 11C6.6875 12.5833 7.31944 13.7986 8.58333 14.6458C7.93056 14.6319 7.23611 14.4514 6.5 14.1042V14.1458C6.5 15.1875 6.84722 16.1146 7.54167 16.9271C8.23611 17.7396 9.09028 18.2431 10.1042 18.4375C9.70139 18.5486 9.34722 18.6042 9.04167 18.6042C8.86111 18.6042 8.59028 18.5764 8.22917 18.5208C8.52083 19.3958 9.03819 20.1181 9.78125 20.6875C10.5243 21.2569 11.3681 21.5486 12.3125 21.5625C10.7014 22.8125 8.88889 23.4375 6.875 23.4375C6.51389 23.4375 6.16667 23.4167 5.83333 23.375C7.88889 24.6806 10.125 25.3333 12.5417 25.3333C14.0972 25.3333 15.5556 25.0868 16.9167 24.5938C18.2778 24.1007 19.4444 23.441 20.4167 22.6146C21.3889 21.7882 22.2257 20.8368 22.9271 19.7604C23.6285 18.684 24.1493 17.559 24.4896 16.3854C24.8299 15.2118 25 14.0417 25 12.875C25 12.625 24.9931 12.4375 24.9792 12.3125C25.8542 11.6875 26.5833 10.9306 27.1667 10.0417ZM32.5 6V26C32.5 27.6528 31.9132 29.066 30.7396 30.2396C29.566 31.4132 28.1528 32 26.5 32H6.5C4.84722 32 3.43403 31.4132 2.26042 30.2396C1.08681 29.066 0.5 27.6528 0.5 26V6C0.5 4.34722 1.08681 2.93403 2.26042 1.76042C3.43403 0.586806 4.84722 0 6.5 0H26.5C28.1528 0 29.566 0.586806 30.7396 1.76042C31.9132 2.93403 32.5 4.34722 32.5 6Z" fill="white"/>
</svg>
