<svg width="16" height="16" viewBox="0 0 16 16" fill="none" xmlns="http://www.w3.org/2000/svg">
<path d="M8.00004 1.33331C6.25337 1.33331 4.83337 2.75331 4.83337 4.49998C4.83337 6.21331 6.17337 7.59998 7.92004 7.65998C7.97337 7.65331 8.02671 7.65331 8.06671 7.65998C8.08004 7.65998 8.08671 7.65998 8.10004 7.65998C8.10671 7.65998 8.10671 7.65998 8.11337 7.65998C9.82004 7.59998 11.16 6.21331 11.1667 4.49998C11.1667 2.75331 9.74671 1.33331 8.00004 1.33331Z" fill="#DB4D29"/>
<path d="M11.3866 9.43336C9.52664 8.19336 6.49331 8.19336 4.61997 9.43336C3.77331 10 3.30664 10.7667 3.30664 11.5867C3.30664 12.4067 3.77331 13.1667 4.61331 13.7267C5.54664 14.3534 6.77331 14.6667 7.99997 14.6667C9.22664 14.6667 10.4533 14.3534 11.3866 13.7267C12.2266 13.16 12.6933 12.4 12.6933 11.5734C12.6866 10.7534 12.2266 9.99336 11.3866 9.43336Z" fill="#DB4D29"/>
</svg>
