<svg width="44" height="44" viewBox="0 0 44 44" fill="none" xmlns="http://www.w3.org/2000/svg">
<rect width="44" height="44" rx="22" fill="#DB4D29" fill-opacity="0.8"/>
<path d="M30.4463 14.5101H29.9797L26.0363 10.5668C25.7213 10.2518 25.208 10.2518 24.8813 10.5668C24.5663 10.8818 24.5663 11.3951 24.8813 11.7218L27.6697 14.5101H16.3297L19.118 11.7218C19.433 11.4068 19.433 10.8935 19.118 10.5668C18.803 10.2518 18.2897 10.2518 17.963 10.5668L14.0313 14.5101H13.5647C12.5147 14.5101 10.333 14.5101 10.333 17.4968C10.333 18.6285 10.5663 19.3751 11.0563 19.8651C11.3363 20.1568 11.6747 20.3085 12.0363 20.3901C12.3747 20.4718 12.7363 20.4835 13.0863 20.4835H30.913C31.2747 20.4835 31.613 20.4601 31.9397 20.3901C32.9197 20.1568 33.6663 19.4568 33.6663 17.4968C33.6663 14.5101 31.4847 14.5101 30.4463 14.5101Z" fill="white"/>
<path d="M30.2248 22H13.6814C12.9581 22 12.4098 22.6417 12.5264 23.3533L13.5064 29.35C13.8331 31.3567 14.7081 33.6667 18.5931 33.6667H25.1381C29.0698 33.6667 29.7698 31.695 30.1898 29.49L31.3681 23.3883C31.5081 22.665 30.9598 22 30.2248 22ZM20.3781 29.525C20.3781 29.98 20.0164 30.3417 19.5731 30.3417C19.1181 30.3417 18.7564 29.98 18.7564 29.525V25.675C18.7564 25.2317 19.1181 24.8583 19.5731 24.8583C20.0164 24.8583 20.3781 25.2317 20.3781 25.675V29.525ZM25.3714 29.525C25.3714 29.98 25.0098 30.3417 24.5548 30.3417C24.1114 30.3417 23.7381 29.98 23.7381 29.525V25.675C23.7381 25.2317 24.1114 24.8583 24.5548 24.8583C25.0098 24.8583 25.3714 25.2317 25.3714 25.675V29.525Z" fill="white"/>
</svg>
