<svg width="24" height="24" viewBox="0 0 24 24" fill="none" xmlns="http://www.w3.org/2000/svg">
<path d="M22.5 12C22.5004 11.7711 22.4493 11.545 22.3507 11.3383C22.2521 11.1317 22.1084 10.9499 21.9302 10.8061L20.5778 9.67965L21.1971 8.06832C21.2774 7.85465 21.3093 7.62583 21.2906 7.39834C21.2718 7.17086 21.2029 6.95035 21.0887 6.75269C20.9745 6.55504 20.818 6.38515 20.6303 6.25526C20.4426 6.12537 20.2284 6.0387 20.0032 6.0015L18.2685 5.70194L17.9989 3.99682C17.9617 3.77157 17.875 3.55737 17.7451 3.36964C17.6152 3.18192 17.4453 3.02533 17.2476 2.91116C17.0499 2.79698 16.8293 2.72806 16.6018 2.70935C16.3742 2.69065 16.1454 2.72262 15.9317 2.80297L14.2797 3.41162L13.1939 2.06982C13.0454 1.89908 12.8619 1.76218 12.656 1.66836C12.45 1.57455 12.2264 1.526 12 1.526C11.7737 1.526 11.5501 1.57455 11.3441 1.66836C11.1382 1.76218 10.9547 1.89908 10.8062 2.06982L9.67969 3.42187L8.06876 2.80297C7.85505 2.72256 7.62616 2.69054 7.39858 2.70921C7.171 2.72789 6.95039 2.7968 6.75265 2.91098C6.5549 3.02516 6.38493 3.18177 6.25498 3.36953C6.12503 3.55729 6.03834 3.77153 6.00113 3.99682L5.70194 5.73193L3.9976 6.00075C3.7723 6.03797 3.55806 6.12467 3.37029 6.25461C3.18251 6.38455 3.02587 6.55449 2.91163 6.75221C2.7974 6.94993 2.72841 7.17052 2.70962 7.39809C2.69084 7.62567 2.72274 7.85458 2.80301 8.06835L3.41166 9.7207L2.06916 10.8061C1.89281 10.9512 1.75079 11.1335 1.65331 11.3399C1.55582 11.5464 1.5053 11.7719 1.50537 12.0002C1.50544 12.2285 1.55611 12.454 1.65372 12.6603C1.75134 12.8667 1.89347 13.0489 2.06991 13.1938L3.42233 14.3203L2.80301 15.9316C2.72272 16.1453 2.69079 16.3741 2.70953 16.6016C2.72826 16.8291 2.7972 17.0496 2.91137 17.2473C3.02553 17.445 3.1821 17.6148 3.3698 17.7447C3.5575 17.8746 3.77166 17.9613 3.99686 17.9985L5.73161 18.2981L6.00114 20.0032C6.03843 20.2284 6.12517 20.4425 6.25511 20.6302C6.38506 20.8179 6.55498 20.9744 6.75266 21.0886C6.95034 21.2028 7.17086 21.2717 7.39837 21.2904C7.62587 21.3092 7.8547 21.2773 8.0684 21.197L9.72038 20.5884L10.8062 21.9302C10.9511 22.1067 11.1333 22.2489 11.3397 22.3466C11.5462 22.4442 11.7717 22.4949 12 22.4949C12.2284 22.4949 12.4539 22.4442 12.6604 22.3466C12.8668 22.2489 13.049 22.1067 13.1939 21.9302L14.3204 20.5781L15.9314 21.197C16.1451 21.2774 16.374 21.3094 16.6016 21.2907C16.8291 21.272 17.0497 21.2031 17.2475 21.0889C17.4452 20.9748 17.6152 20.8182 17.7451 20.6304C17.8751 20.4427 17.9618 20.2285 17.999 20.0032L18.2982 18.2681L20.0026 17.9993C20.2279 17.962 20.4421 17.8753 20.6299 17.7454C20.8177 17.6155 20.9743 17.4455 21.0885 17.2478C21.2028 17.0501 21.2718 16.8295 21.2905 16.6019C21.3093 16.3743 21.2774 16.1454 21.1971 15.9316L20.5885 14.2793L21.931 13.1938C22.109 13.05 22.2525 12.8681 22.3509 12.6615C22.4494 12.4549 22.5003 12.2289 22.5 12Z" fill="#DB4D29"/>
<path d="M10.5897 15.5369C10.1052 15.5381 9.63356 15.3815 9.24603 15.0908L7.42485 13.7249C7.26576 13.6055 7.16061 13.4278 7.13252 13.2309C7.10443 13.034 7.15571 12.834 7.27508 12.6749C7.39445 12.5159 7.57212 12.4107 7.76902 12.3826C7.96592 12.3545 8.16591 12.4058 8.325 12.5252L10.1458 13.8911C10.3036 14.0078 10.5007 14.0585 10.6953 14.0324C10.8898 14.0063 11.0666 13.9054 11.188 13.7512L15.5328 8.16433C15.5933 8.08656 15.6685 8.02147 15.7542 7.97278C15.8398 7.92409 15.9342 7.89275 16.032 7.88054C16.1298 7.86833 16.229 7.8755 16.324 7.90163C16.419 7.92777 16.5079 7.97236 16.5856 8.03286C16.6634 8.09336 16.7285 8.16858 16.7772 8.25423C16.8259 8.33989 16.8572 8.43429 16.8694 8.53206C16.8816 8.62983 16.8745 8.72904 16.8483 8.82404C16.8222 8.91903 16.7776 9.00795 16.7171 9.08571L12.372 14.6726C12.1603 14.9428 11.8897 15.1611 11.5808 15.3109C11.2719 15.4606 10.9329 15.5379 10.5897 15.5369Z" fill="#F5F5F5"/>
</svg>
