<svg width="65" height="65" viewBox="0 0 65 65" fill="none" xmlns="http://www.w3.org/2000/svg">
<rect x="0.171875" y="0.273438" width="64.1851" height="64.1851" rx="32.0926" fill="#DB4D29"/>
<path d="M41.9457 23.7812H41.4109L36.8912 19.2615C36.5301 18.9005 35.9418 18.9005 35.5673 19.2615C35.2063 19.6225 35.2063 20.2109 35.5673 20.5853L38.7632 23.7812H25.7657L28.9616 20.5853C29.3227 20.2243 29.3227 19.6359 28.9616 19.2615C28.6006 18.9005 28.0122 18.9005 27.6378 19.2615L23.1315 23.7812H22.5966C21.3931 23.7812 18.8926 23.7812 18.8926 27.2044C18.8926 28.5015 19.16 29.3573 19.7216 29.9189C20.0426 30.2532 20.4303 30.427 20.8449 30.5206C21.2327 30.6142 21.6472 30.6276 22.0483 30.6276H42.4806C42.8951 30.6276 43.2829 30.6009 43.6573 30.5206C44.7806 30.2532 45.6364 29.4509 45.6364 27.2044C45.6364 23.7812 43.1358 23.7812 41.9457 23.7812Z" fill="white"/>
<path d="M41.6917 32.3662H22.7304C21.9013 32.3662 21.2728 33.1017 21.4065 33.9174L22.5298 40.7905C22.9042 43.0905 23.9071 45.7381 28.3599 45.7381H35.8616C40.3679 45.7381 41.1702 43.4783 41.6516 40.951L43.0022 33.9575C43.1626 33.1284 42.5341 32.3662 41.6917 32.3662ZM30.4058 40.9911C30.4058 41.5126 29.9913 41.9271 29.4832 41.9271C28.9617 41.9271 28.5471 41.5126 28.5471 40.9911V36.5784C28.5471 36.0702 28.9617 35.6423 29.4832 35.6423C29.9913 35.6423 30.4058 36.0702 30.4058 36.5784V40.9911ZM36.129 40.9911C36.129 41.5126 35.7145 41.9271 35.193 41.9271C34.6848 41.9271 34.2569 41.5126 34.2569 40.9911V36.5784C34.2569 36.0702 34.6848 35.6423 35.193 35.6423C35.7145 35.6423 36.129 36.0702 36.129 36.5784V40.9911Z" fill="white"/>
</svg>
