<svg width="24" height="26" viewBox="0 0 24 26" xmlns="http://www.w3.org/2000/svg">
<path d="M10.7056 19.48L8.27973 21.8971C7.27692 22.8999 5.6396 22.8999 4.63678 21.8971L2.21094 19.4712C1.21649 18.4772 1.21649 16.8399 2.21094 15.837L4.63678 13.4112L10.7056 19.48ZM22.217 12.8027L11.3053 1.89933C11.117 1.7022 10.8424 1.60803 10.5767 1.65072C10.3025 1.69383 10.0711 1.85664 9.94258 2.09646L5.03104 11.3796L12.7539 19.1029L22.0111 14.1654C22.2514 14.0457 22.4146 13.8055 22.4573 13.5397C22.5 13.2656 22.4054 12.9998 22.217 12.8027ZM3.42805 23.1058L1.0022 20.6799C0.65942 20.3372 0.393649 19.9601 0.196517 19.5486C-0.232065 20.7486 0.0420771 22.1457 1.0022 23.1058C1.65386 23.757 2.51103 24.1174 3.42805 24.1174C3.82231 24.1174 4.2082 24.0488 4.56814 23.9203C4.14793 23.7227 3.76246 23.4486 3.42805 23.1058ZM13.4311 22.1971L11.9227 20.6887L9.48805 23.1142C9.28255 23.3201 9.05947 23.5001 8.81964 23.6545L10.3967 25.2315C10.7997 25.6346 11.3397 25.8573 11.9139 25.8573C12.4881 25.8573 13.0285 25.6346 13.4311 25.2315C14.2623 24.3915 14.2623 23.0371 13.4311 22.1971ZM16.2855 2.71422V0.999895C16.2855 0.52653 15.9021 0.142731 15.4284 0.142731C14.9546 0.142731 14.5712 0.52653 14.5712 0.999895V2.71422C14.5712 3.18759 14.9546 3.57139 15.4284 3.57139C15.9021 3.57139 16.2855 3.18759 16.2855 2.71422ZM24 8.71396C24 8.24059 23.6166 7.85679 23.1428 7.85679H21.4285C20.9547 7.85679 20.5713 8.24059 20.5713 8.71396C20.5713 9.18733 20.9547 9.57112 21.4285 9.57112H23.1428C23.6166 9.57112 24 9.18733 24 8.71396ZM19.4631 5.89134L21.1774 4.17701C21.5122 3.84218 21.5122 3.29976 21.1774 2.96493C20.8426 2.6301 20.3001 2.6301 19.9653 2.96493L18.251 4.67926C17.9161 5.01409 17.9161 5.55651 18.251 5.89134C18.4184 6.05876 18.6377 6.14247 18.857 6.14247C19.0763 6.14247 19.2956 6.05876 19.4631 5.89134Z" />
</svg>
