<svg width="20" height="20" viewBox="0 0 20 20" fill="none" xmlns="http://www.w3.org/2000/svg">
<path opacity="0.4" d="M9.99984 18.3333C14.6022 18.3333 18.3332 14.6023 18.3332 9.99996C18.3332 5.39759 14.6022 1.66663 9.99984 1.66663C5.39746 1.66663 1.6665 5.39759 1.6665 9.99996C1.6665 14.6023 5.39746 18.3333 9.99984 18.3333Z" fill="#A5A5A5"/>
<path d="M10.8831 10L12.7998 8.08338C13.0415 7.84172 13.0415 7.44172 12.7998 7.20005C12.5581 6.95838 12.1581 6.95838 11.9165 7.20005L9.9998 9.11671L8.08314 7.20005C7.84147 6.95838 7.44147 6.95838 7.1998 7.20005C6.95814 7.44172 6.95814 7.84172 7.1998 8.08338L9.11647 10L7.1998 11.9167C6.95814 12.1584 6.95814 12.5584 7.1998 12.8C7.3248 12.925 7.48314 12.9834 7.64147 12.9834C7.7998 12.9834 7.95814 12.925 8.08314 12.8L9.9998 10.8834L11.9165 12.8C12.0415 12.925 12.1998 12.9834 12.3581 12.9834C12.5165 12.9834 12.6748 12.925 12.7998 12.8C13.0415 12.5584 13.0415 12.1584 12.7998 11.9167L10.8831 10Z" fill="#A5A5A5"/>
</svg>
