<svg xmlns="http://www.w3.org/2000/svg" width="7" height="12" viewBox="0 0 7 12" fill="none">
  <path d="M6.02987 8.48116e-08C5.76225 1.08208e-07 5.53644 0.0920507 5.35245 0.276151L0.342891 5.23849C0.108721 5.46444 -5.50142e-07 5.70711 -5.24537e-07 6C-4.98932e-07 6.29289 0.108721 6.54393 0.334528 6.76151L5.35245 11.7238C5.53644 11.9079 5.76225 12 6.02987 12C6.56511 12 7 11.5732 7 11.0377C7 10.7699 6.89128 10.5272 6.69892 10.3264L2.29988 5.99163L6.69892 1.66527C6.89128 1.4728 7 1.23013 7 0.962343C7 0.426778 6.56511 3.8019e-08 6.02987 8.48116e-08Z" fill="black"/>
</svg>