<svg width="24" height="24" viewBox="0 0 24 24" fill="none" xmlns="http://www.w3.org/2000/svg">
<path d="M12.0001 20.0123C9.25548 20.0123 6.52317 20.0123 3.77855 20.0123C3.15086 20.0123 2.67086 19.5323 2.64625 18.9046C2.63394 18.24 3.07702 17.7231 3.72932 17.7231C6.14163 17.7108 8.56625 17.6985 10.9786 17.6985C14.0555 17.6985 17.1201 17.7108 20.197 17.6985C20.7262 17.6985 21.2678 18.1662 21.3416 18.5969C21.4524 19.2246 21.1324 19.8031 20.5662 19.9877C20.5047 20.0123 20.4309 20.0123 20.3693 20.0123C17.5755 20.0123 14.7816 20.0123 12.0001 20.0123Z" fill="#DB4D29"/>
<path d="M20.1232 14.6708C19.6801 11.1631 17.0093 8.32005 13.5386 7.65544C13.4893 7.64313 13.4278 7.63082 13.3786 7.61852C13.2678 7.5939 13.194 7.49544 13.194 7.38467V6.33852C13.3047 6.3139 13.4032 6.28928 13.5017 6.26467C14.0309 6.11698 14.4001 5.57544 14.3386 5.0339C14.2893 4.51698 13.8217 4.00005 13.354 3.98775C12.4924 3.97544 11.6309 3.97544 10.7693 3.98775C10.2032 4.00005 9.74781 4.44313 9.68627 4.99698C9.62473 5.57544 9.96935 6.09236 10.5109 6.25236C10.6093 6.27698 10.7078 6.30159 10.8309 6.32621C10.8309 6.70775 10.8432 7.06467 10.8186 7.4339C10.8186 7.49544 10.7078 7.58159 10.634 7.5939C7.92627 8.11082 5.93242 9.58775 4.66473 12.0247C4.06165 13.1816 3.79089 14.437 3.8155 15.7539C3.82781 16.3201 4.32012 16.837 4.83704 16.837H19.077C19.6432 16.837 20.1478 16.357 20.1601 15.7908C20.1847 15.4339 20.1724 15.0524 20.1232 14.6708ZM17.1324 15.1631C17.1201 15.1631 17.0955 15.1631 17.0832 15.1631C16.874 15.1631 16.6893 15.0031 16.6524 14.7816C16.3078 11.9754 13.994 10.8554 13.8955 10.8062C13.6863 10.7077 13.5878 10.4493 13.6863 10.2401C13.7847 10.0308 14.0432 9.93236 14.2524 10.0308C14.3632 10.0801 17.0955 11.3847 17.5017 14.6708C17.5386 14.917 17.3663 15.1262 17.1324 15.1631Z" fill="#DB4D29"/>
</svg>
