<svg width="24" height="24" viewBox="0 0 24 24" fill="none" xmlns="http://www.w3.org/2000/svg">
<path d="M11.1953 17.2188H12.8016V18.825H11.1953V17.2188Z" fill="#50429B"/>
<path d="M17.6016 17.2188H19.2078V18.825H17.6016V17.2188Z" fill="#50429B"/>
<path d="M4.79688 11.1953H6.40319V12.8015H4.79688V11.1953Z" fill="#50429B"/>
<path d="M4.79688 17.2188H6.40319V18.825H4.79688V17.2188Z" fill="#50429B"/>
<path d="M21.414 1.50623H20.8875V3.71564C20.8875 4.10395 20.5727 4.41877 20.1844 4.41877C19.7961 4.41877 19.4813 4.10395 19.4813 3.71564V1.50623V0.703125C19.4813 0.314812 19.1664 0 18.7781 0C18.3898 0 18.075 0.314812 18.075 0.703125V1.50623H16.3688V3.71564C16.3688 4.10395 16.0539 4.41877 15.6656 4.41877C15.2773 4.41877 14.9625 4.10395 14.9625 3.71564V1.50623V0.703125C14.9625 0.314812 14.6477 0 14.2594 0C13.8711 0 13.5563 0.314812 13.5563 0.703125V1.50623H11.85V3.71564C11.85 4.10395 11.5352 4.41877 11.1469 4.41877C10.7586 4.41877 10.4438 4.10395 10.4438 3.71564V1.50623V0.703125C10.4438 0.314812 10.1289 0 9.74063 0C9.35231 0 9.0375 0.314812 9.0375 0.703125V1.50623H7.33125V3.71564C7.33125 4.10395 7.01644 4.41877 6.62812 4.41877C6.23981 4.41877 5.925 4.10395 5.925 3.71564V1.50623V0.703125C5.925 0.314812 5.61019 0 5.22188 0C4.83356 0 4.51875 0.314812 4.51875 0.703125V1.50623H2.58591C1.16006 1.50623 0 2.6663 0 4.09219V6.02498H24V4.09219C24 2.6663 22.8399 1.50623 21.414 1.50623Z" fill="#50429B"/>
<path d="M0 21.4125C0 22.8384 1.16006 23.9985 2.58591 23.9985H21.414C22.8399 23.9985 24 22.8384 24 21.4125V7.42969H0V21.4125ZM14.2094 19.5297C14.2094 19.918 13.8945 20.2328 13.5062 20.2328H10.4937C10.1054 20.2328 9.79055 19.918 9.79055 19.5297V16.5172C9.79055 16.1289 10.1054 15.8141 10.4937 15.8141H13.5062C13.8945 15.8141 14.2094 16.1289 14.2094 16.5172V19.5297ZM16.1922 10.4922C16.1922 10.1039 16.507 9.78909 16.8953 9.78909H19.9078C20.2961 9.78909 20.6109 10.1039 20.6109 10.4922V13.5047C20.6109 13.893 20.2961 14.2078 19.9078 14.2078H16.8953C16.507 14.2078 16.1922 13.893 16.1922 13.5047V10.4922ZM16.1922 16.5172C16.1922 16.1289 16.507 15.8141 16.8953 15.8141H19.9078C20.2961 15.8141 20.6109 16.1289 20.6109 16.5172V19.5297C20.6109 19.918 20.2961 20.2328 19.9078 20.2328H16.8953C16.507 20.2328 16.1922 19.918 16.1922 19.5297V16.5172ZM9.90525 11.5013C10.1798 11.2267 10.625 11.2267 10.8996 11.5013L11.4675 12.0692L13.1004 10.4362C13.375 10.1617 13.8202 10.1616 14.0948 10.4362C14.3694 10.7108 14.3694 11.156 14.0948 11.4306L11.9648 13.5607C11.8329 13.6926 11.6541 13.7667 11.4676 13.7667C11.2811 13.7667 11.1023 13.6927 10.9704 13.5607L9.9053 12.4956C9.63066 12.2211 9.63066 11.7758 9.90525 11.5013ZM3.38902 10.4922C3.38902 10.1039 3.70383 9.78909 4.09214 9.78909H7.1047C7.49302 9.78909 7.80783 10.1039 7.80783 10.4922V13.5047C7.80783 13.893 7.49302 14.2078 7.1047 14.2078H4.09214C3.70383 14.2078 3.38902 13.893 3.38902 13.5047V10.4922ZM3.38902 16.5172C3.38902 16.1289 3.70383 15.8141 4.09214 15.8141H7.1047C7.49302 15.8141 7.80783 16.1289 7.80783 16.5172V19.5297C7.80783 19.918 7.49302 20.2328 7.1047 20.2328H4.09214C3.70383 20.2328 3.38902 19.918 3.38902 19.5297V16.5172Z" fill="#50429B"/>
<path d="M17.6016 11.1953H19.2078V12.8015H17.6016V11.1953Z" fill="#50429B"/>
</svg>