<svg xmlns="http://www.w3.org/2000/svg" width="28" height="28" viewBox="0 0 28 28" fill="none">
  <path d="M14.001 0.875C11.2172 0.878184 8.54831 1.98545 6.57987 3.9539C4.61143 5.92234 3.50416 8.5912 3.50098 11.375C3.50098 19.3786 13.3227 26.7302 13.741 27.0393C13.8163 27.095 13.9074 27.125 14.001 27.125C14.0946 27.125 14.1857 27.095 14.261 27.0393C14.6792 26.7302 24.501 19.3786 24.501 11.375C24.4978 8.5912 23.3905 5.92234 21.4221 3.9539C19.4536 1.98545 16.7848 0.878184 14.001 0.875ZM14.001 19.25C12.4434 19.25 10.9209 18.7881 9.62586 17.9228C8.33082 17.0575 7.32147 15.8276 6.72543 14.3886C6.12939 12.9497 5.97343 11.3663 6.27729 9.83866C6.58115 8.31106 7.33117 6.90787 8.43251 5.80653C9.53385 4.7052 10.937 3.95517 12.4646 3.65132C13.9922 3.34746 15.5756 3.50341 17.0146 4.09945C18.4536 4.69549 19.6835 5.70485 20.5488 6.99988C21.4141 8.29492 21.876 9.81747 21.876 11.375C21.8736 13.4629 21.0432 15.4645 19.5668 16.9408C18.0905 18.4172 16.0888 19.2476 14.001 19.25ZM18.8135 9.1875C18.8304 9.66912 18.7175 10.1464 18.4866 10.5694C18.2557 10.9924 17.9152 11.3455 17.501 11.5918V15.3125C17.501 15.5446 17.4088 15.7671 17.2447 15.9312C17.0806 16.0953 16.858 16.1875 16.626 16.1875C16.3939 16.1875 16.1714 16.0953 16.0073 15.9312C15.8432 15.7671 15.751 15.5446 15.751 15.3125V11.5918C15.3367 11.3455 14.9963 10.9924 14.7654 10.5694C14.5344 10.1464 14.4215 9.66912 14.4385 9.1875C14.4385 7.73999 15.4199 6.5625 16.626 6.5625C17.8321 6.5625 18.8135 7.73999 18.8135 9.1875ZM13.5635 7V10.5C13.5631 10.848 13.4247 11.1816 13.1786 11.4277C12.9326 11.6737 12.599 11.8121 12.251 11.8125V15.3125C12.251 15.5446 12.1588 15.7671 11.9947 15.9312C11.8306 16.0953 11.608 16.1875 11.376 16.1875C11.1439 16.1875 10.9214 16.0953 10.7573 15.9312C10.5932 15.7671 10.501 15.5446 10.501 15.3125V11.8125C10.153 11.8121 9.81938 11.6737 9.57332 11.4277C9.32726 11.1816 9.18886 10.848 9.18848 10.5V7C9.18848 6.88397 9.23457 6.77269 9.31662 6.69064C9.39866 6.60859 9.50994 6.5625 9.62598 6.5625C9.74201 6.5625 9.85329 6.60859 9.93534 6.69064C10.0174 6.77269 10.0635 6.88397 10.0635 7V9.1875H10.9385V7C10.9385 6.88397 10.9846 6.77269 11.0666 6.69064C11.1487 6.60859 11.2599 6.5625 11.376 6.5625C11.492 6.5625 11.6033 6.60859 11.6853 6.69064C11.7674 6.77269 11.8135 6.88397 11.8135 7V9.1875H12.6885V7C12.6885 6.88397 12.7346 6.77269 12.8166 6.69064C12.8987 6.60859 13.0099 6.5625 13.126 6.5625C13.242 6.5625 13.3533 6.60859 13.4353 6.69064C13.5174 6.77269 13.5635 6.88397 13.5635 7Z" fill="#DB4D29"/>
</svg>