<svg xmlns="http://www.w3.org/2000/svg" width="236" height="61" viewBox="0 0 236 61" fill="none">
<path d="M109.524 57.2211C109.958 57.7391 109.628 58.2743 108.792 58.3287C108.603 58.3401 108.405 58.333 108.218 58.3043C107.686 58.2228 107.296 58.3644 107.005 58.6535C106.581 58.5376 107.213 57.9795 106.431 58.0167C106.423 58.0167 106.344 57.7906 106.384 57.6876C106.429 57.5788 106.577 57.4901 106.777 57.3027C106.388 57.254 106.136 57.2225 105.862 57.1896C105.604 57.513 105.975 57.9967 105.276 58.1383C105.145 57.8922 104.998 57.6175 104.85 57.3413C104.772 57.3527 104.694 57.3656 104.614 57.3771C104.69 57.5989 104.765 57.8192 104.846 58.0596C104.533 58.1555 104.214 58.2514 103.821 58.3716C103.666 58.1999 103.512 58.031 103.226 57.7162C103.126 58.1684 103.067 58.436 102.983 58.8223C102.828 58.5576 102.748 58.4202 102.642 58.2399C102.55 58.3959 102.483 58.5104 102.398 58.6535C102.14 58.5347 102.229 58.1612 101.721 58.2271C101.436 58.2643 101.082 58.2972 101.052 57.9037C101.037 57.7248 100.081 57.9266 99.9308 58.2085C99.8715 58.3215 99.8641 58.4489 99.6695 58.5619C99.6472 58.2915 99.6251 58.0224 99.601 57.752C99.5509 57.7506 99.499 57.7491 99.4489 57.7477C99.3933 57.9309 99.3396 58.114 99.2524 58.4002C98.9114 58.2313 98.6316 58.0954 98.3128 57.938C98.0218 57.9995 97.9458 58.2313 98.0978 58.8739C97.2822 58.7708 96.3482 58.8138 95.7199 58.5261C95.1175 58.2514 94.8913 58.6363 94.491 58.5934C94.263 58.5691 94.6375 59.1314 94.0555 58.8095C93.9647 58.7594 93.6885 58.9068 93.5013 58.8968C93.2251 58.8839 92.9489 58.7723 92.6783 58.7794C92.4448 58.7851 92.3039 59.2387 91.9573 58.851C91.9017 58.8939 91.798 58.9368 91.798 58.9812C91.798 59.2158 91.5959 59.2874 91.3457 59.203C91.2327 59.1643 91.2178 58.9826 91.1121 58.7751C90.9509 58.9597 90.8156 59.1157 90.697 59.2516C90.0353 58.8839 89.5497 58.612 88.9715 58.29C88.9511 58.5776 88.9343 58.8281 88.9158 59.0799C88.8509 59.0842 88.788 59.0899 88.7231 59.0942C88.6601 58.9755 88.5989 58.8552 88.5451 58.7565C88.0354 59.1171 87.5128 59.4877 86.9567 59.8798C86.8641 59.6967 86.8047 59.5793 86.7528 59.4763C86.5286 59.5264 86.3044 59.5765 85.9596 59.6537C86.0597 59.5006 86.0801 59.452 86.119 59.4119C86.4322 59.0971 86.8974 59.2702 87.3126 59.2459C87.4794 59.0341 87.6518 58.8195 87.8149 58.612C87.5313 58.3931 87.3979 58.3687 87.1736 58.6349C86.7899 59.0885 86.7436 59.0699 86.1413 58.7923C86.0764 58.9096 86.0152 59.0198 85.9244 59.1815C85.7928 59.1143 85.6741 59.0556 85.5333 58.9855C85.4628 59.1028 85.3943 59.2173 85.3201 59.3375C85.2553 59.3117 85.1552 59.2974 85.1311 59.2602C84.9254 58.9354 84.9291 58.9454 84.4361 58.9196C84.2711 58.9111 84.0987 58.8409 83.956 58.7723C83.6317 58.6149 83.324 58.4417 82.9959 58.2671C82.8643 58.5733 82.6753 58.6893 82.1953 58.6707C81.9729 58.6621 81.7301 59.0055 81.4984 59.1887C81.4632 59.1629 81.3983 59.1157 81.2667 59.0198C81.1092 59.1729 80.9905 59.3575 80.7866 59.4677C80.5457 59.5965 80.2325 59.6595 79.9434 59.7553C79.6097 59.545 78.8832 59.6294 79.037 59.0999C78.6441 59.1457 78.6348 59.6423 78.0899 59.3289C77.8916 59.2144 77.5969 59.2087 77.5079 59.0527C77.2966 59.1758 77.0891 59.2974 76.8815 59.419C76.7165 59.2917 76.5553 59.1658 76.3014 58.9683C76.1549 59.1271 76.0085 59.2874 75.8639 59.4448C75.3968 59.1786 75.0576 58.9697 74.6944 58.7823C74.3811 58.6206 74.0679 58.7265 73.7936 59.0627C73.4581 58.9254 73.1227 58.788 72.7372 58.6306C72.2998 58.9297 71.4508 58.8023 71.1802 59.3403C71.1636 59.3718 70.9208 59.3761 70.8077 59.3475C70.6428 59.306 70.4092 59.1414 70.361 59.1686C69.8309 59.4577 69.6957 59.067 69.4288 58.9182C69.3231 58.9783 69.2174 59.0384 69.0877 59.1128C69.0302 58.9783 68.9802 58.8595 68.9061 58.6907C68.4927 59.1858 67.8107 59.2073 67.1435 59.2073C67.0452 59.2073 66.9433 58.9583 66.8172 58.7909C66.352 59.3561 65.5847 59.1887 64.9193 59.1085C64.6562 59.077 64.4559 58.7694 64.2298 58.5891C64.0945 58.7136 63.8925 58.8996 63.6534 59.1185C63.1734 58.954 62.6025 58.9139 62.4579 58.4331C62.4023 58.6163 62.3467 58.7994 62.2874 58.9998C62.0669 58.6134 61.181 59.3947 61.1921 58.6592C60.8622 58.685 60.5323 58.7107 60.2005 58.7365C59.8706 58.7622 59.5426 58.798 59.2108 58.8095C58.8568 58.8209 58.8549 58.8109 58.5435 59.2545C59.2719 59.2588 59.941 59.3461 60.2876 60.0057C59.9391 59.897 59.7241 59.8283 59.4961 59.7568C59.435 59.8512 59.3646 59.9628 59.3293 60.0158C59.0921 60.0057 58.8883 59.9972 58.5899 59.9857C58.5676 59.8755 58.5231 59.6695 58.4638 59.3904C57.9541 59.5936 57.2813 59.5493 57.3647 60.1088C56.8031 60.1646 56.742 60.5967 56.2471 60.8128C56.2156 60.6096 56.1878 60.4379 56.1581 60.2562C55.9079 60.1231 55.148 60.8171 55.4056 59.7754C55.0924 60.083 55.0034 60.2447 54.8347 60.3206C54.6197 60.4179 54.3399 60.4465 53.9784 60.5309C53.934 60.2404 53.8951 59.9714 53.8562 59.7153C53.6226 59.7682 53.4095 59.8684 53.2186 59.8483C52.9406 59.8197 52.9165 59.3818 52.5328 59.5307C52.1936 59.6623 52.0602 59.5793 51.8137 59.4477C51.7136 59.3947 51.3763 59.4763 51.2373 59.565C50.9222 59.7696 50.6145 59.8269 50.2345 59.6738C49.9695 59.4577 50.9351 59.0928 49.9954 58.944C49.9843 59.1057 49.9732 59.2616 49.9602 59.4562C49.4542 59.369 49.0057 59.2917 48.5405 59.2101C48.509 59.027 48.4756 58.8409 48.4292 58.5719C48.2698 58.7837 48.1698 58.9139 48.0679 59.0484C47.9252 58.9382 47.7972 58.8381 47.6601 58.7322C47.7546 58.6664 47.851 58.6005 47.9807 58.509C47.7231 58.3773 47.4673 58.2471 47.143 58.0811C47.1356 57.8965 47.1245 57.6447 47.1097 57.2984C46.8595 57.5001 46.6389 57.6046 46.5851 57.742C46.5425 57.8507 46.7056 57.9995 46.7908 58.1527C46.0606 58.2299 46.0865 57.8107 45.8752 57.5531C45.6732 57.7248 45.6306 58.0682 45.1209 57.9108C44.715 57.7849 44.2164 57.7076 43.944 57.4944C43.7086 57.3098 43.7308 56.9635 43.5974 56.5629C43.5028 56.7274 43.4361 56.8462 43.3694 56.9635C43.1155 57.0422 43.931 57.4229 42.9913 57.4386C42.8764 57.44 42.7744 57.679 42.5743 57.9165C42.5594 57.5531 42.5483 57.3012 42.5353 56.9936C41.7309 57.3957 40.6134 57.2597 40.0277 57.9967C40.0833 57.7305 39.4901 57.7835 39.8126 57.4472C40.1407 57.1052 40.1722 56.6587 39.6347 56.2795C39.4438 56.145 39.4512 55.8717 39.327 55.5569C39.0842 55.7486 38.9044 55.8917 38.7358 56.0248C38.6227 55.7644 38.5078 55.4968 38.3354 55.099C38.1445 55.3737 37.5756 55.3036 37.9703 55.6685C38.1724 55.8545 38.2242 56.1336 38.2742 56.3768C38.2946 56.4784 38.1352 56.5972 38.0426 56.7303C38.2872 56.829 38.5801 56.9492 38.9471 57.098C39.0546 56.9478 39.1472 56.819 39.2899 56.6201C39.4493 56.7618 39.5846 56.882 39.7107 56.995C39.4512 57.42 39.2084 57.8178 38.8914 58.3372C38.7209 58.0854 38.5708 57.9165 38.4967 57.7319C38.4466 57.6103 38.53 57.4644 38.5022 57.3341C38.4633 57.1567 38.0333 57.0952 37.6626 57.2011C36.8508 56.384 36.8508 56.384 37.2419 55.9747C36.5932 56.0477 36.0686 55.7 35.2735 55.9476C35.5441 56.0449 35.635 56.0949 35.7351 56.1092C35.8722 56.1293 36.0168 56.125 36.2244 56.1336C36.204 56.4312 36.1836 56.7203 36.1632 57.0093C36.5932 57.1825 36.9732 57.3356 37.4755 57.5373C37.1122 57.7048 36.8082 57.845 36.5654 57.9566C36.0446 57.9566 35.7165 57.5559 35.9074 56.2638C35.583 56.3811 35.3255 56.4756 35.0549 56.5743C35.2069 56.9735 35.6313 57.327 35.1642 57.7091C35.0771 57.5617 34.9937 57.4214 34.9103 57.2769C34.4247 57.4844 33.7371 58.0282 33.8705 58.1426C34.3431 58.549 33.8223 58.5433 33.5202 58.6392C33.4479 57.9294 33.3757 57.2182 33.2978 56.457C33.0179 56.4183 32.638 56.4069 32.3136 56.3053C32.043 56.2209 31.8391 56.0291 31.411 55.9933C31.4833 56.0763 31.5574 56.1579 31.6538 56.2667C31.4888 56.3468 31.298 56.4398 31.2164 56.4799C31.4536 56.7331 31.6649 56.9564 31.9114 57.2197C32.0319 57.1267 32.1598 57.0723 32.182 57.0007C32.2451 56.7975 32.0912 56.4813 32.7381 56.6201C32.7121 56.9921 32.6861 57.3742 32.6621 57.7291C32.3525 57.6704 32.0597 57.5688 31.778 57.5774C31.613 57.5831 31.3832 57.7506 31.335 57.875C31.3035 57.9566 31.7427 58.1341 31.2312 58.1283C31.1478 58.1269 31.018 57.958 30.9902 57.8564C30.8661 57.4229 30.7734 56.985 30.6511 56.4727C30.3916 56.5657 30.1414 56.6573 29.8078 56.7789C30.0802 56.8605 30.2433 56.9092 30.4064 56.9578C30.412 56.9821 30.4324 57.0222 30.4213 57.0265C30.0802 57.1667 29.7354 57.3027 29.3926 57.4386C28.8402 56.932 28.6383 57.5187 28.2361 57.5788C28.1712 57.4758 28.11 57.2383 27.9932 57.2225C27.706 57.1853 27.3927 57.2497 27.0053 57.2798C27.0257 57.1667 27.0517 56.9864 27.0962 56.8104C27.1147 56.7374 27.1796 56.6716 27.2222 56.6015C26.7792 56.4741 26.9293 56.0291 26.3807 55.9103C25.8136 55.7873 25.8729 55.1734 25.2279 55.0332C25.1872 55.0246 25.163 54.7656 25.2483 54.7126C25.656 54.4565 25.3206 54.1617 25.2743 53.8226C25.0852 53.9514 24.898 54.0787 24.7126 54.2061C24.5643 53.9714 24.3939 53.6995 24.1659 53.3389C24.0862 53.6094 24.0324 53.7925 24.0046 53.8855C23.6414 53.9199 23.3485 53.9471 23.0631 53.9743C22.7054 53.7897 22.9148 53.1185 23.5561 52.5791C23.2633 52.5762 23.0168 52.5333 22.8222 52.5862C22.7017 52.6191 22.6628 52.7951 22.5905 52.8996C22.3644 52.7236 22.1753 52.4489 21.8992 52.3959C21.5915 52.3358 21.204 52.4746 20.8519 52.5276C20.6795 52.2514 20.5387 52.0253 20.357 51.7334C20.7203 51.6933 21.015 51.6604 21.3097 51.6289C21.3116 51.5974 21.3153 51.566 21.3171 51.533C21.1077 51.5087 20.8575 51.5259 20.7018 51.4486C20.548 51.3728 20.4887 51.2025 20.383 51.0751C20.3756 51.0666 20.2959 51.0723 20.2866 51.0837C20.0827 51.3814 19.8511 50.9478 19.6768 51.0852C19.3692 51.3256 19.2747 51.0594 19.182 50.9692C19.03 50.8204 18.954 50.633 18.8447 50.4613C19.4749 50.2724 19.4803 50.1908 18.7705 49.7157C18.5295 49.9204 18.2924 50.1207 18.0607 50.3167C17.955 50.1522 17.8475 49.9833 17.7326 49.8045C18.4647 49.4567 18.6686 49.4181 19.0708 49.5869C19.1004 48.7126 20.2329 48.6211 20.9817 48.2533C21.0169 48.2361 21.1689 48.2876 21.2096 48.332C21.3709 48.5023 21.4802 48.4164 21.6267 48.3234C21.8139 48.2046 21.8843 48.1131 21.786 47.907C21.6025 47.5192 20.9947 47.4219 20.7445 47.0856C20.8686 46.8123 21.4173 46.5361 20.6017 46.2385C20.5054 46.3501 20.3682 46.5118 20.2366 46.6664C19.9067 46.4403 19.7028 46.353 19.4174 46.6521C19.3988 46.3201 19.3858 46.0682 19.3728 45.8421C19.0355 45.5516 18.6408 46.1412 18.3442 45.7606C17.9402 46.0596 17.7715 45.5974 17.4527 45.6189C17.4546 45.2182 16.9857 45.1181 16.602 44.9506C16.3388 44.8362 16.1887 44.6272 16.3463 44.4355C16.4556 44.301 16.728 44.2323 16.9745 44.1107C16.8392 43.8903 16.7003 43.6614 16.5705 43.4496C16.3648 43.5183 16.1682 43.5841 15.8013 43.7057C15.7883 43.8946 15.8272 44.1951 15.7197 44.467C15.6734 44.5815 15.5177 44.9106 15.0284 44.6315C14.8134 44.5085 14.2759 44.6616 13.8144 44.6931C13.5586 44.5614 13.3567 44.3496 13.4734 44.0563C13.5679 43.8159 13.6958 43.5841 13.807 43.3465C13.9182 43.1104 14.0257 42.8729 14.1443 42.611C14.0257 42.5338 13.8849 42.4422 13.6791 42.3077C13.5605 42.4493 13.4178 42.6182 13.2732 42.7899C12.3688 42.0716 12.3687 42.0716 12.8395 41.2602C12.3502 41.3246 11.9388 41.3804 11.4309 41.4477C11.3271 40.944 11.303 40.4904 11.7367 39.9838C11.3994 40.011 11.1418 40.0253 10.8878 40.0553C10.6283 40.0854 10.3744 40.1298 10.0575 40.1784C10.0223 39.9337 9.99633 39.7477 9.96853 39.5588C9.53483 39.6575 9.42736 39.7749 9.67757 40.0782C9.80731 40.2356 9.646 40.509 9.61078 40.7708C8.79712 40.6048 9.06035 40.0139 8.57845 39.782C8.13362 39.5688 7.68875 39.3542 7.27914 39.1567C7.32733 39.0022 7.47194 38.716 7.41634 38.6959C6.70462 38.4326 6.4433 37.8817 5.85576 37.5497C5.82425 37.5326 5.76122 37.544 5.61666 37.5383C5.5592 37.8002 5.49803 38.0706 5.4276 38.3911C5.28303 38.2795 5.22002 38.2294 5.10325 38.1393C4.91234 38.321 4.72512 38.5028 4.57129 38.6501C4.12276 38.4698 3.7076 38.3024 3.23868 38.115C3.21643 37.9991 3.17941 37.8173 3.14419 37.6342C3.09044 37.6342 3.03848 37.6327 2.98473 37.6327C2.95878 38.0162 2.93099 38.3983 2.89577 38.9192C2.51396 38.3296 2.49174 38.2466 2.68635 37.5054C2.97549 37.212 3.82251 37.7916 3.89109 37.0475C4.15613 37.2192 4.38229 37.4796 4.58061 37.471C5.10143 37.4481 4.81406 37.8545 5.28669 37.9118C5.1829 37.3594 5.08655 36.8386 4.98831 36.3177C4.94383 36.3134 4.89935 36.3091 4.85302 36.3034C4.8178 36.4121 4.78632 36.5223 4.7474 36.6296C4.71404 36.7184 4.66951 36.8056 4.56016 37.0518C4.48417 36.6869 4.4416 36.4808 4.34893 36.0372C4.21548 36.4551 4.15797 36.6382 4.10422 36.8071C3.86698 36.9859 3.23129 36.6196 3.27207 37.1233C3.17569 37.1233 3.07369 37.1362 2.98102 37.1219C2.62887 37.0704 2.28041 37.0103 1.94679 36.9559C1.63726 37.4739 1.83932 37.9003 2.07285 38.3239C2.26191 38.6659 2.2638 38.6659 2.20634 39.2039C2.05436 39.1295 1.9357 39.0723 1.79113 39.0022C1.7207 39.1195 1.65399 39.234 1.58171 39.3542C1.51684 39.327 1.40559 39.3041 1.39818 39.2712C1.31662 38.8634 1.69843 38.4255 1.20912 38.0449C1.90046 37.6814 0.990488 37.8202 0.958979 37.5955C1.1332 37.5268 1.37044 37.4353 1.65031 37.3251C1.34078 37.1348 1.14054 37.0117 0.834723 36.8242C0.717956 37.1219 0.640151 37.3237 0.551186 37.5469C-0.13088 36.8386 1.25731 36.5652 1.02378 35.9256C1.25916 36.0215 1.38708 36.0744 1.51311 36.1259C1.6929 36.0129 1.87083 35.9013 2.06914 35.7782C2.15255 35.9213 2.23411 36.0587 2.31567 36.2004C2.50472 36.0816 2.68262 35.97 2.93469 35.8126C3.10335 36.093 3.26281 36.3563 3.42221 36.6196C3.98566 36.2919 3.89109 35.9056 3.61307 35.4963C3.50372 35.3361 3.73353 34.7823 3.9615 34.6549C4.00228 34.632 4.13014 34.6821 4.2673 34.7079C4.24691 34.9898 4.22845 35.2831 4.20621 35.5865C4.61582 35.711 4.65839 35.4105 4.88451 35.3561C5.13102 35.2974 5.36644 35.2216 5.62037 35.1486C6.02627 35.3146 5.20702 35.9056 6.23939 35.9557C6.26348 35.6022 6.27833 35.276 6.3117 34.9497C6.3395 34.6835 6.18748 34.3787 6.83433 34.2943C7.04933 34.2657 7.04934 33.8908 6.75279 33.7048C6.43771 33.5073 6.31906 33.2841 6.53405 32.9392C6.76017 33.088 6.9622 33.2225 7.27914 33.4314C7.29768 33.1538 7.3125 32.9635 7.32548 32.7718C7.68134 32.8247 8.22441 32.6573 8.2207 33.1438C8.2207 33.1453 8.3468 33.1496 8.4265 33.1524C8.43762 32.9921 8.44869 32.8362 8.46352 32.6172C8.07615 32.6015 7.7073 32.5858 7.34032 32.5714C7.42928 32.2681 7.22913 32.0105 6.84547 31.9647C6.41732 31.9132 5.90575 31.7773 5.52208 32.0763C4.89377 31.73 5.53694 31.3093 5.40905 30.923C5.11435 30.8786 4.85488 30.84 4.5398 30.7942C4.68622 30.6897 4.77702 30.6239 4.89564 30.5395C4.72883 30.4923 4.57127 30.4479 4.31735 30.3764C4.32847 30.2089 4.34148 30.0186 4.35445 29.8297C4.56389 29.9871 4.77519 30.1431 5.09954 30.3864C5.2682 29.9385 5.13108 29.5421 5.54625 29.2831C5.2256 28.9797 5.31452 28.6149 5.30896 28.2957C4.57129 28.1512 4.85675 28.3973 4.97537 28.5762C4.78261 28.5748 3.85773 28.3902 3.6557 28.3186C3.89294 28.1412 4.13941 27.9552 4.35997 27.7906C5.14027 28.0396 5.90577 28.1813 6.43215 28.9053C6.46922 28.3687 6.49145 28.0525 6.51369 27.7305C7.0271 27.8779 7.44788 27.9995 8.00577 28.1598C7.89456 27.9237 7.81853 27.7663 7.73327 27.586C7.87228 27.5803 8.00387 27.5731 8.23926 27.5631C8.21516 27.9008 8.1948 28.217 8.16885 28.592C8.71747 28.4932 8.22447 27.9251 8.88615 28.0038C9.34395 27.4658 9.9166 27.5459 10.5301 27.8708C10.7822 28.0038 11.025 28.1441 11.2752 28.2814C11.4049 28.1999 11.5476 28.1112 11.72 28.0024C11.5402 27.9523 11.3771 27.9065 11.1973 27.855C11.2159 27.8107 11.24 27.7234 11.2493 27.7248C11.7701 27.772 11.7978 27.5102 11.72 27.2898C11.6736 27.161 11.4012 27.0709 11.2233 26.9592C12.1537 26.965 12.2167 27.0065 12.3094 27.5202C12.3483 27.7305 12.4484 27.9351 12.5522 28.2256C12.858 27.9466 13.0619 27.7606 13.39 27.4629C13.4048 27.9008 13.4159 28.2142 13.4289 28.5548C13.883 28.3888 14.326 28.2585 14.3204 27.8264C14.3204 27.7634 14.5613 27.6447 14.6855 27.649C15.2137 27.6661 15.4584 27.5016 15.514 27.1395C14.5372 27.2884 13.618 27.3098 12.6394 26.8462C12.6468 26.7446 12.6449 26.5543 12.6764 26.3654C12.719 26.115 12.7005 25.9318 12.2371 25.8774C12.1166 25.8631 12.0536 25.6113 11.9554 25.471C11.4809 24.7899 11.4828 24.7942 10.4096 24.9731C10.2595 24.9988 9.97967 24.9974 9.93704 24.9416C9.55338 24.4465 8.84163 24.6439 8.24297 24.5209C8.22443 24.435 8.20221 24.3435 8.17256 24.2089C7.87601 24.249 7.55532 24.2919 7.20502 24.3392C7.06972 24.0229 6.94372 23.7296 6.81768 23.4391C7.2829 23.213 7.74443 22.9883 8.24116 22.7479C8.27267 22.9626 8.30043 23.15 8.33935 23.4105C8.57844 22.9855 9.03066 22.881 9.47549 22.8009C9.58669 22.7808 9.75908 22.9211 9.90735 22.9898C10.0816 22.5662 10.2558 22.1455 10.4337 21.7105C9.80724 21.5731 9.63486 21.2926 9.50327 20.8605C9.38465 20.4713 10.0482 20.1779 9.4106 19.7644C9.07698 19.6699 8.68225 19.7343 8.48949 20.1293C8.43203 20.2481 8.38937 20.4827 8.35971 20.4799C7.70915 20.4412 7.72025 20.9678 7.27172 21.078C7.14754 21.1095 6.98636 21.0723 6.74356 21.0623C6.73429 20.7517 6.72686 20.4341 6.71759 20.1164C6.67496 20.1078 6.63234 20.0992 6.58971 20.0906C6.51372 20.2581 6.48772 20.4484 6.35242 20.5843C6.19302 20.7446 5.93915 20.8576 5.65928 21.0322C5.55178 20.3082 4.67139 20.716 4.1654 20.4856C4.17652 20.3382 4.18582 20.1822 4.2025 19.9518C4.56392 19.9662 4.92531 19.9819 5.50914 20.0062C4.95867 19.6485 4.68063 19.3809 4.79184 18.9774C4.84559 18.7842 4.66771 18.5595 4.56577 18.2619C5.12736 17.8068 6.12819 17.7983 6.85289 17.452C6.93444 17.4133 7.22355 17.6337 7.42557 17.6466C7.56643 17.6552 7.72397 17.5149 7.93527 17.4105C7.23281 17.2359 6.65267 17.0928 5.88164 16.9025C6.75832 16.4016 7.52758 16.1269 8.47284 16.2056C8.99921 16.25 9.1011 15.9409 9.34761 15.762C9.40136 15.7234 9.2401 15.5402 9.15114 15.3756C9.81281 15.2612 10.5115 15.1453 11.2603 15.2054C11.7422 15.4515 11.2548 15.9752 11.9424 16.28C11.9313 15.9237 11.9221 15.6504 11.9109 15.2783C12.504 14.8333 12.504 14.8333 13.1101 15.0723C13.1267 14.8305 13.1416 14.6058 13.1601 14.3425C13.4659 14.3167 13.7291 14.2938 14.0942 14.2638C14.1109 14.0277 14.1276 13.7801 14.1443 13.5311C14.211 13.5311 14.2778 13.5311 14.3445 13.5311C14.3723 13.8603 14.402 14.1894 14.4316 14.54C15.1971 14.2252 15.0506 13.8087 14.7467 13.2864C15.6289 13.5397 16.248 14.1178 17.2359 14.0119C17.1432 13.8231 17.0653 13.6657 16.9893 13.5125C17.6102 13.3151 17.7214 13.6742 17.955 13.8388C18.2608 14.0549 18.6111 13.4739 18.9058 13.9747C19.0003 13.7057 19.0726 13.5054 19.1857 13.1849C19.2858 13.4281 19.3358 13.5469 19.4007 13.7057C19.7844 13.4582 20.0902 13.119 20.8649 13.192C20.5257 13.3179 20.2996 13.4024 19.8622 13.5655C20.4349 13.793 20.7185 13.9061 21.1021 14.0577C21.3505 13.9733 21.8824 13.8646 22.431 14.3282C22.4607 13.9103 22.4811 13.6184 22.4978 13.3594C22.824 13.1648 23.115 13.7744 23.3948 13.3237C23.4523 13.2321 23.6636 13.0918 23.7137 13.109C24.2586 13.2907 24.809 12.664 25.3873 13.1434C25.48 13.2192 26.0341 13.0246 26.403 12.9487C26.5809 13.3466 26.7366 13.6957 26.8923 14.0463C26.9572 14.0434 27.0239 14.042 27.0888 14.0391C27.1036 13.8173 27.0461 13.5755 27.161 13.3838C27.2351 13.2593 27.3612 12.9273 27.8449 13.2163C28.1025 13.3709 28.5623 13.1319 28.6067 12.8643C28.6568 12.5681 28.655 12.269 28.6753 11.9614C28.4881 11.9056 28.3269 11.8555 28.1045 11.7897C28.3806 11.6924 28.6215 11.6079 28.8754 11.5178C29.4074 11.6781 29.1165 12.3406 30.0191 12.3477C30.0673 12.1846 30.1191 12.0086 30.1766 11.8111C30.3971 11.8655 30.6677 12.0015 30.8364 11.9557C31.057 11.897 31.1978 11.6952 31.411 11.5235C30.7363 11.3575 30.1544 11.2159 29.5613 11.0699C29.6891 10.7222 29.9022 10.5233 30.3471 10.559C30.512 10.5719 30.6065 10.881 30.8568 10.6234C30.955 10.7293 31.0532 10.8338 31.2071 10.9969C31.5518 10.559 32.1542 10.5891 32.9679 10.6807C32.6991 10.3415 32.5323 10.1341 32.3692 9.92657C32.8418 9.88507 32.9809 9.41285 33.6574 9.41428C34.1485 9.41571 34.041 8.66446 34.8917 8.72027C34.9065 8.83618 34.9325 8.95781 34.9362 9.07944C34.9399 9.20823 34.9214 9.33701 34.9103 9.48726C35.0344 9.47438 35.1308 9.48583 35.1642 9.45864C35.2624 9.37565 35.4366 9.22397 35.4051 9.19535C35.0066 8.84476 35.3959 8.50706 35.1994 7.99191C35.5238 8.2781 35.6312 8.46699 35.7832 8.48702C36.2058 8.54283 36.6822 8.4441 36.6878 8.30243C36.7082 7.86313 37.0343 8.19225 37.2253 8.16077C37.7405 8.07634 38.05 7.83594 37.9796 7.30362C38.3336 7.82163 38.3336 7.82163 38.9304 7.87314C39.4048 7.58409 38.7617 7.22206 39.0805 6.85573C39.2825 6.62535 38.8748 6.17174 39.4679 5.80684C39.3197 6.47224 39.5828 7.00169 40.1277 7.51684C40.3186 7.3394 40.5206 7.15337 40.7134 6.9745C41.0767 7.44099 41.5679 7.05464 41.8589 6.95304C42.1517 6.85144 42.2592 6.49513 42.4464 6.25044C42.8004 6.40784 43.1099 6.49227 42.9375 5.93706C43.4843 6.1517 43.8661 6.30052 44.1719 6.42072C44.5167 6.31769 44.8354 6.16172 45.1746 6.13596C45.7918 6.08874 46.3627 6.22611 46.8038 6.60102C47.2301 6.24185 47.7713 6.0315 48.3625 6.35347C48.7258 6.55094 49.039 6.05297 49.1428 6.332C49.2781 6.69547 49.8749 6.05726 49.8657 6.56239C49.8638 6.68402 50.305 6.8128 50.544 6.9373C50.7238 6.82425 50.9018 6.71264 51.0797 6.60245C52.088 6.94445 52.1732 6.91154 52.594 6.07157C52.7311 6.18605 52.8868 6.31769 53.0444 6.44791C53.1723 6.33773 53.302 6.22754 53.4855 6.07014C53.6467 6.19606 53.7913 6.36778 54.0044 6.45507C54.1823 6.52805 54.4437 6.50086 54.6902 6.52089C54.7384 6.31054 54.7736 6.15313 54.8125 5.9757C55.0683 5.94708 55.3871 5.96997 55.5835 5.87267C55.8819 5.72528 56.0339 5.74531 56.3027 5.9113C56.5974 6.09303 56.981 6.20465 57.3146 6.34202C57.2535 6.38495 57.1571 6.45077 57.0403 6.53091C57.4703 6.71979 57.5964 6.61533 57.6612 6.30482C57.6965 6.13596 57.9189 5.98714 58.0913 5.78681C58.3137 6.47224 58.5528 6.82855 59.1459 6.83284C59.7093 6.83713 60.1726 7.07181 60.6972 6.94588C60.7268 7.09041 60.7454 7.15337 60.7528 7.21633C60.7695 7.36658 60.6416 7.59983 61.0252 7.57407C61.4941 7.54259 61.3144 7.36086 61.1865 7.16196C61.129 7.07324 61.2959 6.91583 61.3051 6.70548C61.7722 6.93587 61.8315 6.94588 62.3968 6.80708C62.4339 6.79849 62.4338 6.72122 62.4691 6.62821C62.0761 6.62535 61.7222 6.62249 61.3051 6.70405C60.9752 6.69833 60.9752 6.20465 60.3543 6.33773C60.0726 6.39783 59.9614 6.26904 59.9373 6.05583C59.9299 5.9943 59.5648 5.93706 59.3553 5.90415C58.6492 5.78967 58.5898 5.72385 58.6992 5.08707C59.3701 5.03413 59.3052 5.47629 59.5536 5.70381C59.9132 5.52208 60.2079 5.32175 59.9632 4.95829C59.3849 4.78228 58.6417 5.04701 58.1209 4.64634C58.0838 4.61772 57.9467 4.65349 57.8559 4.66065C56.9755 4.73649 56.957 4.72218 57.2146 4.15123C57.2888 3.98524 57.3777 3.82354 57.4611 3.65898C57.3054 3.61319 57.1423 3.56597 56.8606 3.48297C57.7261 3.25402 58.1876 3.74054 58.8511 3.7849C58.8382 3.79778 59.448 3.55023 59.5092 3.55309C59.1996 3.95519 59.1996 3.95519 59.7909 4.11402C59.8094 3.84214 59.828 3.59172 59.8447 3.3413C59.9095 3.33558 59.9744 3.33129 60.0392 3.32556C60.1022 3.44576 60.1653 3.56596 60.2617 3.75056C60.6194 3.64753 61.042 3.59888 61.3163 3.43289C61.8186 3.12809 61.9094 3.76916 62.3783 3.57169C62.4339 3.41285 62.5061 3.21252 62.5766 3.01219C62.634 3.01791 62.6915 3.02363 62.749 3.02793C62.7323 3.27834 62.7137 3.52733 62.697 3.77775C62.7619 3.78919 62.8286 3.80064 62.8935 3.81352C62.9528 3.72909 63.014 3.64324 63.1363 3.46866C63.7572 3.42001 64.595 3.56596 65.1974 3.13095C66.2205 3.85502 65.9999 3.65898 66.9711 2.98071C67.0508 3.12952 67.1138 3.25402 67.1861 3.37565C67.2732 3.51874 67.3677 3.66041 67.4882 3.84643C67.7662 3.77059 68.0479 3.69475 68.4927 3.57598C68.376 3.7849 68.3167 3.89222 68.1832 4.12976C68.7912 3.88793 69.3861 3.9652 69.8699 3.68187C70.2146 3.47868 70.6298 3.2855 71.1265 3.56024C71.2173 3.61032 71.4082 3.59172 71.5454 3.57455C71.7975 3.54307 71.879 3.24829 71.7233 2.98643C71.9995 2.81328 72.2757 2.63871 72.5759 2.44839C72.8762 2.95065 71.5769 3.51588 72.7576 4.04247C72.9355 3.7849 73.1189 3.52017 73.3043 3.24972C73.3988 3.58171 73.4952 3.91083 73.6417 4.42311C74.0142 4.10114 74.2162 3.928 74.4701 3.70906C74.5869 3.84643 74.7277 4.00956 74.9297 4.24853C75.0928 3.93372 75.1948 3.73482 75.2986 3.53735C75.8324 3.68617 75.6119 3.21538 75.9696 3.1653C75.9992 3.35418 76.0288 3.54021 76.0604 3.74627C76.2976 3.75628 76.5238 3.76487 76.8611 3.77918C76.7833 3.6833 76.7535 3.60889 76.6831 3.5631C76.2253 3.26403 77.2706 3.13239 76.8258 2.79897C76.5978 2.62869 76.4811 2.35824 76.4125 2.1207C76.3161 1.78586 76.5478 1.71574 77.1947 1.79444C77.5654 1.8388 77.9491 1.83022 78.4606 1.85168C78.5885 1.83594 78.1659 2.53568 78.8943 2.04057C78.9499 2.2781 78.9963 2.47415 79.0389 2.65874C79.4596 2.79182 79.9136 2.21371 80.2584 2.73172C80.403 2.68307 80.5606 2.64729 80.6922 2.58433C80.8182 2.52423 80.8979 2.39974 81.0294 2.36969C81.1851 2.33534 81.3742 2.37398 81.5706 2.38256C81.4335 2.7632 81.3742 3.07801 81.1999 3.35561C81.0999 3.51731 80.8145 3.6232 80.6662 3.73625C80.3326 3.74627 80.0546 3.7663 79.8266 3.78347C79.7061 4.0668 80.5642 3.72623 80.1453 4.15981C80.01 4.30005 80.049 4.52328 80.0101 4.7093C80.0749 4.71645 80.1417 4.72361 80.2065 4.73076C80.3678 4.41166 80.5308 4.09256 80.668 3.73625C81.1258 3.91083 80.9405 4.35299 81.3649 4.60341C81.3779 4.41738 81.3891 4.26141 81.402 4.06108C81.7431 4.02816 82.0414 3.99811 82.3306 3.96949C82.1767 3.37994 82.034 2.83188 81.8913 2.2824C81.9599 2.27381 82.073 2.24376 82.0897 2.26093C82.2398 2.41262 82.375 2.57145 82.6049 2.83188C82.907 2.84476 83.3648 2.86337 83.8244 2.88197C83.4501 3.03079 83.7299 3.42287 83.198 3.47868C82.6827 3.53162 82.3899 3.79349 82.8699 4.16983C82.8811 4.17842 82.7031 4.30291 82.7476 4.47892C83.0256 4.40164 83.3036 4.3258 83.6039 4.24281C83.704 4.41595 83.7837 4.55332 83.8893 4.73506C83.9802 4.57908 84.0468 4.46461 84.1117 4.35156C84.4731 4.38877 84.8438 4.8066 85.1923 4.34727C85.752 4.41309 85.2535 4.75795 85.6075 4.93825C85.791 4.70501 85.98 4.46461 86.169 4.22564C86.5898 4.4088 87.1977 4.50467 87.1032 5.03842C87.283 4.66351 87.4628 4.28717 87.6666 3.85931C87.7167 3.91798 87.7852 3.96806 87.8056 4.02673C87.826 4.0897 87.7667 4.17126 87.8037 4.22421C87.902 4.36587 87.9929 4.55189 88.1634 4.61486C88.2802 4.65779 88.5285 4.52041 88.7157 4.46604C88.9196 4.70787 89.0993 4.92108 89.2939 5.15003C89.5534 4.87815 89.8685 4.0439 89.8518 3.74197C89.8463 3.61748 89.8666 3.49156 89.8759 3.36993C90.3133 3.35848 90.7693 3.20536 90.7285 3.67329C90.8675 3.66899 91.0084 3.66327 91.2197 3.65612C91.5774 4.03532 91.0455 4.22134 90.7396 4.42454C90.9917 4.62344 91.2419 4.82091 91.4959 5.01695C91.7442 5.21013 91.9981 5.40045 92.2687 5.60651C92.1538 5.61796 92.0222 5.63083 91.7942 5.65373C91.8795 5.82401 91.9666 5.9943 92.1038 6.26618C92.3262 6.2118 92.6783 6.06871 92.7487 6.12022C93.1991 6.43933 93.1102 6.1102 93.188 5.96854C93.2826 5.79539 93.3938 5.62654 93.4809 5.45196C93.5106 5.39186 93.4753 5.31459 93.505 5.25306C93.5309 5.19582 93.592 5.14288 93.6569 5.09995C93.8108 4.99692 93.9164 4.85812 94.1963 5.0513C94.2834 5.1114 94.921 5.00551 94.8302 5.18581C94.5929 5.66661 95.3695 5.80827 95.2194 6.24901C96.2128 6.02292 96.2444 5.46055 96.6243 4.86814C96.6447 5.36039 96.6595 5.69666 96.6725 6.03436C96.7207 6.03723 96.7689 6.03866 96.8189 6.04152C96.8819 5.85979 96.9431 5.67806 97.0042 5.49776C97.4361 5.42907 97.8624 5.36181 98.5018 5.26022C98.1923 5.50062 98.0051 5.64658 97.792 5.81257C98.5389 6.02864 98.9171 5.78967 99.1024 5.18151C99.2173 5.45053 99.2692 5.5693 99.3192 5.68807C100.122 5.49489 100.305 5.59077 100.233 6.17317C100.131 6.10162 100.036 6.03293 99.8567 5.90701C99.8159 6.13596 99.7863 6.31626 99.7548 6.48798C100.148 6.57956 100.472 6.65683 100.839 6.74269C100.961 6.52089 100.867 6.11736 101.536 6.15313C101.443 5.89556 101.364 5.67233 101.288 5.46484C101.996 5.2502 102.118 6.34631 102.978 5.54927C102.907 6.23613 103.156 6.6783 103.951 6.89723C104.524 6.51946 103.614 6.27333 103.843 5.82401C103.606 5.97283 103.534 6.01719 103.464 6.06155C103.295 5.67806 103.295 5.67806 103.701 5.33749C104.036 5.48345 104.372 5.62941 104.696 5.77107C105.397 5.38042 105.397 5.38042 105.067 4.85955C105.315 4.71216 105.567 4.56334 105.823 4.41166C106.346 4.6678 106.346 4.6678 106.65 4.22564C107.128 4.24567 107.665 4.21133 108.156 4.30148C108.788 4.41738 109.035 3.98094 109.546 3.90081C109.676 4.08111 109.784 4.23279 109.947 4.45888C110.262 4.19273 110.505 3.98667 110.723 3.80064C110.981 4.07539 111.233 4.34441 111.457 4.58195C111.889 4.50467 112.256 4.43885 112.784 4.34441C112.388 4.11259 112.099 3.94231 111.7 3.70906C112.753 3.65898 113.546 3.08087 114.58 3.38137C114.706 3.77775 114.831 4.17412 114.986 4.66351C115.187 4.39449 115.474 4.18557 115.413 4.05106C115.326 3.8636 115.179 3.74483 115.576 3.79778C116.035 3.85788 116.095 3.64038 116.306 3.3227C116.363 3.69332 116.402 3.95089 116.441 4.20847C116.484 4.21276 116.528 4.21848 116.571 4.22277C116.645 3.89365 116.719 3.56597 116.795 3.23255C117.248 3.37279 117.248 3.37279 117.312 3.8679C117.928 3.81924 118.543 3.77488 119.155 3.71765C119.21 3.71192 119.283 3.62034 119.29 3.56454C119.318 3.32127 119.585 3.27691 119.75 3.39568C119.852 3.47009 119.716 3.70477 119.677 3.93372C119.82 3.94517 120.08 3.96807 120.38 3.99382C120.421 3.78633 120.45 3.62893 120.493 3.40999C120.839 3.54593 121.158 3.67043 121.466 3.79206C121.529 3.53305 121.811 3.42287 122.185 3.35991C122.7 3.27262 122.374 2.87911 122.715 2.63298C122.762 2.78752 122.745 2.93348 122.836 2.98643C122.945 3.04796 123.149 3.02793 123.312 3.04367C123.288 2.902 123.264 2.75891 123.225 2.5228C123.47 2.42692 123.827 2.28526 124.235 2.12499C124.266 2.35108 124.292 2.53711 124.339 2.8648C124.704 2.55571 124.965 2.33534 125.23 2.11068C125.742 2.54712 125.051 2.76749 125.114 3.06656C125.177 3.37279 125.327 3.67186 125.451 4.00956C125.568 3.86361 125.664 3.74054 125.781 3.59315C125.873 3.75056 125.953 3.88793 126.037 4.0296C126.635 3.586 125.829 3.16816 126.016 2.67162C126.552 2.5643 127.158 2.54712 127.395 2.98357C127.629 3.41428 128.238 2.96783 128.513 3.46723C128.541 3.05941 128.559 2.81042 128.574 2.58719C128.711 2.56 128.746 2.55285 128.78 2.54569C128.817 2.7031 128.854 2.8605 128.9 3.05798C129.451 3.37136 129.777 3.01648 130.183 2.77608C130.294 2.96926 130.566 3.25831 130.481 3.3227C129.886 3.78347 130.967 3.48297 130.82 3.70763C130.726 3.77489 130.629 3.84214 130.535 3.90939C130.767 4.00527 131 4.09971 131.241 4.19988C131.369 4.09971 131.526 3.97522 131.686 3.85073C131.886 4.21991 132.218 4.06966 132.563 3.97951C132.965 3.87362 132.972 3.88936 133.628 4.16124C133.671 3.8865 133.708 3.64324 133.764 3.28264C133.424 3.35705 133.198 3.40713 132.963 3.45864C132.574 3.05941 132.59 2.57861 132.692 2.11927C132.483 2.08779 132.377 2.04772 132.307 2.06775C132.181 2.10067 132.075 2.17078 131.895 2.25664C131.862 2.13787 131.834 2.03198 131.791 1.87744C132.181 1.89318 132.501 1.90606 132.863 1.9218C133.009 2.15361 133.183 2.42835 133.356 2.70167C133.71 2.58433 133.235 2.00765 134.066 2.15647C134.045 2.45411 134.025 2.74746 134.004 3.03222C134.775 3.41142 135.469 2.83045 136.184 3.02936C136.564 2.64157 136.89 2.96496 137.242 3.06799C137.367 3.10377 137.524 3.08516 137.684 3.09089C137.912 2.77465 137.845 2.31674 138.62 2.26809C138.833 2.25521 139.003 1.94898 139.244 1.73005C139.468 1.81161 139.735 1.91035 140.099 2.042C140.034 1.72862 139.982 1.47963 139.919 1.16911C140.256 1.28502 140.479 1.36086 140.805 1.47105C140.79 1.68569 140.773 1.93324 140.755 2.18223C140.922 1.90176 141.702 1.74293 141.107 1.28931C141.502 1.20203 142.013 1.27501 142.275 0.973074C142.3 0.943024 142.525 0.945885 142.56 0.981659C142.931 1.34798 143.398 0.812806 143.748 1.05321C144.236 1.38662 144.588 0.875768 145.092 0.99883C145.12 1.16625 145.149 1.35228 145.181 1.5383C145.223 1.54402 145.264 1.54975 145.307 1.55404C145.379 1.31221 145.453 1.06895 145.531 0.812805C145.62 0.852872 145.735 0.881491 145.735 0.908679C145.727 1.20059 145.703 1.49394 145.676 1.87314C146.117 1.58695 146.398 1.55261 146.699 1.84166C146.814 1.95328 147.073 1.99191 147.266 2.06346C147.414 1.67567 148.128 2.12785 148.296 1.72576C148.356 1.58409 148.547 1.45817 148.717 1.36086C148.786 1.32223 149.012 1.34798 149.082 1.3995C149.153 1.45244 149.175 1.60412 149.116 1.6585C148.973 1.78872 148.773 1.88745 148.515 2.04772C148.708 2.09208 148.86 2.11068 148.988 2.16077C149.095 2.20369 149.175 2.2824 149.294 2.36253C149.483 2.09065 149.318 1.65278 150.374 1.75867C149.855 1.60842 149.69 1.55976 149.303 1.44815C149.622 1.3766 149.833 1.32795 150.044 1.28073C150.07 1.30076 150.231 1.42669 150.374 1.53687C150.695 1.37374 150.98 1.15051 151.334 1.06609C152.076 0.887216 152.439 1.10472 152.613 1.73434C152.63 1.79158 152.7 1.84166 152.767 1.91894C152.841 1.78872 152.908 1.67424 153.036 1.44958C153.136 1.64133 153.167 1.77012 153.266 1.86885C153.358 1.96186 153.506 2.05774 153.655 2.08493C153.753 2.10353 153.903 1.8388 154.011 2.08493C154.037 2.14646 153.849 2.26523 153.734 2.3382C153.662 2.384 153.545 2.39401 153.202 2.48702C153.694 2.50706 153.918 2.51707 154.15 2.52566C154.187 2.25521 155.004 2.04629 154.229 1.59268C154.704 1.59554 155.058 1.59697 155.495 1.59983C155.471 1.76296 155.452 1.87744 155.427 2.04772C155.252 1.93038 155.158 1.86599 155 1.7601C154.819 2.22516 154.646 2.66446 154.444 3.17818C155.31 2.93205 154.833 2.04772 155.951 2.11068C155.988 2.17078 156.068 2.30529 156.149 2.4398C156.264 2.37684 156.37 2.31817 156.476 2.25807C156.733 2.45841 156.991 2.65874 157.323 2.91631C157.41 2.80613 157.499 2.69594 157.612 2.55142C157.556 2.53282 157.391 2.47558 157.232 2.4212C157.478 2.26236 157.725 2.1021 158.066 1.88316C158.046 2.18223 158.029 2.43122 158.007 2.72743C158.429 2.59721 158.741 2.4999 159.18 2.36396C159.36 2.55571 159.588 2.79754 159.993 3.22826C160.042 2.53854 160.073 2.08636 160.108 1.57837C160.381 1.62416 160.54 1.65135 160.737 1.68426C160.587 1.78872 160.492 1.85454 160.373 1.93754C160.559 1.99334 160.724 2.04057 161.024 2.12928C160.752 2.19654 160.581 2.23947 160.368 2.29242C160.575 2.40117 160.561 2.79754 161.015 2.47987C161.078 2.53854 161.148 2.59435 161.198 2.65731C161.243 2.71025 161.263 2.77322 161.295 2.83045C161.836 2.37541 162.308 3.15099 162.744 2.89914C163.016 2.74173 163.087 2.41548 163.307 2.06918C163.541 2.34965 163.702 2.54569 163.902 2.78896C164.03 2.62726 164.127 2.50563 164.264 2.33248C164.46 2.57574 164.625 2.79182 164.814 2.99645C164.842 3.0265 165.001 3.01505 165.083 2.99501C165.124 2.985 165.166 2.88626 165.142 2.8648C164.818 2.57718 165.341 2.45554 165.376 2.24233C165.619 2.37827 165.891 2.64872 166.099 2.62726C166.801 2.55714 166.925 3.37565 167.728 3.06227C167.448 2.70596 167.541 2.3196 167.648 1.91035C168.349 1.91607 168.436 2.4026 168.938 2.55571C169.196 2.51421 169.513 2.4627 170.037 2.37684C169.765 2.56859 169.67 2.63441 169.576 2.70167C169.706 2.80183 169.835 2.902 169.98 3.01648C170.084 2.88054 170.184 2.74889 170.276 2.62726C170.597 2.57288 170.801 2.90057 171.218 2.65158C171.83 2.28669 172.343 2.48559 172.424 3.04367C172.447 3.19821 172.43 3.35705 172.614 3.52304C172.669 3.27977 172.725 3.03651 172.777 2.81328C173.027 2.72886 173.26 2.64872 173.494 2.56859C173.714 3.02506 174.185 2.53282 174.489 2.7031C174.658 2.79611 174.988 2.85621 175.008 2.95352C175.092 3.3456 175.301 3.31841 175.65 3.11522C175.713 3.07801 175.816 3.05655 175.9 3.06084C176.18 3.07515 176.1 3.12952 176.02 3.2855C175.909 3.5073 176.133 3.67901 176.506 3.67901C176.539 3.67901 176.621 3.55595 176.598 3.51016C176.45 3.2025 176.791 3.08087 177.049 3.12237C177.597 3.21109 178.115 3.39282 178.763 3.56883C178.719 3.3041 178.682 3.07229 178.635 2.79325C179.236 2.49561 179.686 3.36992 180.391 3.05941C180.65 3.26117 180.908 3.4615 181.208 3.69475C181.619 3.17102 182.307 3.3227 182.856 3.35132C183.065 3.51588 183.199 3.71192 183.395 3.75199C183.643 3.8035 183.944 3.72766 184.222 3.7062L184.755 3.36706C184.937 3.19535 185.119 3.02363 185.402 2.75604C185.402 3.1009 185.4 3.35275 185.4 3.72909C185.667 3.61462 185.895 3.57312 185.951 3.48011C186.121 3.19249 186.227 2.88626 186.403 2.48273C186.831 2.4999 187.45 2.65731 187.828 2.51278C188.49 2.2595 188.637 2.75032 189.126 2.7403C189.141 2.53997 189.157 2.29098 189.174 2.04915C188.998 2.05488 188.829 2.0606 188.661 2.06632C188.703 1.9776 188.746 1.81304 188.787 1.81304C189.065 1.81734 189.417 1.64133 189.554 2.02626C189.637 2.2595 189.747 2.2409 190.242 2.04057C190.466 2.20226 190.688 2.36253 190.942 2.54713C191.183 2.33964 191.354 2.19368 191.674 1.91464C191.774 2.2824 191.83 2.48416 191.926 2.8419C192.19 2.24519 192.393 1.78299 192.601 1.31221C192.875 1.74722 193.14 2.16935 193.476 2.70024C193.696 2.48989 193.837 2.35681 193.98 2.2223C194.332 2.35251 194.429 2.57145 194.401 2.85621C194.395 2.91059 194.684 2.98214 194.931 2.95065C194.857 2.87911 194.781 2.80899 194.675 2.70882C194.925 2.58004 195.187 2.44553 195.535 2.26523C195.609 2.42836 195.846 2.71455 195.754 2.78323C195.253 3.15814 195.494 3.4057 195.982 3.70763C196.047 3.48011 196.097 3.29695 196.148 3.11522C196.193 3.11235 196.238 3.11092 196.282 3.10806C196.33 3.29981 196.378 3.49156 196.428 3.68903C196.592 3.64896 196.801 3.55738 196.857 3.59172C197.138 3.76057 197.322 4.01672 197.796 3.97522C197.856 3.9695 197.967 4.15123 198.028 4.25426C198.096 4.36873 198.132 4.49179 198.191 4.60913C198.26 4.7465 198.337 4.88245 198.439 5.06847C198.677 4.97546 198.832 4.91536 199.032 4.83666C199.255 5.04414 199.496 5.27166 199.739 5.49919C199.796 5.47772 199.854 5.45483 199.913 5.43336C199.841 5.29027 199.768 5.14574 199.689 4.9869C200.059 4.67925 200.552 4.88531 200.953 5.48917C201.277 5.26165 201.588 5.24305 201.842 5.54498C202.015 5.7496 202.163 5.96282 202.517 6.14741C202.539 5.82115 202.561 5.49346 202.585 5.16721C203.053 4.8295 203.333 5.28168 203.826 5.213C203.605 5.39616 203.494 5.48774 203.312 5.63942C203.575 5.75533 203.835 5.81829 203.976 5.94421C204.194 6.14025 204.363 5.71383 204.624 5.96711C204.734 6.073 205.288 5.72242 205.132 5.61796C204.543 5.21729 205.234 5.00265 205.31 4.66208C205.505 4.87386 205.634 5.05416 205.944 5.18295C206.124 5.25736 206.037 5.6523 206.072 5.90701C206.578 5.81972 206.604 5.76821 206.324 5.31889C206.645 5.33177 206.917 5.34321 207.271 5.35466C207.299 5.35466 207.243 5.35466 207.19 5.35466C207.177 5.54784 207.149 5.73959 207.152 5.93277C207.158 6.23613 207.401 6.20465 207.632 6.12738C207.536 5.85979 207.443 5.60794 207.271 5.35609C207.138 5.18008 207.088 5.00408 207.025 4.78943C207.312 4.80088 207.668 4.81662 208.137 4.83522C208.042 5.14717 207.953 5.43766 207.84 5.80684C208.009 5.74961 208.29 5.70811 208.305 5.63799C208.394 5.23017 208.839 5.50348 209.113 5.40761C208.998 4.90963 208.882 4.40308 208.743 3.79921C209.141 3.9051 209.486 3.99811 209.831 4.0897C209.721 4.41595 209.545 4.71359 209.545 5.01266C209.545 5.28168 209.74 5.5507 209.879 5.89556C210.136 5.6709 210.363 5.47486 210.654 5.22015C211.525 5.87553 210.982 6.66255 211.341 7.34226C211.367 6.95876 211.395 6.5767 211.428 6.07586C211.654 6.20465 211.74 6.2533 211.912 6.35204C211.995 6.15743 212.071 5.9757 212.149 5.7954C212.896 5.94994 212.388 6.31626 212.442 6.58242C212.505 6.89866 212.54 7.21777 212.589 7.53687C213.371 7.63131 213.41 7.64562 214.069 8.12213C214.207 7.77154 214.327 7.4596 214.475 7.08182C214.303 6.97736 214.021 6.80708 213.74 6.63537C213.595 6.37779 213.295 6.13024 213.604 5.81829C213.799 6.05011 213.973 6.25759 214.155 6.47224C214.266 6.40212 214.336 6.35776 214.409 6.3134C215.13 7.10901 215.13 7.10901 215.133 7.69857C215.474 7.67997 215.804 7.66136 216.173 7.64133C216.268 7.82163 216.412 8.10067 216.54 8.35108C216.803 8.19797 217.005 7.98905 217.167 8.00479C217.697 8.05774 218.214 8.18938 218.733 8.29671C218.768 8.30386 218.814 8.34965 218.809 8.37255C218.762 8.5829 218.9 8.72885 219.179 8.65588C219.309 8.62153 219.33 8.38972 219.4 8.24662C219.415 8.21657 219.426 8.18652 219.45 8.13644C219.676 8.19368 219.915 8.31531 220.128 8.29814C220.701 8.24805 220.49 8.61724 220.67 8.76606C220.81 8.88197 220.757 9.11092 220.801 9.3456C220.503 9.33272 220.299 9.35847 220.139 9.31125C219.695 9.18247 218.549 9.32127 218.162 9.59172C218.08 9.64753 218.071 9.75342 218.019 9.85359C217.858 9.72909 217.706 9.63894 217.61 9.52447C217.546 9.45006 217.569 9.34273 217.539 9.17961C217.183 9.51445 216.885 9.79492 216.509 10.1512C215.775 10.4059 215.196 9.91655 214.538 9.64753C214.327 10.2228 214.138 10.7393 213.942 11.276C213.269 10.8009 213.549 10.2428 213.51 9.61605C213.237 9.84786 213.078 10.0382 212.848 10.1655C212.472 10.373 212.524 10.6864 212.622 10.8925C212.716 11.0928 213.13 11.2216 213.456 11.4133C213.258 11.6552 213.046 11.9142 212.761 12.2605C213.602 12.1632 214.257 12.3692 214.82 12.7255C215.487 13.1476 216.377 13.1906 217.161 13.4124C217.319 13.4567 217.569 13.3337 217.843 13.2736C217.852 13.3752 217.828 13.5068 217.886 13.6199C217.936 13.7157 218.082 13.8603 218.179 13.8588C218.525 13.8531 218.551 13.6499 218.364 13.5283C218.053 13.3265 218.381 13.2764 218.468 13.1677C218.306 13.1133 218.043 13.0818 218.008 13.0017C217.934 12.8357 217.982 12.6454 218.179 12.425C218.618 12.9058 219.059 13.388 219.515 13.886C219.648 13.7658 219.832 13.6013 220.102 13.3594C220.625 13.265 221.237 13.4009 221.783 13.6456C221.997 13.7415 222.108 13.856 222.301 13.6685C222.471 13.8202 222.643 13.9719 222.799 14.1121C222.469 14.3668 221.991 13.607 221.839 14.2896C221.813 14.4012 221.428 14.497 221.185 14.5528C220.725 14.6602 220.718 14.6459 220.688 14.9049C220.972 14.8748 221.276 14.7847 221.524 14.8347C221.711 14.8734 221.824 15.0923 222.013 15.2698C222.378 15.1567 222.773 15.0365 223.168 14.9149C223.225 15.0294 223.285 15.1467 223.4 15.3728C223.509 15.0937 223.581 14.9034 223.655 14.7145C224.692 14.7589 224.304 15.3098 224.376 15.5917C224.773 15.8121 225.083 15.9838 225.429 16.1756C225.459 16.0697 225.47 15.9022 225.511 15.8979C225.92 15.8622 226.384 15.762 226.74 15.855C227.537 16.0654 227.077 16.5977 227.227 17.0856C227.433 16.8896 227.579 16.7465 227.733 16.6063C227.909 16.4446 228.093 16.2872 228.384 16.0282C228.343 16.6349 228.317 17.14 228.532 17.6451C228.656 17.9385 228.63 18.3248 227.994 18.5066C227.98 18.3907 227.97 18.2705 227.944 18.1546C227.924 18.0658 227.881 17.9786 227.846 17.8827C226.929 18.1946 226.817 18.3821 227.331 18.777C227.509 18.9144 227.785 18.9874 227.98 19.1176C228.089 19.1891 228.122 19.3151 228.022 19.514C227.92 19.4453 227.818 19.3766 227.648 19.2636C227.627 19.5526 227.611 19.8016 227.585 20.1665C227.716 20.0348 227.798 19.9862 227.816 19.9289C227.922 19.617 228.233 19.6485 228.374 19.846C228.476 19.989 228.432 20.1994 228.749 20.1407C228.947 20.1035 229.227 19.9547 229.245 19.8374C229.297 19.504 229.232 19.1605 229.212 18.7885C229.232 18.787 229.435 18.7427 229.485 18.7842C230.002 19.2178 229.994 19.2221 230.665 19.0518C231.169 19.421 230.693 19.9003 230.971 20.2938C231.01 20.3482 231.064 20.3954 231.132 20.4684C231.206 20.3396 231.273 20.2252 231.392 20.0205C231.514 20.208 231.597 20.3353 231.681 20.4613C231.723 20.2395 232.17 20.0148 231.508 19.8374C231.075 19.72 231.21 19.2507 231.484 19.0961C231.901 18.8615 231.796 18.6583 231.686 18.3935C231.651 18.3105 231.716 18.2075 231.738 18.1002C232.446 18.3692 231.85 19.2092 233.014 19.2435C233.108 19.1891 233.316 19.0675 233.523 18.9473C233.653 19.0475 233.781 19.1476 233.911 19.2478C233.888 19.4667 233.141 19.4152 233.514 19.8102C233.638 19.9418 233.049 20.1007 233.414 20.3625C233.644 20.5271 233.905 20.5214 234.15 20.5972C234.398 20.673 234.561 20.8906 234.606 21.1767C234.446 21.1109 234.213 20.9621 234.14 20.9936C233.34 21.337 233.026 21.015 232.821 20.4656C232.71 20.6487 232.641 20.7618 232.52 20.9607C232.422 20.7761 232.355 20.653 232.248 20.4498C232.157 20.6058 232.1 20.7045 232.033 20.8204C231.989 20.8347 231.905 20.8863 231.827 20.882C231.232 20.8491 230.66 20.8419 230.068 20.6473C229.713 20.5299 229.132 20.7517 228.649 20.8219C228.858 21.1352 229.301 21.4486 228.391 21.6032C228.133 21.6475 228.202 22.4217 228.415 22.6005C228.745 22.8767 228.969 22.8424 229.416 22.4789C229.49 22.4188 229.662 22.4174 229.876 22.3702C229.898 22.5304 229.916 22.6506 229.929 22.7723C229.957 23.0241 229.72 23.3303 230.139 23.5049C230.519 23.6637 230.947 23.7639 231.356 23.8855C231.388 23.8956 231.455 23.8812 231.481 23.8626C232.061 23.4434 232.048 23.9185 232.272 24.1045C232.66 24.4222 232.682 24.4093 232.27 24.7012C232.072 24.6225 231.885 24.5481 231.603 24.4365C231.586 24.6769 231.575 24.8328 231.56 25.0403C231.837 25.1419 232.187 25.2707 232.645 25.4396C232.63 25.6442 232.613 25.896 232.595 26.1579C232.834 26.1035 233.062 26.0205 233.097 26.0491C233.238 26.1665 233.393 26.3153 233.408 26.4584C233.44 26.7517 233.382 27.048 233.356 27.4372C233.56 27.3427 233.655 27.2998 233.788 27.2383C234.059 27.5688 234.333 27.9051 234.613 28.2471C234.708 28.1226 234.806 27.9924 234.911 27.8536C235.037 28.2027 235.178 28.5333 235.267 28.8696C235.299 28.9855 235.204 29.1171 235.167 29.2416C234.572 29.0627 234.795 29.7296 234.272 29.6552C233.951 29.6094 233.616 29.6222 233.084 29.6008C233.562 30.0344 234.311 30.2061 234.292 30.747C234.1 30.8042 233.905 30.8629 233.714 30.9201C233.797 31.0317 233.879 31.1405 233.959 31.2492C233.718 31.3165 233.477 31.3852 233.043 31.5082C233.223 31.2664 233.338 31.1562 233.392 31.0332C233.538 30.7026 232.598 30.8872 232.85 30.4937C232.756 30.4994 232.661 30.5051 232.567 30.5094C232.678 30.8743 232.081 30.7098 231.892 30.923C232.196 31.3108 232.498 31.6943 232.921 32.2323C232.552 32.1193 232.404 32.0749 232.124 31.989C232.215 32.3353 232.292 32.6287 232.374 32.9392C232.109 32.8762 231.859 32.8176 231.399 32.7088C231.634 32.922 231.714 32.995 231.812 33.0837C231.546 33.1567 231.136 33.3427 231.036 33.2812C230.372 32.8777 230.817 33.6232 230.489 33.5187C230.28 33.2139 230.05 33.0494 229.535 32.8677C229.511 33.2111 229.488 33.5273 229.466 33.8464C229.14 33.8593 228.912 33.8679 228.582 33.8793C228.573 33.9995 228.586 34.1269 228.547 34.2471C228.526 34.3072 228.413 34.3516 228.343 34.4031C228.024 34.0782 227.716 34.5791 227.407 34.4031C227.077 34.2156 226.79 34.7207 226.458 34.4202C226.28 34.5276 225.985 34.6177 225.946 34.7465C225.854 35.0627 225.878 35.3962 225.846 35.8512C225.348 35.6051 224.997 35.4319 224.527 35.1987C224.469 35.462 224.432 35.6394 224.376 35.8913C225.001 35.917 225.563 35.9399 226.126 35.9642C226.115 36.1317 226.104 36.2991 226.089 36.5037C225.833 36.5266 225.568 36.5509 225.24 36.5796C225.218 36.7284 225.194 36.8858 225.159 37.1147C224.81 37.1004 224.454 37.0861 224.063 37.0689C224.052 37.2306 224.002 37.3322 224.047 37.4095C224.243 37.7529 224.467 38.0892 224.725 38.4985C225.003 38.4598 225.42 38.4012 225.963 38.3239C225.939 38.6602 225.922 38.9192 225.957 39.2254C225.722 39.015 225.44 39.0952 225.144 39.1281C224.386 39.2154 224.795 39.4887 224.782 39.7548C225.227 39.5803 225.574 39.4429 225.957 39.2254C225.994 39.2683 226.185 39.4157 226.158 39.44C225.944 39.6232 225.889 39.825 225.822 40.0539C225.716 40.4102 225.299 40.7451 225.976 41.0542C226.07 41.0971 226.037 41.2974 226.033 41.4248C226.024 41.7238 225.994 42.0229 225.969 42.4164C226.693 42.3062 227.392 42.2977 227.909 41.8712C228.069 42.3578 228.519 42.6411 229.012 42.8056C228.838 42.933 228.676 43.0518 228.515 43.1705C228.712 43.2721 228.684 43.6814 229.184 43.3923C229.281 43.3365 229.579 43.6642 229.779 43.3795C230.582 44.0678 230.534 45.1281 231.944 45.6389C231.56 45.8207 231.208 45.9409 230.949 46.1255C230.752 46.2643 231.095 46.7093 230.417 46.6077C230.294 46.2027 230.176 45.8064 230.057 45.4128C229.657 45.43 229.883 45.9108 229.375 45.7691C229.086 45.6876 228.799 45.6003 228.408 45.4858C228.465 45.659 228.589 45.8378 228.528 45.8765C228.226 46.0697 228.406 46.2128 228.649 46.124C229.09 45.9623 229.264 46.0825 229.514 46.3644C229.344 46.4989 229.168 46.6377 228.964 46.7966C228.676 46.6935 228.408 46.5962 228.07 46.4746C228 46.7193 227.948 46.9025 227.892 47.0971C227.342 46.7508 226.171 47.0785 226.204 46.1813C225.726 46.6721 225.583 46.7079 224.894 46.5934C224.328 46.4989 223.759 46.4117 223.2 46.3229C222.786 46.9468 223.813 47.2144 223.82 47.6108C223.83 48.1775 224.499 48.4422 224.591 48.9445C224.291 48.9459 223.817 49.1806 223.787 48.6511C223.422 48.6955 223.018 48.6869 222.699 48.7971C222.106 49.0017 221.884 49.0918 221.405 49.0675C221.088 49.0503 220.72 49.1233 220.512 48.8615C220.367 48.9258 220.223 48.9917 220.054 49.0675C220.182 49.2664 220.328 49.4481 220.417 49.6427C220.493 49.8145 220.505 49.9991 220.564 50.2738C220.123 49.9232 219.795 49.6556 219.448 49.4009C219.428 49.3866 219.259 49.4696 219.161 49.5068C219.226 49.5569 219.291 49.607 219.4 49.6914C218.84 49.8588 218.297 50.0205 217.661 50.2094C217.484 50.3454 217.819 50.7632 217.285 50.8161C216.844 50.8605 216.381 50.8362 215.932 50.799C215.649 50.7746 215.376 50.6673 214.837 50.5328C215.052 50.8491 215.122 50.9864 215.233 51.1066C215.33 51.2125 215.471 51.2984 215.552 51.3642C215.369 51.9208 214.939 51.7176 214.47 51.5874C214.392 51.7963 214.314 51.9995 214.231 52.2213C214.092 52.124 213.993 52.0568 213.888 51.9838C213.788 52.1126 213.689 52.2399 213.45 52.5505C213.486 52.0382 213.508 51.7205 213.53 51.4028C213.478 51.3957 213.424 51.3885 213.373 51.3828C213.243 51.5846 213.182 51.8436 212.963 51.9709C212.716 52.1154 212.327 52.1426 212.014 52.217C211.94 52.6535 212.468 52.6721 212.822 52.8309C212.309 53.1844 211.945 52.6792 211.421 52.685C211.527 52.8595 211.604 52.984 211.729 53.1887C211.549 53.2259 211.404 53.2759 211.256 53.2831C210.722 53.306 210.331 53.3747 210.731 53.8383C210.763 53.8755 210.635 54.0358 210.548 54.0515C210.444 54.0716 210.19 53.9771 210.196 53.9657C210.314 53.6108 209.699 53.6995 209.636 53.5221C209.562 53.3117 209.645 53.0756 209.669 52.7422C209.063 53.3332 209.063 53.3332 208.181 53.4319C208.161 53.7153 208.14 54.0072 208.118 54.3334C207.842 54.322 207.618 54.3134 207.403 54.3034C207.277 54.4679 207.173 54.601 207.075 54.7284C206.956 54.7169 206.81 54.7327 206.778 54.6969C206.461 54.352 206.024 54.2304 205.445 54.249C204.969 54.2647 204.487 54.2161 203.944 54.1946C203.714 53.9814 203.457 53.7439 203.143 53.4534C202.702 54.0372 202.059 54.2261 201.233 54.2948C201.247 54.0916 201.258 53.9342 201.268 53.7882C201.151 53.7553 201.064 53.7081 201.021 53.7224C200.741 53.8211 200.41 53.8941 200.211 54.0472C199.824 54.3477 199.318 53.7811 198.984 54.1546C198.788 54.0444 198.591 53.9328 198.397 53.8226C198.16 54.063 198.048 53.824 197.848 53.7181C197.772 53.9943 197.705 54.2433 197.639 54.4908C197.203 54.3878 197.225 54.83 196.819 54.8128C196.516 54.7985 196.232 54.7885 195.972 54.6711C195.991 54.4035 196.009 54.136 196.276 53.4677C195.856 53.276 195.917 53.2731 195.943 53.4935C196 53.9671 196.36 53.9642 196.814 53.8426C196.716 53.5793 196.621 53.326 196.276 53.4663C195.75 53.8541 195.472 53.8426 195.151 53.8297C195.322 53.6366 195.431 53.5135 195.561 53.3675C194.844 52.9898 194.345 53.5664 193.674 53.5192C193.772 53.6065 193.852 53.7482 193.973 53.7696C194.238 53.8169 194.525 53.804 194.781 53.814C195.029 54.2304 194.271 54.3291 194.34 54.4608C194.477 54.7227 194.371 54.8328 194.054 55.0003C193.876 54.7885 193.702 54.5824 193.493 54.3334C193.237 54.3735 192.937 54.4207 192.647 54.4665C192.529 54.3606 192.364 54.2132 192.004 53.8941C191.962 54.4966 191.936 54.8829 191.902 55.3666C191.496 55.2364 191.228 55.1505 190.887 55.0403C190.685 55.2335 190.477 55.4338 190.301 55.6027C190.106 55.544 189.758 55.4066 189.73 55.4338C189.385 55.7672 188.373 55.4009 188.338 56.0663C188.338 56.0835 187.738 56.1651 187.61 56.0778C187.228 55.8202 186.833 55.9218 186.435 55.9289C186.362 56.0549 186.296 56.1693 186.225 56.2924C186.105 56.208 186.007 56.1407 185.886 56.0577C185.814 56.1808 185.747 56.2953 185.664 56.4384C185.358 56.4384 185.033 56.4369 184.594 56.4369C184.613 56.6244 184.553 56.8304 184.663 56.9778C184.861 57.244 185.176 57.3928 185.634 56.985C185.647 57.3127 185.658 57.5545 185.667 57.7777C184.933 58.0511 184.325 57.7019 183.808 57.5402C183.356 57.3985 183.136 56.8877 182.833 56.5614C182.956 56.2824 183.591 56.3983 183.51 56.0406C183.647 56.0792 183.784 56.1164 184.003 56.1779C184.229 55.9146 184.479 55.6242 184.763 55.2936C183.99 55.3852 183.688 55.3079 183.547 55.0017C183.525 54.9516 183.59 54.8829 183.616 54.8228C183.716 54.86 183.81 54.9087 183.916 54.9301C183.975 54.9416 184.094 54.9187 184.112 54.8886C184.147 54.8314 184.131 54.7584 184.136 54.6683C183.695 54.5781 183.243 54.4851 182.665 54.3663C182.757 54.5624 182.833 54.7198 182.911 54.8815C182.746 54.9788 182.275 54.86 182.39 55.1791C182.422 55.2635 182.65 55.3151 182.822 55.3981C182.885 55.9719 182.003 55.8231 181.592 56.0735C181.555 56.0406 181.499 56.0005 181.456 55.9533C181.267 55.7415 181.92 55.3093 181.084 55.2664C180.822 55.2535 181.117 54.5767 180.485 55.0217C180.45 54.9645 180.368 54.8958 180.389 54.8529C180.426 54.7742 180.509 54.664 180.602 54.6497C181.112 54.5667 181.63 54.5094 182.468 54.4007C181.875 54.3091 181.612 54.269 181.132 54.1946C181.488 54.1059 181.794 54.0816 181.81 54.0186C181.925 53.5722 182.435 54.4365 182.452 53.9256C182.459 53.7067 182.031 53.6179 181.493 53.6509C181.175 53.6695 180.847 53.6294 180.478 53.6151C180.5 53.2817 180.52 52.9898 180.543 52.6749C180.024 52.881 180.024 52.881 180.229 53.1429C179.81 53.2273 179.429 53.2445 179.052 53.0642C178.945 53.0127 178.813 52.964 178.685 52.954C177.964 52.8967 177.983 52.8996 177.937 52.559C177.89 52.217 177.801 51.8765 177.724 51.5001C176.923 51.9137 177.132 52.4846 177.023 53.0756C176.63 52.9082 176.276 52.7565 175.946 52.6163C176.013 52.3372 176.643 52.5462 176.534 52.177C176.452 51.9008 176.737 51.5846 176.302 51.3413C176.002 51.1739 175.74 51.171 175.412 51.307C174.938 51.5044 174.428 51.6304 173.841 51.5502C173.687 51.5288 173.499 51.659 173.338 51.6461C172.927 51.6132 172.599 52.1641 172.141 51.7176C172.124 51.7019 172.048 51.6947 172.046 51.6976C171.768 52.1398 170.994 51.9065 170.578 52.2342C170.525 52.0997 170.478 51.9838 170.425 51.8479C169.7 52.1212 169.083 52.0038 168.454 51.5974C168.529 51.7277 168.606 51.8564 168.677 51.9867C168.77 52.1569 168.707 52.2199 168.464 52.3473C168.097 52.5404 167.709 52.7379 167.416 53.0255C167.157 53.2802 167.213 53.5221 167.187 53.7725C167.172 53.9256 167.598 54.0243 168.034 53.9657C167.884 54.2719 167.745 54.5581 167.585 54.8843C167.298 54.8729 166.977 54.8586 166.59 54.8428C166.571 55.099 166.556 55.3222 166.54 55.5569C165.85 55.7758 164.894 55.6299 164.651 56.3153C164.636 56.3582 164.408 56.364 164.279 56.3868L163.552 56.0806C163.459 56.0663 163.367 56.052 163.274 56.0377C163.274 56.0377 162.481 55.9576 162.444 55.9547C162.41 56.1121 162.379 56.2695 162.319 56.5514C162.058 56.364 161.856 56.218 161.597 56.0334C161.048 56.4684 159.967 55.9146 159.589 56.7546C159.219 56.4856 158.998 56.3268 158.839 56.2108C158.498 56.2724 158.197 56.3268 157.805 56.3983C157.769 56.5142 157.716 56.6988 157.64 56.9592C156.529 56.8319 155.436 56.7131 154.346 56.5743C154.183 56.5543 154.036 56.4512 153.89 56.3783C153.742 56.3039 153.608 56.2137 153.458 56.1422C153.273 56.0563 153.076 55.9819 152.904 55.9118C151.885 56.0048 152.609 56.8648 151.794 57.058C151.254 56.8376 151.777 56.3582 151.256 56.0821C150.943 56.1035 150.667 56.7532 150.142 56.2194C149.744 56.3983 149.433 56.7832 148.819 56.4641C148.912 56.3969 149.001 56.3325 149.167 56.2108C148.858 56.1765 148.606 56.1493 148.246 56.1107C148.226 56.4083 148.209 56.6559 148.187 56.9707C147.451 56.4355 147.451 56.4355 147.338 55.9361C146.892 55.969 146.443 55.9962 145.998 56.0348C145.835 56.0491 145.839 56.0606 145.587 56.4899C145.559 56.5371 145.507 56.5986 145.448 56.6101C145.144 56.6716 144.906 56.2538 144.562 56.54C144.428 56.3811 144.458 55.949 144.015 56.2194C143.57 56.4913 143.509 55.9003 143.105 56.188C142.934 56.384 143.09 56.8147 142.38 56.9177C142.041 56.9664 141.832 57.2583 141.316 57.2826C140.695 57.3112 140.18 57.4415 139.513 57.2096C138.957 57.0165 138.193 57.1295 137.522 57.0866C137.335 57.0751 137.159 56.9607 136.976 56.9549C136.824 56.9506 136.666 57.0365 136.431 57.1066C136.392 56.8491 136.364 56.663 136.331 56.4312C136.14 56.4455 135.975 56.4584 135.771 56.4741C135.908 56.59 135.993 56.6645 136.114 56.7675C135.741 56.9092 135.387 57.0437 135.026 57.181C134.492 56.7503 134.169 56.1207 133.119 56.1035C132.97 56.321 132.857 56.5571 132.663 56.756C132.431 56.9921 131.94 56.7532 131.756 56.8719C131.278 57.1825 130.507 56.6358 130.136 57.171C130.107 57.2139 129.682 57.1681 129.499 57.0937C129.389 57.0494 129.389 56.8705 129.326 56.7188C128.958 57.4715 128.839 57.586 128.194 57.7319C128.893 57.1696 128.466 56.8176 127.833 56.5171C127.784 56.6001 127.719 56.7145 127.618 56.8934C127.354 56.7689 127.467 56.3697 126.967 56.4484C126.504 56.5199 126.218 56.673 126.261 57.2512C126.037 56.882 125.957 56.7503 125.859 56.5886C125.355 56.6959 124.856 56.8018 124.35 56.9091C124.331 56.882 124.285 56.8262 124.261 56.7675C124.198 56.6258 124.146 56.4813 124.09 56.3368C123.903 56.4341 123.714 56.5314 123.482 56.6501C123.447 56.5071 123.399 56.3139 123.347 56.105C122.595 56.0821 122.55 56.4527 122.469 56.8648C122.126 56.7231 121.811 56.5915 121.497 56.4613C121.281 56.8104 120.712 57.1252 121.449 57.5717C120.782 57.2655 120.782 57.2655 120.726 56.5528C120.612 56.6716 120.552 56.7231 120.508 56.7789C120.467 56.8333 120.441 56.8934 120.391 56.9807C119.892 56.7847 119.398 56.5915 118.851 56.3754C118.819 56.8347 118.782 57.3513 118.745 57.8979C118.417 57.8851 118.193 57.875 117.844 57.8607C117.92 57.7033 117.996 57.5474 118.082 57.3756C117.922 57.3098 117.696 57.2154 117.409 57.0952C117.148 57.3256 116.853 57.5846 116.53 57.8679C116.469 57.4515 116.161 57.3399 115.613 57.43C115.565 57.5974 115.513 57.7806 115.459 57.9681C114.927 57.9008 115.676 57.2941 114.84 57.3814C114.679 57.6919 114.503 58.031 114.33 58.3616C113.7 58.2729 114.06 57.7277 113.468 57.7091C112.792 57.6876 112.427 56.9821 111.463 57.3284C111.821 57.4071 112.073 57.4629 112.403 57.5345C112.008 57.8378 111.641 58.1197 111.159 58.4904C111.183 58.1441 111.2 57.8922 111.216 57.6604C111.027 57.6304 110.927 57.5903 110.851 57.6046C110.253 57.7162 110.247 57.7176 110.23 57.3685C110.214 57.0494 110.116 56.9807 109.634 56.9821C109.598 56.9921 109.561 57.0966 109.524 57.2211C109.519 57.2569 109.513 57.224 109.508 57.191C109.141 57.1209 108.776 57.0508 108.42 56.9836C108.373 57.1553 108.325 57.327 108.279 57.4987C108.229 57.4958 108.177 57.493 108.125 57.4901C108.097 57.3055 108.067 57.1209 108.036 56.912C107.695 57.098 107.081 56.7532 106.942 57.1767C106.833 57.513 106.757 57.9094 107.506 58.0883C107.713 57.9781 107.96 57.8464 108.201 57.7191C108.295 57.7806 108.388 57.8407 108.536 57.9366C108.598 57.7148 108.649 57.5331 108.698 57.3585C108.998 57.3356 109.261 57.3127 109.524 57.2211ZM228.639 44.5271C228.417 44.3783 228.144 44.1951 227.9 44.0305C227.692 44.2838 227.931 44.5099 228.261 44.7203C228.398 44.6502 228.537 44.5786 228.701 44.54C228.708 44.6688 228.715 44.7932 228.721 44.8977C229.333 44.9235 229.876 44.9449 230.608 44.975C230.237 44.8376 230.048 44.7689 229.859 44.6988C229.965 44.623 230.057 44.5571 230.269 44.4069C229.974 44.4212 229.683 44.4069 229.674 44.4384C229.479 45.0508 229.064 44.6544 228.639 44.5271ZM82.0062 4.90391C82.2564 5.27739 82.4511 5.56501 82.6994 5.9342C82.7736 5.61653 82.7309 5.32032 82.9163 5.13859C83.1053 4.95399 83.0404 4.89675 82.8755 4.77226C82.6864 4.6306 82.5066 4.59053 82.2897 4.73076C82.186 4.79659 82.0785 4.85955 82.0989 5.04271C81.1629 4.92823 81.3816 5.28741 81.4409 5.73673C81.7208 5.44195 81.895 5.25736 82.0062 4.90391ZM227.728 20.4183C227.507 20.2824 227.246 20.1236 226.986 19.9647C227.564 19.5912 226.892 19.607 226.677 19.4653C226.51 19.3551 226.397 19.2063 226.206 19.0232C226.059 19.3508 225.943 19.6513 225.781 19.939C225.752 19.9933 225.526 20.0334 225.42 20.0105C225.335 19.9919 225.229 19.8574 225.251 19.793C225.288 19.6857 225.416 19.5927 225.539 19.4596C225.06 19.4396 224.61 19.421 224.176 19.4038C224.05 19.5898 223.946 19.7444 223.841 19.9003C224.056 19.9962 224.445 19.9433 224.345 20.2624C224.254 20.5514 224.273 20.8376 224.775 20.9664C224.957 20.7203 225.138 20.4741 225.324 20.2209C225.533 20.4269 225.691 20.3554 225.961 20.2667C226.215 20.1837 226.586 20.2724 226.875 20.2838C226.914 20.5385 226.94 20.7117 226.96 20.8433C227.255 20.6816 227.509 20.54 227.728 20.4183ZM29.9153 13.6184C29.5705 13.4896 29.3017 13.3895 29.0756 13.3036C28.8069 13.5354 28.5807 13.7272 28.362 13.9247C28.325 13.9576 28.3325 14.0148 28.3009 14.1236C28.5845 14.0635 28.8087 14.0162 29.1423 13.9461C29.2554 14.2123 29.3685 14.477 29.4723 14.7188C29.7077 14.7289 29.932 14.7374 30.1933 14.7489C30.0988 14.3582 30.0098 13.9976 29.9153 13.6184ZM224.247 39.6275C224.141 39.3027 224.043 38.9993 223.933 38.6616C223.259 38.9492 222.875 39.2483 222.994 39.7391C223.005 39.7863 223.09 39.825 223.081 39.8178C223.435 39.7606 223.735 39.7105 224.247 39.6275ZM211.352 11.9342C212.322 12.1703 212.307 11.6437 212.67 11.2888C212.16 11.2674 211.78 11.2516 211.4 11.2359C211.382 11.4892 211.369 11.6852 211.352 11.9342ZM67.5271 58.7351C68.2462 58.5562 68.8746 58.4317 69.5289 58.5304C69.7068 58.197 69.4659 57.9881 69.2119 58.1369C68.7838 58.3888 68.5687 58.25 68.2685 58.074C68.2203 58.0453 68.0943 58.0811 68.0053 58.0868C67.8422 58.3101 67.6847 58.5233 67.5271 58.7351ZM233.612 28.0196C233.586 28.3859 233.558 28.5118 233.575 28.6349C233.601 28.8238 233.603 28.8181 233.317 29.0785C233.251 29.1386 233.232 29.2817 233.29 29.3375C233.353 29.399 233.612 29.4505 233.645 29.4233C233.957 29.1643 234.239 28.8867 234.539 28.6048C234.261 28.4303 234.063 28.3058 233.612 28.0196ZM78.2029 5.17722C77.8526 4.45888 77.8526 4.45888 77.1038 4.52041C77.1835 5.20298 77.2373 5.23589 78.2029 5.17722ZM34.5748 56.281C34.2541 56.3568 33.8816 56.4455 33.333 56.5772C33.7111 56.8705 33.8872 57.0079 34.1263 57.1939C34.4525 57.0007 34.6526 56.882 34.8417 56.7704C34.7082 56.5257 34.5989 56.3239 34.5748 56.281ZM85.8984 6.27333C85.3424 6.79134 84.6974 6.40069 84.2174 6.59673C84.0691 6.84285 84.1914 6.96019 84.5713 6.94732C84.7956 6.94016 85.1663 6.9788 85.2182 6.90725C85.4796 6.54379 85.6371 7.12046 85.8558 6.91297C85.8632 6.77417 85.8743 6.61963 85.8984 6.27333ZM25.871 53.2702C25.6115 53.0241 25.3799 52.8796 25.302 52.7036C25.2539 52.5934 25.4411 52.436 25.5245 52.3C25.4689 52.2729 25.4132 52.2457 25.3576 52.217C25.1185 52.3372 24.8776 52.456 24.6552 52.5676C24.8238 52.8424 24.948 53.0413 25.0685 53.2373C25.2927 53.2459 25.5189 53.2545 25.871 53.2702ZM227.676 43.2607C227.381 43.0432 227.146 42.8672 226.829 42.6325C226.806 42.9659 226.743 43.255 226.786 43.5354C226.804 43.6556 227.038 43.763 227.186 43.8874C227.362 43.6614 227.507 43.4768 227.676 43.2607ZM26.8775 49.7186C26.8979 49.4338 26.9146 49.1891 26.9349 48.8987C26.6365 48.8987 26.3808 48.9001 25.973 48.9001C26.2788 49.2407 26.1528 49.6513 26.8775 49.7186ZM116.191 56.7288C116.184 56.8262 116.173 56.9235 116.173 57.0222C116.169 57.2697 116.597 57.264 116.603 57.2139C116.66 56.7145 117.305 56.9478 117.642 56.8047C117.164 56.4813 116.686 56.4698 116.191 56.7288ZM44.8299 56.0019C44.6279 56.4756 44.4555 56.8634 44.3072 57.2554C44.2831 57.3184 44.3721 57.4028 44.3758 57.41C44.6594 57.2812 44.9318 57.1567 45.0727 57.0923C44.9837 56.6988 44.9151 56.394 44.8299 56.0019ZM29.2054 56.0463C29.0794 56.2938 28.9552 56.5371 28.8125 56.8161C28.9904 56.902 29.2017 57.005 29.4834 57.1424C29.6799 56.6959 29.7633 56.3439 29.2054 56.0463ZM144.476 2.08922C144.243 1.88745 144.037 1.71002 143.824 1.52542C143.513 1.9633 143.477 2.10496 143.624 2.42549C143.642 2.46413 143.739 2.48703 143.798 2.51564C144.013 2.37827 144.224 2.24662 144.476 2.08922ZM77.2707 2.91917C77.8786 3.07944 78.2511 3.1839 78.6292 3.27262C78.6959 3.28836 78.7942 3.23685 78.8776 3.21681C78.8387 3.17245 78.809 3.09375 78.759 3.08659C78.3401 3.02649 78.1047 2.86766 78.0917 2.55857C78.0899 2.52852 77.9768 2.4999 77.9101 2.46842C77.747 2.58433 77.5895 2.69451 77.2707 2.91917ZM85.3313 6.12308C85.6445 6.13596 85.9318 6.14741 86.0986 6.15456C86.0245 5.81543 85.9559 5.5092 85.8669 5.10138C85.6557 5.50491 85.5055 5.78967 85.3313 6.12308ZM50.7572 58.3144C50.2845 58.6921 50.5792 58.9654 50.9703 59.1472C51.0908 59.203 51.4448 59.0098 51.9026 58.8638C51.2298 58.7723 50.7238 58.7851 50.7572 58.3144ZM47.6767 7.49108C47.838 7.27071 47.9956 7.11903 48.0567 6.94875C48.0883 6.86289 47.9492 6.74555 47.8881 6.64109C47.7602 6.69833 47.6063 6.73983 47.5137 6.81853C47.395 6.91869 47.3265 7.04891 47.245 7.15337C47.371 7.25497 47.4654 7.32795 47.6767 7.49108ZM87.9335 8.49847C88.0762 8.40975 88.2171 8.32103 88.3005 8.26809C88.0855 7.93754 87.8816 7.62559 87.6703 7.29933C87.3515 7.7601 87.6963 8.12356 87.9335 8.49847ZM212.17 10.2729C212.412 9.55165 212.377 9.52447 211.543 9.43146C211.749 9.7062 211.942 9.96663 212.17 10.2729ZM226.491 17.296C226.508 17.047 226.523 16.8481 226.538 16.6277C225.661 16.8853 225.548 16.9855 225.841 17.213C225.943 17.1543 226.043 17.0942 226.145 17.0356C226.174 17.0556 226.206 17.0756 226.235 17.0985C226.298 17.1457 226.361 17.1944 226.491 17.296ZM7.93717 28.725C7.63135 28.2428 7.5294 28.2399 6.67125 28.6721C7.09754 28.6907 7.44786 28.705 7.93717 28.725ZM225.831 43.637C225.996 44.0277 226.124 44.3253 226.339 44.8319C226.376 44.2996 226.399 43.989 226.421 43.6614C226.245 43.6528 226.119 43.6485 225.831 43.637ZM8.93059 39.0809C9.32908 38.9406 9.64421 38.8362 9.95188 38.7188C10.0019 38.7002 10.013 38.6344 10.0593 38.5686C9.68305 38.5528 9.33648 38.5385 8.9695 38.5242C8.95653 38.7145 8.94541 38.8677 8.93059 39.0809ZM178.541 52.6907C178.854 52.5404 178.984 52.4789 179.112 52.4174C178.773 52.2442 179.238 51.9137 178.839 51.7606C178.793 51.742 178.685 51.8006 178.6 51.8264C178.585 52.0439 178.57 52.2628 178.541 52.6907ZM162.998 52.6921C162.874 52.26 162.694 52.0224 162.056 52.1298C162.149 52.4789 162.299 52.7136 162.998 52.6921ZM56.362 58.7765C56.4491 59.0556 56.5085 59.2273 56.5548 59.4019C56.6382 59.7095 56.8624 59.658 57.1868 59.492C56.9569 59.2516 57.0737 58.8395 56.362 58.7765ZM13.4678 25.8259C13.2862 26.4312 13.2862 26.4312 13.9646 26.8562C13.7681 26.4498 13.6476 26.2008 13.4678 25.8259ZM12.3872 21.5688C12.1648 21.4916 11.8924 21.3957 11.6181 21.3012C11.6496 21.5216 11.809 21.5903 11.9221 21.6862C12.0611 21.8049 12.1611 21.9452 12.3483 22.1541C12.3631 21.9108 12.3743 21.7563 12.3872 21.5688ZM30.6196 13.9876C30.7382 14.1636 30.829 14.2996 30.9347 14.4555C31.1775 14.218 31.6853 14.1264 31.3146 13.8717C31.2108 13.8016 30.7956 13.9547 30.6196 13.9876ZM31.246 12.5094C31.1088 12.4036 31.0032 12.2876 30.8549 12.219C30.7678 12.1775 30.5158 12.1846 30.5028 12.2118C30.4528 12.312 30.4454 12.4307 30.4713 12.5366C30.4991 12.654 30.5825 12.7641 30.6288 12.8514C30.9643 12.6654 31.1051 12.5881 31.246 12.5094ZM19.9715 50.7002C20.142 50.3439 20.2533 50.2151 20.2477 50.0892C20.244 50.0005 20.0957 49.8502 19.9882 49.8388C19.6083 49.7959 19.6917 50.0263 19.6917 50.1679C19.6935 50.2652 19.788 50.3625 19.9715 50.7002ZM223.296 16.9025C223.483 16.7236 223.982 16.6306 223.624 16.3759C223.526 16.3058 223.107 16.4546 222.744 16.5204C222.983 16.685 223.111 16.7751 223.296 16.9025ZM24.2567 48.7999C23.6265 48.943 24.0695 49.2464 24.0676 49.4825C24.0676 49.5111 24.1825 49.5412 24.2456 49.5698C24.3809 49.4782 24.5106 49.3923 24.6014 49.3322C24.4735 49.1362 24.3623 48.9645 24.2567 48.7999ZM89.837 5.87553C89.6832 5.72099 89.6165 5.57503 89.4997 5.55213C89.1772 5.48631 89.0938 5.64944 89.1383 5.83117C89.1642 5.93849 89.2661 6.03723 89.3328 6.13882C89.4774 6.06155 89.6239 5.98571 89.837 5.87553ZM8.60813 38.248C7.78706 38.5757 8.61548 38.9435 8.53763 39.2755C8.55802 38.9664 8.57848 38.6573 8.60813 38.248ZM142.749 1.80446C142.519 1.92323 142.406 1.9819 142.293 2.04057C142.564 2.20799 142.556 2.36539 142.265 2.51421C142.365 2.5829 142.464 2.65302 142.68 2.80327C142.705 2.4212 142.723 2.17794 142.749 1.80446ZM7.572 19.989C7.44967 19.8159 7.34033 19.6599 7.1624 19.4095C7.13645 19.7844 7.11979 20.0248 7.0957 20.3654C7.31255 20.1937 7.43114 20.0992 7.572 19.989ZM223.561 15.9165C223.605 15.9881 223.648 16.0554 223.689 16.1226C223.813 16.0611 224.024 16.011 224.041 15.938C224.08 15.7763 224.219 15.5016 223.75 15.5273C223.109 15.5617 224.032 15.7935 223.561 15.9165ZM88.0837 5.76534C88.0132 5.56215 87.9576 5.40617 87.902 5.24877C87.839 5.2688 87.776 5.29027 87.713 5.3103C87.7185 5.555 87.726 5.79969 87.7352 6.18318C87.9817 5.88554 88.1115 5.731 88.0837 5.76534ZM90.8656 5.36325C90.7322 5.14431 90.621 4.95829 90.5024 4.76368C90.3578 4.94827 90.2206 5.12285 90.0575 5.33033C90.3337 5.34178 90.5876 5.3518 90.8656 5.36325ZM118.019 4.80231C118.059 4.54045 118.115 4.43742 118.078 4.35585C118.035 4.25855 117.924 4.16983 117.815 4.09685C117.785 4.07682 117.589 4.1269 117.589 4.1455C117.587 4.25712 117.594 4.37732 117.65 4.48178C117.698 4.5662 117.818 4.63203 118.019 4.80231ZM152.526 2.61867C152.396 2.44267 152.268 2.27095 151.99 1.89747C152.003 2.36539 152.011 2.61581 152.02 2.93635C152.235 2.80184 152.339 2.73744 152.526 2.61867ZM188.394 55.4939C188.266 55.3151 188.143 55.1419 187.862 54.747C187.875 55.2407 187.882 55.4882 187.891 55.8087C188.112 55.6685 188.216 55.6041 188.394 55.4939ZM166.718 52.6163C166.338 52.0825 165.932 52.4632 165.261 52.5562C165.923 52.5834 166.303 52.5991 166.718 52.6163ZM227.716 46.041C227.637 45.9437 227.518 45.8522 227.486 45.7477C227.442 45.6003 227.462 45.4458 227.455 45.2926C227.299 45.5831 226.84 45.9208 227.716 46.041Z" fill="#DB4D29"/>
</svg>