<svg width="20" height="18" viewBox="0 0 20 18" fill="none" xmlns="http://www.w3.org/2000/svg">
<path d="M19.1313 17.6199H7.82673C7.34666 17.6199 6.95703 17.2305 6.95703 16.7504C6.95703 16.2703 7.34666 15.8809 7.82673 15.8809H19.1313C19.6114 15.8809 20.0008 16.2703 20.0008 16.7504C20.0008 17.2305 19.6114 17.6199 19.1313 17.6199V17.6199Z" fill="#DB4D29"/>
<path d="M16.7547 2.09352L15.525 0.863819C14.8677 0.206374 13.7224 0.20733 13.0659 0.863819L11.2676 2.66212L14.9564 6.35092L16.7547 4.55261C17.0833 4.22477 17.2642 3.78833 17.2642 3.32307C17.2642 2.85877 17.0833 2.42217 16.7547 2.09352Z" fill="#DB4D29"/>
<path d="M10.0372 3.89453L1.0751 12.8566C1.01778 12.9131 0.977815 12.9852 0.959504 13.0644L0.0116297 17.0861C-0.0230816 17.2323 0.0211833 17.387 0.127387 17.4931C0.20907 17.5757 0.320369 17.6209 0.434216 17.6209C0.467335 17.6209 0.50125 17.6174 0.53421 17.6096L4.55611 16.6618C4.63445 16.6436 4.70658 16.6035 4.7639 16.5462L13.7259 7.58428L10.0372 3.89453Z" fill="#DB4D29"/>
</svg>