<svg width="18" height="18" viewBox="0 0 18 18" fill="none" xmlns="http://www.w3.org/2000/svg">
<path d="M16.5583 3.35768C15.2167 3.22435 13.875 3.12435 12.525 3.04935V3.04102L12.3417 1.95768C12.2167 1.19102 12.0333 0.0410156 10.0833 0.0410156H7.89999C5.95832 0.0410156 5.77499 1.14102 5.64165 1.94935L5.46666 3.01602C4.69166 3.06602 3.91666 3.11602 3.14166 3.19102L1.44166 3.35768C1.09166 3.39102 0.841656 3.69935 0.874989 4.04102C0.908322 4.38268 1.20832 4.63268 1.55832 4.59935L3.25832 4.43268C7.62499 3.99935 12.025 4.16602 16.4417 4.60768C16.4667 4.60768 16.4833 4.60768 16.5083 4.60768C16.825 4.60768 17.1 4.36602 17.1333 4.04102C17.1583 3.69935 16.9083 3.39102 16.5583 3.35768Z" fill="#959595"/>
<path d="M15.025 5.78398C14.825 5.57565 14.55 5.45898 14.2667 5.45898H3.73335C3.45002 5.45898 3.16668 5.57565 2.97502 5.78398C2.78335 5.99232 2.67501 6.27565 2.69168 6.56732L3.20835 15.1173C3.30002 16.384 3.41668 17.9673 6.32502 17.9673H11.675C14.5833 17.9673 14.7 16.3923 14.7917 15.1173L15.3083 6.57565C15.325 6.27565 15.2167 5.99232 15.025 5.78398ZM10.3833 13.7923H7.60835C7.26668 13.7923 6.98335 13.509 6.98335 13.1673C6.98335 12.8257 7.26668 12.5423 7.60835 12.5423H10.3833C10.725 12.5423 11.0083 12.8257 11.0083 13.1673C11.0083 13.509 10.725 13.7923 10.3833 13.7923ZM11.0833 10.459H6.91668C6.57502 10.459 6.29168 10.1757 6.29168 9.83398C6.29168 9.49232 6.57502 9.20898 6.91668 9.20898H11.0833C11.425 9.20898 11.7083 9.49232 11.7083 9.83398C11.7083 10.1757 11.425 10.459 11.0833 10.459Z" fill="#959595"/>
</svg>