<svg width="48" height="48" viewBox="0 0 48 48" fill="none" xmlns="http://www.w3.org/2000/svg">
<g id="solar:cart-plus-bold">
<g id="Group">
<path id="Vector" fill-rule="evenodd" clip-rule="evenodd" d="M8.80038 7.57016C8.48492 7.45944 8.1384 7.47857 7.83704 7.62334C7.53568 7.76811 7.30418 8.02667 7.19345 8.34213C7.08273 8.65759 7.10186 9.00411 7.24663 9.30547C7.3914 9.60683 7.64996 9.83833 7.96542 9.94906L8.4039 10.1019C9.52615 10.4967 10.2637 10.7571 10.8063 11.0243C11.3154 11.2746 11.5388 11.4779 11.6866 11.6929C11.8378 11.9147 11.9554 12.2204 12.0226 12.8303C12.0898 13.4687 12.0932 14.3003 12.0932 15.5435V19.9149C12.0932 24.8575 12.199 26.4871 13.6556 28.0226C15.1105 29.5581 17.4524 29.5581 22.1397 29.5581H31.0471C33.6696 29.5581 34.9817 29.5581 35.9073 28.8021C36.8347 28.0461 37.1002 26.7626 37.6294 24.1955L38.4694 20.1215C39.0523 17.1983 39.343 15.7384 38.597 14.769C37.8511 13.7996 35.3042 13.7996 32.4734 13.7996H14.5998C14.5926 13.3855 14.5685 12.9719 14.5275 12.5598C14.4368 11.7248 14.2419 10.9638 13.7682 10.2716C13.2911 9.57273 12.656 9.12585 11.9151 8.76129C11.223 8.42193 10.3426 8.11281 9.30775 7.74824L8.80038 7.57016ZM25.5333 17.5797C25.8675 17.5797 26.1879 17.7124 26.4242 17.9487C26.6605 18.185 26.7933 18.5055 26.7933 18.8397V20.9397H28.8933C29.2275 20.9397 29.548 21.0724 29.7843 21.3087C30.0206 21.545 30.1533 21.8655 30.1533 22.1997C30.1533 22.5339 30.0206 22.8544 29.7843 23.0906C29.548 23.3269 29.2275 23.4597 28.8933 23.4597H26.7933V25.5597C26.7933 25.8939 26.6605 26.2144 26.4242 26.4507C26.1879 26.687 25.8675 26.8197 25.5333 26.8197C25.1991 26.8197 24.8786 26.687 24.6423 26.4507C24.406 26.2144 24.2733 25.8939 24.2733 25.5597V23.4597H22.1733C21.8391 23.4597 21.5186 23.3269 21.2823 23.0906C21.046 22.8544 20.9133 22.5339 20.9133 22.1997C20.9133 21.8655 21.046 21.545 21.2823 21.3087C21.5186 21.0724 21.8391 20.9397 22.1733 20.9397H24.2733V18.8397C24.2733 18.5055 24.406 18.185 24.6423 17.9487C24.8786 17.7124 25.1991 17.5797 25.5333 17.5797Z" fill="#FF8C21"/>
<path id="Vector_2" d="M16.2932 33.96C16.9616 33.96 17.6025 34.2255 18.0751 34.6981C18.5477 35.1707 18.8132 35.8116 18.8132 36.48C18.8132 37.1483 18.5477 37.7893 18.0751 38.2619C17.6025 38.7345 16.9616 39 16.2932 39C15.6249 39 14.9839 38.7345 14.5113 38.2619C14.0387 37.7893 13.7732 37.1483 13.7732 36.48C13.7732 35.8116 14.0387 35.1707 14.5113 34.6981C14.9839 34.2255 15.6249 33.96 16.2932 33.96ZM31.4133 33.96C32.0816 33.96 32.7226 34.2255 33.1952 34.6981C33.6678 35.1707 33.9333 35.8116 33.9333 36.48C33.9333 37.1483 33.6678 37.7893 33.1952 38.2619C32.7226 38.7345 32.0816 39 31.4133 39C30.7449 39 30.104 38.7345 29.6314 38.2619C29.1588 37.7893 28.8933 37.1483 28.8933 36.48C28.8933 35.8116 29.1588 35.1707 29.6314 34.6981C30.104 34.2255 30.7449 33.96 31.4133 33.96Z" fill="#FF8C21"/>
</g>
</g>
</svg>
