<svg width="24" height="16" viewBox="0 0 24 16" fill="none" xmlns="http://www.w3.org/2000/svg">
<path d="M20.698 15.6759H0.359672C0.161016 15.6759 0 15.5149 0 15.3162V3.33233C0 3.13367 0.161016 2.97266 0.359672 2.97266H20.698C20.8967 2.97266 21.0577 3.13367 21.0577 3.33233V15.3162C21.0577 15.5148 20.8966 15.6759 20.698 15.6759Z" fill="#5CC45C"/>
<path d="M20.698 2.97266H0.359672C0.161016 2.97266 0 3.13367 0 3.33233V15.0058H21.0577V3.33233C21.0577 3.13372 20.8966 2.97266 20.698 2.97266Z" fill="#4EAD4E"/>
<path d="M22.1219 14.3985H1.7835C1.58484 14.3985 1.42383 14.2375 1.42383 14.0388V2.05498C1.42383 1.85633 1.58484 1.69531 1.7835 1.69531H22.1219C22.3205 1.69531 22.4815 1.85633 22.4815 2.05498V14.0389C22.4815 14.2375 22.3205 14.3985 22.1219 14.3985Z" fill="#5CC45C"/>
<path d="M22.1219 1.69531H1.7835C1.58484 1.69531 1.42383 1.85633 1.42383 2.05498V13.6742H22.4815V2.05498C22.4815 1.85633 22.3205 1.69531 22.1219 1.69531Z" fill="#4EAD4E"/>
<path d="M23.6394 13.0274H3.30108C3.10242 13.0274 2.94141 12.8664 2.94141 12.6678V0.683891C2.94141 0.485235 3.10242 0.324219 3.30108 0.324219H23.6394C23.8381 0.324219 23.9991 0.485235 23.9991 0.683891V12.6678C23.9991 12.8664 23.8381 13.0274 23.6394 13.0274Z" fill="#5CC45C"/>
<path d="M23.6399 0.324219H21.3984V13.0274H23.6399C23.8385 13.0274 23.9995 12.8664 23.9995 12.6677V0.683891C23.9995 0.485281 23.8385 0.324219 23.6399 0.324219Z" fill="#4EAD4E"/>
<path d="M5.71045 11.722C5.63447 10.9509 5.01933 10.3358 4.24828 10.2598C4.20469 10.2555 4.17188 10.2181 4.17188 10.1743V3.17681C4.17188 3.13303 4.20469 3.09558 4.24828 3.09131C5.01933 3.01533 5.63447 2.40019 5.71045 1.62914C5.71477 1.58555 5.75217 1.55273 5.79595 1.55273H21.148C21.1918 1.55273 21.2292 1.58555 21.2335 1.62914C21.3095 2.40019 21.9246 3.01533 22.6957 3.09131C22.7392 3.09563 22.7721 3.13303 22.7721 3.17681V10.1743C22.7721 10.2181 22.7392 10.2555 22.6957 10.2598C21.9246 10.3358 21.3095 10.9509 21.2335 11.722C21.2292 11.7656 21.1918 11.7984 21.148 11.7984H14.4877H13.8197H12.8057H5.796C5.75217 11.7984 5.71477 11.7656 5.71045 11.722Z" fill="#A0E557"/>
<path d="M22.695 3.09131C21.9239 3.01533 21.3088 2.40019 21.2328 1.62914C21.2285 1.58555 21.1911 1.55273 21.1473 1.55273H20.1155V11.7985H21.1473C21.1911 11.7985 21.2285 11.7657 21.2328 11.7221C21.3088 10.951 21.9239 10.3359 22.695 10.2599C22.7386 10.2556 22.7714 10.2182 22.7714 10.1744V3.17686C22.7713 3.13308 22.7386 3.09562 22.695 3.09131Z" fill="#93CC4A"/>
<path d="M13.4714 10.1498C15.3908 10.1498 16.9467 8.59389 16.9467 6.67453C16.9467 4.75517 15.3908 3.19922 13.4714 3.19922C11.552 3.19922 9.99609 4.75517 9.99609 6.67453C9.99609 8.59389 11.552 10.1498 13.4714 10.1498Z" fill="#F3E8D7"/>
<path d="M13.4705 3.19922C13.0001 3.19922 12.5518 3.2932 12.1426 3.46256C13.4029 3.98423 14.2898 5.22553 14.2898 6.67439C14.2898 8.12325 13.4029 9.3645 12.1426 9.88622C12.5518 10.0556 13.0001 10.1496 13.4705 10.1496C15.3898 10.1496 16.9457 8.59369 16.9457 6.67439C16.9457 4.75509 15.3898 3.19922 13.4705 3.19922Z" fill="#DDD1C3"/>
<path d="M13.3788 8.42909C12.6919 8.41798 12.2266 8.04683 12.2266 7.77538C12.2266 7.64239 12.3429 7.45958 12.4814 7.45958C12.6642 7.45958 12.8138 7.84737 13.3788 7.89167V6.58981C12.8803 6.41253 12.3263 6.21308 12.3263 5.504C12.3263 4.80598 12.8525 4.529 13.3788 4.47359V4.31295C13.3788 4.24648 13.4453 4.18555 13.5395 4.18555C13.6226 4.18555 13.7057 4.24648 13.7057 4.31295V4.46253C14.0824 4.47359 14.6142 4.58994 14.6142 4.86139C14.6142 4.96662 14.5367 5.17714 14.3705 5.17714C14.2375 5.17714 14.0935 4.99986 13.7057 4.97216V6.09673C14.1877 6.27402 14.7139 6.51777 14.7139 7.27119C14.7139 7.95261 14.304 8.3293 13.7057 8.41241V8.60075C13.7057 8.66722 13.6226 8.72816 13.5395 8.72816C13.4454 8.72816 13.3788 8.66722 13.3788 8.60075V8.42909ZM13.4121 5.9915V4.98327C13.1018 5.02203 12.8802 5.16055 12.8802 5.44859C12.8802 5.76439 13.1185 5.88073 13.4121 5.9915ZM13.6724 6.71173V7.88066C13.9716 7.82525 14.1599 7.64797 14.1599 7.33222C14.16 6.98314 13.9439 6.82803 13.6724 6.71173Z" fill="#4EAD4E"/>
</svg>
