<svg width="28" height="28" viewBox="0 0 28 28" fill="none" xmlns="http://www.w3.org/2000/svg">
<path d="M24.1477 22.9552H0.419617C0.187852 22.9552 0 22.7673 0 22.5356V8.55438C0 8.32262 0.187852 8.13477 0.419617 8.13477H24.1477C24.3795 8.13477 24.5673 8.32262 24.5673 8.55438V22.5356C24.5673 22.7673 24.3794 22.9552 24.1477 22.9552Z" fill="#5CC45C"/>
<path d="M24.1477 8.13477H0.419617C0.187852 8.13477 0 8.32262 0 8.55438V22.1734H24.5673V8.55438C24.5673 8.32267 24.3794 8.13477 24.1477 8.13477Z" fill="#4EAD4E"/>
<path d="M25.8088 21.4659H2.08075C1.84898 21.4659 1.66113 21.278 1.66113 21.0463V7.06513C1.66113 6.83336 1.84898 6.64551 2.08075 6.64551H25.8088C26.0406 6.64551 26.2285 6.83336 26.2285 7.06513V21.0463C26.2284 21.278 26.0405 21.4659 25.8088 21.4659Z" fill="#5CC45C"/>
<path d="M25.8088 6.64551H2.08075C1.84898 6.64551 1.66113 6.83336 1.66113 7.06513V20.6208H26.2284V7.06513C26.2285 6.83336 26.0405 6.64551 25.8088 6.64551Z" fill="#4EAD4E"/>
<path d="M27.5793 19.8653H3.85126C3.61949 19.8653 3.43164 19.6775 3.43164 19.4457V5.46454C3.43164 5.23277 3.61949 5.04492 3.85126 5.04492H27.5793C27.8111 5.04492 27.999 5.23277 27.999 5.46454V19.4457C27.999 19.6774 27.8111 19.8653 27.5793 19.8653Z" fill="#5CC45C"/>
<path d="M27.5798 5.04492H24.9648V19.8653H27.5798C27.8116 19.8653 27.9995 19.6774 27.9995 19.4457V5.46454C27.9995 5.23283 27.8116 5.04492 27.5798 5.04492Z" fill="#4EAD4E"/>
<path d="M6.6622 18.3422C6.57355 17.4426 5.85588 16.7249 4.95633 16.6363C4.90547 16.6313 4.86719 16.5876 4.86719 16.5365V8.37278C4.86719 8.32171 4.90547 8.27801 4.95633 8.27304C5.85588 8.18439 6.57355 7.46672 6.6622 6.56717C6.66723 6.51631 6.71087 6.47803 6.76194 6.47803H24.6726C24.7237 6.47803 24.7674 6.51631 24.7724 6.56717C24.861 7.46672 25.5787 8.18439 26.4783 8.27304C26.5291 8.27807 26.5674 8.32171 26.5674 8.37278V16.5365C26.5674 16.5876 26.5291 16.6313 26.4783 16.6363C25.5787 16.7249 24.861 17.4426 24.7724 18.3422C24.7674 18.393 24.7237 18.4313 24.6726 18.4313H16.9024H16.123H14.94H6.762C6.71087 18.4313 6.66723 18.393 6.6622 18.3422Z" fill="#A0E557"/>
<path d="M26.4774 8.27303C25.5779 8.18439 24.8602 7.46672 24.7715 6.56717C24.7665 6.51631 24.7229 6.47803 24.6718 6.47803H23.468V18.4314H24.6718C24.7229 18.4314 24.7666 18.3931 24.7715 18.3423C24.8602 17.4427 25.5779 16.725 26.4774 16.6364C26.5283 16.6314 26.5666 16.5877 26.5666 16.5366V8.37284C26.5665 8.32176 26.5283 8.27807 26.4774 8.27303Z" fill="#93CC4A"/>
<path d="M15.7166 16.5095C17.9559 16.5095 19.7712 14.6942 19.7712 12.4549C19.7712 10.2157 17.9559 8.40039 15.7166 8.40039C13.4774 8.40039 11.6621 10.2157 11.6621 12.4549C11.6621 14.6942 13.4774 16.5095 15.7166 16.5095Z" fill="#F3E8D7"/>
<path d="M15.7157 8.40039C15.1668 8.40039 14.6438 8.51004 14.1664 8.70763C15.6367 9.31624 16.6715 10.7644 16.6715 12.4548C16.6715 14.1451 15.6368 15.5932 14.1664 16.2019C14.6438 16.3995 15.1668 16.5091 15.7157 16.5091C17.9549 16.5091 19.77 14.6939 19.77 12.4548C19.77 10.2156 17.9548 8.40039 15.7157 8.40039Z" fill="#DDD1C3"/>
<path d="M15.6086 14.5006C14.8072 14.4876 14.2643 14.0546 14.2643 13.7379C14.2643 13.5828 14.4 13.3695 14.5616 13.3695C14.7748 13.3695 14.9494 13.8219 15.6086 13.8736V12.3548C15.027 12.148 14.3806 11.9153 14.3806 11.088C14.3806 10.2736 14.9946 9.9505 15.6086 9.88586V9.69845C15.6086 9.6209 15.6862 9.5498 15.7961 9.5498C15.893 9.5498 15.9899 9.6209 15.9899 9.69845V9.87295C16.4295 9.88586 17.0499 10.0216 17.0499 10.3383C17.0499 10.4611 16.9594 10.7067 16.7655 10.7067C16.6104 10.7067 16.4424 10.4998 15.9899 10.4675V11.7795C16.5522 11.9864 17.1662 12.2707 17.1662 13.1497C17.1662 13.9447 16.6879 14.3842 15.9899 14.4811V14.7009C15.9899 14.7784 15.893 14.8495 15.7961 14.8495C15.6862 14.8495 15.6086 14.7784 15.6086 14.7009V14.5006ZM15.6474 11.6568V10.4805C15.2854 10.5257 15.0269 10.6873 15.0269 11.0234C15.0269 11.3918 15.3048 11.5275 15.6474 11.6568ZM15.9511 12.497V13.8608C16.3001 13.7961 16.5199 13.5893 16.5199 13.2209C16.5199 12.8137 16.2679 12.6327 15.9511 12.497Z" fill="#4EAD4E"/>
</svg>
