<svg width="19" height="22" viewBox="0 0 19 22" fill="none" xmlns="http://www.w3.org/2000/svg">
<path d="M16.25 0.25H2.75C1.233 0.25 0 1.483 0 3V19.25C0 20.767 1.233 22 2.75 22H16.25C17.767 22 19 20.767 19 19.25V3C19 1.483 17.767 0.25 16.25 0.25ZM5 6H10C10.552 6 11 6.448 11 7C11 7.552 10.552 8 10 8H5C4.448 8 4 7.552 4 7C4 6.448 4.448 6 5 6ZM15 16H5C4.448 16 4 15.552 4 15C4 14.448 4.448 14 5 14H15C15.552 14 16 14.448 16 15C16 15.552 15.552 16 15 16ZM15 12H5C4.448 12 4 11.552 4 11C4 10.448 4.448 10 5 10H15C15.552 10 16 10.448 16 11C16 11.552 15.552 12 15 12Z" fill="#282828"/>
</svg>
