<svg width="24" height="24" viewBox="0 0 24 24" fill="none" xmlns="http://www.w3.org/2000/svg">
<path d="M22.8698 12.002C22.8698 18.0047 18.0025 22.8678 11.9998 22.8678C5.99716 22.8678 1.12988 18.0047 1.12988 12.002C1.12988 5.99936 5.99716 1.13208 11.9998 1.13208C18.0025 1.13208 22.8698 5.99936 22.8698 12.002Z" fill="#FFA318"/>
<path d="M22.8684 12.0005C22.8684 18.0028 18.0033 22.8679 12.0011 22.8679C8.75772 22.8679 5.84644 21.4494 3.85742 19.1946C5.77217 20.8828 8.28485 21.9027 11.0359 21.9027C17.0381 21.9027 21.9032 17.0375 21.9032 11.0353C21.9032 8.28429 20.8795 5.77166 19.1835 3.85291C21.4422 5.83415 22.8684 8.74929 22.8684 12.0005Z" fill="#EC8E00"/>
<g opacity="0.3">
<path d="M3.45278 8.24057C3.30814 8.1673 3.25052 7.99099 3.32379 7.84674C4.30988 5.9009 5.9325 4.30347 7.89284 3.34905C8.03862 3.27731 8.21416 3.33913 8.28438 3.48414C8.35536 3.62954 8.29506 3.80508 8.14929 3.87568C6.30343 4.77476 4.77545 6.27908 3.8466 8.11158C3.77396 8.25524 3.59818 8.31393 3.45278 8.24057Z" fill="white"/>
</g>
<g opacity="0.3">
<path d="M9.74235 2.96359C9.70496 2.80599 9.80265 2.648 9.95987 2.61098C10.4689 2.49077 10.9933 2.40987 11.5184 2.37057C11.6794 2.36484 11.8206 2.47971 11.8324 2.64113C11.8443 2.80255 11.7233 2.94299 11.5619 2.9552C11.0673 2.99221 10.5739 3.06815 10.095 3.18111C9.93387 3.2187 9.77876 3.11844 9.74235 2.96359Z" fill="white"/>
</g>
<path d="M20.0296 12.0029C20.0296 13.3237 19.7103 14.5683 19.1406 15.6677C17.8089 18.2549 15.1093 20.0292 11.9997 20.0292C8.89366 20.0292 6.19043 18.2549 4.8587 15.6677C4.28908 14.5683 3.96973 13.3237 3.96973 12.0029C3.96973 7.57251 7.57287 3.96936 11.9997 3.96936C16.4301 3.96936 20.0296 7.57251 20.0296 12.0029Z" fill="#F7F363"/>
<path d="M18.1065 6.79595C16.7059 5.59493 14.8916 4.87286 12.9032 4.87286C8.47638 4.87286 4.87323 8.47601 4.87323 12.9064C4.87323 14.2272 5.19258 15.4718 5.76224 16.5712C6.0416 17.1191 6.38271 17.6271 6.7782 18.0916C5.99084 17.4167 5.33769 16.593 4.8587 15.6677C4.28908 14.5683 3.96973 13.3237 3.96973 12.0029C3.96973 7.57251 7.57288 3.96936 11.9997 3.96936C14.4453 3.96936 16.6369 5.06877 18.1065 6.79595Z" fill="#EDD318"/>
<path d="M12.9178 8.07199L13.8081 9.87582L15.7987 10.1651C16.6385 10.2871 16.9739 11.3192 16.3662 11.9116L14.9257 13.3157L15.2658 15.2983C15.4092 16.1347 14.5313 16.7726 13.7801 16.3776L11.9996 15.4416L10.2191 16.3776C9.46796 16.7726 8.59002 16.1347 8.73349 15.2983L9.07353 13.3157L7.63308 11.9116C7.02537 11.3192 7.36071 10.2871 8.20055 10.1651L10.1912 9.87582L11.0814 8.07199C11.457 7.31097 12.5422 7.31097 12.9178 8.07199Z" fill="#FFA318"/>
<g opacity="0.4">
<path d="M12.2249 9.22585C12.2355 9.36844 12.1246 9.49518 11.982 9.50575C11.9398 9.51104 11.8869 9.52161 11.8394 9.56383C11.813 9.58497 11.7972 9.61134 11.7813 9.63777L11.2479 10.7204C11.1371 10.9474 10.9205 11.1058 10.6671 11.1428L9.47361 11.317C9.37856 11.3276 9.30462 11.391 9.27823 11.4808C9.24654 11.5705 9.27294 11.6604 9.33631 11.7289C9.48813 11.877 10.2399 12.6103 10.1918 12.5633C10.2974 12.6637 10.2974 12.8327 10.1971 12.9383C10.0977 13.0376 9.93787 13.0477 9.82216 12.9435L9.0089 12.1409C8.99836 12.1356 8.9825 12.125 8.97193 12.1091C8.75543 11.9032 8.68149 11.5969 8.77654 11.317C8.86634 11.0372 9.10395 10.8312 9.39967 10.7889L10.5879 10.62C10.6671 10.6094 10.7357 10.5566 10.7727 10.4827L11.3061 9.40545C11.343 9.32616 11.3958 9.26285 11.4539 9.20471C11.4645 9.18891 11.4751 9.17834 11.4909 9.16249C11.6176 9.05689 11.7708 8.99353 11.945 8.98296C12.0823 8.9671 12.2143 9.07797 12.2249 9.22585Z" fill="white"/>
</g>
<path d="M16.3648 11.9138L14.9232 13.3131C14.9583 13.5161 14.7961 12.5776 15.2665 15.2987C15.4083 16.134 14.5315 16.7699 13.7816 16.3755C12.811 15.8651 11.9487 15.4154 11.9977 15.4413L10.218 16.376C9.46813 16.7721 8.59154 16.1331 8.73413 15.2987L8.78164 15.0082C8.98231 15.5522 9.63712 15.8585 10.218 15.5575L11.717 14.7657C11.8891 14.6748 12.0976 14.6888 12.256 14.8018L13.1168 15.4161C13.5827 15.7486 14.2729 15.4584 14.2945 14.8864C14.2958 14.8517 14.2943 14.8199 14.2895 14.7918L13.9969 13.0772C13.9685 12.9108 14.0236 12.741 14.1443 12.623L15.3879 11.4068C15.7629 11.0424 15.7787 10.5091 15.541 10.1288L15.7998 10.1658C16.6395 10.2872 16.9721 11.317 16.3648 11.9138Z" fill="#EC8E00"/>
</svg>
