<svg width="48" height="49" viewBox="0 0 48 49" fill="none" xmlns="http://www.w3.org/2000/svg">
<path fill-rule="evenodd" clip-rule="evenodd" d="M24.306 18.6457C23.1035 16.5625 26.8637 12.1424 32.7043 8.76948C38.5422 5.39926 44.2521 4.35217 45.4545 6.43539C46.1198 7.5888 46.7851 8.7422 47.4531 9.89833C48.6557 11.9788 44.8955 16.3989 39.0548 19.7718C33.2142 23.142 27.5071 24.1891 26.3046 22.1086C25.6394 20.9525 24.9713 19.7991 24.306 18.6457Z" fill="#FE9923"/>
<path fill-rule="evenodd" clip-rule="evenodd" d="M32.7043 8.76948C38.5422 5.39926 44.2521 4.35217 45.4545 6.43539C46.657 8.51589 42.8968 12.9359 37.0562 16.3089C31.2156 19.6818 25.5085 20.7262 24.306 18.6457C23.1035 16.5625 26.8637 12.1424 32.7043 8.76948Z" fill="#FECD3D"/>
<path fill-rule="evenodd" clip-rule="evenodd" d="M33.7205 10.5309C38.3668 7.85054 42.6506 6.57451 43.2913 7.68151C43.9321 8.79132 40.6846 11.8644 36.0382 14.5474C31.3918 17.2305 27.1054 18.5066 26.4673 17.3968C25.8267 16.2871 29.0742 13.2141 33.7205 10.5309Z" fill="#FEA832"/>
<path d="M45.0195 12.2815L46.0829 14.1247C46.3365 13.8139 46.5656 13.5085 46.7619 13.2085L45.9221 11.7579L45.0195 12.2815ZM44.1088 16.1644C43.8524 16.3934 43.5824 16.6252 43.3044 16.8543L42.29 15.0955L43.1925 14.5775L44.1088 16.1644ZM41.0984 18.493C40.8148 18.6866 40.5231 18.8775 40.2259 19.0657L39.2579 17.3887L40.1605 16.8707L41.0984 18.493ZM37.8618 20.429C37.5482 20.5953 37.2374 20.7507 36.9293 20.9034L35.9885 19.2783L36.8938 18.7548L37.8618 20.429ZM34.407 21.9914C34.0663 22.1196 33.7335 22.2368 33.4063 22.3432L32.4874 20.7562L33.3927 20.2355L34.407 21.9914ZM30.6523 23.033C30.257 23.0984 29.8779 23.1421 29.5207 23.1638L28.6836 21.7132L29.5888 21.1897L30.6523 23.033Z" fill="#C85929"/>
<path fill-rule="evenodd" clip-rule="evenodd" d="M23.418 27.6848C24.6204 25.6043 20.8603 21.1815 15.0197 17.8113C9.18177 14.4383 3.47193 13.394 2.26949 15.4745C1.60415 16.6279 0.938895 17.784 0.270833 18.9374C-0.931699 21.0179 2.82852 25.4407 8.66914 28.8109C14.5098 32.1838 20.2169 33.2282 21.4193 31.1477C22.0873 29.9944 22.7526 28.8382 23.418 27.6848Z" fill="#FE9923"/>
<path fill-rule="evenodd" clip-rule="evenodd" d="M15.0201 17.8113C9.18219 14.4383 3.47235 13.394 2.26991 15.4745C1.07019 17.5577 4.83032 21.9777 10.6682 25.3479C16.5088 28.7209 22.2187 29.7653 23.4184 27.6848C24.6209 25.6043 20.8607 21.1815 15.0201 17.8113Z" fill="#FECD3D"/>
<path fill-rule="evenodd" clip-rule="evenodd" d="M14.0031 19.5727C9.35943 16.8896 5.07299 15.6136 4.43221 16.7233C3.79143 17.8304 7.03893 20.9061 11.6853 23.5865C16.3316 26.2696 20.6181 27.5456 21.2588 26.4359C21.8969 25.3289 18.6494 22.2559 14.0031 19.5727Z" fill="#FEA832"/>
<path d="M2.70447 21.3206L1.64106 23.1638C1.38747 22.8529 1.16116 22.5476 0.964844 22.2503L1.80194 20.797L2.70447 21.3206ZM3.61516 25.2034C3.87147 25.4325 4.14137 25.6643 4.41953 25.8933L5.43381 24.1373L4.53128 23.6165L3.61516 25.2034ZM6.62547 27.5348C6.90906 27.7257 7.20081 27.9166 7.50072 28.1047L8.46869 26.4278L7.56344 25.9097L6.62547 27.5348ZM9.86209 29.4707C10.1757 29.6343 10.4866 29.7925 10.7974 29.9425L11.7354 28.3173L10.8302 27.7938L9.86209 29.4707ZM13.3196 31.0305C13.6578 31.1586 13.9904 31.2759 14.3203 31.3822L15.2365 29.7953L14.3312 29.2772L13.3196 31.0305ZM17.0716 32.0747C17.4697 32.1375 17.8459 32.1811 18.2031 32.2029L19.0402 30.7523L18.1377 30.2288L17.0716 32.0747Z" fill="#C85929"/>
<path fill-rule="evenodd" clip-rule="evenodd" d="M22.5747 39.1016C21.3749 37.0211 25.1324 32.6011 30.973 29.2281C36.8137 25.8579 42.5208 24.8108 43.7232 26.8913C44.3913 28.0474 45.0566 29.2008 45.7219 30.3542C46.9244 32.4375 43.1642 36.8575 37.3263 40.2304C31.4857 43.6007 25.7758 44.6477 24.5734 42.5645C23.9081 41.4111 23.2428 40.2577 22.5747 39.1016Z" fill="#FE9923"/>
<path fill-rule="evenodd" clip-rule="evenodd" d="M30.973 29.2281C36.8137 25.8579 42.5208 24.8108 43.7232 26.8913C44.9258 28.9745 41.1655 33.3946 35.3249 36.7675C29.487 40.1377 23.7773 41.1848 22.5747 39.1016C21.3749 37.0212 25.1324 32.6012 30.973 29.2281Z" fill="#FECD3D"/>
<path fill-rule="evenodd" clip-rule="evenodd" d="M31.99 30.9896C36.6364 28.3065 40.9228 27.0331 41.5609 28.1402C42.2017 29.2499 38.9542 32.3229 34.3077 35.006C29.6614 37.6864 25.3777 38.9625 24.7369 37.8555C24.0962 36.7457 27.3437 33.6726 31.99 30.9896Z" fill="#FEA832"/>
<path d="M43.2863 32.7402L44.3525 34.5835C44.6061 34.2726 44.8324 33.9645 45.0287 33.6673L44.1916 32.2167L43.2863 32.7402ZM42.3783 36.6203C42.1192 36.852 41.8521 37.0811 41.5712 37.3102L40.5568 35.5542L41.4621 35.0361L42.3783 36.6203ZM39.368 38.9517C39.0817 39.1453 38.7899 39.3361 38.4927 39.5243L37.5247 37.8474L38.43 37.3266L39.368 38.9517ZM36.1286 40.8876C35.8177 41.0512 35.5042 41.2094 35.1961 41.3594L34.258 39.7342L35.1606 39.2107L36.1286 40.8876ZM32.6738 42.4501C32.3358 42.5755 32.0003 42.6927 31.6732 42.8018L30.7569 41.2121L31.6595 40.694L32.6738 42.4501ZM28.9219 43.4917C28.5237 43.5571 28.1447 43.598 27.7902 43.6199L26.9531 42.1693L27.8557 41.6458L28.9219 43.4917Z" fill="#C85929"/>
<path d="M20.2333 10.2501V11.8017H21.7848V13.1487H20.2333V14.7029H18.8863V13.1487H17.332V11.8017H18.8863V10.2501H20.2333Z" fill="#FEA832"/>
<path d="M15.4336 35.137V36.6885H16.9878V38.0354H15.4336V39.5897H14.0866V38.0354H12.5352V36.6885H14.0866V35.137H15.4336Z" fill="#FEA832"/>
<path d="M46.3986 19.9191V21.4705H47.9528V22.8176H46.3986V24.3718H45.0515V22.8176H43.5V21.4705H45.0515V19.9191H46.3986Z" fill="#FEA832"/>
</svg>
