<svg width="20" height="20" viewBox="0 0 20 20" fill="none" xmlns="http://www.w3.org/2000/svg">
<path d="M13.3332 10.7501V14.2501C13.3332 17.1667 12.1665 18.3334 9.24984 18.3334H5.74984C2.83317 18.3334 1.6665 17.1667 1.6665 14.2501V10.7501C1.6665 7.83341 2.83317 6.66675 5.74984 6.66675H9.24984C12.1665 6.66675 13.3332 7.83341 13.3332 10.7501Z" stroke="#DB4D29" strokeWidth="1.5" strokeLinecap="round" stroke-linejoin="round"/>
<path d="M18.3332 5.75008V9.25008C18.3332 12.1667 17.1665 13.3334 14.2498 13.3334H13.3332V10.7501C13.3332 7.83341 12.1665 6.66675 9.24984 6.66675H6.6665V5.75008C6.6665 2.83341 7.83317 1.66675 10.7498 1.66675H14.2498C17.1665 1.66675 18.3332 2.83341 18.3332 5.75008Z" stroke="#DB4D29" strokeWidth="1.5" strokeLinecap="round" stroke-linejoin="round"/>
</svg>
