<svg xmlns="http://www.w3.org/2000/svg" width="91" height="80" viewBox="0 0 91 80" fill="none">
  <path d="M41.3756 3.49794C43.7453 1.48157 47.2276 1.48157 49.5973 3.49794C51.2719 4.92284 53.5649 5.37895 55.6573 4.70335C58.6182 3.7473 61.8355 5.07993 63.2531 7.84965C64.255 9.80691 66.1989 11.1058 68.3906 11.2823C71.492 11.5322 73.9544 13.9945 74.2042 17.0959C74.3807 19.2876 75.6796 21.2315 77.6369 22.2333C80.4066 23.651 81.7393 26.8683 80.7832 29.8292C80.1076 31.9216 80.5637 34.2146 81.9886 35.8892C84.005 38.2588 84.005 41.7412 81.9886 44.1108C80.5637 45.7854 80.1076 48.0784 80.7832 50.1708C81.7393 53.1317 80.4066 56.349 77.6369 57.7667C75.6796 58.7685 74.3807 60.7124 74.2042 62.9041C73.9544 66.0054 71.492 68.4678 68.3906 68.7177C66.1989 68.8942 64.255 70.1931 63.2531 72.1504C61.8355 74.9201 58.6182 76.2527 55.6573 75.2967C53.5649 74.621 51.2719 75.0772 49.5973 76.5021C47.2276 78.5184 43.7453 78.5184 41.3756 76.5021C39.701 75.0772 37.408 74.621 35.3156 75.2967C32.3547 76.2527 29.1374 74.9201 27.7197 72.1504C26.7179 70.1931 24.774 68.8942 22.5823 68.7177C19.4809 68.4678 17.0185 66.0055 16.7687 62.9041C16.5922 60.7124 15.2933 58.7685 13.336 57.7667C10.5663 56.349 9.23363 53.1317 10.1897 50.1708C10.8653 48.0784 10.4092 45.7854 8.98428 44.1108C6.9679 41.7412 6.9679 38.2588 8.98428 35.8892C10.4092 34.2146 10.8653 31.9216 10.1897 29.8292C9.23363 26.8683 10.5663 23.651 13.336 22.2333C15.2933 21.2315 16.5922 19.2876 16.7687 17.0959C17.0185 13.9945 19.4809 11.5322 22.5823 11.2823C24.774 11.1058 26.7179 9.80691 27.7197 7.84965C29.1374 5.07993 32.3547 3.7473 35.3156 4.70335C37.408 5.37895 39.701 4.92284 41.3756 3.49794Z" fill="#DB4D29"/>
  <path d="M64.2947 46.5424C62.3502 47.0401 61.0671 49.4298 60.708 52.0607C60.6824 52.2995 60.6567 52.5389 60.6543 52.7703C61.1313 52.9761 61.7499 52.9053 62.3777 52.7031C63.0055 52.501 63.6193 52.1749 64.04 51.8085C66.0816 50.0991 66.8273 45.881 64.2947 46.5424ZM64.2947 46.5424C62.3502 47.0401 61.0671 49.4298 60.708 52.0607C60.6824 52.2995 60.6567 52.5389 60.6543 52.7703C61.1313 52.9761 61.7499 52.9053 62.3777 52.7031C63.0055 52.501 63.6193 52.1749 64.04 51.8085C66.0816 50.0991 66.8273 45.881 64.2947 46.5424ZM64.2947 46.5424C62.3502 47.0401 61.0671 49.4298 60.708 52.0607C60.6824 52.2995 60.6567 52.5389 60.6543 52.7703C61.1313 52.9761 61.7499 52.9053 62.3777 52.7031C63.0055 52.501 63.6193 52.1749 64.04 51.8085C66.0816 50.0991 66.8273 45.881 64.2947 46.5424ZM64.2947 46.5424C62.3502 47.0401 61.0671 49.4298 60.708 52.0607C60.6824 52.2995 60.6567 52.5389 60.6543 52.7703C61.1313 52.9761 61.7499 52.9053 62.3777 52.7031C63.0055 52.501 63.6193 52.1749 64.04 51.8085C66.0816 50.0991 66.8273 45.881 64.2947 46.5424ZM64.2947 46.5424C62.3502 47.0401 61.0671 49.4298 60.708 52.0607C60.6824 52.2995 60.6567 52.5389 60.6543 52.7703C61.1313 52.9761 61.7499 52.9053 62.3777 52.7031C63.0055 52.501 63.6193 52.1749 64.04 51.8085C66.0816 50.0991 66.8273 45.881 64.2947 46.5424ZM64.2947 46.5424C62.3502 47.0401 61.0671 49.4298 60.708 52.0607C60.6824 52.2995 60.6567 52.5389 60.6543 52.7703C61.1313 52.9761 61.7499 52.9053 62.3777 52.7031C63.0055 52.501 63.6193 52.1749 64.04 51.8085C66.0816 50.0991 66.8273 45.881 64.2947 46.5424ZM64.2947 46.5424C62.3502 47.0401 61.0671 49.4298 60.708 52.0607C60.6824 52.2995 60.6567 52.5389 60.6543 52.7703C61.1313 52.9761 61.7499 52.9053 62.3777 52.7031C63.0055 52.501 63.6193 52.1749 64.04 51.8085C66.0816 50.0991 66.8273 45.881 64.2947 46.5424Z" fill="white"/>
  <path d="M31.4024 48.0395C31.8311 48.2685 31.9929 48.8016 31.7633 49.2303C31.5343 49.6591 31.0005 49.8209 30.5724 49.5919C27.4334 47.9143 24.9973 44.506 23.6599 40.6885C22.3029 36.8142 22.0654 32.4825 23.3631 29.0858C24.5424 26.0011 26.6969 24.7113 28.8692 24.6215C29.8707 24.58 30.8692 24.7999 31.7706 25.2212C31.3053 25.587 30.7703 26.0176 30.1651 26.5123C29.7657 26.4121 29.3553 26.3663 28.9461 26.3834C27.4255 26.4463 25.8945 27.4082 25.012 29.7166C23.8651 32.7182 24.0947 36.6023 25.3228 40.1095C26.5259 43.5404 28.6713 46.5805 31.4024 48.0395ZM32.9841 25.2133C33.1826 25.0679 33.3817 24.9232 33.5814 24.7791L33.5863 24.776C33.8299 24.6002 34.0742 24.4255 34.3185 24.2508C34.7997 23.9064 35.2797 23.5632 35.7518 23.2139C35.6443 22.158 35.5576 21.0679 35.5045 19.9826H35.5069L35.4959 19.7927L35.4953 19.7854C35.4794 19.433 35.4672 19.0819 35.4593 18.7325L35.455 18.5047C35.4532 18.3704 35.4526 18.233 35.452 18.0937C35.4514 17.3988 35.4672 16.6616 35.5008 15.8836C35.5607 14.8491 35.6749 13.8683 35.8581 12.9816V12.9797L35.866 12.9425C36.0419 12.1223 36.3124 11.4402 36.5586 10.8734C36.6538 10.6542 36.754 10.4557 36.859 10.2762C37.3781 9.46393 38.042 8.89292 38.7479 8.56131C39.3568 8.27489 39.998 8.16435 40.6124 8.22664C41.2439 8.29016 41.8436 8.53566 42.3492 8.95888C42.8525 9.37965 43.2574 9.97264 43.4961 10.7317L41.2805 10.3684C41.2597 10.3488 41.239 10.3305 41.217 10.3122C40.9904 10.1223 40.7205 10.0123 40.4365 9.98363C40.1348 9.9531 39.8124 10.0111 39.4979 10.1595C39.2395 10.281 38.9885 10.4606 38.7565 10.7L40.5623 10.9962L41.7911 11.1977L45.0944 11.7394L64.6173 14.9401C66.9783 13.7755 69.2929 12.333 71.1121 10.1485C71.4248 9.77477 71.9812 9.7253 72.3549 10.0374C72.7287 10.3501 72.7781 10.9064 72.4661 11.2801C71.0578 12.9706 69.4217 14.2402 67.7069 15.2747L70.5723 15.1758C71.0572 15.2216 71.1995 15.7377 71.0187 16.076C71.3851 16.407 71.1512 17.1423 70.5998 17.1264L66.7297 16.5926L65.0558 16.6928L60.0566 16.992L42.7773 18.0278C41.7923 20.2856 40.1544 21.9796 38.2868 23.4905C38.2093 22.7735 38.1543 22.0572 38.0774 21.3366L38.0737 21.3372C39.1046 20.3979 40.0133 19.3652 40.6955 18.1524L37.2126 18.3612C37.2145 18.4705 37.2163 18.5805 37.2187 18.6904C37.2395 19.5912 37.2883 20.5072 37.3574 21.4147L37.3464 21.416C37.4392 22.2868 37.4984 23.154 37.6096 24.0249C37.8184 25.8289 38.078 27.4857 38.3088 28.77C38.5159 29.9236 39.2041 27.3251 39.449 26.8017C40.3083 24.9647 41.5285 23.2536 43.4766 23.2053C46.3042 23.1357 47.1756 25.6994 47.9195 27.8894C48.1631 28.607 48.3909 29.2757 48.6419 29.6751C48.8184 29.9554 49.0035 29.9804 49.18 29.8699C49.9409 29.3911 50.7953 27.9786 51.4157 26.8433C51.5141 27.6384 51.748 28.4158 52.1254 29.1126C51.533 30.0299 50.8392 30.9087 50.1149 31.3643C49.056 32.0306 48.0153 31.9896 47.1469 30.6095C46.7799 30.0256 46.5222 29.2684 46.2461 28.4555C45.6953 26.8335 45.0492 24.9342 43.52 24.9721C41.9187 25.0112 40.8695 27.8363 40.1562 29.7575C39.6585 31.0992 39.2768 32.1258 38.4872 32.2675C37.6328 32.4214 37.0233 31.5683 36.575 29.0803C36.3821 28.0091 36.1701 26.6826 35.9827 25.2267L35.3396 25.6878C34.8455 26.0414 34.3515 26.395 33.8635 26.7559C34.3765 27.3172 34.7875 27.9682 35.055 28.6809C35.8007 30.6681 35.4483 33.0944 33.1075 35.357C31.9838 36.4429 30.6714 36.7354 29.5397 36.4655C28.9767 36.3311 28.4612 36.0569 28.0374 35.6716C27.6191 35.2905 27.2893 34.7983 27.0914 34.2218C26.6725 33.0028 26.8514 31.4241 28.0631 29.7929C28.7684 28.8439 29.577 28.0054 30.4454 27.2329C31.1697 26.6387 31.7853 26.1428 32.2916 25.7458C32.5481 25.5455 32.7789 25.3678 32.9841 25.2133ZM34.7185 18.5109L1.08099 20.5268C-0.466535 20.3802 -0.203933 17.4769 0.950906 17.5862L34.7454 16.4161C34.7252 17.0146 34.7148 17.5753 34.7161 18.0974C34.7161 18.2373 34.7173 18.3753 34.7185 18.5109ZM35.2785 12.2554L1.8804 7.65014C0.400663 7.20372 1.2587 4.4006 2.36285 4.73343L36.037 10.2536C35.9845 10.3586 35.9338 10.4679 35.8843 10.5821C35.6755 11.0627 35.4544 11.6166 35.2785 12.2554ZM63.209 17.5398C62.842 17.7017 62.478 17.8605 62.1171 18.018C59.2395 19.2712 56.6116 20.4162 55.127 22.3516C55.2632 22.2636 55.4018 22.1793 55.541 22.1006C56.5151 21.546 57.5667 21.1998 58.5732 21.1705C59.6621 21.1387 60.6923 21.4654 61.5259 22.2752C62.1061 22.8383 62.5745 23.6267 62.8768 24.6783C63.5412 26.9904 62.6056 28.8006 61.0392 29.9163C60.0297 30.6357 58.7491 31.051 57.4855 31.1053C56.1951 31.1609 54.9035 30.8415 53.9019 30.0873L53.9007 30.0891C53.6955 29.9346 53.5031 29.763 53.326 29.5737C52.399 28.483 52.0161 26.9733 52.1113 25.537L52.1138 25.5333C52.1419 25.2078 52.1907 24.8683 52.264 24.5122L52.2658 24.5055C52.2842 24.4169 52.3037 24.3278 52.3251 24.2374C53.0769 21.0221 55.3682 19.2852 58.2593 17.8366L63.209 17.5398ZM43.7502 13.4237C43.7325 14.1156 43.6684 14.7666 43.5627 15.3822L41.7294 15.4457C41.8839 14.7465 41.973 13.9941 41.9859 13.1807L37.7623 12.598C37.4636 13.6515 37.3024 14.9352 37.2401 16.33L40.53 16.2164V16.2232L44.8904 16.0717V16.065L59.2883 15.5667L43.7502 13.4237ZM33.4061 29.2995C33.2021 28.756 32.8748 28.2601 32.4626 27.8369C31.3474 28.7432 30.3166 29.7184 29.4805 30.8434C28.6603 31.9469 28.5119 32.9332 28.7574 33.6489C28.8558 33.9347 29.02 34.1796 29.2289 34.3702C29.4323 34.5552 29.679 34.6865 29.9483 34.7506C30.5334 34.8899 31.2406 34.7115 31.8842 34.0892C33.6296 32.4031 33.9221 30.6754 33.4061 29.2995ZM56.4125 23.6346C55.389 24.2172 54.4589 25.0887 53.8567 26.0445C53.8347 27.3086 54.2799 28.1666 54.9596 28.6784L54.9603 28.6821C55.6149 29.1755 56.5005 29.3832 57.408 29.3441C58.3429 29.3038 59.2834 29.0015 60.0163 28.4793C61.0087 27.7721 61.6017 26.6265 61.1815 25.1651C60.969 24.4249 60.6642 23.8948 60.2996 23.5406C59.8422 23.096 59.2578 22.9171 58.6294 22.9354C57.9185 22.9561 57.1472 23.2163 56.4125 23.6346Z" fill="white"/>
  <path d="M29.267 64.3611C29.3751 64.4515 29.5211 64.4802 29.5913 64.4204C29.8038 64.1981 30.0066 63.999 30.2515 63.8042C30.7278 63.409 31.1895 63.02 31.6256 62.5602C31.821 62.355 31.4167 62.1724 31.3043 62.2597C30.7749 62.6481 30.351 63.2124 29.7892 63.5422C29.8038 62.998 30.1373 62.5388 30.2423 62.0453C30.2918 61.8365 29.9296 61.8145 29.8423 61.8982C29.5083 62.2939 29.4747 62.8722 29.3067 63.3822C29.2292 63.6234 29.2701 63.908 29.1675 64.1852C29.1412 64.2555 29.217 64.319 29.267 64.3611ZM31.523 65.0366C31.4076 65.2387 31.2494 65.4702 31.3807 65.7004C31.4509 65.8305 31.6152 65.8897 31.6531 65.8335C32.0561 65.1721 32.3059 64.377 32.8989 63.8512C32.9422 63.8219 32.9331 63.7339 32.9264 63.6997C32.8189 63.428 32.5734 63.3712 32.4152 63.5739C32.0488 64.0375 31.8015 64.5474 31.523 65.0366ZM33.6653 65.2558C33.6256 65.334 33.5908 65.4433 33.5133 65.5044C33.4827 65.5141 33.4381 65.5099 33.4271 65.5312C33.3319 65.5752 33.3874 65.7114 33.3697 65.7865C33.2836 66.1493 33.0094 66.4027 32.9374 66.7789C32.9026 66.8882 33.0534 66.9291 33.1334 67.0061C33.4339 67.2119 33.7752 67.2039 34.1264 67.2705C34.2559 67.2925 34.3707 67.2088 34.4079 67.0439C34.3969 67.0146 34.3835 66.9493 34.3566 66.9615C34.0372 66.8748 33.6726 66.9371 33.41 66.6977C33.512 66.4473 33.5945 66.1108 33.7905 66.0424C34.0317 65.9563 34.2821 66.3935 34.5722 66.2006C34.618 65.7847 34.1362 65.8323 33.9713 65.5441C34.1484 65.3902 34.1453 64.9675 34.3982 64.9914C34.6003 65.0121 34.6944 65.257 34.8715 65.337C35.0095 65.3926 35.1518 65.2973 35.1109 65.1929C34.9252 64.7104 34.3756 64.4326 33.9725 64.6524C33.7807 64.752 33.7667 65.0561 33.6653 65.2558ZM35.9396 68.6409C36.0574 68.6427 36.2242 68.6464 36.2694 68.5322C36.5845 67.789 36.91 67.0445 37.3497 66.3606C37.6208 66.4625 37.4987 66.4583 37.8114 66.5309C37.9506 66.5426 38.0935 66.4809 38.1064 66.3245C38.0984 66.294 38.1033 66.2201 38.0825 66.2103C37.3961 65.9325 37.1512 65.6644 36.3811 65.7096C36.2089 65.7199 36.1051 65.9196 36.2193 66.0552C36.3146 66.1761 36.5155 66.0931 36.6456 66.1279C36.717 66.1346 36.8929 66.1157 36.8495 66.225C36.5491 66.981 36.0929 67.6571 35.8297 68.4315C35.8089 68.4974 35.8278 68.636 35.9396 68.6409ZM38.3854 69.4006C38.4471 69.5747 38.6706 69.6296 38.7403 69.5258C38.9223 69.2504 38.9174 68.8986 39.1274 68.6403C39.1616 68.9359 39.1745 69.2644 39.271 69.5484C39.3131 69.6663 39.4872 69.7225 39.5916 69.6596C39.8078 69.5527 39.9177 69.2901 39.9965 69.0623C40.1742 68.5463 40.369 68.0217 40.3641 67.4733C40.3617 67.3395 40.1003 67.2528 40.0368 67.381C39.8609 67.7224 39.9104 68.1566 39.7852 68.5194C39.7198 68.7099 39.6881 68.9145 39.5543 69.077C39.4224 68.5872 39.583 68.0644 39.4505 67.5746C39.4188 67.4977 39.2172 67.3933 39.1678 67.4794C38.827 68.0607 38.6682 68.6904 38.3842 69.2895C38.3787 69.3072 38.3708 69.3573 38.3854 69.4006ZM41.8323 68.6305C41.6191 68.9847 41.4225 69.3695 41.249 69.7353C41.1141 70.0199 40.8869 70.2568 40.8747 70.5768C41.2692 70.9433 41.3089 70.164 41.5513 70.0547C41.7419 69.9661 42.0045 70.0071 42.1425 70.1548C42.3233 70.3564 42.1272 70.6801 42.2231 70.9439C42.2805 71.0941 42.5266 71.1045 42.5761 70.9799C42.6891 70.6892 42.4772 70.3448 42.6915 70.0626C42.719 70.0449 42.7343 69.9826 42.7233 69.9332C42.7001 69.8544 42.6036 69.8263 42.6188 69.764C42.6256 69.1185 42.6848 68.509 42.5846 67.8989C42.5663 67.7804 42.341 67.7817 42.2848 67.8372C42.0692 68.0266 42.0039 68.3521 41.8323 68.6305ZM41.9684 69.1331C42.0222 68.9896 42.0814 68.8424 42.2097 68.7411C42.2591 69.0586 42.3434 69.4073 42.1907 69.6864C42.115 69.8238 41.8487 69.7206 41.759 69.6272C41.6613 69.5264 41.8945 69.3225 41.9684 69.1331ZM46.2525 71.8477C46.3637 71.8422 46.5029 71.7708 46.4852 71.6419C46.349 70.6923 46.5163 69.7408 46.3649 68.804C45.7579 68.5261 45.5948 69.4782 45.2406 69.8837C45.2198 69.9002 45.185 69.8238 45.1661 69.7951C45.0995 69.3408 45.1435 68.8858 44.9542 68.4852C44.9096 68.3514 44.6048 68.2977 44.5542 68.4852C44.421 68.9548 44.3416 69.4287 44.2085 69.8984C44.1083 70.2684 43.7804 70.6831 43.9813 71.0049C44.0662 71.146 44.4277 71.1588 44.4778 70.972C44.5285 70.7845 44.4961 70.5323 44.592 70.3533C44.6494 70.2428 44.603 69.968 44.7038 70.0309C44.8259 70.1078 44.8296 70.3949 44.8204 70.6147C44.8058 70.713 44.8821 70.8217 44.9633 70.8614C45.105 70.9616 45.2754 70.8663 45.3633 70.7356C45.3933 70.6904 45.3584 70.6141 45.3878 70.5689C45.5893 70.2623 45.6864 69.9124 45.9069 69.6345C46.0687 70.3472 45.8262 71.0892 46.0333 71.8092C46.0516 71.8373 46.1511 71.8502 46.2525 71.8477ZM47.96 70.1329C47.9552 70.222 47.9674 70.3374 47.9216 70.4291C47.8977 70.4523 47.8556 70.4694 47.8544 70.4944C47.786 70.5799 47.8898 70.6758 47.9045 70.7515C47.971 71.1191 47.8245 71.4776 47.9094 71.8514C47.9216 71.9662 48.073 71.9314 48.1762 71.9631C48.5286 72.0053 48.8333 71.8361 49.1753 71.7286C49.3005 71.6871 49.3708 71.557 49.339 71.3909C49.3176 71.3695 49.2792 71.3176 49.2596 71.3414C48.9372 71.4153 48.6343 71.645 48.3026 71.554C48.2947 71.2798 48.2355 70.9378 48.3845 70.7833C48.5677 70.5909 48.9665 70.8651 49.1515 70.5536C49.0269 70.1579 48.6123 70.4297 48.3497 70.2489C48.448 70.0266 48.277 69.6474 48.5146 69.5478C48.7051 69.4702 48.8865 69.6461 49.0782 69.6333C49.2248 69.6174 49.3146 69.4641 49.237 69.3896C48.8779 69.0434 48.2727 69.0544 47.9973 69.4446C47.8642 69.6241 47.9716 69.9045 47.96 70.1329ZM50.6734 70.1005C51.0417 70.5756 51.5662 70.7399 51.9345 71.2095C51.9889 71.3164 51.9937 71.4501 51.8972 71.5393C51.7281 71.6266 51.5607 71.7689 51.3574 71.6737C51.2554 71.6236 51.1565 71.6535 51.0557 71.6327C50.9592 71.6077 50.9519 71.419 50.8261 71.4495C50.6081 71.5692 50.4682 71.9381 50.7271 72.0505C51.3049 72.307 52.2435 72.1433 52.3882 71.4312C52.5562 70.6129 51.532 70.4425 51.1357 69.8348C51.1107 69.7817 51.1589 69.7292 51.2078 69.6974C51.5223 69.4941 51.8917 69.5313 52.2356 69.3756C52.3345 69.3463 52.4799 69.2302 52.42 69.0983C52.3748 68.9908 52.2399 68.9078 52.1189 68.9487C51.554 69.1344 50.8871 69.1704 50.514 69.7298C50.4187 69.869 50.5629 69.957 50.6734 70.1005ZM53.7965 70.1219C53.8045 70.211 53.8319 70.3228 53.7996 70.4211C53.7788 70.448 53.7403 70.4724 53.7422 70.4968C53.6866 70.5921 53.8026 70.6703 53.8271 70.7423C53.9437 71.0947 53.8484 71.4734 53.9834 71.8288C54.0115 71.9405 54.1568 71.8807 54.2625 71.8947C54.6167 71.8782 54.8946 71.6608 55.2183 71.4978C55.3361 71.4361 55.388 71.2956 55.3331 71.1369C55.3086 71.1191 55.2641 71.074 55.2482 71.1008C54.9398 71.2272 54.6717 71.5039 54.3315 71.4685C54.2857 71.1991 54.1801 70.8706 54.3065 70.6929C54.461 70.4724 54.8934 70.6776 55.0332 70.3393C54.8555 69.9686 54.483 70.3057 54.1984 70.1701C54.2649 69.9338 54.0439 69.5869 54.2643 69.4501C54.442 69.342 54.646 69.4861 54.8335 69.4415C54.9758 69.4018 55.0442 69.2357 54.9569 69.1747C54.5544 68.8919 53.9571 69.0025 53.7391 69.4336C53.6316 69.6351 53.777 69.8947 53.7965 70.1219ZM58.8428 70.8596C58.9832 70.9646 59.1964 70.8712 59.1994 70.7423C59.2067 70.4028 59.0205 70.1158 59.0596 69.7725C59.2409 69.9948 59.4217 70.2581 59.6483 70.4315C59.7442 70.503 59.917 70.4407 59.9701 70.324C60.0929 70.1011 60.0471 69.8171 59.9939 69.5808C59.873 69.0458 59.7619 68.4925 59.473 68.0436C59.4016 67.9349 59.142 68.0259 59.1555 68.1707C59.1878 68.5609 59.4535 68.8883 59.5384 69.2644C59.5829 69.4623 59.6629 69.6504 59.6373 69.8666C59.2745 69.5454 59.1359 69.0147 58.7731 68.6934C58.7072 68.6501 58.4873 68.6892 58.491 68.7905C58.5118 69.4806 58.7072 70.0981 58.7841 70.768C58.789 70.7869 58.8086 70.8327 58.8428 70.8596ZM61.1512 69.08C61.1781 69.4751 61.456 69.7677 61.7796 69.8739C62.1033 69.9802 62.4252 69.8287 62.6365 69.5148C62.9601 69.0415 62.885 68.3063 62.3983 67.963C61.6612 67.4433 61.1152 68.3881 61.1512 69.08ZM61.6893 69.1924C61.6166 69.0574 61.6532 68.5163 61.7851 68.4333C61.9158 68.3453 62.1735 68.3087 62.2755 68.4748C62.4545 68.7741 62.4655 69.1655 62.2377 69.4116C62.0355 69.6217 61.8102 69.4037 61.6893 69.1924ZM63.9739 67.9435C64.0185 68.3368 64.3092 68.614 64.6371 68.7032C64.9651 68.7918 65.2796 68.6238 65.4768 68.2989C65.7785 67.8091 65.671 67.0787 65.1697 66.7618C64.4099 66.2818 63.9067 67.2546 63.9739 67.9435ZM64.5156 68.0278C64.4368 67.8965 64.449 67.3542 64.5773 67.2644C64.7037 67.1697 64.9596 67.1191 65.0689 67.2797C65.2613 67.5691 65.2894 67.9594 65.0726 68.2177C64.8808 68.4382 64.6469 68.2318 64.5156 68.0278ZM67.3499 67.5166C67.5703 67.4843 67.7334 67.323 67.8555 67.1288C68.2354 66.5548 68.2677 65.5813 67.588 65.2161C67.3254 65.0763 67.0903 65.0042 66.8137 64.9737C66.6079 64.9523 66.4045 65.0195 66.2518 65.1074C66.1553 65.141 66.0112 65.2466 66.0509 65.4146C66.0594 65.4323 66.0711 65.4983 66.0955 65.5068C66.1553 65.5453 66.2512 65.563 66.2769 65.6155C66.5816 66.1077 66.8753 66.589 67.1056 67.0965C67.1373 67.1734 67.0524 67.262 67.0476 67.3377C67.0647 67.4684 67.2308 67.5356 67.3499 67.5166ZM67.4989 66.9645C67.4628 66.9853 66.7477 65.6125 66.6781 65.4677C67.006 65.3285 67.3834 65.5037 67.6051 65.7291C67.8024 65.9239 67.7822 66.2445 67.7621 66.5206C67.7505 66.6671 67.668 66.9114 67.4989 66.9645ZM69.3646 65.5459C69.5221 65.8073 69.6089 66.214 69.9478 66.2079C70.2757 65.6326 71.0715 65.5288 71.1533 64.8338C71.1649 64.7538 70.9738 64.6897 70.8669 64.6653C70.7521 64.6824 70.6965 64.788 70.6617 64.8845C70.5157 65.1563 70.211 65.3639 69.9759 65.5331C69.4 64.937 69.3255 64.01 68.8137 63.4035C68.672 63.2319 68.3966 63.5141 68.4632 63.6973C68.7227 64.3617 69.0104 64.9572 69.3646 65.5459ZM71.4446 62.8228C71.4959 62.8924 71.5753 62.9687 71.5979 63.0707C71.5942 63.1055 71.5741 63.1489 71.5881 63.1684C71.59 63.282 71.7262 63.2765 71.783 63.3223C72.0578 63.5452 72.1695 63.919 72.4614 64.1333C72.5408 64.2097 72.6318 64.0723 72.7277 64.0197C73.0147 63.7926 73.1363 63.4426 73.3244 63.1116C73.3915 62.9889 73.3641 62.8411 73.2383 62.7415C73.2089 62.7415 73.1491 62.7312 73.1491 62.7629C72.9555 63.0542 72.8718 63.4469 72.5702 63.6234C72.3961 63.4261 72.1421 63.2161 72.1579 62.9919C72.1756 62.7153 72.6398 62.6249 72.5854 62.2585C72.2501 62.0563 72.1103 62.5626 71.8043 62.6218C71.7402 62.3849 71.3811 62.2292 71.4959 61.9812C71.5894 61.784 71.8318 61.7809 71.9662 61.6307C72.0651 61.5116 72.0376 61.332 71.9338 61.3339C71.4556 61.3406 71.0135 61.7937 71.0489 62.2854C71.0617 62.5162 71.3133 62.6451 71.4446 62.8228ZM74.9836 59.2477C75.551 59.3027 76.0298 59.0169 76.5935 59.0688C76.7003 59.103 76.7901 59.1946 76.7785 59.332C76.7144 59.5244 76.6863 59.7534 76.4805 59.8425C76.376 59.8853 76.3248 59.9824 76.2399 60.0453C76.155 60.1015 76.0286 59.9726 75.9589 60.0917C75.8802 60.3445 76.0176 60.7146 76.2741 60.5962C76.85 60.3348 77.4136 59.4975 77.0594 58.8789C76.6539 58.1674 75.8148 58.8324 75.143 58.7042C75.0911 58.6853 75.0917 58.6114 75.1058 58.5509C75.1992 58.1643 75.4863 57.9072 75.631 57.5323C75.6823 57.4358 75.7116 57.241 75.5846 57.1933C75.4838 57.1518 75.3342 57.1964 75.2737 57.3179C74.9904 57.884 74.5391 58.4221 74.6319 59.1066C74.6533 59.2783 74.8126 59.2294 74.9836 59.2477ZM77.5193 57.2043C77.7245 57.531 78.0995 57.6306 78.428 57.5439C78.7566 57.4571 78.9648 57.1493 79.0027 56.7616C79.0638 56.1747 78.6607 55.5805 78.0824 55.553C77.206 55.5102 77.1694 56.6272 77.5193 57.2043ZM78.0359 57.0058C77.9108 56.9289 77.6933 56.4415 77.7691 56.2974C77.8417 56.1496 78.0469 55.9756 78.2118 56.0629C78.5043 56.2229 78.6943 56.5545 78.6106 56.8935C78.5324 57.186 78.2375 57.1213 78.0359 57.0058ZM80.3554 54.9014C80.8959 54.8153 80.9856 54.0012 80.8146 53.5035C80.563 52.7755 79.9841 52.3731 79.3697 52.0347C79.3325 52.0066 79.2995 52.1025 79.2433 52.0598C79.1725 52.2595 79.0778 52.4958 79.2286 52.5801C79.5572 52.8286 79.9493 52.9685 80.2235 53.3032C80.4885 53.5645 80.7975 54.1062 80.3902 54.3053C79.8442 54.5746 79.1645 54.0354 78.8543 53.487C78.7889 53.407 78.7071 53.4058 78.6399 53.4155C78.4567 53.5303 78.4353 53.7917 78.541 53.9389C78.985 54.5465 79.6317 55.0241 80.3554 54.9014ZM80.6131 51.311C81.0925 51.6659 81.5829 51.9987 82.1478 52.246C82.1826 52.2387 82.2394 52.2393 82.2877 52.2063C82.4287 52.0421 82.4037 51.8051 82.2968 51.6781C82.1228 51.5095 81.8626 51.5101 81.658 51.3514C81.7649 50.6319 82.0128 49.5211 81.2146 49.1602C80.4659 49.3348 79.9242 50.0109 79.8198 50.8286C79.81 50.919 79.9426 51.0967 80.0812 51.0503C80.1294 51.0173 80.1649 50.9477 80.2088 50.9117C80.2949 51.0888 80.4647 51.2036 80.6131 51.311ZM80.7646 50.7785C80.6577 50.7132 80.6076 50.5861 80.4965 50.5184C80.4293 50.4774 80.3035 50.5599 80.3169 50.5336C80.4128 50.1208 80.8036 49.915 81.1475 49.7495C81.4479 50.0573 81.4968 50.7468 81.2177 51.0197C81.1017 51.137 80.9233 50.875 80.7646 50.7785Z" fill="white"/>
  <path d="M81.1142 45.7811C81.0178 45.8238 80.9054 45.7799 80.8633 45.684C80.8205 45.5875 80.8645 45.4751 80.9604 45.433C82.0755 44.9414 82.3778 45.447 82.7009 45.9881C82.9543 46.4119 83.2248 46.8645 84.2325 46.5164C84.332 46.4822 84.4408 46.5347 84.4749 46.6342C84.5091 46.7338 84.4566 46.8425 84.3571 46.8767C83.0557 47.3262 82.7033 46.7362 82.3729 46.1842C82.1396 45.7921 81.9204 45.4257 81.1142 45.7811ZM80.5506 46.9164C80.4541 46.9591 80.3417 46.9152 80.2996 46.8193C80.2568 46.7228 80.3008 46.6104 80.3967 46.5683C81.5118 46.0767 81.8141 46.5823 82.1372 47.1234C82.3906 47.5472 82.6612 47.9998 83.6688 47.6517C83.7684 47.6175 83.8771 47.67 83.9113 47.7695C83.9455 47.8691 83.8929 47.9778 83.7934 48.012C82.492 48.4615 82.1396 47.8715 81.8092 47.3194C81.5753 46.9274 81.3567 46.561 80.5506 46.9164Z" fill="white"/>
  <path d="M28.5781 59.4032C28.5805 59.2982 28.6679 59.2151 28.7735 59.2175C28.8792 59.22 28.9616 59.3073 28.9592 59.413C28.928 60.6313 28.3411 60.6887 27.7139 60.7498C27.2223 60.798 26.6983 60.8493 26.5823 61.9095C26.5707 62.0146 26.4767 62.0897 26.3722 62.0787C26.2678 62.0671 26.1921 61.973 26.2031 61.8686C26.3521 60.5 27.0361 60.4328 27.6767 60.3705C28.1304 60.3254 28.5555 60.2838 28.5781 59.4032ZM27.7921 58.4084C27.7946 58.3033 27.8819 58.2203 27.9875 58.2227C28.0926 58.2252 28.1756 58.3125 28.1732 58.4181C28.142 59.6365 27.5552 59.6939 26.928 59.755C26.4363 59.8032 25.9124 59.8545 25.7963 60.9147C25.7847 61.0191 25.6907 61.0948 25.5862 61.0838C25.4812 61.0722 25.4061 60.9782 25.4171 60.8738C25.5661 59.5052 26.2501 59.438 26.8907 59.3757C27.3445 59.3305 27.7695 59.289 27.7921 58.4084Z" fill="white"/>
  <path d="M28.7455 46.5978C28.6833 44.7761 29.17 42.9086 30.1386 41.2182C31.0674 39.5968 32.4391 38.1354 34.193 37.033C36.3995 35.6461 38.8539 35.0501 41.1477 35.1832C43.5172 35.3206 45.7213 36.2336 47.3231 37.855C47.4208 37.954 47.5247 38.0651 47.6334 38.1879C47.7335 38.3009 47.8318 38.4181 47.9283 38.5396C48.0297 38.6679 48.1225 38.7912 48.2056 38.9079C48.2874 39.0233 48.3723 39.151 48.4609 39.292L47.0367 40.1861C46.9775 40.0914 46.9079 39.9888 46.8309 39.8795C46.7527 39.769 46.6782 39.6694 46.608 39.5809C46.5341 39.4874 46.4565 39.3952 46.3753 39.3036C46.3026 39.2218 46.2196 39.1332 46.1262 39.0386C44.8229 37.7195 43.0116 36.9756 41.053 36.862C39.0933 36.7484 36.9888 37.262 35.0883 38.4572C33.5738 39.4093 32.3933 40.6637 31.5988 42.0506C30.7853 43.4704 30.3761 45.0283 30.428 46.5386L28.7455 46.5978Z" fill="white"/>
  <path d="M32.1191 46.7012C32.0745 45.4004 32.4213 44.0685 33.1114 42.8642C33.771 41.713 34.7439 40.676 35.9866 39.8949C37.5513 38.9117 39.2924 38.4891 40.9217 38.5838C42.6146 38.6821 44.1902 39.3361 45.3383 40.4977C45.4067 40.5667 45.4812 40.6467 45.5618 40.7377C45.6327 40.8177 45.7029 40.9014 45.7719 40.9881L45.7731 40.9875C45.8379 41.0687 45.9045 41.1579 45.9722 41.2537C46.029 41.3344 46.0907 41.4266 46.1561 41.5304L44.7319 42.4245C44.6953 42.3664 44.6501 42.2993 44.5975 42.2254C44.5554 42.1655 44.5072 42.1014 44.454 42.0348L44.4534 42.0318C44.4064 41.9719 44.3557 41.9127 44.3038 41.8535C44.2598 41.8034 44.2049 41.746 44.1414 41.6812C43.2925 40.822 42.1083 40.3371 40.8265 40.2626C39.5318 40.1875 38.14 40.5276 36.8813 41.3191C35.8779 41.9499 35.0962 42.7793 34.5716 43.6966C34.0367 44.6297 33.7673 45.6526 33.8015 46.642L32.1191 46.7012Z" fill="white"/>
  <path d="M42.9941 37.1002C43.2659 36.1176 43.8381 35.2034 44.6357 34.4656C45.3954 33.7627 46.3597 33.2192 47.4627 32.9297C48.7311 32.5963 50.2945 32.6806 51.6167 33.2284C52.8112 33.723 53.8262 34.592 54.3056 35.8702L52.7318 36.4565C52.4344 35.6644 51.7699 35.1111 50.9779 34.7826C49.991 34.374 48.8294 34.3099 47.8908 34.556C47.0571 34.7746 46.3359 35.1789 45.7753 35.6974C45.2079 36.222 44.8037 36.8639 44.6143 37.5478L42.9941 37.1002Z" fill="white"/>
  <path d="M60.6777 36.2007C60.8988 34.6898 61.523 33.2303 62.4689 31.9942C63.3832 30.7997 64.6021 29.811 66.0525 29.1832C67.8907 28.3874 69.7968 28.3056 71.4762 28.8155C73.2014 29.3395 74.6854 30.4839 75.6167 32.1182C75.6803 32.2293 75.7389 32.3386 75.7926 32.4449C75.8537 32.5664 75.9081 32.6806 75.9545 32.7851C75.9899 32.8657 76.0381 32.9835 76.0974 33.1381C76.153 33.2834 76.1969 33.4043 76.2281 33.4984L74.628 34.0187C74.5877 33.8959 74.5547 33.8025 74.5303 33.7372C74.5083 33.6797 74.4692 33.5881 74.4143 33.4629C74.3703 33.3634 74.3294 33.2767 74.2921 33.2022C74.2463 33.1112 74.2005 33.0263 74.156 32.9475C73.4439 31.6974 72.3092 30.8223 70.9901 30.4217C69.6777 30.0235 68.1772 30.0919 66.7188 30.7233C65.5457 31.2308 64.5545 32.037 63.807 33.0141C63.0344 34.0236 62.5251 35.2132 62.345 36.4438L60.6777 36.2007Z" fill="white"/>
  <path d="M63.0625 36.8448C63.3434 34.9235 64.3963 33.4304 65.7557 32.485C66.6253 31.8804 67.6238 31.4987 68.6284 31.3729C69.6471 31.2453 70.6792 31.3821 71.6001 31.8157C72.777 32.369 73.751 33.3919 74.261 34.9443L72.6609 35.4646C72.3092 34.394 71.6618 33.7003 70.8887 33.3369C70.2688 33.045 69.5531 32.9552 68.8324 33.0456C68.0971 33.1378 67.3612 33.4194 66.7169 33.8676C65.7136 34.5657 64.9355 35.6686 64.7285 37.0879L63.0625 36.8448Z" fill="white"/>
  <path d="M54.3008 35.9109C54.4644 34.9039 54.9567 34.0232 55.6504 33.3228C56.2953 32.6718 57.1173 32.1771 58.009 31.8846C58.8982 31.5927 59.8649 31.5011 60.8017 31.6531C61.824 31.8192 62.8073 32.276 63.6183 33.0785L62.4329 34.2706C61.8894 33.7319 61.2249 33.4254 60.5318 33.3124C59.8686 33.2043 59.1748 33.2727 58.5293 33.484C57.8868 33.6947 57.2981 34.0471 56.8419 34.5075C56.3863 34.9674 56.0645 35.5378 55.9601 36.1802L54.3008 35.9109Z" fill="white"/>
  <path d="M45.2715 37.6154L45.2782 37.6068C45.8804 36.8294 46.9601 36.1583 48.1277 35.8822C49.3339 35.597 50.6603 35.7143 51.7205 36.5283L51.7297 36.5357L50.7092 37.8725L50.7 37.8652C50.0899 37.3968 49.274 37.3412 48.51 37.522C47.7082 37.7113 46.9888 38.1443 46.6089 38.634L46.6022 38.6426L45.2715 37.6154Z" fill="white"/>
  <path d="M56.5801 35.7383C56.836 35.4085 57.1383 35.1129 57.4796 34.8662C57.8094 34.6281 58.1771 34.4357 58.5759 34.3032C59.2269 34.0864 59.8779 34.0552 60.4806 34.1822C61.1164 34.316 61.6972 34.6232 62.1692 35.0702L61.0101 36.2885C60.7652 36.0565 60.4648 35.8971 60.138 35.8281C59.8131 35.7597 59.4595 35.7774 59.1029 35.8959C58.8745 35.9716 58.6589 36.0852 58.461 36.2287C58.2552 36.3771 58.0702 36.5591 57.9108 36.7649L56.5801 35.7383Z" fill="white"/>
  <path d="M48.1816 41.0494C48.2287 40.0204 48.5841 38.9956 49.2003 38.0955C49.786 37.2392 50.6116 36.4905 51.6333 35.9574L51.6346 35.9568C52.9433 35.274 54.5091 35.0279 55.9309 35.3027C57.4081 35.5885 58.7395 36.424 59.5096 37.8976L59.5163 37.911L59.5169 37.9116L58.7218 38.3092L58.0213 38.675C57.5144 37.704 56.6173 37.1495 55.6151 36.9559C54.5568 36.7513 53.3891 36.9351 52.412 37.4451L52.4108 37.4457C51.6449 37.8457 51.0275 38.4051 50.5903 39.0439C50.1481 39.6894 49.8941 40.4112 49.8617 41.1221L48.1816 41.0494Z" fill="white"/>
  <path d="M78.0152 30.3281L24.7246 47.4907C27.6932 56.62 34.913 63.1863 43.4842 65.7018C43.563 65.1173 43.5874 64.484 43.5624 63.8257C43.3474 58.3776 39.6685 50.2211 42.5559 45.0821C40.4655 45.5242 38.7488 45.6922 37.3539 46.1416C30.1922 48.4482 31.766 55.486 35.5835 55.3858C35.9622 55.3669 36.3335 55.3241 36.659 55.2191C38.0538 54.7702 38.9002 53.5733 39.0676 52.339C39.2685 50.8117 38.2981 48.9942 36.0342 49.0559L36.2016 48.5398C38.7641 48.767 39.8346 50.5778 39.7687 52.5241C39.71 54.4936 38.4679 56.6127 36.4446 57.2643C36.1655 57.3541 35.8559 57.428 35.5542 57.4481C30.3113 57.9819 28.6557 48.378 37.0877 45.7141C38.5528 45.2421 40.4472 45.0686 42.8784 44.4909C43.7639 43.2561 44.5505 42.6692 45.1319 42.4817C46.4571 42.0548 46.4766 43.948 42.9651 45.0784C41.4731 48.254 46.4797 58.7801 45.0916 63.8721C46.3337 61.753 48.9359 51.9842 51.2468 46.5691C53.0991 42.2002 54.9856 39.7702 57.683 38.9018C58.1942 38.7369 58.7518 38.6343 59.3472 38.5714L58.8379 40.0181C58.1044 39.9723 57.432 40.0346 56.8042 40.2368C54.8744 40.8584 53.4173 42.7907 51.7861 46.7291C49.4306 52.4007 47.0971 61.7499 44.6335 66.0126C49.5161 67.2243 54.7859 67.1339 59.9268 65.4783C74.6172 60.7472 82.7023 45.0222 78.0152 30.3281ZM54.1336 45.4265C54.1965 44.5856 54.8622 43.7037 55.6292 43.4564C56.3737 43.217 56.9166 43.7092 56.8543 44.5507C56.7761 45.4228 56.1105 46.3047 55.366 46.5441C54.599 46.7914 54.0555 46.2992 54.1336 45.4265ZM75.292 52.317C73.4795 55.8518 71.4825 56.9828 70.2715 56.8081C68.7954 56.5895 68.4485 55.1031 68.5688 53.2771C68.4045 53.6734 68.228 54.0551 68.0399 54.4215C66.8094 56.8967 65.0133 58.8094 63.3949 59.2021C60.9643 59.7896 59.8321 57.9379 59.4419 55.8585C59.2244 56.5181 59.0089 57.1135 58.7835 57.6332C57.3429 61.0488 55.7239 62.2373 54.5129 62.0626C52.3296 61.7395 53.0289 58.3318 53.6451 55.4646C54.0603 53.4059 54.3736 50.7133 53.4191 49.5835L56.814 48.4898C55.2036 51.139 54.6246 53.3271 54.21 55.3852C53.813 57.1813 54.2753 58.8546 55.2463 59.0806C55.9395 59.2424 57.0851 59.0531 58.1209 57.4878C58.516 56.8955 58.9618 56.0643 59.3215 55.0005C59.2342 54.0746 59.2757 53.1635 59.3997 52.4563C59.9176 49.4412 61.6734 46.9252 64.115 46.1386C67.254 45.1279 67.9496 50.3958 64.9657 52.8453C64.4594 53.2648 63.9073 53.6221 63.3491 53.8023C62.4422 54.0942 61.5011 53.961 60.6596 53.18C60.7262 54.9803 61.5451 56.4875 62.7561 56.6622C63.2111 56.7208 63.7601 56.6719 64.3415 56.4851C66.5926 55.7602 68.1065 53.6081 68.8094 51.4352C68.6958 52.0636 68.6079 52.6877 68.5694 53.2764C68.8742 52.5436 69.1386 51.7631 69.3578 50.943L68.9157 51.0853C68.8827 51.2013 68.8473 51.3179 68.81 51.434C68.865 51.1298 68.9261 50.8245 68.9914 50.5222C69.3627 48.9655 69.8012 46.8226 70.2098 44.6637L68.3264 45.2702L68.5096 44.7236L70.3234 44.1397C71 40.6624 71.56 37.2223 71.5875 36.0333L74.5409 35.0824C73.3604 37.2333 72.1591 40.5971 71.207 43.8552L74.2294 42.8817L74.0462 43.4283L71.047 44.3938C70.6226 45.865 70.2531 47.2671 69.9692 48.5392C69.4116 50.9515 69.6406 53.4951 71.0574 53.9885C72.012 54.3226 73.4092 53.6416 74.5366 52.201C75.2096 51.343 75.9888 49.9371 76.3797 48.6815L76.8219 48.5392C76.3895 49.9872 75.7965 51.3332 75.292 52.317Z" fill="white"/>
</svg>