<svg width="40" height="40" viewBox="0 0 40 40" fill="none" xmlns="http://www.w3.org/2000/svg">
<g clipPath="url(#clip0_1607_41105)">
<path d="M4.46168 32.3226C1.88308 28.956 0.373859 24.727 0.441643 20.1431C0.602122 9.2807 9.50057 0.684294 20.3624 0.8815C30.9985 1.07463 39.5612 9.75687 39.5612 20.4391C39.5612 24.8987 38.0687 29.0098 35.5561 32.3002C35.4256 32.471 35.191 32.5204 35.0022 32.4177C30.7756 30.121 25.5961 28.7691 20.0003 28.7691C14.3935 28.7691 9.2046 30.1263 4.97354 32.4312C4.79901 32.5263 4.58248 32.4804 4.46168 32.3226Z" fill="#ECB700"/>
<path d="M35.5684 32.2831C31.9951 36.9731 26.3507 40 19.9995 40C13.6483 40 8.004 36.9731 4.43066 32.2831V23.9521C4.43066 23.5111 4.78811 23.1537 5.22907 23.1537H34.77C35.2109 23.1537 35.5684 23.5111 35.5684 23.9521V32.2831Z" fill="#FFF5F5"/>
<path d="M5.22907 23.1537H8.34284C7.90188 23.1537 7.54444 23.5111 7.54444 23.9521V35.5229C6.38699 34.5661 5.34156 33.4786 4.43066 32.2831V23.9521C4.43066 23.5111 4.78811 23.1537 5.22907 23.1537Z" fill="#F7E6B0"/>
<path d="M15.5285 32.3354V39.4868C12.1913 38.7065 9.18274 37.0717 6.74609 34.8258V32.3354C6.74609 32.1149 6.92486 31.9362 7.1453 31.9362H15.1293C15.3498 31.9362 15.5285 32.1149 15.5285 32.3354ZM26.307 33.533H18.3229C18.1025 33.533 17.9237 33.7117 17.9237 33.9322V39.8911C18.6058 39.9631 19.2984 40 19.9996 40C22.3556 40 24.6144 39.5835 26.7062 38.8201V33.9322C26.7062 33.7117 26.5274 33.533 26.307 33.533ZM15.1293 25.549H7.1453C6.92486 25.549 6.74609 25.7277 6.74609 25.9482V29.1418C6.74609 29.3622 6.92486 29.541 7.1453 29.541H15.1293C15.3498 29.541 15.5285 29.3622 15.5285 29.1418V25.9482C15.5285 25.7277 15.3498 25.549 15.1293 25.549ZM32.8539 25.549H18.3229C18.1025 25.549 17.9237 25.7277 17.9237 25.9482V30.7386C17.9237 30.959 18.1025 31.1378 18.3229 31.1378H32.8539C33.0743 31.1378 33.2531 30.959 33.2531 30.7386V25.9482C33.2531 25.7277 33.0743 25.549 32.8539 25.549ZM32.6942 33.533H29.5006C29.2801 33.533 29.1014 33.7117 29.1014 33.9322V37.7579C30.5487 36.9957 31.8889 36.0573 33.0934 34.9714V33.9322C33.0934 33.7117 32.9146 33.533 32.6942 33.533Z" fill="#FDC273"/>
<path d="M19.3709 37.626L8.45991 23.6552C3.90773 17.8265 4.41672 9.51822 9.64626 4.28868C15.3645 -1.42956 24.6356 -1.42956 30.354 4.28868C35.5835 9.51822 36.0925 17.8265 31.5403 23.6552L20.6293 37.626C20.3097 38.0353 19.6905 38.0353 19.3709 37.626Z" fill="#AB2538"/>
<path d="M30.3542 4.28872C25.6954 -0.370121 18.6784 -1.23272 13.1457 1.69974C7.6113 8.07954 7.30056 17.5631 12.5715 24.3121L21.7995 36.128L31.5405 23.6553C36.0927 17.8265 35.5838 9.51826 30.3542 4.28872ZM20.0004 23.9521C14.4885 23.9521 10.0203 19.4839 10.0203 13.9721C10.0203 8.46022 14.4885 3.99204 20.0004 3.99204C25.5122 3.99204 29.9804 8.46022 29.9804 13.9721C29.9804 19.4839 25.5122 23.9521 20.0004 23.9521Z" fill="#F52C2C"/>
<path d="M20.6194 11.8539L19.3517 20.2352C19.2982 20.5893 18.9939 20.851 18.6358 20.851H14.9345C14.5764 20.851 14.2721 20.5893 14.2186 20.2352L12.9509 11.8539C12.9178 11.6349 13.0874 11.4377 13.3089 11.4377H20.2614C20.4829 11.4377 20.6525 11.6349 20.6194 11.8539ZM26.3164 7.19346C26.2827 7.15625 26.2208 7.17941 26.219 7.22955L26.082 11.2034C26.0763 11.3689 25.9541 11.514 25.7894 11.531C25.5987 11.5507 25.4357 11.4056 25.4283 11.2189L25.3102 8.22683C25.2944 7.82691 25.1608 7.44056 24.9262 7.11633C24.9038 7.08543 24.8578 7.08543 24.8355 7.11633C24.6008 7.44056 24.4673 7.82691 24.4515 8.22683L24.3339 11.205C24.3274 11.3704 24.2047 11.5149 24.04 11.5312C23.8492 11.55 23.6867 11.4042 23.6802 11.2172L23.5426 7.22955C23.5409 7.17941 23.479 7.15633 23.4453 7.19346C22.7296 7.98412 22.2569 9.74691 22.2569 10.9729C22.2569 12.4831 22.9743 13.5135 23.9793 13.8917L24.3616 20.3615C24.3778 20.6364 24.6055 20.851 24.8808 20.851C25.1562 20.851 25.3838 20.6364 25.4001 20.3615L25.7824 13.8917C26.7875 13.5135 27.5048 12.4831 27.5048 10.9729C27.5048 9.74691 27.0321 7.98404 26.3164 7.19346ZM20.9071 9.17637H20.4975C20.5038 9.14659 20.5071 9.11577 20.5071 9.08408C20.5071 8.59314 20.1091 8.19513 19.6182 8.19513H18.9895V7.71976C18.9895 7.37366 18.7089 7.09302 18.3628 7.09302C18.0167 7.09302 17.7362 7.37358 17.7362 7.71976V8.19513H13.899C13.4081 8.19513 13.0101 8.59314 13.0101 9.08408C13.0101 9.11569 13.0135 9.14651 13.0197 9.17637H12.6101C12.2419 9.17637 11.9434 9.47481 11.9434 9.84304C11.9434 10.2113 12.2418 10.5097 12.6101 10.5097H20.9072C21.2754 10.5097 21.5739 10.2112 21.5739 9.84304C21.5738 9.47481 21.2753 9.17637 20.9071 9.17637Z" fill="#F7E6B0"/>
<path d="M21.5741 9.84298C21.5741 10.2112 21.2757 10.5096 20.9074 10.5096H14.4929C14.1247 10.5096 13.8262 10.2111 13.8262 9.84298C13.8262 9.47475 14.1246 9.17631 14.4929 9.17631H14.9025C14.8963 9.14653 14.8929 9.11571 14.8929 9.08402C14.8929 8.59308 15.2909 8.19507 15.7819 8.19507H19.6184C20.1094 8.19507 20.5074 8.59308 20.5074 9.08402C20.5074 9.11563 20.504 9.14645 20.4978 9.17631H20.9074C21.2757 9.17631 21.5741 9.47475 21.5741 9.84298ZM20.2618 11.4376H14.5831L15.4817 17.3792C15.6426 18.443 16.557 19.2295 17.6329 19.2295C18.7088 19.2295 19.6231 18.4431 19.784 17.3792L20.6197 11.8538C20.6528 11.6348 20.4833 11.4376 20.2618 11.4376ZM26.3171 7.19388C26.2833 7.15643 26.2211 7.17903 26.2194 7.22949L26.0818 11.2172C26.0758 11.3932 25.9313 11.5327 25.7552 11.5327C25.5797 11.5327 25.4356 11.3941 25.4286 11.2188L25.3106 8.22669C25.2948 7.82677 25.1612 7.44042 24.9265 7.11619C24.9042 7.08529 24.8582 7.08529 24.8358 7.11619C24.6012 7.44042 24.4676 7.82677 24.4518 8.22669L24.3337 11.2188C24.3268 11.3941 24.1827 11.5327 24.0072 11.5327C23.831 11.5327 23.6866 11.3932 23.6805 11.2172L23.5432 7.23611C23.0934 7.96601 22.8171 8.91587 22.8171 9.85304C22.8171 11.7857 23.9919 12.9325 25.4411 12.9325C26.2056 12.9325 26.8937 12.6133 27.3733 12.028C27.4588 11.7091 27.5051 11.3564 27.5051 10.9728C27.5051 9.74709 27.0326 7.98469 26.3171 7.19388Z" fill="#FFF5F5"/>
</g>
<defs>
<clipPath id="clip0_1607_41105">
<rect width="40" height="40" fill="white"/>
</clipPath>
</defs>
</svg>
