<svg width="40" height="40" viewBox="0 0 40 40" fill="none" xmlns="http://www.w3.org/2000/svg">
<rect width="40" height="40" rx="20" fill="#F9F1DF"/>
<path d="M27.5377 30.3387C26.874 30.8157 26.0771 31.0718 25.2597 31.0708C24.713 31.0704 24.1721 30.9578 23.6706 30.74L23.2584 29.1566L22.4717 26.1247L22.3035 25.4739C22.3689 25.3325 22.4058 25.1795 22.412 25.0237C22.4133 24.8523 22.3684 24.6837 22.2818 24.5357C22.2041 24.396 22.0942 24.277 21.9613 24.1883C21.8283 24.0996 21.6762 24.0439 21.5174 24.0258C21.3764 24.0149 21.1865 24.0204 19.2449 24.0204C18.3817 24.0204 17.5537 23.6787 16.9418 23.0698C16.33 22.461 15.9841 21.6347 15.9799 20.7716V19.6812L21.4252 20.2561L22.7269 20.3916L24.2187 20.5489C24.7749 20.608 25.2868 20.8796 25.6475 21.3071C26.0083 21.7346 26.1899 22.2849 26.1547 22.8431L25.8346 28.0119C25.8155 28.3246 25.8643 28.6377 25.9776 28.9298C26.0909 29.2219 26.266 29.486 26.4909 29.7041C26.6478 29.8594 26.8292 29.9876 27.0278 30.0837L27.5377 30.3387Z" fill="#E0925B"/>
<path d="M10.3338 29.677L9.53108 31.8194C9.20172 31.8552 8.8713 31.7618 8.60935 31.559H8.60393L8.50626 31.4774C8.38709 31.3649 8.29163 31.2296 8.2255 31.0797C8.15938 30.9297 8.12392 30.7681 8.12122 30.6042C8.12126 30.5371 8.12669 30.47 8.13747 30.4038C8.18359 30.1279 8.3229 29.8762 8.53215 29.6907C8.74141 29.5051 9.00796 29.3969 9.28734 29.3841C9.46294 29.3744 9.63859 29.4022 9.80257 29.4657L9.99242 29.5417L10.3338 29.677Z" fill="#FED673"/>
<path d="M16.9506 35.057C16.9492 35.3599 16.9054 35.6612 16.8205 35.9519C16.6274 36.5846 16.2347 37.1378 15.7012 37.5289C15.1678 37.9201 14.5221 38.1281 13.8606 38.122C13.1991 38.1159 12.5574 37.896 12.0312 37.4951C11.505 37.0942 11.1227 36.5338 10.9412 35.8977C10.8599 35.6249 10.8197 35.3416 10.8219 35.057C10.8209 34.78 10.8593 34.5043 10.9358 34.238C11.1185 33.5791 11.5164 33.0002 12.0661 32.5935C12.6158 32.1868 13.2858 31.9757 13.9694 31.9937C14.653 32.0118 15.3109 32.2581 15.8383 32.6933C16.3658 33.1285 16.7325 33.7276 16.8801 34.3953C16.9259 34.6129 16.9495 34.8346 16.9506 35.057Z" fill="#FED673"/>
<path d="M35.8577 34.8675C35.8583 35.2383 35.7904 35.6061 35.6573 35.9522C35.4376 36.5341 35.0459 37.0351 34.5343 37.3888C34.0227 37.7424 33.4155 37.9319 32.7936 37.9319C32.1717 37.9319 31.5645 37.7424 31.0529 37.3888C30.5413 37.0351 30.1496 36.5341 29.9299 35.9522C29.7968 35.6061 29.7289 35.2383 29.7295 34.8675C29.7273 34.7037 29.7418 34.5401 29.7728 34.3793C29.8877 33.6608 30.2549 33.0067 30.8086 32.5345C31.3623 32.0623 32.0661 31.803 32.7938 31.803C33.5215 31.803 34.2253 32.0623 34.779 32.5345C35.3327 33.0067 35.6999 33.6608 35.8148 34.3793C35.8457 34.5402 35.86 34.7037 35.8577 34.8675Z" fill="#FED673"/>
<path d="M17.683 34.8674C17.683 35.8743 17.283 36.84 16.571 37.552C15.859 38.264 14.8933 38.664 13.8864 38.664C12.8795 38.664 11.9138 38.264 11.2018 37.552C10.4898 36.84 10.0898 35.8743 10.0898 34.8674C10.0898 34.3033 10.3936 34.0972 10.7355 34.1569C10.8081 34.1669 10.877 34.195 10.9359 34.2385C11.0241 34.296 11.0936 34.3779 11.136 34.4742C11.1784 34.5705 11.1918 34.6771 11.1746 34.7809V34.8677C11.1728 35.225 11.2415 35.5792 11.377 35.9098C11.5124 36.2405 11.7119 36.5411 11.9639 36.7944C12.2159 37.0478 12.5155 37.2488 12.8454 37.386C13.1753 37.5231 13.5291 37.5938 13.8865 37.5938C14.2438 37.5938 14.5976 37.5231 14.9275 37.386C15.2575 37.2488 15.5571 37.0478 15.8091 36.7944C16.0611 36.5411 16.2605 36.2405 16.396 35.9098C16.5314 35.5792 16.6002 35.225 16.5983 34.8677C16.5975 34.7707 16.6234 34.6754 16.6731 34.5922C16.7229 34.509 16.7946 34.441 16.8803 34.3958C16.9587 34.348 17.049 34.3236 17.1407 34.3253C17.2844 34.3257 17.422 34.383 17.5236 34.4846C17.6252 34.5861 17.6825 34.7237 17.683 34.8674Z" fill="#7C737D"/>
<path d="M36.5898 34.8675C36.5898 35.366 36.4916 35.8597 36.3008 36.3204C36.11 36.781 35.8303 37.1995 35.4778 37.5521C35.1252 37.9046 34.7067 38.1843 34.2461 38.3751C33.7854 38.5658 33.2917 38.6641 32.7932 38.6641C32.2946 38.6641 31.8009 38.5658 31.3403 38.3751C30.8797 38.1843 30.4611 37.9046 30.1086 37.5521C29.756 37.1995 29.4764 36.781 29.2856 36.3204C29.0948 35.8597 28.9966 35.366 28.9966 34.8675C28.997 34.7237 29.0543 34.586 29.1559 34.4844C29.2575 34.3828 29.3953 34.3255 29.539 34.3251C29.6197 34.3263 29.6992 34.3448 29.7722 34.3793C29.865 34.4226 29.9434 34.4916 29.9982 34.5782C30.053 34.6647 30.0819 34.7651 30.0814 34.8675C30.0818 35.2404 30.1575 35.6093 30.304 35.9522C30.516 36.436 30.8644 36.8475 31.3065 37.1365C31.7486 37.4254 32.2653 37.5793 32.7935 37.5793C33.3217 37.5793 33.8384 37.4254 34.2805 37.1365C34.7226 36.8475 35.071 36.436 35.283 35.9522C35.4294 35.6093 35.5052 35.2404 35.5056 34.8675C35.5051 34.7651 35.534 34.6647 35.5888 34.5782C35.6435 34.4916 35.722 34.4226 35.8148 34.3793C35.8877 34.3448 35.9672 34.3263 36.048 34.3251C36.1916 34.3257 36.3291 34.383 36.4306 34.4846C36.5321 34.5862 36.5893 34.7238 36.5898 34.8675Z" fill="#7C737D"/>
<path d="M16.8205 35.9522C16.6274 36.5849 16.2347 37.1381 15.7013 37.5292C15.1678 37.9203 14.5221 38.1284 13.8606 38.1223C13.1991 38.1162 12.5574 37.8962 12.0312 37.4953C11.505 37.0944 11.1227 36.5341 10.9412 35.8979C11.0909 35.9308 11.2436 35.9472 11.3969 35.9467C11.4365 35.9513 11.4763 35.9531 11.5162 35.9522H16.8205Z" fill="#FED673"/>
<path d="M35.657 35.9523C35.4373 36.5341 35.0456 37.0352 34.534 37.3888C34.0224 37.7425 33.4152 37.9319 32.7933 37.9319C32.1714 37.9319 31.5642 37.7425 31.0526 37.3888C30.541 37.0352 30.1493 36.5341 29.9296 35.9523H35.657Z" fill="#FED673"/>
<path d="M17.5256 35.9525C17.2842 36.7609 16.7806 37.4659 16.0941 37.9563C15.4077 38.4468 14.5776 38.6948 13.7346 38.6612C12.8916 38.6276 12.0838 38.3144 11.4386 37.7709C10.7933 37.2274 10.3474 36.4846 10.1711 35.6595C10.4154 35.7747 10.6746 35.855 10.9412 35.8982C11.0909 35.9311 11.2437 35.9474 11.3969 35.947C11.6078 36.4315 11.9555 36.844 12.3974 37.134C12.8392 37.4239 13.3561 37.5786 13.8845 37.5792C14.413 37.5798 14.9302 37.4262 15.3727 37.1372C15.8152 36.8483 16.1638 36.4366 16.3758 35.9525H17.5256Z" fill="#7C737D"/>
<path d="M36.4326 35.9523C36.1987 36.7358 35.7182 37.423 35.0625 37.9116C34.4068 38.4002 33.611 38.6641 32.7932 38.6641C31.9755 38.6641 31.1797 38.4002 30.524 37.9116C29.8683 37.423 29.3878 36.7358 29.1539 35.9523H30.3035C30.5155 36.436 30.8639 36.8475 31.306 37.1365C31.7481 37.4255 32.2648 37.5793 32.793 37.5793C33.3212 37.5793 33.8379 37.4255 34.28 37.1365C34.7221 36.8475 35.0705 36.436 35.2825 35.9523H36.4326Z" fill="#7C737D"/>
<path d="M11.3968 35.9467C11.2436 35.9471 11.0908 35.9308 10.9412 35.8979C10.6746 35.8547 10.4153 35.7744 10.171 35.6592C10.1162 35.3989 10.0889 35.1335 10.0894 34.8674C10.0894 34.3033 10.3931 34.0972 10.7351 34.1569C10.8076 34.1669 10.8765 34.195 10.9355 34.2385C11.0236 34.296 11.0931 34.3779 11.1355 34.4742C11.1779 34.5705 11.1913 34.6771 11.1741 34.7809V34.8677C11.1746 35.2387 11.2504 35.6058 11.3968 35.9467Z" fill="#6C646D"/>
<path d="M16.8802 34.3956C16.7944 34.4409 16.7227 34.5088 16.673 34.592C16.6232 34.6753 16.5973 34.7706 16.5981 34.8675C16.5977 35.2404 16.522 35.6094 16.3755 35.9523H11.5162C11.4764 35.9532 11.4365 35.9514 11.3969 35.9468C11.2504 35.6058 11.1747 35.2387 11.1742 34.8675V34.7808C11.1914 34.6769 11.178 34.5704 11.1356 34.4741C11.0932 34.3777 11.0237 34.2958 10.9355 34.2384C11.1183 33.5794 11.5161 33.0005 12.0659 32.5938C12.6156 32.1871 13.2856 31.976 13.9692 31.9941C14.6527 32.0122 15.3106 32.2584 15.8381 32.6936C16.3656 33.1288 16.7323 33.728 16.8799 34.3956H16.8802Z" fill="#FEC845"/>
<path d="M17.6829 34.8676C17.6835 35.2349 17.6305 35.6003 17.5255 35.9523H16.3757C16.5222 35.6094 16.5979 35.2404 16.5984 34.8676C16.5976 34.7706 16.6235 34.6753 16.6732 34.5921C16.723 34.5088 16.7946 34.4409 16.8804 34.3957C16.9587 34.3479 17.0491 34.3234 17.1408 34.3252C17.2844 34.3257 17.4221 34.383 17.5236 34.4846C17.6252 34.5862 17.6824 34.7239 17.6829 34.8676Z" fill="#6C646D"/>
<path d="M30.3034 35.9522H29.1539C29.049 35.6002 28.996 35.2348 28.9966 34.8675C28.997 34.7237 29.0543 34.586 29.1559 34.4844C29.2576 34.3828 29.3953 34.3255 29.539 34.3251C29.6197 34.3263 29.6992 34.3448 29.7722 34.3793C29.865 34.4226 29.9434 34.4916 29.9982 34.5782C30.053 34.6647 30.0819 34.7651 30.0814 34.8675C30.0816 35.2403 30.1572 35.6093 30.3034 35.9522Z" fill="#6C646D"/>
<path d="M35.8142 34.3793C35.7214 34.4226 35.643 34.4916 35.5882 34.5782C35.5334 34.6647 35.5046 34.7651 35.5051 34.8675C35.5046 35.2404 35.4289 35.6093 35.2824 35.9522H30.3035C30.157 35.6093 30.0812 35.2404 30.0808 34.8675C30.0813 34.7651 30.0524 34.6647 29.9976 34.5782C29.9428 34.4916 29.8644 34.4226 29.7716 34.3793C29.8865 33.6608 30.2537 33.0067 30.8074 32.5345C31.3611 32.0623 32.0649 31.803 32.7926 31.803C33.5203 31.803 34.2241 32.0623 34.7778 32.5345C35.3315 33.0067 35.6987 33.6608 35.8136 34.3793H35.8142Z" fill="#FEC845"/>
<path d="M36.5898 34.8675C36.5904 35.2348 36.5374 35.6002 36.4325 35.9522H35.2827C35.4292 35.6093 35.5049 35.2404 35.5054 34.8675C35.5049 34.7651 35.5337 34.6647 35.5885 34.5782C35.6433 34.4916 35.7217 34.4226 35.8145 34.3793C35.8875 34.3448 35.967 34.3263 36.0477 34.3251C36.1914 34.3256 36.329 34.3829 36.4305 34.4845C36.5321 34.5861 36.5894 34.7238 36.5898 34.8675Z" fill="#6C646D"/>
<path d="M27.5377 30.3387C26.874 30.8157 26.0771 31.0718 25.2597 31.0709C24.713 31.0704 24.1721 30.9578 23.6706 30.7401L23.2584 29.1566C23.6736 29.5724 24.2079 29.8485 24.7872 29.9467C25.3665 30.0449 25.962 29.9602 26.4909 29.7044C26.6478 29.8597 26.8292 29.988 27.0278 30.0841L27.5377 30.3387Z" fill="#DB7A35"/>
<path d="M36.5899 34.8675H11.5163C11.168 34.8675 10.8249 34.7835 10.516 34.6228C10.207 34.462 9.94143 34.2291 9.74162 33.9439C9.5418 33.6587 9.41369 33.3295 9.36812 32.9843C9.32255 32.639 9.36087 32.2878 9.47984 31.9605L9.53112 31.8195L10.3339 29.6771L11.1311 27.5456L11.527 26.4826C12.1173 26.9939 12.8722 27.275 13.6532 27.2745H19.3914C20.1007 27.2753 20.7906 27.0428 21.3548 26.6128C21.3276 27.0281 21.3513 27.4452 21.4253 27.8548C21.9893 30.8324 25.2921 31.9443 27.5378 30.3389C28.0511 29.9792 28.47 29.501 28.7589 28.9448C29.0479 28.3886 29.1984 27.771 29.1977 27.1442C29.1977 26.7482 28.5306 20.1205 28.3407 18.0541C28.3191 17.7937 28.3027 17.6093 28.2974 17.5117H31.6492L32.7188 30.1843C32.7364 30.4141 32.8279 30.6321 32.9795 30.8058C33.1311 30.9795 33.3347 31.0995 33.5601 31.1481C34.4162 31.3243 35.1853 31.7906 35.7373 32.4683C36.2893 33.1459 36.5905 33.9934 36.5899 34.8675Z" fill="#F16069"/>
<path d="M31.649 17.5117H28.2972C28.3026 17.6093 28.3189 17.7937 28.3406 18.0541C28.3678 18.3361 28.4 18.7104 28.4436 19.1388H28.9968C29.1649 19.1381 29.3323 19.1182 29.4958 19.0794C29.7462 19.4333 30.0779 19.7219 30.463 19.921C30.848 20.1201 31.2752 20.224 31.7087 20.2238H31.8771L31.649 17.5117Z" fill="#EF444E"/>
<path d="M30.0814 16.9695C30.0812 17.16 30.0307 17.3471 29.9349 17.5119C29.8882 17.594 29.8298 17.669 29.7617 17.7345C29.6623 17.8365 29.5433 17.9173 29.412 17.9723C29.2807 18.0273 29.1396 18.0553 28.9972 18.0546H22.8519C22.6677 18.4683 22.4518 18.8672 22.2062 19.2478C21.9779 19.6076 21.7164 19.9453 21.4252 20.2566L15.9799 19.6817C15.9826 19.319 16.0207 18.9576 16.0937 18.6024C16.6741 15.8525 19.2882 13.2925 20.9751 11.8878C21.3005 11.6112 21.5879 11.3831 21.8266 11.2045C22.3103 11.6811 22.9077 12.0265 23.5621 12.2078C23.8728 12.5363 24.0737 12.9533 24.137 13.401C24.2835 14.3231 23.9366 15.3318 23.5784 15.8851H28.9964C29.2838 15.8859 29.5593 16.0003 29.7626 16.2035C29.9658 16.4067 30.0805 16.6821 30.0814 16.9695Z" fill="#FED673"/>
<path d="M22.2062 19.2473C21.9779 19.6072 21.7164 19.9449 21.4252 20.2561L15.9799 19.6812C15.9826 19.3186 16.0207 18.9571 16.0937 18.6019L22.2062 19.2473Z" fill="#FEC845"/>
<path d="M13.6153 9.10504C13.6153 6.10957 10.9441 3.41016 7.64918 3.41016C4.35424 3.41016 1.68311 6.10957 1.68311 9.10504C1.68311 12.1005 4.35424 14.7999 7.64918 14.7999C7.82063 14.7999 7.98925 14.7883 8.15706 14.774L10.3614 16.427V14.1454C12.2913 13.1675 13.6153 11.2117 13.6153 9.10504Z" fill="#F16069"/>
<path d="M9.24377 13.6879L10.3608 14.5286V16.4268L8.15899 14.7729C7.99088 14.7891 7.8227 14.8 7.64918 14.8C4.35157 14.8 1.68311 12.099 1.68311 9.10516C1.68311 7.38581 2.56178 5.76413 3.93936 4.69568C3.19182 5.64366 2.77994 6.81288 2.76826 8.02008C2.76826 11.014 5.43664 13.715 8.73426 13.715C8.90749 13.715 9.07559 13.7041 9.24377 13.6879Z" fill="#EF353F"/>
<path d="M7.64928 6.12195C9.53978 6.12195 10.9035 7.48757 10.9035 9.37622V11.0033C10.9034 11.0746 10.8893 11.1452 10.8619 11.2111C10.8345 11.2769 10.7945 11.3367 10.744 11.3871C10.6935 11.4375 10.6336 11.4774 10.5677 11.5046C10.5018 11.5318 10.4311 11.5457 10.3598 11.5456H4.93866C4.86736 11.5457 4.79674 11.5318 4.73083 11.5046C4.66492 11.4773 4.60502 11.4374 4.55454 11.3871C4.50406 11.3367 4.464 11.2769 4.43664 11.2111C4.40928 11.1452 4.39516 11.0746 4.39508 11.0033V9.37622C4.39508 7.48757 5.7587 6.12195 7.64928 6.12195Z" fill="#E69B6C"/>
<path d="M10.9389 10.4608C10.4027 10.4608 10.1145 10.271 9.88293 10.1184C9.70028 9.99794 9.5796 9.91845 9.29275 9.91845C9.00589 9.91845 8.88521 9.99794 8.70256 10.1184C8.471 10.271 8.18303 10.4608 7.64657 10.4608C7.11012 10.4608 6.82275 10.2707 6.59126 10.1182C6.40927 9.99794 6.28882 9.91845 6.00293 9.91845C5.71704 9.91845 5.5965 9.99794 5.41452 10.1182C5.18325 10.2707 4.89499 10.4608 4.35972 10.4608C4.09996 10.4608 3.88977 10.218 3.88977 9.91845C3.88977 9.6189 4.10018 9.37613 4.35972 9.37613C4.64561 9.37613 4.76585 9.29664 4.94783 9.17641C5.1791 9.02389 5.46736 8.83374 6.00293 8.83374C6.53849 8.83374 6.82675 9.02389 7.05795 9.17641C7.24015 9.29664 7.36039 9.37613 7.64657 9.37613C7.93276 9.37613 8.05411 9.29664 8.23676 9.17619C8.46825 9.02359 8.75629 8.83374 9.29275 8.83374C9.8292 8.83374 10.1172 9.02359 10.3487 9.17619C10.5314 9.29664 10.6521 9.37613 10.9389 9.37613C11.1987 9.37613 11.4089 9.61897 11.4089 9.91845C11.4089 10.2179 11.1985 10.4608 10.9389 10.4608Z" fill="#85CCAB"/>
<path d="M7.64928 6.12195C9.53978 6.12195 10.9035 7.48757 10.9035 9.37622V11.0033C10.9034 11.0746 10.8893 11.1452 10.8619 11.2111C10.8345 11.2769 10.7945 11.3367 10.744 11.3871C10.6935 11.4375 10.6336 11.4774 10.5677 11.5046C10.5018 11.5318 10.4311 11.5457 10.3598 11.5456H4.93866C4.86736 11.5457 4.79674 11.5318 4.73083 11.5046C4.66492 11.4773 4.60502 11.4374 4.55454 11.3871C4.50406 11.3367 4.464 11.2769 4.43664 11.2111C4.40928 11.1452 4.39516 11.0746 4.39508 11.0033V9.37622C4.39508 7.48757 5.7587 6.12195 7.64928 6.12195Z" fill="#E69B6C"/>
<path d="M10.9035 11.0034C10.903 11.1471 10.8458 11.2848 10.7441 11.3864C10.6425 11.488 10.5048 11.5453 10.3611 11.5457H4.9374C4.79369 11.5453 4.65599 11.488 4.55438 11.3864C4.45276 11.2848 4.39549 11.1471 4.39508 11.0034V9.3763C4.39508 8.2861 4.85064 7.36408 5.60485 6.78918C5.1818 7.3315 4.93769 8.03658 4.93769 8.83391C4.93844 8.94473 4.94752 9.05533 4.96486 9.16478C5.01727 9.52083 5.16117 9.85719 5.38249 10.141C5.44168 10.2201 5.50694 10.2946 5.57768 10.3636C5.77735 10.5665 6.01543 10.7276 6.27804 10.8375C6.54065 10.9474 6.82251 11.0039 7.10718 11.0036L10.9035 11.0034Z" fill="#E28044"/>
<path d="M10.9389 10.4608C10.4027 10.4608 10.1145 10.271 9.88293 10.1184C9.70028 9.99794 9.5796 9.91845 9.29275 9.91845C9.00589 9.91845 8.88521 9.99794 8.70256 10.1184C8.471 10.271 8.18303 10.4608 7.64657 10.4608C7.11012 10.4608 6.82275 10.2707 6.59126 10.1182C6.40927 9.99794 6.28882 9.91845 6.00293 9.91845C5.71704 9.91845 5.5965 9.99794 5.41452 10.1182C5.18325 10.2707 4.89499 10.4608 4.35972 10.4608C4.09996 10.4608 3.88977 10.218 3.88977 9.91845C3.88977 9.6189 4.10018 9.37613 4.35972 9.37613C4.64561 9.37613 4.76585 9.29664 4.94783 9.17641C5.1791 9.02389 5.46736 8.83374 6.00293 8.83374C6.53849 8.83374 6.82675 9.02389 7.05795 9.17641C7.24015 9.29664 7.36039 9.37613 7.64657 9.37613C7.93276 9.37613 8.05411 9.29664 8.23676 9.17619C8.46825 9.02359 8.75629 8.83374 9.29275 8.83374C9.8292 8.83374 10.1172 9.02359 10.3487 9.17619C10.5314 9.29664 10.6521 9.37613 10.9389 9.37613C11.1987 9.37613 11.4089 9.61897 11.4089 9.91845C11.4089 10.2179 11.1985 10.4608 10.9389 10.4608Z" fill="#85CCAB"/>
<path d="M5.38212 10.1409C5.0932 10.3453 4.74891 10.457 4.39502 10.461H4.35702C4.10215 10.461 3.89062 10.2169 3.89062 9.91858C3.89062 9.6203 4.10215 9.37627 4.35702 9.37627H4.39502C4.6553 9.37077 4.77464 9.28943 4.94824 9.17587C4.95366 9.17046 4.95908 9.17046 4.9645 9.16504C5.01695 9.52099 5.16085 9.85724 5.38212 10.1409Z" fill="#63C397"/>
<path d="M21.4253 27.8547C20.7999 28.1894 20.101 28.3629 19.3917 28.3594H13.6532C12.7487 28.355 11.8677 28.0708 11.1312 27.5458L11.527 26.4828C12.1174 26.994 12.8723 27.2752 13.6532 27.2746H19.3914C20.1007 27.2755 20.7906 27.043 21.3548 26.613C21.3277 27.0282 21.3513 27.4452 21.4253 27.8547Z" fill="#EF444E"/>
<path d="M22.3038 25.4736C22.033 26.0143 21.6173 26.469 21.1029 26.787C20.5886 27.105 19.996 27.2737 19.3913 27.2742H13.6531C13.0485 27.2734 12.4559 27.1046 11.9417 26.7866C11.4274 26.4687 11.0116 26.0141 10.7406 25.4736C10.6639 25.3208 10.6275 25.1509 10.6348 24.98C10.6422 24.8091 10.6932 24.643 10.7828 24.4974C10.8725 24.3517 10.9979 24.2314 11.1471 24.1479C11.2963 24.0644 11.4644 24.0203 11.6354 24.02L21.5174 24.0254C21.6782 24.0435 21.8322 24.1001 21.9664 24.1905C22.1006 24.2808 22.211 24.4023 22.2882 24.5444C22.3654 24.6866 22.4072 24.8453 22.4099 25.0071C22.4126 25.1689 22.3762 25.3289 22.3038 25.4736Z" fill="#7C737D"/>
<path d="M13.8104 24.02H7.30203V18.2024C7.30203 18.163 7.31767 18.1253 7.34551 18.0974C7.37335 18.0696 7.4111 18.0539 7.45047 18.0539H13.662C13.7014 18.0539 13.7391 18.0696 13.7669 18.0974C13.7948 18.1253 13.8104 18.163 13.8104 18.2024V24.02Z" fill="#E69B6C"/>
<path d="M13.8104 22.3931V24.0202H7.302V19.1389C7.30284 18.8515 7.4174 18.5761 7.62064 18.3728C7.82388 18.1696 8.09929 18.055 8.38671 18.0542C8.38671 18.624 8.49894 19.1882 8.71699 19.7146C8.93504 20.241 9.25464 20.7194 9.65754 21.1223C10.4712 21.936 11.5749 22.3931 12.7256 22.3931H13.8104Z" fill="#E28044"/>
<path d="M27.9119 8.02039C27.9144 8.38454 27.8798 8.748 27.8088 9.10517C27.5702 10.3526 26.876 11.302 25.7424 11.6597C25.391 11.7673 25.0252 11.8204 24.6577 11.817V8.02039H27.9119Z" fill="#FCD7CA"/>
<path d="M34.9628 17.5116C34.9631 17.7254 34.9212 17.9371 34.8396 18.1346C34.7579 18.3322 34.638 18.5116 34.4869 18.6628C34.3358 18.8139 34.1563 18.9338 33.9587 19.0154C33.7612 19.0971 33.5495 19.139 33.3357 19.1387H31.7086C31.2771 19.1387 30.8632 18.9673 30.5581 18.6622C30.253 18.357 30.0815 17.9432 30.0815 17.5116C30.0815 17.0801 30.253 16.6662 30.5581 16.3611C30.8632 16.0559 31.2771 15.8845 31.7086 15.8845H33.3357C33.7671 15.8852 34.1805 16.0569 34.4855 16.3618C34.7905 16.6668 34.9621 17.0803 34.9628 17.5116Z" fill="#2FD9E7"/>
<path d="M34.7241 18.3579C34.5805 18.5974 34.3769 18.7954 34.1334 18.9324C33.8899 19.0693 33.615 19.1405 33.3357 19.1389H31.7086C31.3537 19.139 31.0085 19.0231 30.7257 18.8088C30.4429 18.5945 30.2379 18.2936 30.142 17.9519C30.0461 17.6103 30.0647 17.2466 30.1947 16.9165C30.3248 16.5863 30.5593 16.3077 30.8625 16.1233C30.7118 16.3698 30.6295 16.652 30.6241 16.9409C30.6188 17.2297 30.6905 17.5148 30.8319 17.7668C30.9733 18.0187 31.1794 18.2284 31.4288 18.3742C31.6782 18.52 31.962 18.5968 32.2509 18.5965H33.878C34.1768 18.5973 34.4699 18.5147 34.7241 18.3579Z" fill="#0DCEDE"/>
<path d="M5.13251 22.9353H3.73794C3.66619 22.9362 3.59498 22.9228 3.52844 22.8959C3.4619 22.869 3.40136 22.8292 3.35032 22.7787C3.29928 22.7283 3.25876 22.6682 3.23111 22.602C3.20345 22.5358 3.18921 22.4647 3.18921 22.393C3.18921 22.3212 3.20345 22.2502 3.23111 22.1839C3.25876 22.1177 3.29928 22.0577 3.35032 22.0072C3.40136 21.9568 3.4619 21.9169 3.52844 21.8901C3.59498 21.8632 3.66619 21.8498 3.73794 21.8506H5.13251C5.20427 21.8498 5.27548 21.8632 5.34202 21.8901C5.40856 21.9169 5.4691 21.9568 5.52014 22.0072C5.57118 22.0577 5.6117 22.1177 5.63935 22.1839C5.66701 22.2502 5.68125 22.3212 5.68125 22.393C5.68125 22.4647 5.66701 22.5358 5.63935 22.602C5.6117 22.6682 5.57118 22.7283 5.52014 22.7787C5.4691 22.8292 5.40856 22.869 5.34202 22.8959C5.27548 22.9228 5.20427 22.9362 5.13251 22.9353Z" fill="#E69B6C"/>
<path d="M5.13246 20.7659H2.80807C2.73632 20.7667 2.66511 20.7533 2.59857 20.7264C2.53203 20.6996 2.47149 20.6598 2.42045 20.6093C2.36941 20.5589 2.32889 20.4988 2.30123 20.4326C2.27358 20.3664 2.25934 20.2953 2.25934 20.2235C2.25934 20.1518 2.27358 20.0807 2.30123 20.0145C2.32889 19.9483 2.36941 19.8882 2.42045 19.8378C2.47149 19.7873 2.53203 19.7475 2.59857 19.7206C2.66511 19.6938 2.73632 19.6804 2.80807 19.6812H5.13246C5.20421 19.6804 5.27542 19.6938 5.34196 19.7206C5.4085 19.7475 5.46904 19.7873 5.52008 19.8378C5.57112 19.8882 5.61164 19.9483 5.6393 20.0145C5.66695 20.0807 5.68119 20.1518 5.68119 20.2235C5.68119 20.2953 5.66695 20.3664 5.6393 20.4326C5.61164 20.4988 5.57112 20.5589 5.52008 20.6093C5.46904 20.6598 5.4085 20.6996 5.34196 20.7264C5.27542 20.7533 5.20421 20.7667 5.13246 20.7659Z" fill="#E69B6C"/>
<path d="M5.13258 18.5965H1.87839C1.80663 18.5973 1.73542 18.5839 1.66888 18.557C1.60234 18.5301 1.5418 18.4903 1.49076 18.4399C1.43972 18.3894 1.3992 18.3294 1.37155 18.2631C1.34389 18.1969 1.32965 18.1259 1.32965 18.0541C1.32965 17.9823 1.34389 17.9113 1.37155 17.8451C1.3992 17.7789 1.43972 17.7188 1.49076 17.6683C1.5418 17.6179 1.60234 17.5781 1.66888 17.5512C1.73542 17.5243 1.80663 17.5109 1.87839 17.5118H5.13258C5.20434 17.5109 5.27555 17.5243 5.34209 17.5512C5.40862 17.5781 5.46917 17.6179 5.5202 17.6683C5.57124 17.7188 5.61176 17.7789 5.63942 17.8451C5.66708 17.9113 5.68132 17.9823 5.68132 18.0541C5.68132 18.1259 5.66708 18.1969 5.63942 18.2631C5.61176 18.3294 5.57124 18.3894 5.5202 18.4399C5.46917 18.4903 5.40862 18.5301 5.34209 18.557C5.27555 18.5839 5.20434 18.5973 5.13258 18.5965Z" fill="#E69B6C"/>
<path d="M23.5621 12.2073C23.8728 12.5358 24.0737 12.9528 24.137 13.4006H24.121C24.0376 13.4005 23.9543 13.3951 23.8716 13.3843C23.6681 13.3526 23.467 13.3073 23.2695 13.2487C22.4375 13.018 21.6778 12.5794 21.0621 11.9741C21.0349 11.947 21.0027 11.9199 20.9753 11.8873C21.3007 11.6107 21.5882 11.3826 21.8269 11.204C22.3105 11.6806 22.9077 12.0259 23.5621 12.2073Z" fill="#FECD55"/>
<path d="M27.9119 8.02039C27.9144 8.38454 27.8798 8.748 27.8088 9.10517C27.2608 9.10517 26.7352 9.32288 26.3477 9.7104C25.9601 10.0979 25.7424 10.6235 25.7424 11.1716V11.6597C25.391 11.7673 25.0252 11.8204 24.6577 11.817V8.02039H27.9119Z" fill="#FAC1AD"/>
<path d="M28.7093 8.02031H24.6578V11.7705C24.6582 11.8485 24.6417 11.9256 24.6096 11.9966C24.5775 12.0677 24.5305 12.131 24.4718 12.1823C24.4131 12.2335 24.344 12.2716 24.2693 12.2938C24.1946 12.3161 24.116 12.322 24.0388 12.3112C23.878 12.2861 23.7189 12.2514 23.5622 12.2073C22.9078 12.0259 22.3104 11.6806 21.8267 11.2039C21.3822 10.7768 21.0416 10.2535 20.831 9.67419C20.6204 9.09486 20.5455 8.47496 20.612 7.86215C20.7184 6.84971 21.2009 5.91408 21.964 5.2403C22.7272 4.56653 23.7154 4.20369 24.7332 4.22355C25.751 4.24341 26.7243 4.64453 27.4606 5.34756C28.1969 6.0506 28.6425 7.00435 28.7093 8.02016V8.02031Z" fill="#F16069"/>
<path d="M24.6469 11.1226C24.6524 11.1226 24.6524 11.1226 24.6578 11.128V11.768C24.6582 11.8459 24.6418 11.9231 24.6098 11.9942C24.5778 12.0653 24.5309 12.1287 24.4723 12.1801C24.4137 12.2316 24.3447 12.2698 24.27 12.2923C24.1954 12.3147 24.1167 12.3209 24.0395 12.3104C23.8787 12.2844 23.7194 12.25 23.5622 12.2073C22.9077 12.026 22.3104 11.6806 21.8266 11.204C21.3921 10.7846 21.0568 10.2733 20.8453 9.70752C20.6339 9.14177 20.5517 8.53589 20.6048 7.93426C20.6578 7.33263 20.8447 6.75047 21.1518 6.23043C21.459 5.71039 21.8785 5.26562 22.3798 4.92871C21.8398 5.7169 21.5968 6.67107 21.6942 7.62153C21.7915 8.57199 22.2228 9.45712 22.9114 10.1195C23.3951 10.5961 23.9924 10.9413 24.6469 11.1226Z" fill="#EF444E"/>
<path d="M18.6917 32.1558H14.3527V29.5924C14.3527 29.553 14.3683 29.5153 14.3961 29.4874C14.424 29.4596 14.4617 29.444 14.5011 29.444H18.5432C18.5826 29.444 18.6203 29.4596 18.6482 29.4874C18.676 29.5153 18.6917 29.553 18.6917 29.5924V32.1558Z" fill="#2FD9E7"/>
<path d="M18.6917 31.6133V32.1557H14.3528V30.5286C14.3533 30.32 14.414 30.1159 14.5275 29.9409C14.641 29.7658 14.8025 29.6272 14.9928 29.5415C14.9273 29.6805 14.8939 29.8325 14.8951 29.9862C14.8951 30.4178 15.0665 30.8316 15.3717 31.1368C15.6768 31.4419 16.0907 31.6133 16.5222 31.6133H18.6917Z" fill="#0DCEDE"/>
<path d="M28.9966 8.56253H24.6577C24.586 8.56337 24.5148 8.54996 24.4482 8.52308C24.3817 8.4962 24.3212 8.45638 24.2701 8.40594C24.2191 8.35549 24.1786 8.29542 24.1509 8.2292C24.1232 8.16298 24.109 8.09194 24.109 8.02017C24.109 7.94841 24.1232 7.87736 24.1509 7.81115C24.1786 7.74493 24.2191 7.68485 24.2701 7.63441C24.3212 7.58396 24.3817 7.54415 24.4482 7.51727C24.5148 7.49039 24.586 7.47698 24.6577 7.47782H28.9966C29.0684 7.47698 29.1396 7.49039 29.2062 7.51727C29.2727 7.54415 29.3332 7.58396 29.3843 7.63441C29.4353 7.68485 29.4758 7.74493 29.5035 7.81115C29.5311 7.87736 29.5454 7.94841 29.5454 8.02017C29.5454 8.09194 29.5311 8.16298 29.5035 8.2292C29.4758 8.29542 29.4353 8.35549 29.3843 8.40594C29.3332 8.45638 29.2727 8.4962 29.2062 8.52308C29.1396 8.54996 29.0684 8.56337 28.9966 8.56253Z" fill="#FFE589"/>
<path d="M13.8105 22.9353H6.75967C6.68792 22.9345 6.61671 22.9479 6.55017 22.9748C6.48363 23.0017 6.42309 23.0415 6.37205 23.0919C6.32101 23.1424 6.28049 23.2024 6.25283 23.2687C6.22518 23.3349 6.21094 23.4059 6.21094 23.4777C6.21094 23.5495 6.22518 23.6205 6.25283 23.6867C6.28049 23.7529 6.32101 23.813 6.37205 23.8635C6.42309 23.9139 6.48363 23.9537 6.55017 23.9806C6.61671 24.0075 6.68792 24.0209 6.75967 24.02H13.8105V22.9353Z" fill="#2FD9E7"/>
<path d="M28.9966 8.56253H24.6577C24.586 8.56337 24.5148 8.54996 24.4482 8.52308C24.3817 8.4962 24.3212 8.45638 24.2701 8.40594C24.2191 8.35549 24.1786 8.29542 24.1509 8.2292C24.1232 8.16298 24.109 8.09194 24.109 8.02017C24.109 7.94841 24.1232 7.87736 24.1509 7.81115C24.1786 7.74493 24.2191 7.68485 24.2701 7.63441C24.3212 7.58396 24.3817 7.54415 24.4482 7.51727C24.5148 7.49039 24.586 7.47698 24.6577 7.47782H28.9966C29.0684 7.47698 29.1396 7.49039 29.2062 7.51727C29.2727 7.54415 29.3332 7.58396 29.3843 7.63441C29.4353 7.68485 29.4758 7.74493 29.5035 7.81115C29.5311 7.87736 29.5454 7.94841 29.5454 8.02017C29.5454 8.09194 29.5311 8.16298 29.5035 8.2292C29.4758 8.29542 29.4353 8.35549 29.3843 8.40594C29.3332 8.45638 29.2727 8.4962 29.2062 8.52308C29.1396 8.54996 29.0684 8.56337 28.9966 8.56253Z" fill="#FFE589"/>
<path d="M10.3338 29.677L9.5311 31.8194C9.20174 31.8552 8.87133 31.7619 8.60938 31.5591C9.5043 31.5482 9.99244 29.5415 9.99244 29.5415L10.3338 29.677Z" fill="#FEC845"/>
</svg>
