<svg width="48" height="48" viewBox="0 0 48 48" fill="none" xmlns="http://www.w3.org/2000/svg">
<path fill-rule="evenodd" clip-rule="evenodd" d="M46.5 29.0759V36.8426C46.5 37.6171 45.8683 38.2488 45.0938 38.2488H2.90625C2.13169 38.2488 1.5 37.6171 1.5 36.8426V29.0759C4.00706 28.7437 5.94122 26.5979 5.94122 23.9999C5.94122 21.402 4.00706 19.2562 1.5 18.9239V11.1572C1.5 10.3827 2.13169 9.75098 2.90625 9.75098H45.0938C45.8682 9.75098 46.5 10.3827 46.5 11.1572V18.9239C43.9929 19.2562 42.0588 21.4019 42.0588 23.9999C42.0588 26.5979 43.9929 28.7437 46.5 29.0759Z" fill="#FC5692"/>
<path fill-rule="evenodd" clip-rule="evenodd" d="M46.5 29.076V36.8426C46.5 37.6172 45.8683 38.2488 45.0938 38.2488H2.90625C2.13169 38.2488 1.5 37.6172 1.5 36.8426V35.4363H41.3437C42.1181 35.4363 42.7499 34.8046 42.7499 34.03V26.5707C43.5287 27.9099 44.8973 28.8635 46.5 29.076ZM1.67812 18.9511C1.61906 18.9411 1.55981 18.9318 1.50009 18.9239V18.6166C1.56337 18.7256 1.62272 18.8372 1.67812 18.9511ZM42.7499 9.7511H45.0938C45.8682 9.7511 46.5 10.3828 46.5 11.1573V18.924C44.8973 19.1364 43.5287 20.0901 42.7499 21.4293C42.7499 17.5365 42.7499 13.6438 42.7499 9.7511Z" fill="#FB3580"/>
<path fill-rule="evenodd" clip-rule="evenodd" d="M16.857 38.2488H14.607V34.9041C14.607 34.2829 15.1107 33.7791 15.732 33.7791C16.3533 33.7791 16.857 34.2829 16.857 34.9041V38.2488ZM14.6069 9.7511H16.8569V13.0959C16.8569 13.7172 16.3532 14.2209 15.7319 14.2209C15.1107 14.2209 14.6069 13.7172 14.6069 13.0959V9.7511ZM14.6069 26.5198C14.6069 25.8985 15.1107 25.3948 15.7319 25.3948C16.3532 25.3948 16.8569 25.8985 16.8569 26.5198V29.8646C16.8569 30.4859 16.3532 30.9896 15.7319 30.9896C15.1107 30.9896 14.6069 30.4859 14.6069 29.8646V26.5198ZM14.6069 18.1354C14.6069 17.5142 15.1107 17.0104 15.7319 17.0104C16.3532 17.0104 16.8569 17.5142 16.8569 18.1354V21.4802C16.8569 22.1014 16.3532 22.6052 15.7319 22.6052C15.1107 22.6052 14.6069 22.1014 14.6069 21.4802V18.1354Z" fill="#F4F8F8"/>
<path fill-rule="evenodd" clip-rule="evenodd" d="M25.1907 16.0931C26.1978 16.0931 27.1096 16.5014 27.7696 17.1615C28.4297 17.8215 28.838 18.7334 28.838 19.7404C28.838 20.7475 28.4297 21.6593 27.7696 22.3193C27.1096 22.9794 26.1977 23.3876 25.1907 23.3876C24.1837 23.3876 23.2719 22.9794 22.6118 22.3193C21.9517 21.6592 21.5435 20.7474 21.5435 19.7404C21.5435 18.7333 21.9517 17.8215 22.6118 17.1615C23.2719 16.5014 24.1837 16.0931 25.1907 16.0931ZM35.1462 24.6122C36.1533 24.6122 37.0651 25.0205 37.7251 25.6806C38.3852 26.3407 38.7935 27.2525 38.7935 28.2595C38.7935 29.2666 38.3852 30.1784 37.7251 30.8384C37.0651 31.4985 36.1532 31.9068 35.1462 31.9068C34.1392 31.9068 33.2273 31.4985 32.5672 30.8384C31.9071 30.1784 31.4989 29.2665 31.4989 28.2595C31.4989 27.2526 31.9071 26.3407 32.5672 25.6806C33.2273 25.0205 34.1391 24.6122 35.1462 24.6122ZM36.1342 27.2713C35.8815 27.0186 35.5321 26.8622 35.1462 26.8622C34.7602 26.8622 34.4108 27.0186 34.1581 27.2713C33.9053 27.5241 33.749 27.8735 33.749 28.2595C33.749 28.6454 33.9053 28.9947 34.1581 29.2475C34.4108 29.5002 34.7602 29.6566 35.1462 29.6566C35.5322 29.6566 35.8816 29.5002 36.1342 29.2475C36.387 28.9947 36.5434 28.6453 36.5434 28.2595C36.5435 27.8735 36.3871 27.5242 36.1342 27.2713ZM33.4734 16.9941L24.9604 29.578C24.6133 30.0925 24.7491 30.7911 25.2636 31.1381C25.7781 31.4852 26.4766 31.3495 26.8236 30.835L35.3367 18.251C35.6838 17.7365 35.548 17.038 35.0335 16.6909C34.519 16.3437 33.8205 16.4795 33.4734 16.9941ZM26.1788 18.7524C25.9261 18.4996 25.5767 18.3432 25.1908 18.3432C24.8048 18.3432 24.4554 18.4996 24.2027 18.7524C23.9499 19.0051 23.7936 19.3545 23.7936 19.7405C23.7936 20.1265 23.9499 20.4758 24.2027 20.7286C24.4554 20.9814 24.8048 21.1377 25.1908 21.1377C25.5768 21.1377 25.9262 20.9814 26.1788 20.7286C26.4316 20.4759 26.588 20.1265 26.588 19.7405C26.588 19.3544 26.4316 19.0051 26.1788 18.7524Z" fill="#FCDD2E"/>
</svg>
