<svg width="16" height="16" viewBox="0 0 16 16" fill="none" xmlns="http://www.w3.org/2000/svg">
<g clipPath="url(#clip0_3732_166606)">
<path d="M16 6.33666L15.9875 1.67628C15.9851 0.761294 15.2387 0.0148695 14.3237 0.0124343L9.66334 8.47279e-06C9.04464 -0.00167745 8.4389 0.248307 8.00137 0.685802L0.410837 8.27634C-0.136961 8.82414 -0.13693 9.71542 0.410837 10.2632L5.73678 15.5892C6.28454 16.1369 7.17587 16.137 7.72366 15.5892L15.3142 7.99863C15.7517 7.5611 16.0016 6.95533 16 6.33666ZM12.9201 4.16944C12.6197 4.16944 12.3473 4.04724 12.15 3.84996C11.9528 3.65268 11.8306 3.38024 11.8306 3.07987C11.8306 2.78883 11.9439 2.51524 12.1497 2.30944C12.3555 2.10363 12.6291 1.99033 12.9201 1.99033C13.5209 1.99033 14.0097 2.47912 14.0097 3.0799C14.0097 3.37091 13.8964 3.64453 13.6906 3.85033C13.4848 4.05611 13.2112 4.16944 12.9201 4.16944Z" fill="#FF4F22"/>
<path d="M14.0096 3.07969C14.0096 3.3707 13.8963 3.64432 13.6905 3.85012C13.4847 4.05593 13.2111 4.16923 12.9201 4.16926C12.6196 4.16926 12.3472 4.04706 12.15 3.84978L3.07373 12.926L5.7367 15.589C6.28447 16.1367 7.17579 16.1368 7.72359 15.589L15.3141 7.99842C15.7516 7.56089 16.0016 6.95515 15.9999 6.33645L15.9875 1.67607C15.9863 1.21859 15.7991 0.803233 15.4978 0.501953L13.6901 2.3096C13.8874 2.50692 14.0096 2.77932 14.0096 3.07969Z" fill="#DB4D29"/>
<path d="M6.39879 12.2613C5.84949 11.712 5.84949 10.8182 6.39879 10.2689C6.94809 9.71961 7.84187 9.71961 8.39117 10.2689C8.94047 10.8182 8.94047 11.712 8.39117 12.2613C7.84187 12.8106 6.94809 12.8106 6.39879 12.2613ZM7.72889 10.9312C7.54478 10.7471 7.24518 10.7471 7.06107 10.9312C6.87697 11.1153 6.87697 11.4149 7.06107 11.599C7.24518 11.7831 7.54478 11.7831 7.72889 11.599C7.91299 11.4149 7.91299 11.1153 7.72889 10.9312Z" fill="white"/>
<path d="M6.39879 6.94049C5.84949 6.39119 5.84949 5.4974 6.39879 4.94811C6.94809 4.39881 7.84187 4.39881 8.39117 4.94811C8.94047 5.4974 8.94047 6.39119 8.39117 6.94049C7.84187 7.48978 6.94809 7.48978 6.39879 6.94049ZM7.72889 5.61039C7.54478 5.42628 7.24518 5.42628 7.06107 5.61039C6.87697 5.7945 6.87697 6.09409 7.06107 6.2782C7.24518 6.46231 7.54478 6.46231 7.72889 6.2782C7.91299 6.09409 7.91299 5.7945 7.72889 5.61039Z" fill="white"/>
<path d="M3.64545 8.9357C3.56072 8.85097 3.5083 8.73386 3.5083 8.60454C3.5083 8.34591 3.71798 8.13623 3.97661 8.13623H10.8129C11.0716 8.13623 11.2813 8.34591 11.2813 8.60454C11.2813 8.86317 11.0716 9.07285 10.8129 9.07285H3.97661C3.8473 9.07285 3.73022 9.02043 3.64545 8.9357Z" fill="white"/>
<path d="M10.8132 8.13623H7.86338L6.92676 9.07285H10.8132C11.0719 9.07285 11.2815 8.86317 11.2815 8.60454C11.2815 8.34594 11.0719 8.13623 10.8132 8.13623Z" fill="white"/>
</g>
<defs>
<clipPath id="clip0_3732_166606">
<rect width="16" height="16" fill="white"/>
</clipPath>
</defs>
</svg>
