<svg width="25" height="24" viewBox="0 0 25 24" fill="none" xmlns="http://www.w3.org/2000/svg">
<g id="discount (2) 1" clipPath="url(#clip0_107_4792)">
<g id="Group">
<path id="Vector" d="M12.5 0C12.3007 0 12.1025 0.00510937 11.9056 0.0151875L1.56479 7.96837C1.20873 9.07655 1.01575 10.2578 1.01575 11.4843C1.01575 17.8269 6.15747 22.9687 12.5001 22.9687C18.8427 22.9687 23.9844 17.8269 23.9844 11.4843C23.9844 5.14172 18.8426 0 12.5 0Z" fill="#FFDD40"/>
<g id="Group_2">
<path id="Vector_2" d="M22.9222 16.2045L16.0743 4.34375C16.3924 5.17756 16.5672 6.08155 16.5672 7.02575V21.5595C16.5672 22.0712 16.4086 22.5464 16.1384 22.9391L22.0289 19.5382C23.1943 18.8654 23.595 17.3699 22.9222 16.2045Z" fill="#5C5C87"/>
</g>
<path id="Vector_3" d="M21.4487 19.7593C21.1376 19.6606 21.0983 19.3932 21.1091 19.2178C21.1144 19.1309 21.0606 19.0494 20.9782 19.0216C20.733 18.939 20.6767 18.7438 20.6704 18.6029C20.6661 18.509 20.5998 18.43 20.5074 18.4123C17.5888 17.8536 16.8356 15.2886 16.6885 14.6274C16.6737 14.5608 16.6264 14.5088 16.5657 14.4854V21.5598C16.5657 22.0715 16.407 22.5467 16.1368 22.9394L21.5411 19.8193C21.5167 19.7922 21.4853 19.7709 21.4487 19.7593Z" fill="#41416B"/>
<g id="Group_3">
<path id="Vector_4" d="M21.8422 16.8273L16.5665 7.68945V21.2523L21.4051 18.4587C21.9754 18.1295 22.1715 17.3976 21.8422 16.8273Z" fill="#41416B"/>
</g>
<path id="Vector_5" d="M20.6712 18.6029C20.667 18.509 20.6006 18.43 20.5083 18.4123C17.5897 17.8536 16.8365 15.2886 16.6894 14.6274C16.6746 14.5608 16.6272 14.5088 16.5665 14.4854V21.2529L20.7412 18.8427C20.6915 18.7636 20.6745 18.676 20.6712 18.6029Z" fill="#35355E"/>
<g id="Group_4">
<g id="Group_5">
<path id="Vector_6" d="M16.164 21.9035C16.034 21.9035 15.9075 21.8365 15.8371 21.7162C15.7317 21.5359 15.7923 21.3042 15.9726 21.1987L21.2124 18.1326C21.604 17.9064 21.738 17.4064 21.513 17.0168L15.8364 7.22827C15.7316 7.04757 15.7931 6.8161 15.9738 6.71129C16.1545 6.60643 16.386 6.66802 16.4908 6.84873L22.1678 16.6379C22.6017 17.3894 22.3435 18.353 21.5926 18.7866L16.3546 21.8517C16.2946 21.8868 16.2288 21.9035 16.164 21.9035Z" fill="#35355E"/>
</g>
</g>
<path id="Vector_7" d="M20.9773 19.0212C20.7321 18.9385 20.6758 18.7433 20.6695 18.6025C20.6674 18.5555 20.6497 18.5122 20.621 18.4785L15.9725 21.1986C15.7923 21.3041 15.7316 21.5358 15.8371 21.7161C15.9075 21.8364 16.034 21.9034 16.1639 21.9034C16.2288 21.9034 16.2946 21.8867 16.3546 21.8516L21.0713 19.0915C21.0484 19.0596 21.0162 19.0343 20.9773 19.0212Z" fill="#28284C"/>
<path id="Vector_8" d="M11.9073 0.015625C11.7344 0.0244375 11.5626 0.0375156 11.3918 0.0539219L11.392 0.0540625L10.5377 0.168438V0.168016C6.29992 0.898422 2.85723 3.9513 1.56653 7.96881V21.5599C1.56653 22.9057 2.66129 24.0004 4.00698 24.0004H14.22C15.5657 24.0004 16.6604 22.9057 16.6604 21.56V7.0262C16.6604 3.85136 14.6897 1.12834 11.9073 0.015625ZM9.11345 5.92562C8.317 5.92562 7.67134 5.27997 7.67134 4.48356C7.67134 3.68711 8.317 3.04145 9.11345 3.04145C9.9099 3.04145 10.5556 3.68711 10.5556 4.48356C10.5556 5.27997 9.9099 5.92562 9.11345 5.92562Z" fill="#FF7186"/>
<path id="Vector_9" d="M14.3756 23.9949C14.3595 23.9606 14.3351 23.93 14.3019 23.9073C14.05 23.7355 14.0707 23.4913 14.1277 23.3232C14.1611 23.2246 14.1247 23.1132 14.0353 23.0596C13.8145 22.9273 13.7899 22.693 13.8025 22.5361C13.8104 22.4386 13.7511 22.3495 13.6605 22.3127C12.3773 21.7908 12.2549 20.6629 12.2711 20.1459C12.2754 20.0082 12.1562 19.9006 12.0191 19.914C9.66789 20.1446 9.77279 17.9235 9.86387 17.2197C9.87733 17.1156 9.81737 17.0179 9.72011 16.9783C9.52797 16.9002 9.48217 16.6978 9.47134 16.5997C9.46712 16.5616 9.4539 16.5251 9.43154 16.494L8.83876 15.6677C8.80332 15.6183 8.74928 15.5859 8.68932 15.5759C8.55367 15.5531 8.48912 15.4775 8.45903 15.4019C8.41857 15.3003 8.30786 15.2452 8.20037 15.2654L7.17034 15.4591C7.12857 15.4669 7.08508 15.4634 7.04565 15.4475C5.54218 14.8414 6.18751 13.3121 6.4059 12.8821C6.44284 12.8093 6.43717 12.7222 6.39198 12.6542L6.21118 12.3823C6.17312 12.325 6.11115 12.2889 6.04276 12.2818C4.00398 12.0677 3.3992 10.5358 3.24118 9.94899C3.21076 9.83593 3.09915 9.76688 2.98347 9.78498C2.70573 9.82838 2.56262 9.65926 2.4932 9.52051C2.44942 9.43299 2.3552 9.38087 2.2585 9.39601C1.80297 9.46749 1.63998 9.20077 1.58814 9.06938C1.58242 9.05485 1.57487 9.0413 1.56653 9.02832V21.56C1.56667 22.9056 2.66143 24.0003 4.00712 24.0003H14.2201C14.2724 24.0003 14.3241 23.9981 14.3756 23.9949Z" fill="#FF4155"/>
<path id="Vector_10" d="M8.35762 4.01865C8.47879 4.33416 8.77547 4.53802 9.11339 4.53802H9.11348C9.3224 4.53798 9.49172 4.36862 9.49167 4.15974C9.49162 3.95087 9.32231 3.78155 9.11343 3.78155H9.11339C9.07692 3.78155 9.06801 3.75854 9.06379 3.74748L7.97995 0.924805C7.74698 1.0247 7.51786 1.1318 7.29309 1.24637L8.35762 4.01865Z" fill="#C8CEFC"/>
<path id="Vector_11" d="M15.4142 7.02536C15.4142 3.55113 12.5877 0.724609 9.11342 0.724609C8.85847 0.724609 8.60717 0.740266 8.36004 0.769844C6.3244 1.55725 4.56922 2.90762 3.28587 4.63056C2.98118 5.36927 2.81262 6.17795 2.81262 7.02541V21.5591C2.81262 22.2177 3.3484 22.7534 4.0069 22.7534H14.2199C14.8784 22.7534 15.4142 22.2177 15.4142 21.5591V7.02536ZM9.11337 5.92478C8.31692 5.92478 7.67126 5.27912 7.67126 4.48272C7.67126 3.68627 8.31692 3.04061 9.11337 3.04061C9.90983 3.04061 10.5555 3.68627 10.5555 4.48272C10.5555 5.27912 9.90983 5.92478 9.11337 5.92478Z" fill="#FF4155"/>
<path id="Vector_12" d="M13.8024 22.5353C13.8102 22.4378 13.751 22.3487 13.6604 22.3118C12.3771 21.79 12.2547 20.662 12.271 20.145C12.2753 20.0073 12.1561 19.8997 12.019 19.9131C9.66776 20.1438 9.77267 17.9226 9.86375 17.2189C9.8772 17.1147 9.81725 17.017 9.71998 16.9775C9.52784 16.8993 9.48204 16.697 9.47122 16.5989C9.467 16.5607 9.45378 16.5242 9.43142 16.4931L8.83864 15.6668C8.8032 15.6175 8.74915 15.585 8.6892 15.575C8.55354 15.5522 8.489 15.4766 8.4589 15.4011C8.41845 15.2995 8.30773 15.2444 8.20025 15.2646L7.17022 15.4582C7.12845 15.4661 7.08495 15.4626 7.04553 15.4467C5.54206 14.8405 6.18739 13.3113 6.40578 12.8812C6.44272 12.8084 6.43704 12.7213 6.39186 12.6533L6.21106 12.3814C6.173 12.3242 6.11103 12.2881 6.04264 12.2809C4.00386 12.0668 3.39908 10.5349 3.24106 9.94813C3.21064 9.83507 3.09903 9.76602 2.98334 9.78412C2.91945 9.7941 2.86301 9.79246 2.81262 9.7829V21.5592C2.81262 22.2177 3.3484 22.7534 4.0069 22.7534H13.8165C13.7986 22.6759 13.7973 22.5992 13.8024 22.5353Z" fill="#E80054"/>
<g id="Group_6">
<path id="Vector_13" d="M7.45395 20.0358C7.19712 19.928 7.07628 19.6325 7.18409 19.3756L10.0275 12.6003C10.1353 12.3435 10.4309 12.2226 10.6877 12.3305C10.9445 12.4382 11.0654 12.7338 10.9576 12.9906L8.11414 19.766C8.00689 20.0215 7.71204 20.1441 7.45395 20.0358Z" fill="#E3E7FC"/>
</g>
<g id="Group_7">
<path id="Vector_14" d="M7.10465 15.9042C6.13378 15.9042 5.34393 15.023 5.34393 13.9399C5.34393 12.8568 6.13378 11.9756 7.10465 11.9756C8.07553 11.9756 8.86537 12.8568 8.86537 13.9399C8.86537 15.023 8.07548 15.9042 7.10465 15.9042ZM7.10465 12.9842C6.68995 12.9842 6.35259 13.413 6.35259 13.9399C6.35259 14.4669 6.69 14.8955 7.10465 14.8955C7.51935 14.8955 7.85671 14.4668 7.85671 13.9399C7.85671 13.413 7.51931 12.9842 7.10465 12.9842Z" fill="#E3E7FC"/>
</g>
<g id="Group_8">
<path id="Vector_15" d="M10.9444 20.537C9.97356 20.537 9.18372 19.6558 9.18372 18.5727C9.18372 17.4896 9.97356 16.6084 10.9444 16.6084C11.9153 16.6084 12.7052 17.4896 12.7052 18.5727C12.7052 19.6558 11.9153 20.537 10.9444 20.537ZM10.9444 17.617C10.5297 17.617 10.1924 18.0457 10.1924 18.5726C10.1924 19.0996 10.5298 19.5283 10.9444 19.5283C11.3591 19.5283 11.6965 19.0996 11.6965 18.5726C11.6965 18.0458 11.3591 17.617 10.9444 17.617Z" fill="#E3E7FC"/>
</g>
<g id="Group_9">
<path id="Vector_16" d="M9.75586 7.91663H8.38617C8.17729 7.91663 8.00793 7.74727 8.00793 7.53839C8.00793 7.32952 8.17729 7.16016 8.38617 7.16016H9.75586C9.96473 7.16016 10.1341 7.32952 10.1341 7.53839C10.1341 7.74731 9.96473 7.91663 9.75586 7.91663Z" fill="#FF7186"/>
</g>
<g id="Group_10">
<path id="Vector_17" d="M10.8537 9.28284H7.28461C7.07573 9.28284 6.90637 9.11348 6.90637 8.9046C6.90637 8.69573 7.07573 8.52637 7.28461 8.52637H10.8537C11.0626 8.52637 11.2319 8.69573 11.2319 8.9046C11.2319 9.11348 11.0626 9.28284 10.8537 9.28284Z" fill="#FF7186"/>
</g>
<g id="Group_11">
<path id="Vector_18" d="M10.8537 10.649H7.28461C7.07573 10.649 6.90637 10.4797 6.90637 10.2708C6.90637 10.0619 7.07573 9.89258 7.28461 9.89258H10.8537C11.0626 9.89258 11.2319 10.0619 11.2319 10.2708C11.2319 10.4797 11.0626 10.649 10.8537 10.649Z" fill="#FF7186"/>
</g>
<path id="Vector_19" d="M15.7918 21.5592V7.02537C15.7918 3.51181 13.0645 0.623281 9.61581 0.365234C8.42973 0.672125 7.318 1.16366 6.31323 1.80753C7.14737 1.35819 8.10076 1.10286 9.11279 1.10286C12.3785 1.10286 15.0353 3.75969 15.0353 7.02537V21.5592C15.0353 22.0091 14.6692 22.3752 14.2193 22.3752H4.00623C3.55623 22.3752 3.19018 22.0091 3.19018 21.5592V7.02537C3.19018 5.43978 3.81662 3.99777 4.83489 2.93366C3.93803 3.73831 3.16843 4.68177 2.56014 5.73059C2.47745 6.14966 2.43372 6.5825 2.43372 7.02542V21.5592C2.43372 22.4263 3.13914 23.1317 4.00623 23.1317H14.2193C15.0863 23.1317 15.7918 22.4262 15.7918 21.5592Z" fill="#E80054"/>
<path id="Vector_20" d="M14.0346 23.0592C13.8137 22.9269 13.7892 22.6926 13.8018 22.5357C13.8066 22.4757 13.7859 22.4189 13.7482 22.3755H4.00628C3.55628 22.3755 3.19023 22.0094 3.19023 21.5595V9.8578C3.13961 9.80155 3.06245 9.77193 2.98272 9.7844C2.70498 9.8278 2.56187 9.65868 2.49245 9.51993C2.47797 9.49096 2.45753 9.46635 2.43372 9.44629V21.5595C2.43372 22.4266 3.13914 23.132 4.00623 23.132H14.1064C14.089 23.103 14.0651 23.0775 14.0346 23.0592Z" fill="#CC0053"/>
<path id="Vector_21" d="M10.5369 0.168086L9.16237 3.74779C9.15811 3.75885 9.14929 3.78187 9.11273 3.78187C8.90381 3.78187 8.7345 3.95123 8.7345 4.1601C8.7345 4.36898 8.90386 4.53834 9.11273 4.53834C9.4507 4.53834 9.74742 4.33448 9.86854 4.01896L11.3911 0.0537109C11.1031 0.0813203 10.8182 0.119617 10.5369 0.168086Z" fill="#E3E7FC"/>
</g>
</g>
<defs>
<clipPath id="clip0_107_4792">
<rect width="24" height="24" fill="white" transform="translate(0.5)"/>
</clipPath>
</defs>
</svg>
