<svg xmlns="http://www.w3.org/2000/svg" width="120" height="120" viewBox="0 0 120 120" fill="none">
  <path d="M107.498 18.5767C105.302 20.7734 101.74 20.7734 99.5434 18.5767C97.3467 16.38 97.3467 12.8185 99.5434 10.6218C101.74 8.42506 105.302 8.42506 107.498 10.6218C109.695 12.8185 109.695 16.38 107.498 18.5767Z" fill="#E4EFF8"/>
  <path d="M98.2332 91.4981C96.7642 92.9671 94.3989 92.9671 92.9299 91.4981L26.6386 25.2068C25.1696 23.7378 25.1696 21.3726 26.6386 19.9035L27.9644 18.5777C47.7347 -1.19257 79.7887 -1.19258 99.559 18.5777C119.329 38.348 119.329 70.402 99.559 90.1723L98.2332 91.4981Z" fill="#E4EFF8"/>
  <path d="M10.3125 103.125H109.688C113.323 103.125 116.25 106.052 116.25 109.687C116.25 113.323 113.323 116.25 109.688 116.25H10.3125C6.67688 116.25 3.75 113.323 3.75 109.687C3.75 106.052 6.67688 103.125 10.3125 103.125Z" fill="#FFC6A0"/>
  <path d="M103.619 8.97668C102.099 8.95429 100.633 9.54881 99.5581 10.6246C97.362 12.8212 97.362 16.3821 99.5581 18.5787C100.213 19.2304 101.018 19.7109 101.902 19.9777C101.303 17.9935 101.843 15.8406 103.308 14.3746C104.776 12.908 106.933 12.3689 108.918 12.972C108.65 12.0858 108.167 11.2794 107.512 10.6246C106.478 9.59008 105.082 8.99898 103.619 8.97668Z" fill="#C4DCF0"/>
  <path d="M105.016 54.3735C104.802 57.0711 108.968 57.0711 108.754 54.3735C108.754 46.4744 106.685 38.7137 102.735 31.8729C102.644 31.7099 102.528 31.5614 102.393 31.4325C100.813 29.9085 98.3504 31.8735 99.4858 33.752C103.106 40.0229 105.016 47.1325 105.016 54.3735Z" fill="#C4DCF0"/>
  <path d="M80.4199 6.55969C86.0024 9.01711 91.2357 12.5196 95.8081 17.0919C115.578 36.8622 115.578 68.9159 95.8081 88.6861L94.4824 90.0118C93.9155 90.5788 93.2138 90.9225 92.4829 91.0519L92.9297 91.4987C94.3987 92.9677 96.7634 92.9677 98.2325 91.4987L99.5581 90.173C119.328 70.4027 119.328 38.3491 99.5581 18.5788C93.9744 12.995 87.4099 8.98939 80.4199 6.55969Z" fill="#C4DCF0"/>
  <path d="M107.619 59.7564C106.505 58.7382 104.705 59.3869 104.497 60.8819C104.412 61.4108 104.318 61.9324 104.213 62.4576C103.526 65.0315 107.527 65.8317 107.883 63.1916C107.998 62.6187 108.104 62.0461 108.196 61.4691C108.31 60.837 108.092 60.1907 107.619 59.7564Z" fill="#C4DCF0"/>
  <path d="M13.125 71.25C11.0474 71.25 9.375 72.9225 9.375 75V93.75C9.375 95.8275 11.0474 97.5 13.125 97.5H43.2275C43.1638 97.1918 43.1276 96.8778 43.1248 96.5625C43.1248 93.9737 45.2234 91.875 47.8122 91.875C50.4011 91.875 52.4997 93.9737 52.4997 96.5625C52.4996 96.8771 52.4643 97.1918 52.4048 97.5H58.125C60.2025 97.5 61.875 95.8275 61.875 93.75V75C61.875 72.9225 60.2025 71.25 58.125 71.25H52.3974C52.4612 71.5583 52.4973 71.8722 52.5002 72.1875C52.5002 74.7763 50.4015 76.875 47.8127 76.875C45.2239 76.875 43.1252 74.7763 43.1252 72.1875C43.1254 71.8728 43.1606 71.5582 43.2202 71.25H13.125Z" fill="#FF9751"/>
  <path d="M54.375 71.25C56.4525 71.25 58.125 72.9225 58.125 75V93.75C58.125 95.8275 56.4525 97.5 54.375 97.5H58.125C60.2025 97.5 61.875 95.8275 61.875 93.75V75C61.875 72.9225 60.2025 71.25 58.125 71.25H54.375Z" fill="#FF7F29"/>
  <path d="M29.9588 76.8594C29.4724 76.8743 29.0108 77.0779 28.6716 77.4269L17.4188 88.6796C15.541 90.4507 18.3151 93.2103 20.0763 91.3233L31.3153 80.0705C32.5251 78.8796 31.6561 76.8223 29.9588 76.8594Z" fill="#FF7F29"/>
  <path d="M28.0696 76.8594C27.5831 76.8743 27.1216 77.0779 26.7824 77.4269L15.5296 88.6796C13.6518 90.4507 16.4259 93.2103 18.1871 91.3233L29.426 80.0705C30.6359 78.8796 29.7669 76.8223 28.0696 76.8594Z" fill="#E4EFF8"/>
  <path d="M19.7254 78.75C19.7254 79.7855 18.8859 80.625 17.8504 80.625C16.8149 80.625 15.9754 79.7855 15.9754 78.75C15.9754 77.7145 16.8149 76.875 17.8504 76.875C18.8859 76.875 19.7254 77.7145 19.7254 78.75Z" fill="#FF7F29"/>
  <path d="M18.731 78.75C18.731 79.7855 17.8916 80.625 16.856 80.625C15.8205 80.625 14.981 79.7855 14.981 78.75C14.981 77.7145 15.8205 76.875 16.856 76.875C17.8916 76.875 18.731 77.7145 18.731 78.75Z" fill="#E4EFF8"/>
  <path d="M30.9413 89.9999C30.9413 91.0354 30.1018 91.8749 29.0663 91.8749C28.0307 91.8749 27.1913 91.0354 27.1913 89.9999C27.1913 88.9643 28.0308 88.1249 29.0663 88.1249C30.1018 88.1249 30.9413 88.9643 30.9413 89.9999Z" fill="#FF7F29"/>
  <path d="M29.981 89.9999C29.981 91.0354 29.1415 91.8749 28.106 91.8749C27.0704 91.8749 26.231 91.0354 26.231 89.9999C26.231 88.9643 27.0704 88.1249 28.106 88.1249C29.1415 88.1249 29.981 88.9643 29.981 89.9999Z" fill="#E4EFF8"/>
  <path d="M35.6213 71.2518V75.0037C35.6213 77.5061 39.375 77.5061 39.375 75.0037V71.2518H35.6213Z" fill="#FFC6A0"/>
  <path d="M37.4779 80.6241C36.442 80.6355 35.6115 81.4845 35.6232 82.5204V86.2713C35.6232 88.7719 39.3741 88.7719 39.3741 86.2713V82.5204C39.386 81.4682 38.53 80.6123 37.4779 80.6241Z" fill="#FFC6A0"/>
  <path d="M39.375 97.4982V93.7463C39.3873 92.6936 38.5308 91.8371 37.478 91.8494C36.4411 91.8593 35.6092 92.7094 35.6213 93.7463V97.4982H39.375Z" fill="#FFC6A0"/>
  <path d="M28.1942 48.7205C26.77 48.6908 25.8341 50.1974 26.4918 51.4611C27.1498 52.7771 26.8498 53.3074 26.381 54.7137C25.9123 56.1199 25.2748 58.4113 26.4918 60.8453C27.6175 63.0783 30.967 61.3897 29.8413 59.1567C29.1833 57.8407 29.4694 57.3103 29.9382 55.904C30.4069 54.4978 31.0583 52.2203 29.8413 49.7863C29.5367 49.1493 28.9001 48.7373 28.1942 48.7205Z" fill="#FFC6A0"/>
  <path d="M39.9453 50.5476C38.5211 50.5179 37.5851 52.0245 38.2428 53.2881C38.9008 54.6041 38.6009 55.1345 38.1321 56.5407C37.6633 57.947 37.0258 60.2383 38.2428 62.6723C39.3684 64.9059 42.7179 63.2173 41.5924 60.9837C40.9344 59.6677 41.2205 59.1373 41.6892 57.7311C42.158 56.3248 42.8094 54.0473 41.5924 51.6133C41.2878 50.9763 40.6512 50.5644 39.9453 50.5476Z" fill="#FFC6A0"/>
  <path d="M16.4432 50.5476C15.019 50.5179 14.0831 52.0245 14.7407 53.2881C15.3987 54.6041 15.0988 55.1345 14.63 56.5407C14.1613 57.947 13.5237 60.2383 14.7407 62.6723C15.8665 64.9053 19.216 63.2167 18.0903 60.9837C17.4323 59.6677 17.7184 59.1373 18.1872 57.7311C18.6559 56.3248 19.3073 54.0473 18.0903 51.6133C17.7857 50.9763 17.1491 50.5644 16.4432 50.5476Z" fill="#FFC6A0"/>
  <path d="M105.938 103.125C109.573 103.125 112.5 106.052 112.5 109.687C112.5 113.323 109.573 116.25 105.938 116.25H109.687C113.323 116.25 116.25 113.323 116.25 109.687C116.25 106.052 113.323 103.125 109.687 103.125H105.938Z" fill="#FFAF7A"/>
</svg>