<svg width="24" height="24" viewBox="0 0 24 24" fill="none" xmlns="http://www.w3.org/2000/svg">
<path d="M3.17394 16.2071C3.90129 16.8952 4.69366 17.511 5.53994 18.0461L3.29294 20.2931C3.11079 20.4817 3.00999 20.7343 3.01227 20.9965C3.01455 21.2587 3.11972 21.5095 3.30513 21.6949C3.49053 21.8803 3.74135 21.9855 4.00354 21.9878C4.26574 21.99 4.51834 21.8892 4.70694 21.7071L11.1349 15.2791L21.7069 4.70708C21.8025 4.61483 21.8786 4.50449 21.931 4.38249C21.9835 4.26048 22.011 4.12926 22.0122 3.99648C22.0133 3.8637 21.988 3.73202 21.9378 3.60913C21.8875 3.48623 21.8132 3.37458 21.7193 3.28069C21.6254 3.18679 21.5138 3.11254 21.3909 3.06226C21.268 3.01198 21.1363 2.98668 21.0035 2.98783C20.8708 2.98898 20.7395 3.01657 20.6175 3.06898C20.4955 3.12139 20.3852 3.19757 20.2929 3.29308L17.9399 5.64608C16.8166 4.9893 15.596 4.51506 14.3239 4.24108C13.5596 4.08137 12.7808 4.00061 11.9999 4.00008C4.49994 4.00008 0.305944 11.2001 0.130944 11.5051C0.0452044 11.6558 0.00012207 11.8262 0.00012207 11.9996C0.00012207 12.173 0.0452044 12.3434 0.130944 12.4941C0.968565 13.8666 1.99267 15.1162 3.17394 16.2071ZM9.99994 12.0001C9.99994 11.4696 10.2107 10.9609 10.5857 10.5859C10.9608 10.2108 11.4695 10.0001 11.9999 10.0001C12.4272 10.0014 12.8425 10.1419 13.1829 10.4001L10.3999 13.1831C10.1417 12.8426 10.0013 12.4274 9.99994 12.0001ZM11.9999 6.00008C12.6448 6.00062 13.2879 6.06764 13.9189 6.20008C14.806 6.39053 15.6634 6.69965 16.4679 7.11908L14.6119 8.97408C13.8885 8.34292 12.96 7.9967 11.9999 8.00008C10.9391 8.00008 9.92166 8.42151 9.17152 9.17165C8.42137 9.9218 7.99994 10.9392 7.99994 12.0001C7.99656 12.9602 8.34278 13.8886 8.97394 14.6121L6.99394 16.5921C6.10786 16.0746 5.28499 15.4558 4.54194 14.7481C3.65786 13.9219 2.86804 13.0003 2.18694 12.0001C3.21894 10.4831 6.71594 6.00008 11.9999 6.00008Z" fill="#B8B8B8"/>
<path d="M12 17.9999C11.917 17.9999 11.838 17.9999 11.758 17.9939C11.4962 17.9749 11.2373 18.0596 11.0374 18.2297C10.8374 18.3998 10.7124 18.6418 10.6893 18.9033C10.6662 19.1648 10.7469 19.4249 10.9139 19.6275C11.0809 19.83 11.3209 19.9588 11.582 19.9859C11.722 19.9989 11.86 19.9999 12 19.9999C19.483 19.9999 23.692 12.7999 23.868 12.4999C23.9545 12.3487 24 12.1776 24 12.0034C24 11.8293 23.9545 11.6581 23.868 11.5069C23.2924 10.559 22.6223 9.67185 21.868 8.85893C21.6851 8.68423 21.4428 8.58532 21.1899 8.58211C20.937 8.57891 20.6923 8.67165 20.5051 8.84166C20.3178 9.01167 20.2019 9.24632 20.1808 9.49835C20.1596 9.75038 20.2347 10.0011 20.391 10.1999C20.906 10.7661 21.3808 11.3676 21.812 11.9999C20.775 13.5189 17.269 17.9999 12 17.9999Z" fill="#B8B8B8"/>
</svg>
