<svg width="24" height="24" viewBox="0 0 24 24" fill="none" xmlns="http://www.w3.org/2000/svg">
<g clipPath="url(#clip0_2760_24182)">
<path d="M19.7593 10.0088L17.5831 12.7371C17.3511 12.625 17.0871 12.5611 16.8231 12.5611C16.455 12.5611 16.103 12.673 15.807 12.8891L15.0629 13.4011H14.2308C13.4868 13.4011 12.8307 13.8731 12.5987 14.5852L12.2947 15.4413L11.6226 15.9293C11.0146 16.3693 10.7666 17.1374 10.9986 17.8575L11.2546 18.7215L10.9986 19.5056C10.8546 19.9617 10.8946 20.4417 11.1106 20.8417L8.8544 23.658C8.23833 24.434 7.00624 23.77 7.31028 22.8259L9.60646 15.6733H3.14992C2.42188 15.6733 1.90182 14.9613 2.12581 14.2652L6.47022 0.744056C6.61422 0.304027 7.03023 0 7.49428 0H13.1747C13.9028 0 14.4229 0.712073 14.1988 1.40813L11.9826 8.3047H18.9032C19.7833 8.3047 20.2873 9.30478 19.7593 10.0088ZM21.8795 19.7537C22.0075 20.1377 21.8715 20.5537 21.5434 20.7857L20.8714 21.2737C20.7194 21.3858 20.5994 21.5458 20.5354 21.7378L20.2793 22.5218C20.1593 22.9059 19.8073 23.1619 19.4073 23.1619H18.5752C18.3832 23.1619 18.1912 23.2259 18.0311 23.3379L17.3591 23.826C17.0391 24.058 16.599 24.058 16.279 23.826L15.607 23.3379C15.4469 23.2259 15.2549 23.1619 15.0629 23.1619H14.2308C13.8308 23.1619 13.4788 22.9059 13.3588 22.5219L13.1028 21.7378C13.0387 21.5458 12.9267 21.3858 12.7667 21.2738L12.0947 20.7857C11.7746 20.5537 11.6386 20.1377 11.7586 19.7537L12.0147 18.9616C12.0786 18.7775 12.0786 18.5775 12.0147 18.3935L11.7586 17.6095C11.6386 17.2254 11.7746 16.8094 12.0947 16.5774L12.7667 16.0893C12.9267 15.9693 13.0387 15.8093 13.1028 15.6253L13.3588 14.8332C13.4788 14.4572 13.8308 14.2012 14.2308 14.2012H15.0629C15.2549 14.2012 15.4469 14.1372 15.607 14.0251L16.279 13.5371C16.599 13.2971 17.0391 13.2971 17.3591 13.5371L18.0311 14.0251C18.1912 14.1372 18.3832 14.2012 18.5752 14.2012H19.4073C19.8073 14.2012 20.1594 14.4572 20.2793 14.8332L20.5354 15.6253C20.5994 15.8093 20.7194 15.9693 20.8714 16.0893L21.5435 16.5774C21.8715 16.8094 22.0075 17.2254 21.8795 17.6095L21.6235 18.3935C21.5675 18.5775 21.5675 18.7775 21.6235 18.9616L21.8795 19.7537ZM14.8629 16.8254C14.8629 17.1614 15.1429 17.4414 15.4789 17.4414C15.823 17.4414 16.103 17.1614 16.103 16.8254C16.103 16.4814 15.823 16.2014 15.4789 16.2014C15.1429 16.2014 14.8629 16.4814 14.8629 16.8254ZM18.5512 16.3374C18.6632 16.1453 18.5912 15.8973 18.3992 15.7933C18.1992 15.6893 17.9592 15.7613 17.8552 15.9533L15.0869 21.0257C14.9749 21.2177 15.0469 21.4578 15.2469 21.5698C15.3029 21.6018 15.3749 21.6178 15.4389 21.6178C15.5749 21.6178 15.711 21.5378 15.783 21.4098L18.5512 16.3374ZM18.7752 20.5377C18.7752 20.1937 18.4952 19.9216 18.1592 19.9216C17.8152 19.9216 17.5431 20.1937 17.5431 20.5377C17.5431 20.8817 17.8152 21.1538 18.1592 21.1538C18.4952 21.1538 18.7752 20.8817 18.7752 20.5377Z" fill="#50429B"/>
</g>
<defs>
<clipPath id="clip0_2760_24182">
<rect width="24" height="24" fill="white"/>
</clipPath>
</defs>
</svg>
