<svg width="46" height="58" viewBox="0 0 46 58" fill="none" xmlns="http://www.w3.org/2000/svg">
<path d="M23 0.875C17.0347 0.881823 11.3157 3.25454 7.09763 7.47263C2.87954 11.6907 0.506823 17.4097 0.5 23.375C0.5 40.5256 21.5466 56.2791 22.4429 56.9414C22.6042 57.0607 22.7994 57.125 23 57.125C23.2006 57.125 23.3958 57.0607 23.5571 56.9414C24.4534 56.2791 45.5 40.5256 45.5 23.375C45.4932 17.4097 43.1205 11.6907 38.9024 7.47263C34.6843 3.25454 28.9653 0.881823 23 0.875ZM23 40.25C19.6624 40.25 16.3998 39.2603 13.6248 37.4061C10.8497 35.5518 8.68676 32.9163 7.40953 29.8328C6.1323 26.7493 5.79812 23.3563 6.44925 20.0829C7.10037 16.8094 8.70756 13.8026 11.0676 11.4426C13.4276 9.08256 16.4344 7.47537 19.7079 6.82425C22.9813 6.17312 26.3743 6.5073 29.4578 7.78453C32.5413 9.06176 35.1768 11.2247 37.0311 13.9998C38.8853 16.7748 39.875 20.0374 39.875 23.375C39.8699 27.849 38.0904 32.1382 34.9268 35.3018C31.7632 38.4654 27.474 40.2449 23 40.25ZM33.3125 18.6875C33.3488 19.7196 33.1069 20.7424 32.612 21.6488C32.1172 22.5552 31.3877 23.3119 30.5 23.8395V31.8125C30.5 32.3098 30.3025 32.7867 29.9508 33.1383C29.5992 33.49 29.1223 33.6875 28.625 33.6875C28.1277 33.6875 27.6508 33.49 27.2992 33.1383C26.9475 32.7867 26.75 32.3098 26.75 31.8125V23.8395C25.8623 23.3119 25.1328 22.5552 24.638 21.6488C24.1431 20.7424 23.9012 19.7196 23.9375 18.6875C23.9375 15.5857 26.0405 13.0625 28.625 13.0625C31.2095 13.0625 33.3125 15.5857 33.3125 18.6875ZM22.0625 14V21.5C22.0617 22.2457 21.7651 22.9606 21.2378 23.4878C20.7106 24.0151 19.9957 24.3117 19.25 24.3125V31.8125C19.25 32.3098 19.0525 32.7867 18.7008 33.1383C18.3492 33.49 17.8723 33.6875 17.375 33.6875C16.8777 33.6875 16.4008 33.49 16.0492 33.1383C15.6975 32.7867 15.5 32.3098 15.5 31.8125V24.3125C14.7543 24.3117 14.0394 24.0151 13.5122 23.4878C12.9849 22.9606 12.6883 22.2457 12.6875 21.5V14C12.6875 13.7514 12.7863 13.5129 12.9621 13.3371C13.1379 13.1613 13.3764 13.0625 13.625 13.0625C13.8736 13.0625 14.1121 13.1613 14.2879 13.3371C14.4637 13.5129 14.5625 13.7514 14.5625 14V18.6875H16.4375V14C16.4375 13.7514 16.5363 13.5129 16.7121 13.3371C16.8879 13.1613 17.1264 13.0625 17.375 13.0625C17.6236 13.0625 17.8621 13.1613 18.0379 13.3371C18.2137 13.5129 18.3125 13.7514 18.3125 14V18.6875H20.1875V14C20.1875 13.7514 20.2863 13.5129 20.4621 13.3371C20.6379 13.1613 20.8764 13.0625 21.125 13.0625C21.3736 13.0625 21.6121 13.1613 21.7879 13.3371C21.9637 13.5129 22.0625 13.7514 22.0625 14Z" fill="#DB4D29"/>
</svg>
