<svg xmlns="http://www.w3.org/2000/svg" width="265" height="247" viewBox="0 0 265 247" fill="none">
  <circle cx="143.281" cy="113.947" r="111.089" fill="white"/>
  <g opacity="0.5" filter="url(#filter0_f_314_35812)">
    <path d="M132.427 236.064C65.1334 236.064 10.5809 231.125 10.5809 225.032C10.5809 218.939 65.1334 214 132.427 214C199.721 214 254.274 218.939 254.274 225.032C254.274 231.125 199.721 236.064 132.427 236.064Z" fill="#F8E3D0"/>
  </g>
  <path d="M141.029 208.806H235.272C240.024 208.806 243.881 204.925 243.881 200.144V8.78642C243.881 4.00511 240.024 0.124878 235.272 0.124878H141.029C136.276 0.124878 132.419 4.00511 132.419 8.78642V200.144C132.427 204.925 136.276 208.806 141.029 208.806Z" fill="#C02D07"/>
  <path d="M235.272 3.94824C237.927 3.94824 240.081 6.12377 240.081 8.78637V200.144C240.081 202.815 237.927 204.982 235.272 204.982H141.029C138.374 204.982 136.22 202.807 136.22 200.144V8.78637C136.22 6.11565 138.382 3.94824 141.029 3.94824H235.272Z" fill="white"/>
  <path opacity="0.5" d="M218.465 10.3289H239.322L239.371 19.6155H218.037L218.465 10.3289Z" fill="#F9F1DF"/>
  <path opacity="0.5" d="M216.641 50.1375L239.532 49.3826L239.693 80.0105L215.302 79.5397L216.641 50.1375Z" fill="#F9F1DF"/>
  <path opacity="0.5" d="M217.851 23.6904H239.395L239.508 45.3078L216.827 46.0546L217.851 23.6904Z" fill="#F9F1DF"/>
  <path opacity="0.3" d="M240.105 158.387L240.242 185.029H217.085V157.6L240.105 158.387Z" fill="#EE7556"/>
  <path opacity="0.5" d="M187.811 109.47L213.97 108.634L215.116 83.6069L239.71 84.0859L239.903 120.218L187.36 121.322L187.811 109.47Z" fill="#F9F1DF"/>
  <path opacity="0.5" d="M228.89 124.52L239.92 124.293L240.081 154.312L227.607 153.882L228.89 124.52Z" fill="#F9F1DF"/>
  <path opacity="0.5" d="M158.304 78.4278L136.22 77.9976V52.8085L156.738 52.1266L158.304 78.4278Z" fill="#F9F1DF"/>
  <path opacity="0.5" d="M176.031 19.6155L175.732 10.3289H214.406L213.986 19.6155H176.031Z" fill="#F9F1DF"/>
  <path opacity="0.5" d="M172.876 47.5158L136.22 48.7334V23.6904H172.118L172.876 47.5158Z" fill="#F9F1DF"/>
  <path opacity="0.5" d="M136.22 19.6155V10.3289H171.682L171.98 19.6155H136.22Z" fill="#F9F1DF"/>
  <path opacity="0.5" d="M182.873 132.524L136.22 135.332V111.125L183.753 109.599L182.873 132.524Z" fill="#F9F1DF"/>
  <path opacity="0.5" d="M211.251 79.4591L190.176 79.0533V51.0148L212.583 50.2761L211.251 79.4591Z" fill="#F9F1DF"/>
  <path opacity="0.3" d="M176.168 23.6904H213.801L212.768 46.1926L176.927 47.3859L176.168 23.6904Z" fill="#EE7556"/>
  <path opacity="0.5" d="M186.125 78.9713L162.362 78.5086L160.789 51.9963L186.125 51.1521V78.9713Z" fill="#F9F1DF"/>
  <path opacity="0.5" d="M223.564 153.744L186.165 152.461L187.198 125.397L224.839 124.609L223.564 153.744Z" fill="#F9F1DF"/>
  <path opacity="0.3" d="M210.097 104.68L136.22 107.051V82.0728L211.066 83.5258L210.097 104.68Z" fill="#EE7556"/>
  <path opacity="0.5" d="M181.469 169.305L136.22 157.404V139.416L182.72 136.615L181.469 169.305Z" fill="#F9F1DF"/>
  <path opacity="0.5" d="M185.415 172.025L186.012 156.536L213.034 157.461V185.029H184.915L185.415 172.025Z" fill="#F9F1DF"/>
  <path opacity="0.3" d="M180.864 185.029H136.22V161.618L181.308 173.47L180.864 185.029Z" fill="#EE7556"/>
  <path d="M141.029 205.745H235.272C238.346 205.745 240.839 203.229 240.839 200.144V8.78637C240.839 5.69354 238.338 3.18518 235.272 3.18518H141.029C137.954 3.18518 135.461 5.70165 135.461 8.78637V200.144C135.461 203.237 137.962 205.745 141.029 205.745ZM235.272 4.71131C237.507 4.71131 239.322 6.53777 239.322 8.78637V200.144C239.322 202.393 237.507 204.219 235.272 204.219H141.029C138.794 204.219 136.978 202.393 136.978 200.144V8.78637C136.978 6.53777 138.794 4.71131 141.029 4.71131H235.272Z" fill="#EE7556"/>
  <path d="M175.724 201.069H200.576C204.062 201.069 206.902 198.212 206.902 194.705C206.902 191.198 204.062 188.341 200.576 188.341H175.724C172.239 188.341 169.398 191.198 169.398 194.705C169.398 198.212 172.239 201.069 175.724 201.069ZM200.576 189.355C203.505 189.355 205.885 191.75 205.885 194.697C205.885 197.644 203.505 200.038 200.576 200.038H175.724C172.795 200.038 170.415 197.644 170.415 194.697C170.415 191.75 172.795 189.355 175.724 189.355H200.576Z" fill="#C02D07"/>
  <path d="M167.938 178.811H207.096C210.243 178.811 212.8 176.246 212.8 173.072C212.8 169.906 210.251 167.333 207.096 167.333H167.938C164.791 167.333 162.233 169.898 162.233 173.072C162.233 176.238 164.791 178.811 167.938 178.811Z" fill="#DB4D29"/>
  <path d="M9.99997 165.514L20.9089 169.159L18.9886 158.509L14.9623 160.53L9.99997 165.514Z" fill="#FFC793"/>
  <path d="M9.99997 165.514L20.9089 169.159L18.9886 158.509L14.9623 160.53L9.99997 165.514Z" fill="#FFC793"/>
  <path d="M18.9886 177.245C18.9886 177.245 17.1166 163.128 16.9875 162.049L10 165.515C10 165.515 19.0128 126.997 19.9246 126.461C20.8364 125.925 25.3387 106.654 25.3387 106.654C25.3387 106.654 28.074 102.351 28.4694 102.757C28.8728 103.163 30.4785 138.71 30.4785 138.71L24.7255 168.34L18.9886 177.245Z" fill="#FFC793"/>
  <path d="M25.2903 89.1843C25.2903 89.1843 22.3856 90.0204 21.5949 91.1894C20.8041 92.3583 20.0618 97.5618 20.0618 97.5618C20.0618 97.5618 19.7471 105.582 20.0618 105.688C20.3765 105.793 25.6534 107.279 25.6534 107.279L25.2903 89.1843Z" fill="#FFC793"/>
  <path d="M25.476 98.1463L23.9751 97.0829C23.9751 97.0829 23.4991 97.9352 23.4749 98.0408C23.4507 98.1463 23.4507 101.653 23.4749 102.051C23.4991 102.449 22.5551 104.413 22.5551 104.413H21.2318L20.9171 100.752L21.2318 94.9642C21.2318 94.9642 22.1435 91.8551 22.3937 91.7252C25.9762 89.8257 25.2984 92.472 25.2984 92.472C25.3226 92.4802 25.3388 92.4964 25.363 92.5045L25.476 98.1463Z" fill="#FFC793"/>
  <path opacity="0.3" d="M22.789 105.744C22.789 105.744 24.072 104.892 24.2333 103.885C24.3947 102.878 24.548 100.005 24.548 99.7449C24.548 99.5826 25.0886 99.6232 25.5001 99.6719L25.6534 107.286C25.6534 107.286 23.5636 106.702 21.9337 106.239C22.3694 106.02 22.789 105.744 22.789 105.744Z" fill="#FFC793"/>
  <path d="M106.624 87.9258C106.624 87.9258 92.9711 85.8314 76.2688 86.3834C47.9393 87.3251 32.0923 87.041 25.2903 89.184C25.2903 89.184 25.2903 121.192 25.6131 124.674C25.9358 128.157 21.4335 156.561 21.2317 159.077C21.03 161.594 18.9806 177.236 18.9806 177.236C18.9806 177.236 66.0779 176.839 70.0155 176.563C73.953 176.287 99.878 174.687 103.678 173.827C107.479 172.958 117.783 168.908 117.783 168.908C117.783 168.908 116.782 141.129 116.475 138.418C116.169 135.706 113.409 111.897 112.401 108.106C111.4 104.315 106.624 87.9258 106.624 87.9258Z" fill="#FFC793"/>
  <path d="M24.4915 114.804C24.4915 114.804 20.3683 155.774 20.3683 157.105C20.3683 158.444 18.2704 165.726 18.0284 166.067C17.8509 166.31 17.4555 162.869 17.3264 161.716C17.3022 161.529 17.1569 161.529 16.9875 161.602L11.4039 163.891L17.044 138.8C17.044 138.8 19.6663 128.101 19.8438 127.516C20.0214 126.924 23.6523 112.231 24.4915 114.804Z" fill="#FFD8B5"/>
  <path opacity="0.3" d="M61.8095 118.627C61.3254 118.229 60.8413 117.807 60.4863 117.295C60.0505 116.67 59.8166 115.931 59.5906 115.209C58.695 112.343 57.7994 109.478 56.9037 106.604C57.993 106.848 58.6547 107.936 59.1791 108.926C60.3491 111.126 61.5271 113.326 62.6971 115.517C62.915 115.931 63.1489 116.354 63.512 116.638C63.8671 116.922 64.327 117.052 64.7708 117.173C67.9821 118.058 71.1935 118.935 74.413 119.82C74.7357 119.909 75.1472 120.169 74.9939 120.469C74.9374 120.583 74.8245 120.64 74.7115 120.697C74.1547 120.964 73.5577 121.159 72.9444 121.273C73.1462 122.15 73.4124 123.002 73.7433 123.838C73.9369 124.325 74.9455 125.754 74.8648 126.208C74.6712 127.321 71.2661 125.08 70.7013 124.755C67.5626 122.986 64.5852 120.932 61.8095 118.627Z" fill="#FFC793"/>
  <path opacity="0.3" d="M70.0154 176.563C66.0859 176.839 18.9805 177.236 18.9805 177.236C18.9805 177.236 21.03 161.602 21.2317 159.077C21.4253 156.658 25.5888 130.332 25.6292 125.194C28.2999 136.51 27.2591 148.362 27.3398 160.019C27.3478 161.675 27.4124 163.436 28.3241 164.816C29.9056 167.227 33.2622 167.487 36.1347 167.503C40.3143 167.528 44.6715 167.511 48.4234 165.661C48.9721 165.393 49.5369 165.044 49.7709 164.467C50.0049 163.883 49.8193 163.217 49.6338 162.616C48.4396 158.769 47.2373 154.929 46.0431 151.081C49.658 153.192 51.6267 157.267 54.6364 160.197C58.3641 163.842 63.6089 165.579 68.7971 165.985C73.9772 166.391 79.1735 165.563 84.2972 164.695C87.097 164.216 90.2196 163.518 91.7446 161.107C93.544 158.265 92.0512 154.231 89.3079 152.307C88.1944 151.528 86.9034 150.992 85.927 150.042C85.8786 149.993 85.8302 149.937 85.7818 149.888C80.2708 148.013 75.0181 145.358 70.2736 141.957C66.5539 139.294 62.81 135.463 63.2215 130.884C68.0467 132.484 72.6943 134.602 77.0756 137.2C80.9002 139.465 84.5231 142.103 88.5252 144.019C92.5354 145.935 97.07 147.12 101.427 146.235C101.992 146.121 102.573 145.959 102.968 145.537C103.686 144.782 103.485 143.564 103.235 142.558C101.645 136.112 100.055 129.659 98.4659 123.213C97.7881 120.461 97.07 117.628 95.3594 115.38C93.1082 112.417 89.445 110.891 85.8302 110.111C82.2073 109.332 78.4715 109.17 74.8728 108.285C70.6771 107.246 66.7637 105.233 62.5599 104.25C59.05 103.431 55.4271 103.341 51.8285 103.252C44.3729 103.073 36.9254 102.895 29.4699 102.716C30.1638 101.328 32.0438 101.19 33.585 101.223C40.0965 101.352 46.6079 101.141 53.0952 100.589C54.0393 100.508 55.1447 100.305 55.5401 99.4448C56.234 97.9268 54.1119 96.7741 53.1679 95.4022C52.0625 93.7786 52.4901 91.1972 50.8763 90.0932C49.7386 89.3139 47.4229 89.8984 46.6806 88.5752C46.4466 88.1531 46.495 87.6741 46.6725 87.1952C54.4669 86.9598 64.2543 86.7812 76.2929 86.3834C92.9953 85.8314 106.648 87.9258 106.648 87.9258C106.648 87.9258 111.424 104.307 112.433 108.098C113.442 111.889 116.201 135.69 116.508 138.41C116.814 141.121 117.815 168.9 117.815 168.9C117.815 168.9 107.511 172.958 103.711 173.819C99.8779 174.696 73.953 176.287 70.0154 176.563Z" fill="#FFDBB9"/>
  <path d="M89.1267 134.954C89.1267 134.954 73.6266 139.57 44.5871 136.899C44.5871 136.899 45.1681 118.785 66.8569 118.736C88.5538 118.68 89.1267 134.954 89.1267 134.954Z" fill="#DB4D29"/>
  <path d="M60.5471 143.725C77.6044 143.725 91.2649 140.344 92.0395 140.151C93.2175 139.852 93.9356 138.65 93.6371 137.472C93.3385 136.294 92.1444 135.576 90.9582 135.874C90.7081 135.939 65.6949 142.119 41.6904 137.706C40.4962 137.488 39.3424 138.279 39.1245 139.481C38.9066 140.683 39.6974 141.829 40.8996 142.047C47.5886 143.265 54.2938 143.725 60.5471 143.725Z" fill="#DB4D29"/>
  <path d="M89.5866 141.498C89.5866 141.498 90.8937 146.88 86.8674 148.517C83.2849 149.97 52.3331 154.609 46.1686 150.325C42.6667 147.896 44.3047 143.717 44.3047 143.717C44.3047 143.717 61.9269 147.452 89.5866 141.498Z" fill="#DB4D29"/>
  <path d="M114.628 57.7444C114.628 57.7444 193.532 62.55 239.322 38.4081V82.552C239.322 82.552 171.763 101.044 110.585 93.4296L114.628 57.7444Z" fill="#F26D4C"/>
  <path opacity="0.3" d="M110.585 93.4296L114.628 57.7444C114.628 57.7444 115.596 57.8012 117.371 57.8742C117.629 58.2964 117.807 58.7753 117.96 59.2461C120.171 65.9676 120.421 74.0284 125.811 78.5824C127.739 80.2141 130.144 81.1801 132.597 81.7564C137.253 82.8604 142.11 82.6494 146.879 82.2922C156.803 81.5616 166.679 80.2465 176.515 78.7285C189.498 76.7235 202.65 74.2882 214.285 68.1593C216.843 66.8118 219.425 65.1801 220.837 62.6474C221.918 60.7073 222.2 58.4344 222.434 56.2264C222.83 52.5085 223.088 48.7906 223.298 45.0646C228.672 43.1326 234.538 40.9327 239.33 38.4081V82.552C239.322 82.552 171.763 101.044 110.585 93.4296Z" fill="#F26D4C"/>
  <path d="M116.306 94.4037C116.306 94.4037 102.968 93.665 102.242 94.0708C101.516 94.4767 89.8243 104.356 76.8093 101.547C67.3447 99.5016 62.342 97.5533 56.7262 95.4265C53.418 94.1683 55.1609 88.7051 58.6304 88.0151C61.3577 87.4712 69.023 87.0247 73.598 88.0151C76.1154 88.5589 77.6646 88.5346 76.2768 86.3834C76.2768 86.3834 46.5353 87.4387 46.0754 87.3494C45.6155 87.2601 45.5913 79.9055 50.6908 78.0547C50.6908 78.0547 50.5132 69.8315 58.1302 68.143C58.1302 68.143 55.7176 60.8777 69.5555 58.5642C83.3935 56.2506 117.904 57.6956 117.904 57.6956L116.306 94.4037Z" fill="#FFEED5"/>
  <mask id="mask0_314_35812" style="mask-type:luminance" maskUnits="userSpaceOnUse" x="45" y="57" width="73" height="46">
    <path d="M116.306 94.4037C116.306 94.4037 102.968 93.665 102.242 94.0708C101.516 94.4767 89.8243 104.356 76.8093 101.547C67.3447 99.5016 62.342 97.5533 56.7262 95.4265C53.418 94.1683 55.1609 88.7051 58.6304 88.0151C61.3577 87.4712 69.023 87.0247 73.598 88.0151C76.1154 88.5589 77.6646 88.5346 76.2768 86.3834C76.2768 86.3834 46.5353 87.4387 46.0754 87.3494C45.6155 87.2601 45.5913 79.9055 50.6908 78.0547C50.6908 78.0547 50.5132 69.8315 58.1302 68.143C58.1302 68.143 55.7176 60.8777 69.5555 58.5642C83.3935 56.2506 117.904 57.6956 117.904 57.6956L116.306 94.4037Z" fill="white"/>
  </mask>
  <g mask="url(#mask0_314_35812)">
    <path opacity="0.3" d="M109.569 82.0734C108.189 85.1013 97.877 81.9923 91.8415 92.7482C89.3564 97.1723 82.9498 97.773 77.9229 98.2519C74.4049 98.5929 70.3221 97.9435 68.3856 94.9643C68.0467 94.4447 67.7885 93.844 67.8128 93.2271C67.8773 91.8471 69.3539 90.9217 70.7175 90.8324C72.0892 90.7431 73.4205 91.222 74.7842 91.3925C76.3495 91.5955 78.0359 91.3682 79.3027 90.4184C80.5695 89.4686 81.2715 87.6827 80.6744 86.2053C80.1176 84.8253 78.5926 84.046 77.116 83.8918C75.6395 83.7457 74.1709 84.0947 72.7024 84.3545C68.6519 85.0607 64.4077 85.3205 60.446 84.2246C54.4267 82.5524 56.7263 76.1719 56.8312 75.6524C57.2265 73.7204 60.0667 73.3713 60.9301 71.6016C61.3739 70.7006 61.6402 69.6372 61.4384 68.6549C60.2765 63.0213 64.3593 61.3815 65.3034 61.2029C79.0687 58.6296 70.3625 56.446 76.0752 55.4718C72.7266 53.9132 68.8052 54.9604 65.2872 56.0807C57.7752 58.4754 50.1502 61.211 44.1228 66.3089C38.0955 71.4149 33.8916 79.3946 35.2956 87.1957C36.4898 93.8197 41.3391 99.0799 45.9706 103.934C47.6005 105.639 49.2546 107.368 51.2476 108.618C53.8941 110.274 57.0087 111.013 60.0909 111.484C72.2022 113.351 84.5554 111.614 96.6021 109.381C105.002 107.823 113.571 105.923 120.736 101.255C123.173 99.6644 125.44 97.7405 127.078 95.3215C128.813 92.7563 129.773 89.7365 130.443 86.7005C132.976 75.1166 131.29 62.4368 124.851 52.5008C123.39 50.2441 121.591 48.0523 119.122 47.0051C116.653 45.9579 113.385 46.4125 111.892 48.6449C109.036 52.9067 99.8457 53.6372 103.404 54.4409C111.675 56.2998 114.023 68.8498 112.611 73.7853C111.812 76.6102 110.787 79.3865 109.569 82.0734Z" fill="#FFEED5"/>
  </g>
  <path opacity="0.5" d="M93.439 61.5839C95.8193 60.1065 98.5304 59.0593 101.33 59.0268C104.13 58.9944 107.011 60.0902 108.77 62.282C109.044 62.6311 109.302 63.0126 109.383 63.451C109.488 64.0517 109.254 64.6605 108.939 65.1881C108.156 66.5194 106.882 67.5423 105.421 68.0212C104.098 68.4514 102.678 68.4352 101.29 68.4109C99.297 68.3784 97.3121 68.354 95.3191 68.3216C93.4875 68.2972 91.672 67.5017 91.0265 65.6103C90.4375 63.8893 92.14 62.3794 93.439 61.5839Z" fill="white"/>
  <path opacity="0.5" d="M106.946 70.2369C107.422 69.7986 108.044 69.5632 108.649 69.3359C109.197 69.1329 109.811 68.93 110.359 69.1492C110.916 69.3683 111.223 69.969 111.4 70.5454C111.989 72.4855 111.4 74.8072 109.326 75.4972C107.656 76.0573 106.446 75.0588 106.131 73.4109C105.913 72.3151 106.091 71.0325 106.946 70.2369Z" fill="white"/>
  <path opacity="0.5" d="M104.63 72.1284C104.485 72.7859 103.953 73.3298 103.323 73.549C101.79 74.0766 100.015 72.518 101.209 71.065C102.274 69.7742 105.09 69.9691 104.63 72.1284Z" fill="white"/>
  <path opacity="0.5" d="M74.905 93.3728C74.4855 93.5758 74.0094 93.8761 73.9852 94.347C73.961 94.7366 74.2676 95.0694 74.5823 95.2967C75.4456 95.9137 76.5268 96.1328 77.5838 96.2384C80.0771 96.5063 82.6268 96.2871 85.0394 95.6133C86.0399 95.3292 87.1131 94.8908 87.5569 93.9411C87.9926 93.0075 87.6214 91.8224 86.8468 91.1405C85.2976 89.7767 82.8528 90.1745 81.1987 91.0999C79.2218 92.1958 76.9464 92.3906 74.905 93.3728Z" fill="white"/>
  <path d="M116.927 99.2499C117.782 99.0876 118.493 98.4057 118.638 97.4884C120.921 83.3068 121.228 55.3902 121.236 54.2131C121.244 53.036 120.308 52.0619 119.13 52.0538C117.96 52.0376 116.992 52.9873 116.984 54.1725C116.984 54.4566 116.669 82.9496 114.442 96.8065C114.256 97.9754 115.039 99.0713 116.201 99.258C116.451 99.2986 116.693 99.2905 116.927 99.2499Z" fill="#DB4D29"/>
  <path opacity="0.5" d="M120.372 54.2456C120.776 54.895 120.792 55.7068 120.752 56.4698C120.663 57.9879 120.348 59.4896 119.832 60.9102C119.719 61.2349 119.517 61.6083 119.17 61.6164C118.936 61.6246 118.743 61.446 118.597 61.2593C117.823 60.2851 117.79 58.9214 117.79 57.6713C117.79 56.5186 117.661 55.0006 118.178 53.9371C118.646 52.9955 119.937 53.5312 120.372 54.2456Z" fill="white"/>
  <path d="M239.322 135.95C239.322 135.95 215.931 160.449 155.73 162.632V127.71C155.73 127.71 212.236 117.263 239.322 78.0056V135.95Z" fill="#F26D4C"/>
  <path opacity="0.3" d="M228.357 91.0182C232.343 87.0812 236.055 82.7545 239.33 78.0056V135.95C239.33 135.95 217.327 158.987 161.096 162.373C160.265 156.885 160.24 151.276 161.047 145.788C161.386 143.45 162.128 140.804 164.259 139.822C165.316 139.335 166.518 139.367 167.68 139.375C182.47 139.456 196.897 134.456 210.041 127.621C216.528 124.252 223.072 120.128 226.59 113.691C229.374 108.593 229.874 102.627 229.196 96.936C229.002 95.3044 228.833 93.0071 228.357 91.0182Z" fill="#FFC793"/>
  <path d="M118.21 75.7569L121.728 106.555L120.244 106.588L116.911 75.2292C117.662 75.4647 118.21 75.7569 118.21 75.7569Z" fill="white"/>
  <path d="M117.557 106.653L113.45 75.4246C114.208 74.8321 115.265 74.8564 116.185 75.0431L119.711 106.605L117.557 106.653Z" fill="white"/>
  <path d="M116.193 75.0427C116.443 75.0914 116.685 75.1564 116.911 75.2294L120.244 106.588L119.719 106.604L116.193 75.0427Z" fill="#DB4D29"/>
  <path d="M136.3 107.424L133.218 107.035L104.461 109.706L101.677 110.704L102.444 111.8L127.651 110.842L135.582 108.999L136.3 107.424Z" fill="#DB4D29"/>
  <path opacity="0.5" d="M122.156 108.066C122.18 108.261 122.204 108.448 122.237 108.618C121.131 108.967 118.824 109.089 118.928 109.673C118.977 109.958 119.219 110.193 119.493 110.25C119.082 110.445 118.775 110.786 118.565 111.2L102.436 111.817L101.669 110.713L104.453 109.714L122.156 108.066Z" fill="#DB4D29"/>
  <path d="M135.832 128.912L134.388 110.655L104.953 113.593L108.253 132.378L110.666 137.914L131.031 138.02L135.832 128.912Z" fill="#DB4D29"/>
  <path opacity="0.3" d="M108.253 132.378L104.945 113.586L134.38 110.647L134.614 113.61C134.307 113.772 134.001 113.935 133.694 114.089C132.79 114.527 131.854 114.909 130.91 115.242C129.805 115.623 128.683 115.932 127.538 116.167C125.262 116.63 122.882 116.8 120.833 117.88C117.637 119.568 115.806 123.538 116.588 127.085C116.887 128.417 117.541 129.715 118.646 130.511C119.792 131.339 121.276 131.542 122.68 131.485C124.092 131.42 125.48 131.12 126.892 131.055C127.433 131.031 128.006 131.047 128.474 131.307C129.611 131.94 129.603 133.636 129.03 134.805C128.369 136.161 127.199 137.168 125.908 137.979L110.666 137.898L108.253 132.378Z" fill="#DB4D29"/>
  <path d="M116.835 139.557C112.758 137.019 111.498 131.635 114.022 127.533C116.545 123.432 121.896 122.165 125.974 124.703C130.051 127.242 131.31 132.626 128.786 136.727C126.263 140.829 120.912 142.096 116.835 139.557Z" fill="white"/>
  <path opacity="0.5" d="M116.427 124.983C116.387 125.689 116.443 126.404 116.596 127.094C116.895 128.425 117.548 129.724 118.654 130.519C119.8 131.347 121.284 131.55 122.688 131.493C124.1 131.428 125.488 131.128 126.9 131.063C127.441 131.039 128.014 131.055 128.482 131.315C129.619 131.948 129.611 133.645 129.038 134.814C128.135 136.664 126.303 137.866 124.48 138.807C123.019 139.562 121.51 140.212 119.953 140.748C116.596 140.179 113.748 137.638 112.941 134.099C112.126 130.527 113.611 126.964 116.427 124.983Z" fill="#DB4D29"/>
  <path opacity="0.5" d="M133.363 124.861C133.186 125.17 132.952 125.454 132.645 125.64C132.016 126.022 131.193 125.892 130.523 125.592C127.949 124.431 126.005 119.942 128.086 117.58C129.918 115.501 132.976 116.24 133.581 118.935C133.969 120.681 134.299 123.23 133.363 124.861Z" fill="white"/>
  <path opacity="0.5" d="M126.424 119.787C126.279 120.112 126.069 120.42 125.763 120.583C125.585 120.672 125.383 120.713 125.182 120.729C125.069 120.737 124.956 120.737 124.859 120.68C124.786 120.648 124.738 120.583 124.681 120.526C124.367 120.161 124.157 119.698 124.133 119.219C124.109 118.74 124.286 118.245 124.633 117.912C124.996 117.563 125.819 117.279 126.263 117.652C126.852 118.156 126.707 119.162 126.424 119.787Z" fill="white"/>
  <path d="M134.848 115.916L135.832 128.912C135.832 128.912 118.194 134.343 108.253 132.378C108.253 132.378 104.647 134.051 105.082 138.134C105.518 142.217 109.423 142.899 109.448 143.735C109.472 144.563 107.204 147.015 108.084 149.409C108.963 151.796 111.812 151.893 112.086 153.087C112.36 154.28 111.199 155.384 111.578 157.056C111.957 158.728 103.178 165.783 165.679 162.584C165.679 162.584 166.074 148.346 162.322 126.534L146.854 125.852C146.862 125.852 147.258 115.964 134.848 115.916Z" fill="#FFEDD5"/>
  <path opacity="0.5" d="M111.586 157.056C111.207 155.384 112.36 154.28 112.094 153.087C111.82 151.893 108.972 151.804 108.092 149.409C107.213 147.023 109.48 144.571 109.456 143.735C109.431 142.907 105.534 142.217 105.09 138.134C104.655 134.051 108.261 132.378 108.261 132.378C118.194 134.343 135.841 128.912 135.841 128.912L134.856 115.916C136.494 115.924 137.898 116.102 139.125 116.411C138.915 116.703 138.697 116.995 138.552 117.32C137.648 119.317 139.568 121.395 140.028 123.538C140.561 125.982 139.06 128.506 137.002 129.927C134.953 131.339 132.444 131.883 130.007 132.387C124.956 133.442 119.905 134.497 114.854 135.552C113.772 135.78 112.659 136.015 111.747 136.656C110.843 137.29 110.19 138.434 110.456 139.506C110.852 141.081 112.836 141.649 113.7 143.029C114.789 144.766 113.902 147.461 115.459 148.784C116.363 149.555 117.783 149.507 118.622 150.351C119.542 151.268 119.388 152.827 120.042 153.947C121.067 155.709 123.536 155.774 125.553 155.562C130.362 155.075 135.139 154.296 139.859 153.233C144.668 152.153 149.638 150.651 153.148 147.177C155.932 144.417 157.545 140.626 158.247 136.762C158.828 133.555 159.087 129.878 158.594 126.647C158.578 126.55 158.562 126.461 158.538 126.363L162.322 126.534C166.074 148.346 165.679 162.584 165.679 162.584C103.186 165.783 111.965 158.72 111.586 157.056Z" fill="#FFEDD5"/>
  <path d="M167.381 167.471C168.333 167.252 169.068 166.424 169.14 165.393C170.141 150.749 165.663 123.977 165.477 122.84C165.267 121.59 164.089 120.754 162.855 120.965C161.612 121.184 160.781 122.361 160.991 123.603C161.039 123.879 165.566 150.968 164.606 165.076C164.517 166.343 165.469 167.43 166.72 167.52C166.946 167.536 167.172 167.52 167.381 167.471Z" fill="#DB4D29"/>
  <path opacity="0.5" d="M164.598 165.076C165.098 157.794 164.13 147.039 163.065 138.304C164.057 138.742 165.332 138.629 166.252 138.004C166.76 137.654 167.163 137.192 167.462 136.656C168.592 145.74 169.681 157.38 169.14 165.384C169.068 166.415 168.333 167.235 167.381 167.463C167.172 167.511 166.946 167.527 166.712 167.519C165.461 167.438 164.517 166.342 164.598 165.076Z" fill="#DB4D29"/>
  <path opacity="0.5" d="M143.877 119.869C144.692 120.819 145.249 121.971 145.604 123.165C145.733 123.603 145.838 124.082 145.684 124.512C145.531 124.95 145.136 125.251 144.749 125.511C144.515 125.665 144.256 125.819 143.982 125.795C143.74 125.778 143.53 125.624 143.361 125.446C142.973 125.04 142.764 124.512 142.53 124.001C142.054 122.962 141.465 121.979 140.763 121.078C140.214 120.372 139.02 118.416 140.617 118.083C141.82 117.831 143.175 119.049 143.877 119.869Z" fill="white"/>
  <path opacity="0.5" d="M165.743 129.675C165.743 130.186 165.679 130.771 165.267 131.079C164.888 131.363 164.331 131.29 163.952 131.022C163.565 130.755 163.323 130.324 163.137 129.886C162.806 129.107 162.629 128.279 162.467 127.451C162.185 125.949 161.281 123.384 162.879 122.328C164.767 121.07 165.09 124.618 165.3 125.705C165.55 127.012 165.743 128.336 165.743 129.675Z" fill="white"/>
  <path opacity="0.5" d="M155.625 133.353C155.875 134.489 155.649 135.674 155.351 136.795C154.851 138.654 154.124 140.472 153.003 142.047C151.639 143.962 149.727 145.44 147.661 146.544C145.588 147.648 143.353 148.395 141.101 149.044C140.109 149.336 139.052 149.604 138.051 149.32C136.76 148.947 135.857 147.615 135.849 146.26C135.833 144.912 136.639 143.622 137.777 142.907C138.366 142.534 139.036 142.306 139.673 142.039C141.803 141.129 143.7 139.684 145.136 137.858C145.983 136.795 146.661 135.601 147.516 134.546C148.428 133.41 149.525 132.427 150.744 131.648C151.163 131.38 151.615 131.128 152.115 131.072C153.293 130.934 154.302 131.875 155.117 132.744" fill="white"/>
  <path opacity="0.5" d="M138.116 140.975C137.874 141.015 137.632 141.048 137.398 141.007C136.873 140.918 136.438 140.471 136.349 139.952C136.333 139.862 136.333 139.765 136.357 139.676C136.446 139.408 136.768 139.335 137.043 139.27C138.552 138.921 139.746 137.784 140.875 136.721C141.505 136.128 142.336 135.755 142.868 136.672C143.223 137.273 143.014 137.801 142.61 138.312C141.529 139.7 139.843 140.666 138.116 140.975Z" fill="white"/>
  <path d="M136.3 107.424L136.494 111.142C136.494 111.142 128.208 113.358 118.501 113.878C108.794 114.398 101.815 114.17 101.815 114.17L101.685 110.696C101.677 110.704 122.398 111.24 136.3 107.424Z" fill="white"/>
  <path opacity="0.5" d="M101.807 114.179L101.677 110.704C101.677 110.704 109.779 110.915 119.243 110.144C118.541 110.477 118.38 111.354 118.267 112.125C118.178 112.709 118.235 113.302 118.299 113.895C108.697 114.398 101.807 114.179 101.807 114.179Z" fill="#DB4D29"/>
  <path d="M133.186 104.583L133.218 107.034C133.218 107.034 125.206 108.309 117.492 108.999C109.778 109.689 104.469 109.705 104.469 109.705L104.316 106.888C104.308 106.888 130.676 103.868 133.186 104.583Z" fill="white"/>
  <path opacity="0.5" d="M104.461 109.705L104.308 106.889C104.308 106.889 113.53 105.833 121.583 105.119C122.035 106.069 122.051 107.489 122.212 108.52C120.671 108.699 119.074 108.861 117.484 109.007C109.77 109.689 104.461 109.705 104.461 109.705Z" fill="#DB4D29"/>
  <path d="M227.962 10.3289H243.881V25.3547H227.962V10.3289Z" fill="#DB4D29"/>
  <path d="M196.114 10.3289H212.034V25.3547H196.114V10.3289Z" fill="#DB4D29"/>
  <path d="M164.267 10.3289H180.186V25.3547H164.267V10.3289Z" fill="#DB4D29"/>
  <path d="M212.034 10.3289H227.953V25.3547H212.034V10.3289Z" fill="#FFC793"/>
  <path d="M180.194 10.3289H196.114V25.3547H180.194V10.3289Z" fill="#FFC793"/>
  <path d="M148.347 10.3289H164.267V25.3547H148.347V10.3289Z" fill="#FFC793"/>
  <path d="M132.427 10.3289H148.347V25.3547H132.427V10.3289Z" fill="#DB4D29"/>
  <path d="M219.998 40.3722C224.395 40.3722 227.962 36.7842 227.962 32.3601V25.3464H212.042V32.3601C212.034 36.7842 215.6 40.3722 219.998 40.3722Z" fill="#FFC793"/>
  <path d="M188.15 40.3722C192.548 40.3722 196.114 36.7842 196.114 32.3601V25.3464H180.194V32.3601C180.186 36.7842 183.753 40.3722 188.15 40.3722Z" fill="#FFC793"/>
  <path d="M156.311 40.3722C160.708 40.3722 164.275 36.7842 164.275 32.3601V25.3464H148.355V32.3601C148.347 36.7842 151.913 40.3722 156.311 40.3722Z" fill="#FFC793"/>
  <path d="M223.548 3.18518L227.953 10.3287H212.034L209.71 3.18518H223.548Z" fill="#FFC793"/>
  <path d="M194.888 3.18518L196.114 10.3287H180.186V3.18518H194.888Z" fill="#FFC793"/>
  <path d="M166.106 3.18518L164.267 10.3287H148.589L151.405 3.18518H166.106Z" fill="#FFC793"/>
  <g opacity="0.3">
    <path d="M219.998 40.3722C224.395 40.3722 227.962 36.7842 227.962 32.3601V25.3464H212.042V32.3601C212.034 36.7842 215.6 40.3722 219.998 40.3722Z" fill="#FFC793"/>
    <path d="M188.15 40.3722C192.548 40.3722 196.114 36.7842 196.114 32.3601V25.3464H180.194V32.3601C180.186 36.7842 183.753 40.3722 188.15 40.3722Z" fill="#FFC793"/>
    <path d="M156.311 40.3722C160.708 40.3722 164.275 36.7842 164.275 32.3601V25.3464H148.355V32.3601C148.347 36.7842 151.913 40.3722 156.311 40.3722Z" fill="#FFC793"/>
    <path d="M223.548 3.18518L227.953 10.3287H212.034L209.71 3.18518H223.548Z" fill="#FFC793"/>
    <path d="M194.888 3.18518L196.114 10.3287H180.186V3.18518H194.888Z" fill="#FFC793"/>
    <path d="M166.106 3.18518L164.267 10.3287H148.589L151.405 3.18518H166.106Z" fill="#FFC793"/>
  </g>
  <path d="M235.917 40.3722C240.315 40.3722 243.881 36.7842 243.881 32.3601V25.3464H227.962V32.3601C227.953 36.7842 231.52 40.3722 235.917 40.3722Z" fill="#DB4D29"/>
  <path d="M204.07 40.3722C208.467 40.3722 212.034 36.7842 212.034 32.3601V25.3464H196.114V32.3601C196.114 36.7842 199.681 40.3722 204.07 40.3722Z" fill="#DB4D29"/>
  <path d="M172.231 40.3722C176.628 40.3722 180.194 36.7842 180.194 32.3601V25.3464H164.275V32.3601C164.267 36.7842 167.833 40.3722 172.231 40.3722Z" fill="#DB4D29"/>
  <path d="M140.383 40.3722C144.781 40.3722 148.347 36.7842 148.347 32.3601V25.3464H132.427V32.3601C132.427 36.7842 135.986 40.3722 140.383 40.3722Z" fill="#DB4D29"/>
  <path d="M239.468 4.73566L243.881 10.3287H227.962L223.556 3.18518H236.28C237.523 3.18518 238.693 3.75342 239.468 4.73566Z" fill="#DB4D29"/>
  <path d="M209.71 3.18518L212.034 10.3287H196.114L194.888 3.18518H209.71Z" fill="#DB4D29"/>
  <path d="M138.842 3.18518H151.405L148.589 10.3287H132.427L135.292 5.25519C136.018 3.9726 137.374 3.18518 138.842 3.18518Z" fill="#DB4D29"/>
  <path d="M180.186 3.18518V10.3287H164.267L166.106 3.18518H180.186Z" fill="#DB4D29"/>
  <g opacity="0.3">
    <path d="M235.917 40.3722C240.315 40.3722 243.881 36.7842 243.881 32.3601V25.3464H227.962V32.3601C227.953 36.7842 231.52 40.3722 235.917 40.3722Z" fill="#EE7556"/>
    <path d="M204.07 40.3722C208.467 40.3722 212.034 36.7842 212.034 32.3601V25.3464H196.114V32.3601C196.114 36.7842 199.681 40.3722 204.07 40.3722Z" fill="#EE7556"/>
    <path d="M172.231 40.3722C176.628 40.3722 180.194 36.7842 180.194 32.3601V25.3464H164.275V32.3601C164.267 36.7842 167.833 40.3722 172.231 40.3722Z" fill="#EE7556"/>
    <path d="M140.383 40.3722C144.781 40.3722 148.347 36.7842 148.347 32.3601V25.3464H132.427V32.3601C132.427 36.7842 135.986 40.3722 140.383 40.3722Z" fill="#EE7556"/>
    <path d="M239.468 4.73566L243.881 10.3287H227.962L223.556 3.18518H236.28C237.523 3.18518 238.693 3.75342 239.468 4.73566Z" fill="#EE7556"/>
    <path d="M209.71 3.18518L212.034 10.3287H196.114L194.888 3.18518H209.71Z" fill="#EE7556"/>
    <path d="M138.842 3.18518H151.405L148.589 10.3287H132.427L135.292 5.25519C136.018 3.9726 137.374 3.18518 138.842 3.18518Z" fill="#EE7556"/>
    <path d="M180.186 3.18518V10.3287H164.267L166.106 3.18518H180.186Z" fill="#EE7556"/>
  </g>
  <path opacity="0.5" d="M177.572 13.2836C178.823 13.2917 180.138 13.3161 181.227 13.9249C182.325 14.5337 183.083 15.9462 182.559 17.0827C182.018 18.2516 180.517 18.5438 179.234 18.6656C167.26 19.8589 155.206 20.3054 143.175 19.9888C142.134 19.9644 140.98 19.8751 140.27 19.1202C139.746 18.5601 139.584 17.7321 139.633 16.969C139.818 14.2009 142.255 12.6179 144.74 12.8209C148.137 13.105 151.575 13.1131 155.012 13.1375C162.532 13.1862 170.052 13.2349 177.572 13.2836Z" fill="white"/>
  <path opacity="0.5" d="M194.686 13.86C195.283 13.9005 195.88 13.9411 196.453 14.0872C197.058 14.2415 197.72 14.6311 197.768 15.2562C197.809 15.7838 197.389 16.2303 196.945 16.5144C196.292 16.9366 195.525 17.1638 194.767 17.3424C193.242 17.6996 191.668 17.8944 190.103 17.9026C189.304 17.9107 188.481 17.8701 187.739 17.5616C187.126 17.31 186.537 16.7904 186.512 16.1248C186.496 15.5484 186.9 15.0451 187.36 14.7042C189.369 13.1943 192.37 13.7138 194.686 13.86Z" fill="white"/>
  <path opacity="0.5" d="M186.206 18.4711C186.722 18.5766 187.231 18.8283 187.529 19.2747C187.828 19.7131 187.852 20.3544 187.505 20.7603C187.352 20.9389 187.142 21.0606 186.924 21.158C186.149 21.5071 185.286 21.6045 184.447 21.572C183.922 21.5558 183.382 21.4828 182.93 21.2149C182.478 20.947 182.131 20.4437 182.188 19.916C182.349 18.2844 185.052 18.2357 186.206 18.4711Z" fill="white"/>
  <defs>
    <filter id="filter0_f_314_35812" x="0.0915365" y="203.511" width="264.672" height="43.0426" filterUnits="userSpaceOnUse" color-interpolation-filters="sRGB">
      <feFlood flood-opacity="0" result="BackgroundImageFix"/>
      <feBlend mode="normal" in="SourceGraphic" in2="BackgroundImageFix" result="shape"/>
      <feGaussianBlur stdDeviation="5.2447" result="effect1_foregroundBlur_314_35812"/>
    </filter>
  </defs>
</svg>