<svg width="24" height="24" viewBox="0 0 24 24" fill="none" xmlns="http://www.w3.org/2000/svg">
<path d="M18 23H6C5.73478 23 5.48043 22.8946 5.29289 22.7071C5.10536 22.5196 5 22.2652 5 22C5 21.7348 5.10536 21.4804 5.29289 21.2929C5.48043 21.1054 5.73478 21 6 21H18C18.2652 21 18.5196 21.1054 18.7071 21.2929C18.8946 21.4804 19 21.7348 19 22C19 22.2652 18.8946 22.5196 18.7071 22.7071C18.5196 22.8946 18.2652 23 18 23ZM23 6V14C23 14.6566 22.8707 15.3068 22.6194 15.9134C22.3681 16.52 21.9998 17.0712 21.5355 17.5355C21.0712 17.9998 20.52 18.3681 19.9134 18.6194C19.3068 18.8707 18.6566 19 18 19H6C5.34339 19 4.69321 18.8707 4.08658 18.6194C3.47995 18.3681 2.92876 17.9998 2.46447 17.5355C1.52678 16.5979 1 15.3261 1 14V6C1 4.67392 1.52678 3.40215 2.46447 2.46447C3.40215 1.52678 4.67392 1 6 1H18C18.6566 1 19.3068 1.12933 19.9134 1.3806C20.52 1.63188 21.0712 2.00017 21.5355 2.46447C21.9998 2.92876 22.3681 3.47995 22.6194 4.08658C22.8707 4.69321 23 5.34339 23 6ZM5 8C5 8.26522 5.10536 8.51957 5.29289 8.70711C5.48043 8.89464 5.73478 9 6 9H12C12.2652 9 12.5196 8.89464 12.7071 8.70711C12.8946 8.51957 13 8.26522 13 8C13 7.73478 12.8946 7.48043 12.7071 7.29289C12.5196 7.10536 12.2652 7 12 7H6C5.73478 7 5.48043 7.10536 5.29289 7.29289C5.10536 7.48043 5 7.73478 5 8ZM19 12C19 11.7348 18.8946 11.4804 18.7071 11.2929C18.5196 11.1054 18.2652 11 18 11H6C5.73478 11 5.48043 11.1054 5.29289 11.2929C5.10536 11.4804 5 11.7348 5 12C5 12.2652 5.10536 12.5196 5.29289 12.7071C5.48043 12.8946 5.73478 13 6 13H18C18.2652 13 18.5196 12.8946 18.7071 12.7071C18.8946 12.5196 19 12.2652 19 12Z" fill="black"/>
</svg>
