<svg width="24" height="24" viewBox="0 0 24 24" fill="none" xmlns="http://www.w3.org/2000/svg">
<path fill-rule="evenodd" clip-rule="evenodd" d="M20.2716 3.26137L20.2931 3.28289L20.7173 3.70715L20.7389 3.72867C21.1166 4.10637 21.4318 4.42162 21.6683 4.70022C21.915 4.99078 22.1198 5.29043 22.2367 5.65043C22.4162 6.20275 22.4162 6.7977 22.2367 7.35002C22.1198 7.71001 21.915 8.00966 21.6683 8.30023C21.4318 8.57882 21.1166 8.89408 20.7389 9.27178L20.7173 9.29329L20.2931 9.71756L20.2716 9.73907L20.2715 9.73909C19.8939 10.1168 19.5786 10.432 19.3 10.6685C19.0094 10.9152 18.7098 11.1199 18.3498 11.2369C17.7975 11.4164 17.2025 11.4164 16.6502 11.2369C16.2902 11.1199 15.9906 10.9152 15.7 10.6685C15.4214 10.432 15.1061 10.1167 14.7284 9.73907L14.7069 9.71756L14.2827 9.29329L14.2611 9.27178C13.8834 8.89408 13.5682 8.57882 13.3317 8.30023C13.085 8.00966 12.8802 7.71001 12.7633 7.35002C12.5838 6.7977 12.5838 6.20275 12.7633 5.65043C12.8802 5.29043 13.085 4.99078 13.3317 4.70022C13.5682 4.42162 13.8834 4.10637 14.2611 3.72867L14.2827 3.70715L14.7069 3.28289L14.7284 3.26137C15.1061 2.88365 15.4214 2.56839 15.7 2.33188C15.9906 2.0852 16.2902 1.88047 16.6502 1.7635C17.2025 1.58404 17.7975 1.58404 18.3498 1.7635C18.7098 1.88047 19.0094 2.0852 19.3 2.33188C19.5786 2.56839 19.8939 2.88365 20.2716 3.26137ZM6.16957 2.25018H6.2H6.8H6.83044C7.36459 2.25017 7.81044 2.25016 8.17467 2.27992C8.55456 2.31096 8.91121 2.37807 9.24848 2.54991C9.76592 2.81357 10.1866 3.23426 10.4503 3.75171C10.6221 4.08897 10.6892 4.44563 10.7203 4.82551C10.75 5.18974 10.75 5.63557 10.75 6.16971V6.16975V6.20018V6.80018V6.83061V6.83065C10.75 7.36479 10.75 7.81063 10.7203 8.17485C10.6892 8.55474 10.6221 8.91139 10.4503 9.24866C10.1866 9.7661 9.76592 10.1868 9.24848 10.4504C8.91121 10.6223 8.55456 10.6894 8.17467 10.7204C7.81044 10.7502 7.36459 10.7502 6.83043 10.7501H6.8H6.2H6.16957C5.63542 10.7502 5.18957 10.7502 4.82533 10.7204C4.44545 10.6894 4.08879 10.6223 3.75153 10.4504C3.23408 10.1868 2.81339 9.7661 2.54973 9.24866C2.37789 8.91139 2.31078 8.55474 2.27974 8.17485C2.24998 7.81063 2.24999 7.36479 2.25 6.83065V6.83064V6.83062V6.80018V6.20018V6.16975V6.16973V6.16971C2.24999 5.63558 2.24998 5.18974 2.27974 4.82551C2.31078 4.44563 2.37789 4.08897 2.54973 3.75171C2.81339 3.23426 3.23408 2.81357 3.75153 2.54991C4.08879 2.37807 4.44545 2.31096 4.82533 2.27992C5.18956 2.25016 5.63541 2.25017 6.16957 2.25018ZM6.2 13.2501H6.16957C5.63541 13.2501 5.18956 13.2501 4.82533 13.2799C4.44545 13.3109 4.08879 13.378 3.75153 13.5499C3.23408 13.8135 2.81339 14.2342 2.54973 14.7517C2.37789 15.0889 2.31078 15.4456 2.27974 15.8255C2.24998 16.1897 2.24999 16.6355 2.25 17.1697V17.2001V17.8001V17.8306C2.24999 18.3647 2.24998 18.8106 2.27974 19.1748C2.31078 19.5547 2.37789 19.9114 2.54973 20.2486C2.81339 20.7661 3.23408 21.1868 3.75153 21.4504C4.08879 21.6223 4.44545 21.6894 4.82533 21.7204C5.18955 21.7502 5.63537 21.7502 6.16949 21.7501H6.16957H6.2H6.8H6.83043H6.83051C7.36463 21.7502 7.81046 21.7502 8.17467 21.7204C8.55456 21.6894 8.91121 21.6223 9.24848 21.4504C9.76592 21.1868 10.1866 20.7661 10.4503 20.2486C10.6221 19.9114 10.6892 19.5547 10.7203 19.1748C10.75 18.8106 10.75 18.3647 10.75 17.8306V17.8001V17.2001V17.1697C10.75 16.6355 10.75 16.1897 10.7203 15.8255C10.6892 15.4456 10.6221 15.0889 10.4503 14.7517C10.1866 14.2342 9.76592 13.8135 9.24848 13.5499C8.91121 13.378 8.55456 13.3109 8.17467 13.2799C7.81044 13.2501 7.36459 13.2501 6.83044 13.2501H6.8H6.2ZM17.1696 13.2501H17.2H17.8H17.8304C18.3646 13.2501 18.8104 13.2501 19.1747 13.2799C19.5546 13.3109 19.9112 13.378 20.2485 13.5499C20.7659 13.8135 21.1866 14.2342 21.4503 14.7517C21.6221 15.0889 21.6892 15.4456 21.7203 15.8255C21.75 16.1897 21.75 16.6356 21.75 17.1697V17.2001V17.8001V17.8306C21.75 18.3647 21.75 18.8106 21.7203 19.1748C21.6892 19.5547 21.6221 19.9114 21.4503 20.2486C21.1866 20.7661 20.7659 21.1868 20.2485 21.4504C19.9112 21.6223 19.5546 21.6894 19.1747 21.7204C18.8105 21.7502 18.3646 21.7502 17.8305 21.7501H17.8304H17.8H17.2H17.1696H17.1695C16.6354 21.7502 16.1895 21.7502 15.8253 21.7204C15.4454 21.6894 15.0888 21.6223 14.7515 21.4504C14.2341 21.1868 13.8134 20.7661 13.5497 20.2486C13.3779 19.9114 13.3108 19.5547 13.2797 19.1748C13.25 18.8106 13.25 18.3647 13.25 17.8306V17.8001V17.2001V17.1697C13.25 16.6356 13.25 16.1897 13.2797 15.8255C13.3108 15.4456 13.3779 15.0889 13.5497 14.7517C13.8134 14.2342 14.2341 13.8135 14.7515 13.5499C15.0888 13.378 15.4454 13.3109 15.8253 13.2799C16.1896 13.2501 16.6354 13.2501 17.1696 13.2501Z" fill="black"/>
</svg>
