<svg width="24" height="24" viewBox="0 0 24 24" fill="none" xmlns="http://www.w3.org/2000/svg">
<g clipPath="url(#clip0_3593_196163)">
<path d="M8.88898 6.04452C6.06106 8.97041 6.67816 13.826 9.9175 15.977C10.0242 16.0479 10.1662 16.0338 10.2579 15.9443C10.9399 15.2779 11.5168 14.6325 12.022 13.8116C12.0992 13.686 12.0512 13.5231 11.9215 13.4528C11.4274 13.1851 10.9358 12.6832 10.659 12.153L10.6586 12.1532C10.3271 11.493 10.2142 10.7529 10.3897 9.98861C10.3899 9.98866 10.3901 9.98871 10.3903 9.98871C10.5923 9.01018 11.6428 8.09993 12.4451 7.2581C12.4435 7.25753 12.4418 7.25692 12.4401 7.25636L15.4463 4.18815C16.6443 2.96543 18.6149 2.95534 19.8253 4.16578C21.048 5.36373 21.0682 7.34424 19.8702 8.56692L18.0494 10.4394C17.9651 10.526 17.9377 10.6525 17.9772 10.7668C18.3964 11.9825 18.4996 13.6968 18.2186 14.992C18.2107 15.0282 18.2555 15.052 18.2814 15.0255L22.1568 11.0701C24.6325 8.54333 24.6115 4.42943 22.1101 1.92809C19.5574 -0.624601 15.4018 -0.603357 12.8753 1.97522L8.9045 6.02792C8.89925 6.03345 8.89428 6.03908 8.88898 6.04452Z" fill="black"/>
<path d="M16.134 16.5346C16.1339 16.5348 16.1338 16.5349 16.1338 16.535C16.1363 16.534 16.1386 16.533 16.1411 16.5319C16.932 15.0857 17.0877 13.4271 16.717 11.8101L16.7153 11.8119L16.7135 11.8111C16.3615 10.3709 15.3958 8.9409 14.0842 8.06042C13.9714 7.98469 13.7912 7.99346 13.6855 8.0789C13.0211 8.6161 12.3708 9.30495 11.9417 10.184C11.8743 10.322 11.9248 10.4878 12.0576 10.5649C12.5556 10.854 13.0053 11.2773 13.3064 11.8393L13.3069 11.8389C13.5416 12.2359 13.7728 12.9891 13.623 13.7985C13.6229 13.7985 13.6228 13.7985 13.6227 13.7985C13.483 14.8715 12.3994 15.8558 11.538 16.7427L11.5384 16.7431C10.8827 17.4136 9.21589 19.1128 8.54846 19.7947C7.3505 21.0174 5.36999 21.0376 4.14732 19.8396C2.92465 18.6417 2.90444 16.6611 4.10239 15.4385L5.92866 13.5604C6.01144 13.4753 6.03957 13.3516 6.00276 13.2387C5.59725 11.9945 5.48615 10.3188 5.74211 9.02512C5.74924 8.98906 5.70488 8.96603 5.67913 8.99229L1.86203 12.8882C-0.639023 15.4409 -0.617826 19.597 1.90921 22.124C4.46176 24.6249 8.59644 24.5827 11.0974 22.0301C11.9662 21.0583 15.6855 17.6147 16.134 16.5346Z" fill="black"/>
</g>
<defs>
<clipPath id="clip0_3593_196163">
<rect width="24" height="24" fill="white"/>
</clipPath>
</defs>
</svg>
