<svg width="24" height="24" viewBox="0 0 24 24" fill="none" xmlns="http://www.w3.org/2000/svg">
<g id="vuesax/bold/location">
<path id="Vector" d="M20.6195 8.45C19.5695 3.83 15.5395 1.75 11.9995 1.75C11.9995 1.75 11.9995 1.75 11.9895 1.75C8.45955 1.75 4.41955 3.82 3.36955 8.44C2.19955 13.6 5.35955 17.97 8.21955 20.72C9.27955 21.74 10.6395 22.25 11.9995 22.25C13.3595 22.25 14.7195 21.74 15.7695 20.72C18.6295 17.97 21.7895 13.61 20.6195 8.45ZM11.9995 13.46C10.2595 13.46 8.84955 12.05 8.84955 10.31C8.84955 8.57 10.2595 7.16 11.9995 7.16C13.7395 7.16 15.1495 8.57 15.1495 10.31C15.1495 12.05 13.7395 13.46 11.9995 13.46Z" fill="#DB4D29"/>
</g>
</svg>
