<svg xmlns="http://www.w3.org/2000/svg" width="80" height="80" viewBox="0 0 80 80" fill="none">
  <path d="M49.1734 55.0422L30.8281 55.0438C14.8906 56.0875 3.10938 59.7953 3.10938 64.2078C3.10938 69.4328 19.6266 73.6688 40 73.6688C60.3734 73.6688 76.8906 69.4328 76.8906 64.2078C76.8906 59.7953 65.1094 56.0891 49.1734 55.0422Z" fill="#DAE9F4"/>
  <path d="M9.35938 64.2078C9.35938 59.7953 21.1406 56.0875 37.0781 55.0437L49.1813 55.0426H49.1734L30.8281 55.0442C14.8906 56.088 3.10938 59.7958 3.10938 64.2083C3.10938 69.4333 19.6266 73.6692 40 73.6692C41.0528 73.6692 42.0945 73.6579 43.125 73.6351C24.2144 73.2276 9.35938 69.1628 9.35938 64.2078Z" fill="#BCCEE2"/>
  <path d="M30.8281 55.0438C24.0813 48.9047 16.0797 39.4625 16.0797 29.1984C16.0797 16.5719 26.8125 6.33125 40 6.33125C53.1875 6.33125 63.9203 16.5719 63.9203 29.1984C63.9203 39.4609 55.9203 48.9031 49.1735 55.0422C44.2531 59.5172 40 62.2375 40 62.2375C40 62.2375 35.7469 59.5188 30.8281 55.0438ZM51.3828 28.9203C51.3825 26.6691 50.7147 24.4685 49.4637 22.5968C48.2128 20.7251 46.4349 19.2664 44.355 18.4051C42.275 17.5438 39.9863 17.3186 37.7784 17.758C35.5704 18.1974 33.5424 19.2816 31.9506 20.8736C30.3588 22.4655 29.2749 24.4938 28.8358 26.7018C28.3967 28.9098 28.6222 31.1984 29.4838 33.2783C30.3454 35.3581 31.8044 37.1358 33.6762 38.3864C35.5481 39.6371 37.7488 40.3047 40 40.3047C41.4949 40.3046 42.9752 40.01 44.3563 39.4379C45.7374 38.8657 46.9922 38.0271 48.0492 36.97C49.1062 35.9128 49.9446 34.6578 50.5166 33.2767C51.0886 31.8955 51.3829 30.4152 51.3828 28.9203Z" fill="#EB7288"/>
  <path d="M20.7672 29.1984C20.7672 17.3291 30.2516 7.5689 42.3438 6.44093C41.5723 6.36906 40.7911 6.3326 40 6.33156C26.8125 6.33156 16.0797 16.5722 16.0797 29.1987C16.0797 39.4628 24.0813 48.905 30.8281 55.0441C35.7469 59.5191 40 62.2378 40 62.2378C40 62.2378 40.8978 61.6631 42.3438 60.6102C39.9699 58.8781 37.6906 57.0201 35.5156 55.0441C28.7688 48.9047 20.7672 39.4625 20.7672 29.1984Z" fill="#D3627A"/>
  <path d="M29.9982 12.6151L30.8732 14.2736C31.7143 13.8299 32.5871 13.4491 33.4843 13.1342L32.8632 11.365C31.8788 11.7107 30.9212 12.1286 29.9982 12.6151Z" fill="white"/>
  <path d="M19.2188 30H21.0937C21.0937 24.375 23.9658 18.9198 28.7766 15.5258L27.6956 13.9775C22.3877 17.7223 19.2188 23.75 19.2188 30Z" fill="white"/>
</svg>