<svg width="24" height="25" viewBox="0 0 24 25" fill="none" xmlns="http://www.w3.org/2000/svg">
<path d="M18.75 8.76904V10.869C18.31 10.809 17.81 10.779 17.25 10.769V8.76904C17.25 5.61904 16.36 3.51904 12 3.51904C7.64 3.51904 6.75 5.61904 6.75 8.76904V10.769C6.19 10.779 5.69 10.809 5.25 10.869V8.76904C5.25 5.86904 5.95 2.01904 12 2.01904C18.05 2.01904 18.75 5.86904 18.75 8.76904Z" fill="#282828"/>
<path d="M18.75 10.869C18.31 10.809 17.81 10.779 17.25 10.769H6.75C6.19 10.779 5.69 10.809 5.25 10.869C2.7 11.179 2 12.429 2 15.769V17.769C2 21.769 3 22.769 7 22.769H17C21 22.769 22 21.769 22 17.769V15.769C22 12.429 21.3 11.179 18.75 10.869ZM8.71 17.479C8.52 17.659 8.26 17.769 8 17.769C7.87 17.769 7.74 17.739 7.62 17.689C7.49 17.639 7.39 17.569 7.29 17.479C7.11 17.289 7 17.029 7 16.769C7 16.639 7.03 16.509 7.08 16.389C7.13 16.269 7.2 16.159 7.29 16.059C7.39 15.969 7.49 15.899 7.62 15.849C7.99 15.689 8.43 15.779 8.71 16.059C8.8 16.159 8.87 16.269 8.92 16.389C8.97 16.509 9 16.639 9 16.769C9 17.029 8.89 17.289 8.71 17.479ZM12.92 17.149C12.87 17.269 12.8 17.379 12.71 17.479C12.52 17.659 12.26 17.769 12 17.769C11.73 17.769 11.48 17.659 11.29 17.479C11.2 17.379 11.13 17.269 11.08 17.149C11.03 17.029 11 16.899 11 16.769C11 16.499 11.11 16.249 11.29 16.059C11.66 15.689 12.33 15.689 12.71 16.059C12.89 16.249 13 16.499 13 16.769C13 16.899 12.97 17.029 12.92 17.149ZM16.71 17.479C16.52 17.659 16.26 17.769 16 17.769C15.74 17.769 15.48 17.659 15.29 17.479C15.11 17.289 15 17.039 15 16.769C15 16.499 15.11 16.249 15.29 16.059C15.67 15.689 16.34 15.689 16.71 16.059C16.75 16.109 16.79 16.159 16.83 16.219C16.87 16.269 16.9 16.329 16.92 16.389C16.95 16.449 16.97 16.509 16.98 16.569C16.99 16.639 17 16.709 17 16.769C17 17.029 16.89 17.289 16.71 17.479Z" fill="#282828"/>
</svg>
