<svg width="24" height="24" viewBox="0 0 24 24" fill="none" xmlns="http://www.w3.org/2000/svg">
<path d="M9.41315 7.37708H14.2118C14.3064 7.37518 14.398 7.3436 14.4737 7.2868C14.5495 7.23001 14.6054 7.15087 14.6337 7.06055C14.6054 6.97024 14.5495 6.89109 14.4737 6.8343C14.398 6.7775 14.3064 6.74592 14.2118 6.74402H9.41315C9.31852 6.74592 9.22689 6.7775 9.15118 6.8343C9.07547 6.89109 9.01951 6.97024 8.99121 7.06055C9.01951 7.15087 9.07547 7.23001 9.15118 7.2868C9.22689 7.3436 9.31852 7.37518 9.41315 7.37708Z" fill="#A80132"/>
<path d="M9.41315 6.4275H14.2118C14.3064 6.42559 14.398 6.39401 14.4737 6.33722C14.5495 6.28042 14.6054 6.20128 14.6337 6.11097C14.6054 6.02065 14.5495 5.94151 14.4737 5.88471C14.398 5.82792 14.3064 5.79634 14.2118 5.79443H9.41315C9.31852 5.79634 9.22689 5.82792 9.15118 5.88471C9.07547 5.94151 9.01951 6.02065 8.99121 6.11097C9.01951 6.20128 9.07547 6.28042 9.15118 6.33722C9.22689 6.39401 9.31852 6.42559 9.41315 6.4275Z" fill="#A80132"/>
<path d="M8.75396 3.03115C8.7777 3.04729 8.80271 3.0628 8.83024 3.07926C8.84164 3.08591 8.85367 3.09224 8.8657 3.09889C8.89735 3.11535 8.929 3.13054 8.96414 3.14795C8.97458 3.15302 8.98535 3.15808 8.99579 3.16283C9.25061 3.26921 9.51582 3.34878 9.78712 3.40023L9.79852 3.40244C9.88082 3.41922 9.9666 3.4341 10.0565 3.44992C10.6373 3.54017 11.2245 3.58325 11.8123 3.57875C13.5596 3.57875 14.6611 3.26222 14.9776 2.94569C14.9776 2.94569 14.3446 2.31262 11.8123 2.31262C9.28004 2.31262 8.64697 2.94569 8.64697 2.94569C8.67174 2.96969 8.69819 2.9919 8.72611 3.01216C8.73465 3.01849 8.74478 3.02482 8.75396 3.03115Z" fill="#DE8800"/>
<path d="M8.99552 3.16283C8.98444 3.15808 8.97368 3.15301 8.96387 3.14795C8.97526 3.15301 8.98539 3.15808 8.99552 3.16283Z" fill="#FFC608"/>
<path d="M10.0571 3.44991L10.1666 3.83197C10.2758 4.21489 10.5068 4.55181 10.8245 4.7917C11.1423 5.03159 11.5297 5.16138 11.9278 5.1614H13.3095C13.6975 5.15989 14.0727 5.02196 14.3692 4.77175L14.9779 2.94568C14.6614 3.26221 13.5599 3.57874 11.8126 3.57874C11.2249 3.58323 10.6379 3.54014 10.0571 3.44991Z" fill="#FFC608"/>
<path d="M13.4143 7.69373H11.4987C10.2165 8.41954 9.15591 9.48051 8.43058 10.763C7.70526 12.0455 7.34252 13.5011 7.38122 14.974C7.38122 20.9881 19.726 20.0385 19.726 17.1897C19.726 14.898 17.0165 9.11179 13.4143 7.69373Z" fill="#FFC608"/>
<path d="M8.83019 3.07936C8.80265 3.06354 8.77765 3.04771 8.75391 3.03125C8.77765 3.04739 8.80265 3.06354 8.83019 3.07936Z" fill="#F09413"/>
<path d="M10.0568 3.44995C9.96691 3.43539 9.88113 3.41829 9.79883 3.40247C9.88144 3.42051 9.96691 3.43539 10.0568 3.44995Z" fill="#F09413"/>
<path d="M8.96368 3.14794C8.92854 3.1318 8.89594 3.11629 8.86523 3.09888C8.89625 3.11534 8.92917 3.1318 8.96368 3.14794Z" fill="#F09413"/>
<path d="M21.6248 9.90944L20.5707 10.4381L20.0421 11.4921L19.5135 10.4381L18.4595 9.90944L19.5135 9.38083L20.0421 8.32678L20.5707 9.38083L21.6248 9.90944Z" fill="#FF9C00"/>
<path d="M5.16532 6.11098L4.11127 6.63959L3.58266 7.69364L3.05405 6.63959L2 6.11098L3.05405 5.58237L3.58266 4.52832L4.11127 5.58237L5.16532 6.11098Z" fill="#FF9C00"/>
<path d="M14.7375 14.5782C14.6871 14.7041 14.6613 14.8384 14.6615 14.9739V19.4149C14.3481 19.4244 14.0316 19.4244 13.7119 19.4085V15.9235C13.7119 15.3981 14.1044 14.9233 14.7375 14.5782Z" fill="#F09413"/>
<path d="M14.6336 7.06056C14.6053 6.97025 14.5493 6.89111 14.4736 6.83431C14.3979 6.77751 14.3063 6.74593 14.2116 6.74403C14.3341 6.74047 14.4502 6.6885 14.5345 6.5995C14.6187 6.5105 14.6643 6.39174 14.6611 6.26923C14.6606 6.21533 14.6513 6.16186 14.6336 6.11097C14.6053 6.02065 14.5493 5.94151 14.4736 5.88471C14.3979 5.82792 14.3063 5.79634 14.2116 5.79443H9.41301C9.31838 5.79634 9.22675 5.82792 9.15104 5.88471C9.07533 5.94151 9.01937 6.02065 8.99107 6.11097C8.9733 6.16186 8.964 6.21533 8.96353 6.26923C8.96038 6.39174 9.00592 6.5105 9.09017 6.5995C9.17442 6.6885 9.29051 6.74047 9.41301 6.74403C9.31838 6.74593 9.22675 6.77751 9.15104 6.83431C9.07533 6.89111 9.01937 6.97025 8.99107 7.06056C8.9733 7.11146 8.964 7.16492 8.96353 7.21883C8.96038 7.34134 9.00592 7.4601 9.09017 7.5491C9.17442 7.63809 9.29051 7.69007 9.41301 7.69363H14.2116C14.3341 7.69007 14.4502 7.63809 14.5345 7.5491C14.6187 7.4601 14.6643 7.34134 14.6611 7.21883C14.6606 7.16492 14.6513 7.11146 14.6336 7.06056Z" fill="#A80132"/>
<path d="M14.3554 3.26601C13.5303 3.02468 12.6719 2.91654 11.8127 2.94568C10.9535 2.91654 10.0952 3.02468 9.27002 3.26601C10.0972 3.49652 10.9543 3.60193 11.8127 3.57875C12.6711 3.60193 13.5282 3.49652 14.3554 3.26601Z" fill="#C97C10"/>
<path d="M13.7622 6.74403H14.2116C14.3341 6.74046 14.4502 6.68849 14.5345 6.5995C14.6187 6.5105 14.6643 6.39174 14.6611 6.26923C14.6606 6.21532 14.6513 6.16186 14.6336 6.11096C14.6053 6.20128 14.5493 6.28042 14.4736 6.33721C14.3979 6.39401 14.3063 6.42559 14.2116 6.42749H9.41301C9.31838 6.42559 9.22675 6.39401 9.15104 6.33721C9.07533 6.28042 9.01937 6.20128 8.99107 6.11096C8.9733 6.16186 8.964 6.21532 8.96353 6.26923C8.96038 6.39174 9.00592 6.5105 9.09017 6.5995C9.17442 6.68849 9.29051 6.74046 9.41301 6.74403H13.7622Z" fill="#7D0126"/>
<path d="M13.414 7.69361H14.2116C14.3341 7.69005 14.4502 7.63808 14.5345 7.54908C14.6187 7.46009 14.6643 7.34132 14.6611 7.21881C14.6606 7.16491 14.6513 7.11144 14.6336 7.06055C14.6053 7.15086 14.5493 7.23 14.4736 7.2868C14.3979 7.3436 14.3063 7.37518 14.2116 7.37708H9.41301C9.31838 7.37518 9.22675 7.3436 9.15104 7.2868C9.07533 7.23 9.01937 7.15086 8.99107 7.06055C8.9733 7.11144 8.964 7.16491 8.96353 7.21881C8.96038 7.34132 9.00592 7.46009 9.09017 7.54908C9.17442 7.63808 9.29051 7.69005 9.41301 7.69361H13.414Z" fill="#7D0126"/>
<path d="M13.7621 5.79447H14.028L14.3689 4.77175C14.0723 5.02196 13.6972 5.15989 13.3092 5.1614H11.9275C11.5293 5.16138 11.142 5.03159 10.8242 4.7917C10.5064 4.55181 10.2755 4.21489 10.1663 3.83197L10.0568 3.44897C9.96691 3.4344 9.88113 3.41731 9.79883 3.40149L9.78649 3.40022C9.51519 3.34877 9.24998 3.26921 8.99516 3.16282C8.98376 3.15807 8.97363 3.15301 8.9635 3.14794C8.92837 3.1318 8.89545 3.11629 8.86506 3.09888C8.85303 3.09223 8.84101 3.0859 8.82961 3.07926C8.80207 3.06343 8.77707 3.0476 8.75333 3.03114C8.74415 3.02481 8.73402 3.01848 8.72547 3.01215C8.69777 2.99187 8.67154 2.96966 8.64697 2.94568L9.59657 5.79447H13.7621Z" fill="#F09413"/>
<path d="M7.38127 14.974C7.34257 13.5011 7.70531 12.0455 8.43063 10.763C9.15595 9.48051 10.2165 8.41954 11.4987 7.69373H10.2111C6.60893 9.11179 3.89941 14.898 3.89941 17.1897C3.89941 19.8106 7.44141 21.9377 11.8127 21.9377C16.184 21.9377 19.726 19.8106 19.726 17.1897C19.726 20.0385 7.38127 20.9881 7.38127 14.974Z" fill="#FF9C00"/>
<path d="M15.6109 4.52837C15.5483 4.52836 15.4871 4.50978 15.4351 4.475C15.383 4.44022 15.3425 4.39079 15.3185 4.33296C15.2946 4.27513 15.2883 4.21149 15.3005 4.1501C15.3127 4.08871 15.3429 4.03232 15.3871 3.98805L17.2863 2.08885C17.346 2.0312 17.426 1.99929 17.509 2.00001C17.5919 2.00073 17.6713 2.03402 17.73 2.09271C17.7887 2.1514 17.822 2.23079 17.8227 2.31378C17.8234 2.39678 17.7915 2.47673 17.7339 2.53643L15.8347 4.43562C15.7753 4.49499 15.6948 4.52835 15.6109 4.52837Z" fill="#FFC608"/>
<path d="M15.6109 6.42757C15.5429 6.42765 15.4767 6.40586 15.4221 6.36541C15.3675 6.32496 15.3273 6.268 15.3076 6.20296C15.2878 6.13793 15.2896 6.06826 15.3125 6.00428C15.3354 5.94029 15.3783 5.88539 15.4349 5.84768L19.2333 3.31542C19.2678 3.29235 19.3066 3.27632 19.3474 3.26824C19.3882 3.26016 19.4302 3.2602 19.4709 3.26834C19.5117 3.27648 19.5505 3.29257 19.585 3.31569C19.6196 3.33882 19.6492 3.36852 19.6723 3.4031C19.6954 3.43769 19.7114 3.47648 19.7195 3.51726C19.7276 3.55804 19.7275 3.60001 19.7194 3.64078C19.7112 3.68155 19.6951 3.72031 19.672 3.75486C19.6489 3.78941 19.6192 3.81906 19.5846 3.84213L15.7862 6.37439C15.7343 6.40902 15.6733 6.42752 15.6109 6.42757Z" fill="#FFC608"/>
<path d="M8.01408 4.52837C7.93014 4.52835 7.84964 4.49499 7.79029 4.43562L5.8911 2.53643C5.83344 2.47673 5.80154 2.39678 5.80226 2.31378C5.80298 2.23079 5.83627 2.1514 5.89496 2.09271C5.95364 2.03402 6.03303 2.00073 6.11603 2.00001C6.19902 1.99929 6.27898 2.0312 6.33868 2.08885L8.23787 3.98805C8.28212 4.03232 8.31226 4.08871 8.32447 4.1501C8.33668 4.21149 8.33041 4.27513 8.30646 4.33296C8.2825 4.39079 8.24194 4.44022 8.1899 4.475C8.13786 4.50978 8.07668 4.52836 8.01408 4.52837Z" fill="#FFC608"/>
<path d="M8.01406 6.42757C7.95164 6.42752 7.89063 6.40902 7.8387 6.37439L4.04031 3.84213C3.97046 3.79554 3.92199 3.72311 3.90554 3.64078C3.8974 3.60001 3.89737 3.55804 3.90545 3.51726C3.91353 3.47648 3.92956 3.43769 3.95263 3.4031C3.9757 3.36852 4.00536 3.33882 4.03991 3.3157C4.07445 3.29257 4.11322 3.27648 4.15399 3.26834C4.23632 3.2519 4.32182 3.26883 4.39166 3.31543L8.19005 5.84768C8.2466 5.88539 8.28951 5.9403 8.31243 6.00428C8.33535 6.06826 8.33707 6.13793 8.31733 6.20296C8.2976 6.268 8.25745 6.32496 8.20283 6.36541C8.14821 6.40586 8.08202 6.42765 8.01406 6.42757Z" fill="#FFC608"/>
<path d="M13.0965 14.9454L12.1292 14.4618V11.8086H12.7622V12.1251H13.3953V11.4921C13.3953 11.4081 13.3619 11.3276 13.3026 11.2683C13.2432 11.2089 13.1627 11.1755 13.0788 11.1755H12.1292V10.5425H11.4961V11.1755H11.2828C10.9029 11.1755 10.5343 11.3037 10.2364 11.5394C9.93857 11.7751 9.72905 12.1044 9.64178 12.4741C9.55452 12.8437 9.59463 13.232 9.75562 13.576C9.91661 13.92 10.189 14.1995 10.5288 14.3694L11.4961 14.853V17.5062H10.23V17.1897H9.5969V17.8227C9.5969 17.9067 9.63025 17.9872 9.68961 18.0465C9.74897 18.1059 9.82949 18.1393 9.91344 18.1393H11.4961V18.7723H12.1292V18.1393H12.3425C12.7223 18.1393 13.091 18.0111 13.3888 17.7754C13.6867 17.5397 13.8962 17.2104 13.9835 16.8407C14.0707 16.4711 14.0306 16.0828 13.8696 15.7388C13.7086 15.3948 13.4362 15.1153 13.0965 14.9454ZM10.8118 13.8028C10.5998 13.6966 10.4298 13.522 10.3294 13.3073C10.229 13.0925 10.204 12.8501 10.2585 12.6194C10.313 12.3887 10.4438 12.1831 10.6297 12.0359C10.8156 11.8888 11.0457 11.8087 11.2828 11.8086H11.4961V14.1453L10.8118 13.8028ZM12.3425 17.5062H12.1292V15.1695L12.8135 15.512C13.0255 15.6182 13.1954 15.7928 13.2958 16.0075C13.3963 16.2223 13.4212 16.4647 13.3667 16.6954C13.3122 16.9261 13.1815 17.1317 12.9956 17.2789C12.8097 17.426 12.5796 17.5061 12.3425 17.5062Z" fill="#FFDF75"/>
<path d="M12.1289 18.1392V18.4453C12.3693 18.4307 12.6038 18.3644 12.8163 18.2509C13.0288 18.1375 13.2143 17.9795 13.3602 17.7878C13.0691 18.0143 12.7111 18.1378 12.3422 18.1392H12.1289Z" fill="#FFAA00"/>
<path d="M11.496 18.1393H9.91334C9.82939 18.1393 9.74888 18.1059 9.68952 18.0466C9.63015 17.9872 9.59681 17.9067 9.59681 17.8228V17.5062H9.28027V18.1393C9.28027 18.2232 9.31362 18.3038 9.37298 18.3631C9.43234 18.4225 9.51286 18.4558 9.59681 18.4558H11.1795V19.0889H11.8125V18.7724H11.496V18.1393Z" fill="#FFAA00"/>
<path d="M12.762 11.8086H12.1289V12.1251H12.4454V12.4417H13.0785V12.1251H12.762V11.8086Z" fill="#FFAA00"/>
<path d="M11.4957 11.1755V10.859H11.1792V11.186C11.214 11.1838 11.2469 11.1755 11.2824 11.1755H11.4957Z" fill="#FFAA00"/>
<path d="M11.496 14.853L10.5287 14.3693C10.3063 14.2594 10.1111 14.1014 9.95727 13.9068C9.80344 13.7122 9.69481 13.4858 9.63925 13.244C9.58369 13.0023 9.58258 12.7512 9.636 12.5089C9.68943 12.2667 9.79605 12.0394 9.94815 11.8434C9.71971 12.0156 9.5391 12.2433 9.42346 12.5049C9.30783 12.7665 9.26101 13.0534 9.28746 13.3382C9.31392 13.6231 9.41276 13.8964 9.5746 14.1323C9.73644 14.3681 9.9559 14.5587 10.2121 14.6858L11.1795 15.1695V17.5061H11.496V14.853Z" fill="#FFAA00"/>
<path d="M10.3984 12.2938C10.5674 12.184 10.7645 12.1254 10.966 12.1251H11.1793V13.987L11.4959 14.1452V11.8086H11.2825C11.1063 11.8089 10.933 11.8535 10.7785 11.9383C10.624 12.0231 10.4933 12.1454 10.3984 12.2938Z" fill="#FFAA00"/>
<path d="M13.395 16.4533C13.3957 16.2577 13.3415 16.0658 13.2387 15.8995C13.1358 15.7331 12.9885 15.5988 12.8132 15.5119L12.1289 15.1694V15.6442L12.4967 15.8281C12.6289 15.894 12.7457 15.9871 12.8394 16.1013C12.9331 16.2154 13.0016 16.3481 13.0404 16.4906C13.0793 16.6331 13.0876 16.7822 13.0648 16.9281C13.042 17.074 12.9887 17.2135 12.9082 17.3374C13.057 17.2427 13.1795 17.112 13.2646 16.9575C13.3497 16.8031 13.3945 16.6297 13.395 16.4533Z" fill="#FFAA00"/>
<path d="M14.6615 20.0384V14.9739C14.6613 14.8384 14.6871 14.7041 14.7375 14.5782C14.1044 14.9233 13.7119 15.3981 13.7119 15.9235V20.988C13.7182 21.2683 13.8211 21.5377 14.0031 21.7509C14.5541 21.6599 15.0971 21.5255 15.6269 21.3489C15.0287 21.0102 14.6615 20.548 14.6615 20.0384Z" fill="#FF9C00"/>
<path d="M13.7752 15.5638C13.7338 15.6792 13.7124 15.8008 13.7119 15.9234V17.4295C13.9061 17.1598 14.0157 16.8384 14.027 16.5063C14.0383 16.1741 13.9507 15.8461 13.7752 15.5638Z" fill="#FFC052"/>
<path d="M21.6248 18.7723V20.0385C21.6248 21.0862 20.0675 21.9377 18.143 21.9377C16.2185 21.9377 14.6611 21.0862 14.6611 20.0385V18.7723C14.6611 19.8201 16.2185 20.6715 18.143 20.6715C20.0675 20.6715 21.6248 19.8201 21.6248 18.7723Z" fill="#FFCB52"/>
<path d="M21.6248 16.24V17.5061C21.6248 18.5538 20.0675 19.4053 18.143 19.4053C16.2185 19.4053 14.6611 18.5538 14.6611 17.5061V16.24C14.6611 17.2877 16.2185 18.1392 18.143 18.1392C20.0675 18.1392 21.6248 17.2877 21.6248 16.24Z" fill="#FFCB52"/>
<path d="M21.6248 17.5062V18.7724C21.6248 19.8201 20.0675 20.6715 18.143 20.6715C16.2185 20.6715 14.6611 19.8201 14.6611 18.7724V17.5062C14.6611 18.5539 16.2185 19.4054 18.143 19.4054C20.0675 19.4054 21.6248 18.5539 21.6248 17.5062Z" fill="#F09413"/>
<path d="M21.6248 14.9739V16.24C21.6248 17.2877 20.0675 18.1392 18.143 18.1392C16.2185 18.1392 14.6611 17.2877 14.6611 16.24V14.9739C14.6611 16.0216 16.2185 16.8731 18.143 16.8731C20.0675 16.8731 21.6248 16.0216 21.6248 14.9739Z" fill="#F09413"/>
<path d="M21.6248 14.9739C21.6248 16.0216 20.0675 16.8731 18.143 16.8731C16.2185 16.8731 14.6611 16.0216 14.6611 14.9739C14.6611 13.9262 16.2185 13.0747 18.143 13.0747C20.0675 13.0747 21.6248 13.9262 21.6248 14.9739ZM20.3587 14.9739C20.3587 14.4485 19.368 14.0243 18.143 14.0243C16.918 14.0243 15.9273 14.4485 15.9273 14.9739C15.9273 15.4993 16.918 15.9235 18.143 15.9235C19.368 15.9235 20.3587 15.4993 20.3587 14.9739Z" fill="#FFC052"/>
<path d="M18.143 15.9235C19.3667 15.9235 20.3587 15.4983 20.3587 14.9739C20.3587 14.4494 19.3667 14.0243 18.143 14.0243C16.9193 14.0243 15.9272 14.4494 15.9272 14.9739C15.9272 15.4983 16.9193 15.9235 18.143 15.9235Z" fill="#FFDF75"/>
<path d="M20.3587 14.9739C20.3592 15.0283 20.3485 15.0822 20.3271 15.1322C20.153 14.6827 19.2414 14.3408 18.143 14.3408C17.0446 14.3408 16.133 14.6827 15.9589 15.1322C15.9375 15.0822 15.9267 15.0283 15.9273 14.9739C15.9273 14.4484 16.918 14.0243 18.143 14.0243C19.368 14.0243 20.3587 14.4484 20.3587 14.9739Z" fill="#C97C10"/>
<path d="M21.6248 15.6069V16.24C21.6248 17.2877 20.0675 18.1392 18.143 18.1392C17.3823 18.1506 16.6276 18.0029 15.9273 17.7056C15.1549 17.3574 14.6611 16.8288 14.6611 16.24V14.9739C14.6611 15.5626 15.1549 16.0912 15.9273 16.4394C15.9263 16.6352 15.9895 16.8259 16.1073 16.9822C16.2251 17.1386 16.3909 17.252 16.5793 17.3051C17.0893 17.4411 17.6152 17.5087 18.143 17.5061C20.0675 17.5061 21.6248 16.6547 21.6248 15.6069Z" fill="#DE8800"/>
<path d="M21.6248 16.8731V17.5061C21.6248 18.5538 20.0675 19.4053 18.143 19.4053C17.3823 19.4167 16.6276 19.269 15.9273 18.9717C15.1549 18.6235 14.6611 18.0949 14.6611 17.5061V16.24C14.6611 16.8287 15.1549 17.3573 15.9273 17.7055C15.9263 17.9013 15.9895 18.092 16.1073 18.2483C16.2251 18.4047 16.3909 18.5181 16.5793 18.5713C17.0893 18.7073 17.6152 18.7748 18.143 18.7722C20.0675 18.7722 21.6248 17.9208 21.6248 16.8731Z" fill="#DE8800"/>
<path d="M21.6248 18.1393V18.7724C21.6248 19.8201 20.0675 20.6715 18.143 20.6715C17.3823 20.6829 16.6276 20.5352 15.9273 20.2379C15.1549 19.8897 14.6611 19.3611 14.6611 18.7724V17.5062C14.6611 18.095 15.1549 18.6236 15.9273 18.9718C15.9263 19.1675 15.9895 19.3582 16.1073 19.5146C16.2251 19.6709 16.3909 19.7844 16.5793 19.8375C17.0893 19.9735 17.6152 20.0411 18.143 20.0385C20.0675 20.0385 21.6248 19.187 21.6248 18.1393Z" fill="#DE8800"/>
<path d="M21.6248 19.4054V20.0385C21.6248 21.0862 20.0675 21.9377 18.143 21.9377C17.3823 21.949 16.6276 21.8013 15.9273 21.504C15.1549 21.1558 14.6611 20.6272 14.6611 20.0385V18.7723C14.6611 19.3611 15.1549 19.8897 15.9273 20.2379C15.9263 20.4336 15.9895 20.6243 16.1073 20.7807C16.2251 20.9371 16.3909 21.0505 16.5793 21.1036C17.0893 21.2396 17.6152 21.3072 18.143 21.3046C20.0675 21.3046 21.6248 20.4531 21.6248 19.4054Z" fill="#DE8800"/>
</svg>
