<svg width="24" height="24" viewBox="0 0 24 24" fill="none" xmlns="http://www.w3.org/2000/svg">
<path d="M22.4917 18.8632C22.4744 18.9876 22.4252 19.1054 22.349 19.2052C22.2728 19.3051 22.1721 19.3836 22.0567 19.4332L15.3068 22.4332C15.2105 22.4773 15.1059 22.5001 15 22.4999C14.856 22.5019 14.7147 22.4601 14.595 22.3799C14.4894 22.3122 14.4025 22.219 14.3422 22.1089C14.2819 21.9989 14.2502 21.8754 14.25 21.7499V12.7499C14.2503 12.6057 14.2922 12.4646 14.3707 12.3435C14.4492 12.2224 14.5609 12.1266 14.6925 12.0674C14.8232 12.0062 14.9691 11.9849 15.1119 12.0062C15.2546 12.0276 15.3879 12.0906 15.495 12.1874L22.245 18.1874C22.3395 18.2704 22.4116 18.3757 22.4547 18.4938C22.4978 18.6119 22.5105 18.7389 22.4917 18.8632Z" fill="#DB4D29"/>
<path d="M13.5 12.75C13.5004 12.4608 13.5843 12.1779 13.7417 11.9354C13.8991 11.6928 14.1233 11.5009 14.3873 11.3827C14.5793 11.2941 14.7885 11.2487 15 11.25C15.3669 11.2501 15.7208 11.3858 15.9938 11.631L19.5 14.7435V5.25C19.4982 4.65381 19.2606 4.08255 18.839 3.66098C18.4175 3.23941 17.8462 3.00178 17.25 3H15.75V2.25C15.75 2.05109 15.671 1.86032 15.5303 1.71967C15.3897 1.57902 15.1989 1.5 15 1.5C14.8011 1.5 14.6103 1.57902 14.4697 1.71967C14.329 1.86032 14.25 2.05109 14.25 2.25V3H6.75V2.25C6.75 2.05109 6.67098 1.86032 6.53033 1.71967C6.38968 1.57902 6.19891 1.5 6 1.5C5.80109 1.5 5.61032 1.57902 5.46967 1.71967C5.32902 1.86032 5.25 2.05109 5.25 2.25V3H3.75C3.15381 3.00178 2.58255 3.23941 2.16098 3.66098C1.73941 4.08255 1.50178 4.65381 1.5 5.25V17.25C1.50178 17.8462 1.73941 18.4175 2.16098 18.839C2.58255 19.2606 3.15381 19.4982 3.75 19.5H13.5V12.75ZM3 7.5V5.25C3 5.05109 3.07902 4.86032 3.21967 4.71967C3.36032 4.57902 3.55109 4.5 3.75 4.5H5.25V5.25C5.25 5.44891 5.32902 5.63968 5.46967 5.78033C5.61032 5.92098 5.80109 6 6 6C6.19891 6 6.38968 5.92098 6.53033 5.78033C6.67098 5.63968 6.75 5.44891 6.75 5.25V4.5H14.25V5.25C14.25 5.44891 14.329 5.63968 14.4697 5.78033C14.6103 5.92098 14.8011 6 15 6C15.1989 6 15.3897 5.92098 15.5303 5.78033C15.671 5.63968 15.75 5.44891 15.75 5.25V4.5H17.25C17.4489 4.5 17.6397 4.57902 17.7803 4.71967C17.921 4.86032 18 5.05109 18 5.25V7.5H3ZM12 12C12 12.1989 11.921 12.3897 11.7803 12.5303C11.6397 12.671 11.4489 12.75 11.25 12.75H10.5C10.3011 12.75 10.1103 12.671 9.96967 12.5303C9.82902 12.3897 9.75 12.1989 9.75 12C9.75 11.8011 9.82902 11.6103 9.96967 11.4697C10.1103 11.329 10.3011 11.25 10.5 11.25H11.25C11.4489 11.25 11.6397 11.329 11.7803 11.4697C11.921 11.6103 12 11.8011 12 12ZM6.75 15.75H6C5.80109 15.75 5.61032 15.671 5.46967 15.5303C5.32902 15.3897 5.25 15.1989 5.25 15C5.25 14.8011 5.32902 14.6103 5.46967 14.4697C5.61032 14.329 5.80109 14.25 6 14.25H6.75C6.94891 14.25 7.13968 14.329 7.28033 14.4697C7.42098 14.6103 7.5 14.8011 7.5 15C7.5 15.1989 7.42098 15.3897 7.28033 15.5303C7.13968 15.671 6.94891 15.75 6.75 15.75ZM6.75 12.75H6C5.80109 12.75 5.61032 12.671 5.46967 12.5303C5.32902 12.3897 5.25 12.1989 5.25 12C5.25 11.8011 5.32902 11.6103 5.46967 11.4697C5.61032 11.329 5.80109 11.25 6 11.25H6.75C6.94891 11.25 7.13968 11.329 7.28033 11.4697C7.42098 11.6103 7.5 11.8011 7.5 12C7.5 12.1989 7.42098 12.3897 7.28033 12.5303C7.13968 12.671 6.94891 12.75 6.75 12.75ZM11.25 15.75H10.5C10.3011 15.75 10.1103 15.671 9.96967 15.5303C9.82902 15.3897 9.75 15.1989 9.75 15C9.75 14.8011 9.82902 14.6103 9.96967 14.4697C10.1103 14.329 10.3011 14.25 10.5 14.25H11.25C11.4489 14.25 11.6397 14.329 11.7803 14.4697C11.921 14.6103 12 14.8011 12 15C12 15.1989 11.921 15.3897 11.7803 15.5303C11.6397 15.671 11.4489 15.75 11.25 15.75Z" fill="#DB4D29"/>
</svg>
