<svg width="90" height="90" viewBox="0 0 90 90" fill="none" xmlns="http://www.w3.org/2000/svg">
<g clipPath="url(#clip0_2136_95312)">
<path d="M89.0896 70.8335C88.7722 73.7289 86.4269 75.9911 83.5205 76.1946C83.2801 76.2117 83.0414 76.2285 82.8025 76.244C81.0304 76.3642 79.6527 77.8359 79.6527 79.6125V86.328C79.6527 88.5872 77.0669 89.8692 75.2701 88.5009C71.9909 86.003 67.6283 82.2877 64.9517 78.4351C64.3184 77.5228 63.2721 76.9913 62.161 76.9974C53.9199 77.0391 45.6787 76.774 37.4376 76.1946C35.1399 76.0343 33.1891 74.5904 32.32 72.5595C32.0889 72.0263 31.9347 71.4499 31.8685 70.8475C30.648 59.6986 30.648 48.5481 31.8685 37.3974C32.1859 34.5049 34.5328 32.2535 37.4344 32.0501C49.7113 31.1886 61.9868 31.0162 74.2623 31.5323C77.3473 31.6603 80.434 31.8327 83.519 32.0501C86.4222 32.2535 88.7706 34.5049 89.0881 37.3974C90.3087 48.5432 90.3087 59.6875 89.0896 70.8335Z" fill="#D3D3D3"/>
<path d="M35.0131 37.0906C33.7632 48.5062 33.7632 59.923 35.0131 71.3363C35.0808 71.9542 35.2388 72.5434 35.4753 73.0901C36.08 74.5039 37.1969 75.6398 38.5894 76.2731C38.2057 76.2482 37.822 76.222 37.438 76.1947C35.1402 76.0344 33.1892 74.5907 32.3207 72.559C32.089 72.0255 31.9345 71.4493 31.8691 70.8469C30.6478 59.6987 30.6478 48.5479 31.8691 37.3972C32.1864 34.5052 34.5329 32.2536 37.4344 32.0506C38.0011 32.0114 38.5678 31.9722 39.1357 31.9365C36.926 32.6968 35.278 34.6763 35.0131 37.0906Z" fill="#B3B3B3"/>
<path d="M53.7109 66.6698C53.7145 68.4868 56.0998 69.9579 57.9169 69.9579H71.9804C73.4426 69.9579 74.628 68.7724 74.628 67.3094C74.628 66.5783 74.3325 65.9155 73.8534 65.4365C73.3742 64.9575 72.7115 64.6609 71.9804 64.6609H72.931C74.3932 64.6609 75.5795 63.4763 75.5795 62.0124C75.5795 61.2805 75.284 60.6194 74.8031 60.1395C74.3248 59.6603 73.6628 59.3648 72.9309 59.3648H73.8824C75.3266 59.3648 76.501 58.2075 76.5291 56.7692C76.559 55.2832 75.3087 54.0678 73.8224 54.0678H72.9307C74.3928 54.0678 75.5792 52.8823 75.5792 51.4184C75.5792 50.6865 75.2837 50.0254 74.8028 49.5455C74.3245 49.0663 73.6625 48.7708 72.9305 48.7708H65.4816C65.4711 48.7541 65.4677 48.749 65.4572 48.7323L68.362 42.5445C69.1862 40.7902 68.4312 38.7001 66.6769 37.8761C66.1953 37.6497 65.688 37.543 65.1882 37.543C63.8695 37.543 62.6063 38.2895 62.0085 39.562L60.7666 42.208C60.0329 43.7702 58.8578 45.0907 57.3698 45.9634C56.3876 46.5391 55.5695 47.4171 55.0697 48.5411C54.7289 49.308 54.5761 50.1161 54.5906 50.9094L53.7109 66.6698Z" fill="white"/>
<path d="M67.7587 38.6694C67.6392 38.6565 67.5196 38.6506 67.3999 38.6506C66.0812 38.6506 64.8181 39.3971 64.2202 40.6696L62.9783 43.3156C62.2446 44.8778 61.0695 46.1983 59.5815 47.071C58.5993 47.6467 55.0659 48.5409 54.9353 55.2345C54.9251 55.7572 54.7363 56.2398 54.598 56.7214L54.5869 50.9094C54.5723 50.1159 54.7252 49.308 55.0661 48.5411C55.5656 47.4171 56.3839 46.5391 57.3662 45.9634C58.854 45.0905 60.0293 43.7702 60.763 42.208L62.0049 39.562C62.6027 38.2893 63.8659 37.543 65.1846 37.543C65.6841 37.543 66.1916 37.6497 66.6733 37.8761C67.0958 38.0742 67.4606 38.3466 67.7587 38.6694Z" fill="#EAEAEA"/>
<path d="M74.6245 67.3094C74.6245 68.7724 73.439 69.9579 71.9769 69.9579H57.5461C56.0189 69.9579 54.603 69.22 53.7266 68.0071H71.9767C73.0947 68.0071 74.0504 67.3145 74.439 66.334C74.4399 66.3349 74.4399 66.3366 74.4417 66.3373C74.4417 66.3373 74.4408 66.3382 74.4417 66.3382C74.5596 66.639 74.6245 66.967 74.6245 67.3094Z" fill="#EAEAEA"/>
<path d="M75.3897 61.0371C75.5092 61.3391 75.5757 61.6682 75.5757 62.0123C75.5757 63.4761 74.3904 64.6614 72.9277 64.6614H71.9129C71.3741 64.6614 70.9375 64.2247 70.9375 63.686C70.9375 63.1472 71.3741 62.7105 71.9129 62.7105H72.9277C74.046 62.7107 75.0014 62.0176 75.3897 61.0371Z" fill="#EAEAEA"/>
<path d="M76.3428 55.7402C76.4623 56.0422 76.5288 56.3713 76.5288 56.7155C76.5288 58.1792 75.3435 59.3645 73.8808 59.3645H72.866C72.3273 59.3645 71.8906 58.9279 71.8906 58.3891C71.8906 57.8503 72.3273 57.4137 72.866 57.4137H73.8808C74.999 57.4137 75.9545 56.7206 76.3428 55.7402Z" fill="#EAEAEA"/>
<path d="M75.3897 50.4434C75.5092 50.7454 75.5757 51.0744 75.5757 51.4186C75.5757 52.8823 74.3904 54.0676 72.9277 54.0676H71.9129C71.3741 54.0676 70.9375 53.631 70.9375 53.0922C70.9375 52.5534 71.3741 52.1168 71.9129 52.1168H72.9277C74.0458 52.117 75.0014 51.4237 75.3897 50.4434Z" fill="#EAEAEA"/>
<path d="M46.3516 50.91V67.426C46.3516 68.5714 47.2802 69.5001 48.4256 69.5001H52.5152C53.6605 69.5001 54.5892 68.5714 54.5892 67.426V50.91C54.5892 49.7646 53.6605 48.8359 52.5152 48.8359H48.4256C47.2802 48.8359 46.3516 49.7644 46.3516 50.91Z" fill="#F1F4F6"/>
<path d="M46.3516 62.2236V67.4264C46.3516 68.5718 47.2807 69.4999 48.4261 69.4999H52.5155C53.6609 69.4999 54.589 68.5718 54.589 67.4264V62.2236C54.589 63.369 53.6609 64.2984 52.5155 64.2984H48.4261C47.2807 64.2982 46.3516 63.369 46.3516 62.2236Z" fill="#EAEAEA"/>
<path d="M0.878906 39.0074C1.18406 41.7916 3.43934 43.9669 6.23408 44.1626C6.46524 44.1789 6.69498 44.1951 6.92455 44.21C8.62857 44.3255 9.95326 45.7407 9.95326 47.4492V53.9067C9.95326 56.079 12.4397 57.3117 14.1674 55.996C17.3206 53.5941 21.5155 50.0215 24.0894 46.3171C24.6985 45.44 25.7045 44.9286 26.7729 44.9346C34.6975 44.9747 42.6219 44.7198 50.5464 44.1626C52.7556 44.0084 54.6316 42.6201 55.4674 40.667C55.6896 40.1542 55.8378 39.6002 55.9016 39.0208C57.0751 28.3003 57.0751 17.5781 55.9016 6.856C55.5963 4.07479 53.3396 1.90986 50.5494 1.71422C38.7439 0.886114 26.9402 0.720177 15.1363 1.21641C12.1699 1.33945 9.2018 1.50539 6.23531 1.71422C3.44373 1.90986 1.18564 4.07479 0.880313 6.85617C-0.293203 17.5737 -0.293203 28.2899 0.878906 39.0074Z" fill="#F0F0F0"/>
<path d="M3.90388 6.5618C2.70207 17.5388 2.70207 28.5169 3.90388 39.4916C3.9691 40.0857 4.12097 40.6523 4.34826 41.1779C4.92974 42.5374 6.00376 43.6297 7.34269 44.2386C6.97373 44.2147 6.60458 44.1894 6.23562 44.1632C4.02605 44.009 2.15011 42.6209 1.31498 40.6672C1.09226 40.1543 0.943726 39.6001 0.880796 39.0209C-0.293599 28.301 -0.293599 17.5787 0.880796 6.85641C1.18578 4.07555 3.44228 1.91063 6.23228 1.71516C6.7772 1.67754 7.3223 1.63975 7.86828 1.60547C5.74326 2.33689 4.15859 4.24025 3.90388 6.5618Z" fill="#D9D9D9"/>
<path d="M37.913 22.1152C39.5798 22.1152 40.9356 19.8622 40.9356 17.0927C40.9356 14.3233 39.5798 12.0703 37.913 12.0703C36.2464 12.0703 34.8906 14.3233 34.8906 17.0927C34.8906 19.8622 36.2464 22.1152 37.913 22.1152Z" fill="#282828"/>
<path d="M18.8661 22.1152C20.5329 22.1152 21.8887 19.8622 21.8887 17.0927C21.8887 14.3233 20.5329 12.0703 18.8661 12.0703C17.1996 12.0703 15.8438 14.3233 15.8438 17.0927C15.8438 19.8622 17.1996 22.1152 18.8661 22.1152Z" fill="#282828"/>
<path d="M38.8005 25.807C38.1086 25.5161 37.3127 25.8397 37.0212 26.5309C35.5536 30.0121 32.1656 32.2614 28.39 32.2614C24.6142 32.2614 21.2262 30.0121 19.7586 26.5309C19.4673 25.8397 18.6703 25.5161 17.9794 25.807C17.2882 26.0985 16.964 26.8949 17.2555 27.5861C19.1486 32.0763 23.5191 34.9777 28.3898 34.9777C33.2604 34.9777 37.6308 32.0763 39.524 27.5861C39.8158 26.8949 39.4916 26.0985 38.8005 25.807Z" fill="#282828"/>
</g>
<defs>
<clipPath id="clip0_2136_95312">
<rect width="90" height="90" fill="white"/>
</clipPath>
</defs>
</svg>
