<svg width="110" height="111" viewBox="0 0 110 111" fill="none" xmlns="http://www.w3.org/2000/svg">
<path d="M95.6094 87.2812H104.438L103.006 103.027C102.987 103.954 103.325 104.852 103.95 105.536C104.575 106.22 105.439 106.638 106.364 106.703C107.244 106.66 108.076 106.291 108.699 105.668C109.322 105.045 109.691 104.213 109.734 103.333V43.1406C109.734 43.1406 95.6094 48.4375 95.6094 87.2812Z" fill="#D3D3D3"/>
<path d="M55 0.765625L58.819 8.90339L67.3594 10.2082L61.1797 16.5415L62.6381 25.4844L55 21.2628L47.3619 25.4844L48.8203 16.5415L42.6406 10.2082L51.181 8.90339L55 0.765625Z" fill="#F0F0F0"/>
<path d="M104.438 11.0419C104.438 17.045 93.8438 23.719 93.8438 23.719C93.8438 23.719 83.25 17.0432 83.25 11.0419C83.25 5.04049 92.0781 3.80279 93.8438 11.0419C95.6094 3.79573 104.438 5.03873 104.438 11.0419Z" fill="#D3D3D3"/>
<path d="M37.3438 26.9325C37.3438 32.9356 26.75 39.6097 26.75 39.6097C26.75 39.6097 16.1562 32.9338 16.1562 26.9325C16.1562 20.9311 24.9844 19.6934 26.75 26.9325C28.5156 19.6864 37.3438 20.9294 37.3438 26.9325Z" fill="#D3D3D3"/>
<path d="M55 110.234C74.5026 110.234 90.3125 94.4244 90.3125 74.9219C90.3125 55.4193 74.5026 39.6094 55 39.6094C35.4974 39.6094 19.6875 55.4193 19.6875 74.9219C19.6875 94.4244 35.4974 110.234 55 110.234Z" fill="#D9D9D9"/>
<path d="M12.625 43.1406C12.1567 43.1406 11.7076 43.3266 11.3765 43.6578C11.0454 43.9889 10.8594 44.438 10.8594 44.9062V53.7344H9.09375V44.9062C9.09375 44.438 8.90773 43.9889 8.57661 43.6578C8.24549 43.3266 7.7964 43.1406 7.32812 43.1406C6.85985 43.1406 6.41076 43.3266 6.07964 43.6578C5.74852 43.9889 5.5625 44.438 5.5625 44.9062V53.7344H3.79688V44.9062C3.79687 44.438 3.61085 43.9889 3.27974 43.6578C2.94862 43.3266 2.49952 43.1406 2.03125 43.1406C1.56298 43.1406 1.11388 43.3266 0.782765 43.6578C0.451646 43.9889 0.265625 44.438 0.265625 44.9062V57.2656C0.265625 58.2022 0.637666 59.1004 1.2999 59.7626C1.96214 60.4248 2.86033 60.7969 3.79688 60.7969V103.172C3.82772 104.099 4.20966 104.979 4.86533 105.635C5.521 106.29 6.40138 106.672 7.32812 106.703C8.25487 106.672 9.13525 106.29 9.79092 105.635C10.4466 104.979 10.8285 104.099 10.8594 103.172V60.7969C11.7959 60.7969 12.6941 60.4248 13.3563 59.7626C14.0186 59.1004 14.3906 58.2022 14.3906 57.2656V44.9062C14.3906 44.438 14.2046 43.9889 13.8735 43.6578C13.5424 43.3266 13.0933 43.1406 12.625 43.1406V43.1406Z" fill="#D3D3D3"/>
<path d="M54.9994 90.8125C52.1671 90.8533 49.3764 90.1278 46.9225 88.7127C44.4687 87.2976 42.443 85.2455 41.0598 82.7736C40.8491 82.355 40.8133 81.8698 40.9603 81.4247C41.1073 80.9797 41.4251 80.6113 41.8437 80.4006C42.2624 80.1899 42.7476 80.1541 43.1926 80.3011C43.6376 80.4481 44.006 80.7659 44.2167 81.1845C45.3363 83.0435 46.9175 84.5815 48.8068 85.6491C50.6961 86.7168 52.8293 87.2778 54.9994 87.2778C57.1695 87.2778 59.3027 86.7168 61.192 85.6491C63.0813 84.5815 64.6625 83.0435 65.7821 81.1845C65.9928 80.7659 66.3612 80.4481 66.8062 80.3011C67.2512 80.1541 67.7364 80.1899 68.1551 80.4006C68.5737 80.6113 68.8915 80.9797 69.0385 81.4247C69.1855 81.8698 69.1497 82.355 68.939 82.7736C67.5558 85.2455 65.5301 87.2976 63.0763 88.7127C60.6224 90.1278 57.8317 90.8533 54.9994 90.8125V90.8125Z" fill="#282828"/>
<path d="M47.9375 73.1689C47.4692 73.1689 47.0201 72.9829 46.689 72.6518C46.3579 72.3207 46.1719 71.8716 46.1719 71.4033C46.1691 70.935 45.9803 70.4871 45.6472 70.1579C45.3141 69.8288 44.8639 69.6455 44.3957 69.6483C43.9274 69.6511 43.4794 69.8398 43.1503 70.1729C42.8211 70.506 42.6378 70.9562 42.6406 71.4245C42.6292 71.8861 42.4384 72.325 42.1088 72.6484C41.7792 72.9717 41.3367 73.154 40.875 73.1566H40.852C40.389 73.1533 39.9461 72.9672 39.6197 72.6388C39.2932 72.3104 39.1098 71.8663 39.1094 71.4033C39.1094 69.9985 39.6674 68.6512 40.6608 67.6579C41.6541 66.6645 43.0014 66.1064 44.4062 66.1064C45.8111 66.1064 47.1584 66.6645 48.1517 67.6579C49.1451 68.6512 49.7031 69.9985 49.7031 71.4033C49.7031 71.8716 49.5171 72.3207 49.186 72.6518C48.8549 72.9829 48.4058 73.1689 47.9375 73.1689Z" fill="#282828"/>
<path d="M69.125 73.1689C68.6567 73.1689 68.2076 72.9829 67.8765 72.6518C67.5454 72.3207 67.3594 71.8716 67.3594 71.4033C67.3566 70.935 67.1679 70.4871 66.8347 70.1579C66.5016 69.8288 66.0514 69.6455 65.5832 69.6483C65.1149 69.6511 64.6669 69.8398 64.3378 70.1729C64.0086 70.506 63.8253 70.9562 63.8281 71.4245C63.8167 71.8861 63.6259 72.325 63.2963 72.6484C62.9667 72.9717 62.5242 73.154 62.0625 73.1566H62.0395C61.5765 73.1533 61.1336 72.9672 60.8072 72.6388C60.4807 72.3104 60.2973 71.8663 60.2969 71.4033C60.2969 69.9985 60.8549 68.6512 61.8483 67.6579C62.8417 66.6645 64.1889 66.1064 65.5938 66.1064C66.9986 66.1064 68.3458 66.6645 69.3392 67.6579C70.3326 68.6512 70.8906 69.9985 70.8906 71.4033C70.8906 71.8716 70.7046 72.3207 70.3735 72.6518C70.0424 72.9829 69.5933 73.1689 69.125 73.1689Z" fill="#282828"/>
<path d="M77.9535 39.6096C77.8349 39.6104 77.7165 39.5985 77.6004 39.5743C77.3732 39.528 77.1573 39.4373 76.9651 39.3075C76.7729 39.1777 76.6081 39.0114 76.4802 38.8179C76.3523 38.6244 76.2638 38.4076 76.2197 38.1799C76.1756 37.9522 76.1768 37.7181 76.2232 37.4909L77.9889 28.6627C78.0273 28.4289 78.1124 28.2052 78.2392 28.0049C78.3659 27.8047 78.5317 27.632 78.7266 27.4972C78.9214 27.3624 79.1415 27.2682 79.3736 27.2202C79.6056 27.1722 79.845 27.1714 80.0774 27.2179C80.3097 27.2644 80.5304 27.3571 80.7261 27.4907C80.9219 27.6242 81.0888 27.7958 81.2168 27.9953C81.3448 28.1947 81.4314 28.4178 81.4714 28.6514C81.5114 28.885 81.5039 29.1242 81.4495 29.3549L79.6839 38.183C79.6053 38.5844 79.3899 38.9461 79.0743 39.2063C78.7587 39.4665 78.3626 39.609 77.9535 39.6096Z" fill="#D3D3D3"/>
<path d="M83.2508 41.3755C82.9183 41.3753 82.5926 41.2812 82.3112 41.104C82.0298 40.9268 81.8041 40.6737 81.6602 40.3739C81.5163 40.0741 81.46 39.7398 81.4978 39.4094C81.5355 39.079 81.6658 38.766 81.8737 38.5064L88.9362 29.6783C89.0811 29.4972 89.2602 29.3464 89.4634 29.2345C89.6666 29.1227 89.8898 29.052 90.1203 29.0264C90.3509 29.0008 90.5842 29.0209 90.8069 29.0855C91.0297 29.1501 91.2375 29.2579 91.4186 29.4028C91.5997 29.5477 91.7505 29.7269 91.8623 29.9301C91.9742 30.1333 92.0449 30.3565 92.0705 30.587C92.0961 30.8175 92.076 31.0508 92.0114 31.2736C91.9468 31.4963 91.839 31.7042 91.6941 31.8853L84.6316 40.7134C84.4659 40.9203 84.2557 41.0873 84.0167 41.2019C83.7777 41.3166 83.5159 41.3759 83.2508 41.3755Z" fill="#D3D3D3"/>
<path d="M88.5464 44.906C88.1482 44.9068 87.7614 44.7729 87.4488 44.5261C87.1363 44.2793 86.9163 43.9342 86.8247 43.5466C86.7331 43.1591 86.7752 42.7519 86.9441 42.3913C87.1131 42.0307 87.399 41.7378 87.7554 41.5602L94.8179 38.0289C95.237 37.8196 95.7221 37.7853 96.1664 37.9337C96.3865 38.0071 96.5899 38.1232 96.765 38.2752C96.9402 38.4273 97.0837 38.6124 97.1874 38.8199C97.291 39.0274 97.3528 39.2533 97.3691 39.4847C97.3854 39.7161 97.356 39.9484 97.2826 40.1685C97.2091 40.3885 97.0931 40.5919 96.941 40.7671C96.789 40.9422 96.6039 41.0857 96.3964 41.1894L89.3339 44.7206C89.0893 44.8425 88.8197 44.906 88.5464 44.906Z" fill="#D3D3D3"/>
</svg>
