<svg width="19" height="24" viewBox="0 0 19 24" fill="none" xmlns="http://www.w3.org/2000/svg">
<path d="M4.75 5.5C4.198 5.5 3.75 5.052 3.75 4.5V1C3.75 0.448 4.198 0 4.75 0C5.302 0 5.75 0.448 5.75 1V4.5C5.75 5.052 5.302 5.5 4.75 5.5Z" fill="#282828"/>
<path d="M9.5 5.5C8.948 5.5 8.5 5.052 8.5 4.5V1C8.5 0.448 8.948 0 9.5 0C10.052 0 10.5 0.448 10.5 1V4.5C10.5 5.052 10.052 5.5 9.5 5.5Z" fill="#282828"/>
<path d="M14.25 5.5C13.698 5.5 13.25 5.052 13.25 4.5V1C13.25 0.448 13.698 0 14.25 0C14.802 0 15.25 0.448 15.25 1V4.5C15.25 5.052 14.802 5.5 14.25 5.5Z" fill="#282828"/>
<path d="M16.25 2.25H2.75C1.233 2.25 0 3.483 0 5V21.25C0 22.767 1.233 24 2.75 24H16.25C17.767 24 19 22.767 19 21.25V5C19 3.483 17.767 2.25 16.25 2.25ZM5 8H10C10.552 8 11 8.448 11 9C11 9.552 10.552 10 10 10H5C4.448 10 4 9.552 4 9C4 8.448 4.448 8 5 8ZM15 18H5C4.448 18 4 17.552 4 17C4 16.448 4.448 16 5 16H15C15.552 16 16 16.448 16 17C16 17.552 15.552 18 15 18ZM15 14H5C4.448 14 4 13.552 4 13C4 12.448 4.448 12 5 12H15C15.552 12 16 12.448 16 13C16 13.552 15.552 14 15 14Z" fill="#282828"/>
</svg>
