<svg width="36" height="30" viewBox="0 0 36 30" fill="none" xmlns="http://www.w3.org/2000/svg">
<rect width="26.5403" height="27" rx="7.5" fill="#F8F8F8"/>
<g filter="url(#filter0_d_1336_20602)">
<path d="M12.6446 4.99722C12.1397 4.97995 11.8406 4.68627 11.6603 4.27034C11.4785 3.86991 11.3846 3.434 11.3852 2.99293C11.3858 2.55186 11.4808 2.1162 11.6636 1.71626C11.8732 1.23853 12.2298 1 12.7804 1C17.3361 1.01285 21.8919 1.01285 26.4476 1C26.9988 1 27.362 1.23853 27.5579 1.72091C27.9622 2.71091 27.9589 3.68564 27.3561 4.61318C27.3146 4.69685 27.3051 4.7932 27.3293 4.88361C27.8518 7.04567 28.3861 9.20574 28.9092 11.3678C28.9654 11.6007 28.9941 11.8396 28.9948 12.0794C29 16.1506 29.0013 20.2218 28.9987 24.293C28.9987 24.7814 28.8929 24.891 28.4109 24.891H11.5878C11.1071 24.891 11.0033 24.784 11.0033 24.293C11.0059 20.2685 11.0118 16.2454 11 12.2243C11 11.52 11.2194 10.8715 11.3782 10.207C11.7779 8.534 12.1965 6.86561 12.6073 5.19522C12.621 5.13941 12.6289 5.08161 12.6446 4.99722ZM24.306 24.0817V23.7681C24.306 19.8807 24.306 15.9931 24.306 12.1053C24.2991 11.9401 24.3114 11.7746 24.3426 11.6123C24.7077 10.0841 25.0806 8.55592 25.4529 7.03304C25.6175 6.35931 25.7834 5.68624 25.9519 4.99789H13.4675C13.4466 5.06832 13.4257 5.13077 13.41 5.1939C12.9829 6.93604 12.5492 8.67685 12.1319 10.4216C11.9862 11.0329 11.7837 11.6229 11.7837 12.2674C11.7942 16.1052 11.789 19.943 11.789 23.7807V24.0817H24.306ZM25.0898 23.5462C25.4366 23.1874 25.7207 22.8724 26.0277 22.5828C26.1089 22.5112 26.1729 22.4217 26.2147 22.321C26.2565 22.2203 26.2749 22.1112 26.2687 22.002C26.2608 18.9177 26.2591 15.8332 26.2634 12.7485C26.2584 12.6658 26.2606 12.5829 26.27 12.5007C26.3078 12.286 26.4385 12.1571 26.6546 12.1571C26.8708 12.1571 27.0008 12.29 27.0393 12.5007C27.0487 12.5831 27.0509 12.6663 27.0459 12.7492C27.0459 15.8667 27.0459 18.9842 27.0459 22.1017C27.0459 22.1961 27.0459 22.321 27.1001 22.3794C27.4488 22.7562 27.8126 23.1183 28.2176 23.5322V23.2485C28.2176 19.5175 28.2165 15.7865 28.2143 12.0555C28.2125 11.8735 28.1892 11.6924 28.1451 11.516C27.7793 10.005 27.4092 8.49524 27.0348 6.98653C26.9172 6.51014 26.797 6.0344 26.6782 5.558C26.6215 5.62173 26.5827 5.69975 26.5658 5.78391C26.1837 7.34201 25.7964 8.89943 25.4242 10.4602C25.2935 11.005 25.1074 11.5578 25.1035 12.108C25.0747 15.8142 25.0885 19.5204 25.0885 23.2273L25.0898 23.5462ZM25.6952 1.8033H25.43C21.2187 1.8033 17.0074 1.80131 12.7961 1.79732C12.5577 1.79732 12.431 1.88835 12.3526 2.09233C12.1195 2.67439 12.1195 3.32616 12.3526 3.90822C12.4329 4.11486 12.5642 4.19791 12.7993 4.19725C17.0028 4.18927 21.2061 4.18728 25.4091 4.19127H25.6952C25.4095 3.42181 25.4095 2.57275 25.6952 1.8033V1.8033ZM26.6605 1.8033C26.121 2.26242 26.138 3.85706 26.6749 4.17798C27.1673 3.8039 27.1634 2.18136 26.6573 1.80596L26.6605 1.8033ZM25.6952 24.0923H27.5808L26.6403 23.1322L25.6952 24.0923Z" fill="url(#paint0_linear_1336_20602)"/>
<path d="M25.0886 23.5463V23.2267C25.0886 19.5198 25.0749 15.8136 25.1036 12.1074C25.1075 11.5573 25.2943 11.0045 25.4243 10.4596C25.7966 8.89887 26.1839 7.34144 26.5659 5.78335C26.5835 5.69921 26.623 5.62142 26.6802 5.55811C26.7991 6.0345 26.9193 6.51024 27.0368 6.98663C27.4078 8.49622 27.7779 10.006 28.1471 11.5161C28.1913 11.6925 28.2145 11.8736 28.2164 12.0556C28.2203 15.7866 28.2214 19.5176 28.2196 23.2486V23.5323C27.8147 23.1184 27.4509 22.7563 27.1021 22.3795C27.0479 22.3211 27.0486 22.1962 27.0479 22.1018C27.0453 18.9843 27.0453 15.8668 27.0479 12.7493C27.053 12.6664 27.0508 12.5832 27.0414 12.5008C27.0029 12.2868 26.8729 12.1572 26.6567 12.1572C26.4405 12.1572 26.3099 12.2861 26.272 12.5008C26.2626 12.583 26.2605 12.6659 26.2655 12.7486C26.2655 15.8329 26.2672 18.9174 26.2707 22.0021C26.277 22.1113 26.2585 22.2204 26.2167 22.3211C26.1749 22.4218 26.111 22.5113 26.0297 22.5829C25.7195 22.8725 25.4341 23.1875 25.0886 23.5463Z" fill="white"/>
<path d="M25.6952 1.80334C25.41 2.5722 25.41 3.42046 25.6952 4.18932H25.4091C21.2061 4.18932 17.0028 4.19131 12.7993 4.1953C12.5642 4.1953 12.4329 4.11291 12.3526 3.90627C12.1194 3.32421 12.1194 2.67244 12.3526 2.09038C12.4277 1.88839 12.5544 1.79736 12.7928 1.79736C17.0041 1.80534 21.2155 1.80733 25.4268 1.80334H25.6952Z" fill="white"/>
<path d="M26.6573 1.80615C27.1635 2.18156 27.1674 3.8041 26.6717 4.17818C26.1381 3.85725 26.1211 2.26262 26.6573 1.80615Z" fill="white"/>
<path d="M25.6953 24.0922L26.6404 23.1321L27.5809 24.0922H25.6953Z" fill="white"/>
<path fill-rule="evenodd" clip-rule="evenodd" d="M11.7885 24.0819H24.3062L24.3068 23.7683V12.1055C24.2999 11.9403 24.3122 11.7748 24.3434 11.6125C24.6029 10.5307 24.8656 9.4509 25.1287 8.37004C25.237 7.92468 25.3454 7.47914 25.4537 7.0332C25.5464 6.65362 25.6396 6.27426 25.7334 5.89225C25.806 5.59621 25.8791 5.29858 25.9527 4.99805H13.4676C13.4609 5.02058 13.4543 5.04195 13.4477 5.06278C13.4339 5.10706 13.4208 5.14887 13.4102 5.19405C13.3412 5.47408 13.2721 5.75407 13.2031 6.03404C12.8426 7.49592 12.4823 8.95746 12.132 10.4218C12.0997 10.5566 12.0647 10.6906 12.0296 10.8246C11.9063 11.2955 11.7832 11.7659 11.7832 12.2676C11.7911 15.1459 11.7901 18.0242 11.7891 20.9026C11.7888 21.862 11.7885 22.8214 11.7885 23.7809V24.0819Z" fill="url(#paint1_linear_1336_20602)"/>
<path d="M25.5327 17.5812V17.8558H17.4376C17.4041 17.5099 17.4419 17.1607 17.5485 16.8304C17.6551 16.5002 17.8282 16.1962 18.0567 15.9378C18.2852 15.6794 18.5641 15.4724 18.8757 15.3298C19.1872 15.1873 19.5245 15.1124 19.8661 15.11H23.1042C23.7482 15.11 24.3659 15.3703 24.8214 15.8338C25.2768 16.2972 25.5327 16.9258 25.5327 17.5812ZM22.4026 19.9586C22.314 20.0187 22.2098 20.0508 22.1033 20.0508C21.9968 20.0508 21.8927 20.0187 21.8041 19.9586L20.3211 18.9542H17.4376C17.4042 19.3001 17.4421 19.6493 17.5487 19.9795C17.6553 20.3097 17.8284 20.6137 18.0569 20.872C18.2854 21.1304 18.5643 21.3374 18.8758 21.48C19.1873 21.6225 19.5246 21.6975 19.8661 21.7H23.1042C23.4457 21.6976 23.7831 21.6227 24.0946 21.4802C24.4062 21.3376 24.6851 21.1306 24.9136 20.8722C25.1421 20.6138 25.3152 20.3098 25.4218 19.9796C25.5284 19.6493 25.5661 19.3001 25.5327 18.9542H23.8867L22.4026 19.9586ZM16.3583 17.5812V19.2287C16.3584 20.1538 16.7131 21.0424 17.3469 21.7055H16.1057C15.4483 21.7047 14.8137 21.46 14.321 21.0172C13.8282 20.5744 13.511 19.9639 13.4289 19.3001L12.6124 12.6782C12.5704 12.4408 12.5798 12.1969 12.6399 11.9636C12.7001 11.7302 12.8095 11.513 12.9606 11.3272C13.1118 11.1413 13.3009 10.9912 13.5149 10.8873C13.7289 10.7835 13.9625 10.7284 14.1996 10.7259H17.7706L17.8639 9.96587C17.913 9.56767 18.1032 9.20138 18.3988 8.93575C18.6944 8.67012 19.0751 8.52342 19.4695 8.52319H21.2153C21.3584 8.52319 21.4957 8.58105 21.5969 8.68404C21.6981 8.78703 21.755 8.92672 21.755 9.07236C21.755 9.21801 21.6981 9.3577 21.5969 9.46069C21.4957 9.56368 21.3584 9.62154 21.2153 9.62154H19.4695C18.8812 9.62154 18.9152 10.3053 18.8575 10.7265H20.136C20.3779 10.7282 20.6164 10.7848 20.8341 10.8921C21.0519 10.9994 21.2434 11.1548 21.3947 11.3469C21.5461 11.539 21.6534 11.7629 21.709 12.0026C21.7646 12.2422 21.767 12.4914 21.7161 12.732L21.558 14.0116H19.8661C18.936 14.0125 18.0443 14.3889 17.3866 15.0581C16.729 15.7273 16.3591 16.6348 16.3583 17.5812ZM18.722 11.8248L18.5887 12.9133H20.6071L20.653 12.5426C20.678 12.4599 20.6838 12.3724 20.6697 12.287C20.6556 12.2017 20.6221 12.1208 20.5719 12.051C20.5217 11.9812 20.4561 11.9242 20.3804 11.8848C20.3047 11.8453 20.221 11.8244 20.136 11.8237L18.722 11.8248ZM17.5013 12.9133L17.6357 11.8226H14.1996C14.119 11.8232 14.0395 11.842 13.9669 11.8777C13.8944 11.9134 13.8305 11.9651 13.78 12.029C13.7296 12.093 13.6937 12.1676 13.6751 12.2474C13.6564 12.3272 13.6555 12.4102 13.6723 12.4904L13.7263 12.9133H17.5013Z" fill="white"/>
</g>
<defs>
<filter id="filter0_d_1336_20602" x="9.5" y="0.25" width="21" height="26.8909" filterUnits="userSpaceOnUse" color-interpolation-filters="sRGB">
<feFlood flood-opacity="0" result="BackgroundImageFix"/>
<feColorMatrix in="SourceAlpha" type="matrix" values="0 0 0 0 0 0 0 0 0 0 0 0 0 0 0 0 0 0 127 0" result="hardAlpha"/>
<feOffset dy="0.75"/>
<feGaussianBlur stdDeviation="0.75"/>
<feComposite in2="hardAlpha" operator="out"/>
<feColorMatrix type="matrix" values="0 0 0 0 0.192157 0 0 0 0 0.239216 0 0 0 0 0.682353 0 0 0 0.25 0"/>
<feBlend mode="normal" in2="BackgroundImageFix" result="effect1_dropShadow_1336_20602"/>
<feBlend mode="normal" in="SourceGraphic" in2="effect1_dropShadow_1336_20602" result="shape"/>
</filter>
<linearGradient id="paint0_linear_1336_20602" x1="11.7815" y1="1.64611" x2="28.6266" y2="24.4703" gradientUnits="userSpaceOnUse">
<stop stop-color="#D2D2D2"/>
<stop offset="1" stop-color="#7D7D7D"/>
</linearGradient>
<linearGradient id="paint1_linear_1336_20602" x1="11.7227" y1="1.93207" x2="23.2567" y2="23.2992" gradientUnits="userSpaceOnUse">
<stop stop-color="#D2D2D2"/>
<stop offset="1" stop-color="#7D7D7D"/>
</linearGradient>
</defs>
</svg>
