<svg xmlns="http://www.w3.org/2000/svg" width="44" height="44" viewBox="0 0 44 44" fill="none">
  <g clipPath="url(#clip0_826_548)">
    <path d="M42.858 20.8704C42.858 32.3968 33.5139 41.7408 21.9876 41.7408C10.4612 41.7408 1.11719 32.3968 1.11719 20.8704C1.11719 9.34402 10.4612 0 21.9876 0C33.5139 0 42.858 9.34402 42.858 20.8704Z" fill="#F5585C"/>
    <path d="M32.6398 27.0891L30.0933 20.9016C29.1926 20.9016 14.783 20.9016 13.8823 20.9016L11.3354 27.0891C10.3827 29.4037 9.89258 31.8828 9.89258 34.3861V40.7481C9.89258 42.5441 11.3485 44 13.1444 44H30.8308C32.6267 44 34.0826 42.5441 34.0826 40.7481V34.3861C34.083 31.8828 33.5925 29.4037 32.6398 27.0891Z" fill="#E2E9F2"/>
    <path d="M9.89258 34.3861V40.7481C9.89258 42.5441 11.3481 44 13.1441 44H18.2611C16.9358 44 15.8615 42.5441 15.8615 40.7481V34.3861C15.8615 31.8828 16.2234 29.4037 16.9264 27.0891L18.8056 20.9016C16.2593 20.9016 14.2049 20.9016 13.8823 20.9016L11.3354 27.0891C10.3827 29.4037 9.89258 31.8828 9.89258 34.3861Z" fill="#C7D6E5"/>
    <path d="M29.3657 16.9539H14.6093C14.2075 16.9539 13.8822 17.2795 13.8822 17.681V20.9016H30.0932V17.681C30.0932 17.2795 29.7675 16.9539 29.3657 16.9539Z" fill="#494970"/>
    <path d="M19.5326 16.9539H14.6093C14.2075 16.9539 13.8822 17.2795 13.8822 17.681V20.9016H18.8055V17.681C18.8055 17.2795 19.1308 16.9539 19.5326 16.9539Z" fill="#3A3A60"/>
    <path d="M26.2459 6.30872H17.5954L17.6125 7.91031C17.6145 8.12045 17.5534 8.32657 17.4366 8.5018C16.6376 9.69855 16.2184 11.1085 16.2338 12.5476L16.2892 18.3202C16.2966 19.0046 16.8347 19.5837 17.5192 19.5992C18.2349 19.6156 18.8163 19.0365 18.8086 18.3265C18.816 19.0224 19.386 19.5804 20.0815 19.573C20.7774 19.5656 21.3353 18.9956 21.328 18.3C21.3353 18.9956 21.9053 19.5535 22.6009 19.5461C23.2965 19.5387 23.8544 18.9691 23.847 18.2735H23.9165C23.9239 18.958 24.4623 19.5307 25.1465 19.5461C25.8622 19.5626 26.4436 18.9832 26.4362 18.2735L26.3368 14.9411C26.3318 14.4476 26.9559 14.2294 27.2593 14.6185L29.4648 17.4457C29.9606 17.9308 30.7653 17.9596 31.2594 17.4729C31.763 16.977 31.76 16.167 31.2574 15.6746C29.8949 13.8857 28.7048 12.5123 27.1271 10.0903C26.5685 9.23294 26.266 8.23392 26.2553 7.21072L26.2459 6.30872Z" fill="#F9D6BF"/>
    <path d="M26.9202 0.588135C25.3384 0.204773 23.6871 0 21.9875 0C20.3188 0 18.6967 0.197052 17.1411 0.566986V2.97089H26.9202V0.588135Z" fill="#E2E9F2"/>
    <path d="M21.7498 0.0032959C20.165 0.0214233 18.6225 0.214447 17.1411 0.566925V2.97083H21.7498V0.0032959Z" fill="#C7D6E5"/>
    <path d="M16.7548 9.79456C19.5491 7.2406 23.7674 7.08081 26.7447 9.39542C26.4315 8.71228 26.2633 7.96838 26.2552 7.21072L26.2458 6.30872H17.5953L17.6125 7.91031C17.6145 8.12045 17.5534 8.32657 17.4366 8.5018C17.164 8.91 16.9367 9.34372 16.7548 9.79456Z" fill="#EFC1A8"/>
    <path d="M16.9676 6.48959H27.0075C27.1341 6.48959 27.2365 6.38721 27.2365 6.26099V3.01852C27.2365 2.8923 27.1341 2.78992 27.0075 2.78992H17.0153C16.8625 2.78992 16.7386 2.91379 16.7386 3.06653V6.26099C16.7386 6.38721 16.841 6.48959 16.9676 6.48959Z" fill="#F6A221"/>
    <path d="M20.4571 4.66376C20.4571 3.62881 21.296 2.78992 22.331 2.78992H17.0153C16.8625 2.78992 16.7386 2.91379 16.7386 3.06653V6.26099C16.7386 6.38721 16.841 6.48959 16.9676 6.48959H22.283C21.2745 6.48959 20.4571 5.67218 20.4571 4.66376Z" fill="#F28A00"/>
    <path d="M20.4356 25.6715C19.8606 25.6715 19.3947 26.1378 19.3947 26.7125V27.6763H21.4763V26.7125C21.4763 26.1375 21.0103 25.6715 20.4356 25.6715Z" fill="#75BDEF"/>
    <path d="M14.8991 34.5456C15.8105 34.5456 15.8105 34.0497 16.7216 34.0497C17.633 34.0497 17.633 34.5456 18.5444 34.5456C19.4554 34.5456 19.4554 34.0497 20.3669 34.0497C21.2783 34.0497 21.2783 34.5456 22.1897 34.5456C22.9695 34.5456 23.0833 34.183 23.6704 34.0783L23.9376 31.4709C23.5898 31.4709 13.4989 31.4709 13.1511 31.4709L13.4187 34.0783C14.0058 34.183 14.1196 34.5456 14.8991 34.5456Z" fill="#A0D5FF"/>
    <path d="M14.8991 34.5456C15.6578 34.5456 15.7853 34.2021 16.3325 34.087L16.0643 31.4709C14.4862 31.4709 13.2683 31.4709 13.1515 31.4709L13.419 34.0783C14.0058 34.183 14.1196 34.5456 14.8991 34.5456Z" fill="#75BDEF"/>
    <path d="M21.856 27.4919H15.2331C14.0834 27.4919 13.1515 28.4238 13.1515 29.5736H23.938C23.938 28.4238 23.0058 27.4919 21.856 27.4919Z" fill="#A0D5FF"/>
    <path d="M18.1651 27.4919H15.2331C14.0834 27.4919 13.1515 28.4238 13.1515 29.5736H16.0831C16.0831 28.4238 17.0153 27.4919 18.1651 27.4919Z" fill="#75BDEF"/>
    <path d="M14.323 42.8939C14.3875 43.5223 14.9165 44 15.5483 44H21.5407C22.1725 44 22.7019 43.5223 22.7664 42.8939L23.6898 33.8886C23.0849 33.9886 22.9785 34.3599 22.1896 34.3599C21.2782 34.3599 21.2782 33.8638 20.3668 33.8638C19.4554 33.8638 19.4554 34.3599 18.5443 34.3599C17.6329 34.3599 17.6329 33.8638 16.7215 33.8638C15.8105 33.8638 15.8105 34.3599 14.899 34.3599C14.1105 34.3599 14.0041 33.9886 13.3992 33.8886L14.323 42.8939Z" fill="#FC757E"/>
    <path d="M15.5483 43.9999H18.4611C17.8293 43.9999 17.3 43.5222 17.2355 42.8938L16.3137 33.905C15.7823 34.0238 15.6494 34.3595 14.8991 34.3595C14.1105 34.3595 14.0041 33.9886 13.3995 33.8882L14.323 42.8938C14.3875 43.5222 14.9169 43.9999 15.5483 43.9999Z" fill="#F5585C"/>
    <path d="M24.3015 31.5632H12.7876C12.2129 31.5632 11.7466 31.0969 11.7466 30.5222C11.7466 29.9471 12.2129 29.4812 12.7876 29.4812H24.3015C24.8766 29.4812 25.3425 29.9471 25.3425 30.5222C25.3425 31.0969 24.8766 31.5632 24.3015 31.5632Z" fill="#75BDEF"/>
    <path d="M15.1737 30.5222C15.1737 29.9471 15.64 29.4812 16.2147 29.4812H12.7876C12.2129 29.4812 11.7469 29.9471 11.7469 30.5222C11.7469 31.0969 12.2129 31.5632 12.7876 31.5632H16.2147C15.6396 31.5632 15.1737 31.0969 15.1737 30.5222Z" fill="#4DADE2"/>
    <path d="M27.1969 25.6715C26.6218 25.6715 26.1559 26.1378 26.1559 26.7125V27.6763H28.2379V26.7125C28.2379 26.1375 27.7716 25.6715 27.1969 25.6715Z" fill="#75BDEF"/>
    <path d="M21.6606 34.5456C22.572 34.5456 22.572 34.0497 23.483 34.0497C24.3944 34.0497 24.3944 34.5456 25.3055 34.5456C26.2169 34.5456 26.2169 34.0497 27.128 34.0497C28.0394 34.0497 28.0394 34.5456 28.9508 34.5456C29.7306 34.5456 29.8444 34.183 30.4315 34.0783L30.6991 31.4709C30.3513 31.4709 20.2604 31.4709 19.9126 31.4709L20.1801 34.0783C20.7669 34.183 20.8807 34.5456 21.6606 34.5456Z" fill="#A0D5FF"/>
    <path d="M21.6606 34.5456C22.4193 34.5456 22.5468 34.2021 23.0937 34.087L22.8254 31.4709C21.2473 31.4709 20.0294 31.4709 19.913 31.4709L20.1802 34.0783C20.767 34.183 20.8808 34.5456 21.6606 34.5456Z" fill="#75BDEF"/>
    <path d="M28.6175 27.4919H21.9946C20.8448 27.4919 19.9126 28.4238 19.9126 29.5736H30.6991C30.6991 28.4238 29.7672 27.4919 28.6175 27.4919Z" fill="#A0D5FF"/>
    <path d="M24.9262 27.4919H21.9946C20.8448 27.4919 19.9126 28.4238 19.9126 29.5736H22.8445C22.8445 28.4238 23.7764 27.4919 24.9262 27.4919Z" fill="#75BDEF"/>
    <path d="M21.0843 42.8939C21.1487 43.5223 21.6781 44 22.3099 44H28.3023C28.9338 44 29.4632 43.5223 29.5276 42.8939L30.4514 33.8886C29.8465 33.9886 29.7398 34.3599 28.9512 34.3599C28.0398 34.3599 28.0398 33.8638 27.1284 33.8638C26.217 33.8638 26.217 34.3599 25.3056 34.3599C24.3945 34.3599 24.3945 33.8638 23.4831 33.8638C22.5717 33.8638 22.5717 34.3599 21.6606 34.3599C20.8721 34.3599 20.7657 33.9886 20.1608 33.8886L21.0843 42.8939Z" fill="#F6A221"/>
    <path d="M22.3099 43.9999H25.2224C24.5906 43.9999 24.0615 43.5222 23.9971 42.8938L23.0753 33.905C22.5435 34.0238 22.4106 34.3595 21.6606 34.3595C20.8721 34.3595 20.7654 33.9886 20.1608 33.8882L21.0843 42.8938C21.1487 43.5222 21.6781 43.9999 22.3099 43.9999Z" fill="#F28A00"/>
    <path d="M31.063 31.5632H19.549C18.974 31.5632 18.5081 31.0969 18.5081 30.5222C18.5081 29.9471 18.974 29.4812 19.549 29.4812H31.063C31.6377 29.4812 32.1036 29.9471 32.1036 30.5222C32.1036 31.0969 31.6377 31.5632 31.063 31.5632Z" fill="#75BDEF"/>
    <path d="M21.9352 30.5222C21.9352 29.9471 22.4011 29.4812 22.9758 29.4812H19.549C18.974 29.4812 18.5081 29.9471 18.5081 30.5222C18.5081 31.0969 18.974 31.5632 19.549 31.5632H22.9758C22.4011 31.5632 21.9352 31.0969 21.9352 30.5222Z" fill="#4DADE2"/>
  </g>
  <defs>
    <clipPath id="clip0_826_548">
      <rect width="44" height="44" fill="white"/>
    </clipPath>
  </defs>
</svg>