<svg xmlns="http://www.w3.org/2000/svg" width="28" height="28" viewBox="0 0 28 28" fill="none">
  <g clipPath="url(#clip0_826_857)">
    <path fill-rule="evenodd" clip-rule="evenodd" d="M3.29102 5.50937C3.29111 5.38896 3.32692 5.27129 3.39392 5.17124C3.46091 5.07119 3.55607 4.99326 3.66737 4.94731C3.77867 4.90136 3.90109 4.88945 4.01915 4.9131C4.13722 4.93674 4.24561 4.99488 4.33063 5.08014C4.41564 5.16541 4.47346 5.27398 4.49675 5.39211C4.52005 5.51025 4.50778 5.63263 4.4615 5.74379C4.41522 5.85495 4.337 5.94988 4.23676 6.01658C4.13651 6.08328 4.01873 6.11874 3.89832 6.11848C3.73712 6.11789 3.58272 6.05346 3.46891 5.93931C3.35509 5.82516 3.29113 5.67057 3.29102 5.50937Z" fill="#FF8C21"/>
    <path fill-rule="evenodd" clip-rule="evenodd" d="M7.13281 5.50937C7.13291 5.38895 7.16873 5.27126 7.23573 5.17121C7.30274 5.07115 7.39792 4.99322 7.50923 4.94728C7.62054 4.90134 7.74298 4.88945 7.86105 4.91312C7.97912 4.93678 8.08752 4.99495 8.17252 5.08024C8.25752 5.16554 8.31532 5.27413 8.33858 5.39228C8.36184 5.51043 8.34954 5.63283 8.30321 5.74398C8.25689 5.85514 8.17864 5.95005 8.07835 6.01671C7.97807 6.08338 7.86026 6.11879 7.73984 6.11848C7.57869 6.11781 7.42436 6.05336 7.31061 5.93921C7.19685 5.82507 7.13293 5.67052 7.13281 5.50937Z" fill="#FF8C21"/>
    <path fill-rule="evenodd" clip-rule="evenodd" d="M10.9746 5.50937C10.9747 5.38895 11.0105 5.27126 11.0775 5.17121C11.1445 5.07115 11.2397 4.99322 11.351 4.94728C11.4623 4.90134 11.5848 4.88945 11.7028 4.91312C11.8209 4.93678 11.9293 4.99495 12.0143 5.08024C12.0993 5.16554 12.1571 5.27413 12.1804 5.39228C12.2036 5.51043 12.1913 5.63283 12.145 5.74398C12.0987 5.85514 12.0204 5.95005 11.9201 6.01671C11.8199 6.08338 11.7021 6.11879 11.5816 6.11848C11.4205 6.11781 11.2662 6.05336 11.1524 5.93921C11.0386 5.82507 10.9747 5.67052 10.9746 5.50937Z" fill="#FF8C21"/>
    <path fill-rule="evenodd" clip-rule="evenodd" d="M19.142 21.136C19.141 21.6353 18.9421 22.1139 18.5888 22.4667C18.2356 22.8196 17.7568 23.018 17.2575 23.0184H10.7429C10.2439 23.0179 9.76549 22.8193 9.41268 22.4664C9.05987 22.1135 8.86149 21.635 8.86108 21.136V13.9865C8.86133 13.9226 8.88676 13.8613 8.93186 13.816C8.97697 13.7707 9.03811 13.745 9.10204 13.7445H11.3967V15.0371C11.3953 15.081 11.4027 15.1248 11.4186 15.1658C11.4344 15.2068 11.4584 15.2442 11.489 15.2758C11.5196 15.3074 11.5562 15.3325 11.5967 15.3496C11.6372 15.3668 11.6807 15.3756 11.7246 15.3756C11.7686 15.3756 11.8121 15.3668 11.8526 15.3496C11.8931 15.3325 11.9297 15.3074 11.9603 15.2758C11.9909 15.2442 12.0148 15.2068 12.0307 15.1658C12.0465 15.1248 12.054 15.081 12.0526 15.0371V13.7445H15.9505V15.0371C15.949 15.0811 15.9564 15.125 15.9722 15.1661C15.988 15.2072 16.0119 15.2447 16.0425 15.2763C16.0731 15.308 16.1097 15.3332 16.1503 15.3504C16.1908 15.3676 16.2344 15.3764 16.2784 15.3764C16.3225 15.3764 16.366 15.3676 16.4066 15.3504C16.4471 15.3332 16.4838 15.308 16.5144 15.2763C16.545 15.2447 16.5689 15.2072 16.5847 15.1661C16.6005 15.125 16.6079 15.0811 16.6064 15.0371V13.7445H18.8984C18.9626 13.7449 19.0241 13.7705 19.0696 13.8158C19.1152 13.861 19.1412 13.9223 19.142 13.9865V21.136Z" fill="#FF8C21"/>
    <path fill-rule="evenodd" clip-rule="evenodd" d="M14.4942 21.9131C14.4942 22.0288 14.4483 22.1399 14.3666 22.2219C14.2849 22.3039 14.174 22.3502 14.0582 22.3506H10.606C10.49 22.3506 10.3787 22.3045 10.2967 22.2224C10.2146 22.1404 10.1685 22.0291 10.1685 21.9131C10.1685 21.797 10.2146 21.6858 10.2967 21.6037C10.3787 21.5217 10.49 21.4756 10.606 21.4756H14.0582C14.174 21.476 14.2849 21.5222 14.3666 21.6042C14.4483 21.6862 14.4942 21.7973 14.4942 21.9131ZM19.0325 21.1359V13.9863C19.0317 13.9511 19.0172 13.9176 18.9922 13.8929C18.9672 13.8681 18.9335 13.8541 18.8983 13.8537H16.7156V15.0369C16.7174 15.0954 16.7073 15.1537 16.6861 15.2082C16.6649 15.2628 16.633 15.3126 16.5922 15.3546C16.5514 15.3966 16.5026 15.43 16.4487 15.4528C16.3948 15.4756 16.3369 15.4873 16.2783 15.4873C16.2198 15.4873 16.1618 15.4756 16.1079 15.4528C16.054 15.43 16.0052 15.3966 15.9644 15.3546C15.9236 15.3126 15.8917 15.2628 15.8705 15.2082C15.8493 15.1537 15.8393 15.0954 15.841 15.0369V13.8537H12.1618V15.0369C12.1636 15.0954 12.1536 15.1537 12.1324 15.2082C12.1112 15.2628 12.0792 15.3126 12.0384 15.3546C11.9977 15.3966 11.9489 15.43 11.8949 15.4528C11.841 15.4756 11.7831 15.4873 11.7245 15.4873C11.666 15.4873 11.6081 15.4756 11.5541 15.4528C11.5002 15.43 11.4514 15.3966 11.4106 15.3546C11.3699 15.3126 11.3379 15.2628 11.3167 15.2082C11.2955 15.1537 11.2855 15.0954 11.2872 15.0369V13.8537H9.10192C9.067 13.8542 9.03368 13.8683 9.00908 13.8931C8.98449 13.9179 8.97058 13.9514 8.97034 13.9863V21.1358C8.97073 21.6058 9.15758 22.0565 9.48989 22.3889C9.82219 22.7213 10.2728 22.9083 10.7428 22.9088H17.2574C17.7277 22.9084 18.1787 22.7215 18.5114 22.3892C18.8441 22.0568 19.0315 21.6062 19.0325 21.1359ZM12.1618 12.8593C12.1618 12.3714 12.3557 11.9035 12.7006 11.5585C13.0456 11.2135 13.5135 11.0197 14.0014 11.0197C14.4893 11.0197 14.9572 11.2135 15.3022 11.5585C15.6472 11.9035 15.841 12.3714 15.841 12.8593V12.9785H12.1618V12.8593ZM18.8983 12.9785H16.7156V12.8593C16.7156 12.1394 16.4297 11.4491 15.9207 10.94C15.4116 10.431 14.7213 10.1451 14.0014 10.1451C13.2816 10.1451 12.5912 10.431 12.0822 10.94C11.5732 11.4491 11.2872 12.1394 11.2872 12.8593V12.9785H9.10192C8.83495 12.9791 8.57911 13.0855 8.39048 13.2744C8.20185 13.4633 8.09583 13.7193 8.09567 13.9863V21.1358C8.09625 21.8378 8.3753 22.5108 8.87159 23.0072C9.36788 23.5037 10.0409 23.7829 10.7428 23.7837H17.2574C17.9598 23.7834 18.6333 23.5044 19.1301 23.0079C19.6269 22.5115 19.9063 21.8381 19.907 21.1358V13.9863C19.9067 13.7189 19.8003 13.4626 19.6112 13.2736C19.422 13.0847 19.1657 12.9785 18.8983 12.9785ZM15.8539 5.50927C15.854 5.45174 15.8653 5.39478 15.8874 5.34165C15.9095 5.28852 15.9418 5.24025 15.9825 5.19962C16.0233 5.15899 16.0716 5.12679 16.1248 5.10485C16.178 5.08291 16.235 5.07167 16.2925 5.07177H25.0388C25.1549 5.07177 25.2662 5.11787 25.3482 5.19991C25.4303 5.28196 25.4763 5.39324 25.4763 5.50927C25.4763 5.62531 25.4303 5.73659 25.3482 5.81863C25.2662 5.90068 25.1549 5.94677 25.0388 5.94677H16.2925C16.235 5.94687 16.178 5.93563 16.1248 5.9137C16.0716 5.89176 16.0233 5.85955 15.9825 5.81892C15.9418 5.77829 15.9095 5.73003 15.8874 5.6769C15.8653 5.62377 15.854 5.56681 15.8539 5.50927ZM11.5813 5.00954C11.6803 5.00919 11.777 5.03821 11.8595 5.09291C11.9419 5.14761 12.0062 5.22553 12.0443 5.31682C12.0824 5.4081 12.0925 5.50864 12.0734 5.60569C12.0544 5.70274 12.0069 5.79195 11.9371 5.86202C11.8673 5.93208 11.7782 5.97985 11.6812 5.99927C11.5842 6.0187 11.4837 6.0089 11.3923 5.97113C11.3008 5.93336 11.2227 5.86931 11.1677 5.78709C11.1127 5.70487 11.0834 5.60819 11.0834 5.50927C11.0836 5.37711 11.1361 5.2504 11.2294 5.15678C11.3227 5.06316 11.4492 5.01023 11.5813 5.00954ZM11.5813 6.88417C11.8534 6.88462 12.1194 6.80436 12.3458 6.65355C12.5722 6.50274 12.7488 6.28817 12.8532 6.03698C12.9576 5.78579 12.9851 5.50927 12.9323 5.24242C12.8795 4.97557 12.7488 4.73038 12.5566 4.53787C12.3644 4.34536 12.1194 4.21419 11.8526 4.16096C11.5859 4.10773 11.3093 4.13482 11.058 4.23882C10.8066 4.34282 10.5917 4.51904 10.4406 4.74519C10.2894 4.97134 10.2087 5.23725 10.2087 5.50927C10.2091 5.8734 10.3538 6.22253 10.6111 6.48022C10.8683 6.73791 11.2172 6.88316 11.5813 6.88417ZM7.73965 5.00954C7.83856 5.00919 7.93536 5.03821 8.01777 5.09291C8.10018 5.14761 8.1645 5.22553 8.20259 5.31682C8.24069 5.4081 8.25083 5.50864 8.23175 5.60569C8.21266 5.70274 8.16521 5.79195 8.09539 5.86202C8.02557 5.93208 7.93653 5.97985 7.83954 5.99927C7.74256 6.0187 7.64199 6.0089 7.55057 5.97113C7.45915 5.93336 7.381 5.86931 7.32601 5.78709C7.27102 5.70487 7.24167 5.60819 7.24167 5.50927C7.2419 5.37711 7.29438 5.2504 7.38767 5.15678C7.48096 5.06316 7.60749 5.01023 7.73965 5.00954ZM7.73965 6.88417C8.01168 6.88462 8.27772 6.80436 8.50412 6.65355C8.73051 6.50274 8.90708 6.28817 9.01149 6.03698C9.1159 5.78579 9.14345 5.50927 9.09065 5.24242C9.03785 4.97557 8.90708 4.73038 8.71489 4.53787C8.5227 4.34536 8.27772 4.21419 8.01095 4.16096C7.74418 4.10773 7.46762 4.13482 7.21626 4.23882C6.9649 4.34282 6.75004 4.51904 6.59887 4.74519C6.44769 4.97134 6.367 5.23725 6.367 5.50927C6.36741 5.8734 6.5121 6.22253 6.76937 6.48022C7.02663 6.73791 7.37552 6.88316 7.73965 6.88417ZM3.89797 5.00954C3.99688 5.00919 4.09367 5.03821 4.17608 5.09291C4.25849 5.14761 4.32281 5.22553 4.36091 5.31682C4.399 5.4081 4.40914 5.50864 4.39006 5.60569C4.37098 5.70274 4.32352 5.79195 4.2537 5.86202C4.18388 5.93208 4.09484 5.97985 3.99785 5.99927C3.90087 6.0187 3.8003 6.0089 3.70888 5.97113C3.61747 5.93336 3.53931 5.86931 3.48432 5.78709C3.42933 5.70487 3.39998 5.60819 3.39998 5.50927C3.40021 5.37711 3.45269 5.2504 3.54599 5.15678C3.63928 5.06316 3.7658 5.01023 3.89797 5.00954ZM3.89797 6.88417C4.16988 6.88412 4.43568 6.80343 4.66174 6.65233C4.88781 6.50122 5.06399 6.28647 5.16801 6.03523C5.27203 5.784 5.29922 5.50756 5.24614 5.24088C5.19306 4.97419 5.06209 4.72923 4.8698 4.53698C4.6775 4.34472 4.43252 4.2138 4.16582 4.16077C3.89912 4.10774 3.62269 4.13499 3.37148 4.23906C3.12026 4.34313 2.90555 4.51935 2.75449 4.74545C2.60342 4.97154 2.52279 5.23736 2.52279 5.50927C2.52321 5.87384 2.66824 6.22335 2.92605 6.48111C3.18386 6.73887 3.5334 6.88382 3.89797 6.88417ZM25.6503 25.0201C26.0416 25.0194 26.4167 24.8636 26.6933 24.5868C26.97 24.31 27.1256 23.9348 27.1261 23.5435V8.90837H0.876754V23.5435C0.876754 23.935 1.03221 24.3104 1.30894 24.5873C1.58567 24.8642 1.96103 25.0199 2.3525 25.0201H25.6503ZM2.35233 2.98572C1.96087 2.98594 1.58551 3.1416 1.30878 3.41848C1.03204 3.69537 0.87659 4.07081 0.87659 4.46228V8.03337H27.1261V4.46228C27.1256 4.07096 26.97 3.6958 26.6933 3.41902C26.4167 3.14224 26.0416 2.98643 25.6503 2.98572H2.35233ZM25.6501 2.11072H2.35233C1.72871 2.11125 1.13076 2.35914 0.689673 2.79999C0.248585 3.24084 0.000380451 3.83866 -0.000488281 4.46228V23.5435C0.00036608 24.1672 0.248589 24.765 0.689715 25.2059C1.13084 25.6467 1.72884 25.8946 2.3525 25.8951H25.6503C26.2736 25.8941 26.871 25.646 27.3116 25.2051C27.7522 24.7643 28 24.1668 28.0007 23.5435V4.46228C28.0001 3.83896 27.7523 3.24133 27.3117 2.80043C26.8711 2.35954 26.2735 2.11175 25.6501 2.11072Z" fill="#50429B"/>
    <path d="M2.41016 20.1182H4.83615C5.06272 20.1182 5.2463 19.9346 5.2463 19.708C5.2463 19.4814 5.06272 19.2979 4.83615 19.2979H2.41016C2.18359 19.2979 2 19.4814 2 19.708C2 19.9346 2.18359 20.1182 2.41016 20.1182Z" fill="#50429B"/>
    <path d="M2.41016 21.9683H6.93686C7.16343 21.9683 7.34702 21.7847 7.34702 21.5581C7.34702 21.3315 7.16343 21.1479 6.93686 21.1479H2.41016C2.18359 21.1479 2 21.3315 2 21.5581C2 21.7847 2.18359 21.9683 2.41016 21.9683Z" fill="#50429B"/>
    <path d="M24.0705 11C23.8439 11 23.6603 11.1836 23.6603 11.4102V12.4367H22.6338C22.4072 12.4367 22.2236 12.6203 22.2236 12.8469C22.2236 13.0734 22.4072 13.257 22.6338 13.257H23.6603V14.2835C23.6603 14.5101 23.8439 14.6937 24.0705 14.6937C24.2971 14.6937 24.4806 14.5101 24.4806 14.2835V13.257H25.5071C25.7337 13.257 25.9173 13.0734 25.9173 12.8469C25.9173 12.6203 25.7337 12.4367 25.5071 12.4367H24.4806V11.4102C24.4806 11.1836 24.297 11 24.0705 11Z" fill="#FC983B"/>
  </g>
  <defs>
    <clipPath id="clip0_826_857">
      <rect width="28" height="28" fill="white"/>
    </clipPath>
  </defs>
</svg>