<svg xmlns="http://www.w3.org/2000/svg" width="20" height="20" viewBox="0 0 20 20" fill="none">
  <path d="M9.23486 2.19824L6.33964 3.60847C6.0795 3.73902 5.87284 3.95658 5.7553 4.22334L2.1434 13.2779C1.77004 14.1235 2.15086 15.112 2.99407 15.4855L6.58665 17.0774H9.25468L9.23486 2.19824Z" fill="#FFC691"/>
  <path d="M17.2827 14.5273V16.2716C17.2827 17.2427 16.4702 18.0555 15.4987 18.0555H8.16471C7.19322 18.0555 6.42041 17.2427 6.42041 16.2716V6.00396C6.42041 5.69768 6.50723 5.40729 6.70223 5.17106L8.90731 2.49935C9.15789 2.19568 9.5152 2 9.90901 2H13.7544C14.1482 2 14.5055 2.19568 14.7562 2.49935L16.9612 5.17106C17.1562 5.40729 17.2827 5.69772 17.2827 6.00396V13.1397V14.5273H17.2827Z" fill="white"/>
  <path fill-rule="evenodd" clip-rule="evenodd" d="M11.2343 8.95793L11.2344 8.9575L11.2241 8.94727C11.2188 8.94176 11.2133 8.93629 11.2078 8.93089L10.7976 8.52051L10.7394 8.63639C10.6037 8.5877 10.4577 8.56098 10.3055 8.56098H10.2658C9.55537 8.56098 8.97741 9.13898 8.97741 9.84939C8.97741 9.99654 9.00254 10.1378 9.04817 10.2697L8.92773 10.3314L9.35247 10.7571C9.35426 10.7589 9.35604 10.7607 9.35782 10.7625L9.36353 10.7682L9.36373 10.7681C9.59628 10.9965 9.91481 11.1378 10.2658 11.1378H10.3055C11.0159 11.1378 11.5939 10.5598 11.5939 9.84939C11.5939 9.50366 11.4567 9.18957 11.2343 8.95793ZM10.3055 10.5431H10.2658C9.88329 10.5431 9.57206 10.2319 9.57206 9.84939C9.57206 9.46687 9.88329 9.15563 10.2658 9.15563H10.3055C10.688 9.15563 10.9992 9.46687 10.9992 9.84939C10.9992 10.2319 10.688 10.5431 10.3055 10.5431Z" fill="#ECA630"/>
  <path fill-rule="evenodd" clip-rule="evenodd" d="M14.9558 8.68745L14.5593 8.29102L9.06445 13.7858L9.46089 14.1822C9.51896 14.2403 9.59508 14.2693 9.67115 14.2693C9.74723 14.2693 9.82334 14.2403 9.88142 14.1822L14.9558 9.1079C15.0718 8.99183 15.0718 8.80352 14.9558 8.68745Z" fill="#ECA630"/>
  <path fill-rule="evenodd" clip-rule="evenodd" d="M15.0337 12.0085L15.034 12.0083L14.7061 11.6758L14.7273 11.8106C14.5637 11.7353 14.382 11.6929 14.1904 11.6929H14.1508C13.4403 11.6929 12.8624 12.2709 12.8624 12.9814C12.8624 13.1649 12.9012 13.3396 12.9708 13.4978L12.8252 13.4766L13.2197 13.8705C13.2338 13.8853 13.2482 13.8997 13.263 13.9138L13.2721 13.9228L13.2721 13.9225C13.5025 14.1376 13.8114 14.2698 14.1508 14.2698H14.1904C14.9009 14.2698 15.4788 13.6918 15.4788 12.9814C15.4788 12.5932 15.3061 12.2449 15.0337 12.0085ZM14.1904 13.6751H14.1508C13.7683 13.6751 13.457 13.3639 13.457 12.9814C13.457 12.5988 13.7683 12.2876 14.1508 12.2876H14.1904C14.5729 12.2876 14.8842 12.5988 14.8842 12.9814C14.8842 13.3639 14.5729 13.6751 14.1904 13.6751Z" fill="#ECA630"/>
  <path d="M9.2744 13.8731C9.19833 13.8731 9.12221 13.8441 9.06414 13.786C8.94802 13.6699 8.94802 13.4816 9.06414 13.3655L14.1385 8.29119C14.2546 8.17507 14.4428 8.17507 14.559 8.29119C14.6751 8.4073 14.6751 8.59557 14.559 8.71164L9.48463 13.786C9.42659 13.8441 9.35048 13.8731 9.2744 13.8731Z" fill="#F5F5F5"/>
  <path d="M9.90861 10.7409H9.86897C9.15852 10.7409 8.58057 10.1629 8.58057 9.45247C8.58057 8.74206 9.15852 8.16406 9.86897 8.16406H9.90861C10.6191 8.16406 11.197 8.74206 11.197 9.45247C11.197 10.1629 10.6191 10.7409 9.90861 10.7409ZM9.86897 8.75871C9.48645 8.75871 9.17521 9.06995 9.17521 9.45247C9.17521 9.83498 9.48645 10.1462 9.86897 10.1462H9.90861C10.2911 10.1462 10.6024 9.83498 10.6024 9.45247C10.6024 9.06995 10.2911 8.75871 9.90861 8.75871H9.86897Z" fill="#F5F5F5"/>
  <path d="M13.7939 13.8727H13.7542C13.0438 13.8727 12.4658 13.2947 12.4658 12.5843C12.4658 11.8739 13.0438 11.2959 13.7542 11.2959H13.7939C14.5043 11.2959 15.0823 11.8739 15.0823 12.5843C15.0823 13.2947 14.5043 13.8727 13.7939 13.8727ZM13.7542 11.8905C13.3717 11.8905 13.0605 12.2018 13.0605 12.5843C13.0605 12.9668 13.3717 13.2781 13.7542 13.2781H13.7939C14.1764 13.2781 14.4876 12.9668 14.4876 12.5843C14.4876 12.2018 14.1764 11.8905 13.7939 11.8905H13.7542Z" fill="#F5F5F5"/>
  <path d="M11.8515 5.15132C11.3378 5.15132 10.9199 4.7334 10.9199 4.2197C10.9199 3.706 11.3378 3.28809 11.8515 3.28809C12.3652 3.28809 12.7832 3.706 12.7832 4.2197C12.7832 4.7334 12.3652 5.15132 11.8515 5.15132Z" fill="#F5F5F5"/>
</svg>