<svg width="71" height="60" viewBox="0 0 71 60" fill="none" xmlns="http://www.w3.org/2000/svg">
<path d="M70.1822 13C70.1822 29.5685 55.5685 57.5 39 57.5C22.4315 57.5 0 48.0685 0 31.5C0 14.9314 13.9315 0.499971 30.5 0.499971C47.0685 0.499971 70.1822 -3.56854 70.1822 13Z" fill="#DB4D29" fillOpacity="0.1"/>
<g clipPath="url(#clip0_1374_20712)">
<path d="M64.2287 53.1172H41.8382C42.0978 52.9949 42.3553 52.8662 42.6097 52.7293C42.6429 52.7115 42.6745 52.6913 42.7041 52.6694C45.0639 51.3821 47.0802 49.516 48.5406 47.2665C48.772 46.9102 48.6706 46.4338 48.3143 46.2026C47.958 45.9713 47.4817 46.0724 47.2504 46.4288C45.9077 48.4969 44.0458 50.2068 41.8658 51.3739C41.8336 51.391 41.8031 51.4104 41.7743 51.4314C37.5141 53.6787 32.4543 53.672 28.1988 51.4113C28.1787 51.398 28.1578 51.3854 28.1362 51.3739C24.0689 49.1966 21.3138 45.2826 20.5817 40.8244C21.3809 41.6926 22.4407 42.4875 23.7398 43.1796C26.7602 44.789 30.7592 45.6753 35 45.6753C39.2409 45.6753 43.2398 44.789 46.2602 43.1796C49.4341 41.4886 51.182 39.1851 51.182 36.6938C51.182 34.2024 49.4341 31.8991 46.2602 30.208C43.2398 28.5986 39.2409 27.7124 35 27.7124C30.7592 27.7124 26.7602 28.5987 23.7398 30.208C20.5659 31.8991 18.818 34.2024 18.818 36.6938C18.818 37.273 18.8473 37.8545 18.8473 38.4349C18.8473 44.3977 22.0986 49.8527 27.3379 52.6913C27.3583 52.7049 27.3794 52.7177 27.4013 52.7294C27.6558 52.8663 27.9134 52.9952 28.1728 53.1173H5.77137C5.34666 53.1173 5.0022 53.4618 5.0022 53.8865V59.231C5.0022 59.6557 5.34666 60.0002 5.77137 60.0002H64.2287C64.6534 60.0002 64.9978 59.6557 64.9978 59.231V53.8865C64.9978 53.4615 64.6534 53.1172 64.2287 53.1172ZM24.4631 31.5656C27.2648 30.0727 31.007 29.2506 35 29.2506C38.9931 29.2506 42.7351 30.0727 45.5369 31.5656C48.1852 32.9766 49.6438 34.7978 49.6438 36.6936C49.6438 38.5895 48.1853 40.4107 45.5369 41.8217C42.7352 43.3146 38.9931 44.1367 35 44.1367C31.007 44.1367 27.2649 43.3146 24.4631 41.8217C21.8148 40.4107 20.3562 38.5894 20.3562 36.6936C20.3562 34.7979 21.8148 32.9766 24.4631 31.5656ZM63.4595 58.4617H6.54055V54.6555H63.4595V58.4617Z" fill="#DB4D29"/>
<path d="M13.976 47.3174C12.5623 47.3174 11.4121 46.1672 11.4121 44.7535C11.4121 43.3397 12.5623 42.1895 13.976 42.1895C15.3898 42.1895 16.5399 43.3397 16.5399 44.7535C16.5399 46.1672 15.3898 47.3174 13.976 47.3174ZM13.976 43.7279C13.4106 43.7279 12.9505 44.188 12.9505 44.7535C12.9505 45.3189 13.4106 45.779 13.976 45.779C14.5415 45.779 15.0016 45.3189 15.0016 44.7535C15.0016 44.188 14.5415 43.7279 13.976 43.7279Z" fill="#DB4D29"/>
<path d="M13.976 38.3437C12.5623 38.3437 11.4121 37.1935 11.4121 35.7797C11.4121 34.366 12.5623 33.2158 13.976 33.2158C15.3898 33.2158 16.5399 34.366 16.5399 35.7797C16.5399 37.1935 15.3898 38.3437 13.976 38.3437ZM13.976 34.7542C13.4106 34.7542 12.9505 35.2143 12.9505 35.7797C12.9505 36.3452 13.4106 36.8053 13.976 36.8053C14.5415 36.8053 15.0016 36.3452 15.0016 35.7797C15.0016 35.2143 14.5415 34.7542 13.976 34.7542Z" fill="#DB4D29"/>
<path d="M7.56611 42.1895C6.15237 42.1895 5.0022 41.0394 5.0022 39.6256C5.0022 38.2119 6.15237 37.0617 7.56611 37.0617C8.97986 37.0617 10.13 38.2119 10.13 39.6256C10.13 41.0394 8.97986 42.1895 7.56611 42.1895ZM7.56611 38.6001C7.00064 38.6001 6.54055 39.0602 6.54055 39.6256C6.54055 40.1911 7.00064 40.6512 7.56611 40.6512C8.13159 40.6512 8.59168 40.1911 8.59168 39.6256C8.59168 39.0602 8.13159 38.6001 7.56611 38.6001Z" fill="#DB4D29"/>
<path d="M37.58 4.818C36.692 4.818 35.8187 5.02401 35.0216 5.4177L31.7135 2.15511C31.7132 2.15486 31.713 2.15473 31.7127 2.15447C31.7126 2.15435 31.7124 2.15409 31.7123 2.15396L30.2765 0.743807C29.2662 -0.248044 27.6835 -0.248044 26.6723 0.744704L24.0827 3.2958C23.3663 4.00178 24.4618 5.08144 25.1624 4.39175L27.7511 1.84142C28.1568 1.44299 28.7928 1.44286 29.1986 1.84142L30.0765 2.70366L24.6213 8.07751C23.5165 9.16525 23.5018 11.0118 24.6209 12.0959L28.4291 15.8528C29.509 16.9155 31.309 16.9019 32.3925 15.8527L36.4208 11.8868L38.9468 10.7642C39.4343 10.5476 39.5543 9.88827 39.1746 9.51368L36.2087 6.58851C36.6495 6.43609 37.1119 6.35648 37.5801 6.35648C39.7625 6.35648 41.5381 8.1393 41.5381 10.3305V11.6125C41.5381 12.0536 41.3126 12.4594 40.935 12.6978C40.1226 13.2106 40.9016 14.5379 41.7561 13.9986C42.5828 13.4767 43.0764 12.5846 43.0764 11.6124V10.3304C43.0764 7.2909 40.6106 4.818 37.58 4.818ZM35.6683 10.5378C35.5838 10.5753 35.5069 10.6278 35.441 10.6926L31.3177 14.752C30.8135 15.2402 30.0015 15.2422 29.5086 14.757L25.6962 10.996C25.1957 10.5113 25.2151 9.65931 25.7008 9.17358L31.1731 3.78295L37.291 9.81674L35.6683 10.5378Z" fill="#DB4D29"/>
<path d="M40.8394 22.8553C39.2842 22.8553 38.019 21.5901 38.019 20.035C38.019 18.7076 39.7467 16.7473 40.2762 16.1781C40.5764 15.8554 41.1024 15.8554 41.4025 16.1781C41.932 16.7473 43.6597 18.7076 43.6597 20.035C43.6597 21.59 42.3944 22.8553 40.8394 22.8553ZM40.8394 17.8746C40.1512 18.7197 39.5574 19.6467 39.5574 20.035C39.5574 20.7418 40.1325 21.3169 40.8394 21.3169C41.5462 21.3169 42.1213 20.7418 42.1213 20.035C42.1213 19.6467 41.5275 18.7197 40.8394 17.8746Z" fill="#DB4D29"/>
<path d="M57.306 47.6166C55.8263 47.6166 54.416 46.9853 53.4367 45.8848C53.1774 45.5933 53.1774 45.1537 53.4367 44.8622C54.416 43.7616 55.8263 43.1304 57.306 43.1304C58.7858 43.1304 60.1961 43.7616 61.1755 44.8622C61.4348 45.1537 61.4348 45.5933 61.1755 45.8848C60.1962 46.9853 58.7857 47.6166 57.306 47.6166ZM55.1482 45.3735C55.7672 45.8272 56.5226 46.0784 57.3062 46.0784C58.0896 46.0784 58.845 45.8274 59.4641 45.3735C58.845 44.9199 58.0896 44.6687 57.3062 44.6687C56.5225 44.6687 55.7672 44.9199 55.1482 45.3735Z" fill="#DB4D29"/>
<path d="M57.306 36.463C55.8263 36.463 54.416 35.8318 53.4367 34.7312C53.1774 34.4397 53.1774 34.0001 53.4367 33.7086C54.416 32.608 55.8263 31.9768 57.306 31.9768C58.7858 31.9768 60.1961 32.608 61.1755 33.7086C61.4348 34.0001 61.4348 34.4397 61.1755 34.7312C60.1962 35.8317 58.7857 36.463 57.306 36.463ZM55.1482 34.2198C55.7672 34.6735 56.5226 34.9247 57.3062 34.9247C58.0896 34.9247 58.845 34.6737 59.4641 34.2198C58.845 33.7662 58.0896 33.515 57.3062 33.515C56.5225 33.515 55.7672 33.7662 55.1482 34.2198Z" fill="#DB4D29"/>
<path d="M60.9341 42.1036C59.4543 42.1036 58.044 41.4724 57.0646 40.3718C56.8053 40.0803 56.8053 39.6407 57.0646 39.3492C58.0439 38.2487 59.4543 37.6174 60.9341 37.6174C62.4137 37.6174 63.8241 38.2487 64.8034 39.3492C65.0628 39.6407 65.0628 40.0803 64.8034 40.3718C63.8241 41.4724 62.4139 42.1036 60.9341 42.1036ZM58.7762 39.8605C59.3952 40.3142 60.1506 40.5653 60.9341 40.5653C61.7175 40.5653 62.4729 40.3143 63.092 39.8605C62.4729 39.4068 61.7176 39.1557 60.9341 39.1557C60.1506 39.1557 59.3952 39.4068 58.7762 39.8605Z" fill="#DB4D29"/>
<path d="M61.4244 14.2308C61.39 14.2308 61.3558 14.2321 61.3218 14.2341H49.9573C49.9233 14.2321 49.8892 14.2308 49.8547 14.2308C48.6417 14.2308 47.6914 15.4862 47.6914 17.0889C47.6914 18.1037 48.305 19.9472 49.6143 19.9472H57.5625C57.9872 19.9472 58.3317 19.6027 58.3317 19.178C58.3317 18.7533 57.9872 18.4088 57.5625 18.4088H51.781C52.0998 17.5822 52.0999 16.5987 51.7823 15.7725H59.4968C59.3461 16.1645 59.2611 16.6111 59.2611 17.089C59.2611 18.6917 60.2114 19.9473 61.4244 19.9473C62.6374 19.9473 63.5877 18.6919 63.5877 17.089C63.5877 15.4862 62.6374 14.2308 61.4244 14.2308ZM49.8547 18.4088C49.6343 18.4088 49.2298 17.9077 49.2298 17.0889C49.2298 16.2701 49.6343 15.7691 49.8547 15.7691C50.0751 15.7691 50.4797 16.2702 50.4797 17.0889C50.4797 17.9076 50.0751 18.4088 49.8547 18.4088ZM61.4244 18.4088C61.204 18.4088 60.7994 17.9077 60.7994 17.0889C60.7994 16.2701 61.204 15.7691 61.4244 15.7691C61.6448 15.7691 62.0493 16.2702 62.0493 17.0889C62.0493 17.9076 61.6448 18.4088 61.4244 18.4088Z" fill="#DB4D29"/>
<path d="M38.4037 13.9248C38.8993 13.9248 39.3011 13.523 39.3011 13.0274C39.3011 12.5318 38.8993 12.13 38.4037 12.13C37.9081 12.13 37.5063 12.5318 37.5063 13.0274C37.5063 13.523 37.9081 13.9248 38.4037 13.9248Z" fill="#DB4D29"/>
<path d="M49.422 44.6687C49.9176 44.6687 50.3194 44.2669 50.3194 43.7713C50.3194 43.2757 49.9176 42.874 49.422 42.874C48.9264 42.874 48.5247 43.2757 48.5247 43.7713C48.5247 44.2669 48.9264 44.6687 49.422 44.6687Z" fill="#DB4D29"/>
<path d="M19.8486 20.4915C21.2527 19.5249 22.2115 18.0337 22.5047 16.3272C22.5674 15.9618 22.3606 15.6036 22.0129 15.4753C20.3884 14.876 18.6175 14.9606 17.0784 15.6934C16.9434 13.9941 16.1313 12.4181 14.8 11.311C14.5149 11.074 14.1015 11.074 13.8163 11.311C12.485 12.4181 11.673 13.9941 11.538 15.6934C9.99906 14.9607 8.22816 14.8759 6.60353 15.4753C6.25574 15.6036 6.04896 15.9617 6.11178 16.3272C6.40496 18.0338 7.36438 19.5246 8.76863 20.4911C7.36412 21.4576 6.40509 22.949 6.11178 24.6559C6.04909 25.0213 6.25587 25.3795 6.60353 25.5078C7.32502 25.774 8.07522 25.9057 8.82158 25.9057C9.75587 25.9057 10.6822 25.6953 11.5378 25.2873C11.6723 26.9875 12.4844 28.5645 13.8163 29.6722C13.9589 29.7907 14.1335 29.85 14.3081 29.85C14.4827 29.85 14.6574 29.7908 14.7999 29.6722C16.1312 28.5651 16.9432 26.9892 17.0783 25.29C17.9339 25.6972 18.8606 25.9057 19.7948 25.9057C20.541 25.9057 21.2914 25.774 22.0128 25.5078C22.3606 25.3795 22.5674 25.0214 22.5046 24.6559C22.2116 22.9492 21.2527 21.4581 19.8486 20.4915ZM20.8274 16.7276C20.4646 17.8653 19.6969 18.8285 18.6546 19.4304C17.6122 20.0323 16.3944 20.2153 15.2277 19.9607C15.5904 18.8231 16.3581 17.8599 17.4004 17.258C18.4429 16.6562 19.6608 16.4732 20.8274 16.7276ZM14.3082 12.9638C15.112 13.8468 15.5624 14.9933 15.5624 16.1969C15.5624 16.3761 15.5519 16.5538 15.532 16.7297C15.0457 17.173 14.6336 17.6887 14.3077 18.2578C13.9822 17.6898 13.5706 17.1754 13.0854 16.7326C13.0654 16.5557 13.054 16.3772 13.054 16.197C13.0541 14.9933 13.5046 13.847 14.3082 12.9638ZM7.78922 16.7276C8.95567 16.4732 10.1737 16.6562 11.2161 17.258C12.0912 17.7632 12.771 18.5239 13.1818 19.4278C12.2589 19.3069 11.3241 19.389 10.4398 19.6705C10.2772 19.5996 10.1174 19.5201 9.96188 19.4303C8.91965 18.8285 8.15201 17.8653 7.78922 16.7276ZM7.78922 24.2553C8.15201 23.1177 8.91965 22.1544 9.96201 21.5525C10.8346 21.0489 11.8299 20.8398 12.8154 20.9337C12.8269 20.92 12.8409 20.9082 12.854 20.8957C12.2717 21.6434 11.8652 22.5084 11.6632 23.4307C11.5204 23.5361 11.3718 23.635 11.2161 23.7248C10.1738 24.3268 8.95593 24.5099 7.78922 24.2553ZM14.3082 28.0191C13.5044 27.1361 13.0541 25.9897 13.0541 24.786C13.0541 23.776 13.3723 22.8069 13.9493 21.9994C14.3058 22.8585 14.8446 23.6261 15.5298 24.2509C15.5497 24.4277 15.5625 24.606 15.5625 24.786C15.5624 25.9897 15.112 27.1361 14.3082 28.0191ZM17.4003 23.725C16.5259 23.22 15.8458 22.46 15.4349 21.5569C16.3473 21.6763 17.2965 21.5905 18.1735 21.3118C18.3372 21.3827 18.4981 21.4623 18.6546 21.5527C19.6969 22.1546 20.4646 23.1178 20.8274 24.2554C19.6608 24.5099 18.4428 24.3267 17.4003 23.725Z" fill="#DB4D29"/>
<path d="M49.8547 28.4081C49.8891 28.4081 49.9233 28.4068 49.9573 28.4047H61.3218C61.3558 28.4068 61.3899 28.4081 61.4244 28.4081C62.6374 28.4081 63.5877 27.1526 63.5877 25.5499C63.5877 24.5351 62.9741 22.6917 61.6648 22.6917H53.7166C53.2919 22.6917 52.9474 23.0361 52.9474 23.4609C52.9474 23.8856 53.2919 24.23 53.7166 24.23H59.4981C59.1793 25.0566 59.1792 26.0402 59.4968 26.8664H51.7823C51.933 26.4744 52.018 26.0277 52.018 25.5498C52.018 23.9471 51.0677 22.6916 49.8547 22.6916C48.6417 22.6916 47.6914 23.947 47.6914 25.5498C47.6914 27.1526 48.6416 28.4081 49.8547 28.4081ZM61.4244 24.23C61.6448 24.23 62.0493 24.7312 62.0493 25.5499C62.0493 26.3687 61.6448 26.8697 61.4244 26.8697C61.204 26.8697 60.7994 26.3686 60.7994 25.5499C60.7994 24.7313 61.204 24.23 61.4244 24.23ZM49.8547 24.23C50.0751 24.23 50.4797 24.7312 50.4797 25.5499C50.4797 26.3687 50.0751 26.8697 49.8547 26.8697C49.6343 26.8697 49.2298 26.3686 49.2298 25.5499C49.2298 24.7313 49.6343 24.23 49.8547 24.23Z" fill="#DB4D29"/>
</g>
<defs>
<clipPath id="clip0_1374_20712">
<rect width="60" height="60" fill="white" transform="translate(5)"/>
</clipPath>
</defs>
</svg>
