<svg width="21" height="21" viewBox="0 0 21 21" fill="none" xmlns="http://www.w3.org/2000/svg">
<path fill-rule="evenodd" clip-rule="evenodd" d="M18.2716 2.26137L18.2931 2.28289L18.7173 2.70715L18.7389 2.72867C19.1166 3.10637 19.4318 3.42162 19.6683 3.70022C19.915 3.99078 20.1198 4.29043 20.2367 4.65043C20.4162 5.20275 20.4162 5.7977 20.2367 6.35002C20.1198 6.71001 19.915 7.00966 19.6683 7.30023C19.4318 7.57882 19.1166 7.89408 18.7389 8.27178L18.7173 8.29329L18.2931 8.71756L18.2716 8.73907L18.2715 8.73909C17.8939 9.11684 17.5786 9.43204 17.3 9.66854C17.0094 9.91524 16.7098 10.1199 16.3498 10.2369C15.7975 10.4164 15.2025 10.4164 14.6502 10.2369C14.2902 10.1199 13.9906 9.91524 13.7 9.66854C13.4214 9.43204 13.1061 9.11674 12.7284 8.73907L12.7069 8.71756L12.2827 8.29329L12.2611 8.27178C11.8834 7.89408 11.5682 7.57882 11.3317 7.30023C11.085 7.00966 10.8802 6.71001 10.7633 6.35002C10.5838 5.7977 10.5838 5.20275 10.7633 4.65043C10.8802 4.29043 11.085 3.99078 11.3317 3.70022C11.5682 3.42162 11.8834 3.10637 12.2611 2.72867L12.2827 2.70715L12.7069 2.28289L12.7284 2.26137C13.1061 1.88365 13.4214 1.56839 13.7 1.33188C13.9906 1.0852 14.2902 0.880471 14.6502 0.763501C15.2025 0.584041 15.7975 0.584041 16.3498 0.763501C16.7098 0.880471 17.0094 1.0852 17.3 1.33188C17.5786 1.56839 17.8939 1.88365 18.2716 2.26137ZM4.16957 1.25018H4.2H4.8H4.83044C5.36459 1.25017 5.81044 1.25016 6.17467 1.27992C6.55456 1.31096 6.91121 1.37807 7.24848 1.54991C7.76592 1.81357 8.1866 2.23426 8.4503 2.75171C8.6221 3.08897 8.6892 3.44563 8.7203 3.82551C8.75 4.18974 8.75 4.63557 8.75 5.16971V5.16975V5.20018V5.80018V5.83061V5.83065C8.75 6.36479 8.75 6.81063 8.7203 7.17485C8.6892 7.55474 8.6221 7.91139 8.4503 8.24866C8.1866 8.7661 7.76592 9.18684 7.24848 9.45044C6.91121 9.62234 6.55456 9.68944 6.17467 9.72044C5.81044 9.75024 5.36459 9.75024 4.83043 9.75014H4.8H4.2H4.16957C3.63542 9.75024 3.18957 9.75024 2.82533 9.72044C2.44545 9.68944 2.08879 9.62234 1.75153 9.45044C1.23408 9.18684 0.81339 8.7661 0.54973 8.24866C0.37789 7.91139 0.31078 7.55474 0.27974 7.17485C0.24998 6.81063 0.24999 6.36479 0.25 5.83065V5.83064V5.83062V5.80018V5.20018V5.16975V5.16973V5.16971C0.24999 4.63558 0.24998 4.18974 0.27974 3.82551C0.31078 3.44563 0.37789 3.08897 0.54973 2.75171C0.81339 2.23426 1.23408 1.81357 1.75153 1.54991C2.08879 1.37807 2.44545 1.31096 2.82533 1.27992C3.18956 1.25016 3.63541 1.25017 4.16957 1.25018ZM4.2 12.2501H4.16957C3.63541 12.2501 3.18956 12.2501 2.82533 12.2799C2.44545 12.3109 2.08879 12.378 1.75153 12.5499C1.23408 12.8135 0.81339 13.2342 0.54973 13.7517C0.37789 14.0889 0.31078 14.4456 0.27974 14.8255C0.24998 15.1897 0.24999 15.6355 0.25 16.1697V16.2001V16.8001V16.8306C0.24999 17.3647 0.24998 17.8106 0.27974 18.1748C0.31078 18.5547 0.37789 18.9114 0.54973 19.2486C0.81339 19.7661 1.23408 20.1868 1.75153 20.4504C2.08879 20.6223 2.44545 20.6894 2.82533 20.7204C3.18955 20.7502 3.63537 20.7502 4.16949 20.7501H4.16957H4.2H4.8H4.83043H4.83051C5.36463 20.7502 5.81046 20.7502 6.17467 20.7204C6.55456 20.6894 6.91121 20.6223 7.24848 20.4504C7.76592 20.1868 8.1866 19.7661 8.4503 19.2486C8.6221 18.9114 8.6892 18.5547 8.7203 18.1748C8.75 17.8106 8.75 17.3647 8.75 16.8306V16.8001V16.2001V16.1697C8.75 15.6355 8.75 15.1897 8.7203 14.8255C8.6892 14.4456 8.6221 14.0889 8.4503 13.7517C8.1866 13.2342 7.76592 12.8135 7.24848 12.5499C6.91121 12.378 6.55456 12.3109 6.17467 12.2799C5.81044 12.2501 5.36459 12.2501 4.83044 12.2501H4.8H4.2ZM15.1696 12.2501H15.2H15.8H15.8304C16.3646 12.2501 16.8104 12.2501 17.1747 12.2799C17.5546 12.3109 17.9112 12.378 18.2485 12.5499C18.7659 12.8135 19.1866 13.2342 19.4503 13.7517C19.6221 14.0889 19.6892 14.4456 19.7203 14.8255C19.75 15.1897 19.75 15.6356 19.75 16.1697V16.2001V16.8001V16.8306C19.75 17.3647 19.75 17.8106 19.7203 18.1748C19.6892 18.5547 19.6221 18.9114 19.4503 19.2486C19.1866 19.7661 18.7659 20.1868 18.2485 20.4504C17.9112 20.6223 17.5546 20.6894 17.1747 20.7204C16.8105 20.7502 16.3646 20.7502 15.8305 20.7501H15.8304H15.8H15.2H15.1696H15.1695C14.6354 20.7502 14.1895 20.7502 13.8253 20.7204C13.4454 20.6894 13.0888 20.6223 12.7515 20.4504C12.2341 20.1868 11.8134 19.7661 11.5497 19.2486C11.3779 18.9114 11.3108 18.5547 11.2797 18.1748C11.25 17.8106 11.25 17.3647 11.25 16.8306V16.8001V16.2001V16.1697C11.25 15.6356 11.25 15.1897 11.2797 14.8255C11.3108 14.4456 11.3779 14.0889 11.5497 13.7517C11.8134 13.2342 12.2341 12.8135 12.7515 12.5499C13.0888 12.378 13.4454 12.3109 13.8253 12.2799C14.1896 12.2501 14.6354 12.2501 15.1696 12.2501Z" fill="#50429B"/>
</svg>