<svg width="21" height="21" viewBox="0 0 21 21" fill="none" xmlns="http://www.w3.org/2000/svg">
<path fill-rule="evenodd" clip-rule="evenodd" d="M18.2716 2.26113L18.2931 2.28265L18.7173 2.70691L18.7389 2.72843C19.1166 3.10613 19.4318 3.42138 19.6683 3.69998C19.915 3.99054 20.1198 4.29019 20.2367 4.65019C20.4162 5.20251 20.4162 5.79746 20.2367 6.34978C20.1198 6.70977 19.915 7.00942 19.6683 7.29999C19.4318 7.57858 19.1166 7.89384 18.7389 8.27154L18.7173 8.29305L18.2931 8.71732L18.2716 8.73883L18.2715 8.73885C17.8939 9.1166 17.5786 9.4318 17.3 9.6683C17.0094 9.915 16.7098 10.1197 16.3498 10.2367C15.7975 10.4162 15.2025 10.4162 14.6502 10.2367C14.2902 10.1197 13.9906 9.915 13.7 9.6683C13.4214 9.4318 13.1061 9.1165 12.7284 8.73883L12.7069 8.71732L12.2827 8.29305L12.2611 8.27154C11.8834 7.89384 11.5682 7.57858 11.3317 7.29999C11.085 7.00942 10.8802 6.70977 10.7633 6.34978C10.5838 5.79746 10.5838 5.20251 10.7633 4.65019C10.8802 4.29019 11.085 3.99054 11.3317 3.69998C11.5682 3.42138 11.8834 3.10613 12.2611 2.72843L12.2827 2.70691L12.7069 2.28265L12.7284 2.26113C13.1061 1.88341 13.4214 1.56815 13.7 1.33164C13.9906 1.08496 14.2902 0.880227 14.6502 0.763257C15.2025 0.583797 15.7975 0.583797 16.3498 0.763257C16.7098 0.880227 17.0094 1.08496 17.3 1.33164C17.5786 1.56815 17.8939 1.88341 18.2716 2.26113ZM4.16957 1.24994H4.2H4.8H4.83044C5.36459 1.24993 5.81044 1.24992 6.17467 1.27968C6.55456 1.31072 6.91121 1.37783 7.24848 1.54967C7.76592 1.81333 8.1866 2.23402 8.4503 2.75147C8.6221 3.08873 8.6892 3.44539 8.7203 3.82527C8.75 4.1895 8.75 4.63533 8.75 5.16947V5.16951V5.19994V5.79994V5.83037V5.83041C8.75 6.36455 8.75 6.81039 8.7203 7.17461C8.6892 7.5545 8.6221 7.91115 8.4503 8.24842C8.1866 8.76586 7.76592 9.1866 7.24848 9.4502C6.91121 9.6221 6.55456 9.6892 6.17467 9.7202C5.81044 9.75 5.36459 9.75 4.83043 9.7499H4.8H4.2H4.16957C3.63542 9.75 3.18957 9.75 2.82533 9.7202C2.44545 9.6892 2.08879 9.6221 1.75153 9.4502C1.23408 9.1866 0.81339 8.76586 0.54973 8.24842C0.37789 7.91115 0.31078 7.5545 0.27974 7.17461C0.24998 6.81039 0.24999 6.36455 0.25 5.83041V5.8304V5.83038V5.79994V5.19994V5.16951V5.16949V5.16947C0.24999 4.63534 0.24998 4.1895 0.27974 3.82527C0.31078 3.44539 0.37789 3.08873 0.54973 2.75147C0.81339 2.23402 1.23408 1.81333 1.75153 1.54967C2.08879 1.37783 2.44545 1.31072 2.82533 1.27968C3.18956 1.24992 3.63541 1.24993 4.16957 1.24994ZM4.2 12.2499H4.16957C3.63541 12.2499 3.18956 12.2499 2.82533 12.2797C2.44545 12.3107 2.08879 12.3778 1.75153 12.5497C1.23408 12.8133 0.81339 13.234 0.54973 13.7515C0.37789 14.0887 0.31078 14.4454 0.27974 14.8253C0.24998 15.1895 0.24999 15.6353 0.25 16.1695V16.1999V16.7999V16.8304C0.24999 17.3645 0.24998 17.8104 0.27974 18.1746C0.31078 18.5545 0.37789 18.9112 0.54973 19.2484C0.81339 19.7659 1.23408 20.1866 1.75153 20.4502C2.08879 20.6221 2.44545 20.6892 2.82533 20.7202C3.18955 20.75 3.63537 20.75 4.16949 20.7499H4.16957H4.2H4.8H4.83043H4.83051C5.36463 20.75 5.81046 20.75 6.17467 20.7202C6.55456 20.6892 6.91121 20.6221 7.24848 20.4502C7.76592 20.1866 8.1866 19.7659 8.4503 19.2484C8.6221 18.9112 8.6892 18.5545 8.7203 18.1746C8.75 17.8104 8.75 17.3645 8.75 16.8304V16.7999V16.1999V16.1695C8.75 15.6353 8.75 15.1895 8.7203 14.8253C8.6892 14.4454 8.6221 14.0887 8.4503 13.7515C8.1866 13.234 7.76592 12.8133 7.24848 12.5497C6.91121 12.3778 6.55456 12.3107 6.17467 12.2797C5.81044 12.2499 5.36459 12.2499 4.83044 12.2499H4.8H4.2ZM15.1696 12.2499H15.2H15.8H15.8304C16.3646 12.2499 16.8104 12.2499 17.1747 12.2797C17.5546 12.3107 17.9112 12.3778 18.2485 12.5497C18.7659 12.8133 19.1866 13.234 19.4503 13.7515C19.6221 14.0887 19.6892 14.4454 19.7203 14.8253C19.75 15.1895 19.75 15.6354 19.75 16.1695V16.1999V16.7999V16.8304C19.75 17.3645 19.75 17.8104 19.7203 18.1746C19.6892 18.5545 19.6221 18.9112 19.4503 19.2484C19.1866 19.7659 18.7659 20.1866 18.2485 20.4502C17.9112 20.6221 17.5546 20.6892 17.1747 20.7202C16.8105 20.75 16.3646 20.75 15.8305 20.7499H15.8304H15.8H15.2H15.1696H15.1695C14.6354 20.75 14.1895 20.75 13.8253 20.7202C13.4454 20.6892 13.0888 20.6221 12.7515 20.4502C12.2341 20.1866 11.8134 19.7659 11.5497 19.2484C11.3779 18.9112 11.3108 18.5545 11.2797 18.1746C11.25 17.8104 11.25 17.3645 11.25 16.8304V16.7999V16.1999V16.1695C11.25 15.6354 11.25 15.1895 11.2797 14.8253C11.3108 14.4454 11.3779 14.0887 11.5497 13.7515C11.8134 13.234 12.2341 12.8133 12.7515 12.5497C13.0888 12.3778 13.4454 12.3107 13.8253 12.2797C14.1896 12.2499 14.6354 12.2499 15.1696 12.2499Z" fill="white"/>
</svg>
