<svg width="22" height="20" viewBox="0 0 22 20" fill="none" xmlns="http://www.w3.org/2000/svg">
<path d="M17.5628 7.26676L15.5917 2.34887C15.2222 1.42712 14.3662 0.833496 13.3716 0.833496C13.2512 0.833496 13.131 0.842168 13.0119 0.85923L7.76718 1.61115C7.0094 1.71981 6.40382 2.12903 6.02104 2.79207L1.06026 11.3852C0.73945 11.9409 0.655403 12.5941 0.821481 13.2137C0.988075 13.8352 1.38497 14.3566 1.94245 14.6784L9.15839 18.8446C9.7109 19.1636 10.3672 19.2492 10.9834 19.085C11.6041 18.9197 12.1301 18.5183 12.4514 17.9617L17.4127 9.36915C17.7951 8.70681 17.8474 7.97668 17.5628 7.26676ZM6.45525 7.57787C6.87234 6.85557 7.80239 6.60643 8.52468 7.02339C9.24707 7.44039 9.49607 8.37048 9.07912 9.09282C8.80748 9.56345 8.30578 9.84985 7.76433 9.84985C7.49873 9.84985 7.2397 9.78001 7.00968 9.64731C6.28729 9.2304 6.03815 8.30017 6.45525 7.57787ZM11.2852 14.4457C11.0135 14.9163 10.5118 15.2027 9.97036 15.2027C9.70439 15.2027 9.44559 15.1332 9.21529 15.0002C8.49318 14.5832 8.2439 13.653 8.66081 12.9307C9.07776 12.2084 10.0079 11.9593 10.7302 12.3763C11.4525 12.7932 11.7021 13.7234 11.2852 14.4457ZM11.8576 9.61614L6.16795 12.9012C6.12436 12.9264 6.07565 12.9392 6.02536 12.9392C5.92336 12.9392 5.82951 12.8852 5.77842 12.7966C5.6999 12.6605 5.74668 12.486 5.88276 12.4074L11.5724 9.1224C11.7087 9.0437 11.8833 9.09048 11.962 9.22675C12.0405 9.36282 11.9937 9.53757 11.8576 9.61614ZM14.378 4.50179C14.1754 4.85251 13.8491 5.10278 13.4579 5.20768C13.3292 5.24218 13.1963 5.25995 13.0631 5.25995C12.7975 5.25995 12.5386 5.18917 12.3085 5.05628C11.5862 4.63918 11.337 3.70942 11.754 2.98703C12.171 2.26464 13.1011 2.01531 13.8234 2.43254C14.5453 2.84954 14.7951 3.77978 14.378 4.50179ZM6.9487 7.86287C7.11815 7.56929 7.4309 7.39061 7.76868 7.39061C7.93439 7.39061 8.09606 7.43411 8.23959 7.51689C8.69062 7.777 8.84526 8.35712 8.58515 8.80782C8.32514 9.25843 7.74515 9.41373 7.29464 9.15362C6.84426 8.89356 6.68873 8.31339 6.9487 7.86287ZM21.2621 6.48128V15.845C21.2621 17.0904 20.2486 18.1038 19.0032 18.1038H13.0281L17.9066 9.65411C18.3805 8.83337 18.4445 7.9344 18.0919 7.05475L16.1207 2.13662C16.0128 1.86732 15.8684 1.61434 15.6891 1.38615L15.5009 1.14662L15.789 1.24539C16.0346 1.32957 16.2629 1.45553 16.467 1.61584L20.3988 4.70495C20.9629 5.14806 21.2621 5.76409 21.2621 6.48128ZM10.7912 14.1607C10.5311 14.611 9.95081 14.767 9.50029 14.5069C9.04959 14.2467 8.89467 13.6663 9.15473 13.2157C9.32386 12.9227 9.63684 12.7436 9.97411 12.7436C10.1401 12.7436 10.3016 12.7871 10.4453 12.8702C10.8956 13.1304 11.0515 13.7102 10.7912 14.1607Z" fill="#50429B"/>
</svg>
