<svg width="117" height="19" viewBox="0 0 117 19" fill="none" xmlns="http://www.w3.org/2000/svg">
<path d="M9.55278 0.798626C9.85938 -0.10725 11.1406 -0.107252 11.4472 0.798624L13.0765 5.61239C13.2139 6.01849 13.595 6.2918 14.0237 6.2918H19.2065C20.185 6.2918 20.5812 7.55218 19.7785 8.112L15.6568 10.9869C15.2919 11.2413 15.139 11.7063 15.2816 12.1276L16.8724 16.8277C17.1818 17.7419 16.1447 18.5207 15.3531 17.9685L11.0721 14.9826C10.7284 14.7429 10.2716 14.7429 9.92793 14.9826L5.64689 17.9685C4.8553 18.5207 3.81819 17.7419 4.1276 16.8277L5.71838 12.1276C5.861 11.7063 5.70812 11.2413 5.34324 10.9869L1.22147 8.112C0.418839 7.55218 0.814969 6.2918 1.79355 6.2918H6.97631C7.40505 6.2918 7.78608 6.01849 7.92353 5.61239L9.55278 0.798626Z" fill="#F1CD11"/>
<path d="M34.0489 0.927052C34.3483 0.00574112 35.6517 0.00573993 35.9511 0.927051L37.4697 5.60081C37.6035 6.01284 37.9875 6.2918 38.4207 6.2918H43.335C44.3037 6.2918 44.7065 7.53141 43.9228 8.10081L39.947 10.9894C39.5966 11.244 39.4499 11.6954 39.5838 12.1074L41.1024 16.7812C41.4017 17.7025 40.3472 18.4686 39.5635 17.8992L35.5878 15.0106C35.2373 14.756 34.7627 14.756 34.4122 15.0106L30.4365 17.8992C29.6528 18.4686 28.5983 17.7025 28.8976 16.7812L30.4162 12.1074C30.5501 11.6954 30.4034 11.244 30.053 10.9894L26.0772 8.10081C25.2935 7.53141 25.6963 6.2918 26.665 6.2918H31.5793C32.0125 6.2918 32.3965 6.01284 32.5303 5.60081L34.0489 0.927052Z" fill="#F1CD11"/>
<path d="M58.0489 0.927052C58.3483 0.00574112 59.6517 0.00573993 59.9511 0.927051L61.4697 5.60081C61.6035 6.01284 61.9875 6.2918 62.4207 6.2918H67.335C68.3037 6.2918 68.7065 7.53141 67.9228 8.10081L63.947 10.9894C63.5966 11.244 63.4499 11.6954 63.5838 12.1074L65.1024 16.7812C65.4017 17.7025 64.3472 18.4686 63.5635 17.8992L59.5878 15.0106C59.2373 14.756 58.7627 14.756 58.4122 15.0106L54.4365 17.8992C53.6528 18.4686 52.5983 17.7025 52.8976 16.7812L54.4162 12.1074C54.5501 11.6954 54.4034 11.244 54.053 10.9894L50.0772 8.10081C49.2935 7.53141 49.6963 6.2918 50.665 6.2918H55.5793C56.0125 6.2918 56.3965 6.01284 56.5303 5.60081L58.0489 0.927052Z" fill="#F1CD11"/>
<path d="M82.0489 0.927052C82.3483 0.00574112 83.6517 0.00573993 83.9511 0.927051L85.4697 5.60081C85.6035 6.01284 85.9875 6.2918 86.4207 6.2918H91.335C92.3037 6.2918 92.7065 7.53141 91.9228 8.10081L87.947 10.9894C87.5966 11.244 87.4499 11.6954 87.5838 12.1074L89.1024 16.7812C89.4017 17.7025 88.3472 18.4686 87.5635 17.8992L83.5878 15.0106C83.2373 14.756 82.7627 14.756 82.4122 15.0106L78.4365 17.8992C77.6528 18.4686 76.5983 17.7025 76.8976 16.7812L78.4162 12.1074C78.5501 11.6954 78.4034 11.244 78.053 10.9894L74.0772 8.10081C73.2935 7.53141 73.6963 6.2918 74.665 6.2918H79.5793C80.0125 6.2918 80.3965 6.01284 80.5303 5.60081L82.0489 0.927052Z" fill="#F1CD11"/>
<path d="M106.524 1.08156C106.674 0.620903 107.326 0.620905 107.476 1.08156L108.994 5.75532C109.195 6.37336 109.771 6.7918 110.421 6.7918H115.335C115.819 6.7918 116.021 7.4116 115.629 7.6963L111.653 10.5848C111.127 10.9668 110.907 11.6439 111.108 12.2619L112.627 16.9357C112.777 17.3963 112.249 17.7794 111.857 17.4947L107.882 14.6061C107.356 14.2242 106.644 14.2242 106.118 14.6061L102.143 17.4947C101.751 17.7794 101.223 17.3963 101.373 16.9357L102.892 12.2619C103.093 11.6439 102.873 10.9668 102.347 10.5848L98.3711 7.6963C97.9793 7.4116 98.1806 6.7918 98.665 6.7918H103.579C104.229 6.7918 104.805 6.37336 105.006 5.75532L106.524 1.08156Z" fill="white" stroke="#E6E6E6"/>
</svg>
