<svg width="20" height="23" viewBox="0 0 20 23" fill="#50429B" xmlns="http://www.w3.org/2000/svg">
<path d="M10.0052 3.83594V0.335938L5.33854 5.0026L10.0052 9.66927V6.16927C13.8669 6.16927 17.0052 9.3076 17.0052 13.1693C17.0052 16.6343 14.4735 19.5043 11.1719 20.0643V22.4209C15.7802 21.8493 19.3385 17.9293 19.3385 13.1693C19.3385 8.0126 15.1619 3.83594 10.0052 3.83594ZM3.00521 13.1693C3.00521 11.2443 3.78688 9.49427 5.05854 8.2226L3.40188 6.56594C1.6535 8.31879 0.67172 10.6935 0.671875 13.1693C0.671875 17.9293 4.23021 21.8493 8.83854 22.4209V20.0643C5.53688 19.5043 3.00521 16.6343 3.00521 13.1693Z"/>
</svg>