<svg width="32" height="32" viewBox="0 0 32 32" fill="none" xmlns="http://www.w3.org/2000/svg">
<path d="M26.7043 6.39738C24.539 3.89347 19.7551 3.00024 16.0013 3.00024H15.9999C12.2447 3.00024 7.46085 3.89224 5.29484 6.39738C2.22062 9.95204 2.22062 19.3818 5.29549 22.9378C5.89138 23.5942 6.6037 24.1345 7.3964 24.5315C7.44219 24.5613 7.48094 24.6008 7.50995 24.6471C7.53897 24.6934 7.55754 24.7455 7.5644 24.7997L8.00776 27.4651C8.07151 27.8497 8.23066 28.2121 8.47067 28.5193C8.71068 28.8266 9.02387 29.0687 9.38162 29.2236C9.73937 29.3785 10.1302 29.4413 10.5185 29.4061C10.9068 29.371 11.28 29.239 11.6041 29.0224L15.2473 26.5927C15.5238 26.4128 15.8472 26.3186 16.177 26.3219C20.9635 26.2893 24.8984 25.0237 26.7044 22.9365C29.7786 19.3818 29.7786 9.95207 26.7043 6.39738Z" fill="#FFC84D"/>
<path d="M15.4767 9.5251L14.2322 12.4288C14.1883 12.5313 14.1153 12.6186 14.0222 12.68C13.9292 12.7413 13.8202 12.774 13.7087 12.774H11.2375C11.1195 12.774 11.0044 12.8107 10.9081 12.8789C10.8118 12.9472 10.7391 13.0437 10.7001 13.1551C10.661 13.2664 10.6575 13.3872 10.69 13.5006C10.7226 13.6141 10.7896 13.7146 10.8817 13.7883L13.039 15.5141C13.1277 15.5851 13.1931 15.6809 13.2269 15.7893C13.2607 15.8977 13.2613 16.0138 13.2287 16.1226L12.2399 19.4186C12.2055 19.5334 12.2082 19.6562 12.2476 19.7695C12.287 19.8827 12.3612 19.9806 12.4595 20.0493C12.5578 20.1179 12.6753 20.1537 12.7952 20.1517C12.9151 20.1496 13.0313 20.1098 13.1272 20.0379L15.6584 18.1394C15.757 18.0655 15.8769 18.0255 16.0002 18.0255C16.1234 18.0255 16.2433 18.0655 16.3419 18.1394L18.8731 20.0379C18.969 20.1098 19.0852 20.1496 19.2051 20.1517C19.325 20.1537 19.4425 20.1179 19.5408 20.0493C19.6392 19.9806 19.7133 19.8827 19.7528 19.7695C19.7922 19.6562 19.7949 19.5334 19.7604 19.4186L18.7716 16.1226C18.739 16.0138 18.7396 15.8977 18.7734 15.7893C18.8072 15.6809 18.8727 15.5851 18.9614 15.5141L21.1186 13.7884C21.2108 13.7147 21.2778 13.6141 21.3103 13.5007C21.3429 13.3872 21.3393 13.2665 21.3003 13.1551C21.2612 13.0437 21.1885 12.9473 21.0922 12.879C20.996 12.8107 20.8809 12.7741 20.7628 12.7741H18.2917C18.1802 12.7741 18.0712 12.7414 17.9781 12.68C17.8851 12.6186 17.8121 12.5313 17.7682 12.4289L16.5237 9.52515C16.4798 9.4227 16.4068 9.33538 16.3137 9.27401C16.2207 9.21265 16.1117 9.17994 16.0002 9.17993C15.8887 9.17993 15.7797 9.21263 15.6867 9.27398C15.5936 9.33534 15.5206 9.42265 15.4767 9.5251Z" fill="white"/>
</svg>
