<svg width="24" height="24" viewBox="0 0 24 24" fill="none" xmlns="http://www.w3.org/2000/svg">
<g clipPath="url(#clip0_107_2844)">
<path fill-rule="evenodd" clip-rule="evenodd" d="M4.85156 0.703125H14.7891C16.0781 0.703125 17.1328 1.75781 17.1328 3.04688V20.9532C17.1328 22.2422 16.0781 23.2969 14.7891 23.2969H4.85156C3.5625 23.2969 2.50781 22.2422 2.50781 20.9532V3.04688C2.50781 1.75781 3.5625 0.703125 4.85156 0.703125Z" fill="#F4F1F1"/>
<path fill-rule="evenodd" clip-rule="evenodd" d="M14.7891 0.703125H9.82031V23.2969H14.7891C16.0781 23.2969 17.1328 22.2422 17.1328 20.9532V3.04688C17.1328 1.75781 16.0781 0.703125 14.7891 0.703125Z" fill="#ECEAE7"/>
<path d="M14.789 0H4.85156C3.17151 0 1.80469 1.36683 1.80469 3.04687V20.9531C1.80469 22.6332 3.17151 24 4.85156 24H14.789C16.4691 24 17.8359 22.6332 17.8359 20.9531V3.04687C17.8359 1.36683 16.4691 0 14.789 0ZM16.4297 20.9531C16.4297 21.8578 15.6937 22.5938 14.789 22.5938H4.85156C3.94692 22.5938 3.21093 21.8578 3.21093 20.9531V3.04687C3.21093 2.14223 3.94692 1.40625 4.85156 1.40625H5.06727L5.36015 2.3077C5.7373 3.46865 6.76977 4.21874 7.99039 4.21874H11.6497C12.87 4.21874 13.9024 3.46888 14.2798 2.3084L14.5732 1.40625H14.7891C15.6937 1.40625 16.4297 2.14223 16.4297 3.04687V20.9531H16.4297Z" fill="#00429D"/>
<path d="M14.7891 0H9.82031V4.21874H11.6498C12.8701 4.21874 13.9025 3.46888 14.2799 2.3084L14.5732 1.40625H14.7891C15.6937 1.40625 16.4297 2.14223 16.4297 3.04687V20.9531C16.4297 21.8578 15.6937 22.5938 14.7891 22.5938H9.82036V24H14.7891C16.4691 24 17.836 22.6332 17.836 20.9531V3.04687C17.8359 1.36683 16.4691 0 14.7891 0Z" fill="#00347B"/>
<path d="M8.13281 11.2969H5.32031C4.932 11.2969 4.61719 10.9821 4.61719 10.5938V7.78125C4.61719 7.39294 4.932 7.07812 5.32031 7.07812H8.13281C8.52113 7.07812 8.83594 7.39294 8.83594 7.78125V10.5938C8.83594 10.9821 8.52117 11.2969 8.13281 11.2969ZM6.02344 9.89062H7.42969V8.48438H6.02344V9.89062Z" fill="#45F6FF"/>
<path d="M14.3203 19.7344H11.5078C11.1195 19.7344 10.8047 19.4196 10.8047 19.0312V16.2188C10.8047 15.8304 11.1195 15.5156 11.5078 15.5156H14.3203C14.7086 15.5156 15.0234 15.8304 15.0234 16.2188V19.0312C15.0234 19.4196 14.7087 19.7344 14.3203 19.7344ZM12.2109 18.3281H13.6172V16.9219H12.2109V18.3281Z" fill="#7DD5F4"/>
<path d="M8.13281 19.7344H5.32031C4.932 19.7344 4.61719 19.4196 4.61719 19.0312V16.2188C4.61719 15.8304 4.932 15.5156 5.32031 15.5156H8.13281C8.52113 15.5156 8.83594 15.8304 8.83594 16.2188V19.0312C8.83594 19.4196 8.52113 19.7344 8.13281 19.7344ZM6.02344 18.3281H7.42969V16.9219H6.02344V18.3281Z" fill="#45F6FF"/>
<path d="M7.94531 14.1094H5.32031C4.932 14.1094 4.61719 13.7946 4.61719 13.4062C4.61719 13.0179 4.932 12.7031 5.32031 12.7031H7.94531C8.33363 12.7031 8.64844 13.0179 8.64844 13.4062C8.64844 13.7946 8.33363 14.1094 7.94531 14.1094Z" fill="#45F6FF"/>
<path d="M13.0838 10.9219H10.9453C10.557 10.9219 10.2422 10.6071 10.2422 10.2188V7.78125C10.2422 7.39294 10.557 7.07812 10.9453 7.07812C11.3336 7.07812 11.6484 7.39294 11.6484 7.78125V9.51562H13.0837C13.4721 9.51562 13.7869 9.83044 13.7869 10.2188C13.7869 10.6071 13.4721 10.9219 13.0838 10.9219Z" fill="#7DD5F4"/>
<path d="M14.3203 8.95312H13.4297C13.0414 8.95312 12.7266 8.63831 12.7266 8.25C12.7266 7.86169 13.0414 7.54688 13.4297 7.54688H14.3203C14.7086 7.54688 15.0234 7.86169 15.0234 8.25C15.0234 8.63831 14.7087 8.95312 14.3203 8.95312Z" fill="#7DD5F4"/>
<path d="M11.2266 14.5781C10.8382 14.5781 10.5234 14.2633 10.5234 13.875V12.9375C10.5234 12.5492 10.8382 12.2344 11.2266 12.2344H14.1797C14.568 12.2344 14.8828 12.5492 14.8828 12.9375C14.8828 13.3258 14.568 13.6406 14.1797 13.6406H11.9297V13.875C11.9297 14.2634 11.6149 14.5781 11.2266 14.5781Z" fill="#7DD5F4"/>
<path d="M20.7092 15.5792C22.686 13.6025 22.686 10.3975 20.7092 8.42081C18.7325 6.44408 15.5276 6.44408 13.5509 8.42081C11.5741 10.3975 11.5741 13.6025 13.5509 15.5792C15.5276 17.5559 18.7325 17.5559 20.7092 15.5792Z" fill="#8EE26B"/>
<path d="M17.1328 6.9375V17.0625C19.9243 17.0625 22.1953 14.7915 22.1953 12C22.1953 9.20855 19.9243 6.9375 17.1328 6.9375Z" fill="#00CBB1"/>
<path d="M17.1885 13.5874C17.0241 13.5874 16.859 13.53 16.7258 13.4134L15.6893 12.5066C15.3971 12.2508 15.3675 11.8066 15.6232 11.5144C15.8789 11.2222 16.3231 11.1925 16.6154 11.4483L17.1352 11.9031L18.4045 10.5206C18.6671 10.2345 19.1119 10.2155 19.398 10.4781C19.684 10.7408 19.703 11.1855 19.4404 11.4716L17.7068 13.3598C17.5682 13.5106 17.3788 13.5874 17.1885 13.5874Z" fill="#F4F1F1"/>
<path d="M19.3977 10.4781C19.1116 10.2155 18.6668 10.2345 18.4042 10.5206L17.1349 11.9031L17.1328 11.9013V13.585C17.1513 13.5865 17.1698 13.5874 17.1883 13.5874C17.3785 13.5874 17.568 13.5107 17.7065 13.3599L19.44 11.4717C19.7027 11.1855 19.6837 10.7407 19.3977 10.4781Z" fill="#ECEAE7"/>
</g>
<defs>
<clipPath id="clip0_107_2844">
<rect width="24" height="24" fill="white"/>
</clipPath>
</defs>
</svg>
