<svg width="60" height="61" viewBox="0 0 60 61" fill="none" xmlns="http://www.w3.org/2000/svg">
<g id="restaurant (2) 1">
<g id="01-Restaurant">
<path id="Vector" d="M30 2C24.0347 2.00682 18.3157 4.37954 14.0976 8.59763C9.87954 12.8157 7.50682 18.5347 7.5 24.5C7.5 41.6506 28.5466 57.4041 29.4429 58.0664C29.6042 58.1857 29.7994 58.25 30 58.25C30.2006 58.25 30.3958 58.1857 30.5571 58.0664C31.4534 57.4041 52.5 41.6506 52.5 24.5C52.4932 18.5347 50.1205 12.8157 45.9024 8.59763C41.6843 4.37954 35.9653 2.00682 30 2ZM30 41.375C26.6624 41.375 23.3998 40.3853 20.6248 38.5311C17.8497 36.6768 15.6868 34.0413 14.4095 30.9578C13.1323 27.8743 12.7981 24.4813 13.4492 21.2079C14.1004 17.9344 15.7076 14.9276 18.0676 12.5676C20.4276 10.2076 23.4344 8.60037 26.7079 7.94925C29.9813 7.29812 33.3743 7.6323 36.4578 8.90953C39.5413 10.1868 42.1768 12.3497 44.0311 15.1248C45.8853 17.8998 46.875 21.1624 46.875 24.5C46.8699 28.974 45.0904 33.2632 41.9268 36.4268C38.7632 39.5904 34.474 41.3699 30 41.375ZM40.3125 19.8125C40.3488 20.8446 40.1069 21.8674 39.612 22.7738C39.1172 23.6802 38.3877 24.4369 37.5 24.9645V32.9375C37.5 33.4348 37.3025 33.9117 36.9508 34.2633C36.5992 34.615 36.1223 34.8125 35.625 34.8125C35.1277 34.8125 34.6508 34.615 34.2992 34.2633C33.9475 33.9117 33.75 33.4348 33.75 32.9375V24.9645C32.8623 24.4369 32.1328 23.6802 31.638 22.7738C31.1431 21.8674 30.9012 20.8446 30.9375 19.8125C30.9375 16.7107 33.0405 14.1875 35.625 14.1875C38.2095 14.1875 40.3125 16.7107 40.3125 19.8125ZM29.0625 15.125V22.625C29.0617 23.3707 28.7651 24.0856 28.2378 24.6128C27.7106 25.1401 26.9957 25.4367 26.25 25.4375V32.9375C26.25 33.4348 26.0525 33.9117 25.7008 34.2633C25.3492 34.615 24.8723 34.8125 24.375 34.8125C23.8777 34.8125 23.4008 34.615 23.0492 34.2633C22.6975 33.9117 22.5 33.4348 22.5 32.9375V25.4375C21.7543 25.4367 21.0394 25.1401 20.5122 24.6128C19.9849 24.0856 19.6883 23.3707 19.6875 22.625V15.125C19.6875 14.8764 19.7863 14.6379 19.9621 14.4621C20.1379 14.2863 20.3764 14.1875 20.625 14.1875C20.8736 14.1875 21.1121 14.2863 21.2879 14.4621C21.4637 14.6379 21.5625 14.8764 21.5625 15.125V19.8125H23.4375V15.125C23.4375 14.8764 23.5363 14.6379 23.7121 14.4621C23.8879 14.2863 24.1264 14.1875 24.375 14.1875C24.6236 14.1875 24.8621 14.2863 25.0379 14.4621C25.2137 14.6379 25.3125 14.8764 25.3125 15.125V19.8125H27.1875V15.125C27.1875 14.8764 27.2863 14.6379 27.4621 14.4621C27.6379 14.2863 27.8764 14.1875 28.125 14.1875C28.3736 14.1875 28.6121 14.2863 28.7879 14.4621C28.9637 14.6379 29.0625 14.8764 29.0625 15.125Z" fill="#DB4D29"/>
</g>
</g>
</svg>
