<svg width="36" height="36" viewBox="0 0 36 36" fill="none" xmlns="http://www.w3.org/2000/svg">
<g clipPath="url(#clip0_1_413)">
<path fill-rule="evenodd" clip-rule="evenodd" d="M8.40386 24.4608C9.43084 24.4608 10.4348 24.7997 11.2887 25.4347C12.1426 26.0696 12.8081 26.9721 13.2011 28.028C13.5941 29.0838 13.6969 30.2457 13.4966 31.3666C13.2962 32.4875 12.8017 33.5172 12.0755 34.3253C11.3493 35.1334 10.4241 35.6838 9.41687 35.9068C8.40962 36.1297 7.36559 36.0153 6.41678 35.5779C5.46798 35.1406 4.65702 34.3999 4.08646 33.4496C3.5159 32.4994 3.21136 31.3822 3.21136 30.2393C3.21136 28.7067 3.75843 27.237 4.73221 26.1533C5.706 25.0696 7.02673 24.4608 8.40386 24.4608ZM8.40386 25.9432C7.64176 25.9432 6.89677 26.1948 6.26315 26.666C5.62954 27.1373 5.13576 27.8072 4.8443 28.5908C4.55283 29.3744 4.47678 30.2367 4.62575 31.0684C4.77472 31.9002 5.14202 32.6641 5.6812 33.2635C6.22037 33.8629 6.90718 34.2708 7.65474 34.4358C8.40231 34.6007 9.17703 34.5151 9.8809 34.19C10.5848 33.8648 11.1862 33.3146 11.609 32.609C12.0318 31.9034 12.2571 31.0741 12.2563 30.226C12.2563 29.0889 11.8504 27.9985 11.1279 27.1945C10.4055 26.3904 9.42559 25.9388 8.40386 25.9388" fill="#000044"/>
<path fill-rule="evenodd" clip-rule="evenodd" d="M8.40386 25.9432C9.16597 25.9432 9.91096 26.1947 10.5446 26.666C11.1782 27.1373 11.672 27.8071 11.9634 28.5908C12.2549 29.3744 12.3309 30.2367 12.182 31.0684C12.033 31.9002 11.6657 32.6641 11.1265 33.2635C10.5874 33.8629 9.90054 34.2708 9.15298 34.4358C8.40542 34.6007 7.6307 34.5151 6.92683 34.19C6.22296 33.8648 5.62156 33.3146 5.19873 32.609C4.7759 31.9034 4.55063 31.0741 4.55142 30.2259C4.55142 29.0889 4.9573 27.9984 5.67978 27.1944C6.40225 26.3904 7.38213 25.9388 8.40386 25.9388M8.40386 27.5545C7.92987 27.5545 7.46652 27.7109 7.07241 28.004C6.67831 28.297 6.37114 28.7136 6.18975 29.2009C6.00836 29.6882 5.9609 30.2245 6.05337 30.7418C6.14584 31.2592 6.37409 31.7344 6.70925 32.1074C7.04441 32.4803 7.47143 32.7343 7.93632 32.8373C8.4012 32.9402 8.88307 32.8873 9.32098 32.6855C9.75889 32.4836 10.1332 32.1418 10.3965 31.7032C10.6598 31.2646 10.8004 30.749 10.8004 30.2215C10.8004 29.5142 10.5479 28.8358 10.0985 28.3357C9.64903 27.8355 9.03946 27.5545 8.40386 27.5545Z" fill="#A9C2C2"/>
<path d="M8.40387 33.2641C7.86488 33.2641 7.33798 33.0863 6.88977 32.7531C6.44156 32.42 6.09215 31.9464 5.8857 31.3924C5.67926 30.8383 5.62504 30.2285 5.7299 29.6402C5.83477 29.0518 6.094 28.5113 6.47485 28.0868C6.8557 27.6624 7.34106 27.3731 7.8696 27.2555C8.39814 27.138 8.94614 27.1974 9.44433 27.4263C9.94252 27.6553 10.3685 28.0434 10.6686 28.5417C10.9686 29.04 11.1291 29.6261 11.1299 30.2259C11.1299 31.0305 10.8427 31.8022 10.3315 32.3711C9.82025 32.94 9.12687 33.2597 8.40387 33.2597M8.40387 26.2988C7.70592 26.2988 7.02365 26.5291 6.44332 26.9606C5.863 27.3922 5.41069 28.0055 5.14359 28.7231C4.8765 29.4407 4.80661 30.2303 4.94278 30.9921C5.07894 31.7539 5.41504 32.4536 5.90856 33.0029C6.40209 33.5521 7.03088 33.9261 7.71542 34.0776C8.39996 34.2292 9.1095 34.1514 9.75433 33.8542C10.3991 33.5569 10.9503 33.0536 11.338 32.4078C11.7258 31.7619 11.9328 31.0027 11.9328 30.2259C11.9328 29.1844 11.561 28.1855 10.8992 27.449C10.2374 26.7125 9.3398 26.2988 8.40387 26.2988Z" fill="#7E9191"/>
<path fill-rule="evenodd" clip-rule="evenodd" d="M7.93453 29.2792C7.99795 29.2409 8.06491 29.2103 8.13424 29.1881L8.26206 27.3189H8.54764L8.67746 29.1881C8.74664 29.2108 8.81356 29.2413 8.87717 29.2792L10.1573 28.0613L10.2572 28.1724L10.359 28.2857L9.26261 29.7081C9.29663 29.7789 9.32406 29.8534 9.34449 29.9304L11.0241 30.0748V30.3927L9.34449 30.5349C9.32431 30.612 9.29686 30.6865 9.26261 30.7571L10.359 32.1795L10.2572 32.2929L10.1573 32.404L8.87717 31.1839C8.81396 31.2227 8.74695 31.2532 8.67746 31.275L8.54764 33.1441H8.26006L8.13225 31.275C8.06263 31.2536 7.99557 31.2231 7.93253 31.1839L6.65238 32.404L6.55253 32.2929L6.45067 32.1795L7.54709 30.7571C7.51284 30.6865 7.48539 30.612 7.46521 30.5349L5.79163 30.3904V30.0726L7.4712 29.9282C7.49163 29.8512 7.51907 29.7767 7.55308 29.7059L6.45667 28.2835L6.55852 28.1702L6.65837 28.059L7.93453 29.2792Z" fill="#A9C2C2"/>
<path fill-rule="evenodd" clip-rule="evenodd" d="M30.8155 31.5328C31.0469 31.5323 31.2729 31.4556 31.4651 31.3122C31.6573 31.1688 31.807 30.9653 31.8953 30.7273C31.9836 30.4892 32.0065 30.2274 31.9611 29.9749C31.9157 29.7225 31.8041 29.4906 31.6403 29.3087C31.4766 29.1268 31.268 29.0029 31.0411 28.9529C30.8141 28.9028 30.5789 28.9287 30.3652 29.0274C30.1515 29.126 29.9688 29.2929 29.8403 29.5071C29.7118 29.7212 29.6432 29.9729 29.6432 30.2304C29.6437 30.576 29.7675 30.9073 29.9873 31.1515C30.207 31.3956 30.5049 31.5328 30.8155 31.5328Z" fill="#A9C2C2"/>
<path fill-rule="evenodd" clip-rule="evenodd" d="M31.6423 29.3103C31.8059 29.4925 31.9173 29.7245 31.9624 29.9771C32.0075 30.2298 31.9843 30.4916 31.8957 30.7295C31.8071 30.9674 31.6571 31.1708 31.4646 31.3139C31.2722 31.4569 31.0459 31.5333 30.8145 31.5333C30.5831 31.5333 30.3568 31.4569 30.1644 31.3139C29.972 31.1708 29.822 30.9674 29.7334 30.7295C29.6448 30.4916 29.6215 30.2298 29.6666 29.9771C29.7117 29.7245 29.8231 29.4925 29.9867 29.3103C30.0954 29.1893 30.2244 29.0932 30.3665 29.0277C30.5085 28.9622 30.6608 28.9285 30.8145 28.9285C30.9683 28.9285 31.1205 28.9622 31.2625 29.0277C31.4046 29.0932 31.5336 29.1893 31.6423 29.3103Z" fill="#A9C2C2"/>
<path fill-rule="evenodd" clip-rule="evenodd" d="M31.9858 30.226C31.9858 30.4836 31.9172 30.7354 31.7886 30.9495C31.66 31.1637 31.4772 31.3306 31.2633 31.4292C31.0495 31.5278 30.8142 31.5536 30.5872 31.5033C30.3601 31.4531 30.1516 31.329 29.9879 31.1469C29.8243 30.9648 29.7128 30.7327 29.6677 30.4801C29.6225 30.2274 29.6457 29.9655 29.7343 29.7276C29.8228 29.4896 29.9728 29.2862 30.1653 29.1431C30.3577 29 30.584 28.9236 30.8155 28.9236C31.1259 28.9236 31.4235 29.0608 31.643 29.305C31.8625 29.5493 31.9858 29.8806 31.9858 30.226Z" fill="#A9C2C2"/>
<path fill-rule="evenodd" clip-rule="evenodd" d="M31.6423 31.1527C31.4786 31.3348 31.2701 31.4588 31.0431 31.5089C30.8161 31.5591 30.5808 31.5333 30.367 31.4347C30.1532 31.3361 29.9705 31.1692 29.8419 30.955C29.7133 30.7408 29.6447 30.4891 29.6447 30.2315C29.6447 29.974 29.7133 29.7222 29.8419 29.508C29.9705 29.2939 30.1532 29.127 30.367 29.0284C30.5808 28.9298 30.8161 28.9039 31.0431 28.9541C31.2701 29.0043 31.4786 29.1282 31.6423 29.3103C31.751 29.4312 31.8373 29.5749 31.8962 29.7329C31.955 29.891 31.9853 30.0604 31.9853 30.2315C31.9853 30.4026 31.955 30.5721 31.8962 30.7301C31.8373 30.8882 31.751 31.0318 31.6423 31.1527Z" fill="#A9C2C2"/>
<path fill-rule="evenodd" clip-rule="evenodd" d="M30.8155 31.5328C30.584 31.5328 30.3577 31.4564 30.1653 31.3133C29.9728 31.1702 29.8228 30.9668 29.7343 30.7288C29.6457 30.4908 29.6225 30.2289 29.6677 29.9763C29.7128 29.7237 29.8243 29.4916 29.9879 29.3095C30.1516 29.1273 30.3601 29.0033 30.5872 28.953C30.8142 28.9028 31.0495 28.9286 31.2633 29.0271C31.4772 29.1257 31.66 29.2927 31.7886 29.5068C31.9172 29.721 31.9858 29.9728 31.9858 30.2304C31.9858 30.4014 31.9555 30.5708 31.8967 30.7288C31.8379 30.8868 31.7517 31.0304 31.643 31.1513C31.5343 31.2723 31.4053 31.3682 31.2633 31.4336C31.1214 31.4991 30.9692 31.5328 30.8155 31.5328Z" fill="#A9C2C2"/>
<path fill-rule="evenodd" clip-rule="evenodd" d="M29.9867 31.1528C29.8231 30.9706 29.7117 30.7385 29.6666 30.4859C29.6215 30.2333 29.6448 29.9715 29.7334 29.7335C29.822 29.4956 29.972 29.2922 30.1644 29.1492C30.3568 29.0061 30.5831 28.9297 30.8145 28.9297C31.0459 28.9297 31.2722 29.0061 31.4646 29.1492C31.6571 29.2922 31.8071 29.4956 31.8957 29.7335C31.9843 29.9715 32.0075 30.2333 31.9624 30.4859C31.9173 30.7385 31.8059 30.9706 31.6423 31.1528C31.5336 31.2738 31.4046 31.3698 31.2625 31.4353C31.1205 31.5008 30.9683 31.5345 30.8145 31.5345C30.6608 31.5345 30.5085 31.5008 30.3665 31.4353C30.2244 31.3698 30.0954 31.2738 29.9867 31.1528Z" fill="#A9C2C2"/>
<path fill-rule="evenodd" clip-rule="evenodd" d="M29.6432 30.226C29.6428 29.9678 29.7112 29.7154 29.8398 29.5006C29.9684 29.2857 30.1513 29.1182 30.3655 29.0191C30.5797 28.92 30.8154 28.8938 31.043 28.9439C31.2705 28.994 31.4796 29.1181 31.6437 29.3005C31.8079 29.4828 31.9197 29.7153 31.9651 29.9684C32.0105 30.2215 31.9874 30.484 31.8988 30.7225C31.8101 30.961 31.6598 31.1649 31.467 31.3083C31.2742 31.4518 31.0474 31.5283 30.8155 31.5283C30.6616 31.5286 30.5092 31.4952 30.367 31.4298C30.2248 31.3645 30.0956 31.2686 29.9867 31.1477C29.8778 31.0267 29.7914 30.883 29.7325 30.7249C29.6735 30.5667 29.6432 30.3972 29.6432 30.226Z" fill="#A9C2C2"/>
<path fill-rule="evenodd" clip-rule="evenodd" d="M30.8155 24.4608C31.8425 24.4608 32.8464 24.7997 33.7003 25.4347C34.5542 26.0696 35.2197 26.9721 35.6127 28.028C36.0057 29.0838 36.1086 30.2457 35.9082 31.3666C35.7079 32.4875 35.2133 33.5172 34.4871 34.3253C33.761 35.1334 32.8357 35.6838 31.8285 35.9068C30.8212 36.1297 29.7772 36.0153 28.8284 35.5779C27.8796 35.1406 27.0686 34.3999 26.4981 33.4496C25.9275 32.4994 25.623 31.3822 25.623 30.2393C25.623 28.7067 26.1701 27.237 27.1438 26.1533C28.1176 25.0696 29.4383 24.4608 30.8155 24.4608ZM30.8155 25.9432C30.0534 25.9432 29.3084 26.1948 28.6748 26.666C28.0412 27.1373 27.5474 27.8072 27.2559 28.5908C26.9645 29.3744 26.8884 30.2367 27.0374 31.0684C27.1863 31.9002 27.5536 32.6641 28.0928 33.2635C28.632 33.8629 29.3188 34.2708 30.0664 34.4358C30.8139 34.6007 31.5886 34.5151 32.2925 34.19C32.9964 33.8648 33.5978 33.3146 34.0206 32.609C34.4434 31.9034 34.6687 31.0741 34.6679 30.226C34.6679 29.0889 34.262 27.9985 33.5396 27.1945C32.8171 26.3904 31.8372 25.9388 30.8155 25.9388" fill="#000044"/>
<path fill-rule="evenodd" clip-rule="evenodd" d="M30.8155 25.9432C31.5775 25.9436 32.3223 26.1956 32.9557 26.6671C33.589 27.1387 34.0825 27.8086 34.3736 28.5923C34.6648 29.376 34.7406 30.2382 34.5914 31.0698C34.4422 31.9014 34.0747 32.6651 33.5355 33.2643C32.9962 33.8634 32.3094 34.2712 31.5619 34.4359C30.8144 34.6007 30.0398 34.515 29.336 34.1898C28.6322 33.8645 28.031 33.3143 27.6082 32.6088C27.1855 31.9032 26.9603 31.074 26.9611 30.2259C26.9611 29.0889 27.3669 27.9984 28.0894 27.1944C28.8119 26.3904 29.7918 25.9388 30.8135 25.9388M30.8135 27.5545C30.3395 27.5545 29.8762 27.7109 29.4821 28.004C29.0879 28.297 28.7808 28.7136 28.5994 29.2009C28.418 29.6882 28.3705 30.2245 28.463 30.7418C28.5555 31.2592 28.7837 31.7344 29.1189 32.1074C29.4541 32.4803 29.8811 32.7343 30.346 32.8373C30.8108 32.9402 31.2927 32.8873 31.7306 32.6855C32.1685 32.4836 32.5428 32.1418 32.8061 31.7032C33.0695 31.2646 33.21 30.749 33.21 30.2215C33.21 29.5142 32.9575 28.8358 32.5081 28.3357C32.0587 27.8355 31.4491 27.5545 30.8135 27.5545Z" fill="#A9C2C2"/>
<path d="M30.8155 33.2641C30.2764 33.2645 29.7493 33.0871 29.3008 32.7542C28.8524 32.4213 28.5026 31.9479 28.2959 31.3939C28.0891 30.8399 28.0346 30.23 28.1393 29.6415C28.2439 29.053 28.503 28.5123 28.8838 28.0876C29.2645 27.6629 29.7499 27.3734 30.2785 27.2557C30.8071 27.1379 31.3552 27.1973 31.8535 27.4261C32.3518 27.655 32.7779 28.0431 33.078 28.5415C33.3782 29.0398 33.5388 29.626 33.5395 30.2259C33.5395 31.0302 33.2526 31.8014 32.7418 32.3703C32.231 32.9392 31.5381 33.2591 30.8155 33.2597M30.8155 26.2988C30.1178 26.3001 29.4361 26.5316 28.8566 26.9639C28.277 27.3962 27.8257 28.01 27.5595 28.7277C27.2933 29.4454 27.2243 30.2348 27.3611 30.9962C27.498 31.7575 27.8345 32.4567 28.3283 33.0052C28.822 33.5538 29.4508 33.9271 30.1352 34.0781C30.8196 34.2291 31.5288 34.151 32.1733 33.8535C32.8178 33.5561 33.3686 33.0527 33.7561 32.4071C34.1436 31.7614 34.3504 31.0024 34.3504 30.2259C34.3504 29.1844 33.9786 28.1855 33.3168 27.449C32.655 26.7125 31.7574 26.2988 30.8215 26.2988" fill="#7E9191"/>
<path fill-rule="evenodd" clip-rule="evenodd" d="M30.3442 29.2792C30.4077 29.2411 30.4746 29.2105 30.5439 29.1881L30.6717 27.3189H30.9553L31.0851 29.1881C31.1543 29.2108 31.2212 29.2413 31.2848 29.2792L32.563 28.0613L32.6648 28.1724L32.7647 28.2857L31.6702 29.7081C31.7043 29.7789 31.7317 29.8534 31.7521 29.9304L33.4317 30.0748V30.3927L31.7521 30.5349C31.7319 30.612 31.7045 30.6865 31.6702 30.7571L32.7647 32.1795L32.6648 32.2929L32.563 32.404L31.2848 31.1839C31.2216 31.2227 31.1546 31.2532 31.0851 31.275L30.9553 33.1441H30.6697L30.5419 31.275C30.4723 31.2535 30.4053 31.2229 30.3422 31.1839L29.064 32.404L28.9622 32.2929L28.8623 32.1795L29.9587 30.7571C29.9236 30.6869 29.8962 30.6123 29.8768 30.5349L28.1973 30.3927V30.0748L29.8768 29.9304C29.8964 29.853 29.9239 29.7785 29.9587 29.7081L28.8623 28.2857L28.9622 28.1724L29.064 28.0613L30.3442 29.2792Z" fill="#A9C2C2"/>
<path fill-rule="evenodd" clip-rule="evenodd" d="M26.3879 22.9428L27.3285 22.3383L31.2469 30.0037C31.3946 30.2904 31.2588 30.5927 31.0471 30.8283C30.8355 31.0638 30.448 30.8949 30.3062 30.606L26.3879 22.9428Z" fill="black"/>
<path fill-rule="evenodd" clip-rule="evenodd" d="M30.8155 22.8539C31.4024 22.8554 31.9866 22.9429 32.553 23.114C32.6342 23.1378 32.7083 23.1852 32.7677 23.2512C32.8271 23.3172 32.8697 23.3996 32.8912 23.4899C32.9127 23.5803 32.9124 23.6753 32.8901 23.7654C32.8679 23.8556 32.8246 23.9375 32.7647 24.003L25.2056 32.4151C25.1468 32.4818 25.0731 32.53 24.9922 32.5547C24.9112 32.5795 24.8258 32.5799 24.7446 32.5559C24.6634 32.532 24.5894 32.4846 24.5301 32.4184C24.4707 32.3523 24.4282 32.2699 24.4068 32.1795C24.1401 31.0856 24.1033 29.9381 24.2991 28.8259C24.4949 27.7136 24.9182 26.6664 25.5361 25.7654C26.154 24.8644 26.95 24.1337 27.8623 23.63C28.7747 23.1263 29.779 22.863 30.7975 22.8606L30.8155 22.8539Z" fill="#463796"/>
<path fill-rule="evenodd" clip-rule="evenodd" d="M8.20615 21.4138L18.4893 21.2448C16.5481 25.4898 16.4622 28.5569 18.4893 31.1172H13.7801L13.4466 30.7505H2.09497C1.95782 30.7502 1.8223 30.7174 1.69745 30.6542C1.57259 30.591 1.46128 30.4989 1.37094 30.3841C1.2806 30.2692 1.2133 30.1343 1.17354 29.9882C1.13378 29.8421 1.12246 29.6883 1.14035 29.537C1.6576 25.2276 4.02419 22.0272 7.78875 21.8049C8.2361 21.7805 8.29002 21.5249 8.20615 21.4138Z" fill="#463796"/>
<path fill-rule="evenodd" clip-rule="evenodd" d="M16.9275 30.5393H17.4488C15.8671 27.799 16.4403 24.7608 17.6485 21.836H17.2491C17.0763 21.8346 16.9072 21.892 16.7644 22.0004C16.6217 22.1088 16.512 22.2632 16.4502 22.4428C15.5515 24.9742 15.1901 27.5545 16.1287 29.9548C16.1932 30.1306 16.3041 30.2806 16.4467 30.3849C16.5893 30.4893 16.7569 30.5431 16.9275 30.5393Z" fill="#371A45"/>
<path fill-rule="evenodd" clip-rule="evenodd" d="M13.6802 30.8616H18.2736C19.7335 30.8616 21.6927 31.0838 22.6093 29.4014L26.6335 21.9672C27.1448 21.0204 27.1508 20.2981 26.8732 19.0112L25.9545 14.7463C25.8726 14.3662 25.8347 14.0795 26.1542 14.0795H26.5776C26.7714 14.0778 26.96 14.1495 27.1124 14.2828C27.2648 14.416 27.372 14.603 27.4164 14.813L28.2292 18.5401C28.395 19.2935 28.9522 21.7849 28.5967 22.4495L23.6718 31.6417H13.5804C13.6264 31.3839 13.6598 31.1235 13.6802 30.8616Z" fill="#371A45"/>
<path d="M23.562 31.5684H13.5045C13.4372 31.5684 13.3827 31.6291 13.3827 31.7039V32.204C13.3827 32.2789 13.4372 32.3396 13.5045 32.3396H23.562C23.6292 32.3396 23.6838 32.2789 23.6838 32.204V31.7039C23.6838 31.6291 23.6292 31.5684 23.562 31.5684Z" fill="#463796"/>
<path fill-rule="evenodd" clip-rule="evenodd" d="M8.38789 22.6095C10.1585 22.6095 11.8691 23.3242 13.2022 24.621C14.5353 25.9178 15.4006 27.7087 15.6374 29.6614C15.6536 29.7971 15.6436 29.935 15.6081 30.0661C15.5726 30.1971 15.5124 30.3181 15.4315 30.4212C15.3506 30.5243 15.2509 30.607 15.139 30.6637C15.0271 30.7205 14.9056 30.7501 14.7826 30.7505H1.99712C1.87415 30.7501 1.75267 30.7205 1.64079 30.6637C1.5289 30.607 1.42919 30.5243 1.34829 30.4212C1.2674 30.3181 1.20719 30.1971 1.17167 30.0661C1.13616 29.935 1.12616 29.7971 1.14235 29.6614C1.37912 27.7095 2.24379 25.9192 3.57608 24.6225C4.90838 23.3258 6.61794 22.6106 8.38789 22.6095Z" fill="#371A45"/>
<path fill-rule="evenodd" clip-rule="evenodd" d="M8.3879 23.3962C9.89124 23.3963 11.3435 24.0031 12.4754 25.1041C13.6073 26.2051 14.3419 27.7257 14.543 29.3836C14.559 29.4989 14.5515 29.6166 14.5211 29.7282C14.4907 29.8397 14.4381 29.9422 14.3673 30.0282C14.3495 30.052 14.3301 30.0743 14.3093 30.0948C13.91 28.6958 13.1209 27.4745 12.0563 26.6078C10.9918 25.7411 9.70695 25.2739 8.3879 25.2739C7.06885 25.2739 5.78403 25.7411 4.71945 26.6078C3.65488 27.4745 2.86579 28.6958 2.46645 30.0948C2.44566 30.0743 2.4263 30.052 2.40854 30.0282C2.33771 29.9422 2.28515 29.8397 2.25473 29.7282C2.22431 29.6166 2.21681 29.4989 2.23279 29.3836C2.43388 27.7257 3.1685 26.2051 4.30037 25.1041C5.43225 24.0031 6.88456 23.3963 8.3879 23.3962Z" fill="#463796"/>
<path d="M18.5312 19.3002H8.02241C7.89667 19.3002 7.79474 19.4136 7.79474 19.5535V21.1604C7.79474 21.3003 7.89667 21.4138 8.02241 21.4138H18.5312C18.657 21.4138 18.7589 21.3003 18.7589 21.1604V19.5535C18.7589 19.4136 18.657 19.3002 18.5312 19.3002Z" fill="black"/>
<path d="M12.5359 6.49858H0.427383C0.191346 6.49858 0 6.71152 0 6.9742V18.7979C0 19.0606 0.191346 19.2735 0.427383 19.2735H12.5359C12.7719 19.2735 12.9633 19.0606 12.9633 18.7979V6.9742C12.9633 6.71152 12.7719 6.49858 12.5359 6.49858Z" fill="#371A45"/>
<path fill-rule="evenodd" clip-rule="evenodd" d="M1.12237 7.22978H11.8409C11.9414 7.23037 12.0376 7.27504 12.1086 7.35411C12.1797 7.43317 12.2198 7.54024 12.2203 7.65206V12.0015C8.38788 13.7239 3.42704 9.69898 0.74292 15.3641V7.65206C0.743445 7.54024 0.783591 7.43317 0.854639 7.35411C0.925686 7.27504 1.0219 7.23037 1.12237 7.22978Z" fill="#463796"/>
<path fill-rule="evenodd" clip-rule="evenodd" d="M28.9582 15.6664C29.2198 15.6397 29.4794 16.2442 29.5373 17.0132C29.5953 17.7822 29.4315 18.4245 29.1699 18.4489C28.9082 18.4734 28.6486 17.8689 28.5887 17.1021C28.5288 16.3353 28.7005 15.6908 28.9582 15.6664Z" fill="#F1CF00"/>
<path fill-rule="evenodd" clip-rule="evenodd" d="M28.8563 15.4819C28.8795 15.4775 28.9033 15.4785 28.9261 15.4847C28.9489 15.4909 28.9704 15.5023 28.9891 15.5182C29.0078 15.534 29.0234 15.5539 29.0349 15.5768C29.0465 15.5996 29.0536 15.6248 29.056 15.6508L29.3396 18.4089C29.343 18.4347 29.3417 18.4609 29.3359 18.486C29.3301 18.5112 29.3198 18.5348 29.3056 18.5555C29.2915 18.5762 29.2738 18.5936 29.2536 18.6066C29.2334 18.6195 29.211 18.6279 29.1878 18.6312C28.3051 18.7445 27.5183 18.1311 27.4304 17.2644C27.3425 16.3976 27.9756 15.593 28.8563 15.4819Z" fill="#463796"/>
<path fill-rule="evenodd" clip-rule="evenodd" d="M28.5787 15.5419L28.9402 18.6356C29.0203 18.6377 29.1004 18.6333 29.1799 18.6223C29.203 18.619 29.2254 18.6107 29.2456 18.5977C29.2658 18.5847 29.2835 18.5673 29.2977 18.5466C29.3118 18.5259 29.3221 18.5023 29.3279 18.4771C29.3337 18.452 29.335 18.4258 29.3316 18.4001L29.0481 15.6419C29.0457 15.6159 29.0385 15.5907 29.027 15.5679C29.0155 15.545 28.9999 15.5251 28.9811 15.5093C28.9624 15.4934 28.941 15.482 28.9181 15.4758C28.8953 15.4696 28.8715 15.4686 28.8483 15.473C28.757 15.488 28.6668 15.5111 28.5787 15.5419Z" fill="#9DC6C6"/>
<path d="M24.263 14.0062L24.2133 14.2214C24.1877 14.332 24.2476 14.4447 24.3469 14.4731L26.2541 15.0184C26.3535 15.0468 26.4547 14.9802 26.4803 14.8697L26.53 14.6544C26.5555 14.5438 26.4956 14.4312 26.3963 14.4028L24.4891 13.8574C24.3897 13.829 24.2885 13.8956 24.263 14.0062Z" fill="black"/>
<path d="M18.5612 29.3214C18.4744 29.5139 18.4074 29.7167 18.3615 29.9259C18.3366 30.0311 18.331 30.1409 18.345 30.2486C18.3591 30.3563 18.3925 30.4597 18.4434 30.5527C18.6431 30.8949 19.0904 30.9038 19.4619 30.8771L20.0071 30.8394C20.2388 30.8216 20.5104 30.7794 20.6262 30.5549C20.742 30.3304 20.6582 30.1104 20.6003 29.8881C20.4623 29.384 20.395 28.8593 20.4005 28.3324C20.4132 28.1773 20.3983 28.021 20.3566 27.8723C20.315 27.7741 20.2538 27.6878 20.1777 27.62C20.1015 27.5522 20.0124 27.5047 19.9172 27.4812C19.4919 27.3523 19.1703 27.3634 19.0545 27.8168C18.9255 28.3318 18.7606 28.8349 18.5612 29.3214Z" fill="#191213"/>
<path d="M20.0091 22.2872C20.1117 22.3945 20.1891 22.528 20.2348 22.6761C20.2592 22.819 20.2481 22.9665 20.2028 23.1029C20.0411 23.714 19.6816 24.2675 19.6496 24.9031C19.655 25.0945 19.6483 25.2861 19.6297 25.4765C19.5819 25.685 19.5022 25.8827 19.394 26.061L18.9946 26.79C18.9012 26.9317 18.8477 27.1011 18.8408 27.2767C18.8588 27.6079 19.1823 27.7968 19.4639 27.9012C19.6257 27.9612 19.8314 28.0057 19.9512 27.8679C19.9955 27.807 20.0282 27.7367 20.0471 27.6612C20.5344 26.0462 21.023 24.4319 21.5129 22.8184C21.6348 22.4139 21.7566 21.9694 21.6228 21.5716C21.473 21.1271 21.0636 20.8893 20.6841 20.6826L19.6297 20.1069C19.3221 19.938 18.9047 19.7913 18.679 20.078C18.3635 20.4781 18.679 20.807 18.9247 21.0204C19.3321 21.3515 19.6736 21.8805 20.0091 22.2872Z" fill="#2E4C5E"/>
<path d="M19.2861 29.4659C19.1391 29.798 19.0664 30.1648 19.0744 30.5349C19.0765 30.6168 19.104 30.6953 19.1523 30.7571C19.1999 30.7998 19.2561 30.8288 19.3161 30.8416C20.3473 31.1462 21.4263 31.1925 22.4755 30.9772C22.6295 30.9592 22.7771 30.8989 22.9049 30.8016C22.9664 30.7526 23.0124 30.6832 23.0365 30.6034C23.0605 30.5236 23.0613 30.4374 23.0387 30.3571C22.9628 30.1637 22.7412 30.1171 22.5514 30.0948C22.2127 30.0704 21.8816 29.9722 21.5768 29.8059C21.426 29.7216 21.2972 29.5955 21.2028 29.4399C21.1084 29.2842 21.0515 29.1041 21.0376 28.9169C21.0376 28.6302 21.1475 28.2835 20.9537 28.0946C20.8523 28.0171 20.7311 27.9781 20.6082 27.9835C20.2088 27.9546 19.9891 27.8568 19.7435 28.1879C19.5258 28.4635 19.41 29.1147 19.2861 29.4659Z" fill="#281B1C"/>
<path d="M14.1136 10.588C13.2409 12.4149 12.7995 14.4462 12.3661 16.462C12.3153 16.6371 12.3043 16.8234 12.3342 17.0043C12.3518 17.0935 12.3981 17.1725 12.4642 17.2265C12.5304 17.2805 12.6119 17.3058 12.6937 17.2977C12.6937 17.4688 12.6937 17.6422 12.6937 17.8155C12.8116 17.9842 12.9611 18.1223 13.1318 18.2202C13.3025 18.3181 13.4904 18.3734 13.6822 18.3823C14.0658 18.3988 14.4495 18.3516 14.8206 18.2423L17.2631 17.6689C17.4295 17.6541 17.5862 17.5756 17.7064 17.4466C17.8103 17.3021 17.7723 17.0288 17.6086 17.0021C18.1837 16.8865 18.4254 16.1331 18.5592 15.4997C18.693 14.8663 18.8288 14.224 18.9726 13.5795C19.2193 12.578 19.3673 11.5496 19.414 10.5124C19.414 9.74344 19.356 8.86777 19.8453 8.32548C19.9971 8.15657 20.2008 8.02545 20.2767 7.80097C20.3926 7.45871 20.1529 7.10311 19.9292 6.83197L19.0425 5.7785C19.0026 5.71445 18.9416 5.67051 18.8727 5.65627C18.8329 5.66066 18.7944 5.67467 18.7599 5.69732C18.7254 5.71996 18.6958 5.7507 18.673 5.78739C18.3297 6.22464 17.9034 6.57156 17.4248 6.80307C16.9362 7.07321 16.4806 7.41153 16.0688 7.80986C15.3139 8.52995 14.4871 9.55675 14.1136 10.588Z" fill="#50429B"/>
<path d="M15.6714 11.9548C15.5535 13.0994 15.8052 14.3529 16.5681 15.1308C17.1025 15.6372 17.7674 15.9422 18.4673 16.002C19.1621 16.0586 19.8602 16.034 20.5503 15.9286L20.6801 15.6642L21.1754 15.8575L21.3552 15.6175C21.3881 15.7145 21.4518 15.7946 21.5342 15.843C21.6166 15.8913 21.712 15.9044 21.8025 15.8797C21.8578 15.3471 21.997 14.8295 22.2139 14.3507C20.9557 14.0751 19.6816 13.7906 18.5312 13.1572C18.3612 13.0301 18.1548 12.9779 17.9521 13.0105C18.1043 12.0767 18.1453 11.1247 18.0739 10.179C18.0399 9.73455 17.972 9.25893 17.7124 8.91222C16.4942 7.28758 15.7473 11.2058 15.6714 11.9548Z" fill="#50429B"/>
<path d="M18.1398 9.59452C18.1155 9.37471 18.063 9.15991 17.984 8.95666C17.8941 8.74775 17.6964 8.55217 17.5007 8.62329C17.2611 8.71219 17.2551 9.08112 17.301 9.35671C17.4168 10.1627 17.534 10.9702 17.6525 11.7792C17.7364 12.3526 17.8202 12.9549 17.6525 13.5039L17.984 13.4683L18.008 13.875C18.8649 14.1531 19.7447 14.3348 20.6342 14.4173C20.6162 14.0528 20.2108 13.9084 19.8913 13.8262C19.4999 13.7336 19.1198 13.5896 18.7589 13.3972C18.3215 13.1505 18.3774 13.0616 18.3714 12.5082C18.3615 11.5318 18.284 10.5577 18.1398 9.59452Z" fill="#371A45"/>
<path d="M19.4479 8.24991C19.6405 8.09729 19.8162 7.91973 19.9712 7.72096L19.5098 7.07866C19.4887 7.04394 19.4607 7.01505 19.4279 6.9942C19.394 6.97971 19.357 6.97662 19.3215 6.98531C19.286 6.994 19.2536 7.0141 19.2282 7.0431C19.1631 7.11748 19.1197 7.21203 19.1036 7.31434C19.0876 7.41665 19.0997 7.52197 19.1384 7.6165C19.2187 7.80416 19.3329 7.97137 19.4739 8.10767" fill="#371A45"/>
<path d="M17.6545 16.8665C17.4784 16.9974 17.2641 17.0483 17.0554 17.0088C16.9522 17.0133 16.8497 16.988 16.7578 16.9354C16.7111 16.9096 16.6753 16.8644 16.6582 16.8096C16.641 16.7548 16.6438 16.6946 16.6659 16.6421C16.6974 16.6005 16.7375 16.5681 16.7827 16.5475C16.8279 16.527 16.8769 16.519 16.9256 16.5243C17.0661 16.5253 17.206 16.5036 17.341 16.4598C17.4084 16.4368 17.4696 16.3955 17.5191 16.3396C17.5686 16.2838 17.6048 16.2151 17.6246 16.1398C17.6531 16.1264 17.6839 16.1198 17.7149 16.1204C17.7459 16.121 17.7765 16.1287 17.8046 16.1431C17.8328 16.1576 17.858 16.1783 17.8785 16.2042C17.8991 16.23 17.9146 16.2603 17.9241 16.2931C17.9398 16.3611 17.9394 16.4325 17.9229 16.5002C17.9065 16.568 17.8746 16.6299 17.8303 16.6798C17.7403 16.7786 17.6355 16.8591 17.5207 16.9177" fill="#371A45"/>
<path d="M13.7381 19.5691C14.2814 19.918 14.9224 20.0136 15.5356 20.0847L17.6145 20.3536C18.5732 20.4759 19.6416 20.6648 20.2268 21.5182C20.2751 21.618 20.3526 21.6964 20.4465 21.7405C20.5555 21.7462 20.6641 21.721 20.762 21.6671C20.8659 21.6316 21.0156 21.6671 21.0256 21.7894C20.9705 21.8455 20.9271 21.9143 20.8984 21.9911C20.8698 22.0679 20.8566 22.1508 20.8599 22.2339L21.0955 22.1894C21.1029 22.2979 21.0907 22.4069 21.0594 22.51C21.0282 22.6131 20.9787 22.7081 20.9138 22.7895C20.5843 23.3656 20.383 24.0208 20.3266 24.7008C20.2887 25.1831 20.3266 25.6987 20.091 26.1099C19.9891 26.2966 19.8413 26.4499 19.7355 26.6344C19.6309 26.8168 19.573 27.0275 19.5683 27.2438C19.5635 27.4602 19.6119 27.6738 19.7084 27.8617C19.8048 28.0496 19.9456 28.2045 20.1155 28.3098C20.2853 28.4151 20.4778 28.4667 20.6721 28.4591C21.2832 28.4013 21.6947 27.7545 21.9902 27.1545C22.9188 25.336 23.5218 23.3343 23.7657 21.2604C23.8189 20.9184 23.8067 20.5678 23.7297 20.2314C23.518 19.4846 22.7991 19.0957 22.144 18.8068C21.0429 18.3178 19.9192 17.8792 18.7729 17.4911C18.4652 17.3775 18.147 17.3029 17.8242 17.2688C17.5349 17.2596 17.2454 17.2805 16.9595 17.331L13.6623 17.8044C13.151 17.88 12.7396 17.7866 12.9213 18.4845C13.0617 18.9473 13.3533 19.3344 13.7381 19.5691Z" fill="#3D5E77"/>
<path d="M21.1694 19.4535C21.5026 19.5709 21.8129 19.7571 22.0841 20.0025C22.6972 20.647 22.6453 21.756 22.3817 22.6495C22.118 23.5429 21.6887 24.4052 21.6947 25.3454C21.8205 25.4698 21.9982 25.2831 22.0761 25.1231C22.6491 23.9136 23.0186 22.5977 23.1665 21.2404C23.2353 20.8862 23.1945 20.5165 23.0507 20.1914C22.882 19.9423 22.6535 19.7513 22.3916 19.6402C21.1155 18.9468 19.4978 17.9733 18.0739 17.8022C18.0339 18.5067 20.6282 19.2246 21.1694 19.4535Z" fill="#4A6D82"/>
<path d="M22.9189 15.6842C23.0458 15.6928 23.1732 15.6846 23.2984 15.6597C23.7697 15.5353 24.0353 14.933 24.4966 14.784C24.5254 14.7755 24.5557 14.7755 24.5845 14.784C24.626 14.7975 24.6624 14.8256 24.6884 14.8641C24.7561 14.9639 24.8338 15.0549 24.92 15.1352C24.9629 15.176 25.0151 15.2027 25.0707 15.2125C25.1264 15.2223 25.1835 15.2148 25.2356 15.1908C25.2602 15.1768 25.2815 15.1567 25.2977 15.1319C25.314 15.1071 25.3249 15.0784 25.3293 15.0481C25.3338 15.0178 25.3318 14.9868 25.3235 14.9575C25.3152 14.9282 25.3008 14.9016 25.2815 14.8796C25.3048 14.9327 25.3461 14.9732 25.3963 14.9924C25.4465 15.0116 25.5014 15.0078 25.5491 14.9819C25.5968 14.9559 25.6332 14.91 25.6505 14.8541C25.6677 14.7983 25.6643 14.7371 25.641 14.684C25.6649 14.7264 25.7 14.7596 25.7414 14.779C25.7829 14.7985 25.8287 14.8034 25.8726 14.7929C25.9162 14.7809 25.9555 14.7545 25.9854 14.7172C26.0154 14.68 26.0345 14.6336 26.0404 14.584C26.0524 14.4373 25.9465 14.3151 25.8587 14.2062C25.7308 14.0462 25.623 13.8662 25.4892 13.7128C25.3617 13.5484 25.1864 13.4391 24.9939 13.4039C24.8408 13.395 24.6879 13.4246 24.5466 13.4906C24.2211 13.6145 23.9063 13.7707 23.6059 13.9573C23.3728 14.1207 23.1314 14.2691 22.883 14.4018C22.6339 14.5315 22.3552 14.5734 22.0841 14.5218C21.9184 14.4796 21.6847 15.4708 21.7546 15.6108C21.8245 15.7508 22.1221 15.6797 22.2459 15.6842H22.9189Z" fill="#EDB38C"/>
<path d="M23.8875 4.17163C24.0073 4.39388 24.2869 4.465 24.3768 4.69614C24.211 4.76904 24.061 4.88051 23.937 5.02309C23.8131 5.16568 23.7179 5.33608 23.6578 5.52291C23.518 5.96741 23.5739 6.51192 23.2864 6.8564C23.0267 7.16533 22.5874 7.18533 22.2179 7.07865C21.8484 6.97197 21.5009 6.78306 21.1215 6.73861C20.8853 6.71345 20.6471 6.74773 20.4245 6.83891C20.2019 6.93009 20.0005 7.07583 19.8353 7.26534C19.7594 7.35647 19.6696 7.46315 19.5617 7.44092C19.4879 7.41609 19.4256 7.36031 19.388 7.28535L18.8428 6.46969C19.1051 6.14928 19.248 5.72966 19.2422 5.29621C19.2422 4.96506 19.1443 4.64057 19.1244 4.30942C19.0505 3.09816 19.9911 2.02247 21.0496 1.73577C21.8764 1.51352 23.2664 1.60464 23.9814 2.18027C24.6963 2.7559 23.512 3.49821 23.8875 4.17163Z" fill="#EDB38C"/>
<path d="M23.1905 2.87592C23.2404 3.02038 23.0587 3.12929 22.9189 3.12706C22.6473 3.12706 22.3857 3.00927 22.12 2.9826C21.8544 2.95593 21.5209 3.06706 21.441 3.35376C21.4073 3.55304 21.4148 3.75827 21.463 3.95383C21.487 4.15386 21.443 4.39833 21.2633 4.47612C21.1135 4.25387 21.1654 3.91827 20.9837 3.74047C20.8959 3.68077 20.795 3.64918 20.6921 3.64918C20.5892 3.64918 20.4883 3.68077 20.4005 3.74047C20.2344 3.80505 20.0933 3.93143 20.0011 4.09829C19.8214 4.49834 20.1509 4.98729 20.0171 5.43179C19.967 5.56185 19.8944 5.67966 19.8034 5.7785C19.6974 5.9206 19.5653 6.03579 19.416 6.11632C19.341 6.15588 19.2576 6.17103 19.1752 6.16002C19.0929 6.14901 19.015 6.11228 18.9506 6.05409C18.7509 5.84295 18.8608 5.46735 18.8088 5.16509C18.7569 4.86283 18.5073 4.59169 18.4533 4.27609C18.4348 4.09563 18.4484 3.91287 18.4933 3.73825C18.5698 3.27998 18.7128 2.83862 18.9167 2.43142C19.2961 1.78602 19.8801 1.32339 20.5523 1.13571C21.2203 0.952847 21.9161 0.933888 22.5914 1.08014C22.8888 1.12226 23.1766 1.22551 23.4401 1.38463C23.7417 1.58465 24.0173 1.92025 24.3668 1.88469C24.2724 1.97979 24.1607 2.05106 24.0393 2.0936C24.202 2.17662 24.3481 2.2953 24.4687 2.44253C24.4442 2.48434 24.4112 2.51905 24.3723 2.54379C24.3334 2.56853 24.2897 2.58258 24.245 2.58477C24.2708 2.6279 24.2867 2.67738 24.2913 2.72891C24.296 2.78044 24.2893 2.83246 24.2718 2.88044C24.2542 2.92842 24.2264 2.97091 24.1908 3.00421C24.1552 3.03751 24.1127 3.06061 24.0672 3.0715C23.9195 3.08928 23.7537 2.90926 23.6019 2.88481C23.6399 2.90704 23.6798 2.9626 23.7177 2.98927C23.6219 3.01149 23.2424 3.02483 23.1905 2.87592Z" fill="#9E5E32"/>
<path d="M20.7959 4.74059C20.7959 4.76059 20.77 4.76948 20.754 4.76059C20.7408 4.74606 20.7318 4.7275 20.728 4.70725C20.7047 4.63596 20.7013 4.55852 20.7181 4.485C20.7231 4.46667 20.7316 4.44972 20.7429 4.43523C20.7542 4.42075 20.7681 4.40905 20.7837 4.40089C20.7993 4.39273 20.8163 4.38829 20.8335 4.38785C20.8508 4.38741 20.8679 4.39097 20.8838 4.39833C20.9135 4.33416 20.9226 4.26069 20.9097 4.18999C20.8969 4.11928 20.8628 4.05555 20.813 4.00926C20.7633 3.96298 20.7009 3.9369 20.6361 3.9353C20.5713 3.93371 20.5079 3.9567 20.4564 4.0005C20.3801 4.07023 20.3244 4.16395 20.2967 4.26942C20.2622 4.35194 20.2497 4.44373 20.2607 4.5339C20.2803 4.60524 20.3122 4.67167 20.3546 4.72948L20.4924 4.94061C20.5363 5.00951 20.5922 5.08285 20.6661 5.08508C20.7038 5.08196 20.7394 5.06461 20.767 5.03591C20.7946 5.00722 20.8126 4.96889 20.8179 4.92728C20.8264 4.84315 20.8147 4.75802 20.784 4.68058" fill="#C19272"/>
<path d="M23.6558 4.44499C23.7719 4.36745 23.906 4.32958 24.0413 4.33609C24.1411 4.36511 24.2285 4.43266 24.2877 4.52669C24.347 4.62072 24.3743 4.73512 24.3648 4.84949C24.3364 5.07428 24.2605 5.28834 24.1431 5.47401C23.9654 5.80516 23.7876 6.14076 23.6059 6.46747C23.4992 6.69934 23.3445 6.89968 23.1545 7.05198C23.0259 7.12889 22.8839 7.17423 22.7382 7.18497C22.5925 7.1957 22.4464 7.17158 22.3098 7.11421C22.0381 6.99916 21.7831 6.84042 21.5529 6.64304C21.5529 6.46747 21.7166 6.36079 21.8245 6.2341C21.919 6.10205 21.9873 5.94919 22.0248 5.7856C22.0623 5.62201 22.0682 5.45142 22.0422 5.2851C21.9962 4.76059 22.2678 4.88727 22.6413 4.80726C22.9918 4.73444 23.3327 4.61272 23.6558 4.44499Z" fill="#CEEAE8"/>
<path d="M21.1375 4.24275C21.49 4.53121 21.8589 4.79402 22.2419 5.02951C22.3018 5.06729 22.3577 4.96283 22.2958 4.92727C21.9124 4.69182 21.5434 4.42824 21.1914 4.13829C21.1355 4.09384 21.0816 4.1983 21.1375 4.24275Z" fill="#CEEAE8"/>
<path d="M19.9951 5.334C20.5796 5.7785 21.1534 6.23337 21.7166 6.69861C21.7725 6.74529 21.8265 6.64083 21.7706 6.59416C21.2074 6.12299 20.6335 5.66812 20.049 5.22954C19.9911 5.17843 19.9372 5.28288 19.9951 5.334Z" fill="#CEEAE8"/>
<path d="M22.3337 5.6207C22.3278 5.50043 22.3513 5.38061 22.4016 5.27399C22.4869 5.17448 22.6005 5.11087 22.7232 5.09397C22.9327 5.02795 23.1339 4.93313 23.3223 4.81171C23.3541 4.78587 23.3912 4.76909 23.4302 4.76282C23.52 4.76282 23.5819 4.87394 23.5759 4.97395C23.5599 5.07208 23.5281 5.16618 23.4821 5.25177V5.30511C23.4821 5.32511 23.5041 5.33622 23.518 5.35178C23.5469 5.39137 23.5626 5.44081 23.5626 5.4918C23.5626 5.54278 23.5469 5.59222 23.518 5.63181C23.4872 5.67008 23.4497 5.70102 23.4078 5.72279C23.3659 5.74456 23.3206 5.7567 23.2744 5.7585C23.2145 5.7585 23.1406 5.7585 23.1106 5.82517C23.1 5.85481 23.0952 5.88664 23.0966 5.91852C23.0898 6.07425 23.0379 6.22335 22.9486 6.34353C22.8593 6.4637 22.7375 6.54851 22.6014 6.58526C22.621 6.64883 22.6298 6.71591 22.6273 6.78307C22.628 6.7956 22.6264 6.80817 22.6226 6.82001C22.6189 6.83185 22.613 6.84272 22.6054 6.85196C22.5774 6.87863 22.5335 6.85196 22.5015 6.84085C22.3018 6.71861 22.0102 6.65416 22.0801 6.36524C22.15 6.07631 22.3337 5.91852 22.3337 5.6207Z" fill="#B7CECC"/>
<path d="M20.4205 5.13397C20.5131 5.13448 20.6044 5.10927 20.6861 5.06063C20.7609 5.00052 20.8207 4.92021 20.8599 4.82727C21.0736 4.38277 21.1255 3.80937 21.431 3.44932C21.8045 3.00482 22.3917 3.06927 22.9089 3.06927C23.3229 3.06934 23.7353 3.01337 24.1371 2.90259C24.2134 2.88794 24.2857 2.85453 24.3488 2.8048C24.4017 2.74732 24.443 2.67793 24.4699 2.60127C24.4967 2.52462 24.5086 2.44246 24.5046 2.3603C24.5226 1.74022 24.1311 1.21571 23.7058 0.866779C22.9855 0.25896 22.0963 -0.0478402 21.1934 5.47059e-06C20.2844 0.0670601 19.4246 0.483432 18.7609 1.17793C18.3763 1.54561 18.1052 2.03852 17.986 2.58699C17.9351 2.93959 17.9351 3.29897 17.986 3.65157C18.0082 3.96312 18.0756 4.26861 18.1857 4.55612C18.6191 5.51402 19.6955 5.1962 20.4205 5.13397Z" fill="#50429B"/>
<path d="M20.6682 6.69195V6.74973L20.6342 6.78085C20.5701 6.81622 20.5032 6.84523 20.4345 6.86752C20.2721 6.33439 20.1635 5.78277 20.111 5.22288C20.098 5.16524 20.098 5.10494 20.111 5.0473C20.1449 4.95173 20.3506 4.82505 20.4305 4.90506C20.4784 4.95618 20.4305 5.41623 20.4305 5.50513C20.4563 5.91168 20.5364 6.31168 20.6682 6.69195Z" fill="#681616"/>
<path d="M22.827 3.66713C23.023 3.55778 23.2412 3.50722 23.4601 3.52044C23.566 3.52044 23.6778 3.4871 23.6818 3.34931V3.33597C23.611 3.33382 23.5402 3.33828 23.4701 3.34931C23.3817 3.34044 23.2928 3.34044 23.2045 3.34931C23.0423 3.3721 22.8942 3.46365 22.7911 3.6049C22.7671 3.64935 22.7991 3.68268 22.827 3.66713Z" fill="#4C3729"/>
<path d="M22.881 4.02495C23.02 3.95253 23.1709 3.91245 23.3243 3.90715C23.4022 3.89382 23.4941 3.88048 23.536 3.79603C23.5385 3.79209 23.5398 3.78736 23.5397 3.78255C23.5395 3.77774 23.538 3.7731 23.5353 3.76934C23.5326 3.76558 23.5289 3.7629 23.5247 3.7617C23.5205 3.7605 23.5161 3.76085 23.5121 3.76269C23.4601 3.77825 23.4162 3.81159 23.3643 3.82937C23.3123 3.84715 23.2504 3.85604 23.1925 3.87159C23.0814 3.90171 22.9754 3.95202 22.879 4.0205L22.881 4.02495Z" fill="#4C3729"/>
<path d="M23.2464 3.88715C23.2345 3.94049 23.2025 4.07384 23.2804 4.0894C23.3583 4.10496 23.3663 3.96272 23.3563 3.90493L23.3263 3.8716L23.2924 3.88715V3.9316V3.96494V4.0005L23.3024 3.9805V3.95161C23.3024 3.92938 23.3024 3.90493 23.2904 3.88271L23.2464 3.88715Z" fill="#4C3729"/>
<path d="M23.0707 4.08939C23.1272 4.12483 23.1917 4.14105 23.2564 4.13607C23.3043 4.13607 23.3782 4.12051 23.4022 4.06495L23.3922 4.04716C23.3506 4.05638 23.3098 4.06977 23.2704 4.08717C23.2075 4.09969 23.1426 4.09038 23.0847 4.0605C23.0812 4.05844 23.0772 4.05798 23.0734 4.05923C23.0697 4.06048 23.0665 4.06334 23.0647 4.06717C23.0628 4.071 23.0624 4.07549 23.0635 4.07966C23.0647 4.08383 23.0672 4.08733 23.0707 4.08939Z" fill="#4C3729"/>
<path d="M23.2025 4.22274C23.2316 4.22634 23.2611 4.21932 23.2864 4.20274V4.17385C23.2604 4.17385 23.2364 4.17385 23.2105 4.17385C23.2046 4.17267 23.1986 4.17411 23.1938 4.17786C23.1889 4.18162 23.1856 4.18737 23.1845 4.19385C23.1834 4.20033 23.1847 4.20702 23.1881 4.21244C23.1915 4.21786 23.1967 4.22156 23.2025 4.22274Z" fill="#4C3729"/>
<g clipPath="url(#clip1_1_413)">
<path d="M8.63956 10.8336C8.72869 10.8336 8.80094 10.7533 8.80094 10.6543C8.80094 10.5552 8.72869 10.4749 8.63956 10.4749C8.55043 10.4749 8.47818 10.5552 8.47818 10.6543C8.47818 10.7533 8.55043 10.8336 8.63956 10.8336Z" fill="white"/>
<path d="M8.81148 10.3461C8.87169 10.3461 8.9205 10.2919 8.9205 10.225C8.9205 10.1581 8.87169 10.1038 8.81148 10.1038C8.75127 10.1038 8.70245 10.1581 8.70245 10.225C8.70245 10.2919 8.75127 10.3461 8.81148 10.3461Z" fill="white"/>
<path d="M8.63265 10.0188C8.67561 10.0188 8.71043 9.98014 8.71043 9.93241C8.71043 9.88467 8.67561 9.84598 8.63265 9.84598C8.58969 9.84598 8.55487 9.88467 8.55487 9.93241C8.55487 9.98014 8.58969 10.0188 8.63265 10.0188Z" fill="white"/>
<path d="M10.3732 9.69538L10.3846 9.60272C10.3854 9.59591 10.3847 9.58897 10.3824 9.58257C10.3802 9.57617 10.3765 9.57051 10.3717 9.56612C10.367 9.56174 10.3613 9.55877 10.3552 9.55751C10.3491 9.55625 10.3428 9.55673 10.337 9.55891L9.67034 9.81126L9.01124 10.9418C9.00785 10.9475 9.00585 10.9541 9.0054 10.961C9.00496 10.9678 9.0061 10.9747 9.00871 10.9809C9.01132 10.9871 9.01532 10.9925 9.02033 10.9965C9.02533 11.0005 9.03118 11.003 9.03731 11.0038L9.19761 11.0258C9.2046 11.0268 9.21169 11.0255 9.21803 11.0221C9.22438 11.0187 9.22971 11.0134 9.23338 11.0067L9.78259 9.99178C9.78674 9.9844 9.79283 9.97863 9.80004 9.97526L10.3508 9.72722C10.3567 9.72454 10.3618 9.72019 10.3658 9.71461C10.3697 9.70902 10.3723 9.70239 10.3732 9.69538Z" fill="white"/>
<path d="M9.85003 11.3328L9.84292 11.3969C9.83979 11.4252 9.82671 11.451 9.80652 11.4687C9.78633 11.4863 9.76069 11.4943 9.73519 11.491C9.7226 11.4894 9.70992 11.4931 9.69964 11.5013C9.68948 11.5096 9.68255 11.5218 9.68025 11.5356L9.38593 13.324C9.38452 13.3324 9.3813 13.3403 9.37656 13.347C9.37181 13.3537 9.36567 13.3591 9.35866 13.3626C9.35165 13.3661 9.34399 13.3676 9.33632 13.3671C9.32864 13.3666 9.3212 13.3641 9.31461 13.3597C9.26153 13.326 9.20292 13.3045 9.14224 13.2965C9.07467 13.2872 9.0061 13.2947 8.94143 13.3183C8.93519 13.3205 8.9286 13.3213 8.92208 13.3205C8.91556 13.3197 8.90926 13.3175 8.90358 13.3138C8.8979 13.3102 8.89296 13.3053 8.88909 13.2994C8.88522 13.2935 8.8825 13.2868 8.8811 13.2797C8.8087 12.9445 8.54369 12.6754 8.20239 12.6292C7.8611 12.583 7.5461 12.7729 7.40303 13.0791C7.40009 13.0856 7.39597 13.0913 7.39092 13.096C7.38587 13.1006 7.38001 13.104 7.3737 13.106C7.3674 13.108 7.3608 13.1085 7.35431 13.1075C7.34782 13.1065 7.34159 13.104 7.33602 13.1002C7.28014 13.0612 7.21743 13.036 7.15208 13.0261C7.08672 13.0163 7.02023 13.022 6.95703 13.0429C6.94964 13.0455 6.94179 13.0461 6.93416 13.0446C6.92653 13.0431 6.91934 13.0396 6.91321 13.0343C6.90708 13.029 6.9022 13.0222 6.89899 13.0143C6.89577 13.0065 6.89432 12.9979 6.89476 12.9893L7.00076 11.1719C7.00163 11.1579 6.99765 11.1441 6.98964 11.1333C6.98162 11.1224 6.97019 11.1154 6.95767 11.1137C6.93216 11.1103 6.90892 11.0958 6.89304 11.0733C6.87717 11.0509 6.86996 11.0223 6.873 10.994L6.87989 10.9298C6.88156 10.9153 6.88832 10.9022 6.89869 10.8932C6.90907 10.8842 6.92221 10.8802 6.93526 10.8819L7.15073 10.9111L7.17421 10.9145C7.1899 10.9167 7.20431 10.9253 7.21471 10.9385C7.22511 10.9517 7.23079 10.9687 7.23066 10.9863C7.23066 11.0687 7.19834 11.192 7.20782 11.2605C7.2173 11.3289 7.34874 11.3828 7.36166 11.1149C7.36748 10.9952 7.40799 10.9676 7.41574 11.0021C7.4569 11.1826 7.51486 11.0469 7.50193 10.9925C7.50193 10.9925 7.50193 10.9911 7.50193 10.9902C7.50193 10.9892 7.48512 10.9681 7.51636 10.9609L9.80995 11.2722C9.8223 11.2748 9.8333 11.2824 9.84074 11.2937C9.84818 11.3049 9.8515 11.3189 9.85003 11.3328Z" fill="white"/>
<path d="M9.40595 13.9621C9.39622 14.0425 9.36609 14.1182 9.31908 14.1803C9.27208 14.2424 9.21014 14.2884 9.1405 14.3128C9.12414 14.3187 9.10963 14.3297 9.09865 14.3444C9.08767 14.3591 9.08066 14.3769 9.07845 14.3959L9.05884 14.5728C9.0574 14.586 9.05364 14.5987 9.04778 14.6102C9.04193 14.6217 9.03408 14.6319 9.0247 14.64C9.01531 14.6482 9.00457 14.6542 8.99309 14.6578C8.98161 14.6613 8.96961 14.6623 8.95779 14.6607L7.02747 14.3985C7.01564 14.3969 7.00421 14.3928 6.99383 14.3862C6.98346 14.3797 6.97434 14.371 6.96699 14.3606C6.95965 14.3502 6.95423 14.3382 6.95104 14.3255C6.94784 14.3127 6.94695 14.2994 6.94839 14.2862L6.96778 14.1098C6.96987 14.0909 6.9671 14.0717 6.95977 14.0545C6.95245 14.0373 6.94088 14.0228 6.92641 14.0126L6.91629 14.0054C6.85917 13.9651 6.81287 13.9085 6.78223 13.8414C6.7516 13.7744 6.73776 13.6994 6.74216 13.6244C6.74657 13.5494 6.76906 13.4771 6.80728 13.415C6.8455 13.353 6.89804 13.3035 6.95938 13.2718C7.01809 13.2404 7.08248 13.2243 7.14764 13.2248C7.21281 13.2252 7.27701 13.2422 7.33536 13.2745C7.35577 13.2863 7.37947 13.2892 7.4017 13.2824C7.42393 13.2757 7.44303 13.2598 7.45516 13.2381C7.59564 12.9781 7.87531 12.82 8.17652 12.861C8.47774 12.9019 8.71518 13.1301 8.79511 13.4203C8.80218 13.4445 8.8172 13.4648 8.83717 13.4772C8.85714 13.4896 8.88059 13.4932 8.90284 13.4873C8.9503 13.4757 8.99918 13.4731 9.04742 13.4796C9.12579 13.4901 9.19998 13.5247 9.26159 13.5795C9.31307 13.6242 9.35336 13.6829 9.37864 13.7499C9.40391 13.8168 9.41331 13.8899 9.40595 13.9621Z" fill="white"/>
<path d="M6.92857 14.4663C6.88181 14.8898 7.17268 15.2909 7.60921 15.4577C7.58379 15.5375 7.53358 15.643 7.43921 15.6971C7.60194 15.6931 7.75973 15.6343 7.89168 15.5284C8.47084 15.6026 8.98321 15.2569 9.03858 14.7526L6.92857 14.4663ZM7.63808 14.9916C7.62237 14.9921 7.60688 14.9873 7.5937 14.9778C7.58053 14.9683 7.57029 14.9545 7.56438 14.9383C7.55846 14.9221 7.55716 14.9043 7.56063 14.8873C7.5641 14.8702 7.57219 14.8548 7.5838 14.843C7.59541 14.8312 7.60999 14.8237 7.62558 14.8214C7.64116 14.8191 7.657 14.8222 7.67097 14.8302C7.68493 14.8382 7.69635 14.8508 7.70369 14.8663C7.71102 14.8817 7.71392 14.8993 7.71199 14.9166C7.71098 14.9374 7.70267 14.9569 7.68884 14.9709C7.67502 14.9849 7.65679 14.9924 7.63808 14.9916ZM8.0606 15.1762C8.04438 15.2021 8.02211 15.2225 7.9962 15.2354C7.97028 15.2483 7.9417 15.2531 7.91352 15.2493C7.88534 15.2455 7.85862 15.2332 7.83625 15.2138C7.81388 15.1944 7.79669 15.1685 7.78654 15.1391C7.78341 15.1285 7.7841 15.117 7.78846 15.107C7.79282 15.097 7.80051 15.0892 7.80991 15.0854C7.81931 15.0816 7.82968 15.082 7.83883 15.0865C7.84797 15.091 7.85518 15.0993 7.85893 15.1096C7.86425 15.1242 7.87299 15.137 7.88423 15.1465C7.89547 15.1561 7.90881 15.1622 7.92288 15.1641C7.93694 15.166 7.95121 15.1638 7.96421 15.1575C7.97721 15.1512 7.98847 15.1412 7.99683 15.1285C8.00254 15.119 8.01143 15.1124 8.02153 15.1101C8.03163 15.1079 8.04212 15.1102 8.05069 15.1166C8.05926 15.1229 8.06521 15.1328 8.06723 15.144C8.06925 15.1552 8.06718 15.1669 8.06147 15.1764L8.0606 15.1762ZM8.23685 15.073C8.22115 15.0735 8.20567 15.0687 8.19249 15.0592C8.17931 15.0497 8.16907 15.036 8.16315 15.0198C8.15722 15.0036 8.1559 14.9858 8.15935 14.9688C8.1628 14.9517 8.17086 14.9363 8.18245 14.9245C8.19404 14.9127 8.2086 14.9052 8.22417 14.9028C8.23975 14.9005 8.25558 14.9036 8.26956 14.9115C8.28353 14.9195 8.29497 14.9321 8.30234 14.9475C8.3097 14.9629 8.31264 14.9805 8.31075 14.9978C8.30964 15.0185 8.30128 15.0379 8.28747 15.0518C8.27365 15.0657 8.25548 15.0731 8.23685 15.0723V15.073Z" fill="white"/>
<path d="M5.24172 14.0068C5.26183 13.8923 5.27293 13.7761 5.2749 13.6594C5.2772 13.5369 5.27842 13.4183 5.27857 13.3039C5.27857 13.2032 5.27979 13.101 5.28223 12.9974C5.28462 12.8932 5.29326 12.7892 5.30808 12.6862L5.31907 12.6208L5.37789 12.6086C5.53963 12.5927 5.70087 12.5831 5.86161 12.5799C6.02195 12.5772 6.18228 12.5868 6.34144 12.6086L6.40048 12.6208L6.70212 15.1221L6.66549 15.1549C6.36935 15.3703 6.04568 15.535 5.7054 15.6433C5.36332 15.7492 5.00826 15.7941 4.65351 15.7761C4.49854 15.7682 4.34429 15.7477 4.19199 15.7149C4.04313 15.6828 3.89722 15.6355 3.75611 15.5738C3.61607 15.5125 3.48278 15.4336 3.3588 15.3387C3.23149 15.2407 3.11568 15.1253 3.01406 14.9954C2.8096 14.7396 2.65333 14.4408 2.55448 14.1167C2.45437 13.793 2.40156 13.4535 2.39806 13.1112C2.39449 12.7671 2.43853 12.4245 2.52863 12.0953C2.61642 11.7678 2.7514 11.4582 2.92831 11.1786C3.10624 10.897 3.32207 10.6475 3.56823 10.4388C3.79976 10.2451 4.05491 10.0889 4.32601 9.97501C4.60093 9.86069 4.88751 9.78453 5.17924 9.74828C5.4857 9.70979 5.79445 9.69882 6.10249 9.71548H6.14666L6.16821 9.76456C6.25482 9.95248 6.31616 10.1535 6.35027 10.3612C6.38543 10.5705 6.40817 10.7821 6.41836 10.9947V11.089H6.33368C6.19406 11.089 6.039 11.0938 5.8685 11.1034C5.698 11.113 5.52649 11.1321 5.35398 11.1609C5.18445 11.1887 5.01695 11.2301 4.85281 11.2849C4.70347 11.3331 4.56107 11.4047 4.42986 11.4975C4.3595 11.5478 4.29445 11.6067 4.23595 11.6732C4.19087 11.7229 4.14904 11.7761 4.11076 11.8324C4.07318 11.8886 4.03878 11.9473 4.00777 12.0082C3.95252 12.1179 3.90755 12.2337 3.87354 12.3536C3.83815 12.477 3.81594 12.6045 3.80739 12.7336C3.79869 12.862 3.80484 12.9912 3.82571 13.1179C3.8458 13.2423 3.88501 13.3619 3.94163 13.4715C3.98944 13.5699 4.05229 13.6584 4.12735 13.7329C4.19913 13.8034 4.27969 13.8619 4.36652 13.9068C4.45501 13.9523 4.54833 13.9852 4.64425 14.0047C4.74242 14.0253 4.84211 14.0356 4.94201 14.0356C4.99114 14.0356 5.04141 14.0335 5.09284 14.0293C5.14285 14.0254 5.19257 14.0178 5.24172 14.0068Z" fill="white"/>
</g>
</g>
<defs>
<clipPath id="clip0_1_413">
<rect width="36" height="36" fill="white"/>
</clipPath>
<clipPath id="clip1_1_413">
<rect width="7.98846" height="6.22299" fill="white" transform="translate(2.39655 9.55675)"/>
</clipPath>
</defs>
</svg>
