<svg width="13" height="13" viewBox="0 0 13 13" fill="none" xmlns="http://www.w3.org/2000/svg">
<path d="M0.254015 5.34054C0.239563 5.35833 0.216958 5.37686 0.215475 5.39613C0.209917 5.48618 0.204358 5.57734 0.208434 5.66739C0.214734 5.80746 0.229187 5.94754 0.240304 6.09021C0.259944 6.09169 0.280696 6.09317 0.301448 6.09502C0.302559 6.0991 0.303671 6.10355 0.305154 6.10763C0.282178 6.11948 0.259202 6.13134 0.242897 6.13987C0.244009 6.24177 0.242897 6.34034 0.246232 6.43891C0.250308 6.55564 0.258461 6.67163 0.26402 6.78799C0.265132 6.80985 0.260315 6.83246 0.257721 6.85432C0.249939 6.92362 0.242527 6.98884 0.282919 7.05554C0.312935 7.1052 0.321088 7.16857 0.334799 7.22675C0.34184 7.25713 0.340357 7.28937 0.34258 7.31754C0.327387 7.34829 0.29663 7.38164 0.298113 7.41277C0.301448 7.48095 0.318123 7.54877 0.334799 7.61585C0.369632 7.75592 0.40706 7.89599 0.444858 8.03644C0.448934 8.052 0.465239 8.06423 0.476356 8.0772C0.486732 8.08906 0.501925 8.09758 0.508225 8.11129C0.540464 8.18022 0.570481 8.24989 0.600126 8.31993C0.601238 8.32252 0.598273 8.32733 0.597161 8.33104C0.58308 8.33215 0.56974 8.33289 0.556029 8.334C0.552693 8.3429 0.549359 8.35142 0.546024 8.36031C0.62829 8.32807 0.649041 8.37847 0.66794 8.43294C0.673128 8.44777 0.687581 8.45889 0.69388 8.47334C0.713521 8.51855 0.731308 8.56487 0.747983 8.60785C0.681281 8.66455 0.683875 8.55968 0.624584 8.57747C0.663494 8.67715 0.691287 8.77906 0.735755 8.86985C0.827286 9.05661 0.925857 9.23449 1.0248 9.40791C1.09706 9.53465 1.17525 9.65619 1.25344 9.77737C1.26159 9.78997 1.27419 9.79887 1.28457 9.80999C1.35127 9.88113 1.42427 9.94857 1.48245 10.0268C1.50394 10.0553 1.52655 10.0761 1.55397 10.089C1.58806 10.1746 1.63698 10.2428 1.70479 10.3154C1.71887 10.3306 1.73481 10.3436 1.75186 10.3547C1.76631 10.3729 1.78447 10.3918 1.8067 10.4133C1.82782 10.4337 1.85562 10.4511 1.8697 10.4752C1.92269 10.5663 1.97457 10.6593 2.02645 10.7523C2.04979 10.7942 2.08314 10.8124 2.13095 10.815C2.13206 10.8068 2.13206 10.8016 2.13354 10.7964C2.13799 10.7794 2.14244 10.7623 2.14688 10.7449C2.16541 10.7557 2.18839 10.7635 2.20173 10.7779C2.24027 10.8202 2.27399 10.8657 2.3129 10.9083C2.32216 10.9187 2.34921 10.931 2.35403 10.9276C2.39072 10.902 2.41999 10.9295 2.43963 10.9532C2.47558 10.9965 2.50448 11.0447 2.53413 11.0877C2.59638 11.1311 2.65864 11.1752 2.72164 11.2189C2.73794 11.2304 2.75832 11.2474 2.77314 11.2471C2.785 11.2467 2.79056 11.223 2.80057 11.2115C2.81391 11.1966 2.83577 11.1685 2.84244 11.1718C2.88728 11.1948 2.93842 11.2185 2.9688 11.2534C2.99067 11.2785 3.00253 11.2893 3.03477 11.2967C3.05737 11.3019 3.09925 11.3386 3.09702 11.3456C3.08442 11.3834 3.1111 11.4038 3.14075 11.4201C3.22413 11.4664 3.30713 11.5131 3.39162 11.5535C3.41126 11.5628 3.45129 11.5554 3.46277 11.5405C3.48464 11.5127 3.45017 11.4927 3.42238 11.4749C3.23562 11.3541 3.03736 11.2441 2.858 11.1096C2.75017 11.0284 2.64678 10.9421 2.54524 10.8539C2.44408 10.7661 2.34588 10.676 2.24768 10.5893C2.221 10.5656 2.19469 10.5385 2.2499 10.5055C2.27065 10.5986 2.39183 10.6097 2.41999 10.6982C2.4211 10.7023 2.42963 10.7053 2.43518 10.7086C2.49929 10.7464 2.5634 10.7846 2.62862 10.8216C2.66753 10.8439 2.70829 10.8635 2.74683 10.8865C2.88432 10.9684 3.02105 11.0514 3.15779 11.1333C3.19893 11.1577 3.24043 11.1929 3.28194 11.2018C3.34382 11.2152 3.38051 11.2522 3.42127 11.2908C3.43461 11.3034 3.45055 11.3175 3.46648 11.3234C3.53985 11.3501 3.61471 11.3727 3.68808 11.3997C3.7722 11.4309 3.85632 11.4635 3.93784 11.5039C3.97342 11.5213 4.019 11.5365 4.02974 11.5883C4.03308 11.6035 4.07199 11.6198 4.09682 11.6373C4.10756 11.628 4.11831 11.6187 4.12609 11.6121C4.14759 11.6221 4.16352 11.6302 4.17983 11.6369C4.21799 11.6524 4.25653 11.6673 4.2947 11.6825C4.31175 11.6891 4.32842 11.6973 4.34547 11.7017C4.46072 11.7314 4.57708 11.7558 4.69232 11.7877C4.7405 11.801 4.78459 11.84 4.83277 11.8529C5.0062 11.9 5.17814 11.9485 5.35045 11.9823C5.45903 12.0037 5.57131 12.006 5.68322 12.0126C5.78031 12.0178 5.87852 12.013 5.97672 12.0178C6.04453 12.0208 6.1116 12.0371 6.17905 12.0416C6.24575 12.0464 6.31282 12.0493 6.37915 12.0445C6.4944 12.036 6.60891 12.0204 6.72304 12.0063C6.78196 11.9989 6.84126 11.9823 6.89832 11.9837C7.04136 11.9878 7.17921 11.9556 7.31855 11.927C7.41971 11.9063 7.52125 11.8844 7.62352 11.8633C7.71135 11.8451 7.79955 11.8266 7.88885 11.8092C8.03412 11.7807 8.16493 11.6977 8.3202 11.6943C8.32798 11.6943 8.33613 11.6903 8.34428 11.688C8.42173 11.6662 8.49955 11.6447 8.57774 11.6224C8.59368 11.618 8.60998 11.6139 8.62555 11.6076C8.80416 11.5342 8.97944 11.4512 9.16102 11.3823C9.2733 11.3382 9.37409 11.2811 9.46748 11.2137C9.66166 11.0733 9.84916 10.9254 10.0267 10.7675C10.1968 10.6163 10.3291 10.4266 10.4784 10.2554C10.5314 10.1946 10.5914 10.1246 10.587 10.0464C10.5432 10.0694 10.4988 10.0931 10.4647 10.1305C10.4384 10.1594 10.4202 10.1943 10.4009 10.2284C10.3265 10.3599 10.2338 10.4811 10.1275 10.5871C10.106 10.6086 10.083 10.6297 10.0567 10.643C10.0411 10.6508 10.0241 10.6556 10.0092 10.6653C9.957 10.6993 9.94774 10.7753 9.90623 10.8239C9.86732 10.8687 9.80544 10.9002 9.76097 10.9391C9.70057 10.9921 9.61867 11.0284 9.55086 11.0707C9.54752 11.0662 9.54419 11.0618 9.54122 11.0573C9.58643 11.0206 9.63127 10.9836 9.67611 10.9461C9.67389 10.941 9.67203 10.9354 9.66981 10.9302C9.63757 10.9432 9.60311 10.9517 9.57346 10.9695C9.54048 10.9891 9.51417 11.0221 9.47971 11.041C9.27404 11.1548 9.06541 11.2704 8.85048 11.3712C8.67594 11.4531 8.48732 11.4861 8.30056 11.519C8.19568 11.5376 8.08414 11.5491 7.99261 11.592C7.84364 11.661 7.68986 11.6524 7.54052 11.6832C7.53681 11.6839 7.53199 11.6795 7.52384 11.6754C7.54385 11.6643 7.56016 11.655 7.5898 11.6384C7.42008 11.6636 7.26815 11.6858 7.11696 11.708C7.1151 11.6999 7.11325 11.6914 7.1114 11.6828C7.2222 11.6554 7.33374 11.628 7.44565 11.6006C7.30817 11.6172 7.17366 11.6502 7.03877 11.6736C6.90425 11.6969 6.76788 11.7106 6.62595 11.688C6.82124 11.6717 7.00801 11.6317 7.19292 11.5839C7.30261 11.5554 7.41823 11.5053 7.52977 11.4901C7.63279 11.4764 7.73062 11.5087 7.83734 11.4746C7.92257 11.4475 8.00076 11.4031 8.08488 11.373C8.20198 11.3312 8.32687 11.3182 8.44841 11.2915C8.87494 11.1981 9.24736 10.9402 9.57346 10.6497C9.47637 10.6408 9.37595 10.6745 9.30369 10.7401C9.50046 10.4826 9.76838 10.2795 10.0697 10.1594C10.0419 10.2132 10.0144 10.2669 9.98665 10.3203C10.0441 10.3373 10.1 10.2928 10.1434 10.2517C10.2149 10.1843 10.2864 10.1164 10.358 10.049C10.4158 9.99453 10.4739 9.93968 10.5177 9.87335C10.5796 9.78071 10.6114 9.66843 10.6859 9.58542C10.7263 9.54021 10.7793 9.50389 10.8038 9.44831C10.8264 9.3968 10.8208 9.33602 10.843 9.28414C10.8667 9.2293 10.9175 9.19224 10.9575 9.14777C11.0057 9.09404 11.0131 9.02067 11.0387 8.95582C11.0517 8.92321 11.1217 8.69865 11.1395 8.6905C11.2132 8.65752 11.2688 8.55264 11.2647 8.43073C11.2818 8.44481 11.2955 8.45629 11.3244 8.48001C11.3392 8.42146 11.354 8.37366 11.3633 8.32474C11.377 8.25063 11.3652 8.16985 11.4159 8.10537C11.42 8.10018 11.4185 8.0898 11.4196 8.08202C11.4289 8.02717 11.4389 7.9727 11.4485 7.91823C11.4548 7.91971 11.4611 7.92082 11.4678 7.9223C11.4608 7.99382 11.483 8.06905 11.4382 8.13723C11.4263 8.15539 11.4289 8.18356 11.4241 8.2069C11.407 8.29287 11.4241 8.38143 11.3893 8.46889C11.35 8.56672 11.3359 8.67641 11.3144 8.78128C11.3118 8.79462 11.3296 8.81538 11.3418 8.82798C11.3503 8.83687 11.37 8.83427 11.3781 8.84317C11.393 8.85873 11.403 8.87948 11.4152 8.89801C11.3967 8.9069 11.3781 8.92358 11.3596 8.92358C11.2703 8.92395 11.2703 8.92247 11.2451 9.01882C11.2636 9.02215 11.2818 9.02549 11.2996 9.02808C11.3692 9.03808 11.3804 9.06291 11.3444 9.12813C11.3303 9.1537 11.3185 9.18076 11.3051 9.20781C11.2347 9.20151 11.2332 9.20077 11.1951 9.26414C11.1754 9.29712 11.1643 9.33565 11.1436 9.36752C11.1373 9.37715 11.1117 9.37346 11.095 9.37568C11.0958 9.3616 11.0924 9.34603 11.098 9.33454C11.1069 9.31564 11.1213 9.29971 11.1421 9.27006C11.1191 9.27229 11.1035 9.26895 11.0961 9.27525C11.0676 9.30007 11.0435 9.41643 11.0598 9.45053C11.0413 9.45942 11.0228 9.46832 11.0042 9.47721L11.0198 9.4824C11.0024 9.53687 10.9846 9.59135 10.9675 9.64397C10.9827 9.6499 10.9979 9.6562 11.0135 9.6625C11.0094 9.66954 11.0057 9.6762 11.0013 9.68324C10.9468 9.67731 10.8964 9.76107 10.8386 9.6977C10.8278 9.70845 10.8171 9.71882 10.806 9.72994C10.8516 9.76514 10.8567 9.77663 10.8327 9.79441C10.7737 9.83777 10.7556 9.8967 10.7522 9.95932C10.7426 9.96451 10.7333 9.97006 10.7248 9.97859C10.7 10.0034 10.6889 10.0379 10.6722 10.0686C10.6718 10.069 10.6718 10.069 10.6715 10.0694C10.6629 10.0805 10.654 10.0916 10.6474 10.1038C10.6448 10.1072 10.6433 10.1109 10.6422 10.115C10.6418 10.1157 10.6414 10.1161 10.6414 10.1168C10.6348 10.1342 10.6377 10.1528 10.6466 10.1657C10.6433 10.1783 10.6411 10.1917 10.6411 10.2058C10.6411 10.2421 10.6915 10.2565 10.7074 10.2206C10.7389 10.1502 10.7863 10.079 10.8367 10.0242C10.8656 9.99268 10.8982 9.96525 10.9279 9.93486C10.9442 9.91819 10.9638 9.89781 10.982 9.87521C11.012 9.85038 11.0391 9.82036 11.0598 9.77922C11.1198 9.66027 11.1977 9.5517 11.2684 9.43942C11.2725 9.43312 11.2781 9.42533 11.2844 9.4231C11.2925 9.42051 11.3051 9.41903 11.3107 9.42385C11.3162 9.42829 11.3196 9.44349 11.3162 9.45016C11.2933 9.50019 11.2722 9.55133 11.244 9.59802C11.2029 9.66621 11.1551 9.73031 11.1128 9.79775C11.0869 9.83963 11.0672 9.88299 11.0157 9.90151C10.9935 9.90967 10.9724 9.94117 10.9631 9.96711C10.9327 10.0494 10.8756 10.1064 10.8152 10.1628C10.7826 10.1932 10.7537 10.2291 10.723 10.2632C10.6359 10.3595 10.5488 10.4574 10.4584 10.5545C10.4324 10.5822 10.3843 10.5926 10.3983 10.6475C10.3995 10.6512 10.3824 10.6627 10.3731 10.6693C10.3568 10.6812 10.3379 10.6893 10.3239 10.7034C10.2031 10.8239 10.086 10.9495 9.95811 11.0629C9.87992 11.1314 9.78839 11.1826 9.70094 11.2382C9.66351 11.2619 9.61793 11.2748 9.58458 11.3019C9.48897 11.3793 9.38966 11.4523 9.28331 11.5161C9.17695 11.5798 9.06467 11.6343 8.94275 11.6751C8.83381 11.7117 8.73412 11.7747 8.62406 11.8155C8.51141 11.857 8.39357 11.8904 8.27869 11.933C8.10675 11.9971 7.92183 12.036 7.73655 12.0501C7.67911 12.0545 7.62056 12.0571 7.56757 12.076C7.52644 12.0908 7.48641 12.1153 7.44343 12.1131C7.3834 12.1097 7.34967 12.0968 7.29483 12.1312C7.26185 12.152 7.24888 12.1924 7.21812 12.212C7.13511 12.2646 7.10139 12.1283 7.03136 12.2039C7.01727 12.2191 7.00616 12.2368 6.988 12.2483C6.93056 12.2846 6.82791 12.2305 6.76788 12.2257C6.66894 12.2176 6.57222 12.2216 6.47958 12.2694C6.46772 12.2754 6.45586 12.2828 6.44919 12.2935C6.43511 12.3161 6.45253 12.3439 6.47735 12.3525C6.60446 12.3966 6.82643 12.3543 6.96762 12.3436C7.09324 12.3339 7.22479 12.3262 7.35597 12.3124C7.48716 12.2987 7.61834 12.2798 7.74285 12.2476C7.87403 12.2139 8.00632 12.1794 8.13825 12.1438C8.27017 12.1083 8.40135 12.0701 8.53068 12.0297C8.72634 11.9663 8.91644 11.8955 9.09913 11.8151C9.28182 11.7347 9.45784 11.6417 9.62719 11.5383C9.79803 11.4342 9.96293 11.3197 10.1223 11.197C10.2716 11.0821 10.4028 10.9569 10.5614 10.8609C10.6418 10.8124 10.713 10.7453 10.7689 10.666C10.8015 10.6197 10.8293 10.5689 10.8697 10.53C10.9105 10.4903 10.962 10.4655 11.0079 10.4325C11.0524 10.4007 11.0754 10.3658 11.1006 10.318C11.1224 10.2762 11.1599 10.2424 11.181 10.1976C11.2458 10.0612 11.3437 9.95154 11.4204 9.82592C11.4463 9.7833 11.4763 9.76255 11.5204 9.78515C11.5086 9.83221 11.4971 9.87853 11.4852 9.92449C11.4904 9.92597 11.496 9.92782 11.5012 9.92931C11.533 9.86001 11.5649 9.79071 11.5964 9.72141C11.5534 9.66953 11.5534 9.67027 11.6149 9.65545C11.6223 9.6536 11.6331 9.63359 11.6316 9.63174C11.5901 9.58023 11.6401 9.55725 11.6612 9.52649C11.7191 9.44275 11.7787 9.35937 11.8376 9.27562C11.8432 9.26784 11.8476 9.25747 11.8551 9.25339C11.9195 9.22078 11.9566 9.16927 11.9718 9.09515C11.9977 8.97027 12.0233 8.84502 12.0604 8.72384C12.1019 8.58859 12.16 8.45963 12.2019 8.32548C12.2631 8.12834 12.3179 7.92897 12.3776 7.73072C12.3898 7.6907 12.4176 7.64771 12.3442 7.62955C12.3672 7.62103 12.3894 7.61918 12.3924 7.61028C12.4057 7.57545 12.4161 7.53876 12.422 7.50171C12.435 7.41759 12.445 7.33272 12.4546 7.24786C12.4702 7.10853 12.4843 6.96882 12.5002 6.82949C12.5058 6.7802 12.5047 6.73722 12.4502 6.71536C12.4457 6.7135 12.4457 6.69979 12.4417 6.68423C12.4646 6.69312 12.4798 6.69905 12.4965 6.70535C12.5084 6.64347 12.5199 6.58344 12.5313 6.52303C12.5384 6.52377 12.5454 6.52451 12.5525 6.52562C12.5562 6.56046 12.5599 6.59492 12.5636 6.62976C12.5769 6.60382 12.5858 6.57862 12.5854 6.55305C12.584 6.48708 12.5825 6.42112 12.5803 6.35516C12.578 6.2892 12.5751 6.22287 12.5714 6.15654C12.5699 6.12801 12.5617 6.08539 12.5428 6.0739C12.4532 6.01832 12.4661 5.92531 12.4565 5.83933C12.4465 5.75299 12.4394 5.66591 12.4294 5.57919C12.4228 5.52213 12.4087 5.4658 12.4061 5.40799C12.4035 5.34611 12.4213 5.27903 12.4105 5.22011C12.3987 5.1523 12.3605 5.09301 12.3401 5.02704C12.3398 5.02556 12.3394 5.02408 12.339 5.02223C12.3179 4.9785 12.3038 4.93181 12.2942 4.88252C12.2849 4.83398 12.2983 4.79321 12.3235 4.76246C12.3216 4.75356 12.3212 4.74467 12.3223 4.73541C12.3168 4.63535 12.2927 4.53827 12.2593 4.44525C12.226 4.35187 12.1838 4.26256 12.1445 4.17622C12.1056 4.09062 12.0711 4.00687 12.0426 3.92053C12.0363 3.91719 12.03 3.91311 12.0233 3.91015C12.0289 3.90385 12.0318 3.89718 12.0333 3.89051C12.0266 3.87013 12.02 3.85011 12.014 3.82936C12.0059 3.80083 11.9977 3.7723 11.9892 3.74376C11.9218 3.64482 11.8665 3.54106 11.8373 3.42619C11.8306 3.39988 11.8321 3.37504 11.8391 3.35244C11.8173 3.33873 11.795 3.32576 11.775 3.31205C11.7935 3.26906 11.8095 3.23201 11.8295 3.18495C11.7917 3.18976 11.7617 3.19199 11.7324 3.19792C11.6542 3.21385 11.6242 3.20088 11.5845 3.13566C11.5575 3.09119 11.5367 3.03894 11.5004 3.00522C11.4126 2.92258 11.3822 2.804 11.3151 2.70876C11.304 2.6932 11.3022 2.67096 11.2922 2.64021C11.317 2.65429 11.334 2.65799 11.34 2.66837C11.3778 2.73433 11.4063 2.80808 11.4849 2.83661C11.4897 2.83846 11.4915 2.85106 11.493 2.85884C11.5001 2.90109 11.4963 2.94926 11.5152 2.98447C11.5479 3.04376 11.5957 3.09452 11.6357 3.14492C11.6876 3.12121 11.7324 3.10045 11.778 3.0797C11.7728 3.06562 11.7717 3.04969 11.7628 3.03968C11.6953 2.96112 11.6294 2.88256 11.5642 2.80326C11.5312 2.76287 11.4989 2.72248 11.4419 2.71618C11.433 2.71506 11.4174 2.68875 11.4204 2.67949C11.4422 2.60834 11.4 2.61279 11.3718 2.6176C11.3589 2.58277 11.3548 2.5483 11.3366 2.52792C11.2051 2.3834 11.0717 2.24148 10.9398 2.09918C10.902 2.02136 10.8427 1.95391 10.766 1.90092C10.7511 1.89055 10.7356 1.88165 10.7196 1.87313C10.7004 1.85423 10.6811 1.8357 10.6618 1.81717C10.6611 1.82718 10.6622 1.83755 10.6644 1.84793C10.6325 1.83533 10.5999 1.82458 10.5673 1.81569C10.5562 1.79976 10.5451 1.78382 10.5332 1.76863C10.5288 1.76307 10.5147 1.76307 10.5058 1.76455C10.4695 1.77122 10.4617 1.74639 10.4499 1.71786C10.4324 1.67524 10.4139 1.63078 10.3861 1.59557C10.3557 1.55778 10.3146 1.5285 10.2764 1.49811C10.2598 1.48477 10.2394 1.47699 10.2205 1.46698C10.2205 1.48736 10.2212 1.50775 10.2205 1.52813C10.2201 1.53591 10.2175 1.54332 10.2153 1.55444C10.2005 1.54999 10.1845 1.54962 10.1764 1.5411C10.1575 1.52146 10.1427 1.49774 10.126 1.47588C10.1475 1.46143 10.169 1.44698 10.1908 1.43326C10.2053 1.424 10.2197 1.41585 10.2438 1.40177C10.1327 1.32209 10.0348 1.24501 9.93032 1.17979C9.821 1.11161 9.70464 1.05602 9.59236 0.992287C9.54863 0.967458 9.50861 0.93485 9.46674 0.906316C9.43487 0.884453 9.40485 0.857768 9.37002 0.842575C9.33407 0.827011 9.2922 0.825903 9.2544 0.813674C9.20993 0.799222 9.16509 0.783285 9.12433 0.76031C9.08653 0.739187 9.05541 0.704355 9.01761 0.682491C8.98574 0.663963 8.94794 0.643952 8.91311 0.645063C8.8175 0.648028 8.8175 0.652472 8.80008 0.563906C8.76895 0.55316 8.73857 0.543156 8.70855 0.53278C8.71633 0.557608 8.73598 0.57243 8.74413 0.59207C8.75154 0.609857 8.75154 0.634686 8.74524 0.653215C8.74264 0.660997 8.71485 0.664332 8.69966 0.662479C8.63814 0.654326 8.62962 0.606152 8.62443 0.555384C8.62221 0.535744 8.62258 0.506468 8.61109 0.499428C8.5644 0.470894 8.51549 0.444955 8.46361 0.426426C8.37319 0.394187 8.2798 0.368989 8.1879 0.338973C8.1112 0.313774 8.03708 0.280794 7.95926 0.260783C7.86921 0.237808 7.77694 0.220761 7.68541 0.208902C7.60018 0.197785 7.51384 0.197417 7.42824 0.192229C7.41453 0.191488 7.40044 0.191854 7.38747 0.188519C7.32744 0.174808 7.26815 0.155539 7.20738 0.147387C7.16476 0.141458 7.11918 0.145165 7.07694 0.153688C7.01764 0.165546 6.96132 0.184816 6.91129 0.126266C6.90055 0.113667 6.8746 0.112923 6.85496 0.109959C6.79641 0.101436 6.73786 0.0932831 6.67932 0.0866128C6.5926 0.076978 6.50181 0.0502983 6.41955 0.0647505C6.27836 0.0895786 6.13347 0.0454798 5.99524 0.0914304C5.97412 0.0984712 5.94559 0.0806859 5.92039 0.0795742C5.88556 0.0780919 5.84331 0.0688278 5.817 0.0843918C5.64469 0.186669 5.45088 0.208163 5.25818 0.238179C5.127 0.25856 4.99508 0.279679 4.86241 0.29969C4.84314 0.302655 4.82276 0.295617 4.80275 0.293393L4.80423 0.270047C4.87205 0.256336 4.93949 0.242997 5.00694 0.230027C4.95209 0.220393 4.90021 0.217795 4.84833 0.216683C4.84351 0.216683 4.83833 0.222986 4.83314 0.22521C4.79423 0.241144 4.75643 0.263008 4.71641 0.271531C4.61117 0.293765 4.50222 0.287093 4.40143 0.334155C4.32361 0.370471 4.2443 0.403451 4.165 0.435691C4.14054 0.445696 4.11275 0.450144 4.08718 0.450514C4.04346 0.450514 3.99788 0.433468 3.95711 0.445326C3.89375 0.463484 3.83223 0.496465 3.77257 0.529446C3.62916 0.607636 3.48649 0.68731 3.34679 0.7718C3.15038 0.890382 2.95732 1.0123 2.76536 1.13384C2.71682 1.1646 2.66975 1.20054 2.62714 1.2402C2.59082 1.27392 2.55896 1.28837 2.52042 1.26428C2.48114 1.23983 2.44667 1.23649 2.42073 1.29393C2.41517 1.30616 2.40258 1.31616 2.39183 1.32469C2.35218 1.35507 2.30511 1.37768 2.27288 1.41399C2.19394 1.5033 2.11946 1.59668 2.04498 1.68932C1.98828 1.75973 1.93936 1.83718 1.87822 1.90389C1.85117 1.93353 1.80485 1.95836 1.76631 1.96281C1.71517 1.96873 1.69961 1.98875 1.68997 2.03359C1.68182 2.07212 1.66218 2.10918 1.64847 2.14698C1.64143 2.16662 1.63179 2.18774 1.63179 2.20701C1.63179 2.25556 1.61437 2.28409 1.55953 2.29039C1.54656 2.29187 1.52173 2.31855 1.52321 2.32152C1.56324 2.39193 1.50098 2.42379 1.45762 2.46493C1.44095 2.48086 1.42613 2.50458 1.42242 2.5257C1.41427 2.56943 1.39981 2.60093 1.34905 2.61686C1.32496 2.62464 1.30532 2.65021 1.2842 2.66874C1.26789 2.68282 1.25492 2.70061 1.2375 2.71247C1.16228 2.76398 1.08335 2.81215 1.09521 2.91554C1.09595 2.92221 1.09335 2.9311 1.08928 2.93666C1.0374 3.00744 0.983295 3.07637 0.936233 3.149C0.878424 3.23868 0.832102 3.33465 0.773182 3.42285C0.70722 3.52216 0.656824 3.62518 0.625696 3.74006C0.605685 3.8138 0.558251 3.87976 0.533423 3.95276C0.500443 4.04911 0.477097 4.14879 0.449304 4.24699C0.442264 4.27145 0.443005 4.30258 0.4267 4.31889C0.377785 4.36854 0.376673 4.42894 0.372596 4.49194C0.360738 4.67648 0.255867 4.84324 0.262908 5.03594C0.263279 5.05039 0.248827 5.06447 0.243639 5.07967C0.232892 5.11265 0.227704 5.14229 0.273655 5.15711C0.321829 5.17268 0.337022 5.21492 0.320717 5.25569C0.311082 5.28719 0.277361 5.31127 0.254015 5.34054ZM11.3344 6.38407C11.3485 6.37777 11.3626 6.37073 11.377 6.36517C11.3996 6.35665 11.4222 6.34887 11.4456 6.34257C11.4474 6.3422 11.4585 6.3648 11.4574 6.36591C11.4352 6.38296 11.4122 6.4 11.3878 6.41297C11.3796 6.41742 11.3655 6.41112 11.354 6.40964C11.3474 6.40148 11.3411 6.39259 11.3344 6.38407ZM11.5301 7.2197C11.5605 7.22526 11.5716 7.2475 11.5482 7.26343C11.5075 7.2916 11.4604 7.31123 11.4141 7.33013C11.4067 7.33309 11.3848 7.31531 11.38 7.30308C11.3759 7.29233 11.383 7.27196 11.3922 7.26269C11.4044 7.25046 11.4233 7.2449 11.4393 7.23674C11.43 7.23193 11.4204 7.22711 11.4111 7.22193C11.4074 7.1945 11.4037 7.16745 11.3996 7.14003C11.3989 7.13447 11.3981 7.12781 11.3948 7.1241C11.3344 7.05184 11.3748 6.97995 11.3941 6.90805C11.3996 6.88693 11.4067 6.86655 11.4141 6.84617C11.4211 6.82801 11.43 6.81096 11.4382 6.79317C11.46 6.81244 11.4867 6.82838 11.5015 6.8521C11.5141 6.87248 11.4934 6.91139 11.5364 6.9188C11.5397 6.91917 11.5401 6.93992 11.5408 6.95141C11.5445 6.99773 11.5471 7.04368 11.5516 7.08963C11.5545 7.12076 11.5597 7.15152 11.5642 7.18227C11.5556 7.18561 11.5471 7.18894 11.5386 7.19228C11.5256 7.17746 11.5127 7.16263 11.4993 7.14781C11.4704 7.20599 11.4711 7.20895 11.5301 7.2197ZM11.543 6.15135C11.5026 6.16395 11.4611 6.17359 11.4341 6.18063C11.3255 6.18063 11.2855 6.11726 11.324 6.02944C11.3263 6.02388 11.3296 6.01721 11.334 6.01498C11.3748 5.99646 11.4308 6.00535 11.4497 5.94717C11.45 5.94568 11.4641 5.94643 11.4656 5.94939C11.4986 6.00757 11.5308 6.06575 11.5612 6.12504C11.5634 6.12949 11.5516 6.14839 11.543 6.15135ZM11.841 7.74517C11.8539 7.65772 11.8702 7.57063 11.8899 7.48429C11.9195 7.35126 11.9529 7.21822 11.984 7.08445C11.9859 7.07703 11.9944 7.06777 11.9922 7.06332C11.9414 6.95697 11.9911 6.84172 11.9633 6.73241C11.9559 6.70313 11.9696 6.6683 11.9751 6.62161C11.9258 6.5827 11.911 6.50932 11.9414 6.44114C11.9651 6.38815 12.0248 6.4026 12.0737 6.41853C12.0807 6.39259 12.0885 6.36517 12.0963 6.33701C12.0844 6.31959 12.0704 6.29884 12.0541 6.27512C12.1282 6.21694 12.1304 6.14579 12.0907 6.06464C12.0859 6.05463 12.0937 6.03203 12.103 6.02314C12.1126 6.0135 12.1367 6.00535 12.1441 6.01127C12.1556 6.02017 12.1641 6.04203 12.1637 6.0576C12.163 6.16395 12.1637 6.27068 12.1619 6.37629C12.1604 6.48227 12.1567 6.58788 12.1474 6.69238C12.1285 6.90768 12.0833 7.11965 12.0563 7.33235C12.04 7.4602 11.9936 7.57841 11.9647 7.70107C11.9358 7.82743 11.8969 7.95121 11.8599 8.07498C11.8224 8.19875 11.7813 8.3214 11.7413 8.44406C11.7346 8.46407 11.7213 8.48223 11.7109 8.50113C11.7031 8.49817 11.6953 8.4952 11.6876 8.49224C11.6935 8.44444 11.7053 8.39626 11.7039 8.34845C11.7005 8.24321 11.7602 8.16466 11.8028 8.07832C11.8128 8.0583 11.8113 8.03199 11.8136 8.00827C11.8224 7.92082 11.828 7.83263 11.841 7.74517ZM11.8028 7.35348C11.8117 7.42796 11.7832 7.50801 11.7365 7.52061C11.7417 7.48577 11.7465 7.45501 11.7539 7.40684C11.7524 7.40313 11.7443 7.3846 11.7324 7.35718C11.7632 7.3557 11.7832 7.35459 11.8028 7.35348ZM11.6097 5.25717C11.6179 5.28162 11.6372 5.30349 11.6538 5.32387C11.6779 5.35278 11.6998 5.3902 11.6646 5.41318C11.6394 5.42948 11.5838 5.43282 11.5653 5.41503C11.5215 5.37353 11.4897 5.3172 11.4571 5.26458C11.4363 5.23086 11.4674 5.18898 11.5104 5.18861C11.5612 5.18454 11.5931 5.20566 11.6097 5.25717ZM11.4385 4.65425C11.4571 4.65573 11.4812 4.65833 11.4919 4.67056C11.5178 4.70057 11.5371 4.73615 11.5619 4.77395C11.523 4.83472 11.4875 4.83805 11.453 4.78062C11.4352 4.75097 11.4274 4.71466 11.4189 4.68019C11.417 4.67352 11.4322 4.65388 11.4385 4.65425ZM11.4845 5.51694C11.5282 5.50174 11.5849 5.54287 11.5556 5.63144C11.6049 5.65071 11.6338 5.67702 11.5949 5.73409C11.5868 5.74632 11.6046 5.77856 11.609 5.80154C11.6142 5.8271 11.6231 5.85378 11.6201 5.87787C11.619 5.88676 11.5812 5.90085 11.5742 5.89492C11.5501 5.87417 11.5264 5.84748 11.5138 5.81821C11.4997 5.78671 11.4993 5.74928 11.4893 5.71519C11.4875 5.70926 11.4667 5.70148 11.4597 5.70519C11.4482 5.71075 11.433 5.72446 11.433 5.73557C11.4326 5.77078 11.4389 5.80635 11.4411 5.84193C11.4422 5.86008 11.4437 5.87898 11.4393 5.89566C11.4371 5.90418 11.4219 5.91419 11.4133 5.91271C11.4015 5.91085 11.38 5.89677 11.3807 5.89232C11.3855 5.86268 11.3804 5.84007 11.3641 5.81191C11.3503 5.78819 11.3552 5.75373 11.3507 5.71704C11.2925 5.67888 11.2766 5.57919 11.3222 5.5288C11.3281 5.5225 11.3359 5.5136 11.3355 5.50619C11.3337 5.46283 11.3611 5.44987 11.3911 5.45876C11.4207 5.46728 11.4459 5.49174 11.4845 5.51694ZM11.2736 4.94404C11.3022 5.02075 11.3937 5.06114 11.3937 5.17157C11.2948 5.12413 11.2862 5.0226 11.2269 4.94367C11.2503 4.94367 11.2722 4.93996 11.2736 4.94404ZM10.9034 8.59118C10.8994 8.59896 10.8816 8.60823 10.8786 8.60563C10.8697 8.59822 10.8604 8.58525 10.8601 8.57413C10.8593 8.55672 10.8638 8.53819 10.8705 8.52189C10.8764 8.50743 10.8886 8.49557 10.8979 8.4826C10.9083 8.49706 10.9183 8.5115 10.9283 8.52559C10.9186 8.55227 10.9131 8.57302 10.9034 8.59118ZM10.7122 3.83974C10.7367 3.84307 10.7685 3.87828 10.7786 3.90607C10.8382 4.07394 10.8931 4.24403 10.9479 4.41412C10.9575 4.4434 10.9594 4.47527 10.9657 4.5101C10.9142 4.50825 10.889 4.49602 10.8949 4.44414C10.8971 4.42598 10.8897 4.40375 10.8808 4.38633C10.8371 4.30036 10.7897 4.21661 10.7478 4.1299C10.7296 4.0921 10.7348 4.03911 10.6759 4.03651C10.6715 4.03651 10.6652 4.0254 10.6633 4.01873C10.6377 3.93238 10.6129 3.84604 10.5866 3.75525C10.6136 3.73376 10.6303 3.7471 10.6411 3.78082C10.6529 3.81751 10.6718 3.83455 10.7122 3.83974ZM10.4832 3.51179C10.5362 3.55737 10.5814 3.61332 10.627 3.66779C10.6314 3.67298 10.6166 3.69559 10.6122 3.70782C10.5966 3.70448 10.5914 3.70522 10.5892 3.703C10.5421 3.65297 10.491 3.60591 10.4506 3.5507C10.4261 3.51698 10.4628 3.49437 10.4832 3.51179ZM8.74858 1.96725C8.77081 1.95799 8.79267 1.94873 8.81565 1.93909C8.83158 1.96651 8.84381 1.988 8.85641 2.00913C8.85382 2.01617 8.85122 2.02321 8.84863 2.03025C8.81453 2.01654 8.78044 2.00246 8.74635 1.98875C8.74709 1.98134 8.74783 1.97429 8.74858 1.96725ZM4.43885 11.1337C4.32212 11.0692 4.20539 11.0043 4.08866 10.9398C4.09237 10.9317 4.09608 10.9239 4.09941 10.9158C4.2154 10.9821 4.33139 11.0484 4.44775 11.1144C4.44478 11.1207 4.44182 11.1274 4.43885 11.1337ZM4.67305 11.2081C4.67528 11.2089 4.67713 11.2096 4.67935 11.2104C4.68565 11.2148 4.69195 11.2196 4.69825 11.2233C4.71196 11.2315 4.72642 11.2385 4.74124 11.2448C4.76088 11.2534 4.78052 11.2608 4.80053 11.2667C4.81869 11.283 4.88205 11.2937 4.92022 11.3075C4.93986 11.3145 4.9595 11.3226 4.99026 11.3345C4.88317 11.3627 4.74865 11.3089 4.67305 11.2081ZM5.41197 1.27836C5.37862 1.28429 5.34749 1.30282 5.31414 1.31023C5.14405 1.34766 4.97321 1.38213 4.80275 1.42326C4.72271 1.44253 4.64526 1.47477 4.56559 1.497C4.46702 1.52479 4.36474 1.54036 4.2695 1.57667C4.17983 1.61114 4.09682 1.66524 4.01048 1.70971C3.97638 1.72712 3.94118 1.74195 3.9056 1.7564C3.87818 1.76752 3.84965 1.7753 3.81741 1.78605C3.82 1.7942 3.82223 1.80161 3.82445 1.80865C3.65769 1.88017 3.50391 1.97874 3.35901 2.09065C3.21412 2.20294 3.07738 2.32782 2.94472 2.45307C2.94324 2.45381 2.94212 2.45492 2.94064 2.45566C2.94101 2.45566 2.94101 2.45603 2.94138 2.45603C2.86319 2.52941 2.78648 2.60278 2.70978 2.6743C2.53153 2.84069 2.36404 3.01374 2.22026 3.20125C2.07647 3.38876 1.96012 3.59109 1.87637 3.81491C1.86747 3.83122 1.85858 3.84752 1.84969 3.86383C1.84709 3.85975 1.84413 3.85641 1.84042 3.85345C1.84116 3.84937 1.84153 3.8453 1.8419 3.84122C1.84598 3.82862 1.8508 3.81677 1.85487 3.80602C1.87155 3.76378 1.89415 3.72449 1.91342 3.68336C1.93529 3.63741 1.95159 3.58887 1.97123 3.5418C1.98272 3.51438 2.00014 3.48733 2.01348 3.45916C2.04053 3.41544 2.06425 3.37653 2.08944 3.33947C2.12465 3.28759 2.16356 3.23794 2.19839 3.18532C2.20803 3.17087 2.21877 3.14863 2.21988 3.13381C2.22396 3.1301 2.22767 3.12602 2.23137 3.12195C2.23767 3.1175 2.24323 3.11157 2.24731 3.10453C2.24879 3.10194 2.2499 3.09934 2.25138 3.09675C2.25768 3.08786 2.26324 3.07859 2.26843 3.06933C2.26917 3.06933 2.26954 3.0697 2.27028 3.0697C2.27102 3.06673 2.27251 3.06303 2.27362 3.05969C2.27843 3.05117 2.28251 3.0419 2.28473 3.03264C2.28659 3.02523 2.28733 3.01819 2.28696 3.01078C2.28696 3.00929 2.2877 3.00781 2.2877 3.00633C2.29215 2.92147 2.32364 2.87737 2.40109 2.84143C2.42926 2.82846 2.4552 2.804 2.4778 2.78065C2.51115 2.74582 2.54117 2.70765 2.57193 2.66985C2.64048 2.58573 2.70792 2.50013 2.77648 2.41564C2.85615 2.31744 2.94175 2.22591 3.03328 2.14068C3.12519 2.05582 3.22302 1.97763 3.32826 1.90722C3.48983 1.79901 3.65362 1.69229 3.8226 1.59224C3.92524 1.5322 4.03419 1.48514 4.14166 1.43511C4.23912 1.38991 4.34325 1.35841 4.43663 1.30542C4.66008 1.17831 4.90874 1.15608 5.14627 1.09753C5.25781 1.0701 5.37788 1.08456 5.49386 1.08085C5.62764 1.07641 5.76142 1.06862 5.89482 1.07122C5.95485 1.07233 6.01451 1.09382 6.07455 1.10716C6.11086 1.11531 6.14644 1.12458 6.18238 1.13347C6.18275 1.1394 6.18312 1.14496 6.18349 1.15089C6.16311 1.15423 6.14273 1.15793 6.12198 1.16126C6.03786 1.1746 5.95374 1.18795 5.86962 1.20166C5.86554 1.2024 5.86221 1.20499 5.85813 1.20573C5.71065 1.22982 5.56131 1.25243 5.41197 1.27836ZM2.26139 2.61353C2.27176 2.7121 2.25324 2.74322 2.18097 2.76954C2.1769 2.74285 2.17319 2.72025 2.16726 2.68394C2.18876 2.66837 2.22248 2.6428 2.26139 2.61353ZM2.28436 2.19552C2.3166 2.16662 2.34884 2.13772 2.38108 2.10844C2.3859 2.114 2.39035 2.11956 2.39516 2.12549C2.36255 2.15365 2.32957 2.18218 2.29659 2.21035C2.29252 2.20516 2.28844 2.20034 2.28436 2.19552ZM2.78278 1.64634C2.74572 1.67339 2.71385 1.71008 2.67605 1.73454C2.65604 1.74751 2.62788 1.74417 2.60305 1.74788C2.61158 1.71971 2.61269 1.68377 2.63048 1.6645C2.67531 1.61521 2.73535 1.59409 2.79204 1.56408C2.85059 1.53332 2.90581 1.50886 2.96658 1.49626C2.97547 1.49441 2.98474 1.49552 2.99919 1.49478C2.92248 1.54888 2.85171 1.59594 2.78278 1.64634ZM3.01179 1.88054C3.13741 1.77456 3.26785 1.67376 3.40015 1.57408C3.50539 1.49441 3.61693 1.42845 3.73181 1.36879C3.84743 1.30987 3.96638 1.25761 4.0857 1.20611C4.20614 1.15386 4.32361 1.09271 4.44515 1.04083C4.5252 1.00674 4.6082 0.980058 4.69047 0.950783L4.69751 0.969311C4.67676 0.980058 4.65601 0.991175 4.63525 1.00229C4.5126 1.06751 4.38957 1.12643 4.25579 1.16201C4.19131 1.17905 4.13462 1.23501 4.07347 1.27021C4.04531 1.28615 4.01344 1.30283 3.98379 1.30468C3.86114 1.31209 3.77035 1.39658 3.67215 1.46217C3.60063 1.50997 3.52985 1.55815 3.46092 1.60929C3.37384 1.67413 3.29194 1.74713 3.20338 1.80606C3.11184 1.86683 3.04329 1.95354 2.96139 2.02321C2.9362 2.0447 2.90359 2.05582 2.87468 2.07138C2.86986 2.06397 2.86505 2.05693 2.86023 2.04952C2.91063 1.99282 2.95509 1.92834 3.01179 1.88054ZM2.63677 2.10103C2.65567 2.08361 2.69384 2.0888 2.72645 2.08287C2.72868 2.13661 2.69569 2.16551 2.66308 2.18737C2.63047 2.20924 2.59342 2.2185 2.59045 2.27001C2.58971 2.28557 2.5634 2.30299 2.54895 2.31966C2.56711 2.31003 2.58527 2.30003 2.60379 2.29039C2.60676 2.2941 2.61009 2.29817 2.61306 2.30188C2.58082 2.34635 2.54895 2.39081 2.51671 2.43528C2.51041 2.43269 2.50411 2.43009 2.49781 2.4275C2.503 2.40897 2.50819 2.39044 2.51338 2.37192C2.49744 2.3797 2.48188 2.39081 2.46557 2.39378C2.45483 2.39563 2.44074 2.38859 2.43333 2.38007C2.42889 2.37488 2.43148 2.35895 2.43593 2.35005C2.45075 2.32189 2.46446 2.29225 2.48484 2.26816C2.53302 2.21035 2.58193 2.1518 2.63677 2.10103ZM4.75828 0.934475C4.81387 0.915576 4.86945 0.897052 4.92504 0.878524C4.92689 0.884823 4.92875 0.891123 4.9306 0.897052C4.87501 0.915581 4.81943 0.934109 4.76384 0.952638C4.76199 0.946708 4.76014 0.940405 4.75828 0.934475ZM6.39694 0.764385C6.5259 0.753268 6.65486 0.742521 6.78382 0.731033C6.79567 0.729922 6.80753 0.723625 6.81902 0.724737C6.95947 0.738818 7.09991 0.753638 7.24073 0.767719C7.24073 0.776613 7.24073 0.78551 7.24073 0.794404C7.21256 0.796998 7.18477 0.801442 7.15661 0.801442C7.03136 0.802184 6.9061 0.802926 6.78085 0.802926C6.6556 0.802926 6.53072 0.802553 6.40583 0.800701C6.36285 0.799959 6.32023 0.777727 6.27725 0.765127C6.26576 0.761792 6.25501 0.753642 6.24353 0.753271C6.12568 0.747342 6.00784 0.742152 5.89 0.737335C5.88 0.736964 5.8648 0.736223 5.8611 0.741781C5.8133 0.817007 5.74659 0.77291 5.68693 0.770687C5.62616 0.768463 5.56538 0.764758 5.48942 0.761423C5.54426 0.722513 5.73955 0.696203 5.95745 0.688421C6.17534 0.68064 6.41621 0.691013 6.56259 0.722511C6.50663 0.728811 6.45067 0.735482 6.39472 0.741781C6.39583 0.749934 6.39657 0.756974 6.39694 0.764385ZM6.28762 1.16312C6.28762 1.15682 6.28762 1.15089 6.28725 1.14459C6.33098 1.11383 6.55592 1.12717 6.61002 1.16386L6.28762 1.16312ZM6.53479 1.24242L5.89964 1.24205C6.10864 1.17387 6.3206 1.18165 6.53294 1.21129C6.53368 1.22167 6.53405 1.23204 6.53479 1.24242ZM5.97783 1.03156C5.88889 1.0412 5.80477 1.05454 5.72028 1.05751C5.67174 1.05899 5.62356 1.05677 5.57242 1.03379C5.52499 1.01267 5.45866 1.03342 5.40122 1.04083C5.35157 1.04713 5.30265 1.06084 5.25299 1.06973C5.24299 1.07159 5.23187 1.06455 5.21853 1.06121C5.26893 1.00822 5.4468 0.973018 5.61801 0.965236C5.78921 0.957454 5.95374 0.977091 5.97783 1.03156ZM5.85776 1.44327C5.89149 1.38731 6.41732 1.32654 6.5007 1.3799C6.27576 1.39583 6.07343 1.46884 5.85776 1.44327ZM7.11177 11.2741C6.95242 11.3201 6.78826 11.3075 6.62336 11.3186C6.78641 11.2867 6.94761 11.2582 7.11177 11.2741ZM7.37784 11.4994C7.1844 11.5439 6.99245 11.588 6.79901 11.628C6.7638 11.6354 6.72453 11.6265 6.6871 11.6247C6.68784 11.6206 6.68821 11.6161 6.68895 11.6121C6.80976 11.5887 6.92982 11.5646 7.04914 11.5402C7.16847 11.5157 7.28853 11.4909 7.40934 11.4661C7.41119 11.4709 7.41267 11.4753 7.41453 11.4801C7.4023 11.4864 7.39081 11.4961 7.37784 11.4994ZM7.50902 0.983764C7.35116 0.979688 7.19367 0.975241 7.03654 0.970053C6.87942 0.964865 6.72267 0.959675 6.56592 0.954117C6.56629 0.947817 6.56629 0.941888 6.56666 0.935588C6.63485 0.889638 6.8268 0.883711 7.02394 0.89631C7.22072 0.90891 7.42305 0.938923 7.50939 0.967457C7.50902 0.973015 7.50902 0.978206 7.50902 0.983764ZM7.61056 1.01415C7.67763 0.976351 7.8077 1.01897 7.82845 1.08234C7.66577 1.07863 7.6591 1.0764 7.61056 1.01415ZM7.86069 1.60966C7.85402 1.59965 7.84846 1.58853 7.84401 1.57742C7.83475 1.55444 7.82697 1.53147 7.81844 1.50812C7.85143 1.50664 7.88663 1.497 7.91702 1.50478C7.99224 1.52368 8.01299 1.58964 8.03263 1.6582C7.96037 1.68933 7.90182 1.67154 7.86069 1.60966ZM8.07414 1.35581C8.06895 1.36619 8.0545 1.37805 8.04338 1.37805C8.01373 1.37842 7.98261 1.37805 7.95518 1.36916C7.90442 1.35285 7.85587 1.32988 7.80288 1.30838C7.87959 1.25613 8.00558 1.26577 8.06154 1.32506C8.06932 1.33321 8.07747 1.34914 8.07414 1.35581ZM8.58145 1.73973C8.61146 1.75751 8.64259 1.77382 8.67075 1.79457C8.67779 1.79976 8.67854 1.82088 8.67446 1.83163C8.67224 1.83756 8.65223 1.84274 8.64333 1.83941C8.60553 1.82496 8.56922 1.80754 8.56477 1.76085C8.57033 1.75418 8.57589 1.74714 8.58145 1.73973ZM8.44211 1.73528C8.46212 1.7401 8.4825 1.74343 8.50215 1.7501C8.51771 1.75529 8.53253 1.76455 8.54736 1.77197C8.54661 1.77827 8.5455 1.78457 8.54476 1.79087C8.52809 1.79309 8.50993 1.80087 8.49548 1.79642C8.47435 1.79012 8.45545 1.77567 8.43767 1.76196C8.43396 1.75937 8.44026 1.74454 8.44211 1.73528ZM4.68121 0.357872C4.56633 0.390482 4.48592 0.517586 4.35436 0.495352C4.29693 0.485717 4.25357 0.508321 4.20391 0.532038C4.16093 0.55279 4.10979 0.551308 4.06235 0.560201C4.06198 0.554643 4.06161 0.549087 4.06124 0.543899C4.2595 0.454221 4.45923 0.36973 4.68121 0.357872ZM3.36865 1.07344C3.42942 1.05454 3.49242 1.04639 3.55467 1.03305C3.56357 1.0312 3.57283 1.02638 3.58024 1.02008C3.60359 0.999698 3.62619 0.977833 3.64769 0.958192C3.59655 0.949669 3.52058 1.00489 3.47611 0.92855C3.54578 0.847024 3.64584 0.805517 3.74552 0.762902C3.78591 0.745485 3.82741 0.729551 3.86632 0.708058C3.97008 0.65062 4.0757 0.626537 4.18909 0.637654C4.23467 0.642101 4.2847 0.623571 4.34917 0.613195C4.32101 0.601337 4.30693 0.595407 4.29322 0.589478C4.29359 0.583178 4.29248 0.577991 4.29433 0.576138C4.30323 0.567985 4.31249 0.555757 4.32287 0.553534C4.43959 0.529447 4.55669 0.50573 4.67565 0.488684C4.7631 0.476826 4.8513 0.472746 4.93912 0.466446C4.9747 0.463852 5.01175 0.469414 5.04548 0.460891C5.07994 0.452368 5.10995 0.427907 5.14368 0.415679C5.16554 0.407526 5.19037 0.40753 5.21409 0.405677C5.29561 0.399007 5.37713 0.393077 5.45977 0.372696C5.38714 0.334527 5.30636 0.344533 5.22965 0.321928C5.2819 0.309329 5.33341 0.294135 5.38603 0.2845C5.45347 0.272642 5.52166 0.263378 5.58947 0.257449C5.61578 0.255226 5.64283 0.263745 5.66951 0.267822C5.71509 0.274863 5.75363 0.270046 5.79847 0.245218C5.84813 0.217795 5.91446 0.220759 5.97338 0.212236C5.99265 0.209272 6.01377 0.214832 6.03156 0.208902C6.11531 0.18148 6.19869 0.186669 6.3017 0.21928C6.26391 0.236696 6.23834 0.248182 6.19572 0.267822C6.3962 0.266339 6.57519 0.345644 6.76269 0.316739C6.66338 0.244108 6.54554 0.294133 6.43993 0.263746C6.43881 0.255593 6.4377 0.24744 6.43659 0.239658C6.46364 0.232988 6.49107 0.220389 6.51812 0.221501C6.60335 0.224836 6.68858 0.236694 6.77381 0.239658C6.88053 0.243734 6.98355 0.258931 7.08361 0.303029C7.13623 0.326374 7.19404 0.340827 7.25073 0.350092C7.27704 0.354538 7.31484 0.345274 7.33263 0.327116C7.37043 0.288948 7.406 0.301546 7.44825 0.311922C7.55497 0.338232 7.66244 0.371953 7.77138 0.380105C7.89145 0.388999 8.00484 0.432727 8.12602 0.436803C8.16715 0.438286 8.2068 0.476084 8.24682 0.497206C8.24756 0.500912 8.2483 0.504615 8.24905 0.508321C8.22311 0.508691 8.1968 0.507952 8.17086 0.510175C8.15381 0.511658 8.13713 0.517218 8.12009 0.520923C8.13269 0.534635 8.14269 0.556125 8.15789 0.560201C8.21051 0.575024 8.26572 0.580956 8.31834 0.595779C8.33798 0.601338 8.35392 0.620604 8.3717 0.633573C8.36837 0.638391 8.36504 0.642838 8.36207 0.647655C8.31723 0.639132 8.27276 0.630611 8.22792 0.622088C8.21421 0.619494 8.19976 0.615046 8.18605 0.616529C8.08526 0.626905 8.08526 0.627276 7.97186 0.585031C7.98298 0.574655 7.99224 0.56539 8.01225 0.546491C7.95963 0.531297 7.91516 0.51203 7.86884 0.506842C7.81289 0.500542 7.75508 0.509435 7.69875 0.5061C7.51717 0.495353 7.33522 0.491275 7.15698 0.462742C7.08583 0.451254 7.00097 0.437544 6.94242 0.376401C6.92945 0.362689 6.92463 0.340453 6.9124 0.314143L6.82977 0.313772C6.85385 0.405303 6.95094 0.397892 7.00801 0.467559C6.95354 0.476453 6.90722 0.48794 6.86015 0.490163C6.653 0.500169 6.44586 0.502395 6.23908 0.516106C6.05231 0.528705 5.86629 0.550567 5.68026 0.574283C5.59614 0.58503 5.51313 0.608006 5.42939 0.626164C5.4216 0.628017 5.41382 0.633573 5.40641 0.633202C5.25374 0.626903 5.10699 0.666554 4.9595 0.70287C4.88947 0.720286 4.82054 0.744375 4.75087 0.764756C4.68528 0.784026 4.61858 0.800704 4.55373 0.822567C4.52742 0.831461 4.50444 0.851472 4.47925 0.864442C4.40402 0.902981 4.32916 0.94226 4.2532 0.978576C4.24134 0.984134 4.22392 0.975238 4.19724 0.971532C4.25209 0.934846 4.29693 0.904831 4.34176 0.875185C4.34065 0.870739 4.33954 0.866292 4.33843 0.861845C4.18094 0.891491 4.02456 0.922619 3.86929 0.954859C3.87188 0.959305 3.87448 0.964123 3.87707 0.96857C3.86225 0.985616 3.84965 1.01155 3.83186 1.0186C3.7155 1.06492 3.60285 1.12013 3.49464 1.18239C3.38607 1.24501 3.28156 1.31468 3.17966 1.38954C3.14594 1.41436 3.10999 1.43438 3.07516 1.45661C3.04107 1.4781 3.02031 1.46995 3.00438 1.43623C2.99437 1.41511 2.97436 1.40028 2.95324 1.37657C2.97807 1.36804 3.00808 1.35804 3.04403 1.34618C3.03217 1.3321 3.02291 1.32098 3.00808 1.30319C3.04885 1.26984 3.0885 1.23612 3.12926 1.20462C3.15965 1.18091 3.19041 1.15645 3.22376 1.13829C3.27156 1.11383 3.31936 1.08863 3.36865 1.07344ZM1.99532 1.97985C2.02052 1.94761 2.03608 1.90759 2.0635 1.87758C2.12465 1.8105 2.18246 1.73491 2.25398 1.68488C2.34736 1.61929 2.37367 1.61003 2.45816 1.51145C2.47261 1.49441 2.49744 1.48774 2.51634 1.47403C2.57267 1.43363 2.62899 1.39287 2.68384 1.34914C2.71608 1.32358 2.76129 1.3069 2.75091 1.2465C2.74906 1.23538 2.78315 1.20944 2.80316 1.19424C2.87579 1.1394 2.94842 1.08456 3.02291 1.03231C3.0696 0.999326 3.11963 0.971906 3.16817 0.94189C3.17039 0.946336 3.17299 0.951154 3.17521 0.955601C3.08961 1.02156 2.99956 1.08085 2.92026 1.15423C2.84059 1.22797 2.77129 1.31505 2.69236 1.40103C2.70681 1.42659 2.70644 1.45179 2.65419 1.47143C2.62418 1.48292 2.60083 1.52294 2.57341 1.54851C2.51708 1.60187 2.46038 1.65524 2.4022 1.706C2.36626 1.73713 2.32661 1.76381 2.28955 1.79383C2.25991 1.81791 2.22544 1.832 2.2084 1.87721C2.1995 1.90092 2.14911 1.91093 2.11909 1.93019C2.06387 1.9654 2.0094 2.0032 1.95419 2.03914C1.95011 2.03247 1.94566 2.0258 1.94159 2.01913C1.95974 2.00616 1.98235 1.99653 1.99532 1.97985ZM1.61882 3.88013C1.63179 3.83493 1.64513 3.79009 1.65736 3.7445C1.65884 3.74265 1.66033 3.74043 1.66218 3.73857C1.677 3.72005 1.69034 3.70041 1.70294 3.68077C1.71962 3.66113 1.73259 3.63889 1.74222 3.61481C1.74667 3.60702 1.75074 3.59924 1.75519 3.59146C1.75593 3.59035 1.75667 3.58924 1.75741 3.58775C1.75927 3.58961 1.76112 3.59146 1.76297 3.59368C1.78484 3.55403 1.80522 3.51698 1.82486 3.48066C1.85302 3.43693 1.87785 3.39172 1.88785 3.34021C1.8949 3.34169 1.90194 3.34318 1.90972 3.3454C1.91454 3.32057 1.91676 3.29538 1.92454 3.2724C1.93232 3.24905 1.94344 3.22534 1.95826 3.2057C1.9653 3.19606 1.98383 3.19495 1.99717 3.19013C1.99754 3.19939 1.99754 3.20829 1.99791 3.21756C1.9968 3.22015 1.99569 3.22237 1.99458 3.22497C1.98791 3.23201 1.98346 3.24201 1.98272 3.25461C1.97012 3.28908 1.95863 3.32428 1.93862 3.35578C1.93455 3.35578 1.93047 3.35615 1.92602 3.35615C1.92788 3.35948 1.92936 3.36319 1.93084 3.36652C1.9012 3.40877 1.86154 3.44212 1.83968 3.48992C1.83486 3.5003 1.83375 3.50994 1.83523 3.51883C1.83153 3.52513 1.82782 3.53142 1.82449 3.53772C1.81745 3.5418 1.81115 3.54884 1.8067 3.55922C1.78891 3.60109 1.76779 3.64556 1.75704 3.69077C1.7563 3.6904 1.75593 3.69003 1.75519 3.68966C1.71369 3.77637 1.67292 3.8616 1.63216 3.94646C1.63105 3.9472 1.62957 3.94795 1.62846 3.94869C1.6266 3.9498 1.62438 3.95091 1.62216 3.95202C1.62179 3.95239 1.62104 3.95239 1.62067 3.95276C1.61919 3.95314 1.61808 3.95351 1.6166 3.95425C1.61104 3.95165 1.60548 3.94943 1.60029 3.94683C1.60622 3.9246 1.61252 3.90237 1.61882 3.88013ZM1.57287 2.42898C1.57287 2.52793 1.56175 2.54312 1.49135 2.55053C1.51654 2.51273 1.54211 2.47456 1.57287 2.42898ZM1.57028 4.02539C1.57139 4.02614 1.57213 4.02651 1.57324 4.02725C1.51395 4.20809 1.45503 4.38929 1.39574 4.57087C1.38092 4.50528 1.49172 4.13916 1.57028 4.02539ZM0.931785 8.03458C0.858042 7.95824 0.822097 7.87117 0.797639 7.77334C0.773182 7.6744 0.729454 7.58101 0.699068 7.48392C0.686468 7.44427 0.68721 7.3998 0.681651 7.35755C0.662752 7.21748 0.64163 7.07741 0.626437 6.93659C0.620507 6.88174 0.627919 6.82542 0.627919 6.76946C0.627919 6.74797 0.623102 6.72648 0.620878 6.70498C0.61532 6.65088 0.610132 6.59678 0.604944 6.54267C0.612726 6.54119 0.620137 6.53971 0.627548 6.53786C0.638295 6.56491 0.655341 6.59085 0.658676 6.61864C0.666458 6.69053 0.662011 6.76465 0.673869 6.8358C0.687951 6.91954 0.705368 7.00514 0.737978 7.08222C0.765771 7.14892 0.754654 7.21822 0.773924 7.28381C0.801346 7.37867 0.821356 7.47539 0.847296 7.571C0.828767 7.64474 0.836179 7.72331 0.848037 7.79965C0.843961 7.77297 0.840255 7.74628 0.836179 7.71997C0.840996 7.75369 0.845443 7.78741 0.850261 7.82113C0.861378 7.86523 0.884353 7.91304 0.907329 7.95157C0.919187 7.97121 0.932527 7.98937 0.946609 8.00605C0.943644 8.01531 0.939197 8.02495 0.931785 8.03458ZM1.32459 8.9825C1.31903 9.02623 1.31162 9.06995 1.30458 9.11701C1.26493 9.12331 1.17451 9.06588 1.15635 9.01919C1.13634 8.96805 1.11077 8.91913 1.08557 8.86985C1.05889 8.8176 1.05185 8.76609 1.07483 8.70309C1.09076 8.65973 1.08965 8.61008 1.09817 8.54819C1.12559 8.60563 1.15153 8.64973 1.1671 8.69791C1.17488 8.72162 1.16302 8.75386 1.16265 8.78203C1.16265 8.79796 1.16784 8.81353 1.1708 8.82909C1.18081 8.81945 1.19081 8.81019 1.20045 8.80018C1.21305 8.78721 1.2275 8.76164 1.2375 8.76276C1.25196 8.76461 1.26826 8.78314 1.27493 8.79907C1.29383 8.84502 1.30903 8.89246 1.32385 8.93989C1.32755 8.95286 1.32644 8.96842 1.32459 8.9825ZM1.32199 5.61699C1.31495 5.62033 1.30791 5.62329 1.30124 5.62662C1.29124 5.61069 1.2716 5.59402 1.27197 5.57882C1.27679 5.47395 1.28457 5.36945 1.29272 5.26532C1.2942 5.24605 1.30384 5.22789 1.31458 5.19417L1.32199 5.61699ZM1.24714 3.19939C1.25603 3.20199 1.26493 3.20496 1.27382 3.20755C1.25937 3.25758 1.25603 3.31465 1.22861 3.35615C1.18674 3.41989 1.18488 3.49215 1.16043 3.55848C1.13856 3.61777 1.10521 3.67261 1.0752 3.72857C1.07001 3.73857 1.0563 3.74413 1.04629 3.75154C1.04333 3.74858 1.04036 3.74562 1.0374 3.74265C1.10558 3.56144 1.17451 3.37986 1.24714 3.19939ZM0.638666 4.36928C0.677946 4.23254 0.707962 4.09395 0.740202 3.96277C0.71982 3.94128 0.703145 3.92386 0.686099 3.90607C0.716115 3.8931 0.746501 3.88051 0.789858 3.86161C0.821356 3.76341 0.858042 3.65001 0.894728 3.53662C0.895469 3.53476 0.895841 3.53291 0.896582 3.53106C0.935492 3.44471 0.971437 3.35689 1.01591 3.27314C1.05111 3.20755 1.10225 3.19236 1.13523 3.22978C1.14598 3.24238 1.15264 3.26906 1.14635 3.28389C1.10669 3.37838 1.06593 3.4725 1.02332 3.56552C0.970325 3.68113 0.925857 3.80269 0.85619 3.90756C0.792823 4.00279 0.775406 4.10655 0.749837 4.21105C0.732049 4.28331 0.714262 4.35594 0.695363 4.43302C0.703516 4.43487 0.716855 4.43784 0.733901 4.44191C0.719449 4.51751 0.684986 4.5768 0.633106 4.63127C0.608649 4.65684 0.601238 4.69872 0.587527 4.73429C0.581228 4.7506 0.578633 4.76802 0.56381 4.78247C0.56381 4.63906 0.600127 4.5038 0.638666 4.36928ZM0.609391 8.15132C0.623102 8.16725 0.637925 8.18244 0.650153 8.19985C0.666088 8.22283 0.68091 8.24692 0.694621 8.27175C0.720561 8.31955 0.743907 8.36884 0.770218 8.41553C0.783188 8.43887 0.798011 8.46296 0.81691 8.48001C0.861007 8.51929 0.86249 8.53856 0.815798 8.59192C0.740943 8.45147 0.664976 8.31066 0.587527 8.16984C0.594568 8.16392 0.601979 8.15762 0.609391 8.15132Z" fill="#DB4D29"/>
</svg>
