<svg width="24" height="24" viewBox="0 0 24 24" fill="none" xmlns="http://www.w3.org/2000/svg">
<g id="store 1">
<path id="store" d="M19.9999 13.08V18C20.058 18.4075 20.0205 18.8229 19.8903 19.2134C19.7601 19.6039 19.5408 19.9588 19.2497 20.2498C18.9587 20.5409 18.6038 20.7602 18.2133 20.8904C17.8228 21.0206 17.4074 21.0581 16.9999 21H14.3299C14.2503 21 14.174 20.9684 14.1178 20.9121C14.0615 20.8559 14.0299 20.7796 14.0299 20.7V17.622C14.0417 17.1344 13.8823 16.658 13.5794 16.2757C13.2765 15.8933 12.8493 15.6291 12.3719 15.529C12.0847 15.48 11.7902 15.4942 11.5091 15.5706C11.2279 15.6471 10.9668 15.7838 10.7439 15.9714C10.5209 16.159 10.3416 16.393 10.2183 16.657C10.095 16.921 10.0307 17.2086 10.0299 17.5V20.7C10.0299 20.7796 9.99829 20.8559 9.94203 20.9121C9.88577 20.9684 9.80946 21 9.72989 21H6.99989C6.59239 21.0581 6.17695 21.0206 5.78645 20.8904C5.39595 20.7602 5.04113 20.5409 4.75006 20.2498C4.45899 19.9588 4.23968 19.6039 4.10947 19.2134C3.97927 18.8229 3.94175 18.4075 3.99989 18V13.08C4.59426 13.3591 5.24326 13.5026 5.89989 13.5C7.01259 13.4977 8.09281 13.1247 8.96989 12.44C9.83261 13.1263 10.9025 13.5 12.0049 13.5C13.1073 13.5 14.1772 13.1263 15.0399 12.44C15.917 13.1247 16.9972 13.4977 18.1099 13.5C18.7632 13.5015 19.4087 13.3581 19.9999 13.08ZM7.49989 3C4.99989 3 4.61689 3.82 4.20489 5.038L3.16489 8.111C2.93562 8.74087 2.92971 9.4304 3.14817 10.0641C3.36663 10.6978 3.79618 11.2372 4.36489 11.592C4.8317 11.8608 5.36122 12.0016 5.89989 12C6.54997 12.0068 7.18741 11.8203 7.73132 11.4642C8.27524 11.1082 8.70111 10.5985 8.95489 10C9.21202 10.5941 9.63731 11.0999 10.1784 11.4553C10.7194 11.8107 11.3526 12 11.9999 12C12.6472 12 13.2804 11.8107 13.8214 11.4553C14.3625 11.0999 14.7878 10.5941 15.0449 10C15.2987 10.5985 15.7246 11.1082 16.2685 11.4642C16.8124 11.8203 17.4498 12.0068 18.0999 12C18.6389 12.0017 19.1688 11.861 19.6359 11.592C20.2046 11.2372 20.6342 10.6978 20.8526 10.0641C21.0711 9.4304 21.0652 8.74087 20.8359 8.111L19.7999 5.038C19.3829 3.82 18.9999 3 16.4999 3H7.49989Z" fill="#273B4A"/>
</g>
</svg>