<svg xmlns="http://www.w3.org/2000/svg" width="44" height="44" viewBox="0 0 44 44" fill="none">
  <path d="M14.4375 39.875H22.6875L24.0625 30.9375H13.0625L14.4375 39.875Z" fill="#C78640"/>
  <path d="M36.2931 24.7809C36.1979 24.3393 36.0556 23.9091 35.8686 23.4979L31.625 14.1625L29.5625 9.625H14.4375L8.13142 23.4979C7.75664 24.323 7.56266 25.2188 7.5625 26.125C7.56242 26.757 7.68685 27.3828 7.92867 27.9668C8.17049 28.5507 8.52497 29.0812 8.97187 29.5281C9.41877 29.975 9.94933 30.3295 10.5332 30.5713C11.1172 30.8132 11.743 30.9376 12.375 30.9375H31.625C32.257 30.9375 32.8828 30.8131 33.4667 30.5712C34.0506 30.3294 34.5811 29.9749 35.028 29.528C35.4749 29.0811 35.8294 28.5506 36.0712 27.9667C36.3131 27.3828 36.4375 26.757 36.4375 26.125C36.4377 25.6731 36.3893 25.2225 36.2931 24.7809ZM17.875 15.125C17.5103 15.125 17.1606 14.9801 16.9027 14.7223C16.6449 14.4644 16.5 14.1147 16.5 13.75C16.5 13.3853 16.6449 13.0356 16.9027 12.7777C17.1606 12.5199 17.5103 12.375 17.875 12.375H26.125C26.4897 12.375 26.8394 12.5199 27.0973 12.7777C27.3551 13.0356 27.5 13.3853 27.5 13.75C27.5 14.1147 27.3551 14.4644 27.0973 14.7223C26.8394 14.9801 26.4897 15.125 26.125 15.125H17.875Z" fill="#FFA100"/>
  <path d="M19.25 26.125H31.625V30.9375H19.25V26.125Z" fill="#FFD873"/>
  <path d="M30.25 26.125L28.875 22.6875H22L20.625 26.125H30.25Z" fill="#FFCC4D"/>
  <path d="M42.625 2.0625V12.375H18.5625C18.1361 12.3749 17.7202 12.2426 17.3721 11.9964C17.0239 11.7501 16.7607 11.402 16.6186 11C16.5396 10.7794 16.4995 10.5468 16.5 10.3125V8.25C16.5001 6.60901 17.1521 5.03527 18.3124 3.87492C19.4728 2.71457 21.0465 2.06263 22.6875 2.0625H42.625Z" fill="#FFCEB6"/>
  <path d="M26.8125 26.125V24.75L31.625 14.1625L29.5625 9.625H14.4375L8.13142 23.4979C7.75664 24.323 7.56266 25.2188 7.5625 26.125C7.56242 26.757 7.68685 27.3828 7.92867 27.9668C8.17049 28.5507 8.52497 29.0812 8.97187 29.5281C9.41877 29.975 9.94933 30.3295 10.5332 30.5713C11.1172 30.8132 11.743 30.9376 12.375 30.9375H31.625C30.993 30.9375 30.3672 30.8131 29.7833 30.5712C29.1994 30.3294 28.6689 29.9749 28.222 29.528C27.7751 29.0811 27.4206 28.5506 27.1788 27.9667C26.9369 27.3828 26.8125 26.757 26.8125 26.125ZM17.875 15.125C17.5103 15.125 17.1606 14.9801 16.9027 14.7223C16.6449 14.4644 16.5 14.1147 16.5 13.75C16.5 13.3853 16.6449 13.0356 16.9027 12.7777C17.1606 12.5199 17.5103 12.375 17.875 12.375H26.125C26.4897 12.375 26.8394 12.5199 27.0973 12.7777C27.3551 13.0356 27.5 13.3853 27.5 13.75C27.5 14.1147 27.3551 14.4644 27.0973 14.7223C26.8394 14.9801 26.4897 15.125 26.125 15.125H17.875Z" fill="#FFB401"/>
  <path d="M31.625 2.0625V5.5H29.5625C29.0155 5.50014 28.491 5.71748 28.1043 6.10425C27.7175 6.49101 27.5001 7.01553 27.5 7.5625V10.3125C27.4999 10.8595 27.2825 11.384 26.8958 11.7708C26.509 12.1575 25.9845 12.3749 25.4375 12.375H18.5625C18.1361 12.3749 17.7202 12.2426 17.3721 11.9964C17.0239 11.7501 16.7607 11.402 16.6186 11C16.5396 10.7794 16.4995 10.5468 16.5 10.3125V8.25C16.5001 6.60901 17.1521 5.03527 18.3124 3.87492C19.4728 2.71457 21.0465 2.06263 22.6875 2.0625H31.625Z" fill="#FFCEB6"/>
  <path d="M1.375 29.5625H14.8428C15.2823 29.5625 15.7038 29.7371 16.0146 30.0479C16.3254 30.3587 16.5 30.7802 16.5 31.2197C16.5 31.5441 16.4048 31.8613 16.2263 32.132C16.0478 32.4028 15.7937 32.6152 15.4956 32.743L12.5555 34.003C12.2979 34.1134 12.0783 34.297 11.924 34.531C11.7697 34.7649 11.6875 35.0391 11.6875 35.3193C11.6875 35.64 11.7934 35.9517 11.9888 36.206C12.1842 36.4603 12.4581 36.643 12.7679 36.7256L20.8455 38.8796C21.1766 38.9679 21.4693 39.1631 21.6781 39.4348C21.8868 39.7066 22 40.0396 22 40.3823C22 40.5865 21.9598 40.7888 21.8816 40.9775C21.8035 41.1661 21.6889 41.3376 21.5445 41.482C21.4001 41.6264 21.2286 41.741 21.04 41.8191C20.8513 41.8973 20.649 41.9375 20.4448 41.9375H1.375V29.5625Z" fill="#FFCEB6"/>
  <path d="M33.6875 2.0625H42.625V12.375H33.6875V2.0625Z" fill="#548AFF"/>
  <path d="M22 39.875H28.875L30.25 30.9375H20.625L22 39.875Z" fill="#D69651"/>
  <path d="M1.375 29.5625H6.1875V41.9375H1.375V29.5625Z" fill="#548AFF"/>
  <path d="M29.5626 4.8125C28.8332 4.8125 28.1338 5.10223 27.618 5.61796C27.1023 6.13368 26.8126 6.83315 26.8126 7.5625V9.625C26.8122 9.98954 26.6672 10.339 26.4094 10.5968C26.1516 10.8546 25.8021 10.9996 25.4376 11V8.41231C25.4384 7.71314 25.5644 7.01977 25.8097 6.36501C25.8677 6.20674 25.8653 6.0326 25.8028 5.87603C25.7403 5.71947 25.6221 5.59151 25.471 5.51673C25.385 5.47356 25.2909 5.44895 25.1947 5.44449C25.0985 5.44003 25.0025 5.45583 24.9129 5.49086C24.8232 5.52589 24.7419 5.57936 24.6742 5.64782C24.6066 5.71628 24.554 5.7982 24.5201 5.88826C24.2185 6.69567 24.0636 7.55044 24.0626 8.41231V11H22.6876V8.41231C22.6884 7.71314 22.8144 7.01977 23.0597 6.36501C23.1177 6.20674 23.1153 6.0326 23.0528 5.87603C22.9903 5.71947 22.8721 5.59151 22.721 5.51673C22.635 5.47356 22.5409 5.44895 22.4447 5.44449C22.3485 5.44003 22.2525 5.45583 22.1629 5.49086C22.0732 5.52589 21.9919 5.57936 21.9242 5.64782C21.8566 5.71628 21.804 5.7982 21.7701 5.88826C21.4685 6.69567 21.3136 7.55044 21.3126 8.41231V11H19.9376V8.41231C19.9384 7.71314 20.0644 7.01977 20.3097 6.36501C20.3677 6.20674 20.3653 6.0326 20.3028 5.87603C20.2403 5.71947 20.1221 5.59151 19.971 5.51673C19.885 5.47356 19.7909 5.44895 19.6947 5.44449C19.5985 5.44003 19.5025 5.45583 19.4129 5.49086C19.3232 5.52589 19.2419 5.57936 19.1742 5.64782C19.1066 5.71628 19.054 5.7982 19.0201 5.88826C18.7185 6.69567 18.5636 7.55044 18.5626 8.41231V11H16.6187C16.7608 11.402 17.024 11.7501 17.3721 11.9964C17.7203 12.2426 18.1362 12.3749 18.5626 12.375H25.4376C26.1669 12.375 26.8664 12.0853 27.3821 11.5695C27.8978 11.0538 28.1876 10.3543 28.1876 9.625V7.5625C28.1876 7.19783 28.3324 6.84809 28.5903 6.59023C28.8482 6.33237 29.1979 6.1875 29.5626 6.1875H29.5627C29.653 6.1875 29.7424 6.16972 29.8258 6.13518C29.9092 6.10064 29.9849 6.05001 30.0488 5.98619C30.1126 5.92236 30.1632 5.84659 30.1977 5.7632C30.2323 5.67981 30.2501 5.59043 30.2501 5.50017V5.49983C30.2501 5.31754 30.1777 5.14271 30.0488 5.01381C29.9199 4.88491 29.745 4.8125 29.5627 4.8125H29.5626Z" fill="#FFBFA1"/>
</svg>