<svg width="46" height="60" viewBox="0 0 46 60" fill="none" xmlns="http://www.w3.org/2000/svg">
<path d="M23 0.46875C10.335 0.46875 0.03125 10.7725 0.03125 23.4375C0.03125 29.5898 3.75863 37.4906 11.1098 46.9193C14.4777 51.2279 18.125 55.3107 22.028 59.1413C22.2897 59.3915 22.6379 59.5312 23 59.5312C23.3621 59.5312 23.7103 59.3915 23.972 59.1413C27.875 55.3107 31.5223 51.2279 34.8902 46.9193C42.2414 37.4906 45.9688 29.5898 45.9688 23.4375C45.9688 10.7725 35.665 0.46875 23 0.46875ZM23 39.8438C13.9531 39.8438 6.59375 32.4844 6.59375 23.4375C6.59375 14.3906 13.9531 7.03125 23 7.03125C32.0469 7.03125 39.4062 14.3906 39.4062 23.4375C39.4062 32.4844 32.0469 39.8438 23 39.8438Z" fill="#DB4D29"/>
<path d="M34.2585 21.4595L23.946 12.0845C23.6872 11.8492 23.3499 11.7188 23.0001 11.7188C22.6503 11.7188 22.313 11.8492 22.0541 12.0845L11.7416 21.4595C11.5014 21.678 11.3441 21.9728 11.2965 22.2941C11.2488 22.6153 11.3138 22.9431 11.4803 23.2219C11.6117 23.4341 11.7958 23.6087 12.0147 23.7287C12.2337 23.8486 12.4799 23.9098 12.7295 23.9063H14.0938V32.8125C14.0938 33.1855 14.242 33.5431 14.5057 33.8069C14.7694 34.0706 15.1271 34.2188 15.5001 34.2188H18.7813C19.1543 34.2188 19.512 34.0706 19.7757 33.8069C20.0394 33.5431 20.1876 33.1855 20.1876 32.8125V27.6563C20.1876 27.2833 20.3357 26.9256 20.5995 26.6619C20.8632 26.3982 21.2209 26.25 21.5938 26.25H24.4063C24.7793 26.25 25.137 26.3982 25.4007 26.6619C25.6644 26.9256 25.8126 27.2833 25.8126 27.6563V32.8125C25.8126 33.1855 25.9607 33.5431 26.2245 33.8069C26.4882 34.0706 26.8459 34.2188 27.2188 34.2188H30.5001C30.873 34.2188 31.2307 34.0706 31.4944 33.8069C31.7582 33.5431 31.9063 33.1855 31.9063 32.8125V23.9063H33.2706C33.5202 23.9098 33.7665 23.8486 33.9854 23.7287C34.2043 23.6087 34.3885 23.4341 34.5198 23.2219C34.6864 22.9431 34.7513 22.6153 34.7037 22.2941C34.656 21.9728 34.4988 21.678 34.2585 21.4595Z" fill="#DB4D29"/>
</svg>
