<svg width="24" height="24" viewBox="0 0 24 24" fill="none" xmlns="http://www.w3.org/2000/svg">
<g clipPath="url(#clip0_4913_109344)">
<path d="M11.9999 0C11.8005 0 11.6024 0.00510937 11.4054 0.0151875L1.06467 7.96837C0.708609 9.07655 0.515625 10.2578 0.515625 11.4843C0.515625 17.8269 5.65734 22.9687 12 22.9687C18.3426 22.9687 23.4843 17.8269 23.4843 11.4843C23.4843 5.14172 18.3425 0 11.9999 0Z" fill="#FFDD40"/>
<path d="M22.422 16.2045L15.5742 4.34375C15.8923 5.17756 16.0671 6.08155 16.0671 7.02575V21.5595C16.0671 22.0712 15.9085 22.5464 15.6383 22.9391L21.5287 19.5382C22.6942 18.8654 23.0949 17.3699 22.422 16.2045Z" fill="#5C5C87"/>
<path d="M20.9485 19.7593C20.6374 19.6606 20.5982 19.3932 20.609 19.2178C20.6143 19.1309 20.5605 19.0494 20.4781 19.0216C20.2329 18.939 20.1766 18.7438 20.1702 18.6029C20.166 18.509 20.0996 18.43 20.0073 18.4123C17.0887 17.8536 16.3355 15.2886 16.1884 14.6274C16.1736 14.5608 16.1262 14.5088 16.0655 14.4854V21.5598C16.0655 22.0715 15.9069 22.5467 15.6367 22.9394L21.0409 19.8193C21.0166 19.7922 20.9852 19.7709 20.9485 19.7593Z" fill="#41416B"/>
<path d="M21.3421 16.8273L16.0664 7.68945V21.2523L20.905 18.4587C21.4753 18.1295 21.6714 17.3976 21.3421 16.8273Z" fill="#41416B"/>
<path d="M20.1711 18.6029C20.1669 18.509 20.1005 18.43 20.0082 18.4123C17.0896 17.8536 16.3364 15.2886 16.1893 14.6274C16.1745 14.5608 16.1271 14.5088 16.0664 14.4854V21.2529L20.241 18.8427C20.1914 18.7636 20.1744 18.676 20.1711 18.6029Z" fill="#35355E"/>
<path d="M15.6638 21.9035C15.5339 21.9035 15.4074 21.8365 15.337 21.7162C15.2315 21.5359 15.2922 21.3042 15.4724 21.1987L20.7123 18.1326C21.1039 17.9064 21.2378 17.4064 21.0129 17.0168L15.3363 7.22827C15.2315 7.04757 15.293 6.8161 15.4737 6.71129C15.6544 6.60643 15.8859 6.66802 15.9907 6.84873L21.6677 16.6379C22.1016 17.3894 21.8434 18.353 21.0925 18.7866L15.8545 21.8517C15.7945 21.8868 15.7287 21.9035 15.6638 21.9035Z" fill="#35355E"/>
<path d="M20.4772 19.0212C20.232 18.9385 20.1757 18.7433 20.1694 18.6025C20.1673 18.5555 20.1496 18.5122 20.1209 18.4785L15.4724 21.1986C15.2921 21.3041 15.2315 21.5358 15.337 21.7161C15.4074 21.8364 15.5339 21.9034 15.6638 21.9034C15.7287 21.9034 15.7945 21.8867 15.8545 21.8516L20.5712 19.0915C20.5482 19.0596 20.5161 19.0343 20.4772 19.0212Z" fill="#28284C"/>
<path d="M11.4072 0.015625C11.2343 0.0244375 11.0625 0.0375156 10.8916 0.0539219L10.8918 0.0540625L10.0376 0.168438V0.168016C5.7998 0.898422 2.35711 3.9513 1.06641 7.96881V21.5599C1.06641 22.9057 2.16117 24.0004 3.50686 24.0004H13.7198C15.0655 24.0004 16.1603 22.9057 16.1603 21.56V7.0262C16.1603 3.85136 14.1895 1.12834 11.4072 0.015625ZM8.61333 5.92562C7.81688 5.92562 7.17122 5.27997 7.17122 4.48356C7.17122 3.68711 7.81688 3.04145 8.61333 3.04145C9.40978 3.04145 10.0554 3.68711 10.0554 4.48356C10.0554 5.27997 9.40978 5.92562 8.61333 5.92562Z" fill="#FF7186"/>
<path d="M13.8755 23.9949C13.8593 23.9606 13.835 23.93 13.8017 23.9073C13.5499 23.7355 13.5705 23.4913 13.6275 23.3232C13.661 23.2246 13.6245 23.1132 13.5352 23.0596C13.3144 22.9273 13.2898 22.693 13.3024 22.5361C13.3103 22.4386 13.251 22.3495 13.1604 22.3127C11.8771 21.7908 11.7548 20.6629 11.771 20.1459C11.7753 20.0082 11.6561 19.9006 11.519 19.914C9.16777 20.1446 9.27267 17.9235 9.36375 17.2197C9.3772 17.1156 9.31725 17.0179 9.21998 16.9783C9.02784 16.9002 8.98205 16.6978 8.97122 16.5997C8.967 16.5616 8.95378 16.5251 8.93142 16.494L8.33864 15.6677C8.3032 15.6183 8.24916 15.5859 8.1892 15.5759C8.05355 15.5531 7.989 15.4775 7.95891 15.4019C7.91845 15.3003 7.80773 15.2452 7.70025 15.2654L6.67022 15.4591C6.62845 15.4669 6.58495 15.4634 6.54553 15.4475C5.04206 14.8414 5.68739 13.3121 5.90578 12.8821C5.94272 12.8093 5.93705 12.7222 5.89186 12.6542L5.71106 12.3823C5.673 12.325 5.61103 12.2889 5.54264 12.2818C3.50386 12.0677 2.89908 10.5358 2.74106 9.94899C2.71064 9.83593 2.59903 9.76688 2.48334 9.78498C2.20561 9.82838 2.0625 9.65926 1.99308 9.52051C1.9493 9.43299 1.85508 9.38087 1.75837 9.39601C1.30284 9.46749 1.13986 9.20077 1.08802 9.06938C1.0823 9.05485 1.07475 9.0413 1.06641 9.02832V21.56C1.06655 22.9056 2.16131 24.0003 3.507 24.0003H13.72C13.7722 24.0003 13.824 23.9981 13.8755 23.9949Z" fill="#FF4155"/>
<path d="M7.8575 4.01865C7.97867 4.33416 8.27534 4.53802 8.61327 4.53802H8.61336C8.82228 4.53798 8.99159 4.36862 8.99155 4.15974C8.9915 3.95087 8.82219 3.78155 8.61331 3.78155H8.61327C8.5768 3.78155 8.56789 3.75854 8.56367 3.74748L7.47983 0.924805C7.24686 1.0247 7.01773 1.1318 6.79297 1.24637L7.8575 4.01865Z" fill="#C8CEFC"/>
<path d="M14.914 7.02536C14.914 3.55113 12.0875 0.724609 8.6133 0.724609C8.35834 0.724609 8.10705 0.740266 7.85992 0.769844C5.82428 1.55725 4.06909 2.90762 2.78575 4.63056C2.48106 5.36927 2.3125 6.17795 2.3125 7.02541V21.5591C2.3125 22.2177 2.84828 22.7534 3.50678 22.7534H13.7198C14.3783 22.7534 14.914 22.2177 14.914 21.5591V7.02536ZM8.61325 5.92478C7.8168 5.92478 7.17114 5.27912 7.17114 4.48272C7.17114 3.68627 7.8168 3.04061 8.61325 3.04061C9.4097 3.04061 10.0554 3.68627 10.0554 4.48272C10.0554 5.27912 9.4097 5.92478 8.61325 5.92478Z" fill="#FF4155"/>
<path d="M13.3023 22.5353C13.3101 22.4378 13.2509 22.3487 13.1603 22.3118C11.877 21.79 11.7546 20.662 11.7708 20.145C11.7752 20.0073 11.656 19.8997 11.5188 19.9131C9.16764 20.1438 9.27255 17.9226 9.36362 17.2189C9.37708 17.1147 9.31712 17.017 9.21986 16.9775C9.02772 16.8993 8.98192 16.697 8.97109 16.5989C8.96687 16.5607 8.95366 16.5242 8.9313 16.4931L8.33851 15.6668C8.30308 15.6175 8.24903 15.585 8.18908 15.575C8.05342 15.5522 7.98887 15.4766 7.95878 15.4011C7.91833 15.2995 7.80761 15.2444 7.70012 15.2646L6.67009 15.4582C6.62833 15.4661 6.58483 15.4626 6.54541 15.4467C5.04194 14.8405 5.68727 13.3113 5.90566 12.8812C5.94259 12.8084 5.93692 12.7213 5.89173 12.6533L5.71094 12.3814C5.67287 12.3242 5.61091 12.2881 5.54252 12.2809C3.50373 12.0668 2.89895 10.5349 2.74094 9.94813C2.71052 9.83507 2.59891 9.76602 2.48322 9.78412C2.41933 9.7941 2.36289 9.79246 2.3125 9.7829V21.5592C2.3125 22.2177 2.84828 22.7534 3.50678 22.7534H13.3164C13.2985 22.6759 13.2972 22.5992 13.3023 22.5353Z" fill="#E80054"/>
<path d="M6.95383 20.0358C6.697 19.928 6.57615 19.6325 6.68397 19.3756L9.52741 12.6003C9.63517 12.3435 9.93081 12.2226 10.1876 12.3305C10.4444 12.4382 10.5653 12.7338 10.4575 12.9906L7.61401 19.766C7.50676 20.0215 7.21192 20.1441 6.95383 20.0358Z" fill="#E3E7FC"/>
<path d="M6.60447 15.9042C5.63359 15.9042 4.84375 15.023 4.84375 13.9399C4.84375 12.8568 5.63359 11.9756 6.60447 11.9756C7.57534 11.9756 8.36519 12.8568 8.36519 13.9399C8.36519 15.023 7.5753 15.9042 6.60447 15.9042ZM6.60447 12.9842C6.18977 12.9842 5.85241 13.413 5.85241 13.9399C5.85241 14.4669 6.18981 14.8955 6.60447 14.8955C7.01917 14.8955 7.35653 14.4668 7.35653 13.9399C7.35653 13.413 7.01912 12.9842 6.60447 12.9842Z" fill="#E3E7FC"/>
<path d="M10.4443 20.537C9.47344 20.537 8.68359 19.6558 8.68359 18.5727C8.68359 17.4896 9.47344 16.6084 10.4443 16.6084C11.4152 16.6084 12.205 17.4896 12.205 18.5727C12.2051 19.6558 11.4152 20.537 10.4443 20.537ZM10.4443 17.617C10.0296 17.617 9.69225 18.0457 9.69225 18.5726C9.69225 19.0996 10.0297 19.5283 10.4443 19.5283C10.859 19.5283 11.1964 19.0996 11.1964 18.5726C11.1964 18.0458 10.859 17.617 10.4443 17.617Z" fill="#E3E7FC"/>
<path d="M9.25573 7.91663H7.88605C7.67717 7.91663 7.50781 7.74727 7.50781 7.53839C7.50781 7.32952 7.67717 7.16016 7.88605 7.16016H9.25573C9.46461 7.16016 9.63397 7.32952 9.63397 7.53839C9.63397 7.74731 9.46461 7.91663 9.25573 7.91663Z" fill="#FF7186"/>
<path d="M10.3536 9.28284H6.78448C6.57561 9.28284 6.40625 9.11348 6.40625 8.9046C6.40625 8.69573 6.57561 8.52637 6.78448 8.52637H10.3536C10.5625 8.52637 10.7318 8.69573 10.7318 8.9046C10.7318 9.11348 10.5625 9.28284 10.3536 9.28284Z" fill="#FF7186"/>
<path d="M10.3536 10.649H6.78448C6.57561 10.649 6.40625 10.4797 6.40625 10.2708C6.40625 10.0619 6.57561 9.89258 6.78448 9.89258H10.3536C10.5625 9.89258 10.7318 10.0619 10.7318 10.2708C10.7318 10.4797 10.5625 10.649 10.3536 10.649Z" fill="#FF7186"/>
<path d="M15.2917 21.5592V7.02537C15.2917 3.51181 12.5644 0.623281 9.11569 0.365234C7.92961 0.672125 6.81787 1.16366 5.81311 1.80753C6.64725 1.35819 7.60064 1.10286 8.61267 1.10286C11.8784 1.10286 14.5352 3.75969 14.5352 7.02537V21.5592C14.5352 22.0091 14.1691 22.3752 13.7191 22.3752H3.50611C3.05611 22.3752 2.69006 22.0091 2.69006 21.5592V7.02537C2.69006 5.43978 3.3165 3.99777 4.33477 2.93366C3.43791 3.73831 2.66831 4.68177 2.06002 5.73059C1.97733 6.14966 1.93359 6.5825 1.93359 7.02542V21.5592C1.93359 22.4263 2.63902 23.1317 3.50611 23.1317H13.7191C14.5862 23.1317 15.2917 22.4262 15.2917 21.5592Z" fill="#E80054"/>
<path d="M13.5345 23.0592C13.3136 22.9269 13.2891 22.6926 13.3017 22.5357C13.3065 22.4757 13.2857 22.4189 13.2481 22.3755H3.50616C3.05616 22.3755 2.69011 22.0094 2.69011 21.5595V9.8578C2.63948 9.80155 2.56233 9.77193 2.48259 9.7844C2.20486 9.8278 2.06175 9.65868 1.99233 9.51993C1.97784 9.49096 1.95741 9.46635 1.93359 9.44629V21.5595C1.93359 22.4266 2.63902 23.132 3.50611 23.132H13.6063C13.5889 23.103 13.565 23.0775 13.5345 23.0592Z" fill="#CC0053"/>
<path d="M10.0368 0.168086L8.66225 3.74779C8.65798 3.75885 8.64917 3.78187 8.61261 3.78187C8.40369 3.78187 8.23438 3.95123 8.23438 4.1601C8.23438 4.36898 8.40373 4.53834 8.61261 4.53834C8.95058 4.53834 9.2473 4.33448 9.36842 4.01896L10.891 0.0537109C10.603 0.0813203 10.3181 0.119617 10.0368 0.168086Z" fill="#E3E7FC"/>
</g>
<defs>
<clipPath id="clip0_4913_109344">
<rect width="24" height="24" fill="white"/>
</clipPath>
</defs>
</svg>
