<svg width="20" height="20" viewBox="0 0 20 20" fill="none" xmlns="http://www.w3.org/2000/svg">
<g clipPath="url(#clip0_5269_56888)">
<path d="M9.9998 19.9996C15.5224 19.9996 19.9996 15.522 19.9996 9.9998C19.9996 4.47765 15.5227 0 9.9998 0C4.47687 0 0 4.47804 0 9.9998C0 15.5216 4.47726 19.9996 9.9998 19.9996Z" fill="#F0F0F0"/>
<path fill-rule="evenodd" clip-rule="evenodd" d="M18.5221 4.77839H9.55041V2.16711H16.2167C17.1321 2.8959 17.9124 3.77974 18.5221 4.77839ZM19.9998 9.99977H9.55587V7.38928H19.6557C19.8848 8.2405 20.0005 9.11825 19.9998 9.99977ZM10 19.9996C12.2608 20.0048 14.4557 19.2387 16.2222 17.8277H3.77825C5.54445 19.2389 7.73932 20.005 10 19.9996ZM18.533 15.2223H1.46697C0.969208 14.4106 0.591229 13.5312 0.344727 12.6114H19.6553C19.4089 13.5312 19.0309 14.4106 18.533 15.2223Z" fill="#D80027"/>
<path fill-rule="evenodd" clip-rule="evenodd" d="M4.64249 1.55623H4.6335V1.56248L4.64249 1.55623ZM4.64249 1.55623H5.54677L4.69483 2.16754L5.01709 3.16752L4.16711 2.55621L3.32259 3.16752L3.60032 2.30465C2.85389 2.92939 2.20263 3.65973 1.66716 4.47258H1.96168L1.42263 4.86319L1.1781 5.29287L1.43357 6.08739L0.950372 5.73583L0.617176 6.5116L0.894905 7.38268H1.94957L1.11131 8.00024L1.43357 9.00022L0.583583 8.38891L0.0835926 8.75531C0.0277977 9.16779 -0.000129651 9.58357 4.52473e-07 9.99981H9.9998V8.42268e-06C8.10221 -0.00245955 6.24344 0.537485 4.64249 1.55623ZM5.01514 8.99514L5.02256 9.001H5.01709L5.01514 8.99514ZM4.69444 8.00063L5.01514 8.99514L4.16672 8.38969L3.31673 9.001L3.63899 8.00102L2.78901 7.38971H3.84368L4.16593 6.38973L4.48819 7.38971H5.54286L4.69444 8.00063ZM4.7003 5.08975L5.02256 6.08973L4.17258 5.47842L3.32259 6.08973L3.64485 5.08975L2.79487 4.47844H3.84953L4.17179 3.47846L4.49405 4.47844H5.54872L4.7003 5.08975ZM7.76118 8.38969L8.61116 9.001L8.2889 8.00102L9.14045 7.38971H8.08578L7.76352 6.38973L7.44126 7.38971H6.38659L7.23658 8.00102L6.91432 9.001L7.76118 8.38969ZM8.2889 5.08975L8.61116 6.08973L7.76118 5.47842L6.91119 6.08973L7.23345 5.08975L6.38347 4.47844H7.43814L7.7604 3.47846L8.08266 4.47844H9.13732L8.2889 5.08975ZM8.61116 3.17846L8.2889 2.17848L9.14045 1.56717H8.08578L7.76352 0.567185L7.44126 1.56717H6.38659L7.23658 2.17848L6.91432 3.17846L7.7643 2.56715L8.61116 3.17846Z" fill="#0052B4"/>
</g>
<defs>
<clipPath id="clip0_5269_56888">
<rect width="20" height="20" fill="white"/>
</clipPath>
</defs>
</svg>
