<svg width="60" height="61" viewBox="0 0 60 61" fill="none" xmlns="http://www.w3.org/2000/svg">
<path d="M28.1982 54.8064C28.1977 54.8064 28.1985 54.8064 28.1979 54.8064C20.4183 54.8064 13.8728 54.4414 8.77301 53.9941C5.62945 53.7183 3.66117 50.4641 4.86633 47.5476C8.20922 39.4576 12.3364 31.4659 17.1782 23.7151C20.4738 18.4392 23.6554 13.9923 26.3457 10.4935C28.222 8.05343 31.8927 8.05273 33.7691 10.4927C36.4461 13.974 39.6107 18.3957 42.8899 23.6391C47.7069 31.3413 51.8187 39.2827 55.1561 47.323C56.3678 50.242 54.3919 53.5011 51.2435 53.7778C43.4691 54.4611 35.7429 54.8064 28.1982 54.8064Z" fill="#FF8C21"/>
<path d="M31.1568 8.79375C30.2439 9.03375 29.3893 9.60621 28.7575 10.5098C26.2894 14.0395 23.3711 18.5263 20.3481 23.8491C15.9064 31.6686 12.1202 39.7312 9.05426 47.8923C8.05207 50.5583 9.44098 53.5043 11.8567 54.2408C10.7766 54.1629 9.74871 54.0798 8.77313 53.9946C5.6291 53.7186 3.66164 50.4649 4.86598 47.5475C8.20899 39.4584 12.3368 31.4666 17.1785 23.7157C20.4743 18.4402 23.6554 13.9923 26.346 10.4945C27.5337 8.94961 29.4417 8.38242 31.1568 8.79375Z" fill="#EC6F00"/>
<path d="M51.7779 31.9047V31.5655C51.7779 30.3693 52.7041 29.3773 53.8977 29.2954L57.5688 29.0435C58.8838 28.9533 60 29.9957 60 31.3137V32.1565C60 33.4745 58.8837 34.5169 57.5688 34.4267L53.8977 34.1748C52.7043 34.093 51.7779 33.101 51.7779 31.9047Z" fill="#FF8C21"/>
<path d="M48.945 20.9934L48.7754 20.6996C48.1773 19.6636 48.4835 18.3414 49.4761 17.6737L52.5294 15.6201C53.6231 14.8846 55.1109 15.2291 55.77 16.3705L56.1914 17.1005C56.8505 18.2419 56.4048 19.7027 55.221 20.2821L51.9158 21.8995C50.8413 22.4255 49.5431 22.0295 48.945 20.9934Z" fill="#FF8C21"/>
<path d="M41.0358 12.9596L40.742 12.7901C39.7059 12.1919 39.3101 10.8937 39.8359 9.81924L41.4533 6.51408C42.0327 5.33025 43.4936 4.88471 44.635 5.54365L45.3649 5.96506C46.5063 6.62412 46.8509 8.11193 46.1153 9.20564L44.0617 12.259C43.3941 13.2515 42.0718 13.5578 41.0358 12.9596Z" fill="#FF8C21"/>
<path d="M8.22211 31.9047V31.5655C8.22211 30.3693 7.29586 29.3773 6.1023 29.2954L2.43117 29.0435C1.11633 28.9533 0 29.9957 0 31.3137V32.1565C0 33.4745 1.11633 34.5169 2.43117 34.4267L6.1023 34.1748C7.29574 34.093 8.22211 33.101 8.22211 31.9047Z" fill="#FF8C21"/>
<path d="M11.055 20.9934L11.2246 20.6996C11.8227 19.6636 11.5165 18.3414 10.5239 17.6737L7.47059 15.6201C6.37688 14.8846 4.88906 15.2291 4.23 16.3705L3.8086 17.1005C3.14953 18.2419 3.5952 19.7027 4.77903 20.2821L8.08418 21.8995C9.15867 22.4255 10.4569 22.0295 11.055 20.9934Z" fill="#FF8C21"/>
<path d="M18.9642 12.9596L19.258 12.7901C20.2941 12.1919 20.6899 10.8937 20.1641 9.81924L18.5467 6.51408C17.9673 5.33025 16.5064 4.88471 15.365 5.54365L14.6351 5.96506C13.4937 6.62412 13.1491 8.11193 13.8847 9.20564L15.9383 12.259C16.6059 13.2515 17.9282 13.5578 18.9642 12.9596Z" fill="#FF8C21"/>
<path d="M28.6993 21.1305C29.5747 21.0425 30.4501 21.0425 31.3255 21.1305C32.433 21.2419 33.2809 22.1669 33.3218 23.2792C33.4553 26.9178 33.4553 30.5563 33.3218 34.1949C33.281 35.3072 32.433 36.2323 31.3255 36.3436C30.4501 36.4316 29.5747 36.4316 28.6993 36.3436C27.5918 36.2322 26.7439 35.3072 26.703 34.1949C26.5696 30.5563 26.5696 26.9178 26.703 23.2792C26.7439 22.1667 27.5918 21.2418 28.6993 21.1305Z" fill="white"/>
<path d="M28.7628 40.3365C29.5959 40.2967 30.429 40.2967 31.2621 40.3365C32.4102 40.3915 33.3322 41.3156 33.384 42.4638C33.4345 43.5832 33.4345 44.7026 33.384 45.8221C33.3322 46.9703 32.4102 47.8944 31.2621 47.9494C30.429 47.9892 29.5959 47.9892 28.7628 47.9494C27.6148 47.8944 26.6927 46.9703 26.6409 45.8221C26.5904 44.7027 26.5904 43.5833 26.6409 42.4638C26.6927 41.3156 27.6148 40.3915 28.7628 40.3365Z" fill="white"/>
</svg>
