<svg width="24" height="24" viewBox="0 0 24 24" fill="none" xmlns="http://www.w3.org/2000/svg">
<path d="M20.2526 0.476562H3.74056C1.91656 0.476562 0.476562 1.91656 0.476562 3.74056V20.1566C0.476562 21.9806 1.91656 23.4206 3.74056 23.4206H20.1566C21.9806 23.4206 23.4206 21.9806 23.4206 20.1566V3.74056C23.5166 1.91656 22.0766 0.476562 20.2526 0.476562ZM8.44456 3.35656C9.98056 3.35656 11.1326 4.60456 11.1326 6.04456C11.1326 7.58056 9.88456 8.73256 8.44456 8.73256C7.00456 8.73256 5.75656 7.58056 5.75656 6.04456C5.75656 4.60456 7.00456 3.35656 8.44456 3.35656ZM5.75656 19.7726H5.08456C4.60456 19.7726 4.12456 19.2926 4.12456 18.8126C4.12456 18.3326 4.60456 17.8526 5.08456 17.8526H5.75656C6.23656 17.8526 6.71656 18.3326 6.71656 18.8126C6.71656 19.2926 6.23656 19.7726 5.75656 19.7726ZM10.1726 19.7726H9.50056C9.02056 19.7726 8.54056 19.2926 8.54056 18.8126C8.54056 18.3326 9.02056 17.8526 9.50056 17.8526H10.1726C10.7486 17.8526 11.1326 18.3326 11.1326 18.8126C11.1326 19.2926 10.6526 19.7726 10.1726 19.7726ZM4.60456 15.0686C3.93256 15.0686 3.45256 14.3966 3.64456 13.7246C4.02856 12.1886 5.27656 10.8446 6.81256 10.3646C7.29256 10.5566 7.86856 10.6526 8.44456 10.6526C9.02056 10.6526 9.59656 10.5566 10.0766 10.3646C10.8446 10.5566 11.4206 11.0366 11.9966 11.5166C12.5726 12.0926 13.0526 12.8606 13.2446 13.7246C13.4366 14.3966 12.9566 15.0686 12.2846 15.0686H4.60456ZM14.4926 19.7726H13.8206C13.3406 19.7726 12.8606 19.2926 12.8606 18.8126C12.8606 18.3326 13.3406 17.8526 13.8206 17.8526H14.4926C14.9726 17.8526 15.4526 18.3326 15.4526 18.8126C15.4526 19.2926 15.0686 19.7726 14.4926 19.7726ZM18.9086 19.7726H18.2366C17.7566 19.7726 17.2766 19.2926 17.2766 18.8126C17.2766 18.3326 17.7566 17.8526 18.2366 17.8526H18.9086C19.3886 17.8526 19.8686 18.3326 19.8686 18.8126C19.8686 19.2926 19.4846 19.7726 18.9086 19.7726ZM19.8686 11.6126H16.0286C15.5486 11.6126 15.0686 11.1326 15.0686 10.6526C15.0686 10.0766 15.5486 9.69256 16.0286 9.69256H19.8686C20.4446 9.69256 20.8286 10.0766 20.8286 10.6526C20.8286 11.1326 20.3486 11.6126 19.8686 11.6126ZM19.8686 7.77256H16.0286C15.5486 7.77256 15.0686 7.38856 15.0686 6.81256C15.0686 6.33256 15.5486 5.85256 16.0286 5.85256H19.8686C20.4446 5.85256 20.8286 6.33256 20.8286 6.81256C20.8286 7.38856 20.3486 7.77256 19.8686 7.77256Z" fill="#50429B"/>
</svg>