<svg width="40" height="40" viewBox="0 0 40 40" fill="none" xmlns="http://www.w3.org/2000/svg">
<path d="M11.667 30V28.3333C11.667 26.1232 12.545 24.0036 14.1078 22.4408C15.6706 20.878 17.7902 20 20.0003 20C22.2105 20 24.3301 20.878 25.8929 22.4408C27.4557 24.0036 28.3337 26.1232 28.3337 28.3333V30" stroke="black" stroke-width="2" stroke-linecap="round"/>
<path d="M20 20C21.3261 20 22.5979 19.4732 23.5355 18.5355C24.4732 17.5979 25 16.3261 25 15C25 13.6739 24.4732 12.4021 23.5355 11.4645C22.5979 10.5268 21.3261 10 20 10C18.6739 10 17.4021 10.5268 16.4645 11.4645C15.5268 12.4021 15 13.6739 15 15C15 16.3261 15.5268 17.5979 16.4645 18.5355C17.4021 19.4732 18.6739 20 20 20V20Z" stroke="black" stroke-width="2" stroke-linecap="round" stroke-linejoin="round"/>
<path d="M20.0002 36.6666C29.2049 36.6666 36.6668 29.2047 36.6668 19.9999C36.6668 10.7952 29.2049 3.33325 20.0002 3.33325C10.7954 3.33325 3.3335 10.7952 3.3335 19.9999C3.3335 29.2047 10.7954 36.6666 20.0002 36.6666Z" stroke="black" stroke-width="2"/>
</svg>