<svg width="48" height="48" viewBox="0 0 48 48" fill="none">
  <path fill-rule="evenodd" clip-rule="evenodd"
    d="M8.80014 7.57041C8.48468 7.45968 8.13815 7.47881 7.8368 7.62358C7.53544 7.76835 7.30393 8.02691 7.19321 8.34237C7.08249 8.65783 7.10161 9.00436 7.24639 9.30572C7.39116 9.60707 7.64971 9.83858 7.96517 9.9493L8.40366 10.1022C9.5259 10.497 10.2634 10.7574 10.8061 11.0245C11.3151 11.2748 11.5386 11.4781 11.6864 11.6932C11.8376 11.9149 11.9552 12.2207 12.0224 12.8305C12.0896 13.4689 12.093 14.3005 12.093 15.5437V19.9151C12.093 24.8577 12.1988 26.4873 13.6554 28.0228C15.1103 29.5584 17.4522 29.5584 22.1394 29.5584H31.0468C33.6693 29.5584 34.9814 29.5584 35.9071 28.8024C36.8345 28.0464 37.0999 26.7628 37.6291 24.1958L38.4691 20.1218C39.0521 17.1985 39.3427 15.7386 38.5968 14.7692C37.8509 13.7999 35.304 13.7999 32.4732 13.7999H14.5995C14.5924 13.3858 14.5683 12.9722 14.5273 12.56C14.4366 11.7251 14.2417 10.964 13.7679 10.2719C13.2908 9.57298 12.6558 9.1261 11.9149 8.76153C11.2227 8.42217 10.3424 8.11305 9.3075 7.74849L8.80014 7.57041ZM25.533 17.5799C25.8672 17.5799 26.1877 17.7127 26.424 17.949C26.6603 18.1853 26.793 18.5057 26.793 18.8399V20.9399H28.8931C29.2272 20.9399 29.5477 21.0727 29.784 21.309C30.0203 21.5453 30.1531 21.8658 30.1531 22.1999C30.1531 22.5341 30.0203 22.8546 29.784 23.0909C29.5477 23.3272 29.2272 23.4599 28.8931 23.4599H26.793V25.56C26.793 25.8941 26.6603 26.2146 26.424 26.4509C26.1877 26.6872 25.8672 26.82 25.533 26.82C25.1989 26.82 24.8784 26.6872 24.6421 26.4509C24.4058 26.2146 24.273 25.8941 24.273 25.56V23.4599H22.173C21.8388 23.4599 21.5184 23.3272 21.2821 23.0909C21.0458 22.8546 20.913 22.5341 20.913 22.1999C20.913 21.8658 21.0458 21.5453 21.2821 21.309C21.5184 21.0727 21.8388 20.9399 22.173 20.9399H24.273V18.8399C24.273 18.5057 24.4058 18.1853 24.6421 17.949C24.8784 17.7127 25.1989 17.5799 25.533 17.5799Z"
    fill="#FF8C21" />
  <path
    d="M16.293 33.9601C16.9613 33.9601 17.6023 34.2256 18.0749 34.6982C18.5475 35.1708 18.813 35.8117 18.813 36.4801C18.813 37.1484 18.5475 37.7894 18.0749 38.262C17.6023 38.7346 16.9613 39.0001 16.293 39.0001C15.6246 39.0001 14.9836 38.7346 14.511 38.262C14.0384 37.7894 13.7729 37.1484 13.7729 36.4801C13.7729 35.8117 14.0384 35.1708 14.511 34.6982C14.9836 34.2256 15.6246 33.9601 16.293 33.9601ZM31.4131 33.9601C32.0814 33.9601 32.7224 34.2256 33.195 34.6982C33.6676 35.1708 33.9331 35.8117 33.9331 36.4801C33.9331 37.1484 33.6676 37.7894 33.195 38.262C32.7224 38.7346 32.0814 39.0001 31.4131 39.0001C30.7447 39.0001 30.1037 38.7346 29.6311 38.262C29.1585 37.7894 28.893 37.1484 28.893 36.4801C28.893 35.8117 29.1585 35.1708 29.6311 34.6982C30.1037 34.2256 30.7447 33.9601 31.4131 33.9601Z"
    fill="#FF8C21" />
</svg>
  