<svg width="36" height="36" viewBox="0 0 36 36" fill="none" xmlns="http://www.w3.org/2000/svg">
<g clip-path="url(#clip0_1_335)">
<path d="M36 0H0V36H36V0Z" fill="#FF7F32"/>
<path d="M16.7938 9.28125C18.3563 7.58125 20.7875 6.71875 23.0688 7.13125C25.0125 7.475 26.7313 8.78125 27.6688 10.5063C27.9688 11.0375 28.1563 11.6187 28.3625 12.1875C30.175 17.1625 31.9813 22.1375 33.7938 27.1125C33.9063 27.3875 33.9938 27.6875 33.925 27.9813C33.8313 28.5313 33.3125 28.9688 32.75 28.9688C31.3125 28.9625 29.875 28.95 28.4375 28.9375C27.7125 28.9375 27.0188 28.4562 26.7625 27.775C26.3 26.55 25.8375 25.3188 25.3813 24.0938C22.85 24.0938 20.3188 24.1 17.7938 24.0938C17.0938 25.2875 16.4063 26.4938 15.7125 27.6938C15.3063 28.45 14.4875 28.9625 13.625 28.9688C11.5188 28.9688 9.41251 28.9688 7.30626 28.9688C6.90626 28.975 6.51876 28.7563 6.30001 28.4188C6.05626 28.0563 6.03126 27.5563 6.24376 27.1688C6.81251 26.175 7.38751 25.1875 7.95626 24.2C7.26251 24.1938 6.56251 24.2 5.86876 24.2C5.28751 24.2 4.76251 23.6937 4.75001 23.1125C4.68751 22.4812 5.23126 21.8813 5.86251 21.8813C7.00001 21.8813 8.13751 21.8813 9.27501 21.8813C9.79376 21.0625 10.25 20.2125 10.7438 19.3813C8.22501 19.3813 5.70001 19.3813 3.18126 19.3813C2.77501 19.3813 2.38751 19.1438 2.19376 18.7875C1.95626 18.375 2.01251 17.8187 2.33126 17.4625C2.55626 17.2 2.89376 17.05 3.23751 17.0625C6.70001 17.0625 10.1563 17.0625 13.6188 17.0625C13.9 17.0625 14.1938 17.0813 14.4563 16.975C14.9125 16.8063 15.2375 16.35 15.2563 15.8625C15.2813 15.3563 14.9563 14.8562 14.4875 14.6687C14.175 14.5312 13.825 14.5875 13.4938 14.575C12.4125 14.5687 11.325 14.575 10.2438 14.575C9.91876 14.5687 9.60001 14.4125 9.38751 14.1625C9.08751 13.8125 9.03126 13.2812 9.25001 12.875C9.44376 12.4875 9.86876 12.2375 10.3 12.25C11.825 12.25 13.3438 12.25 14.8688 12.25C15.4938 11.2437 15.975 10.1438 16.7938 9.28125ZM20.15 17.0875C19.7063 17.2062 19.3563 17.5937 19.2875 18.05C19.2063 18.5 19.4188 18.9875 19.8 19.2375C20.1875 19.5 20.725 19.5062 21.1188 19.25C21.4563 19.0375 21.6688 18.6375 21.6625 18.2375C21.6688 17.8125 21.4125 17.3938 21.0375 17.1938C20.7688 17.0375 20.4438 17.0187 20.15 17.0875ZM24.65 17.075C24.2188 17.175 23.8625 17.5438 23.775 17.975C23.6875 18.35 23.7938 18.7625 24.0625 19.0438C24.3313 19.3375 24.7438 19.475 25.1313 19.4125C25.6063 19.3438 26.0125 18.9562 26.1063 18.4875C26.1938 18.0937 26.0688 17.6625 25.7813 17.3875C25.4875 17.0938 25.0438 16.975 24.65 17.075Z" fill="white"/>
</g>
<defs>
<clipPath id="clip0_1_335">
<rect width="36" height="36" rx="4" fill="white"/>
</clipPath>
</defs>
</svg>
