<svg xmlns="http://www.w3.org/2000/svg" width="24" height="24" viewBox="0 0 24 24" fill="none">
  <path fill-rule="evenodd" clip-rule="evenodd" d="M5.47055 11.9359C5.44825 11.9762 5.42666 12.0169 5.40579 12.0581C5 12.8587 5 13.9058 5 15.9999C5 18.0941 5 19.1411 5.40579 19.9418C5.7669 20.6542 6.3457 21.233 7.05815 21.5941C7.71999 21.9296 8.55024 21.9877 10.0012 21.9978V18.2521C10.0012 17.5606 10.5618 17 11.2533 17H12.749C13.4406 17 14.0012 17.5606 14.0012 18.2521V21.9978C15.4506 21.9876 16.2804 21.9294 16.9418 21.5941C17.6543 21.233 18.2331 20.6542 18.5942 19.9418C19 19.1411 19 18.0941 19 15.9999C19 13.9058 19 12.8587 18.5942 12.0581C18.5733 12.0169 18.5518 11.9762 18.5295 11.9359C18.2725 11.9317 18.0333 11.921 17.8207 11.8945C17.426 11.8452 17.0105 11.7303 16.6436 11.4195C16.5923 11.376 16.5446 11.331 16.5002 11.2846C16.3279 11.4597 16.1268 11.6051 15.9049 11.7142C15.6272 11.8507 15.35 11.8986 15.0937 11.9196C14.8589 11.9388 14.5805 11.9388 14.2811 11.9388L14.2493 11.9388L14.2174 11.9388C13.9181 11.9388 13.6396 11.9388 13.4048 11.9196C13.1485 11.8986 12.8714 11.8507 12.5936 11.7142C12.3721 11.6053 12.1714 11.4602 11.9993 11.2856C11.8272 11.4602 11.6264 11.6053 11.4049 11.7142C11.1272 11.8507 10.85 11.8986 10.5937 11.9196C10.3589 11.9388 10.0805 11.9388 9.78114 11.9388L9.74926 11.9388L9.71739 11.9388C9.41805 11.9388 9.13965 11.9388 8.90479 11.9196C8.64848 11.8986 8.37136 11.8507 8.09362 11.7142C7.87171 11.6051 7.67061 11.4597 7.4983 11.2846C7.45391 11.331 7.40622 11.376 7.3549 11.4195C6.98798 11.7303 6.57252 11.8452 6.1778 11.8945C5.96563 11.9209 5.72693 11.9316 5.47055 11.9359ZM15.0806 10.0268C15.0806 10.0268 15.0806 10.0268 15.0807 10.0268C15.0803 10.0269 15.0799 10.0271 15.0794 10.0272L15.0806 10.0268ZM8.91802 10.0268C8.91805 10.0268 8.91808 10.0268 8.91812 10.0268L8.91916 10.0272C8.91872 10.0271 8.91834 10.027 8.91802 10.0268ZM8.91854 10.0268C9.39108 10.004 9.94868 10.0005 10.6237 10C10.6096 10.0103 10.5946 10.0195 10.5788 10.0274C10.5687 10.0306 10.531 10.0403 10.4405 10.0477C10.2917 10.0599 10.0914 10.0606 9.74926 10.0606C9.40716 10.0606 9.20687 10.0599 9.05798 10.0477C8.96753 10.0403 8.92986 10.0306 8.91969 10.0274C8.9193 10.0272 8.91892 10.027 8.91854 10.0268ZM13.3749 10C14.0499 10.0005 14.6075 10.004 15.0801 10.0268C15.0797 10.027 15.0793 10.0272 15.0788 10.0274C15.0687 10.0306 15.031 10.0403 14.9405 10.0477C14.7917 10.0599 14.5914 10.0606 14.2493 10.0606C13.9072 10.0606 13.7069 10.0599 13.558 10.0477C13.4675 10.0403 13.4299 10.0306 13.4197 10.0274C13.404 10.0195 13.389 10.0103 13.3749 10ZM13.4167 10.0263L13.4192 10.0272C13.4174 10.0266 13.4166 10.0263 13.4167 10.0263ZM10.5818 10.0263C10.5819 10.0263 10.5811 10.0267 10.5794 10.0272L10.5818 10.0263ZM12.749 18.2521V21.9999H11.2533V18.2521H12.749Z" fill="#776B16"/>
  <path d="M3.57734 8.69063C4.26059 5.95765 4.60221 4.59116 5.62117 3.79558C6.64013 3 8.04868 3 10.8658 3H13.1342C15.9513 3 17.3599 3 18.3788 3.79558C19.3978 4.59116 19.7394 5.95765 20.4227 8.69064L20.611 9.44419C20.7901 10.1604 20.8796 10.5184 20.6916 10.7592C20.5036 11 20.1345 11 19.3963 11H19.1214C18.1082 11 17.6016 11 17.2514 10.7033C16.9011 10.4065 16.8178 9.90684 16.6512 8.90745L16.6235 8.74105C16.5765 8.45916 16.553 8.31821 16.5 8.31821C16.447 8.31821 16.4235 8.45916 16.3765 8.74105L16.2877 9.27381C16.1803 9.91846 16.1265 10.2408 15.957 10.4773C15.8367 10.6451 15.6768 10.7806 15.4915 10.8717C15.2303 11 14.9035 11 14.25 11C13.5965 11 13.2697 11 13.0085 10.8717C12.8232 10.7806 12.6633 10.6451 12.543 10.4773C12.3735 10.2408 12.3197 9.91846 12.2123 9.27381L12.1235 8.74105C12.0765 8.45916 12.053 8.31821 12 8.31821C11.947 8.31821 11.9235 8.45916 11.8765 8.74105L11.7877 9.27381C11.6803 9.91845 11.6265 10.2408 11.457 10.4773C11.3367 10.6451 11.1768 10.7806 10.9915 10.8717C10.7303 11 10.4035 11 9.75 11C9.09646 11 8.76969 11 8.50851 10.8717C8.3232 10.7806 8.16328 10.6451 8.043 10.4773C7.87346 10.2408 7.81974 9.91846 7.7123 9.27381L7.62351 8.74105C7.57653 8.45916 7.55304 8.31821 7.5 8.31821C7.44696 8.31821 7.42347 8.45916 7.37649 8.74105L7.34876 8.90745C7.18219 9.90684 7.09891 10.4065 6.74863 10.7033C6.39836 11 5.89177 11 4.87858 11H4.60369C3.86548 11 3.49637 11 3.30838 10.7592C3.12039 10.5184 3.20991 10.1604 3.38895 9.44419L3.57734 8.69063Z" fill="#BAA61A"/>
</svg>