<svg width="24" height="24" viewBox="0 0 24 24" fill="none" xmlns="http://www.w3.org/2000/svg">
<path d="M6.95703 3.04212H17.2643V0.936321C17.2643 0.402831 16.8275 0 16.3302 0C16.2333 0 16.1343 0.0152506 16.0356 0.0478102L6.95703 3.04212Z" fill="#50429B"/>
<path d="M19.1335 4.44531H4.86531C4.34856 4.44531 3.92969 4.86419 3.92969 5.38093V17.7933V23.0641C3.92969 23.5809 4.34856 23.9998 4.86531 23.9998H19.1335C19.6502 23.9998 20.0691 23.5809 20.0691 23.0641V5.38093C20.0691 4.86424 19.6502 4.44531 19.1335 4.44531ZM7.32131 12.881H7.52457C7.82706 10.9444 9.36105 9.41041 11.2977 9.10793V8.75632C11.2977 8.36879 11.6119 8.05461 11.9994 8.05461C12.3869 8.05461 12.7011 8.36879 12.7011 8.75632V9.10793C14.6378 9.41041 16.1718 10.9444 16.4742 12.881H16.6775C17.065 12.881 17.3792 13.1952 17.3792 13.5828C17.3792 13.9703 17.065 14.2845 16.6775 14.2845H7.32131C6.93377 14.2845 6.61959 13.9703 6.61959 13.5828C6.61959 13.1952 6.93373 12.881 7.32131 12.881ZM11.6634 16.8819C11.6634 17.2695 11.3492 17.5837 10.9617 17.5837H7.59343C7.2059 17.5837 6.89172 17.2695 6.89172 16.8819C6.89172 16.4944 7.2059 16.1802 7.59343 16.1802H10.9617C11.3492 16.1802 11.6634 16.4944 11.6634 16.8819ZM16.5021 20.3905H7.49674C7.1092 20.3905 6.79502 20.0763 6.79502 19.6888C6.79502 19.3013 7.1092 18.9871 7.49674 18.9871H16.5021C16.8896 18.9871 17.2038 19.3013 17.2038 19.6888C17.2038 20.0763 16.8896 20.3905 16.5021 20.3905Z" fill="#50429B"/>
<path d="M15.046 12.8811C14.7266 11.4943 13.4819 10.457 11.9996 10.457C10.5172 10.457 9.2725 11.4944 8.95312 12.8811H15.046Z" fill="#50429B"/>
</svg>