<svg width="91" height="57" viewBox="0 0 91 57" fill="none">
  <path
    d="M51.8316 40.378C47.6222 37.2735 44.2815 32.8757 39.4752 30.8106C34.9605 28.8715 29.843 29.281 24.9304 29.2475C20.0177 29.2141 14.6658 28.5054 11.2266 24.9993C6.82613 20.5148 7.31267 12.8373 10.744 7.57519C12.7611 4.48251 15.5483 2.0631 18.6389 0H93V38.2893C89.5399 40.5933 85.8017 42.45 81.8747 43.8152C71.9549 47.1933 60.2702 46.5988 51.8316 40.378Z"
    fill="#578066" />
  <path
    d="M72.4395 56.1308C68.252 55.1371 64.2911 53.3589 60.7666 50.8904C57.024 48.2682 54.0555 44.9058 51.4062 41.2186C46.2296 34.0214 41.3051 25.2158 31.8482 23.3358C27.0459 22.3791 22.1077 23.0622 17.2581 22.6901C13.1117 22.3732 9.182 21.1684 5.99096 18.432C2.66514 15.6029 0.550392 11.6077 0.0816269 7.26808C-0.159416 4.81155 0.134918 2.33198 0.944389 0L1.99625 0C-0.135048 5.95109 1.36395 12.8825 6.25491 17.3532C9.50111 20.3219 13.6219 21.5031 17.9396 21.7511C22.3263 22.0031 26.7465 21.5424 31.1096 22.2098C39.686 23.5248 45.0477 30.3126 49.6806 37.0275C52.267 40.7678 54.8395 44.5751 58.2492 47.6402C61.4781 50.5339 65.2467 52.7623 69.339 54.1976C77.0645 56.9084 85.5542 56.5206 93 53.359V54.4279C86.4912 57.1219 79.3032 57.7172 72.4395 56.1308Z"
    fill="#A5BF78" />
  <path
    d="M80.935 38.8799C78.8408 38.8799 77.1432 37.1833 77.1432 35.0903C77.1432 32.9974 78.8408 31.3008 80.935 31.3008C83.0291 31.3008 84.7268 32.9974 84.7268 35.0903C84.7268 37.1833 83.0291 38.8799 80.935 38.8799Z"
    fill="#D5E8AA" />
  <path
    d="M72.4157 48.0339C71.0559 48.0339 69.9535 46.9322 69.9535 45.5732C69.9535 44.2141 71.0559 43.1124 72.4157 43.1124C73.7756 43.1124 74.8779 44.2141 74.8779 45.5732C74.8779 46.9322 73.7756 48.0339 72.4157 48.0339Z"
    fill="#D5E8AA" />
  <path
    d="M17.2128 15.2567C15.8801 15.2567 14.7998 14.177 14.7998 12.8451C14.7998 11.5133 15.8801 10.4336 17.2128 10.4336C18.5454 10.4336 19.6257 11.5133 19.6257 12.8451C19.6257 14.177 18.5454 15.2567 17.2128 15.2567Z"
    fill="#D5E8AA" />
</svg>