<svg width="60" height="60" viewBox="0 0 60 60" fill="none" xmlns="http://www.w3.org/2000/svg">
<path d="M48.75 28.125H11.25C10.8798 28.1232 10.5185 28.0118 10.2115 27.8049C9.90455 27.598 9.66568 27.3049 9.52502 26.9625C9.38143 26.621 9.3422 26.2447 9.41228 25.881C9.48235 25.5173 9.6586 25.1824 9.91877 24.9188L28.6688 6.16876C28.8431 5.99302 29.0504 5.85353 29.2789 5.75834C29.5074 5.66314 29.7525 5.61414 30 5.61414C30.2475 5.61414 30.4926 5.66314 30.7211 5.75834C30.9496 5.85353 31.157 5.99302 31.3313 6.16876L50.0813 24.9188C50.3414 25.1824 50.5177 25.5173 50.5878 25.881C50.6578 26.2447 50.6186 26.621 50.475 26.9625C50.3344 27.3049 50.0955 27.598 49.7885 27.8049C49.4815 28.0118 49.1202 28.1232 48.75 28.125ZM15.7688 24.375H44.2313L30 10.1438L15.7688 24.375Z" fill="#463C4B"/>
<path d="M56.25 24.375H3.75C2.71447 24.375 1.875 25.2145 1.875 26.25V56.25C1.875 57.2855 2.71447 58.125 3.75 58.125H56.25C57.2855 58.125 58.125 57.2855 58.125 56.25V26.25C58.125 25.2145 57.2855 24.375 56.25 24.375Z" fill="#FF4646"/>
<path d="M56.25 24.375C56.25 24.375 56.25 24.375 56.25 24.4875V54.4875C56.25 54.9848 56.0525 55.4617 55.7008 55.8133C55.3492 56.165 54.8723 56.3625 54.375 56.3625H1.875C1.9037 56.84 2.11385 57.2885 2.46242 57.6162C2.81098 57.9438 3.27161 58.1259 3.75 58.125H56.25C56.7473 58.125 57.2242 57.9275 57.5758 57.5758C57.9275 57.2242 58.125 56.7473 58.125 56.25V26.25C58.125 25.7527 57.9275 25.2758 57.5758 24.9242C57.2242 24.5725 56.7473 24.375 56.25 24.375Z" fill="#CD3232"/>
<path d="M28.6687 6.16876L23.5687 11.25C24.2181 12.3587 25.1413 13.2819 26.25 13.9313L30 10.1813L33.75 13.9313C34.8586 13.2819 35.7819 12.3587 36.4312 11.25L31.3312 6.16876C31.1569 5.99302 30.9495 5.85353 30.7211 5.75834C30.4926 5.66314 30.2475 5.61414 30 5.61414C29.7525 5.61414 29.5074 5.66314 29.2789 5.75834C29.0504 5.85353 28.843 5.99302 28.6687 6.16876Z" fill="#32283C"/>
<path d="M30 13.125C33.1066 13.125 35.625 10.6066 35.625 7.5C35.625 4.3934 33.1066 1.875 30 1.875C26.8934 1.875 24.375 4.3934 24.375 7.5C24.375 10.6066 26.8934 13.125 30 13.125Z" fill="#FF4646"/>
<path d="M32.7375 2.625C33.3233 3.51602 33.6361 4.55869 33.6375 5.625C33.6375 7.11684 33.0449 8.54758 31.99 9.60248C30.9351 10.6574 29.5044 11.25 28.0125 11.25C27.0438 11.2465 26.0932 10.9878 25.2563 10.5C25.9093 11.5249 26.8768 12.3107 28.0137 12.7399C29.1507 13.169 30.3961 13.2184 31.5634 12.8806C32.7308 12.5429 33.7574 11.8361 34.4896 10.8662C35.2218 9.89623 35.6201 8.71525 35.625 7.5C35.6181 6.5046 35.3472 5.52885 34.8399 4.67239C34.3326 3.81592 33.6071 3.10942 32.7375 2.625Z" fill="#CD3232"/>
<path d="M15.8625 36.6188C14.9437 36.1556 13.929 35.9143 12.9 35.9143C11.871 35.9143 10.8564 36.1556 9.93753 36.6188C9.11876 37.1098 8.46572 37.8346 8.06253 38.7C7.63011 39.6271 7.41221 40.6397 7.42503 41.6625C7.33651 43.1818 7.81789 44.6794 8.77503 45.8625C9.26191 46.3886 9.8588 46.8007 10.5232 47.0697C11.1876 47.3387 11.9031 47.4579 12.6188 47.4188C13.5744 47.4 14.5196 47.216 15.4125 46.875C15.5922 46.8073 15.7474 46.687 15.8577 46.5298C15.9681 46.3726 16.0286 46.1858 16.0313 45.9938V44.6813C16.0291 44.5315 15.9925 44.3842 15.9242 44.2509C15.8559 44.1176 15.7578 44.0018 15.6375 43.9125C15.5202 43.827 15.3842 43.7705 15.2408 43.7477C15.0974 43.7249 14.9506 43.7364 14.8125 43.7813L13.725 44.0625C13.4099 44.1234 13.0897 44.1548 12.7688 44.1563C12.5135 44.1857 12.2549 44.1515 12.016 44.0566C11.7772 43.9617 11.5655 43.8091 11.4 43.6125C11.005 43.0216 10.82 42.315 10.875 41.6063C10.8269 40.9014 11.0185 40.201 11.4188 39.6188C11.6932 39.3326 12.047 39.1351 12.4345 39.0515C12.8221 38.968 13.2258 39.0023 13.5938 39.15C13.9023 39.246 14.2032 39.3651 14.4938 39.5063C14.7283 39.6012 14.9905 39.6012 15.225 39.5063C15.3436 39.4643 15.4518 39.3973 15.5424 39.31C15.6329 39.2227 15.7037 39.117 15.75 39L16.2938 37.725C16.3684 37.5197 16.3658 37.2943 16.2865 37.0907C16.2071 36.8872 16.0564 36.7194 15.8625 36.6188Z" fill="#CD3232"/>
<path d="M23.925 44.1H20.8875V36.975C20.8875 36.7263 20.7888 36.4879 20.6129 36.3121C20.4371 36.1363 20.1987 36.0375 19.95 36.0375H18.4313C18.1826 36.0375 17.9442 36.1363 17.7684 36.3121C17.5925 36.4879 17.4938 36.7263 17.4938 36.975V46.35C17.4938 46.5986 17.5925 46.8371 17.7684 47.0129C17.9442 47.1887 18.1826 47.2875 18.4313 47.2875H23.925C24.1737 47.2875 24.4121 47.1887 24.5879 47.0129C24.7638 46.8371 24.8625 46.5986 24.8625 46.35V45C24.8528 44.7579 24.7498 44.529 24.575 44.3612C24.4002 44.1934 24.1673 44.0998 23.925 44.1Z" fill="#CD3232"/>
<path d="M30.7875 35.9063C30.0566 35.8659 29.3255 35.9822 28.6432 36.2473C27.9609 36.5125 27.3431 36.9204 26.8313 37.4438C25.8541 38.6178 25.3583 40.1186 25.4438 41.6438C25.3583 43.1689 25.8541 44.6697 26.8313 45.8438C27.336 46.3789 27.9516 46.7972 28.6351 47.0692C29.3185 47.3413 30.0531 47.4606 30.7875 47.4188C31.5187 47.4566 32.2494 47.3353 32.9292 47.0634C33.6089 46.7915 34.2217 46.3754 34.725 45.8438C35.6877 44.67 36.176 43.1783 36.0938 41.6625C36.1694 40.1533 35.6816 38.6698 34.725 37.5C34.2211 36.968 33.6087 36.5504 32.9294 36.2754C32.2501 36.0005 31.5197 35.8746 30.7875 35.9063ZM29.4563 39.6563C29.6169 39.4648 29.8228 39.3165 30.0553 39.2248C30.2878 39.1331 30.5395 39.1009 30.7875 39.1313C31.0329 39.1007 31.2819 39.1328 31.5114 39.2247C31.741 39.3165 31.9435 39.465 32.1 39.6563C32.49 40.2628 32.668 40.9815 32.6063 41.7C32.668 42.4185 32.49 43.1372 32.1 43.7438C31.9423 43.9337 31.7397 44.0812 31.5105 44.1729C31.2812 44.2646 31.0327 44.2976 30.7875 44.2688C30.5395 44.2991 30.2878 44.2669 30.0553 44.1752C29.8228 44.0836 29.6169 43.9352 29.4563 43.7438C29.0714 43.135 28.8939 42.418 28.95 41.7C28.8827 40.9693 29.0608 40.2369 29.4563 39.6188V39.6563Z" fill="#CD3232"/>
<path d="M43.5375 41.1188C43.0029 40.7421 42.4234 40.4335 41.8125 40.2C41.4275 40.0472 41.0519 39.8719 40.6875 39.675C40.5375 39.5625 40.4813 39.5063 40.4813 39.4875V39.2063C40.4813 39.2063 40.6125 39.0938 40.9875 39.0938C41.6358 39.1209 42.2726 39.2737 42.8625 39.5438C42.9762 39.6 43.1013 39.6292 43.2281 39.6292C43.3549 39.6292 43.4801 39.6 43.5938 39.5438C43.8217 39.4469 44.0032 39.2655 44.1 39.0375L44.5875 37.7813C44.6762 37.5569 44.6751 37.307 44.5843 37.0835C44.4935 36.86 44.32 36.6801 44.1 36.5813C43.1853 36.101 42.1613 35.8675 41.1289 35.9037C40.0965 35.9398 39.0913 36.2445 38.2125 36.7875C37.8377 37.1035 37.5399 37.5008 37.3418 37.9492C37.1436 38.3975 37.0502 38.8852 37.0688 39.375C37.0557 40.1625 37.3139 40.9304 37.8 41.55C38.3863 42.2303 39.1437 42.7416 39.9938 43.0313C40.4756 43.1859 40.9309 43.4136 41.3437 43.7063C41.3738 43.7315 41.3978 43.7631 41.414 43.7988C41.4302 43.8344 41.4383 43.8733 41.4375 43.9125V44.1C41.2033 44.2294 40.9344 44.2819 40.6688 44.25C40.2894 44.2414 39.9121 44.1911 39.5438 44.1C39.1373 44.0022 38.7415 43.864 38.3625 43.6875C38.224 43.6137 38.0695 43.575 37.9125 43.575C37.7555 43.575 37.601 43.6137 37.4625 43.6875C37.3305 43.7722 37.2218 43.8887 37.1465 44.0263C37.0711 44.1639 37.0315 44.3182 37.0313 44.475V45.9375C37.0096 46.1225 37.0425 46.3097 37.1257 46.4762C37.209 46.6428 37.3391 46.7814 37.5 46.875C38.4523 47.285 39.4823 47.4833 40.5188 47.4563C41.6192 47.515 42.7059 47.1903 43.5938 46.5375C44.0012 46.2184 44.3275 45.8075 44.5458 45.3382C44.7641 44.869 44.8684 44.3547 44.85 43.8375C44.8533 43.3204 44.7446 42.8086 44.5313 42.3375C44.3056 41.8555 43.9642 41.4368 43.5375 41.1188Z" fill="#CD3232"/>
<path d="M52.3125 39.2062C52.5612 39.2062 52.7996 39.1075 52.9754 38.9316C53.1513 38.7558 53.25 38.5174 53.25 38.2687V36.975C53.25 36.7263 53.1513 36.4879 52.9754 36.3121C52.7996 36.1363 52.5612 36.0375 52.3125 36.0375H47.025C46.7764 36.0375 46.5379 36.1363 46.3621 36.3121C46.1863 36.4879 46.0875 36.7263 46.0875 36.975V46.35C46.0875 46.5986 46.1863 46.8371 46.3621 47.0129C46.5379 47.1887 46.7764 47.2875 47.025 47.2875H52.3125C52.5612 47.2875 52.7996 47.1887 52.9754 47.0129C53.1513 46.8371 53.25 46.5986 53.25 46.35V45C53.25 44.7513 53.1513 44.5129 52.9754 44.3371C52.7996 44.1612 52.5612 44.0625 52.3125 44.0625H49.4813V43.125H52.0875C52.3362 43.125 52.5746 43.0262 52.7504 42.8504C52.9263 42.6746 53.025 42.4361 53.025 42.1875V40.9125C53.025 40.6638 52.9263 40.4254 52.7504 40.2496C52.5746 40.0737 52.3362 39.975 52.0875 39.975H49.4813V39.2812L52.3125 39.2062Z" fill="#CD3232"/>
<path d="M15.525 36.2062C14.6081 35.7475 13.5971 35.5087 12.5719 35.5087C11.5467 35.5087 10.5356 35.7475 9.61874 36.2062C8.79621 36.6926 8.14198 37.4188 7.74374 38.2875C7.29074 39.2088 7.05958 40.2233 7.06874 41.25C6.98678 42.7595 7.46033 44.2469 8.39999 45.4312C8.89053 45.9577 9.49074 46.3699 10.1582 46.6388C10.8256 46.9078 11.544 47.0268 12.2625 46.9875C13.2269 47.0047 14.1863 46.8458 15.0937 46.5187C15.2734 46.4509 15.4286 46.3306 15.5389 46.1735C15.6493 46.0163 15.7098 45.8295 15.7125 45.6375V44.325C15.7118 44.1775 15.6757 44.0324 15.6072 43.9019C15.5387 43.7713 15.4397 43.6592 15.3187 43.575C15.2023 43.4876 15.0671 43.4286 14.9239 43.4026C14.7807 43.3765 14.6335 43.3842 14.4937 43.425L13.4062 43.7062C13.0925 43.7764 12.7714 43.8079 12.45 43.8C12.1939 43.8254 11.9354 43.7912 11.6947 43.7001C11.454 43.609 11.2376 43.4635 11.0625 43.275C10.6778 42.6731 10.5001 41.9621 10.5562 41.25C10.5356 40.5833 10.7259 39.9272 11.1 39.375C11.3772 39.093 11.7308 38.8984 12.1173 38.8151C12.5038 38.7318 12.9063 38.7635 13.275 38.9062C13.5937 39.0187 13.8937 39.1312 14.175 39.2625C14.2901 39.3136 14.4146 39.3401 14.5406 39.3401C14.6666 39.3401 14.7911 39.3136 14.9062 39.2625C15.0237 39.2184 15.1308 39.1507 15.2211 39.0637C15.3114 38.9766 15.3829 38.872 15.4312 38.7562L15.975 37.5C16.0377 37.3869 16.0759 37.2619 16.0869 37.1331C16.098 37.0043 16.0818 36.8746 16.0393 36.7524C15.9969 36.6303 15.9291 36.5186 15.8405 36.4244C15.7518 36.3303 15.6443 36.2559 15.525 36.2062Z" fill="white"/>
<path d="M23.5875 43.6875H20.625V36.5813C20.625 36.3327 20.5262 36.0942 20.3504 35.9184C20.1746 35.7426 19.9361 35.6438 19.6875 35.6438H18.0938C17.8451 35.6438 17.6067 35.7426 17.4308 35.9184C17.255 36.0942 17.1562 36.3327 17.1562 36.5813V45.9563C17.1562 46.2049 17.255 46.4434 17.4308 46.6192C17.6067 46.795 17.8451 46.8938 18.0938 46.8938H23.5875C23.8361 46.8938 24.0746 46.795 24.2504 46.6192C24.4262 46.4434 24.525 46.2049 24.525 45.9563V44.6438C24.5275 44.5191 24.5051 44.3952 24.4591 44.2793C24.4131 44.1634 24.3444 44.0578 24.2571 43.9687C24.1698 43.8797 24.0656 43.8089 23.9507 43.7607C23.8357 43.7124 23.7122 43.6875 23.5875 43.6875Z" fill="white"/>
<path d="M30.4687 35.4937C29.7383 35.4581 29.0086 35.5766 28.327 35.8415C27.6454 36.1064 27.0272 36.5117 26.5125 37.0312C25.5308 38.2101 25.0347 39.7185 25.125 41.2499C25.0403 42.7807 25.5358 44.287 26.5125 45.4687C27.0183 45.9959 27.6319 46.4079 28.3114 46.6765C28.9909 46.945 29.7204 47.0639 30.45 47.0249C31.1814 47.0653 31.9129 46.9452 32.593 46.6732C33.2732 46.4011 33.8856 45.9836 34.3875 45.4499C35.3663 44.2768 35.8623 42.7753 35.775 41.2499C35.8553 39.7344 35.3672 38.2434 34.4062 37.0687C33.9028 36.5371 33.2901 36.1209 32.6103 35.849C31.9306 35.5771 31.1999 35.4559 30.4687 35.4937ZM29.1375 39.2437C29.2981 39.0522 29.504 38.9039 29.7365 38.8122C29.9689 38.7205 30.2207 38.6884 30.4687 38.7187C30.7139 38.6899 30.9624 38.7228 31.1916 38.8145C31.4209 38.9062 31.6235 39.0537 31.7812 39.2437C32.1529 39.8436 32.3237 40.5464 32.2687 41.2499C32.3627 41.9559 32.2245 42.6732 31.875 43.2937C31.7144 43.4852 31.5085 43.6335 31.276 43.7252C31.0435 43.8169 30.7918 43.849 30.5437 43.8187C30.2985 43.8475 30.05 43.8146 29.8208 43.7229C29.5916 43.6312 29.3889 43.4836 29.2312 43.2937C28.8108 42.6975 28.5998 41.9788 28.6312 41.2499C28.5723 40.5317 28.7501 39.8139 29.1375 39.2062V39.2437Z" fill="white"/>
<path d="M43.2187 40.725C42.6815 40.3368 42.0951 40.0216 41.475 39.7875C41.0931 39.6416 40.7233 39.466 40.3687 39.2625C40.2 39.15 40.1625 39.0938 40.1625 39.075V38.7938C40.3244 38.7113 40.5071 38.6787 40.6875 38.7C41.3357 38.7271 41.9726 38.8799 42.5625 39.15C42.7974 39.2429 43.0588 39.2429 43.2937 39.15C43.5188 39.0398 43.698 38.854 43.8 38.625L44.2875 37.3688C44.3703 37.1418 44.3642 36.8919 44.2702 36.6693C44.1763 36.4466 44.0016 36.2678 43.7812 36.1688C42.865 35.6913 41.8401 35.461 40.8076 35.5004C39.7752 35.5399 38.7709 35.8478 37.8937 36.3938C37.5137 36.7022 37.2108 37.0949 37.009 37.5408C36.8072 37.9867 36.7121 38.4735 36.7312 38.9625C36.7333 39.7537 37.0044 40.5207 37.5 41.1375C38.0938 41.8093 38.8487 42.319 39.6937 42.6188C40.1759 42.7868 40.6357 43.0135 41.0625 43.2938C41.0925 43.319 41.1165 43.3506 41.1328 43.3862C41.149 43.4219 41.157 43.4608 41.1562 43.5C41.1562 43.6313 41.1562 43.6688 41.0625 43.7063C40.8277 43.813 40.5696 43.8582 40.3125 43.8375C39.9325 43.8382 39.5541 43.7877 39.1875 43.6875C38.7786 43.5981 38.3819 43.4596 38.0062 43.275C37.8677 43.2011 37.7132 43.1625 37.5562 43.1625C37.3993 43.1625 37.2447 43.2011 37.1062 43.275C36.9762 43.3662 36.8693 43.4866 36.7944 43.6267C36.7195 43.7667 36.6786 43.9225 36.675 44.0813V45.525C36.6768 45.7003 36.7267 45.8716 36.8193 46.0204C36.9119 46.1692 37.0436 46.2897 37.2 46.3688C38.1434 46.7861 39.169 46.9848 40.2 46.95C41.2971 47.005 42.3807 46.6879 43.275 46.05C43.6826 45.7299 44.01 45.3192 44.2313 44.8505C44.4526 44.3819 44.5617 43.8682 44.55 43.35C44.5554 42.8266 44.4466 42.3083 44.2312 41.8313C43.981 41.3912 43.6349 41.0132 43.2187 40.725Z" fill="white"/>
<path d="M51.9937 38.8125C52.2424 38.8125 52.4808 38.7138 52.6567 38.538C52.8325 38.3621 52.9312 38.1237 52.9312 37.875V36.5813C52.9312 36.3327 52.8325 36.0942 52.6567 35.9184C52.4808 35.7426 52.2424 35.6438 51.9937 35.6438H46.6875C46.4389 35.6438 46.2004 35.7426 46.0246 35.9184C45.8488 36.0942 45.75 36.3327 45.75 36.5813V45.9563C45.75 46.2049 45.8488 46.4434 46.0246 46.6192C46.2004 46.795 46.4389 46.8938 46.6875 46.8938H51.9937C52.2424 46.8938 52.4808 46.795 52.6567 46.6192C52.8325 46.4434 52.9312 46.2049 52.9312 45.9563V44.6625C52.9312 44.4139 52.8325 44.1755 52.6567 43.9996C52.4808 43.8238 52.2424 43.725 51.9937 43.725H49.1625V42.6563H51.75C51.9986 42.6563 52.2371 42.5575 52.4129 42.3817C52.5887 42.2059 52.6875 41.9674 52.6875 41.7188V40.4438C52.6875 40.1952 52.5887 39.9567 52.4129 39.7809C52.2371 39.6051 51.9986 39.5063 51.75 39.5063H49.1625V38.8125H51.9937Z" fill="white"/>
</svg>
