<svg width="82" height="82" viewBox="0 0 82 82" fill="none" xmlns="http://www.w3.org/2000/svg">
<path d="M22.0291 16.6704C22.3855 16.1703 22.729 15.6595 23.0532 15.1379C23.225 14.8654 23.3817 14.8568 23.6329 15.0349C24.3284 15.5286 25.067 15.9686 25.7389 16.4923C27.1301 17.5804 27.8107 19.0378 27.8322 20.8021C27.8511 22.154 27.3589 23.4633 26.4539 24.468C26.2606 24.6826 26.0438 24.8972 25.8441 25.1119C25.0154 25.9962 24.9575 26.9341 25.7454 27.8291C26.0374 28.1596 26.091 28.3464 25.7454 28.6511C25.3243 29.0235 24.9257 29.4205 24.5517 29.8402C24.337 30.0827 24.1889 30.0334 23.9699 29.8402C23.169 29.0769 22.6741 28.0477 22.578 26.9457C22.482 25.8436 22.7914 24.7444 23.4482 23.8541C23.698 23.5409 23.9661 23.2428 24.2512 22.9613C25.681 21.4588 25.4985 19.5272 23.8046 18.3574C23.2572 17.9775 22.7033 17.6019 22.1365 17.2499C21.8574 17.0632 21.8531 16.9151 22.0291 16.6704Z" fill="#FEFEFE"/>
<path d="M26.6213 10.165C25.9923 6.79959 28.59 3.79689 31.6622 3.98148C34.0237 3.99221 35.6318 4.89581 36.585 6.77169C37.4888 8.55742 37.3278 10.3389 36.1835 11.998C35.5244 12.9509 35.5115 12.9423 34.7258 12.1568C34.5733 12.0044 34.4209 11.8563 34.2728 11.7018C34.0581 11.4721 33.7124 11.2725 33.6523 10.9956C33.6094 10.8111 33.9787 10.5535 34.1225 10.3045C34.3638 9.93181 34.4931 9.4977 34.495 9.05372C34.4969 8.60974 34.3713 8.17454 34.1332 7.79977C33.5257 6.78456 32.2547 6.36603 30.958 6.72661C30.4303 6.88404 29.9704 7.21333 29.6514 7.66213C29.3324 8.11093 29.1726 8.65346 29.1976 9.20346C29.2154 9.88657 29.3798 10.5579 29.6799 11.1719C29.9799 11.7858 30.4085 12.3282 30.9365 12.7621C32.2805 13.9068 33.6359 15.0357 35.0027 16.1489C35.8915 16.8765 36.6 17.7222 36.9349 18.8404C37.2693 19.9518 37.206 21.1449 36.7558 22.2147C36.3056 23.2844 35.4967 24.1639 34.4681 24.702C33.9057 25.0025 33.3217 25.2665 32.7506 25.5605C31.6879 26.1014 31.5484 26.9363 32.3621 27.8142C32.7592 28.2434 32.7614 28.2434 32.3621 28.6598C31.9627 29.0762 31.5613 29.4475 31.177 29.8553C30.9902 30.0549 30.8678 30.0506 30.6553 29.8682C28.4461 27.9773 28.8068 24.6591 31.3831 23.2919C31.9005 23.0172 32.4157 22.7317 32.9546 22.5042C34.7344 21.7573 35.0585 19.538 33.4441 18.2888C32.0508 17.2157 30.7218 16.0459 29.365 14.9127C27.9084 13.7121 26.9342 12.0262 26.6213 10.165Z" fill="#FEFEFE"/>
<path d="M39.6271 12.8629C39.9212 12.5903 40.2046 12.3048 40.4858 12.0044C41.3102 11.1244 41.3596 10.165 40.5567 9.29356C40.2518 8.96089 40.2239 8.78489 40.5567 8.49084C40.9595 8.1382 41.3389 7.75964 41.6924 7.35759C41.9393 7.085 42.096 7.03349 42.3858 7.33183C43.2443 8.1931 43.7333 9.35486 43.7491 10.5706C43.7705 11.7067 43.352 12.807 42.5812 13.642C42.3052 13.9701 42.0029 14.2752 41.6774 14.5542C40.7993 15.2603 40.9753 16.4236 41.9157 16.8464C42.3506 17.0615 42.7236 17.3835 42.9998 17.7822C44.2536 19.4456 43.9187 21.9182 42.272 23.2596C42.0853 23.412 41.9779 23.4142 41.8126 23.2446C41.3489 22.7617 40.8744 22.2895 40.3957 21.8238C40.2368 21.6671 40.1917 21.5447 40.3806 21.3795C40.5439 21.2403 40.6934 21.0857 40.8272 20.918C40.9377 20.7916 41.0204 20.6434 41.0698 20.483C41.1192 20.3226 41.1343 20.1536 41.114 19.9869C41.0938 19.8203 41.0387 19.6598 40.9522 19.5159C40.8658 19.3719 40.7501 19.2478 40.6125 19.1516C40.5283 19.0853 40.4385 19.0264 40.3441 18.9756C38.1221 17.7951 37.843 14.5306 39.6271 12.8629Z" fill="#FEFEFE"/>
<path d="M45.1638 0.12234C45.1648 0.1309 45.1648 0.139535 45.1638 0.148096H45.108C45.122 0.117362 45.1342 0.0858275 45.1445 0.0536579C45.1486 0.0360091 45.1486 0.0176488 45.1445 0C45.1666 0.0367342 45.1735 0.0805978 45.1638 0.12234Z" fill="#FEFEFE"/>
<path d="M55.1233 10.0876C55.5161 9.87301 55.9262 9.6777 56.2955 9.49097C56.4736 9.47595 56.5101 9.57897 56.5552 9.67555C56.8529 10.2679 57.1535 10.861 57.4569 11.4548C57.575 11.6824 57.5557 11.8455 57.2938 11.9571C57.0318 12.0687 56.7678 12.2125 56.5101 12.352C55.5977 12.8435 55.4367 13.7063 56.1323 14.4554C56.4779 14.8289 56.8365 15.1894 57.2057 15.5286C58.7429 16.958 58.8653 20.302 56.8773 21.9096C56.6626 22.077 56.566 22.1027 56.3749 21.8967C55.9584 21.4459 55.5161 21.0081 55.0696 20.596C54.8227 20.3685 54.7733 20.2054 55.0546 19.9779C55.2764 19.8052 55.4528 19.5811 55.5684 19.3249C55.684 19.0687 55.7353 18.7882 55.7179 18.5076C55.7206 18.2809 55.6772 18.056 55.5905 17.8465C55.5038 17.6369 55.3755 17.4471 55.2134 17.2885C54.8506 16.9344 54.4878 16.5803 54.14 16.2154C52.3431 14.2773 52.8132 11.3754 55.1233 10.0876Z" fill="#FEFEFE"/>
<path d="M0.107323 49.4253H0.137379C0.137379 49.451 0.137379 49.4768 0.137379 49.5025C0.112435 49.506 0.0870126 49.5029 0.0636535 49.4935C0.0402944 49.4841 0.019818 49.4687 0.00427246 49.4489C0.0357993 49.4317 0.071455 49.4235 0.107323 49.4253Z" fill="#FEFEFE"/>
<path d="M0.107344 46.4333C0.0694347 46.4337 0.0322021 46.4233 0 46.4033C0.0416811 46.3781 0.0888138 46.3634 0.1374 46.3604C0.1374 46.384 0.1374 46.4097 0.1374 46.4333C0.126899 46.4365 0.115698 46.4365 0.105197 46.4333H0.107344Z" fill="#FEFEFE"/>
<path d="M53.0601 68.9439C52.272 68.9388 51.5001 69.1676 50.8421 69.6013C50.1842 70.035 49.6697 70.6541 49.3639 71.3803C49.0581 72.1064 48.9747 72.907 49.1242 73.6806C49.2738 74.4542 49.6495 75.166 50.2039 75.726C50.7583 76.286 51.4665 76.6689 52.2387 76.8263C53.0109 76.9837 53.8125 76.9086 54.5419 76.6103C55.2714 76.312 55.8959 75.8041 56.3365 75.1508C56.777 74.4975 57.0138 73.7282 57.0168 72.9403C57.0196 72.4181 56.9195 71.9005 56.7221 71.417C56.5248 70.9335 56.2341 70.4936 55.8667 70.1225C55.4992 69.7514 55.0622 69.4563 54.5807 69.254C54.0991 69.0518 53.5824 68.9464 53.0601 68.9439ZM53.0837 74.2367C52.7342 74.2483 52.3944 74.1208 52.1388 73.8821C51.8832 73.6435 51.7327 73.3133 51.7204 72.9639C51.7105 72.6127 51.8405 72.2719 52.0818 72.0165C52.3232 71.7611 52.6562 71.612 53.0075 71.6021C53.3588 71.5921 53.6997 71.7221 53.9551 71.9634C54.2106 72.2047 54.3597 72.5376 54.3697 72.8888C54.3745 73.0619 54.345 73.2343 54.2829 73.3959C54.2208 73.5576 54.1272 73.7053 54.0076 73.8306C53.8881 73.956 53.7449 74.0564 53.5863 74.1261C53.4277 74.1957 53.2569 74.2333 53.0837 74.2367ZM53.0601 68.9439C52.272 68.9388 51.5001 69.1676 50.8421 69.6013C50.1842 70.035 49.6697 70.6541 49.3639 71.3803C49.0581 72.1064 48.9747 72.907 49.1242 73.6806C49.2738 74.4542 49.6495 75.166 50.2039 75.726C50.7583 76.286 51.4665 76.6689 52.2387 76.8263C53.0109 76.9837 53.8125 76.9086 54.5419 76.6103C55.2714 76.312 55.8959 75.8041 56.3365 75.1508C56.777 74.4975 57.0138 73.7282 57.0168 72.9403C57.0196 72.4181 56.9195 71.9005 56.7221 71.417C56.5248 70.9335 56.2341 70.4936 55.8667 70.1225C55.4992 69.7514 55.0622 69.4563 54.5807 69.254C54.0991 69.0518 53.5824 68.9464 53.0601 68.9439ZM53.0837 74.2367C52.7342 74.2483 52.3944 74.1208 52.1388 73.8821C51.8832 73.6435 51.7327 73.3133 51.7204 72.9639C51.7105 72.6127 51.8405 72.2719 52.0818 72.0165C52.3232 71.7611 52.6562 71.612 53.0075 71.6021C53.3588 71.5921 53.6997 71.7221 53.9551 71.9634C54.2106 72.2047 54.3597 72.5376 54.3697 72.8888C54.3745 73.0619 54.345 73.2343 54.2829 73.3959C54.2208 73.5576 54.1272 73.7053 54.0076 73.8306C53.8881 73.956 53.7449 74.0564 53.5863 74.1261C53.4277 74.1957 53.2569 74.2333 53.0837 74.2367ZM53.0601 68.9439C52.272 68.9388 51.5001 69.1676 50.8421 69.6013C50.1842 70.035 49.6697 70.6541 49.3639 71.3803C49.0581 72.1064 48.9747 72.907 49.1242 73.6806C49.2738 74.4542 49.6495 75.166 50.2039 75.726C50.7583 76.286 51.4665 76.6689 52.2387 76.8263C53.0109 76.9837 53.8125 76.9086 54.5419 76.6103C55.2714 76.312 55.8959 75.8041 56.3365 75.1508C56.777 74.4975 57.0138 73.7282 57.0168 72.9403C57.0196 72.4181 56.9195 71.9005 56.7221 71.417C56.5248 70.9335 56.2341 70.4936 55.8667 70.1225C55.4992 69.7514 55.0622 69.4563 54.5807 69.254C54.0991 69.0518 53.5824 68.9464 53.0601 68.9439ZM53.0837 74.2367C52.7342 74.2483 52.3944 74.1208 52.1388 73.8821C51.8832 73.6435 51.7327 73.3133 51.7204 72.9639C51.7105 72.6127 51.8405 72.2719 52.0818 72.0165C52.3232 71.7611 52.6562 71.612 53.0075 71.6021C53.3588 71.5921 53.6997 71.7221 53.9551 71.9634C54.2106 72.2047 54.3597 72.5376 54.3697 72.8888C54.3745 73.0619 54.345 73.2343 54.2829 73.3959C54.2208 73.5576 54.1272 73.7053 54.0076 73.8306C53.8881 73.956 53.7449 74.0564 53.5863 74.1261C53.4277 74.1957 53.2569 74.2333 53.0837 74.2367ZM71.6413 67.6088C70.8528 67.6042 70.0807 67.8334 69.4225 68.2675C68.7643 68.7015 68.2496 69.321 67.9436 70.0475C67.6375 70.774 67.5538 71.5749 67.7031 72.3489C67.8523 73.1229 68.2278 73.8354 68.782 74.3961C69.3363 74.9568 70.0444 75.3406 70.8168 75.4989C71.5892 75.6573 72.3913 75.5831 73.1215 75.2858C73.8518 74.9884 74.4775 74.4813 74.9194 73.8285C75.3614 73.1756 75.5998 72.4064 75.6044 71.6182C75.6012 70.564 75.1841 69.5532 74.4429 68.8034C73.7017 68.0535 72.6957 67.6246 71.6413 67.6088ZM71.5941 72.9017C71.3356 72.8974 71.0842 72.8166 70.8717 72.6696C70.6591 72.5225 70.4949 72.3158 70.3999 72.0755C70.3048 71.8352 70.2831 71.5721 70.3375 71.3195C70.392 71.0669 70.5201 70.836 70.7057 70.6562C70.8913 70.4763 71.1261 70.3555 71.3803 70.309C71.6346 70.2625 71.8969 70.2923 72.1342 70.3948C72.3715 70.4973 72.5731 70.6678 72.7135 70.8848C72.8539 71.1018 72.9268 71.3555 72.923 71.6139C72.9264 71.7878 72.8941 71.9606 72.8281 72.1215C72.7621 72.2825 72.6638 72.4282 72.5392 72.5497C72.4147 72.6712 72.2666 72.7658 72.104 72.8278C71.9415 72.8899 71.7679 72.9179 71.5941 72.9102V72.9017ZM53.0601 68.9353C52.272 68.9302 51.5001 69.159 50.8421 69.5927C50.1842 70.0264 49.6697 70.6455 49.3639 71.3717C49.0581 72.0979 48.9747 72.8984 49.1242 73.672C49.2738 74.4456 49.6495 75.1574 50.2039 75.7174C50.7583 76.2774 51.4665 76.6603 52.2387 76.8177C53.0109 76.9752 53.8125 76.9 54.5419 76.6017C55.2714 76.3034 55.8959 75.7955 56.3365 75.1422C56.777 74.4889 57.0138 73.7196 57.0168 72.9317C57.0202 71.8786 56.6055 70.8672 55.8636 70.1195C55.1218 69.3718 54.1135 68.949 53.0601 68.9439V68.9353ZM53.0837 74.2281C52.7342 74.2397 52.3944 74.1122 52.1388 73.8736C51.8832 73.6349 51.7327 73.3047 51.7204 72.9553C51.7105 72.6041 51.8405 72.2633 52.0818 72.0079C52.3232 71.7525 52.6562 71.6034 53.0075 71.5935C53.3588 71.5835 53.6997 71.7135 53.9551 71.9548C54.2106 72.1961 54.3597 72.529 54.3697 72.8802C54.3757 73.054 54.347 73.2273 54.2854 73.39C54.2238 73.5526 54.1305 73.7014 54.0108 73.8276C53.8911 73.9539 53.7475 74.055 53.5883 74.1253C53.4292 74.1955 53.2576 74.2334 53.0837 74.2367V74.2281ZM71.6413 67.6088C70.8528 67.6042 70.0807 67.8334 69.4225 68.2675C68.7643 68.7015 68.2496 69.321 67.9436 70.0475C67.6375 70.774 67.5538 71.5749 67.7031 72.3489C67.8523 73.1229 68.2278 73.8354 68.782 74.3961C69.3363 74.9568 70.0444 75.3406 70.8168 75.4989C71.5892 75.6573 72.3913 75.5831 73.1215 75.2858C73.8518 74.9884 74.4775 74.4813 74.9194 73.8285C75.3614 73.1756 75.5998 72.4064 75.6044 71.6182C75.6012 70.564 75.1841 69.5532 74.4429 68.8034C73.7017 68.0535 72.6957 67.6246 71.6413 67.6088ZM71.5941 72.9017C71.3356 72.8974 71.0842 72.8166 70.8717 72.6696C70.6591 72.5225 70.4949 72.3158 70.3999 72.0755C70.3048 71.8352 70.2831 71.5721 70.3375 71.3195C70.392 71.0669 70.5201 70.836 70.7057 70.6562C70.8913 70.4763 71.1261 70.3555 71.3803 70.309C71.6346 70.2625 71.8969 70.2923 72.1342 70.3948C72.3715 70.4973 72.5731 70.6678 72.7135 70.8848C72.8539 71.1018 72.9268 71.3555 72.923 71.6139C72.9264 71.7878 72.8941 71.9606 72.8281 72.1215C72.7621 72.2825 72.6638 72.4282 72.5392 72.5497C72.4147 72.6712 72.2666 72.7658 72.104 72.8278C71.9415 72.8899 71.7679 72.9179 71.5941 72.9102V72.9017ZM53.0601 68.9353C52.272 68.9302 51.5001 69.159 50.8421 69.5927C50.1842 70.0264 49.6697 70.6455 49.3639 71.3717C49.0581 72.0979 48.9747 72.8984 49.1242 73.672C49.2738 74.4456 49.6495 75.1574 50.2039 75.7174C50.7583 76.2774 51.4665 76.6603 52.2387 76.8177C53.0109 76.9752 53.8125 76.9 54.5419 76.6017C55.2714 76.3034 55.8959 75.7955 56.3365 75.1422C56.777 74.4889 57.0138 73.7196 57.0168 72.9317C57.0202 71.8786 56.6055 70.8672 55.8636 70.1195C55.1218 69.3718 54.1135 68.949 53.0601 68.9439V68.9353ZM53.0837 74.2281C52.7342 74.2397 52.3944 74.1122 52.1388 73.8736C51.8832 73.6349 51.7327 73.3047 51.7204 72.9553C51.7105 72.6041 51.8405 72.2633 52.0818 72.0079C52.3232 71.7525 52.6562 71.6034 53.0075 71.5935C53.3588 71.5835 53.6997 71.7135 53.9551 71.9548C54.2106 72.1961 54.3597 72.529 54.3697 72.8802C54.3757 73.054 54.347 73.2273 54.2854 73.39C54.2238 73.5526 54.1305 73.7014 54.0108 73.8276C53.8911 73.9539 53.7475 74.055 53.5883 74.1253C53.4292 74.1955 53.2576 74.2334 53.0837 74.2367V74.2281ZM71.6413 67.6088C70.8528 67.6042 70.0807 67.8334 69.4225 68.2675C68.7643 68.7015 68.2496 69.321 67.9436 70.0475C67.6375 70.774 67.5538 71.5749 67.7031 72.3489C67.8523 73.1229 68.2278 73.8354 68.782 74.3961C69.3363 74.9568 70.0444 75.3406 70.8168 75.4989C71.5892 75.6573 72.3913 75.5831 73.1215 75.2858C73.8518 74.9884 74.4775 74.4813 74.9194 73.8285C75.3614 73.1756 75.5998 72.4064 75.6044 71.6182C75.6012 70.564 75.1841 69.5532 74.4429 68.8034C73.7017 68.0535 72.6957 67.6246 71.6413 67.6088ZM71.5941 72.9017C71.3356 72.8974 71.0842 72.8166 70.8717 72.6696C70.6591 72.5225 70.4949 72.3158 70.3999 72.0755C70.3048 71.8352 70.2831 71.5721 70.3375 71.3195C70.392 71.0669 70.5201 70.836 70.7057 70.6562C70.8913 70.4763 71.1261 70.3555 71.3803 70.309C71.6346 70.2625 71.8969 70.2923 72.1342 70.3948C72.3715 70.4973 72.5731 70.6678 72.7135 70.8848C72.8539 71.1018 72.9268 71.3555 72.923 71.6139C72.9264 71.7878 72.8941 71.9606 72.8281 72.1215C72.7621 72.2825 72.6638 72.4282 72.5392 72.5497C72.4147 72.6712 72.2666 72.7658 72.104 72.8278C71.9415 72.8899 71.7679 72.9179 71.5941 72.9102V72.9017ZM53.0601 68.9353C52.272 68.9302 51.5001 69.159 50.8421 69.5927C50.1842 70.0264 49.6697 70.6455 49.3639 71.3717C49.0581 72.0979 48.9747 72.8984 49.1242 73.672C49.2738 74.4456 49.6495 75.1574 50.2039 75.7174C50.7583 76.2774 51.4665 76.6603 52.2387 76.8177C53.0109 76.9752 53.8125 76.9 54.5419 76.6017C55.2714 76.3034 55.8959 75.7955 56.3365 75.1422C56.777 74.4889 57.0138 73.7196 57.0168 72.9317C57.0202 71.8786 56.6055 70.8672 55.8636 70.1195C55.1218 69.3718 54.1135 68.949 53.0601 68.9439V68.9353ZM53.0837 74.2281C52.7342 74.2397 52.3944 74.1122 52.1388 73.8736C51.8832 73.6349 51.7327 73.3047 51.7204 72.9553C51.7105 72.6041 51.8405 72.2633 52.0818 72.0079C52.3232 71.7525 52.6562 71.6034 53.0075 71.5935C53.3588 71.5835 53.6997 71.7135 53.9551 71.9548C54.2106 72.1961 54.3597 72.529 54.3697 72.8802C54.3757 73.054 54.347 73.2273 54.2854 73.39C54.2238 73.5526 54.1305 73.7014 54.0108 73.8276C53.8911 73.9539 53.7475 74.055 53.5883 74.1253C53.4292 74.1955 53.2576 74.2334 53.0837 74.2367V74.2281ZM71.6413 67.6088C70.8528 67.6042 70.0807 67.8334 69.4225 68.2675C68.7643 68.7015 68.2496 69.321 67.9436 70.0475C67.6375 70.774 67.5538 71.5749 67.7031 72.3489C67.8523 73.1229 68.2278 73.8354 68.782 74.3961C69.3363 74.9568 70.0444 75.3406 70.8168 75.4989C71.5892 75.6573 72.3913 75.5831 73.1215 75.2858C73.8518 74.9884 74.4775 74.4813 74.9194 73.8285C75.3614 73.1756 75.5998 72.4064 75.6044 71.6182C75.6012 70.564 75.1841 69.5532 74.4429 68.8034C73.7017 68.0535 72.6957 67.6246 71.6413 67.6088ZM71.5941 72.9017C71.3356 72.8974 71.0842 72.8166 70.8717 72.6696C70.6591 72.5225 70.4949 72.3158 70.3999 72.0755C70.3048 71.8352 70.2831 71.5721 70.3375 71.3195C70.392 71.0669 70.5201 70.836 70.7057 70.6562C70.8913 70.4763 71.1261 70.3555 71.3803 70.309C71.6346 70.2625 71.8969 70.2923 72.1342 70.3948C72.3715 70.4973 72.5731 70.6678 72.7135 70.8848C72.8539 71.1018 72.9268 71.3555 72.923 71.6139C72.9264 71.7878 72.8941 71.9606 72.8281 72.1215C72.7621 72.2825 72.6638 72.4282 72.5392 72.5497C72.4147 72.6712 72.2666 72.7658 72.104 72.8278C71.9415 72.8899 71.7679 72.9179 71.5941 72.9102V72.9017ZM53.0601 68.9353C52.272 68.9302 51.5001 69.159 50.8421 69.5927C50.1842 70.0264 49.6697 70.6455 49.3639 71.3717C49.0581 72.0979 48.9747 72.8984 49.1242 73.672C49.2738 74.4456 49.6495 75.1574 50.2039 75.7174C50.7583 76.2774 51.4665 76.6603 52.2387 76.8177C53.0109 76.9752 53.8125 76.9 54.5419 76.6017C55.2714 76.3034 55.8959 75.7955 56.3365 75.1422C56.777 74.4889 57.0138 73.7196 57.0168 72.9317C57.0202 71.8786 56.6055 70.8672 55.8636 70.1195C55.1218 69.3718 54.1135 68.949 53.0601 68.9439V68.9353ZM53.0837 74.2281C52.7342 74.2397 52.3944 74.1122 52.1388 73.8736C51.8832 73.6349 51.7327 73.3047 51.7204 72.9553C51.7105 72.6041 51.8405 72.2633 52.0818 72.0079C52.3232 71.7525 52.6562 71.6034 53.0075 71.5935C53.3588 71.5835 53.6997 71.7135 53.9551 71.9548C54.2106 72.1961 54.3597 72.529 54.3697 72.8802C54.3757 73.054 54.347 73.2273 54.2854 73.39C54.2238 73.5526 54.1305 73.7014 54.0108 73.8276C53.8911 73.9539 53.7475 74.055 53.5883 74.1253C53.4292 74.1955 53.2576 74.2334 53.0837 74.2367V74.2281ZM71.6413 67.6088C70.8528 67.6042 70.0807 67.8334 69.4225 68.2675C68.7643 68.7015 68.2496 69.321 67.9436 70.0475C67.6375 70.774 67.5538 71.5749 67.7031 72.3489C67.8523 73.1229 68.2278 73.8354 68.782 74.3961C69.3363 74.9568 70.0444 75.3406 70.8168 75.4989C71.5892 75.6573 72.3913 75.5831 73.1215 75.2858C73.8518 74.9884 74.4775 74.4813 74.9194 73.8285C75.3614 73.1756 75.5998 72.4064 75.6044 71.6182C75.6012 70.564 75.1841 69.5532 74.4429 68.8034C73.7017 68.0535 72.6957 67.6246 71.6413 67.6088ZM71.5941 72.9017C71.3356 72.8974 71.0842 72.8166 70.8717 72.6696C70.6591 72.5225 70.4949 72.3158 70.3999 72.0755C70.3048 71.8352 70.2831 71.5721 70.3375 71.3195C70.392 71.0669 70.5201 70.836 70.7057 70.6562C70.8913 70.4763 71.1261 70.3555 71.3803 70.309C71.6346 70.2625 71.8969 70.2923 72.1342 70.3948C72.3715 70.4973 72.5731 70.6678 72.7135 70.8848C72.8539 71.1018 72.9268 71.3555 72.923 71.6139C72.9264 71.7878 72.8941 71.9606 72.8281 72.1215C72.7621 72.2825 72.6638 72.4282 72.5392 72.5497C72.4147 72.6712 72.2666 72.7658 72.104 72.8278C71.9415 72.8899 71.7679 72.9179 71.5941 72.9102V72.9017ZM53.0601 68.9353C52.272 68.9302 51.5001 69.159 50.8421 69.5927C50.1842 70.0264 49.6697 70.6455 49.3639 71.3717C49.0581 72.0979 48.9747 72.8984 49.1242 73.672C49.2738 74.4456 49.6495 75.1574 50.2039 75.7174C50.7583 76.2774 51.4665 76.6603 52.2387 76.8177C53.0109 76.9752 53.8125 76.9 54.5419 76.6017C55.2714 76.3034 55.8959 75.7955 56.3365 75.1422C56.777 74.4889 57.0138 73.7196 57.0168 72.9317C57.0202 71.8786 56.6055 70.8672 55.8636 70.1195C55.1218 69.3718 54.1135 68.949 53.0601 68.9439V68.9353ZM53.0837 74.2281C52.7342 74.2397 52.3944 74.1122 52.1388 73.8736C51.8832 73.6349 51.7327 73.3047 51.7204 72.9553C51.7105 72.6041 51.8405 72.2633 52.0818 72.0079C52.3232 71.7525 52.6562 71.6034 53.0075 71.5935C53.3588 71.5835 53.6997 71.7135 53.9551 71.9548C54.2106 72.1961 54.3597 72.529 54.3697 72.8802C54.3757 73.054 54.347 73.2273 54.2854 73.39C54.2238 73.5526 54.1305 73.7014 54.0108 73.8276C53.8911 73.9539 53.7475 74.055 53.5883 74.1253C53.4292 74.1955 53.2576 74.2334 53.0837 74.2367V74.2281ZM71.6413 67.6088C70.8528 67.6042 70.0807 67.8334 69.4225 68.2675C68.7643 68.7015 68.2496 69.321 67.9436 70.0475C67.6375 70.774 67.5538 71.5749 67.7031 72.3489C67.8523 73.1229 68.2278 73.8354 68.782 74.3961C69.3363 74.9568 70.0444 75.3406 70.8168 75.4989C71.5892 75.6573 72.3913 75.5831 73.1215 75.2858C73.8518 74.9884 74.4775 74.4813 74.9194 73.8285C75.3614 73.1756 75.5998 72.4064 75.6044 71.6182C75.6012 70.564 75.1841 69.5532 74.4429 68.8034C73.7017 68.0535 72.6957 67.6246 71.6413 67.6088ZM71.5941 72.9017C71.3356 72.8974 71.0842 72.8166 70.8717 72.6696C70.6591 72.5225 70.4949 72.3158 70.3999 72.0755C70.3048 71.8352 70.2831 71.5721 70.3375 71.3195C70.392 71.0669 70.5201 70.836 70.7057 70.6562C70.8913 70.4763 71.1261 70.3555 71.3803 70.309C71.6346 70.2625 71.8969 70.2923 72.1342 70.3948C72.3715 70.4973 72.5731 70.6678 72.7135 70.8848C72.8539 71.1018 72.9268 71.3555 72.923 71.6139C72.9264 71.7878 72.8941 71.9606 72.8281 72.1215C72.7621 72.2825 72.6638 72.4282 72.5392 72.5497C72.4147 72.6712 72.2666 72.7658 72.104 72.8278C71.9415 72.8899 71.7679 72.9179 71.5941 72.9102V72.9017ZM53.0601 68.9353C52.272 68.9302 51.5001 69.159 50.8421 69.5927C50.1842 70.0264 49.6697 70.6455 49.3639 71.3717C49.0581 72.0979 48.9747 72.8984 49.1242 73.672C49.2738 74.4456 49.6495 75.1574 50.2039 75.7174C50.7583 76.2774 51.4665 76.6603 52.2387 76.8177C53.0109 76.9752 53.8125 76.9 54.5419 76.6017C55.2714 76.3034 55.8959 75.7955 56.3365 75.1422C56.777 74.4889 57.0138 73.7196 57.0168 72.9317C57.0202 71.8786 56.6055 70.8672 55.8636 70.1195C55.1218 69.3718 54.1135 68.949 53.0601 68.9439V68.9353ZM53.0837 74.2281C52.7342 74.2397 52.3944 74.1122 52.1388 73.8736C51.8832 73.6349 51.7327 73.3047 51.7204 72.9553C51.7105 72.6041 51.8405 72.2633 52.0818 72.0079C52.3232 71.7525 52.6562 71.6034 53.0075 71.5935C53.3588 71.5835 53.6997 71.7135 53.9551 71.9548C54.2106 72.1961 54.3597 72.529 54.3697 72.8802C54.3757 73.054 54.347 73.2273 54.2854 73.39C54.2238 73.5526 54.1305 73.7014 54.0108 73.8276C53.8911 73.9539 53.7475 74.055 53.5883 74.1253C53.4292 74.1955 53.2576 74.2334 53.0837 74.2367V74.2281ZM71.6413 67.6088C70.8528 67.6042 70.0807 67.8334 69.4225 68.2675C68.7643 68.7015 68.2496 69.321 67.9436 70.0475C67.6375 70.774 67.5538 71.5749 67.7031 72.3489C67.8523 73.1229 68.2278 73.8354 68.782 74.3961C69.3363 74.9568 70.0444 75.3406 70.8168 75.4989C71.5892 75.6573 72.3913 75.5831 73.1215 75.2858C73.8518 74.9884 74.4775 74.4813 74.9194 73.8285C75.3614 73.1756 75.5998 72.4064 75.6044 71.6182C75.6012 70.564 75.1841 69.5532 74.4429 68.8034C73.7017 68.0535 72.6957 67.6246 71.6413 67.6088ZM71.5941 72.9017C71.3356 72.8974 71.0842 72.8166 70.8717 72.6696C70.6591 72.5225 70.4949 72.3158 70.3999 72.0755C70.3048 71.8352 70.2831 71.5721 70.3375 71.3195C70.392 71.0669 70.5201 70.836 70.7057 70.6562C70.8913 70.4763 71.1261 70.3555 71.3803 70.309C71.6346 70.2625 71.8969 70.2923 72.1342 70.3948C72.3715 70.4973 72.5731 70.6678 72.7135 70.8848C72.8539 71.1018 72.9268 71.3555 72.923 71.6139C72.9264 71.7878 72.8941 71.9606 72.8281 72.1215C72.7621 72.2825 72.6638 72.4282 72.5392 72.5497C72.4147 72.6712 72.2666 72.7658 72.104 72.8278C71.9415 72.8899 71.7679 72.9179 71.5941 72.9102V72.9017ZM53.0601 68.9353C52.272 68.9302 51.5001 69.159 50.8421 69.5927C50.1842 70.0264 49.6697 70.6455 49.3639 71.3717C49.0581 72.0979 48.9747 72.8984 49.1242 73.672C49.2738 74.4456 49.6495 75.1574 50.2039 75.7174C50.7583 76.2774 51.4665 76.6603 52.2387 76.8177C53.0109 76.9752 53.8125 76.9 54.5419 76.6017C55.2714 76.3034 55.8959 75.7955 56.3365 75.1422C56.777 74.4889 57.0138 73.7196 57.0168 72.9317C57.0202 71.8786 56.6055 70.8672 55.8636 70.1195C55.1218 69.3718 54.1135 68.949 53.0601 68.9439V68.9353ZM53.0837 74.2281C52.7342 74.2397 52.3944 74.1122 52.1388 73.8736C51.8832 73.6349 51.7327 73.3047 51.7204 72.9553C51.7105 72.6041 51.8405 72.2633 52.0818 72.0079C52.3232 71.7525 52.6562 71.6034 53.0075 71.5935C53.3588 71.5835 53.6997 71.7135 53.9551 71.9548C54.2106 72.1961 54.3597 72.529 54.3697 72.8802C54.3757 73.054 54.347 73.2273 54.2854 73.39C54.2238 73.5526 54.1305 73.7014 54.0108 73.8276C53.8911 73.9539 53.7475 74.055 53.5883 74.1253C53.4292 74.1955 53.2576 74.2334 53.0837 74.2367V74.2281ZM71.6413 67.6088C70.8528 67.6042 70.0807 67.8334 69.4225 68.2675C68.7643 68.7015 68.2496 69.321 67.9436 70.0475C67.6375 70.774 67.5538 71.5749 67.7031 72.3489C67.8523 73.1229 68.2278 73.8354 68.782 74.3961C69.3363 74.9568 70.0444 75.3406 70.8168 75.4989C71.5892 75.6573 72.3913 75.5831 73.1215 75.2858C73.8518 74.9884 74.4775 74.4813 74.9194 73.8285C75.3614 73.1756 75.5998 72.4064 75.6044 71.6182C75.6012 70.564 75.1841 69.5532 74.4429 68.8034C73.7017 68.0535 72.6957 67.6246 71.6413 67.6088ZM71.5941 72.9017C71.3356 72.8974 71.0842 72.8166 70.8717 72.6696C70.6591 72.5225 70.4949 72.3158 70.3999 72.0755C70.3048 71.8352 70.2831 71.5721 70.3375 71.3195C70.392 71.0669 70.5201 70.836 70.7057 70.6562C70.8913 70.4763 71.1261 70.3555 71.3803 70.309C71.6346 70.2625 71.8969 70.2923 72.1342 70.3948C72.3715 70.4973 72.5731 70.6678 72.7135 70.8848C72.8539 71.1018 72.9268 71.3555 72.923 71.6139C72.9264 71.7878 72.8941 71.9606 72.8281 72.1215C72.7621 72.2825 72.6638 72.4282 72.5392 72.5497C72.4147 72.6712 72.2666 72.7658 72.104 72.8278C71.9415 72.8899 71.7679 72.9179 71.5941 72.9102V72.9017ZM53.0601 68.9353C52.272 68.9302 51.5001 69.159 50.8421 69.5927C50.1842 70.0264 49.6697 70.6455 49.3639 71.3717C49.0581 72.0979 48.9747 72.8984 49.1242 73.672C49.2738 74.4456 49.6495 75.1574 50.2039 75.7174C50.7583 76.2774 51.4665 76.6603 52.2387 76.8177C53.0109 76.9752 53.8125 76.9 54.5419 76.6017C55.2714 76.3034 55.8959 75.7955 56.3365 75.1422C56.777 74.4889 57.0138 73.7196 57.0168 72.9317C57.0202 71.8786 56.6055 70.8672 55.8636 70.1195C55.1218 69.3718 54.1135 68.949 53.0601 68.9439V68.9353ZM53.0837 74.2281C52.7342 74.2397 52.3944 74.1122 52.1388 73.8736C51.8832 73.6349 51.7327 73.3047 51.7204 72.9553C51.7105 72.6041 51.8405 72.2633 52.0818 72.0079C52.3232 71.7525 52.6562 71.6034 53.0075 71.5935C53.3588 71.5835 53.6997 71.7135 53.9551 71.9548C54.2106 72.1961 54.3597 72.529 54.3697 72.8802C54.3757 73.054 54.347 73.2273 54.2854 73.39C54.2238 73.5526 54.1305 73.7014 54.0108 73.8276C53.8911 73.9539 53.7475 74.055 53.5883 74.1253C53.4292 74.1955 53.2576 74.2334 53.0837 74.2367V74.2281ZM71.6413 67.6088C70.8528 67.6042 70.0807 67.8334 69.4225 68.2675C68.7643 68.7015 68.2496 69.321 67.9436 70.0475C67.6375 70.774 67.5538 71.5749 67.7031 72.3489C67.8523 73.1229 68.2278 73.8354 68.782 74.3961C69.3363 74.9568 70.0444 75.3406 70.8168 75.4989C71.5892 75.6573 72.3913 75.5831 73.1215 75.2858C73.8518 74.9884 74.4775 74.4813 74.9194 73.8285C75.3614 73.1756 75.5998 72.4064 75.6044 71.6182C75.6012 70.564 75.1841 69.5532 74.4429 68.8034C73.7017 68.0535 72.6957 67.6246 71.6413 67.6088ZM71.5941 72.9017C71.3356 72.8974 71.0842 72.8166 70.8717 72.6696C70.6591 72.5225 70.4949 72.3158 70.3999 72.0755C70.3048 71.8352 70.2831 71.5721 70.3375 71.3195C70.392 71.0669 70.5201 70.836 70.7057 70.6562C70.8913 70.4763 71.1261 70.3555 71.3803 70.309C71.6346 70.2625 71.8969 70.2923 72.1342 70.3948C72.3715 70.4973 72.5731 70.6678 72.7135 70.8848C72.8539 71.1018 72.9268 71.3555 72.923 71.6139C72.9264 71.7878 72.8941 71.9606 72.8281 72.1215C72.7621 72.2825 72.6638 72.4282 72.5392 72.5497C72.4147 72.6712 72.2666 72.7658 72.104 72.8278C71.9415 72.8899 71.7679 72.9179 71.5941 72.9102V72.9017ZM53.0601 68.9353C52.272 68.9302 51.5001 69.159 50.8421 69.5927C50.1842 70.0264 49.6697 70.6455 49.3639 71.3717C49.0581 72.0979 48.9747 72.8984 49.1242 73.672C49.2738 74.4456 49.6495 75.1574 50.2039 75.7174C50.7583 76.2774 51.4665 76.6603 52.2387 76.8177C53.0109 76.9752 53.8125 76.9 54.5419 76.6017C55.2714 76.3034 55.8959 75.7955 56.3365 75.1422C56.777 74.4889 57.0138 73.7196 57.0168 72.9317C57.0202 71.8786 56.6055 70.8672 55.8636 70.1195C55.1218 69.3718 54.1135 68.949 53.0601 68.9439V68.9353ZM53.0837 74.2281C52.7342 74.2397 52.3944 74.1122 52.1388 73.8736C51.8832 73.6349 51.7327 73.3047 51.7204 72.9553C51.7105 72.6041 51.8405 72.2633 52.0818 72.0079C52.3232 71.7525 52.6562 71.6034 53.0075 71.5935C53.3588 71.5835 53.6997 71.7135 53.9551 71.9548C54.2106 72.1961 54.3597 72.529 54.3697 72.8802C54.3757 73.054 54.347 73.2273 54.2854 73.39C54.2238 73.5526 54.1305 73.7014 54.0108 73.8276C53.8911 73.9539 53.7475 74.055 53.5883 74.1253C53.4292 74.1955 53.2576 74.2334 53.0837 74.2367V74.2281ZM71.6413 67.6088C70.8528 67.6042 70.0807 67.8334 69.4225 68.2675C68.7643 68.7015 68.2496 69.321 67.9436 70.0475C67.6375 70.774 67.5538 71.5749 67.7031 72.3489C67.8523 73.1229 68.2278 73.8354 68.782 74.3961C69.3363 74.9568 70.0444 75.3406 70.8168 75.4989C71.5892 75.6573 72.3913 75.5831 73.1215 75.2858C73.8518 74.9884 74.4775 74.4813 74.9194 73.8285C75.3614 73.1756 75.5998 72.4064 75.6044 71.6182C75.6012 70.564 75.1841 69.5532 74.4429 68.8034C73.7017 68.0535 72.6957 67.6246 71.6413 67.6088ZM71.5941 72.9017C71.3356 72.8974 71.0842 72.8166 70.8717 72.6696C70.6591 72.5225 70.4949 72.3158 70.3999 72.0755C70.3048 71.8352 70.2831 71.5721 70.3375 71.3195C70.392 71.0669 70.5201 70.836 70.7057 70.6562C70.8913 70.4763 71.1261 70.3555 71.3803 70.309C71.6346 70.2625 71.8969 70.2923 72.1342 70.3948C72.3715 70.4973 72.5731 70.6678 72.7135 70.8848C72.8539 71.1018 72.9268 71.3555 72.923 71.6139C72.9264 71.7878 72.8941 71.9606 72.8281 72.1215C72.7621 72.2825 72.6638 72.4282 72.5392 72.5497C72.4147 72.6712 72.2666 72.7658 72.104 72.8278C71.9415 72.8899 71.7679 72.9179 71.5941 72.9102V72.9017ZM53.0601 68.9353C52.272 68.9302 51.5001 69.159 50.8421 69.5927C50.1842 70.0264 49.6697 70.6455 49.3639 71.3717C49.0581 72.0979 48.9747 72.8984 49.1242 73.672C49.2738 74.4456 49.6495 75.1574 50.2039 75.7174C50.7583 76.2774 51.4665 76.6603 52.2387 76.8177C53.0109 76.9752 53.8125 76.9 54.5419 76.6017C55.2714 76.3034 55.8959 75.7955 56.3365 75.1422C56.777 74.4889 57.0138 73.7196 57.0168 72.9317C57.0202 71.8786 56.6055 70.8672 55.8636 70.1195C55.1218 69.3718 54.1135 68.949 53.0601 68.9439V68.9353ZM53.0837 74.2281C52.7342 74.2397 52.3944 74.1122 52.1388 73.8736C51.8832 73.6349 51.7327 73.3047 51.7204 72.9553C51.7105 72.6041 51.8405 72.2633 52.0818 72.0079C52.3232 71.7525 52.6562 71.6034 53.0075 71.5935C53.3588 71.5835 53.6997 71.7135 53.9551 71.9548C54.2106 72.1961 54.3597 72.529 54.3697 72.8802C54.3757 73.054 54.347 73.2273 54.2854 73.39C54.2238 73.5526 54.1305 73.7014 54.0108 73.8276C53.8911 73.9539 53.7475 74.055 53.5883 74.1253C53.4292 74.1955 53.2576 74.2334 53.0837 74.2367V74.2281ZM71.6413 67.6088C70.8528 67.6042 70.0807 67.8334 69.4225 68.2675C68.7643 68.7015 68.2496 69.321 67.9436 70.0475C67.6375 70.774 67.5538 71.5749 67.7031 72.3489C67.8523 73.1229 68.2278 73.8354 68.782 74.3961C69.3363 74.9568 70.0444 75.3406 70.8168 75.4989C71.5892 75.6573 72.3913 75.5831 73.1215 75.2858C73.8518 74.9884 74.4775 74.4813 74.9194 73.8285C75.3614 73.1756 75.5998 72.4064 75.6044 71.6182C75.6012 70.564 75.1841 69.5532 74.4429 68.8034C73.7017 68.0535 72.6957 67.6246 71.6413 67.6088ZM71.5941 72.9017C71.3356 72.8974 71.0842 72.8166 70.8717 72.6696C70.6591 72.5225 70.4949 72.3158 70.3999 72.0755C70.3048 71.8352 70.2831 71.5721 70.3375 71.3195C70.392 71.0669 70.5201 70.836 70.7057 70.6562C70.8913 70.4763 71.1261 70.3555 71.3803 70.309C71.6346 70.2625 71.8969 70.2923 72.1342 70.3948C72.3715 70.4973 72.5731 70.6678 72.7135 70.8848C72.8539 71.1018 72.9268 71.3555 72.923 71.6139C72.9264 71.7878 72.8941 71.9606 72.8281 72.1215C72.7621 72.2825 72.6638 72.4282 72.5392 72.5497C72.4147 72.6712 72.2666 72.7658 72.104 72.8278C71.9415 72.8899 71.7679 72.9179 71.5941 72.9102V72.9017ZM71.6413 67.6088C70.8528 67.6042 70.0807 67.8334 69.4225 68.2675C68.7643 68.7015 68.2496 69.321 67.9436 70.0475C67.6375 70.774 67.5538 71.5749 67.7031 72.3489C67.8523 73.1229 68.2278 73.8354 68.782 74.3961C69.3363 74.9568 70.0444 75.3406 70.8168 75.4989C71.5892 75.6573 72.3913 75.5831 73.1215 75.2858C73.8518 74.9884 74.4775 74.4813 74.9194 73.8285C75.3614 73.1756 75.5998 72.4064 75.6044 71.6182C75.6012 70.564 75.1841 69.5532 74.4429 68.8034C73.7017 68.0535 72.6957 67.6246 71.6413 67.6088ZM71.5941 72.9017C71.3356 72.8974 71.0842 72.8166 70.8717 72.6696C70.6591 72.5225 70.4949 72.3158 70.3999 72.0755C70.3048 71.8352 70.2831 71.5721 70.3375 71.3195C70.392 71.0669 70.5201 70.836 70.7057 70.6562C70.8913 70.4763 71.1261 70.3555 71.3803 70.309C71.6346 70.2625 71.8969 70.2923 72.1342 70.3948C72.3715 70.4973 72.5731 70.6678 72.7135 70.8848C72.8539 71.1018 72.9268 71.3555 72.923 71.6139C72.9264 71.7878 72.8941 71.9606 72.8281 72.1215C72.7621 72.2825 72.6638 72.4282 72.5392 72.5497C72.4147 72.6712 72.2666 72.7658 72.104 72.8278C71.9415 72.8899 71.7679 72.9179 71.5941 72.9102V72.9017ZM53.0601 68.9353C52.272 68.9302 51.5001 69.159 50.8421 69.5927C50.1842 70.0264 49.6697 70.6455 49.3639 71.3717C49.0581 72.0979 48.9747 72.8984 49.1242 73.672C49.2738 74.4456 49.6495 75.1574 50.2039 75.7174C50.7583 76.2774 51.4665 76.6603 52.2387 76.8177C53.0109 76.9752 53.8125 76.9 54.5419 76.6017C55.2714 76.3034 55.8959 75.7955 56.3365 75.1422C56.777 74.4889 57.0138 73.7196 57.0168 72.9317C57.0202 71.8786 56.6055 70.8672 55.8636 70.1195C55.1218 69.3718 54.1135 68.949 53.0601 68.9439V68.9353ZM53.0837 74.2281C52.7342 74.2397 52.3944 74.1122 52.1388 73.8736C51.8832 73.6349 51.7327 73.3047 51.7204 72.9553C51.7105 72.6041 51.8405 72.2633 52.0818 72.0079C52.3232 71.7525 52.6562 71.6034 53.0075 71.5935C53.3588 71.5835 53.6997 71.7135 53.9551 71.9548C54.2106 72.1961 54.3597 72.529 54.3697 72.8802C54.3757 73.054 54.347 73.2273 54.2854 73.39C54.2238 73.5526 54.1305 73.7014 54.0108 73.8276C53.8911 73.9539 53.7475 74.055 53.5883 74.1253C53.4292 74.1955 53.2576 74.2334 53.0837 74.2367V74.2281ZM77.6311 64.355C76.8758 64.1908 76.2024 63.7661 75.729 63.1552C75.2589 62.5677 74.6678 62.0883 73.9959 61.7495C73.324 61.4107 72.587 61.2205 71.835 61.1918C71.0831 61.1631 70.3337 61.2965 69.6379 61.5831C68.9421 61.8697 68.3162 62.3027 67.8027 62.8526C67.0148 63.6854 66.1839 64.2606 65.0761 64.5353C63.9082 64.8229 63.1096 65.6793 62.3453 66.555C61.8859 67.0809 61.5467 67.0723 61.0572 66.613C60.7545 66.3253 60.7073 66.0292 60.952 65.69C61.219 65.3215 61.5057 64.9675 61.8107 64.6298C66.3504 59.5431 68.8037 52.9316 68.6808 46.1156C68.6335 42.718 68.67 39.3183 68.6657 35.9206C68.6657 34.0276 67.7576 32.7827 65.9735 32.2097C65.2028 31.9628 65.132 31.8555 65.396 31.0485C66.77 26.8546 68.2256 22.6779 69.6576 18.5097C70.16 17.0416 70.6451 15.5671 71.1497 14.1012C72.2231 10.9933 69.5331 8.16448 66.7915 8.1795C64.0499 8.19453 62.3281 9.77851 61.712 12.0429C60.0203 18.2371 58.277 24.4142 56.5037 30.587C56.1001 32.0036 56.1022 32.0058 54.5844 32.0058H18.1411C17.579 31.9879 17.0166 32.0325 16.4644 32.1388C15.6419 32.3013 14.9015 32.7448 14.3704 33.3933C13.8392 34.0418 13.5503 34.8549 13.5532 35.6931C13.5296 37.3136 13.5275 37.3458 11.8765 37.3072C9.38399 37.2514 7.01169 37.6463 4.91419 39.0714C3.75472 39.8275 2.75844 40.808 1.98413 41.9551C1.20981 43.1023 0.673128 44.3929 0.405749 45.7508C0.388639 45.9629 0.331068 46.1698 0.236146 46.3603C0.211937 46.3928 0.178143 46.4168 0.139536 46.429C0.139536 46.4054 0.139536 46.3796 0.139536 46.356C0.128802 46.3818 0.118068 46.4075 0.10948 46.4333C0.0171644 46.7381 0.186768 47.0772 0.00213623 47.3669V48.3306C0.184621 48.6783 0.0150175 49.0668 0.10948 49.4253C0.116098 49.4537 0.124707 49.4817 0.135243 49.509C0.135243 49.4832 0.135243 49.4574 0.135243 49.4317C0.173982 49.4436 0.207854 49.4677 0.231852 49.5004C0.427218 49.8373 0.407896 50.2237 0.465862 50.5907C1.61659 58.0105 7.91982 64.3486 15.9084 65.1427C17.3725 65.2865 18.826 65.514 20.2923 65.6407C21.0987 65.7209 21.8507 66.0835 22.4155 66.6645C24.2185 68.3845 26.2721 69.821 28.5062 70.9249C28.6279 70.9819 28.7455 71.0472 28.8583 71.1202C29.0107 71.2254 29.2297 71.3198 29.1997 71.5259C29.161 71.7899 28.8948 71.7834 28.6909 71.8113C28.3978 71.8414 28.1029 71.85 27.8085 71.8371H16.6447C16.3239 71.826 16.0026 71.8353 15.6829 71.865C15.1031 71.9163 14.5634 72.1822 14.1695 72.6106C13.7755 73.039 13.5558 73.599 13.5532 74.1809C13.5275 75.063 13.5339 75.9473 13.5532 76.8294C13.5833 78.3962 14.4313 79.2419 16.02 79.2505C18.8109 79.2698 21.5868 79.2505 24.3692 79.2505C30.9794 79.2505 37.5897 79.2505 44.1999 79.2376C45.0715 79.2376 45.7027 79.4522 46.2201 80.2206C47.1841 81.65 49.0304 82.2467 50.6985 81.8196C50.9899 81.7718 51.2714 81.6761 51.5315 81.5363C52.5534 80.8559 53.5109 80.9139 54.5972 81.5041C55.1637 81.8181 55.7994 81.9862 56.447 81.9933C57.0946 82.0005 57.7338 81.8463 58.307 81.5449C59.9816 80.725 60.8447 79.3063 60.7459 77.5377C60.6579 75.9366 61.5939 75.1038 62.5493 74.1744C62.8262 73.904 63.0731 73.9984 63.3243 74.2023C63.7708 74.5651 63.8116 75.0609 63.8159 75.5846C63.8159 76.8122 64.0306 77.997 64.8185 78.9843C66.1389 80.6305 68.2149 81.1414 70.16 80.1584C71.2033 79.6282 72.0449 79.6454 73.0883 80.1584C75.2888 81.2444 77.6461 80.4374 78.8183 78.3619C79.1926 77.675 79.3469 76.8899 79.2606 76.1125C79.213 75.7011 79.2688 75.2843 79.4228 74.8998C79.5769 74.5153 79.8244 74.1753 80.1429 73.9104C83.8914 70.5514 81.401 65.2672 77.6311 64.3722V64.355ZM66.3084 35.8734C66.3299 37.1827 66.2956 38.4919 66.287 39.799H62.6631C63.2112 38.1592 63.758 36.5187 64.3033 34.8775C64.3218 34.7611 64.3836 34.656 64.4764 34.5831C64.5691 34.5103 64.686 34.4752 64.8035 34.4847C65.6945 34.4697 66.2934 34.9655 66.3084 35.8734ZM58.9575 30.8746C60.675 24.7691 62.3925 18.6621 64.1101 12.5537C64.5545 10.974 65.5678 10.3451 67.1887 10.622C68.5283 10.856 69.2561 12.1116 68.8053 13.483C68.0861 15.6573 67.3347 17.8208 66.594 19.9907L62.7897 31.1215C62.5514 31.819 62.5536 31.819 61.8 31.8212H59.7132C58.6956 31.8126 58.6935 31.8104 58.9575 30.8746ZM57.5599 35.8691C57.6737 35.4399 57.6565 34.8754 57.9893 34.6049C58.3543 34.3088 58.9146 34.5127 59.3869 34.4976C60.0031 34.4783 60.6171 34.4976 61.2332 34.4976C61.5166 34.4976 61.6261 34.5642 61.5166 34.8625C60.9112 36.5109 60.4432 38.2086 59.7605 39.8269L56.5144 39.8141C56.742 38.4619 57.2207 37.1827 57.5599 35.8691ZM15.9105 35.8691C15.9234 34.987 16.4365 34.5234 17.336 34.4912C17.497 34.4912 17.6559 34.4912 17.8169 34.4912H54.2494C55.1726 34.4912 55.1812 34.4912 54.9279 35.3626C54.4985 36.8435 54.1657 38.3567 53.6397 39.8076H17.0655H15.9427C15.9277 38.4898 15.8976 37.1805 15.9169 35.8713L15.9105 35.8691ZM15.3759 56.9631C15.4382 57.1112 15.5004 57.2593 15.5477 57.4117C15.5949 57.5641 15.5026 57.6693 15.333 57.6456C15.176 57.6168 15.0221 57.573 14.8736 57.5147C12.8518 56.8121 11.0991 55.4976 9.85876 53.7538C8.6184 52.0099 7.95198 49.9231 7.95203 47.7833C7.96491 46.223 9.05552 45.1283 10.6313 45.0983C10.9512 45.0983 11.2754 45.0983 11.5931 45.0983C11.9946 45.0983 12.3982 45.1133 12.7975 45.0983C13.141 45.0811 13.2741 45.1992 13.2613 45.5533C13.2441 46.0877 13.2613 46.6265 13.2784 47.1587C13.3499 50.5316 14.064 53.8598 15.3824 56.9653L15.3759 56.9631ZM18.5662 62.8869C18.4674 63.0501 18.1669 62.9556 17.9543 62.9385C15.275 62.7045 12.643 62.2688 10.3007 60.8415C5.11385 57.6821 2.46675 53.0804 2.72438 46.9742C2.88539 43.1859 6.30322 39.9643 10.0968 39.8119C10.4982 39.7969 10.8997 39.8119 11.3012 39.8119V39.7926C11.81 39.7926 12.3188 39.8076 12.8254 39.7926C13.1818 39.7776 13.2913 39.9214 13.2784 40.2626C13.257 40.8228 13.2484 41.3873 13.2784 41.9475C13.302 42.3596 13.1196 42.4433 12.7567 42.4304C12.0891 42.4111 11.4192 42.4175 10.7516 42.4304C7.55271 42.4733 5.27272 44.8064 5.30278 48.0108C5.35396 51.0132 6.44867 53.9042 8.39908 56.1877C10.3495 58.4713 13.034 60.0051 15.9921 60.526C16.9281 60.6848 17.6581 60.9424 18.0144 61.8803C18.0681 62.0241 18.212 62.1336 18.2849 62.2752C18.3923 62.4834 18.71 62.6509 18.5662 62.8869ZM45.0844 76.7414C45.0157 77.0333 44.7302 76.9045 44.5434 76.9067C40.8536 76.9067 37.1639 76.9067 33.4741 76.9067H16.7886C16.6018 76.9067 16.415 76.9067 16.2282 76.9067C15.9899 76.9196 15.8998 76.8165 15.9041 76.5783C15.9041 75.9108 15.9041 75.2411 15.9041 74.5736C15.9041 74.3268 16.02 74.241 16.2433 74.2431H16.8057C25.3933 74.2431 33.9758 74.2431 42.5533 74.2431C43.0621 74.2431 43.47 74.3011 43.7791 74.7818C44.0045 75.1338 44.3631 75.4021 44.6636 75.7069C44.7753 75.8207 44.8912 75.9215 44.9964 76.0546C45.0658 76.1533 45.1101 76.2675 45.1254 76.3871C45.1407 76.5068 45.1267 76.6284 45.0844 76.7414ZM60.2822 73.0927C59.7991 73.5928 59.3204 74.0972 58.8051 74.5629C58.6408 74.6955 58.5115 74.8664 58.4288 75.0607C58.346 75.2549 58.3123 75.4665 58.3307 75.6768C58.3672 76.3207 58.3586 76.9646 58.3307 77.6085C58.2727 79.1603 56.9287 79.9695 55.5097 79.3127C54.8656 79.0101 54.2065 78.701 53.5775 78.3426C53.4146 78.2345 53.2234 78.1768 53.0279 78.1768C52.8324 78.1768 52.6412 78.2345 52.4783 78.3426C51.8771 78.6838 51.2503 78.9865 50.6255 79.2827C49.1377 79.9909 47.7831 79.1582 47.7208 77.5034C47.7079 77.1557 47.7208 76.808 47.7208 76.4603C47.972 75.3871 47.5276 74.6058 46.6924 73.977C46.4688 73.7856 46.2593 73.5783 46.0655 73.3567C44.7946 72.0689 44.7774 70.3518 46.0205 69.0082C46.5204 68.4836 47.1629 68.1165 47.8689 67.9523C48.4121 67.8127 48.9574 67.6883 49.5027 67.5638C49.6617 67.5438 49.8119 67.4797 49.9363 67.3788C50.0607 67.2779 50.1545 67.1442 50.2069 66.9929C50.2831 66.7936 50.3803 66.6029 50.4967 66.4241C51.6668 64.5053 54.4384 64.4495 55.5268 66.4091C55.9991 67.2569 56.5702 67.6561 57.459 67.7784C57.8539 67.8445 58.242 67.9466 58.6183 68.0832C59.2654 68.3038 59.8338 68.709 60.2535 69.2486C60.6731 69.7882 60.9256 70.4388 60.9799 71.1202C61.0134 71.4799 60.9684 71.8426 60.8479 72.1831C60.7274 72.5237 60.5344 72.834 60.2822 73.0927ZM78.8398 71.777C78.4673 72.1974 78.0678 72.5931 77.644 72.9618C77.03 73.4404 76.8389 74.0349 76.914 74.7732C76.9452 75.2542 76.9452 75.7367 76.914 76.2177C76.8711 77.8167 75.5035 78.6624 74.0608 77.9777C73.3867 77.6557 72.7233 77.3123 72.0642 76.9646C71.9327 76.879 71.7797 76.8323 71.6228 76.8301C71.4659 76.8278 71.3115 76.87 71.1776 76.9518C70.5335 77.3166 69.8422 77.6171 69.1831 77.967C68.8812 78.1432 68.5367 78.2334 68.1871 78.2279C67.8375 78.2223 67.4961 78.1211 67.1999 77.9354C66.9038 77.7496 66.6641 77.4864 66.5069 77.1741C66.3498 76.8618 66.2811 76.5125 66.3084 76.1641C66.3321 75.8443 66.3084 75.5202 66.3084 75.2025C66.609 74.0821 66.0787 73.3095 65.25 72.6527C65.0295 72.458 64.8202 72.2509 64.6232 72.0324C63.2706 70.6523 63.3823 68.6498 64.8829 67.4028C65.3154 67.0436 65.8232 66.7861 66.3686 66.6494C66.9633 66.4971 67.5536 66.3296 68.1548 66.2073C68.285 66.189 68.4078 66.1356 68.5099 66.0528C68.612 65.97 68.6897 65.8609 68.7344 65.7373C68.8272 65.5141 68.9378 65.2988 69.065 65.0934C70.2351 63.1746 73.0196 63.1102 74.0909 65.0826C74.5847 65.9905 75.2244 66.3103 76.109 66.4734C76.5035 66.542 76.8909 66.6469 77.2661 66.7868C78.6015 67.3105 79.3744 68.2892 79.5311 69.7208C79.5824 70.0936 79.5467 70.4733 79.4268 70.83C79.3068 71.1867 79.1059 71.5108 78.8398 71.777ZM71.6413 67.6088C70.8528 67.6042 70.0807 67.8334 69.4225 68.2675C68.7643 68.7015 68.2496 69.321 67.9436 70.0475C67.6375 70.774 67.5538 71.5749 67.7031 72.3489C67.8523 73.1229 68.2278 73.8354 68.782 74.3961C69.3363 74.9568 70.0444 75.3406 70.8168 75.4989C71.5892 75.6573 72.3913 75.5831 73.1215 75.2858C73.8518 74.9884 74.4775 74.4813 74.9194 73.8285C75.3614 73.1756 75.5998 72.4064 75.6044 71.6182C75.6012 70.564 75.1841 69.5532 74.4429 68.8034C73.7017 68.0535 72.6957 67.6246 71.6413 67.6088ZM71.5941 72.9017C71.3356 72.8974 71.0842 72.8166 70.8717 72.6696C70.6591 72.5225 70.4949 72.3158 70.3999 72.0755C70.3048 71.8352 70.2831 71.5721 70.3375 71.3195C70.392 71.0669 70.5201 70.836 70.7057 70.6562C70.8913 70.4763 71.1261 70.3555 71.3803 70.309C71.6346 70.2625 71.8969 70.2923 72.1342 70.3948C72.3715 70.4973 72.5731 70.6678 72.7135 70.8848C72.8539 71.1018 72.9268 71.3555 72.923 71.6139C72.9264 71.7878 72.8941 71.9606 72.8281 72.1215C72.7621 72.2825 72.6638 72.4282 72.5392 72.5497C72.4147 72.6712 72.2666 72.7658 72.104 72.8278C71.9415 72.8899 71.7679 72.9179 71.5941 72.9102V72.9017ZM53.0601 68.9353C52.272 68.9302 51.5001 69.159 50.8421 69.5927C50.1842 70.0264 49.6697 70.6455 49.3639 71.3717C49.0581 72.0979 48.9747 72.8984 49.1242 73.672C49.2738 74.4456 49.6495 75.1574 50.2039 75.7174C50.7583 76.2774 51.4665 76.6603 52.2387 76.8177C53.0109 76.9752 53.8125 76.9 54.5419 76.6017C55.2714 76.3034 55.8959 75.7955 56.3365 75.1422C56.777 74.4889 57.0138 73.7196 57.0168 72.9317C57.0202 71.8786 56.6055 70.8672 55.8636 70.1195C55.1218 69.3718 54.1135 68.949 53.0601 68.9439V68.9353ZM53.0837 74.2281C52.7342 74.2397 52.3944 74.1122 52.1388 73.8736C51.8832 73.6349 51.7327 73.3047 51.7204 72.9553C51.7105 72.6041 51.8405 72.2633 52.0818 72.0079C52.3232 71.7525 52.6562 71.6034 53.0075 71.5935C53.3588 71.5835 53.6997 71.7135 53.9551 71.9548C54.2106 72.1961 54.3597 72.529 54.3697 72.8802C54.3757 73.054 54.347 73.2273 54.2854 73.39C54.2238 73.5526 54.1305 73.7014 54.0108 73.8276C53.8911 73.9539 53.7475 74.055 53.5883 74.1253C53.4292 74.1955 53.2576 74.2334 53.0837 74.2367V74.2281ZM71.6413 67.6088C70.8528 67.6042 70.0807 67.8334 69.4225 68.2675C68.7643 68.7015 68.2496 69.321 67.9436 70.0475C67.6375 70.774 67.5538 71.5749 67.7031 72.3489C67.8523 73.1229 68.2278 73.8354 68.782 74.3961C69.3363 74.9568 70.0444 75.3406 70.8168 75.4989C71.5892 75.6573 72.3913 75.5831 73.1215 75.2858C73.8518 74.9884 74.4775 74.4813 74.9194 73.8285C75.3614 73.1756 75.5998 72.4064 75.6044 71.6182C75.6012 70.564 75.1841 69.5532 74.4429 68.8034C73.7017 68.0535 72.6957 67.6246 71.6413 67.6088ZM71.5941 72.9017C71.3356 72.8974 71.0842 72.8166 70.8717 72.6696C70.6591 72.5225 70.4949 72.3158 70.3999 72.0755C70.3048 71.8352 70.2831 71.5721 70.3375 71.3195C70.392 71.0669 70.5201 70.836 70.7057 70.6562C70.8913 70.4763 71.1261 70.3555 71.3803 70.309C71.6346 70.2625 71.8969 70.2923 72.1342 70.3948C72.3715 70.4973 72.5731 70.6678 72.7135 70.8848C72.8539 71.1018 72.9268 71.3555 72.923 71.6139C72.9264 71.7878 72.8941 71.9606 72.8281 72.1215C72.7621 72.2825 72.6638 72.4282 72.5392 72.5497C72.4147 72.6712 72.2666 72.7658 72.104 72.8278C71.9415 72.8899 71.7679 72.9179 71.5941 72.9102V72.9017ZM53.0601 68.9353C52.272 68.9302 51.5001 69.159 50.8421 69.5927C50.1842 70.0264 49.6697 70.6455 49.3639 71.3717C49.0581 72.0979 48.9747 72.8984 49.1242 73.672C49.2738 74.4456 49.6495 75.1574 50.2039 75.7174C50.7583 76.2774 51.4665 76.6603 52.2387 76.8177C53.0109 76.9752 53.8125 76.9 54.5419 76.6017C55.2714 76.3034 55.8959 75.7955 56.3365 75.1422C56.777 74.4889 57.0138 73.7196 57.0168 72.9317C57.0202 71.8786 56.6055 70.8672 55.8636 70.1195C55.1218 69.3718 54.1135 68.949 53.0601 68.9439V68.9353ZM53.0837 74.2281C52.7342 74.2397 52.3944 74.1122 52.1388 73.8736C51.8832 73.6349 51.7327 73.3047 51.7204 72.9553C51.7105 72.6041 51.8405 72.2633 52.0818 72.0079C52.3232 71.7525 52.6562 71.6034 53.0075 71.5935C53.3588 71.5835 53.6997 71.7135 53.9551 71.9548C54.2106 72.1961 54.3597 72.529 54.3697 72.8802C54.3757 73.054 54.347 73.2273 54.2854 73.39C54.2238 73.5526 54.1305 73.7014 54.0108 73.8276C53.8911 73.9539 53.7475 74.055 53.5883 74.1253C53.4292 74.1955 53.2576 74.2334 53.0837 74.2367V74.2281ZM71.6413 67.6088C70.8528 67.6042 70.0807 67.8334 69.4225 68.2675C68.7643 68.7015 68.2496 69.321 67.9436 70.0475C67.6375 70.774 67.5538 71.5749 67.7031 72.3489C67.8523 73.1229 68.2278 73.8354 68.782 74.3961C69.3363 74.9568 70.0444 75.3406 70.8168 75.4989C71.5892 75.6573 72.3913 75.5831 73.1215 75.2858C73.8518 74.9884 74.4775 74.4813 74.9194 73.8285C75.3614 73.1756 75.5998 72.4064 75.6044 71.6182C75.6012 70.564 75.1841 69.5532 74.4429 68.8034C73.7017 68.0535 72.6957 67.6246 71.6413 67.6088ZM71.5941 72.9017C71.3356 72.8974 71.0842 72.8166 70.8717 72.6696C70.6591 72.5225 70.4949 72.3158 70.3999 72.0755C70.3048 71.8352 70.2831 71.5721 70.3375 71.3195C70.392 71.0669 70.5201 70.836 70.7057 70.6562C70.8913 70.4763 71.1261 70.3555 71.3803 70.309C71.6346 70.2625 71.8969 70.2923 72.1342 70.3948C72.3715 70.4973 72.5731 70.6678 72.7135 70.8848C72.8539 71.1018 72.9268 71.3555 72.923 71.6139C72.9264 71.7878 72.8941 71.9606 72.8281 72.1215C72.7621 72.2825 72.6638 72.4282 72.5392 72.5497C72.4147 72.6712 72.2666 72.7658 72.104 72.8278C71.9415 72.8899 71.7679 72.9179 71.5941 72.9102V72.9017ZM53.0601 68.9353C52.272 68.9302 51.5001 69.159 50.8421 69.5927C50.1842 70.0264 49.6697 70.6455 49.3639 71.3717C49.0581 72.0979 48.9747 72.8984 49.1242 73.672C49.2738 74.4456 49.6495 75.1574 50.2039 75.7174C50.7583 76.2774 51.4665 76.6603 52.2387 76.8177C53.0109 76.9752 53.8125 76.9 54.5419 76.6017C55.2714 76.3034 55.8959 75.7955 56.3365 75.1422C56.777 74.4889 57.0138 73.7196 57.0168 72.9317C57.0202 71.8786 56.6055 70.8672 55.8636 70.1195C55.1218 69.3718 54.1135 68.949 53.0601 68.9439V68.9353ZM53.0837 74.2281C52.7342 74.2397 52.3944 74.1122 52.1388 73.8736C51.8832 73.6349 51.7327 73.3047 51.7204 72.9553C51.7105 72.6041 51.8405 72.2633 52.0818 72.0079C52.3232 71.7525 52.6562 71.6034 53.0075 71.5935C53.3588 71.5835 53.6997 71.7135 53.9551 71.9548C54.2106 72.1961 54.3597 72.529 54.3697 72.8802C54.3757 73.054 54.347 73.2273 54.2854 73.39C54.2238 73.5526 54.1305 73.7014 54.0108 73.8276C53.8911 73.9539 53.7475 74.055 53.5883 74.1253C53.4292 74.1955 53.2576 74.2334 53.0837 74.2367V74.2281ZM71.6413 67.6088C70.8528 67.6042 70.0807 67.8334 69.4225 68.2675C68.7643 68.7015 68.2496 69.321 67.9436 70.0475C67.6375 70.774 67.5538 71.5749 67.7031 72.3489C67.8523 73.1229 68.2278 73.8354 68.782 74.3961C69.3363 74.9568 70.0444 75.3406 70.8168 75.4989C71.5892 75.6573 72.3913 75.5831 73.1215 75.2858C73.8518 74.9884 74.4775 74.4813 74.9194 73.8285C75.3614 73.1756 75.5998 72.4064 75.6044 71.6182C75.6012 70.564 75.1841 69.5532 74.4429 68.8034C73.7017 68.0535 72.6957 67.6246 71.6413 67.6088ZM71.5941 72.9017C71.3356 72.8974 71.0842 72.8166 70.8717 72.6696C70.6591 72.5225 70.4949 72.3158 70.3999 72.0755C70.3048 71.8352 70.2831 71.5721 70.3375 71.3195C70.392 71.0669 70.5201 70.836 70.7057 70.6562C70.8913 70.4763 71.1261 70.3555 71.3803 70.309C71.6346 70.2625 71.8969 70.2923 72.1342 70.3948C72.3715 70.4973 72.5731 70.6678 72.7135 70.8848C72.8539 71.1018 72.9268 71.3555 72.923 71.6139C72.9264 71.7878 72.8941 71.9606 72.8281 72.1215C72.7621 72.2825 72.6638 72.4282 72.5392 72.5497C72.4147 72.6712 72.2666 72.7658 72.104 72.8278C71.9415 72.8899 71.7679 72.9179 71.5941 72.9102V72.9017ZM53.0601 68.9353C52.272 68.9302 51.5001 69.159 50.8421 69.5927C50.1842 70.0264 49.6697 70.6455 49.3639 71.3717C49.0581 72.0979 48.9747 72.8984 49.1242 73.672C49.2738 74.4456 49.6495 75.1574 50.2039 75.7174C50.7583 76.2774 51.4665 76.6603 52.2387 76.8177C53.0109 76.9752 53.8125 76.9 54.5419 76.6017C55.2714 76.3034 55.8959 75.7955 56.3365 75.1422C56.777 74.4889 57.0138 73.7196 57.0168 72.9317C57.0202 71.8786 56.6055 70.8672 55.8636 70.1195C55.1218 69.3718 54.1135 68.949 53.0601 68.9439V68.9353ZM53.0837 74.2281C52.7342 74.2397 52.3944 74.1122 52.1388 73.8736C51.8832 73.6349 51.7327 73.3047 51.7204 72.9553C51.7105 72.6041 51.8405 72.2633 52.0818 72.0079C52.3232 71.7525 52.6562 71.6034 53.0075 71.5935C53.3588 71.5835 53.6997 71.7135 53.9551 71.9548C54.2106 72.1961 54.3597 72.529 54.3697 72.8802C54.3757 73.054 54.347 73.2273 54.2854 73.39C54.2238 73.5526 54.1305 73.7014 54.0108 73.8276C53.8911 73.9539 53.7475 74.055 53.5883 74.1253C53.4292 74.1955 53.2576 74.2334 53.0837 74.2367V74.2281ZM71.6413 67.6088C70.8528 67.6042 70.0807 67.8334 69.4225 68.2675C68.7643 68.7015 68.2496 69.321 67.9436 70.0475C67.6375 70.774 67.5538 71.5749 67.7031 72.3489C67.8523 73.1229 68.2278 73.8354 68.782 74.3961C69.3363 74.9568 70.0444 75.3406 70.8168 75.4989C71.5892 75.6573 72.3913 75.5831 73.1215 75.2858C73.8518 74.9884 74.4775 74.4813 74.9194 73.8285C75.3614 73.1756 75.5998 72.4064 75.6044 71.6182C75.6012 70.564 75.1841 69.5532 74.4429 68.8034C73.7017 68.0535 72.6957 67.6246 71.6413 67.6088ZM71.5941 72.9017C71.3356 72.8974 71.0842 72.8166 70.8717 72.6696C70.6591 72.5225 70.4949 72.3158 70.3999 72.0755C70.3048 71.8352 70.2831 71.5721 70.3375 71.3195C70.392 71.0669 70.5201 70.836 70.7057 70.6562C70.8913 70.4763 71.1261 70.3555 71.3803 70.309C71.6346 70.2625 71.8969 70.2923 72.1342 70.3948C72.3715 70.4973 72.5731 70.6678 72.7135 70.8848C72.8539 71.1018 72.9268 71.3555 72.923 71.6139C72.9264 71.7878 72.8941 71.9606 72.8281 72.1215C72.7621 72.2825 72.6638 72.4282 72.5392 72.5497C72.4147 72.6712 72.2666 72.7658 72.104 72.8278C71.9415 72.8899 71.7679 72.9179 71.5941 72.9102V72.9017ZM53.0601 68.9353C52.272 68.9302 51.5001 69.159 50.8421 69.5927C50.1842 70.0264 49.6697 70.6455 49.3639 71.3717C49.0581 72.0979 48.9747 72.8984 49.1242 73.672C49.2738 74.4456 49.6495 75.1574 50.2039 75.7174C50.7583 76.2774 51.4665 76.6603 52.2387 76.8177C53.0109 76.9752 53.8125 76.9 54.5419 76.6017C55.2714 76.3034 55.8959 75.7955 56.3365 75.1422C56.777 74.4889 57.0138 73.7196 57.0168 72.9317C57.0202 71.8786 56.6055 70.8672 55.8636 70.1195C55.1218 69.3718 54.1135 68.949 53.0601 68.9439V68.9353ZM53.0837 74.2281C52.7342 74.2397 52.3944 74.1122 52.1388 73.8736C51.8832 73.6349 51.7327 73.3047 51.7204 72.9553C51.7105 72.6041 51.8405 72.2633 52.0818 72.0079C52.3232 71.7525 52.6562 71.6034 53.0075 71.5935C53.3588 71.5835 53.6997 71.7135 53.9551 71.9548C54.2106 72.1961 54.3597 72.529 54.3697 72.8802C54.3757 73.054 54.347 73.2273 54.2854 73.39C54.2238 73.5526 54.1305 73.7014 54.0108 73.8276C53.8911 73.9539 53.7475 74.055 53.5883 74.1253C53.4292 74.1955 53.2576 74.2334 53.0837 74.2367V74.2281ZM71.6413 67.6088C70.8528 67.6042 70.0807 67.8334 69.4225 68.2675C68.7643 68.7015 68.2496 69.321 67.9436 70.0475C67.6375 70.774 67.5538 71.5749 67.7031 72.3489C67.8523 73.1229 68.2278 73.8354 68.782 74.3961C69.3363 74.9568 70.0444 75.3406 70.8168 75.4989C71.5892 75.6573 72.3913 75.5831 73.1215 75.2858C73.8518 74.9884 74.4775 74.4813 74.9194 73.8285C75.3614 73.1756 75.5998 72.4064 75.6044 71.6182C75.6012 70.564 75.1841 69.5532 74.4429 68.8034C73.7017 68.0535 72.6957 67.6246 71.6413 67.6088ZM71.5941 72.9017C71.3356 72.8974 71.0842 72.8166 70.8717 72.6696C70.6591 72.5225 70.4949 72.3158 70.3999 72.0755C70.3048 71.8352 70.2831 71.5721 70.3375 71.3195C70.392 71.0669 70.5201 70.836 70.7057 70.6562C70.8913 70.4763 71.1261 70.3555 71.3803 70.309C71.6346 70.2625 71.8969 70.2923 72.1342 70.3948C72.3715 70.4973 72.5731 70.6678 72.7135 70.8848C72.8539 71.1018 72.9268 71.3555 72.923 71.6139C72.9264 71.7878 72.8941 71.9606 72.8281 72.1215C72.7621 72.2825 72.6638 72.4282 72.5392 72.5497C72.4147 72.6712 72.2666 72.7658 72.104 72.8278C71.9415 72.8899 71.7679 72.9179 71.5941 72.9102V72.9017ZM53.0601 68.9353C52.272 68.9302 51.5001 69.159 50.8421 69.5927C50.1842 70.0264 49.6697 70.6455 49.3639 71.3717C49.0581 72.0979 48.9747 72.8984 49.1242 73.672C49.2738 74.4456 49.6495 75.1574 50.2039 75.7174C50.7583 76.2774 51.4665 76.6603 52.2387 76.8177C53.0109 76.9752 53.8125 76.9 54.5419 76.6017C55.2714 76.3034 55.8959 75.7955 56.3365 75.1422C56.777 74.4889 57.0138 73.7196 57.0168 72.9317C57.0202 71.8786 56.6055 70.8672 55.8636 70.1195C55.1218 69.3718 54.1135 68.949 53.0601 68.9439V68.9353ZM53.0837 74.2281C52.7342 74.2397 52.3944 74.1122 52.1388 73.8736C51.8832 73.6349 51.7327 73.3047 51.7204 72.9553C51.7105 72.6041 51.8405 72.2633 52.0818 72.0079C52.3232 71.7525 52.6562 71.6034 53.0075 71.5935C53.3588 71.5835 53.6997 71.7135 53.9551 71.9548C54.2106 72.1961 54.3597 72.529 54.3697 72.8802C54.3757 73.054 54.347 73.2273 54.2854 73.39C54.2238 73.5526 54.1305 73.7014 54.0108 73.8276C53.8911 73.9539 53.7475 74.055 53.5883 74.1253C53.4292 74.1955 53.2576 74.2334 53.0837 74.2367V74.2281ZM71.6413 67.6088C70.8528 67.6042 70.0807 67.8334 69.4225 68.2675C68.7643 68.7015 68.2496 69.321 67.9436 70.0475C67.6375 70.774 67.5538 71.5749 67.7031 72.3489C67.8523 73.1229 68.2278 73.8354 68.782 74.3961C69.3363 74.9568 70.0444 75.3406 70.8168 75.4989C71.5892 75.6573 72.3913 75.5831 73.1215 75.2858C73.8518 74.9884 74.4775 74.4813 74.9194 73.8285C75.3614 73.1756 75.5998 72.4064 75.6044 71.6182C75.6012 70.564 75.1841 69.5532 74.4429 68.8034C73.7017 68.0535 72.6957 67.6246 71.6413 67.6088ZM71.5941 72.9017C71.3356 72.8974 71.0842 72.8166 70.8717 72.6696C70.6591 72.5225 70.4949 72.3158 70.3999 72.0755C70.3048 71.8352 70.2831 71.5721 70.3375 71.3195C70.392 71.0669 70.5201 70.836 70.7057 70.6562C70.8913 70.4763 71.1261 70.3555 71.3803 70.309C71.6346 70.2625 71.8969 70.2923 72.1342 70.3948C72.3715 70.4973 72.5731 70.6678 72.7135 70.8848C72.8539 71.1018 72.9268 71.3555 72.923 71.6139C72.9264 71.7878 72.8941 71.9606 72.8281 72.1215C72.7621 72.2825 72.6638 72.4282 72.5392 72.5497C72.4147 72.6712 72.2666 72.7658 72.104 72.8278C71.9415 72.8899 71.7679 72.9179 71.5941 72.9102V72.9017ZM53.0601 68.9353C52.272 68.9302 51.5001 69.159 50.8421 69.5927C50.1842 70.0264 49.6697 70.6455 49.3639 71.3717C49.0581 72.0979 48.9747 72.8984 49.1242 73.672C49.2738 74.4456 49.6495 75.1574 50.2039 75.7174C50.7583 76.2774 51.4665 76.6603 52.2387 76.8177C53.0109 76.9752 53.8125 76.9 54.5419 76.6017C55.2714 76.3034 55.8959 75.7955 56.3365 75.1422C56.777 74.4889 57.0138 73.7196 57.0168 72.9317C57.0202 71.8786 56.6055 70.8672 55.8636 70.1195C55.1218 69.3718 54.1135 68.949 53.0601 68.9439V68.9353ZM53.0837 74.2281C52.7342 74.2397 52.3944 74.1122 52.1388 73.8736C51.8832 73.6349 51.7327 73.3047 51.7204 72.9553C51.7105 72.6041 51.8405 72.2633 52.0818 72.0079C52.3232 71.7525 52.6562 71.6034 53.0075 71.5935C53.3588 71.5835 53.6997 71.7135 53.9551 71.9548C54.2106 72.1961 54.3597 72.529 54.3697 72.8802C54.3757 73.054 54.347 73.2273 54.2854 73.39C54.2238 73.5526 54.1305 73.7014 54.0108 73.8276C53.8911 73.9539 53.7475 74.055 53.5883 74.1253C53.4292 74.1955 53.2576 74.2334 53.0837 74.2367V74.2281ZM71.6413 67.6088C70.8528 67.6042 70.0807 67.8334 69.4225 68.2675C68.7643 68.7015 68.2496 69.321 67.9436 70.0475C67.6375 70.774 67.5538 71.5749 67.7031 72.3489C67.8523 73.1229 68.2278 73.8354 68.782 74.3961C69.3363 74.9568 70.0444 75.3406 70.8168 75.4989C71.5892 75.6573 72.3913 75.5831 73.1215 75.2858C73.8518 74.9884 74.4775 74.4813 74.9194 73.8285C75.3614 73.1756 75.5998 72.4064 75.6044 71.6182C75.6012 70.564 75.1841 69.5532 74.4429 68.8034C73.7017 68.0535 72.6957 67.6246 71.6413 67.6088ZM71.5941 72.9017C71.3356 72.8974 71.0842 72.8166 70.8717 72.6696C70.6591 72.5225 70.4949 72.3158 70.3999 72.0755C70.3048 71.8352 70.2831 71.5721 70.3375 71.3195C70.392 71.0669 70.5201 70.836 70.7057 70.6562C70.8913 70.4763 71.1261 70.3555 71.3803 70.309C71.6346 70.2625 71.8969 70.2923 72.1342 70.3948C72.3715 70.4973 72.5731 70.6678 72.7135 70.8848C72.8539 71.1018 72.9268 71.3555 72.923 71.6139C72.9264 71.7878 72.8941 71.9606 72.8281 72.1215C72.7621 72.2825 72.6638 72.4282 72.5392 72.5497C72.4147 72.6712 72.2666 72.7658 72.104 72.8278C71.9415 72.8899 71.7679 72.9179 71.5941 72.9102V72.9017ZM53.0601 68.9353C52.272 68.9302 51.5001 69.159 50.8421 69.5927C50.1842 70.0264 49.6697 70.6455 49.3639 71.3717C49.0581 72.0979 48.9747 72.8984 49.1242 73.672C49.2738 74.4456 49.6495 75.1574 50.2039 75.7174C50.7583 76.2774 51.4665 76.6603 52.2387 76.8177C53.0109 76.9752 53.8125 76.9 54.5419 76.6017C55.2714 76.3034 55.8959 75.7955 56.3365 75.1422C56.777 74.4889 57.0138 73.7196 57.0168 72.9317C57.0202 71.8786 56.6055 70.8672 55.8636 70.1195C55.1218 69.3718 54.1135 68.949 53.0601 68.9439V68.9353ZM53.0837 74.2281C52.7342 74.2397 52.3944 74.1122 52.1388 73.8736C51.8832 73.6349 51.7327 73.3047 51.7204 72.9553C51.7105 72.6041 51.8405 72.2633 52.0818 72.0079C52.3232 71.7525 52.6562 71.6034 53.0075 71.5935C53.3588 71.5835 53.6997 71.7135 53.9551 71.9548C54.2106 72.1961 54.3597 72.529 54.3697 72.8802C54.3757 73.054 54.347 73.2273 54.2854 73.39C54.2238 73.5526 54.1305 73.7014 54.0108 73.8276C53.8911 73.9539 53.7475 74.055 53.5883 74.1253C53.4292 74.1955 53.2576 74.2334 53.0837 74.2367V74.2281ZM71.6413 67.6088C70.8528 67.6042 70.0807 67.8334 69.4225 68.2675C68.7643 68.7015 68.2496 69.321 67.9436 70.0475C67.6375 70.774 67.5538 71.5749 67.7031 72.3489C67.8523 73.1229 68.2278 73.8354 68.782 74.3961C69.3363 74.9568 70.0444 75.3406 70.8168 75.4989C71.5892 75.6573 72.3913 75.5831 73.1215 75.2858C73.8518 74.9884 74.4775 74.4813 74.9194 73.8285C75.3614 73.1756 75.5998 72.4064 75.6044 71.6182C75.6012 70.564 75.1841 69.5532 74.4429 68.8034C73.7017 68.0535 72.6957 67.6246 71.6413 67.6088ZM71.5941 72.9017C71.3356 72.8974 71.0842 72.8166 70.8717 72.6696C70.6591 72.5225 70.4949 72.3158 70.3999 72.0755C70.3048 71.8352 70.2831 71.5721 70.3375 71.3195C70.392 71.0669 70.5201 70.836 70.7057 70.6562C70.8913 70.4763 71.1261 70.3555 71.3803 70.309C71.6346 70.2625 71.8969 70.2923 72.1342 70.3948C72.3715 70.4973 72.5731 70.6678 72.7135 70.8848C72.8539 71.1018 72.9268 71.3555 72.923 71.6139C72.9264 71.7878 72.8941 71.9606 72.8281 72.1215C72.7621 72.2825 72.6638 72.4282 72.5392 72.5497C72.4147 72.6712 72.2666 72.7658 72.104 72.8278C71.9415 72.8899 71.7679 72.9179 71.5941 72.9102V72.9017ZM53.0601 68.9353C52.272 68.9302 51.5001 69.159 50.8421 69.5927C50.1842 70.0264 49.6697 70.6455 49.3639 71.3717C49.0581 72.0979 48.9747 72.8984 49.1242 73.672C49.2738 74.4456 49.6495 75.1574 50.2039 75.7174C50.7583 76.2774 51.4665 76.6603 52.2387 76.8177C53.0109 76.9752 53.8125 76.9 54.5419 76.6017C55.2714 76.3034 55.8959 75.7955 56.3365 75.1422C56.777 74.4889 57.0138 73.7196 57.0168 72.9317C57.0202 71.8786 56.6055 70.8672 55.8636 70.1195C55.1218 69.3718 54.1135 68.949 53.0601 68.9439V68.9353ZM53.0837 74.2281C52.7342 74.2397 52.3944 74.1122 52.1388 73.8736C51.8832 73.6349 51.7327 73.3047 51.7204 72.9553C51.7105 72.6041 51.8405 72.2633 52.0818 72.0079C52.3232 71.7525 52.6562 71.6034 53.0075 71.5935C53.3588 71.5835 53.6997 71.7135 53.9551 71.9548C54.2106 72.1961 54.3597 72.529 54.3697 72.8802C54.3757 73.054 54.347 73.2273 54.2854 73.39C54.2238 73.5526 54.1305 73.7014 54.0108 73.8276C53.8911 73.9539 53.7475 74.055 53.5883 74.1253C53.4292 74.1955 53.2576 74.2334 53.0837 74.2367V74.2281ZM71.6413 67.6088C70.8528 67.6042 70.0807 67.8334 69.4225 68.2675C68.7643 68.7015 68.2496 69.321 67.9436 70.0475C67.6375 70.774 67.5538 71.5749 67.7031 72.3489C67.8523 73.1229 68.2278 73.8354 68.782 74.3961C69.3363 74.9568 70.0444 75.3406 70.8168 75.4989C71.5892 75.6573 72.3913 75.5831 73.1215 75.2858C73.8518 74.9884 74.4775 74.4813 74.9194 73.8285C75.3614 73.1756 75.5998 72.4064 75.6044 71.6182C75.6012 70.564 75.1841 69.5532 74.4429 68.8034C73.7017 68.0535 72.6957 67.6246 71.6413 67.6088ZM71.5941 72.9017C71.3356 72.8974 71.0842 72.8166 70.8717 72.6696C70.6591 72.5225 70.4949 72.3158 70.3999 72.0755C70.3048 71.8352 70.2831 71.5721 70.3375 71.3195C70.392 71.0669 70.5201 70.836 70.7057 70.6562C70.8913 70.4763 71.1261 70.3555 71.3803 70.309C71.6346 70.2625 71.8969 70.2923 72.1342 70.3948C72.3715 70.4973 72.5731 70.6678 72.7135 70.8848C72.8539 71.1018 72.9268 71.3555 72.923 71.6139C72.9264 71.7878 72.8941 71.9606 72.8281 72.1215C72.7621 72.2825 72.6638 72.4282 72.5392 72.5497C72.4147 72.6712 72.2666 72.7658 72.104 72.8278C71.9415 72.8899 71.7679 72.9179 71.5941 72.9102V72.9017ZM53.0601 68.9353C52.272 68.9302 51.5001 69.159 50.8421 69.5927C50.1842 70.0264 49.6697 70.6455 49.3639 71.3717C49.0581 72.0979 48.9747 72.8984 49.1242 73.672C49.2738 74.4456 49.6495 75.1574 50.2039 75.7174C50.7583 76.2774 51.4665 76.6603 52.2387 76.8177C53.0109 76.9752 53.8125 76.9 54.5419 76.6017C55.2714 76.3034 55.8959 75.7955 56.3365 75.1422C56.777 74.4889 57.0138 73.7196 57.0168 72.9317C57.0202 71.8786 56.6055 70.8672 55.8636 70.1195C55.1218 69.3718 54.1135 68.949 53.0601 68.9439V68.9353ZM53.0837 74.2281C52.7342 74.2397 52.3944 74.1122 52.1388 73.8736C51.8832 73.6349 51.7327 73.3047 51.7204 72.9553C51.7105 72.6041 51.8405 72.2633 52.0818 72.0079C52.3232 71.7525 52.6562 71.6034 53.0075 71.5935C53.3588 71.5835 53.6997 71.7135 53.9551 71.9548C54.2106 72.1961 54.3597 72.529 54.3697 72.8802C54.3757 73.054 54.347 73.2273 54.2854 73.39C54.2238 73.5526 54.1305 73.7014 54.0108 73.8276C53.8911 73.9539 53.7475 74.055 53.5883 74.1253C53.4292 74.1955 53.2576 74.2334 53.0837 74.2367V74.2281ZM71.6413 67.6088C70.8528 67.6042 70.0807 67.8334 69.4225 68.2675C68.7643 68.7015 68.2496 69.321 67.9436 70.0475C67.6375 70.774 67.5538 71.5749 67.7031 72.3489C67.8523 73.1229 68.2278 73.8354 68.782 74.3961C69.3363 74.9568 70.0444 75.3406 70.8168 75.4989C71.5892 75.6573 72.3913 75.5831 73.1215 75.2858C73.8518 74.9884 74.4775 74.4813 74.9194 73.8285C75.3614 73.1756 75.5998 72.4064 75.6044 71.6182C75.6012 70.564 75.1841 69.5532 74.4429 68.8034C73.7017 68.0535 72.6957 67.6246 71.6413 67.6088ZM71.5941 72.9017C71.3356 72.8974 71.0842 72.8166 70.8717 72.6696C70.6591 72.5225 70.4949 72.3158 70.3999 72.0755C70.3048 71.8352 70.2831 71.5721 70.3375 71.3195C70.392 71.0669 70.5201 70.836 70.7057 70.6562C70.8913 70.4763 71.1261 70.3555 71.3803 70.309C71.6346 70.2625 71.8969 70.2923 72.1342 70.3948C72.3715 70.4973 72.5731 70.6678 72.7135 70.8848C72.8539 71.1018 72.9268 71.3555 72.923 71.6139C72.9264 71.7878 72.8941 71.9606 72.8281 72.1215C72.7621 72.2825 72.6638 72.4282 72.5392 72.5497C72.4147 72.6712 72.2666 72.7658 72.104 72.8278C71.9415 72.8899 71.7679 72.9179 71.5941 72.9102V72.9017ZM53.0601 68.9353C52.272 68.9302 51.5001 69.159 50.8421 69.5927C50.1842 70.0264 49.6697 70.6455 49.3639 71.3717C49.0581 72.0979 48.9747 72.8984 49.1242 73.672C49.2738 74.4456 49.6495 75.1574 50.2039 75.7174C50.7583 76.2774 51.4665 76.6603 52.2387 76.8177C53.0109 76.9752 53.8125 76.9 54.5419 76.6017C55.2714 76.3034 55.8959 75.7955 56.3365 75.1422C56.777 74.4889 57.0138 73.7196 57.0168 72.9317C57.0202 71.8786 56.6055 70.8672 55.8636 70.1195C55.1218 69.3718 54.1135 68.949 53.0601 68.9439V68.9353ZM53.0837 74.2281C52.7342 74.2397 52.3944 74.1122 52.1388 73.8736C51.8832 73.6349 51.7327 73.3047 51.7204 72.9553C51.7105 72.6041 51.8405 72.2633 52.0818 72.0079C52.3232 71.7525 52.6562 71.6034 53.0075 71.5935C53.3588 71.5835 53.6997 71.7135 53.9551 71.9548C54.2106 72.1961 54.3597 72.529 54.3697 72.8802C54.3757 73.054 54.347 73.2273 54.2854 73.39C54.2238 73.5526 54.1305 73.7014 54.0108 73.8276C53.8911 73.9539 53.7475 74.055 53.5883 74.1253C53.4292 74.1955 53.2576 74.2334 53.0837 74.2367V74.2281ZM71.6413 67.6088C70.8528 67.6042 70.0807 67.8334 69.4225 68.2675C68.7643 68.7015 68.2496 69.321 67.9436 70.0475C67.6375 70.774 67.5538 71.5749 67.7031 72.3489C67.8523 73.1229 68.2278 73.8354 68.782 74.3961C69.3363 74.9568 70.0444 75.3406 70.8168 75.4989C71.5892 75.6573 72.3913 75.5831 73.1215 75.2858C73.8518 74.9884 74.4775 74.4813 74.9194 73.8285C75.3614 73.1756 75.5998 72.4064 75.6044 71.6182C75.6012 70.564 75.1841 69.5532 74.4429 68.8034C73.7017 68.0535 72.6957 67.6246 71.6413 67.6088ZM71.5941 72.9017C71.3356 72.8974 71.0842 72.8166 70.8717 72.6696C70.6591 72.5225 70.4949 72.3158 70.3999 72.0755C70.3048 71.8352 70.2831 71.5721 70.3375 71.3195C70.392 71.0669 70.5201 70.836 70.7057 70.6562C70.8913 70.4763 71.1261 70.3555 71.3803 70.309C71.6346 70.2625 71.8969 70.2923 72.1342 70.3948C72.3715 70.4973 72.5731 70.6678 72.7135 70.8848C72.8539 71.1018 72.9268 71.3555 72.923 71.6139C72.9264 71.7878 72.8941 71.9606 72.8281 72.1215C72.7621 72.2825 72.6638 72.4282 72.5392 72.5497C72.4147 72.6712 72.2666 72.7658 72.104 72.8278C71.9415 72.8899 71.7679 72.9179 71.5941 72.9102V72.9017ZM53.0601 68.9353C52.272 68.9302 51.5001 69.159 50.8421 69.5927C50.1842 70.0264 49.6697 70.6455 49.3639 71.3717C49.0581 72.0979 48.9747 72.8984 49.1242 73.672C49.2738 74.4456 49.6495 75.1574 50.2039 75.7174C50.7583 76.2774 51.4665 76.6603 52.2387 76.8177C53.0109 76.9752 53.8125 76.9 54.5419 76.6017C55.2714 76.3034 55.8959 75.7955 56.3365 75.1422C56.777 74.4889 57.0138 73.7196 57.0168 72.9317C57.0202 71.8786 56.6055 70.8672 55.8636 70.1195C55.1218 69.3718 54.1135 68.949 53.0601 68.9439V68.9353ZM53.0837 74.2281C52.7342 74.2397 52.3944 74.1122 52.1388 73.8736C51.8832 73.6349 51.7327 73.3047 51.7204 72.9553C51.7105 72.6041 51.8405 72.2633 52.0818 72.0079C52.3232 71.7525 52.6562 71.6034 53.0075 71.5935C53.3588 71.5835 53.6997 71.7135 53.9551 71.9548C54.2106 72.1961 54.3597 72.529 54.3697 72.8802C54.3757 73.054 54.347 73.2273 54.2854 73.39C54.2238 73.5526 54.1305 73.7014 54.0108 73.8276C53.8911 73.9539 53.7475 74.055 53.5883 74.1253C53.4292 74.1955 53.2576 74.2334 53.0837 74.2367V74.2281ZM71.6413 67.6088C70.8528 67.6042 70.0807 67.8334 69.4225 68.2675C68.7643 68.7015 68.2496 69.321 67.9436 70.0475C67.6375 70.774 67.5538 71.5749 67.7031 72.3489C67.8523 73.1229 68.2278 73.8354 68.782 74.3961C69.3363 74.9568 70.0444 75.3406 70.8168 75.4989C71.5892 75.6573 72.3913 75.5831 73.1215 75.2858C73.8518 74.9884 74.4775 74.4813 74.9194 73.8285C75.3614 73.1756 75.5998 72.4064 75.6044 71.6182C75.6012 70.564 75.1841 69.5532 74.4429 68.8034C73.7017 68.0535 72.6957 67.6246 71.6413 67.6088ZM71.5941 72.9017C71.3356 72.8974 71.0842 72.8166 70.8717 72.6696C70.6591 72.5225 70.4949 72.3158 70.3999 72.0755C70.3048 71.8352 70.2831 71.5721 70.3375 71.3195C70.392 71.0669 70.5201 70.836 70.7057 70.6562C70.8913 70.4763 71.1261 70.3555 71.3803 70.309C71.6346 70.2625 71.8969 70.2923 72.1342 70.3948C72.3715 70.4973 72.5731 70.6678 72.7135 70.8848C72.8539 71.1018 72.9268 71.3555 72.923 71.6139C72.9264 71.7878 72.8941 71.9606 72.8281 72.1215C72.7621 72.2825 72.6638 72.4282 72.5392 72.5497C72.4147 72.6712 72.2666 72.7658 72.104 72.8278C71.9415 72.8899 71.7679 72.9179 71.5941 72.9102V72.9017ZM53.0601 68.9353C52.272 68.9302 51.5001 69.159 50.8421 69.5927C50.1842 70.0264 49.6697 70.6455 49.3639 71.3717C49.0581 72.0979 48.9747 72.8984 49.1242 73.672C49.2738 74.4456 49.6495 75.1574 50.2039 75.7174C50.7583 76.2774 51.4665 76.6603 52.2387 76.8177C53.0109 76.9752 53.8125 76.9 54.5419 76.6017C55.2714 76.3034 55.8959 75.7955 56.3365 75.1422C56.777 74.4889 57.0138 73.7196 57.0168 72.9317C57.0202 71.8786 56.6055 70.8672 55.8636 70.1195C55.1218 69.3718 54.1135 68.949 53.0601 68.9439V68.9353ZM53.0837 74.2281C52.7342 74.2397 52.3944 74.1122 52.1388 73.8736C51.8832 73.6349 51.7327 73.3047 51.7204 72.9553C51.7105 72.6041 51.8405 72.2633 52.0818 72.0079C52.3232 71.7525 52.6562 71.6034 53.0075 71.5935C53.3588 71.5835 53.6997 71.7135 53.9551 71.9548C54.2106 72.1961 54.3597 72.529 54.3697 72.8802C54.3757 73.054 54.347 73.2273 54.2854 73.39C54.2238 73.5526 54.1305 73.7014 54.0108 73.8276C53.8911 73.9539 53.7475 74.055 53.5883 74.1253C53.4292 74.1955 53.2576 74.2334 53.0837 74.2367V74.2281Z" fill="#026F30"/>
<path d="M51.4521 23.4678C50.8847 23.9187 50.235 24.2547 49.5392 24.4573C48.3241 24.8737 47.0918 25.2407 45.8895 25.6935C44.9642 26.0413 44.6228 26.7667 45.1531 27.5179C45.6834 28.2691 45.4022 28.6404 44.8697 29.1234C44.1677 29.7673 44.011 29.7673 43.4163 29.0354C43.0764 28.6112 42.8421 28.1125 42.7326 27.5802C42.6231 27.0479 42.6415 26.4972 42.7863 25.9734C42.9311 25.4496 43.1982 24.9676 43.5656 24.5671C43.933 24.1666 44.3903 23.859 44.8998 23.6696C46.2781 23.1523 47.6907 22.7552 49.0776 22.2423C49.917 21.9289 50.5375 21.3837 50.5675 20.4458C50.5976 19.5079 49.99 19.0013 49.2365 18.6086C48.4829 18.2158 47.6821 17.8831 46.9672 17.4066C45.7671 16.6125 45.2132 15.5114 45.3356 14.0605C45.4279 12.9552 46.0441 12.1825 46.8642 11.53C47.5984 10.9484 48.3971 10.4461 49.0991 9.82798C50.4216 8.66682 50.9153 7.19445 50.4173 5.48813C49.9621 3.92561 48.8994 2.84387 47.2936 2.5906C44.9191 2.21285 42.9182 3.01987 41.4133 4.93438C40.8315 5.67701 40.7821 5.69418 39.9877 5.20696C39.8052 5.09535 39.6314 4.96872 39.451 4.85497C39.1075 4.64034 39.086 4.38278 39.3007 4.04581C39.776 3.33503 40.3499 2.69546 41.0054 2.14632C42.1883 1.09891 43.6525 0.67609 45.108 0.214632C45.1286 0.195896 45.1441 0.172272 45.1531 0.145949H45.0973C45.118 0.135532 45.1395 0.126915 45.1617 0.120194C45.5138 0 45.9088 0.199607 46.2523 0H47.3751C47.3751 0.4078 47.7315 0.334825 47.9569 0.399215C48.7384 0.589611 49.476 0.928439 50.1296 1.39725C53.7127 4.15098 53.7299 9.07892 50.1553 11.8648C49.5435 12.3435 48.9059 12.7878 48.2962 13.2685C47.2227 14.1034 47.3172 15.0714 48.5108 15.7261C49.2859 16.1553 50.1081 16.4837 50.8724 16.9387C51.4163 17.2712 51.8746 17.7265 52.2107 18.2681C52.5467 18.8097 52.7511 19.4225 52.8075 20.0573C52.8639 20.6921 52.7706 21.3313 52.5352 21.9236C52.2998 22.5159 51.9289 23.0448 51.4521 23.4678Z" fill="#026F30"/>
<path d="M46.2524 0C45.9174 0.287606 45.5267 0.152388 45.1553 0.148096H45.0995C45.1135 0.117362 45.1257 0.0858275 45.136 0.0536579C45.1401 0.0360091 45.1401 0.0176488 45.136 0L46.2524 0Z" fill="#1C1C1C"/>
<path d="M0.137379 49.4297C0.137379 49.4554 0.137379 49.4812 0.137379 49.5069C0.112435 49.5104 0.0870126 49.5073 0.0636535 49.4979C0.0402944 49.4885 0.019818 49.4731 0.00427246 49.4533V48.3286C0.285513 48.6699 0.165288 49.0541 0.137379 49.4297Z" fill="#1E1E1E"/>
<path d="M0 47.367V46.4033C0.0416811 46.3781 0.0888138 46.3634 0.1374 46.3604C0.1374 46.384 0.1374 46.4097 0.1374 46.4333C0.152428 46.7488 0.291975 47.088 0 47.367Z" fill="#1A1A1A"/>
<path d="M36.9263 18.8404C37.2607 19.9518 37.1974 21.1449 36.7472 22.2147C36.297 23.2844 35.4881 24.1639 34.4596 24.702C33.8971 25.0025 33.3131 25.2665 32.7421 25.5605C31.6793 26.1014 31.5398 26.9363 32.3535 27.8142C32.7506 28.2434 32.7528 28.2434 32.3535 28.6598C31.9541 29.0762 31.5527 29.4475 31.1684 29.8553C30.9816 30.0549 30.8592 30.0506 30.6467 29.8682C28.4376 27.9773 28.7982 24.6591 31.3745 23.2919C31.8919 23.0172 32.4071 22.7317 32.946 22.5042C34.7258 21.7573 35.0499 19.538 33.4355 18.2888C32.0422 17.2157 30.7133 16.0459 29.3564 14.9127C27.903 13.7107 26.9319 12.025 26.6213 10.165C25.9923 6.79959 28.59 3.79689 31.6622 3.98148C34.0237 3.99221 35.6318 4.89581 36.585 6.77169C37.4888 8.55742 37.3278 10.3389 36.1835 11.998C35.5244 12.9509 35.5115 12.9423 34.7258 12.1568C34.5733 12.0044 34.4209 11.8563 34.2728 11.7018C34.0581 11.4721 33.7124 11.2725 33.6523 10.9956C33.6094 10.8111 33.9787 10.5535 34.1225 10.3045C34.3638 9.93181 34.4931 9.4977 34.495 9.05372C34.4969 8.60974 34.3713 8.17454 34.1332 7.79977C33.5257 6.78456 32.2547 6.36603 30.958 6.72661C30.4303 6.88404 29.9704 7.21333 29.6514 7.66213C29.3324 8.11093 29.1726 8.65346 29.1976 9.20346C29.2154 9.88657 29.3798 10.5579 29.6799 11.1719C29.9799 11.7858 30.4085 12.3282 30.9365 12.7621C32.2805 13.9068 33.6359 15.0357 35.0027 16.1489C35.8829 16.8765 36.5914 17.7222 36.9263 18.8404Z" fill="#026F30"/>
<path d="M42.2742 23.2661C42.0874 23.4185 41.98 23.4206 41.8147 23.2511C41.351 22.7681 40.8766 22.2959 40.3978 21.8302C40.2389 21.6735 40.1938 21.5512 40.3828 21.3859C40.546 21.2467 40.6955 21.0922 40.8293 20.9245C40.9398 20.7981 41.0225 20.6499 41.0719 20.4894C41.1213 20.329 41.1364 20.16 41.1162 19.9934C41.0959 19.8267 41.0408 19.6662 40.9544 19.5223C40.868 19.3784 40.7522 19.2543 40.6146 19.158C40.5304 19.0918 40.4406 19.0329 40.3463 18.982C38.1157 17.7951 37.8366 14.5306 39.6206 12.8629C39.9148 12.5903 40.1981 12.3048 40.4794 12.0044C41.3038 11.1244 41.3532 10.165 40.5502 9.29356C40.2454 8.96089 40.2175 8.78489 40.5502 8.49084C40.9531 8.1382 41.3324 7.75964 41.6859 7.35759C41.9328 7.085 42.0895 7.03349 42.3794 7.33183C43.2378 8.1931 43.7268 9.35486 43.7426 10.5706C43.764 11.7067 43.3456 12.807 42.5747 13.642C42.2988 13.9701 41.9965 14.2752 41.6709 14.5542C40.7928 15.2603 40.9689 16.4236 41.9092 16.8464C42.3441 17.0615 42.7172 17.3835 42.9934 17.7822C44.2557 19.4521 43.9208 21.9246 42.2742 23.2661Z" fill="#026F30"/>
<path d="M25.8441 25.1118C25.0154 25.9961 24.9574 26.934 25.7453 27.829C26.0373 28.1596 26.091 28.3463 25.7453 28.6511C25.3242 29.0234 24.9256 29.4205 24.5517 29.8401C24.337 30.0827 24.1889 30.0333 23.9699 29.8401C23.1689 29.0768 22.674 28.0477 22.578 26.9456C22.482 25.8435 22.7914 24.7443 23.4482 23.854C23.698 23.5408 23.9661 23.2427 24.2511 22.9612C25.6809 21.4588 25.4985 19.5271 23.8046 18.3573C23.2571 17.9774 22.7032 17.6018 22.1364 17.2498C21.8638 17.0803 21.8595 16.9322 22.0355 16.6875C22.3919 16.1874 22.7354 15.6766 23.0596 15.155C23.2314 14.8824 23.3881 14.8739 23.6393 15.052C24.3349 15.5457 25.0734 15.9857 25.7453 16.5094C27.1365 17.5975 27.8171 19.0549 27.8386 20.8192C27.8514 22.166 27.3571 23.4685 26.4538 24.4679C26.2606 24.6825 26.0438 24.8972 25.8441 25.1118Z" fill="#026F30"/>
<path d="M56.8794 21.9181C56.6647 22.0856 56.5681 22.1113 56.377 21.9053C55.9605 21.4545 55.5183 21.0167 55.0717 20.6046C54.8248 20.3771 54.7755 20.214 55.0567 19.9865C55.2785 19.8138 55.4549 19.5897 55.5705 19.3335C55.6861 19.0773 55.7375 18.7968 55.7201 18.5162C55.7227 18.2895 55.6794 18.0646 55.5927 17.855C55.506 17.6455 55.3777 17.4557 55.2156 17.2971C54.8527 16.943 54.4899 16.5888 54.1421 16.224C52.343 14.2773 52.8132 11.3754 55.1233 10.0876C55.5161 9.87301 55.9262 9.6777 56.2954 9.49097C56.4736 9.47595 56.5101 9.57897 56.5552 9.67555C56.8529 10.2679 57.1535 10.861 57.4569 11.4548C57.575 11.6824 57.5557 11.8455 57.2937 11.9571C57.0318 12.0687 56.7678 12.2125 56.5101 12.352C55.5977 12.8435 55.4367 13.7063 56.1323 14.4554C56.4779 14.8289 56.8365 15.1894 57.2057 15.5286C58.745 16.9666 58.8674 20.3105 56.8794 21.9181Z" fill="#026F30"/>
<path d="M53.6355 39.8098C53.3671 41.1985 52.912 42.5356 52.5341 43.8878C51.9545 45.9676 51.3512 48.0431 50.7909 50.1272C50.7666 50.2958 50.6959 50.4543 50.5867 50.5851C50.4775 50.7158 50.3341 50.8137 50.1726 50.8676C47.4932 51.8313 45.0329 53.2136 42.6842 54.8104C40.8293 56.0703 38.9444 57.2894 37.0873 58.5493C35.2303 59.8092 34.3501 61.6314 34.5218 63.9065C34.7043 66.4155 36.9671 68.71 39.4811 68.8924C40.4914 68.978 41.5084 68.9361 42.5082 68.7679C42.672 68.7182 42.8479 68.7265 43.0063 68.7915C42.6568 69.5696 42.4601 70.4075 42.4266 71.2598C42.4266 71.6354 42.1948 71.6032 41.9479 71.6096C40.2931 71.6467 38.6385 71.5289 37.0057 71.2576C32.5227 70.5397 28.3255 68.5965 24.878 65.6429C20.3331 61.7602 17.4563 56.8881 16.3506 50.99C16.0504 49.3928 15.9016 47.7709 15.9062 46.1457C15.9148 44.0338 15.9256 41.9218 15.9384 39.8098H17.0613H53.6355Z" fill="#ECFFDB"/>
<path d="M59.7583 39.8183C59.4363 41.1684 58.8996 42.4519 58.4595 43.7611C56.991 48.0795 55.6192 52.4323 53.9961 56.6905C51.9802 61.9876 47.9977 65.0612 42.4566 66.1129C41.6685 66.2669 40.8655 66.331 40.0629 66.3039C39.4438 66.2807 38.8462 66.0711 38.3482 65.7027C37.8502 65.3343 37.4751 64.8242 37.2719 64.2391C36.8919 63.0415 37.2226 61.6979 38.2466 61.0046C41.4068 58.8583 44.4919 56.5961 47.8603 54.7803C49.2214 54.0401 50.6543 53.4404 52.1369 52.9903C52.3515 52.9413 52.5471 52.8307 52.6997 52.6721C52.8523 52.5135 52.9552 52.3137 52.9957 52.0974C54.0562 48.2341 55.134 44.3821 56.2289 40.5417C56.2997 40.2948 56.2933 40.0072 56.5015 39.8076L59.7583 39.8183Z" fill="#ECFFDB"/>
<path d="M66.1389 49.2515C65.4196 55.3664 62.7876 60.5519 58.3135 64.793C58.1117 64.9819 57.9485 65.1901 57.6995 64.8166C57.3084 64.2082 56.7979 63.6853 56.1991 63.2795C55.6002 62.8737 54.9253 62.5935 54.2151 62.4557C53.8609 62.3827 53.9231 62.241 54.0777 62.0264C54.6319 61.2724 55.1375 60.4838 55.5912 59.6655C56.5101 57.9935 57.0275 56.167 57.6437 54.3812C59.2624 49.6679 60.8733 44.9518 62.4763 40.2327C62.5278 40.0825 62.6008 39.9387 62.6631 39.7927H66.287C66.3063 42.9521 66.506 46.1136 66.1389 49.2515Z" fill="#ECFFDB"/>
<path d="M71.6413 67.609C70.8528 67.6043 70.0806 67.8335 69.4224 68.2676C68.7643 68.7016 68.2496 69.3211 67.9435 70.0476C67.6375 70.7741 67.5538 71.575 67.7031 72.349C67.8523 73.1231 68.2278 73.8355 68.782 74.3962C69.3363 74.9569 70.0444 75.3407 70.8168 75.499C71.5892 75.6574 72.3913 75.5832 73.1215 75.2859C73.8518 74.9886 74.4774 74.4814 74.9194 73.8286C75.3613 73.1757 75.5997 72.4066 75.6044 71.6183C75.6012 70.5641 75.1841 69.5533 74.4429 68.8035C73.7017 68.0536 72.6956 67.6247 71.6413 67.609ZM71.5941 72.9018C71.3356 72.8975 71.0842 72.8167 70.8717 72.6697C70.6591 72.5226 70.4949 72.3159 70.3999 72.0756C70.3048 71.8353 70.2831 71.5722 70.3375 71.3196C70.392 71.067 70.5201 70.8361 70.7057 70.6563C70.8913 70.4764 71.126 70.3556 71.3803 70.3091C71.6346 70.2626 71.8969 70.2924 72.1342 70.3949C72.3715 70.4974 72.5731 70.6679 72.7135 70.8849C72.8538 71.1019 72.9268 71.3556 72.923 71.614C72.9264 71.7879 72.8941 71.9607 72.8281 72.1216C72.7621 72.2826 72.6638 72.4283 72.5392 72.5498C72.4147 72.6713 72.2666 72.7659 72.104 72.828C71.9414 72.89 71.7679 72.918 71.5941 72.9104V72.9018Z" fill="#FEFEFE"/>
<path d="M53.0601 68.9439C52.272 68.9388 51.5001 69.1676 50.8421 69.6013C50.1842 70.0351 49.6697 70.6542 49.3639 71.3804C49.0581 72.1065 48.9747 72.9071 49.1242 73.6807C49.2737 74.4543 49.6495 75.1661 50.2039 75.7261C50.7583 76.2861 51.4665 76.669 52.2387 76.8264C53.0109 76.9838 53.8125 76.9086 54.5419 76.6104C55.2714 76.3121 55.8959 75.8042 56.3365 75.1509C56.777 74.4976 57.0138 73.7283 57.0168 72.9404C57.0196 72.4182 56.9195 71.9006 56.7221 71.4171C56.5248 70.9336 56.2341 70.4937 55.8667 70.1226C55.4992 69.7514 55.0622 69.4563 54.5807 69.2541C54.0991 69.0519 53.5824 68.9465 53.0601 68.9439ZM53.0837 74.2367C52.7342 74.2483 52.3944 74.1208 52.1388 73.8822C51.8832 73.6436 51.7327 73.3134 51.7204 72.964C51.7105 72.6128 51.8405 72.272 52.0818 72.0166C52.3232 71.7612 52.6562 71.6121 53.0075 71.6021C53.3588 71.5922 53.6997 71.7222 53.9551 71.9635C54.2106 72.2048 54.3597 72.5376 54.3697 72.8889C54.3745 73.062 54.345 73.2343 54.2829 73.396C54.2208 73.5576 54.1272 73.7054 54.0076 73.8307C53.8881 73.956 53.7449 74.0564 53.5863 74.1261C53.4277 74.1958 53.2569 74.2334 53.0837 74.2367Z" fill="#FEFEFE"/>
<path d="M34.5025 49.0025C34.5239 46.0578 36.8855 43.7806 39.8439 43.772C40.5399 43.777 41.228 43.9196 41.8687 44.1915C42.5094 44.4634 43.09 44.8593 43.577 45.3564C44.0641 45.8535 44.448 46.442 44.7067 47.088C44.9654 47.734 45.0938 48.4248 45.0844 49.1206C45.0884 49.8231 44.9524 50.5194 44.6844 51.1688C44.4164 51.8183 44.0217 52.4079 43.5235 52.9032C43.0252 53.3986 42.4333 53.7899 41.7822 54.0542C41.1311 54.3185 40.4339 54.4506 39.7312 54.4428C39.0286 54.435 38.3345 54.2873 37.6895 54.0086C37.0445 53.7298 36.4614 53.3254 35.9743 52.8191C35.4872 52.3127 35.1058 51.7144 34.8524 51.0592C34.599 50.4039 34.4785 49.7048 34.4982 49.0025H34.5025Z" fill="#026F30"/>
<path d="M22.5422 53.014C21.7595 53.014 20.9944 52.782 20.3435 52.3474C19.6926 51.9128 19.1852 51.2951 18.8853 50.5723C18.5855 49.8494 18.5067 49.054 18.659 48.2864C18.8112 47.5189 19.1876 46.8136 19.7406 46.2599C20.2936 45.7061 20.9984 45.3287 21.7659 45.1752C22.5335 45.0218 23.3292 45.0992 24.0527 45.3978C24.7762 45.6964 25.395 46.2027 25.8307 46.8527C26.2665 47.5027 26.4998 48.2673 26.5011 49.0498C26.5089 49.572 26.4118 50.0904 26.2157 50.5745C26.0196 51.0585 25.7284 51.4984 25.3593 51.868C24.9902 52.2376 24.5507 52.5294 24.0669 52.7263C23.583 52.9231 23.0646 53.0209 22.5422 53.014Z" fill="#026F30"/>
<path d="M29.174 63.6255C28.3904 63.6259 27.6242 63.394 26.9725 62.959C26.3208 62.524 25.8128 61.9056 25.5127 61.1819C25.2127 60.4582 25.1341 59.6619 25.2868 58.8935C25.4396 58.1251 25.8169 57.4194 26.371 56.8654C26.925 56.3115 27.631 55.9343 28.3996 55.7816C29.1681 55.6288 29.9647 55.7074 30.6886 56.0074C31.4125 56.3074 32.0311 56.8153 32.4661 57.4668C32.9012 58.1184 33.1332 58.8843 33.1328 59.6677C33.1348 60.188 33.0337 60.7035 32.8355 61.1846C32.6372 61.6657 32.3457 62.1028 31.9777 62.4707C31.6097 62.8386 31.1725 63.1301 30.6913 63.3282C30.2101 63.5264 29.6944 63.6275 29.174 63.6255Z" fill="#026F30"/>
<path d="M71.6413 67.609C70.8528 67.6043 70.0806 67.8335 69.4224 68.2676C68.7643 68.7016 68.2496 69.3211 67.9435 70.0476C67.6375 70.7741 67.5538 71.575 67.7031 72.349C67.8523 73.1231 68.2278 73.8355 68.782 74.3962C69.3363 74.9569 70.0444 75.3407 70.8168 75.499C71.5892 75.6574 72.3913 75.5832 73.1215 75.2859C73.8518 74.9886 74.4774 74.4814 74.9194 73.8286C75.3613 73.1757 75.5997 72.4066 75.6044 71.6183C75.6012 70.5641 75.1841 69.5533 74.4429 68.8035C73.7017 68.0536 72.6956 67.6247 71.6413 67.609ZM71.5941 72.9018C71.3356 72.8975 71.0842 72.8167 70.8717 72.6697C70.6591 72.5226 70.4949 72.3159 70.3999 72.0756C70.3048 71.8353 70.2831 71.5722 70.3375 71.3196C70.392 71.067 70.5201 70.8361 70.7057 70.6563C70.8913 70.4764 71.126 70.3556 71.3803 70.3091C71.6346 70.2626 71.8969 70.2924 72.1342 70.3949C72.3715 70.4974 72.5731 70.6679 72.7135 70.8849C72.8538 71.1019 72.9268 71.3556 72.923 71.614C72.9264 71.7879 72.8941 71.9607 72.8281 72.1216C72.7621 72.2826 72.6638 72.4283 72.5392 72.5498C72.4147 72.6713 72.2666 72.7659 72.104 72.828C71.9414 72.89 71.7679 72.918 71.5941 72.9104V72.9018Z" fill="#026F30"/>
<path d="M53.0601 68.9439C52.272 68.9388 51.5001 69.1676 50.8421 69.6013C50.1842 70.0351 49.6697 70.6542 49.3639 71.3804C49.0581 72.1065 48.9747 72.9071 49.1242 73.6807C49.2737 74.4543 49.6495 75.1661 50.2039 75.7261C50.7583 76.2861 51.4665 76.669 52.2387 76.8264C53.0109 76.9838 53.8125 76.9086 54.5419 76.6104C55.2714 76.3121 55.8959 75.8042 56.3365 75.1509C56.777 74.4976 57.0138 73.7283 57.0168 72.9404C57.0196 72.4182 56.9195 71.9006 56.7221 71.4171C56.5248 70.9336 56.2341 70.4937 55.8667 70.1226C55.4992 69.7514 55.0622 69.4563 54.5807 69.2541C54.0991 69.0519 53.5824 68.9465 53.0601 68.9439ZM53.0837 74.2367C52.7342 74.2483 52.3944 74.1208 52.1388 73.8822C51.8832 73.6436 51.7327 73.3134 51.7204 72.964C51.7105 72.6128 51.8405 72.272 52.0818 72.0166C52.3232 71.7612 52.6562 71.6121 53.0075 71.6021C53.3588 71.5922 53.6997 71.7222 53.9551 71.9635C54.2106 72.2048 54.3597 72.5376 54.3697 72.8889C54.3745 73.062 54.345 73.2343 54.2829 73.396C54.2208 73.5576 54.1272 73.7054 54.0076 73.8307C53.8881 73.956 53.7449 74.0564 53.5863 74.1261C53.4277 74.1958 53.2569 74.2334 53.0837 74.2367Z" fill="#026F30"/>
<path d="M42.4202 49.0582C42.4239 49.4058 42.3584 49.7506 42.2275 50.0727C42.0966 50.3947 41.903 50.6875 41.6578 50.934C41.4127 51.1805 41.1209 51.3757 40.7996 51.5084C40.4782 51.6411 40.1337 51.7085 39.786 51.7068C39.0833 51.7068 38.4095 51.4277 37.9127 50.931C37.4158 50.4343 37.1367 49.7607 37.1367 49.0582C37.1367 48.3558 37.4158 47.6821 37.9127 47.1854C38.4095 46.6887 39.0833 46.4097 39.786 46.4097C40.1334 46.4088 40.4776 46.4768 40.7985 46.6098C41.1195 46.7428 41.4109 46.9381 41.6559 47.1844C41.9009 47.4307 42.0946 47.7232 42.2257 48.0448C42.3569 48.3664 42.423 48.7109 42.4202 49.0582Z" fill="#ECFFDB"/>
<path d="M22.5057 50.3934C22.2413 50.386 21.9851 50.3003 21.7695 50.1471C21.5539 49.9939 21.3886 49.7801 21.2947 49.5329C21.2008 49.2857 21.1824 49.0162 21.2419 48.7585C21.3015 48.5009 21.4362 48.2667 21.629 48.0857C21.8218 47.9046 22.0641 47.785 22.325 47.7418C22.586 47.6986 22.8539 47.7339 23.0948 47.8432C23.3357 47.9524 23.5387 48.1307 23.678 48.3555C23.8174 48.5802 23.8869 48.8413 23.8776 49.1056C23.8528 49.4534 23.6978 49.779 23.4436 50.0177C23.1893 50.2563 22.8545 50.3905 22.5057 50.3934Z" fill="#ECFFDB"/>
<path d="M29.1439 61.0004C28.88 60.9953 28.6236 60.9119 28.4071 60.7609C28.1907 60.6099 28.0239 60.3981 27.928 60.1523C27.832 59.9065 27.8113 59.6377 27.8682 59.3801C27.9252 59.1224 28.0574 58.8875 28.248 58.705C28.4387 58.5226 28.6792 58.4008 28.9392 58.3551C29.1991 58.3094 29.4668 58.3419 29.7082 58.4484C29.9497 58.5549 30.1541 58.7307 30.2956 58.9535C30.437 59.1762 30.5092 59.436 30.5028 59.6998C30.4823 60.048 30.3308 60.3756 30.0787 60.6168C29.8267 60.858 29.4927 60.9951 29.1439 61.0004Z" fill="#ECFFDB"/>
</svg>