<svg width="36" height="30" viewBox="0 0 36 30" fill="none" xmlns="http://www.w3.org/2000/svg">
<rect width="26.5403" height="27" rx="7.5" fill="#F2F4FF"/>
<g filter="url(#filter0_d_12793_57277)">
<path d="M11.6446 4.99723C11.1397 4.97995 10.8406 4.68627 10.6603 4.27034C10.4785 3.86991 10.3846 3.434 10.3852 2.99293C10.3858 2.55186 10.4808 2.1162 10.6636 1.71626C10.8732 1.23853 11.2298 1 11.7804 1C16.3361 1.01285 20.8919 1.01285 25.4476 1C25.9988 1 26.362 1.23853 26.5579 1.72091C26.9622 2.71091 26.9589 3.68564 26.3561 4.61318C26.3146 4.69685 26.3051 4.7932 26.3293 4.88361C26.8518 7.04567 27.3861 9.20574 27.9092 11.3678C27.9654 11.6007 27.9941 11.8396 27.9948 12.0794C28 16.1506 28.0013 20.2218 27.9987 24.293C27.9987 24.7814 27.8929 24.891 27.4109 24.891H10.5878C10.1071 24.891 10.0033 24.784 10.0033 24.293C10.0059 20.2685 10.0118 16.2454 10 12.2243C10 11.52 10.2194 10.8715 10.3782 10.207C10.7779 8.534 11.1965 6.86561 11.6073 5.19523C11.621 5.13941 11.6289 5.08161 11.6446 4.99723ZM23.306 24.0817V23.7681C23.306 19.8807 23.306 15.9931 23.306 12.1053C23.2991 11.9401 23.3114 11.7746 23.3426 11.6123C23.7077 10.0841 24.0806 8.55592 24.4529 7.03305C24.6175 6.35931 24.7834 5.68624 24.9519 4.99789H12.4675C12.4466 5.06832 12.4257 5.13078 12.41 5.1939C11.9829 6.93604 11.5492 8.67685 11.1319 10.4217C10.9862 11.0329 10.7837 11.6229 10.7837 12.2674C10.7942 16.1052 10.789 19.943 10.789 23.7807V24.0817H23.306ZM24.0898 23.5462C24.4366 23.1874 24.7207 22.8724 25.0277 22.5828C25.1089 22.5112 25.1729 22.4217 25.2147 22.321C25.2565 22.2203 25.2749 22.1112 25.2687 22.002C25.2608 18.9177 25.2591 15.8332 25.2634 12.7485C25.2584 12.6658 25.2606 12.5829 25.27 12.5007C25.3078 12.286 25.4385 12.1571 25.6546 12.1571C25.8708 12.1571 26.0008 12.29 26.0393 12.5007C26.0487 12.5831 26.0509 12.6663 26.0459 12.7492C26.0459 15.8667 26.0459 18.9842 26.0459 22.1017C26.0459 22.1961 26.0459 22.321 26.1001 22.3794C26.4488 22.7562 26.8126 23.1183 27.2176 23.5322V23.2485C27.2176 19.5175 27.2165 15.7865 27.2143 12.0555C27.2125 11.8735 27.1892 11.6924 27.1451 11.516C26.7793 10.0051 26.4092 8.49524 26.0348 6.98654C25.9172 6.51014 25.797 6.0344 25.6782 5.55801C25.6215 5.62174 25.5827 5.69975 25.5658 5.78391C25.1837 7.34201 24.7964 8.89944 24.4242 10.4602C24.2935 11.005 24.1074 11.5578 24.1035 12.108C24.0747 15.8142 24.0885 19.5204 24.0885 23.2273L24.0898 23.5462ZM24.6952 1.8033H24.43C20.2187 1.8033 16.0074 1.80131 11.7961 1.79732C11.5577 1.79732 11.431 1.88835 11.3526 2.09233C11.1195 2.67439 11.1195 3.32616 11.3526 3.90822C11.4329 4.11486 11.5642 4.19791 11.7993 4.19725C16.0028 4.18928 20.2061 4.18728 24.4091 4.19127H24.6952C24.4095 3.42182 24.4095 2.57275 24.6952 1.8033ZM25.6605 1.8033C25.121 2.26242 25.138 3.85706 25.6749 4.17798C26.1673 3.8039 26.1634 2.18136 25.6573 1.80596L25.6605 1.8033ZM24.6952 24.0923H26.5808L25.6403 23.1322L24.6952 24.0923Z" fill="url(#paint0_linear_12793_57277)"/>
<path d="M24.0886 23.546V23.2264C24.0886 19.5196 24.0749 15.8134 24.1036 12.1072C24.1075 11.557 24.2943 11.0042 24.4243 10.4594C24.7966 8.89863 25.1839 7.3412 25.566 5.7831C25.5835 5.69897 25.623 5.62118 25.6803 5.55786C25.7991 6.03426 25.9193 6.50999 26.0369 6.98639C26.4078 8.49598 26.7779 10.0058 27.1472 11.5158C27.1913 11.6922 27.2146 11.8733 27.2164 12.0553C27.2203 15.7864 27.2214 19.5174 27.2197 23.2484V23.5321C26.8147 23.1181 26.4509 22.756 26.1022 22.3793C26.048 22.3208 26.0486 22.1959 26.048 22.1016C26.0453 18.984 26.0453 15.8665 26.048 12.749C26.053 12.6661 26.0508 12.583 26.0414 12.5005C26.0029 12.2866 25.8729 12.157 25.6567 12.157C25.4406 12.157 25.3099 12.2859 25.2721 12.5005C25.2627 12.5828 25.2605 12.6657 25.2655 12.7483C25.2655 15.8326 25.2673 18.9172 25.2707 22.0019C25.277 22.111 25.2585 22.2201 25.2168 22.3208C25.175 22.4215 25.111 22.5111 25.0297 22.5826C24.7195 22.8723 24.4341 23.1872 24.0886 23.546Z" fill="white"/>
<path d="M24.6953 1.80322C24.41 2.57208 24.41 3.42034 24.6953 4.1892H24.4092C20.2062 4.1892 16.0029 4.19119 11.7994 4.19518C11.5643 4.19518 11.433 4.11279 11.3527 3.90615C11.1195 3.32409 11.1195 2.67232 11.3527 2.09026C11.4278 1.88827 11.5545 1.79724 11.7929 1.79724C16.0042 1.80521 20.2155 1.80721 24.4268 1.80322H24.6953Z" fill="white"/>
<path d="M25.6573 1.80603C26.1635 2.18143 26.1674 3.80398 25.6717 4.17805C25.1381 3.85713 25.1211 2.2625 25.6573 1.80603Z" fill="white"/>
<path d="M24.6954 24.0924L25.6404 23.1323L26.5809 24.0924H24.6954Z" fill="white"/>
<path fill-rule="evenodd" clip-rule="evenodd" d="M10.7885 24.0822H23.3062L23.3069 23.7686V12.1058C23.2999 11.9406 23.3122 11.7751 23.3434 11.6128C23.6029 10.531 23.8657 9.45126 24.1287 8.3704C24.2371 7.92504 24.3455 7.4795 24.4537 7.03357C24.5464 6.65416 24.6395 6.27496 24.7333 5.89312C24.806 5.59691 24.8791 5.29912 24.9527 4.99841H12.4677C12.461 5.02094 12.4543 5.04232 12.4478 5.06315C12.4339 5.10743 12.4208 5.14923 12.4102 5.19442C12.3412 5.47445 12.2722 5.75445 12.2031 6.03444C11.8427 7.4963 11.4823 8.95783 11.132 10.4222C11.0998 10.557 11.0647 10.691 11.0296 10.825C10.9064 11.2959 10.7833 11.7662 10.7833 12.268C10.7911 15.1463 10.7901 18.0246 10.7891 20.9029C10.7888 21.8624 10.7885 22.8218 10.7885 23.7813V24.0822Z" fill="url(#paint1_linear_12793_57277)"/>
<path d="M24.5327 17.5816V17.8562H16.4376C16.4041 17.5103 16.4419 17.161 16.5485 16.8308C16.6551 16.5005 16.8282 16.1965 17.0567 15.9382C17.2852 15.6798 17.5641 15.4727 17.8757 15.3302C18.1872 15.1877 18.5245 15.1128 18.8661 15.1103H22.1042C22.7482 15.1103 23.3659 15.3707 23.8214 15.8341C24.2768 16.2976 24.5327 16.9262 24.5327 17.5816ZM21.4026 19.959C21.314 20.0191 21.2098 20.0511 21.1033 20.0511C20.9968 20.0511 20.8927 20.0191 20.8041 19.959L19.3211 18.9545H16.4376C16.4042 19.3004 16.4421 19.6496 16.5487 19.9798C16.6553 20.3101 16.8284 20.614 17.0569 20.8724C17.2854 21.1307 17.5643 21.3378 17.8758 21.4804C18.1873 21.6229 18.5246 21.6979 18.8661 21.7004H22.1042C22.4457 21.6979 22.7831 21.6231 23.0946 21.4805C23.4062 21.338 23.6851 21.1309 23.9136 20.8726C24.1421 20.6142 24.3152 20.3102 24.4218 19.9799C24.5284 19.6497 24.5661 19.3005 24.5327 18.9545H22.8867L21.4026 19.959ZM15.3583 17.5816V19.2291C15.3584 20.1542 15.7131 21.0428 16.3469 21.7059H15.1057C14.4483 21.7051 13.8137 21.4604 13.321 21.0176C12.8282 20.5747 12.511 19.9642 12.4289 19.3005L11.6124 12.6786C11.5704 12.4412 11.5798 12.1973 11.6399 11.9639C11.7001 11.7306 11.8095 11.5134 11.9606 11.3275C12.1118 11.1416 12.3009 10.9915 12.5149 10.8877C12.7289 10.7839 12.9625 10.7288 13.1996 10.7263H16.7706L16.8639 9.96623C16.913 9.56804 17.1032 9.20175 17.3988 8.93612C17.6944 8.67049 18.0751 8.52379 18.4695 8.52356H20.2153C20.3584 8.52356 20.4957 8.58142 20.5969 8.68441C20.6981 8.7874 20.755 8.92708 20.755 9.07273C20.755 9.21838 20.6981 9.35806 20.5969 9.46105C20.4957 9.56404 20.3584 9.6219 20.2153 9.6219H18.4695C17.8812 9.6219 17.9152 10.3056 17.8575 10.7268H19.136C19.3779 10.7286 19.6164 10.7852 19.8341 10.8925C20.0519 10.9998 20.2434 11.1552 20.3947 11.3472C20.5461 11.5393 20.6534 11.7633 20.709 12.0029C20.7646 12.2425 20.7671 12.4917 20.7161 12.7324L20.558 14.012H18.8661C17.936 14.0129 17.0443 14.3892 16.3866 15.0585C15.729 15.7277 15.3591 16.6351 15.3583 17.5816ZM17.722 11.8252L17.5887 12.9136H19.6071L19.653 12.5429C19.678 12.4602 19.6838 12.3727 19.6697 12.2874C19.6556 12.202 19.6221 12.1212 19.5719 12.0514C19.5217 11.9815 19.4561 11.9246 19.3804 11.8851C19.3047 11.8457 19.221 11.8248 19.136 11.8241L17.722 11.8252ZM16.5013 12.9136L16.6357 11.823H13.1996C13.119 11.8235 13.0395 11.8424 12.9669 11.8781C12.8944 11.9138 12.8305 11.9655 12.78 12.0294C12.7296 12.0934 12.6937 12.1679 12.6751 12.2477C12.6564 12.3275 12.6555 12.4106 12.6723 12.4908L12.7263 12.9136H16.5013Z" fill="white"/>
</g>
<defs>
<filter id="filter0_d_12793_57277" x="8.5" y="0.25" width="21" height="26.891" filterUnits="userSpaceOnUse" color-interpolation-filters="sRGB">
<feFlood flood-opacity="0" result="BackgroundImageFix"/>
<feColorMatrix in="SourceAlpha" type="matrix" values="0 0 0 0 0 0 0 0 0 0 0 0 0 0 0 0 0 0 127 0" result="hardAlpha"/>
<feOffset dy="0.75"/>
<feGaussianBlur stdDeviation="0.75"/>
<feComposite in2="hardAlpha" operator="out"/>
<feColorMatrix type="matrix" values="0 0 0 0 0.192157 0 0 0 0 0.239216 0 0 0 0 0.682353 0 0 0 0.25 0"/>
<feBlend mode="normal" in2="BackgroundImageFix" result="effect1_dropShadow_12793_57277"/>
<feBlend mode="normal" in="SourceGraphic" in2="effect1_dropShadow_12793_57277" result="shape"/>
</filter>
<linearGradient id="paint0_linear_12793_57277" x1="15.6151" y1="5.39411" x2="27.5704" y2="24.5451" gradientUnits="userSpaceOnUse">
<stop stop-color="#695FA2"/>
<stop offset="1" stop-color="#3A2B89"/>
</linearGradient>
<linearGradient id="paint1_linear_12793_57277" x1="10.7227" y1="1.93244" x2="22.2567" y2="23.2995" gradientUnits="userSpaceOnUse">
<stop stop-color="#786EAB"/>
<stop offset="1" stop-color="#261777"/>
</linearGradient>
</defs>
</svg>
