<svg xmlns="http://www.w3.org/2000/svg" width="42" height="41" viewBox="0 0 42 41" fill="none">
  <path d="M30.6562 30.7487C29.897 31.2932 28.9854 31.5856 28.0505 31.5845C27.4251 31.584 26.8064 31.4555 26.2328 31.2069L25.7613 29.3992L24.8614 25.938L24.669 25.195C24.7438 25.0335 24.786 24.8589 24.7931 24.681C24.7946 24.4853 24.7432 24.2928 24.6442 24.1239C24.5553 23.9645 24.4296 23.8285 24.2775 23.7273C24.1254 23.6261 23.9514 23.5625 23.7698 23.5418C23.6085 23.5294 23.3913 23.5356 21.1703 23.5356C20.183 23.5357 19.2358 23.1455 18.5359 22.4505C17.8361 21.7555 17.4404 20.8121 17.4355 19.8267V18.5819L23.6643 19.2382L25.1532 19.393L26.8597 19.5726C27.4959 19.64 28.0815 19.9501 28.4941 20.4381C28.9067 20.9261 29.1146 21.5543 29.0742 22.1916L28.7081 28.0924C28.6863 28.4494 28.7421 28.8069 28.8717 29.1403C29.0012 29.4738 29.2016 29.7753 29.4589 30.0242C29.6382 30.2015 29.8458 30.3479 30.073 30.4576L30.6562 30.7487Z" fill="#E0925B"/>
  <path d="M10.9772 29.9934L10.059 32.4392C9.68224 32.48 9.30429 32.3735 9.00465 32.1419H8.99846L8.88673 32.0487C8.75041 31.9203 8.64122 31.7659 8.56558 31.5947C8.48994 31.4235 8.44938 31.239 8.44629 31.0519C8.44633 30.9753 8.45255 30.8988 8.46488 30.8231C8.51764 30.5082 8.67699 30.2209 8.91635 30.009C9.15571 29.7972 9.4606 29.6736 9.78018 29.659C9.98104 29.6479 10.182 29.6797 10.3695 29.7522L10.5867 29.839L10.9772 29.9934Z" fill="#FED673"/>
  <path d="M18.5458 36.1349C18.5442 36.4807 18.4941 36.8246 18.3969 37.1566C18.176 37.8788 17.7269 38.5104 17.1166 38.9569C16.5064 39.4034 15.7678 39.6409 15.0112 39.6339C14.2545 39.6269 13.5204 39.3759 12.9186 38.9182C12.3167 38.4605 11.8793 37.8208 11.6718 37.0946C11.5787 36.7832 11.5327 36.4598 11.5353 36.1349C11.5342 35.8186 11.5781 35.5038 11.6656 35.1999C11.8746 34.4476 12.3297 33.7867 12.9585 33.3225C13.5873 32.8582 14.3537 32.6172 15.1356 32.6378C15.9176 32.6585 16.6701 32.9396 17.2734 33.4364C17.8768 33.9332 18.2963 34.6172 18.4651 35.3794C18.5175 35.6279 18.5445 35.881 18.5458 36.1349Z" fill="#FED673"/>
  <path d="M40.1732 35.9189C40.1739 36.3422 40.0962 36.7621 39.944 37.1573C39.6927 37.8215 39.2446 38.3935 38.6594 38.7972C38.0742 39.201 37.3797 39.4172 36.6683 39.4172C35.9569 39.4172 35.2624 39.201 34.6772 38.7972C34.092 38.3935 33.6439 37.8215 33.3926 37.1573C33.2404 36.7621 33.1627 36.3422 33.1633 35.9189C33.1608 35.7319 33.1774 35.5452 33.2129 35.3616C33.3443 34.5413 33.7644 33.7946 34.3977 33.2556C35.0311 32.7165 35.8362 32.4204 36.6685 32.4204C37.5009 32.4204 38.306 32.7165 38.9393 33.2556C39.5727 33.7946 39.9928 34.5413 40.1242 35.3616C40.1595 35.5452 40.1759 35.7319 40.1732 35.9189Z" fill="#FED673"/>
  <path d="M19.3838 35.9188C19.3838 37.0683 18.9263 38.1707 18.1119 38.9835C17.2974 39.7963 16.1928 40.253 15.041 40.253C13.8893 40.253 12.7847 39.7963 11.9702 38.9835C11.1558 38.1707 10.6982 37.0683 10.6982 35.9188C10.6982 35.2748 11.0457 35.0395 11.4368 35.1076C11.5199 35.1191 11.5987 35.1511 11.6661 35.2008C11.7669 35.2664 11.8464 35.3599 11.8949 35.4699C11.9434 35.5798 11.9588 35.7015 11.9391 35.82V35.9191C11.937 36.327 12.0156 36.7313 12.1705 37.1088C12.3255 37.4863 12.5536 37.8295 12.8419 38.1187C13.1301 38.4079 13.4728 38.6374 13.8502 38.794C14.2277 38.9506 14.6324 39.0312 15.0411 39.0312C15.4498 39.0312 15.8545 38.9506 16.2319 38.794C16.6093 38.6374 16.952 38.4079 17.2403 38.1187C17.5285 37.8295 17.7567 37.4863 17.9116 37.1088C18.0666 36.7313 18.1452 36.327 18.1431 35.9191C18.1422 35.8084 18.1718 35.6996 18.2287 35.6046C18.2856 35.5096 18.3676 35.432 18.4657 35.3804C18.5553 35.3258 18.6586 35.2979 18.7635 35.2999C18.9278 35.3004 19.0853 35.3658 19.2015 35.4817C19.3177 35.5976 19.3833 35.7548 19.3838 35.9188Z" fill="#7C737D"/>
  <path d="M41.0108 35.9189C41.0108 36.4881 40.8985 37.0517 40.6802 37.5775C40.462 38.1034 40.1421 38.5812 39.7388 38.9836C39.3355 39.3861 38.8568 39.7054 38.3299 39.9232C37.803 40.141 37.2383 40.2531 36.668 40.2531C36.0977 40.2531 35.533 40.141 35.0061 39.9232C34.4792 39.7054 34.0004 39.3861 33.5972 38.9836C33.1939 38.5812 32.874 38.1034 32.6558 37.5775C32.4375 37.0517 32.3252 36.4881 32.3252 35.9189C32.3257 35.7548 32.3912 35.5976 32.5075 35.4816C32.6237 35.3656 32.7812 35.3002 32.9456 35.2997C33.0379 35.3011 33.1289 35.3222 33.2124 35.3616C33.3185 35.4111 33.4082 35.4898 33.4709 35.5886C33.5336 35.6874 33.5666 35.802 33.566 35.9189C33.5666 36.3446 33.6532 36.7658 33.8207 37.1573C34.0632 37.7095 34.4617 38.1793 34.9674 38.5092C35.4731 38.8391 36.0642 39.0148 36.6684 39.0148C37.2725 39.0148 37.8636 38.8391 38.3693 38.5092C38.8751 38.1793 39.2735 37.7095 39.516 37.1573C39.6835 36.7658 39.7702 36.3446 39.7707 35.9189C39.7701 35.802 39.8031 35.6874 39.8658 35.5886C39.9285 35.4898 40.0182 35.4111 40.1243 35.3616C40.2078 35.3222 40.2987 35.3011 40.391 35.2997C40.5553 35.3004 40.7127 35.3658 40.8288 35.4818C40.9449 35.5978 41.0103 35.7549 41.0108 35.9189Z" fill="#7C737D"/>
  <path d="M18.397 37.1573C18.1761 37.8795 17.727 38.5111 17.1167 38.9576C16.5065 39.4041 15.7679 39.6416 15.0113 39.6346C14.2546 39.6277 13.5206 39.3766 12.9187 38.9189C12.3168 38.4613 11.8794 37.8215 11.6719 37.0953C11.843 37.1328 12.0178 37.1515 12.1931 37.151C12.2384 37.1562 12.284 37.1583 12.3296 37.1573H18.397Z" fill="#FED673"/>
  <path d="M39.944 37.1569C39.6927 37.8211 39.2446 38.3931 38.6594 38.7968C38.0742 39.2006 37.3797 39.4168 36.6683 39.4168C35.9569 39.4168 35.2624 39.2006 34.6772 38.7968C34.092 38.3931 33.6439 37.8211 33.3926 37.1569H39.944Z" fill="#FED673"/>
  <path d="M19.2036 37.1569C18.9275 38.0798 18.3514 38.8846 17.5662 39.4445C16.7811 40.0045 15.8315 40.2876 14.8672 40.2493C13.903 40.2109 12.9789 39.8533 12.2409 39.2328C11.5028 38.6124 10.9927 37.7643 10.791 36.8225C11.0705 36.954 11.367 37.0457 11.672 37.095C11.8432 37.1325 12.0179 37.1512 12.1932 37.1507C12.4344 37.7038 12.8322 38.1748 13.3376 38.5057C13.843 38.8367 14.4342 39.0133 15.0387 39.014C15.6432 39.0146 16.2348 38.8393 16.7409 38.5095C17.2471 38.1796 17.6459 37.7096 17.8884 37.1569H19.2036Z" fill="#7C737D"/>
  <path d="M40.8307 37.1569C40.5632 38.0514 40.0136 38.8359 39.2635 39.3937C38.5135 39.9514 37.6031 40.2527 36.6678 40.2527C35.7324 40.2527 34.822 39.9514 34.072 39.3937C33.322 38.8359 32.7724 38.0514 32.5049 37.1569H33.8198C34.0623 37.7091 34.4608 38.1789 34.9665 38.5088C35.4723 38.8387 36.0633 39.0143 36.6675 39.0143C37.2716 39.0143 37.8627 38.8387 38.3684 38.5088C38.8742 38.1789 39.2726 37.7091 39.5151 37.1569H40.8307Z" fill="#7C737D"/>
  <path d="M12.1938 37.1509C12.0185 37.1514 11.8438 37.1327 11.6726 37.0952C11.3676 37.0459 11.0711 36.9542 10.7916 36.8227C10.729 36.5255 10.6977 36.2225 10.6982 35.9188C10.6982 35.2748 11.0457 35.0395 11.4368 35.1076C11.5199 35.1191 11.5987 35.1511 11.6661 35.2008C11.7669 35.2664 11.8464 35.3599 11.8949 35.4699C11.9434 35.5798 11.9588 35.7015 11.9391 35.82V35.9191C11.9396 36.3427 12.0263 36.7617 12.1938 37.1509Z" fill="#6C646D"/>
  <path d="M18.4649 35.3794C18.3668 35.4311 18.2848 35.5086 18.2279 35.6036C18.171 35.6987 18.1414 35.8075 18.1423 35.9182C18.1418 36.3439 18.0552 36.7651 17.8876 37.1566H12.3293C12.2837 37.1576 12.2381 37.1555 12.1928 37.1503C12.0252 36.761 11.9386 36.3418 11.9381 35.9182V35.8191C11.9577 35.7006 11.9424 35.5789 11.8939 35.469C11.8454 35.359 11.7659 35.2655 11.665 35.1999C11.874 34.4476 12.3292 33.7867 12.958 33.3225C13.5868 32.8582 14.3532 32.6172 15.1351 32.6378C15.917 32.6585 16.6696 32.9396 17.2729 33.4364C17.8763 33.9332 18.2957 34.6172 18.4646 35.3794H18.4649Z" fill="#FEC845"/>
  <path d="M19.3839 35.919C19.3846 36.3383 19.324 36.7555 19.2039 37.1574H17.8887C18.0562 36.7659 18.1429 36.3447 18.1434 35.919C18.1424 35.8083 18.1721 35.6995 18.229 35.6045C18.2859 35.5095 18.3679 35.4319 18.466 35.3803C18.5556 35.3257 18.6589 35.2978 18.7638 35.2998C18.9281 35.3004 19.0856 35.3658 19.2017 35.4818C19.3179 35.5978 19.3834 35.755 19.3839 35.919Z" fill="#6C646D"/>
  <path d="M33.8201 37.1573H32.5051C32.3851 36.7554 32.3245 36.3382 32.3252 35.9189C32.3257 35.7548 32.3912 35.5976 32.5075 35.4816C32.6237 35.3656 32.7812 35.3002 32.9456 35.2997C33.0379 35.3011 33.1289 35.3222 33.2124 35.3616C33.3185 35.4111 33.4082 35.4898 33.4709 35.5886C33.5336 35.6874 33.5666 35.802 33.5661 35.9189C33.5663 36.3445 33.6527 36.7658 33.8201 37.1573Z" fill="#6C646D"/>
  <path d="M40.1239 35.3616C40.0177 35.4111 39.928 35.4898 39.8653 35.5886C39.8027 35.6874 39.7697 35.802 39.7703 35.9189C39.7697 36.3446 39.6831 36.7658 39.5156 37.1573H33.8203C33.6527 36.7658 33.5661 36.3446 33.5656 35.9189C33.5662 35.802 33.5331 35.6873 33.4705 35.5886C33.4078 35.4898 33.3181 35.4111 33.2119 35.3616C33.3433 34.5413 33.7634 33.7946 34.3967 33.2556C35.0301 32.7165 35.8352 32.4204 36.6675 32.4204C37.4999 32.4204 38.305 32.7165 38.9383 33.2556C39.5717 33.7946 39.9918 34.5413 40.1232 35.3616H40.1239Z" fill="#FEC845"/>
  <path d="M41.0107 35.9189C41.0114 36.3382 40.9508 36.7554 40.8308 37.1573H39.5156C39.6831 36.7658 39.7698 36.3446 39.7703 35.9189C39.7697 35.802 39.8027 35.6874 39.8654 35.5886C39.9281 35.4898 40.0178 35.4111 40.1239 35.3616C40.2074 35.3222 40.2983 35.3011 40.3907 35.2997C40.555 35.3003 40.7124 35.3657 40.8286 35.4817C40.9448 35.5977 41.0102 35.7549 41.0107 35.9189Z" fill="#6C646D"/>
  <path d="M30.6567 30.7484C29.8975 31.293 28.9859 31.5854 28.051 31.5843C27.4255 31.5837 26.8069 31.4552 26.2332 31.2066L25.7617 29.3989C26.2366 29.8736 26.8478 30.1888 27.5104 30.3009C28.1731 30.413 28.8542 30.3163 29.4593 30.0243C29.6387 30.2016 29.8462 30.348 30.0734 30.4577L30.6567 30.7484Z" fill="#DB7A35"/>
  <path d="M41.011 35.9185H12.3301C11.9317 35.9186 11.5392 35.8227 11.1859 35.6392C10.8325 35.4557 10.5287 35.1898 10.3001 34.8642C10.0715 34.5386 9.925 34.1628 9.87287 33.7686C9.82075 33.3745 9.86458 32.9736 10.0007 32.6L10.0593 32.439L10.9776 29.9932L11.8895 27.5598L12.3424 26.3463C13.0176 26.9299 13.8811 27.2509 14.7744 27.2502H21.3382C22.1496 27.2512 22.9387 26.9858 23.584 26.4949C23.5529 26.9691 23.58 27.4452 23.6647 27.9128C24.3099 31.3121 28.0878 32.5814 30.6566 30.7486C31.2437 30.338 31.7229 29.7921 32.0534 29.1571C32.384 28.5222 32.5562 27.8171 32.5553 27.1016C32.5553 26.6495 31.7922 19.0832 31.5751 16.7242C31.5503 16.427 31.5316 16.2164 31.5255 16.105H35.3595L36.583 30.5721C36.6032 30.8345 36.7078 31.0834 36.8812 31.2817C37.0546 31.48 37.2876 31.617 37.5453 31.6724C38.5246 31.8736 39.4043 32.4059 40.0358 33.1796C40.6672 33.9532 41.0117 34.9207 41.011 35.9185Z" fill="#F16069"/>
  <path d="M35.3594 16.105H31.5254C31.5315 16.2164 31.5502 16.427 31.575 16.7242C31.606 17.0462 31.6429 17.4734 31.6928 17.9625H32.3256C32.5178 17.9617 32.7093 17.9389 32.8964 17.8947C33.1829 18.2987 33.5622 18.6281 34.0027 18.8554C34.4431 19.0828 34.9318 19.2013 35.4277 19.2012H35.6203L35.3594 16.105Z" fill="#EF444E"/>
  <path d="M33.5659 15.4857C33.5657 15.7032 33.5078 15.9169 33.3983 16.1049C33.3449 16.1987 33.2781 16.2843 33.2002 16.3591C33.0864 16.4755 32.9504 16.5678 32.8002 16.6306C32.6499 16.6933 32.4886 16.7253 32.3257 16.7245H25.2963C25.0856 17.1968 24.8386 17.6522 24.5577 18.0866C24.2965 18.4974 23.9974 18.883 23.6643 19.2383L17.4355 18.582C17.4386 18.168 17.4823 17.7553 17.5658 17.3498C18.2297 14.2105 21.2199 11.2881 23.1494 9.6844C23.5216 9.36861 23.8504 9.10824 24.1234 8.9043C24.6768 9.44846 25.3601 9.84272 26.1087 10.0498C26.4641 10.4248 26.6939 10.9008 26.7663 11.4119C26.9338 12.4645 26.5371 13.6162 26.1273 14.2477H32.3248C32.6536 14.2486 32.9686 14.3793 33.2012 14.6113C33.4337 14.8432 33.5648 15.1576 33.5659 15.4857Z" fill="#FED673"/>
  <path d="M24.5577 18.0869C24.2965 18.4977 23.9974 18.8833 23.6643 19.2385L17.4355 18.5822C17.4386 18.1683 17.4823 17.7556 17.5658 17.3501L24.5577 18.0869Z" fill="#FEC845"/>
  <path d="M14.7309 6.50794C14.7309 3.08828 11.6754 0.0065918 7.90644 0.0065918C4.13746 0.0065918 1.08203 3.08828 1.08203 6.50794C1.08203 9.92761 4.13746 13.0093 7.90644 13.0093C8.10255 13.0093 8.29544 12.996 8.48739 12.9797L11.0088 14.8668V12.2621C13.2165 11.1458 14.7309 8.91298 14.7309 6.50794Z" fill="#F16069"/>
  <path d="M9.73044 11.7399L11.0082 12.6996V14.8667L8.4896 12.9785C8.29731 12.9971 8.10493 13.0095 7.90644 13.0095C4.1344 13.0095 1.08203 9.92597 1.08203 6.50817C1.08203 4.54534 2.08712 2.694 3.66289 1.47424C2.8078 2.55648 2.33666 3.89127 2.3233 5.26943C2.3233 8.68732 5.37559 11.7708 9.14763 11.7708C9.34578 11.7708 9.53807 11.7584 9.73044 11.7399Z" fill="#EF353F"/>
  <path d="M7.90694 3.10205C10.0694 3.10205 11.6293 4.66107 11.6293 6.81717V8.67469C11.6292 8.75609 11.6131 8.83668 11.5818 8.91186C11.5505 8.98703 11.5046 9.05532 11.4469 9.11281C11.3891 9.1703 11.3206 9.21588 11.2452 9.24693C11.1698 9.27799 11.089 9.29391 11.0075 9.2938H4.80635C4.72479 9.2939 4.64401 9.27797 4.56862 9.24691C4.49323 9.21585 4.42471 9.17027 4.36697 9.11278C4.30923 9.05529 4.26341 8.98701 4.23211 8.91184C4.20081 8.83667 4.18466 8.75609 4.18457 8.67469V6.81717C4.18457 4.66107 5.74437 3.10205 7.90694 3.10205Z" fill="#E69B6C"/>
  <path d="M11.6697 8.05588C11.0564 8.05588 10.7267 7.83914 10.4618 7.66494C10.2529 7.52743 10.1149 7.43668 9.78674 7.43668C9.45862 7.43668 9.32058 7.52743 9.11165 7.66494C8.84677 7.83914 8.51737 8.05588 7.90374 8.05588C7.29011 8.05588 6.96139 7.83881 6.69659 7.66469C6.48843 7.52743 6.35064 7.43668 6.02362 7.43668C5.6966 7.43668 5.55873 7.52743 5.35056 7.66469C5.08602 7.83881 4.75628 8.05588 4.14401 8.05588C3.84687 8.05588 3.60645 7.77865 3.60645 7.43668C3.60645 7.09471 3.84713 6.81756 4.14401 6.81756C4.47103 6.81756 4.60856 6.72682 4.81673 6.58956C5.08127 6.41544 5.41101 6.19836 6.02362 6.19836C6.63623 6.19836 6.96597 6.41544 7.23042 6.58956C7.43884 6.72682 7.57638 6.81756 7.90374 6.81756C8.2311 6.81756 8.3699 6.72682 8.57884 6.5893C8.84363 6.4151 9.17311 6.19836 9.78674 6.19836C10.4004 6.19836 10.7299 6.4151 10.9947 6.5893C11.2036 6.72682 11.3417 6.81756 11.6697 6.81756C11.9669 6.81756 12.2073 7.0948 12.2073 7.43668C12.2073 7.77856 11.9666 8.05588 11.6697 8.05588Z" fill="#85CCAB"/>
  <path d="M7.90694 3.10205C10.0694 3.10205 11.6293 4.66107 11.6293 6.81717V8.67469C11.6292 8.75609 11.6131 8.83668 11.5818 8.91186C11.5505 8.98703 11.5046 9.05532 11.4469 9.11281C11.3891 9.1703 11.3206 9.21588 11.2452 9.24693C11.1698 9.27799 11.089 9.29391 11.0075 9.2938H4.80635C4.72479 9.2939 4.64401 9.27797 4.56862 9.24691C4.49323 9.21585 4.42471 9.17027 4.36697 9.11278C4.30923 9.05529 4.26341 8.98701 4.23211 8.91184C4.20081 8.83667 4.18466 8.75609 4.18457 8.67469V6.81717C4.18457 4.66107 5.74437 3.10205 7.90694 3.10205Z" fill="#E69B6C"/>
  <path d="M11.6293 8.67514C11.6288 8.8392 11.5633 8.99641 11.4471 9.11241C11.3308 9.22841 11.1733 9.29379 11.0089 9.29426H4.80491C4.64053 9.29379 4.48302 9.22841 4.36678 9.1124C4.25055 8.9964 4.18504 8.8392 4.18457 8.67514V6.81762C4.18457 5.57304 4.70567 4.52045 5.56838 3.86414C5.08447 4.48325 4.80525 5.28818 4.80525 6.19842C4.80611 6.32493 4.81649 6.45119 4.83632 6.57615C4.89627 6.98262 5.06087 7.36661 5.31403 7.69059C5.38174 7.78097 5.45639 7.86595 5.53731 7.94478C5.7657 8.17642 6.03804 8.36033 6.33843 8.48577C6.63882 8.61121 6.96124 8.67568 7.28686 8.67539L11.6293 8.67514Z" fill="#E28044"/>
  <path d="M11.6697 8.05588C11.0564 8.05588 10.7267 7.83914 10.4618 7.66494C10.2529 7.52743 10.1149 7.43668 9.78674 7.43668C9.45862 7.43668 9.32058 7.52743 9.11165 7.66494C8.84677 7.83914 8.51737 8.05588 7.90374 8.05588C7.29011 8.05588 6.96139 7.83881 6.69659 7.66469C6.48843 7.52743 6.35064 7.43668 6.02362 7.43668C5.6966 7.43668 5.55873 7.52743 5.35056 7.66469C5.08602 7.83881 4.75628 8.05588 4.14401 8.05588C3.84687 8.05588 3.60645 7.77865 3.60645 7.43668C3.60645 7.09471 3.84713 6.81756 4.14401 6.81756C4.47103 6.81756 4.60856 6.72682 4.81673 6.58956C5.08127 6.41544 5.41101 6.19836 6.02362 6.19836C6.63623 6.19836 6.96597 6.41544 7.23042 6.58956C7.43884 6.72682 7.57638 6.81756 7.90374 6.81756C8.2311 6.81756 8.3699 6.72682 8.57884 6.5893C8.84363 6.4151 9.17311 6.19836 9.78674 6.19836C10.4004 6.19836 10.7299 6.4151 10.9947 6.5893C11.2036 6.72682 11.3417 6.81756 11.6697 6.81756C11.9669 6.81756 12.2073 7.0948 12.2073 7.43668C12.2073 7.77856 11.9666 8.05588 11.6697 8.05588Z" fill="#85CCAB"/>
  <path d="M5.3135 7.69015C4.98301 7.92349 4.58918 8.05092 4.18438 8.0555H4.14091C3.84938 8.0555 3.60742 7.77683 3.60742 7.4363C3.60742 7.09578 3.84938 6.81719 4.14091 6.81719H4.18438C4.48211 6.81092 4.61862 6.71806 4.8172 6.58842C4.82339 6.58223 4.82959 6.58224 4.83579 6.57605C4.8958 6.9824 5.06039 7.36627 5.3135 7.69015Z" fill="#63C397"/>
  <path d="M23.6648 27.9125C22.9495 28.2946 22.15 28.4927 21.3386 28.4887H14.7745C13.7399 28.4837 12.7322 28.1593 11.8896 27.5599L12.3425 26.3463C13.0177 26.93 13.8812 27.2509 14.7745 27.2503H21.3383C22.1497 27.2512 22.9388 26.9858 23.5841 26.4949C23.5531 26.969 23.5802 27.445 23.6648 27.9125Z" fill="#EF444E"/>
  <path d="M24.6701 25.1949C24.3604 25.8122 23.8848 26.3313 23.2965 26.6944C22.7082 27.0574 22.0303 27.2499 21.3386 27.2506H14.7748C14.0832 27.2496 13.4055 27.0569 12.8172 26.6939C12.2289 26.331 11.7533 25.812 11.4433 25.1949C11.3555 25.0205 11.3139 24.8265 11.3224 24.6314C11.3308 24.4364 11.3891 24.2467 11.4916 24.0805C11.5942 23.9142 11.7376 23.7769 11.9083 23.6815C12.079 23.5861 12.2713 23.5359 12.4669 23.5355L23.7705 23.5417C23.9545 23.5623 24.1307 23.627 24.2842 23.7301C24.4377 23.8333 24.564 23.9719 24.6523 24.1342C24.7406 24.2965 24.7884 24.4777 24.7915 24.6624C24.7946 24.8471 24.7529 25.0298 24.6701 25.1949Z" fill="#7C737D"/>
  <path d="M14.9541 23.5355H7.50935V16.894C7.50935 16.8491 7.52724 16.806 7.55908 16.7742C7.59093 16.7424 7.63411 16.7246 7.67915 16.7246H14.7843C14.8293 16.7246 14.8725 16.7424 14.9044 16.7742C14.9362 16.806 14.9541 16.8491 14.9541 16.894V23.5355Z" fill="#E69B6C"/>
  <path d="M14.9545 21.6777V23.5352H7.50977V17.9627C7.51073 17.6346 7.64176 17.3201 7.87424 17.0881C8.10672 16.8561 8.42175 16.7253 8.75053 16.7244C8.75053 17.3748 8.8789 18.019 9.12832 18.6199C9.37775 19.2209 9.74333 19.767 10.2042 20.2269C11.135 21.1558 12.3974 21.6777 13.7137 21.6777H14.9545Z" fill="#E28044"/>
  <path d="M31.0847 5.26929C31.0875 5.68501 31.048 6.09994 30.9668 6.50769C30.6938 7.93173 29.8997 9.01567 28.6031 9.42398C28.2011 9.54687 27.7827 9.60742 27.3623 9.60352V5.26929H31.0847Z" fill="#FCD7CA"/>
  <path d="M39.15 16.1053C39.1503 16.3493 39.1024 16.591 39.009 16.8165C38.9155 17.0421 38.7785 17.247 38.6056 17.4195C38.4327 17.5921 38.2274 17.7289 38.0014 17.8221C37.7755 17.9153 37.5333 17.9632 37.2888 17.9628H35.4276C34.934 17.9628 34.4606 17.7671 34.1115 17.4188C33.7625 17.0704 33.5664 16.598 33.5664 16.1053C33.5664 15.6127 33.7625 15.1402 34.1115 14.7919C34.4606 14.4435 34.934 14.2478 35.4276 14.2478H37.2888C37.7822 14.2486 38.2551 14.4445 38.604 14.7927C38.9528 15.1409 39.1492 15.6129 39.15 16.1053Z" fill="#2FD9E7"/>
  <path d="M38.8769 17.071C38.7126 17.3445 38.4797 17.5706 38.2012 17.7269C37.9227 17.8832 37.6082 17.9645 37.2887 17.9627H35.4275C35.0216 17.9628 34.6268 17.8305 34.3032 17.5859C33.9797 17.3412 33.7452 16.9977 33.6356 16.6076C33.5259 16.2176 33.5471 15.8024 33.6959 15.4255C33.8447 15.0486 34.1129 14.7306 34.4597 14.52C34.2873 14.8014 34.1932 15.1236 34.187 15.4534C34.1809 15.7832 34.2629 16.1086 34.4247 16.3962C34.5865 16.6838 34.8222 16.9232 35.1075 17.0897C35.3928 17.2562 35.7174 17.3438 36.0478 17.3434H37.9091C38.2509 17.3444 38.5861 17.2501 38.8769 17.071Z" fill="#0DCEDE"/>
  <path d="M5.02855 22.2968H3.43335C3.35126 22.2978 3.26981 22.2825 3.1937 22.2518C3.11759 22.2211 3.04834 22.1757 2.98996 22.1181C2.93157 22.0605 2.88522 21.9919 2.85359 21.9163C2.82195 21.8407 2.80566 21.7596 2.80566 21.6777C2.80566 21.5957 2.82195 21.5146 2.85359 21.439C2.88522 21.3634 2.93157 21.2949 2.98996 21.2373C3.04834 21.1797 3.11759 21.1342 3.1937 21.1035C3.26981 21.0729 3.35126 21.0576 3.43335 21.0585H5.02855C5.11063 21.0576 5.19209 21.0729 5.2682 21.1035C5.34431 21.1342 5.41356 21.1797 5.47194 21.2373C5.53032 21.2949 5.57667 21.3634 5.60831 21.439C5.63994 21.5146 5.65623 21.5957 5.65623 21.6777C5.65623 21.7596 5.63994 21.8407 5.60831 21.9163C5.57667 21.9919 5.53032 22.0605 5.47194 22.1181C5.41356 22.1757 5.34431 22.2211 5.2682 22.2518C5.19209 22.2825 5.11063 22.2978 5.02855 22.2968Z" fill="#E69B6C"/>
  <path d="M5.02768 19.8203H2.36889C2.28681 19.8212 2.20536 19.8059 2.12925 19.7752C2.05314 19.7445 1.98388 19.6991 1.9255 19.6415C1.86712 19.5839 1.82077 19.5153 1.78913 19.4397C1.7575 19.3641 1.74121 19.283 1.74121 19.2011C1.74121 19.1192 1.7575 19.0381 1.78913 18.9625C1.82077 18.8869 1.86712 18.8183 1.9255 18.7607C1.98388 18.7031 2.05314 18.6577 2.12925 18.627C2.20536 18.5963 2.28681 18.581 2.36889 18.582H5.02768C5.10976 18.581 5.19122 18.5963 5.26733 18.627C5.34344 18.6577 5.41269 18.7031 5.47107 18.7607C5.52945 18.8183 5.57581 18.8869 5.60744 18.9625C5.63908 19.0381 5.65536 19.1192 5.65536 19.2011C5.65536 19.283 5.63908 19.3641 5.60744 19.4397C5.57581 19.5153 5.52945 19.5839 5.47107 19.6415C5.41269 19.6991 5.34344 19.7445 5.26733 19.7752C5.19122 19.8059 5.10976 19.8212 5.02768 19.8203Z" fill="#E69B6C"/>
  <path d="M5.02779 17.3433H1.30542C1.22334 17.3443 1.14188 17.329 1.06577 17.2983C0.98966 17.2676 0.920408 17.2222 0.862026 17.1646C0.803644 17.107 0.757293 17.0384 0.725658 16.9628C0.694023 16.8872 0.677734 16.8061 0.677734 16.7242C0.677734 16.6423 0.694023 16.5611 0.725658 16.4856C0.757293 16.41 0.803644 16.3414 0.862026 16.2838C0.920408 16.2262 0.98966 16.1807 1.06577 16.1501C1.14188 16.1194 1.22334 16.1041 1.30542 16.105H5.02779C5.10987 16.1041 5.19133 16.1194 5.26744 16.1501C5.34355 16.1807 5.4128 16.2262 5.47118 16.2838C5.52956 16.3414 5.57591 16.41 5.60755 16.4856C5.63918 16.5611 5.65547 16.6423 5.65547 16.7242C5.65547 16.8061 5.63918 16.8872 5.60755 16.9628C5.57591 17.0384 5.52956 17.107 5.47118 17.1646C5.4128 17.2222 5.34355 17.2676 5.26744 17.2983C5.19133 17.329 5.10987 17.3443 5.02779 17.3433Z" fill="#E69B6C"/>
  <path d="M26.1093 10.0493C26.4647 10.4243 26.6945 10.9003 26.7669 11.4115H26.7486C26.6532 11.4114 26.5579 11.4052 26.4633 11.3929C26.2305 11.3567 26.0005 11.305 25.7746 11.2381C24.8229 10.9747 23.9539 10.474 23.2496 9.78296C23.2186 9.75203 23.1817 9.7211 23.1504 9.68391C23.5226 9.36812 23.8514 9.10775 24.1244 8.90381C24.6776 9.44792 25.3608 9.84218 26.1093 10.0493Z" fill="#FECD55"/>
  <path d="M31.0847 5.26929C31.0875 5.68501 31.048 6.09994 30.9668 6.50769C30.3399 6.50769 29.7387 6.75623 29.2954 7.19863C28.8521 7.64104 28.6031 8.24106 28.6031 8.86672V9.42398C28.2011 9.54687 27.7827 9.60742 27.3623 9.60352V5.26929H31.0847Z" fill="#FAC1AD"/>
  <path d="M31.9962 5.26952H27.3618V9.55079C27.3622 9.63979 27.3434 9.72783 27.3067 9.80893C27.27 9.89004 27.2162 9.96231 27.149 10.0209C27.0819 10.0794 27.0029 10.1228 26.9174 10.1482C26.8319 10.1736 26.742 10.1804 26.6537 10.168C26.4698 10.1394 26.2878 10.0998 26.1086 10.0494C25.36 9.84239 24.6767 9.44814 24.1234 8.90397C23.6149 8.41641 23.2253 7.81897 22.9844 7.15761C22.7436 6.49624 22.6579 5.78855 22.7339 5.08896C22.8556 3.93315 23.4075 2.86501 24.2805 2.09583C25.1534 1.32664 26.2838 0.912414 27.448 0.935088C28.6123 0.957763 29.7256 1.41568 30.5678 2.21828C31.41 3.02087 31.9197 4.10968 31.9962 5.26935V5.26952Z" fill="#F16069"/>
  <path d="M27.3496 8.81061C27.3559 8.81061 27.3558 8.81061 27.362 8.81679V9.54741C27.3625 9.63643 27.3438 9.72451 27.3072 9.80569C27.2706 9.88686 27.2169 9.95925 27.1499 10.018C27.0828 10.0767 27.0039 10.1203 26.9185 10.146C26.8331 10.1716 26.7432 10.1786 26.6548 10.1666C26.4709 10.1369 26.2886 10.0977 26.1088 10.049C25.3602 9.84198 24.6769 9.44772 24.1236 8.90356C23.6265 8.42476 23.2429 7.84105 23.0011 7.19518C22.7593 6.54931 22.6652 5.85763 22.7259 5.1708C22.7866 4.48397 23.0004 3.81937 23.3517 3.22569C23.703 2.632 24.1829 2.12425 24.7563 1.73962C24.1386 2.63943 23.8607 3.72873 23.972 4.81378C24.0834 5.89884 24.5767 6.90932 25.3643 7.6655C25.9177 8.20958 26.601 8.60372 27.3496 8.81061Z" fill="#EF444E"/>
  <path d="M20.5381 32.8226H15.5749V29.8963C15.5749 29.8513 15.5928 29.8082 15.6246 29.7764C15.6564 29.7447 15.6996 29.7268 15.7447 29.7268H20.3683C20.4133 29.7268 20.4565 29.7447 20.4884 29.7764C20.5202 29.8082 20.5381 29.8513 20.5381 29.8963V32.8226Z" fill="#2FD9E7"/>
  <path d="M20.5383 32.2037V32.8229H15.5752V30.9654C15.5758 30.7272 15.6452 30.4943 15.775 30.2944C15.9049 30.0946 16.0896 29.9363 16.3073 29.8385C16.2324 29.9972 16.1942 30.1707 16.1955 30.3462C16.1955 30.8388 16.3916 31.3113 16.7407 31.6597C17.0897 32.008 17.5631 32.2037 18.0567 32.2037H20.5383Z" fill="#0DCEDE"/>
  <path d="M32.3252 5.88875H27.3621C27.28 5.88971 27.1985 5.8744 27.1224 5.84371C27.0463 5.81303 26.977 5.76757 26.9187 5.70999C26.8603 5.6524 26.8139 5.58382 26.7823 5.50822C26.7507 5.43263 26.7344 5.35152 26.7344 5.26959C26.7344 5.18767 26.7507 5.10656 26.7823 5.03096C26.8139 4.95537 26.8603 4.88679 26.9187 4.8292C26.977 4.77161 27.0463 4.72615 27.1224 4.69547C27.1985 4.66478 27.28 4.64947 27.3621 4.65043H32.3252C32.4073 4.64947 32.4887 4.66478 32.5648 4.69547C32.6409 4.72615 32.7102 4.77161 32.7686 4.8292C32.827 4.88679 32.8733 4.95537 32.905 5.03096C32.9366 5.10656 32.9529 5.18767 32.9529 5.26959C32.9529 5.35152 32.9366 5.43263 32.905 5.50822C32.8733 5.58382 32.827 5.6524 32.7686 5.70999C32.7102 5.76757 32.6409 5.81303 32.5648 5.84371C32.4887 5.8744 32.4073 5.88971 32.3252 5.88875Z" fill="#FFE589"/>
  <path d="M14.9546 22.2968H6.8894C6.80732 22.2958 6.72586 22.3111 6.64975 22.3418C6.57364 22.3725 6.50439 22.418 6.44601 22.4756C6.38763 22.5331 6.34128 22.6017 6.30964 22.6773C6.27801 22.7529 6.26172 22.834 6.26172 22.916C6.26172 22.9979 6.27801 23.079 6.30964 23.1546C6.34128 23.2302 6.38763 23.2988 6.44601 23.3563C6.50439 23.4139 6.57364 23.4594 6.64975 23.4901C6.72586 23.5208 6.80732 23.5361 6.8894 23.5351H14.9546V22.2968Z" fill="#2FD9E7"/>
  <path d="M32.3252 5.88875H27.3621C27.28 5.88971 27.1985 5.8744 27.1224 5.84371C27.0463 5.81303 26.977 5.76757 26.9187 5.70999C26.8603 5.6524 26.8139 5.58382 26.7823 5.50822C26.7507 5.43263 26.7344 5.35152 26.7344 5.26959C26.7344 5.18767 26.7507 5.10656 26.7823 5.03096C26.8139 4.95537 26.8603 4.88679 26.9187 4.8292C26.977 4.77161 27.0463 4.72615 27.1224 4.69547C27.1985 4.66478 27.28 4.64947 27.3621 4.65043H32.3252C32.4073 4.64947 32.4887 4.66478 32.5648 4.69547C32.6409 4.72615 32.7102 4.77161 32.7686 4.8292C32.827 4.88679 32.8733 4.95537 32.905 5.03096C32.9366 5.10656 32.9529 5.18767 32.9529 5.26959C32.9529 5.35152 32.9366 5.43263 32.905 5.50822C32.8733 5.58382 32.827 5.6524 32.7686 5.70999C32.7102 5.76757 32.6409 5.81303 32.5648 5.84371C32.4887 5.8744 32.4073 5.88971 32.3252 5.88875Z" fill="#FFE589"/>
  <path d="M10.9775 29.9932L10.0592 32.439C9.68247 32.4799 9.30452 32.3733 9.00488 32.1418C10.0286 32.1294 10.5869 29.8385 10.5869 29.8385L10.9775 29.9932Z" fill="#FEC845"/>
</svg> 