<svg width="24" height="24" viewBox="0 0 24 24" fill="none" xmlns="http://www.w3.org/2000/svg">
<g id="dining-table 1" clip-path="url(#clip0_24205_5384)">
<g id="Dining Table">
<path id="Vector" d="M14.2775 19.85L13.2225 19.15C13.1538 19.1042 13.0976 19.0421 13.0587 18.9692C13.0199 18.8964 12.9997 18.815 13 18.7325V12.5H11V18.7325C11 18.8148 10.9797 18.8958 10.9409 18.9684C10.9021 19.041 10.846 19.1028 10.7775 19.1485L9.7225 19.85C9.65404 19.8957 9.59792 19.9575 9.5591 20.0301C9.52029 20.1027 9.49999 20.1837 9.5 20.266V20.5C9.5 20.6326 9.55268 20.7598 9.64645 20.8536C9.74021 20.9473 9.86739 21 10 21H14C14.1326 21 14.2598 20.9473 14.3536 20.8536C14.4473 20.7598 14.5 20.6326 14.5 20.5V20.2675C14.5003 20.185 14.4801 20.1036 14.4413 20.0308C14.4024 19.9579 14.3462 19.8958 14.2775 19.85Z" fill="#273B4A"/>
<path id="Vector_2" d="M18.5 9.5H5C4.72386 9.5 4.5 9.72386 4.5 10V11C4.5 11.2761 4.72386 11.5 5 11.5H18.5C18.7761 11.5 19 11.2761 19 11V10C19 9.72386 18.7761 9.5 18.5 9.5Z" fill="#273B4A"/>
<path id="Vector_3" d="M12.5001 4.527V4H13.0001C13.1327 4 13.2599 3.94732 13.3537 3.85355C13.4474 3.75979 13.5001 3.63261 13.5001 3.5C13.5001 3.36739 13.4474 3.24021 13.3537 3.14645C13.2599 3.05268 13.1327 3 13.0001 3H11.0001C10.8675 3 10.7403 3.05268 10.6465 3.14645C10.5528 3.24021 10.5001 3.36739 10.5001 3.5C10.5001 3.63261 10.5528 3.75979 10.6465 3.85355C10.7403 3.94732 10.8675 4 11.0001 4H11.5001V4.527C10.4393 4.63479 9.44066 5.07822 8.64931 5.79277C7.85796 6.50732 7.31524 7.45572 7.1001 8.5H16.9001C16.685 7.45572 16.1422 6.50732 15.3509 5.79277C14.5595 5.07822 13.5608 4.63479 12.5001 4.527ZM11.3501 6.5705C10.6619 6.72411 10.0493 7.11426 9.6191 7.673C9.53841 7.77829 9.41919 7.84721 9.28768 7.86461C9.15617 7.882 9.02314 7.84644 8.91785 7.76575C8.81256 7.68506 8.74363 7.56584 8.72624 7.43433C8.70884 7.30282 8.74441 7.16979 8.8251 7.0645C9.39879 6.31927 10.2157 5.79889 11.1336 5.594C11.1977 5.57978 11.264 5.57834 11.3287 5.58974C11.3934 5.60114 11.4552 5.62517 11.5105 5.66046C11.5659 5.69575 11.6138 5.7416 11.6515 5.79539C11.6892 5.84919 11.7159 5.90988 11.7301 5.974C11.7443 6.03812 11.7458 6.10441 11.7344 6.16909C11.723 6.23376 11.6989 6.29556 11.6636 6.35095C11.6284 6.40634 11.5825 6.45424 11.5287 6.49191C11.4749 6.52958 11.4142 6.55628 11.3501 6.5705Z" fill="#273B4A"/>
<path id="Vector_4" d="M23.75 8.3395C23.6564 8.23277 23.541 8.14727 23.4117 8.08872C23.2823 8.03017 23.142 7.99992 23 8H22.4605C22.2414 8.00115 22.0287 8.07424 21.8552 8.20802C21.6816 8.34181 21.5568 8.52889 21.5 8.7405L20.2065 13.5715H17.122C16.7901 13.5718 16.4678 13.6826 16.2059 13.8862C15.9439 14.0899 15.7571 14.375 15.675 14.6965L15.5325 15.25C15.4943 15.3977 15.4905 15.5522 15.5213 15.7016C15.552 15.851 15.6166 15.9914 15.7099 16.1121C15.8033 16.2327 15.923 16.3304 16.06 16.3976C16.1969 16.4649 16.3474 16.4999 16.5 16.5H16.5345L15.569 20.379C15.5531 20.4428 15.55 20.509 15.5598 20.574C15.5695 20.639 15.592 20.7014 15.6259 20.7576C15.6598 20.8139 15.7045 20.863 15.7573 20.902C15.8102 20.941 15.8702 20.9692 15.934 20.985C15.9735 20.9951 16.0142 21.0002 16.055 21C16.1665 21 16.2748 20.9627 16.3627 20.894C16.4506 20.8253 16.513 20.7292 16.54 20.621L17.5635 16.5H21.15L22.063 20.6085C22.0876 20.7194 22.1493 20.8185 22.2378 20.8897C22.3263 20.9609 22.4364 20.9998 22.55 21C22.5866 20.9999 22.6232 20.9959 22.659 20.988C22.7231 20.9738 22.7838 20.9471 22.8376 20.9094C22.8914 20.8718 22.9373 20.8239 22.9726 20.7685C23.0079 20.7131 23.0319 20.6513 23.0433 20.5866C23.0547 20.5219 23.0532 20.4556 23.039 20.3915L22.157 16.4235C22.4267 16.3376 22.6666 16.1771 22.8489 15.9606C23.0313 15.7441 23.1487 15.4804 23.1875 15.2L23.9915 9.134C24.0103 8.992 23.9985 8.84762 23.9569 8.71057C23.9152 8.57352 23.8447 8.44699 23.75 8.3395Z" fill="#273B4A"/>
<path id="Vector_5" d="M8.29 16.1135C8.384 15.9929 8.449 15.8523 8.47995 15.7026C8.5109 15.5528 8.50698 15.398 8.4685 15.25L8.32549 14.697C8.24354 14.3755 8.05689 14.0904 7.79498 13.8867C7.53307 13.683 7.2108 13.5723 6.879 13.572H3.7965L2.503 8.7405C2.44602 8.52848 2.32086 8.34109 2.14682 8.20726C1.97278 8.07344 1.75954 8.0006 1.54 8H0.996995C0.854799 8.00046 0.714336 8.03124 0.58498 8.09029C0.455623 8.14934 0.340347 8.2353 0.246844 8.34243C0.15334 8.44956 0.0837598 8.5754 0.0427451 8.71156C0.0017303 8.84771 -0.00977556 8.99105 0.0089952 9.132L0.812995 15.2C0.851303 15.4805 0.968216 15.7445 1.15022 15.9613C1.33222 16.1782 1.57188 16.3391 1.8415 16.4255L0.959495 20.3915C0.930719 20.521 0.954562 20.6566 1.02578 20.7685C1.097 20.8804 1.20975 20.9595 1.33925 20.9883C1.46874 21.017 1.60436 20.9932 1.71627 20.922C1.82818 20.8508 1.90722 20.738 1.936 20.6085L2.85 16.5H6.438L7.4635 20.621C7.49055 20.7295 7.55317 20.8257 7.64136 20.8944C7.72954 20.9631 7.83821 21.0003 7.95 21C7.9908 21.0002 8.03146 20.9951 8.071 20.985C8.13472 20.9692 8.1947 20.9409 8.24751 20.9019C8.30032 20.8628 8.34492 20.8138 8.37877 20.7575C8.41262 20.7012 8.43505 20.6388 8.44478 20.5739C8.45451 20.509 8.45136 20.4427 8.4355 20.379L7.4675 16.5H7.5025C7.65462 16.5004 7.8048 16.4657 7.94137 16.3987C8.07793 16.3317 8.19723 16.2341 8.29 16.1135Z" fill="#273B4A"/>
</g>
</g>
<defs>
<clipPath id="clip0_24205_5384">
<rect width="24" height="24" fill="white"/>
</clipPath>
</defs>
</svg>
