<svg width="25" height="25" viewBox="0 0 25 25" fill="none" xmlns="http://www.w3.org/2000/svg">
<g clip-path="url(#clip0_21720_2552)">
<path d="M3.36865 16.2183C4.09599 16.9064 4.88837 17.5223 5.73465 18.0573L3.48765 20.3043C3.30549 20.4929 3.20469 20.7455 3.20697 21.0077C3.20925 21.2699 3.31442 21.5207 3.49983 21.7061C3.68524 21.8915 3.93605 21.9967 4.19825 21.999C4.46044 22.0013 4.71304 21.9005 4.90165 21.7183L11.3296 15.2903L21.9016 4.71831C21.9972 4.62606 22.0733 4.51572 22.1257 4.39372C22.1782 4.27171 22.2057 4.14049 22.2069 4.00771C22.2081 3.87493 22.1828 3.74325 22.1325 3.62036C22.0822 3.49746 22.0079 3.38581 21.914 3.29192C21.8201 3.19802 21.7085 3.12377 21.5856 3.07349C21.4627 3.02321 21.331 2.99791 21.1982 2.99906C21.0655 3.00022 20.9342 3.0278 20.8122 3.08021C20.6902 3.13262 20.5799 3.2088 20.4876 3.30431L18.1346 5.65731C17.0113 5.00053 15.7908 4.52629 14.5186 4.25231C13.7543 4.0926 12.9755 4.01184 12.1946 4.01131C4.69465 4.01131 0.500647 11.2113 0.325647 11.5163C0.239907 11.667 0.194824 11.8374 0.194824 12.0108C0.194824 12.1842 0.239907 12.3546 0.325647 12.5053C1.16327 13.8778 2.18738 15.1274 3.36865 16.2183ZM10.1946 12.0113C10.1946 11.4809 10.4054 10.9722 10.7804 10.5971C11.1555 10.222 11.6642 10.0113 12.1946 10.0113C12.6219 10.0127 13.0372 10.1531 13.3776 10.4113L10.5946 13.1943C10.3364 12.8539 10.196 12.4386 10.1946 12.0113ZM12.1946 6.01131C12.8395 6.01185 13.4826 6.07887 14.1136 6.21131C15.0007 6.40176 15.8581 6.71088 16.6626 7.13031L14.8066 8.98531C14.0832 8.35415 13.1547 8.00793 12.1946 8.01131C11.1338 8.01131 10.1164 8.43274 9.36622 9.18288C8.61607 9.93303 8.19465 10.9504 8.19465 12.0113C8.19126 12.9714 8.53749 13.8999 9.16865 14.6233L7.18865 16.6033C6.30256 16.0858 5.47969 15.467 4.73665 14.7593C3.85256 13.9331 3.06274 13.0115 2.38165 12.0113C3.41365 10.4943 6.91065 6.01131 12.1946 6.01131Z" fill="#B8B8B8"/>
<path d="M12.1949 18.0112C12.1119 18.0112 12.0329 18.0112 11.9529 18.0052C11.6911 17.9861 11.4323 18.0708 11.2323 18.2409C11.0324 18.4111 10.9074 18.653 10.8843 18.9145C10.8611 19.176 10.9418 19.4361 11.1088 19.6387C11.2758 19.8413 11.5158 19.97 11.7769 19.9972C11.9169 20.0102 12.0549 20.0112 12.1949 20.0112C19.6779 20.0112 23.8869 12.8112 24.0629 12.5112C24.1494 12.36 24.1949 12.1888 24.1949 12.0147C24.1949 11.8405 24.1494 11.6693 24.0629 11.5182C23.4873 10.5703 22.8173 9.68308 22.0629 8.87016C21.8801 8.69546 21.6378 8.59655 21.3849 8.59334C21.132 8.59014 20.8873 8.68288 20.7 8.85289C20.5127 9.0229 20.3969 9.25755 20.3757 9.50958C20.3545 9.76161 20.4297 10.0123 20.5859 10.2112C21.1009 10.7774 21.5757 11.3788 22.0069 12.0112C20.9699 13.5302 17.4639 18.0112 12.1949 18.0112Z" fill="#B8B8B8"/>
</g>
<defs>
<clipPath id="clip0_21720_2552">
<rect width="24" height="24" fill="white" transform="translate(0.194824 0.0112305)"/>
</clipPath>
</defs>
</svg>
