<svg width="32" height="32" viewBox="0 0 32 32" fill="none" xmlns="http://www.w3.org/2000/svg">
<g id="Location">
<path id="Vector" d="M16 2C19.1826 2 22.2348 3.26428 24.4853 5.51472C26.7357 7.76516 28 10.8174 28 14C28 18.968 24.2133 24.1733 16.8 29.7333C16.5692 29.9064 16.2885 30 16 30C15.7115 30 15.4308 29.9064 15.2 29.7333C7.78667 24.1733 4 18.968 4 14C4 10.8174 5.26428 7.76516 7.51472 5.51472C9.76515 3.26428 12.8174 2 16 2ZM16 10C14.9391 10 13.9217 10.4214 13.1716 11.1716C12.4214 11.9217 12 12.9391 12 14C12 15.0609 12.4214 16.0783 13.1716 16.8284C13.9217 17.5786 14.9391 18 16 18C17.0609 18 18.0783 17.5786 18.8284 16.8284C19.5786 16.0783 20 15.0609 20 14C20 12.9391 19.5786 11.9217 18.8284 11.1716C18.0783 10.4214 17.0609 10 16 10Z" fill="#ED6252"/>
<path id="Union" fill-rule="evenodd" clip-rule="evenodd" d="M8.22183 6.22183C10.2847 4.15893 13.0826 3 16 3C18.9174 3 21.7153 4.15893 23.7782 6.22183C25.8411 8.28473 27 11.0826 27 14C27 18.4563 23.5782 23.3997 16.2 28.9333C16.1423 28.9766 16.0721 29 16 29C15.9279 29 15.8577 28.9766 15.8 28.9333C8.42179 23.3997 5 18.4563 5 14C5 11.0826 6.15893 8.28473 8.22183 6.22183ZM16 1C12.5522 1 9.24558 2.36964 6.80761 4.80761C4.36964 7.24558 3 10.5522 3 14C3 19.4797 7.15154 24.947 14.6 30.5333C15.0039 30.8363 15.4951 31 16 31C16.5049 31 16.9961 30.8363 17.4 30.5333C24.8485 24.947 29 19.4797 29 14C29 10.5522 27.6304 7.24558 25.1924 4.80761C22.7544 2.36964 19.4478 1 16 1ZM16 9C14.6739 9 13.4021 9.52678 12.4645 10.4645C11.5268 11.4021 11 12.6739 11 14C11 15.3261 11.5268 16.5979 12.4645 17.5355C13.4021 18.4732 14.6739 19 16 19C17.3261 19 18.5979 18.4732 19.5355 17.5355C20.4732 16.5979 21 15.3261 21 14C21 12.6739 20.4732 11.4021 19.5355 10.4645C18.5979 9.52678 17.3261 9 16 9Z" fill="white"/>
</g>
</svg>
