<svg width="40" height="40" viewBox="0 0 40 40" fill="none" xmlns="http://www.w3.org/2000/svg">
<path opacity="0.5" d="M3.33334 26.6665C3.33334 21.9532 3.33334 19.5948 4.79834 18.1315C6.26168 16.6665 8.62001 16.6665 13.3333 16.6665H26.6667C31.38 16.6665 33.7383 16.6665 35.2017 18.1315C36.6667 19.5948 36.6667 21.9532 36.6667 26.6665C36.6667 31.3798 36.6667 33.7382 35.2017 35.2015C33.7383 36.6665 31.38 36.6665 26.6667 36.6665H13.3333C8.62001 36.6665 6.26168 36.6665 4.79834 35.2015C3.33334 33.7382 3.33334 31.3798 3.33334 26.6665Z" fill="#F7931E"/>
<path d="M13.3333 28.3333C13.7754 28.3333 14.1993 28.1577 14.5118 27.8451C14.8244 27.5325 15 27.1086 15 26.6666C15 26.2246 14.8244 25.8006 14.5118 25.4881C14.1993 25.1755 13.7754 24.9999 13.3333 24.9999C12.8913 24.9999 12.4674 25.1755 12.1548 25.4881C11.8423 25.8006 11.6667 26.2246 11.6667 26.6666C11.6667 27.1086 11.8423 27.5325 12.1548 27.8451C12.4674 28.1577 12.8913 28.3333 13.3333 28.3333ZM20 28.3333C20.442 28.3333 20.8659 28.1577 21.1785 27.8451C21.4911 27.5325 21.6667 27.1086 21.6667 26.6666C21.6667 26.2246 21.4911 25.8006 21.1785 25.4881C20.8659 25.1755 20.442 24.9999 20 24.9999C19.558 24.9999 19.134 25.1755 18.8215 25.4881C18.5089 25.8006 18.3333 26.2246 18.3333 26.6666C18.3333 27.1086 18.5089 27.5325 18.8215 27.8451C19.134 28.1577 19.558 28.3333 20 28.3333ZM28.3333 26.6666C28.3333 27.1086 28.1577 27.5325 27.8452 27.8451C27.5326 28.1577 27.1087 28.3333 26.6667 28.3333C26.2246 28.3333 25.8007 28.1577 25.4882 27.8451C25.1756 27.5325 25 27.1086 25 26.6666C25 26.2246 25.1756 25.8006 25.4882 25.4881C25.8007 25.1755 26.2246 24.9999 26.6667 24.9999C27.1087 24.9999 27.5326 25.1755 27.8452 25.4881C28.1577 25.8006 28.3333 26.2246 28.3333 26.6666ZM11.25 13.3333C11.25 11.0126 12.1719 8.78701 13.8128 7.14607C15.4538 5.50512 17.6794 4.58325 20 4.58325C22.3206 4.58325 24.5462 5.50512 26.1872 7.14607C27.8281 8.78701 28.75 11.0126 28.75 13.3333V16.6733C29.695 16.6816 30.5233 16.7033 31.25 16.7566V13.3333C31.25 10.3496 30.0647 7.48808 27.955 5.3783C25.8452 3.26852 22.9837 2.08325 20 2.08325C17.0163 2.08325 14.1548 3.26852 12.045 5.3783C9.93526 7.48808 8.75 10.3496 8.75 13.3333V16.7583C9.58222 16.7034 10.416 16.675 11.25 16.6733V13.3333Z" fill="#F7931E"/>
</svg>
