<svg width="22" height="22" viewBox="0 0 22 22" fill="none" xmlns="http://www.w3.org/2000/svg">
<g clip-path="url(#clip0_15194_60986)">
<mask id="mask0_15194_60986" style="mask-type:luminance" maskUnits="userSpaceOnUse" x="0" y="0" width="22" height="22">
<path d="M11 20.1666C12.204 20.1682 13.3965 19.9318 14.5088 19.471C15.6212 19.0102 16.6315 18.3342 17.4818 17.4817C18.3342 16.6314 19.0103 15.6211 19.4711 14.5087C19.9318 13.3964 20.1682 12.2039 20.1667 10.9999C20.1682 9.79592 19.9318 8.60348 19.471 7.49112C19.0103 6.37877 18.3342 5.36843 17.4818 4.51818C16.6315 3.66569 15.6212 2.98963 14.5088 2.52887C13.3965 2.0681 12.204 1.8317 11 1.83326C9.796 1.83172 8.60355 2.06813 7.4912 2.5289C6.37885 2.98967 5.36851 3.66571 4.51825 4.51818C3.66579 5.36843 2.98974 6.37877 2.52898 7.49112C2.06821 8.60348 1.8318 9.79592 1.83334 10.9999C1.83178 12.2039 2.06817 13.3964 2.52894 14.5087C2.98971 15.6211 3.66577 16.6314 4.51825 17.4817C5.36851 18.3341 6.37885 19.0102 7.4912 19.471C8.60355 19.9317 9.796 20.1681 11 20.1666Z" fill="white"/>
<path fill-rule="evenodd" clip-rule="evenodd" d="M11 0.916633C12.3244 0.915072 13.636 1.17518 14.8596 1.68202C16.0832 2.18885 17.1945 2.93242 18.1299 3.87C19.0675 4.80538 19.8111 5.91678 20.3179 7.14036C20.8247 8.36393 21.0849 9.67558 21.0833 11C21.0849 12.3244 20.8248 13.636 20.3179 14.8596C19.8111 16.0832 19.0675 17.1945 18.1299 18.1299C17.1946 19.0675 16.0832 19.8111 14.8596 20.3179C13.636 20.8248 12.3244 21.0849 11 21.0833C9.6756 21.0848 8.36396 20.8247 7.14039 20.3179C5.91682 19.811 4.80544 19.0675 3.87007 18.1299C2.93247 17.1945 2.18889 16.0832 1.68205 14.8596C1.17521 13.636 0.915101 12.3243 0.916663 10.9999C0.915132 9.67557 1.17525 8.36393 1.68209 7.14036C2.18892 5.91679 2.93248 4.80541 3.87007 3.87004C4.80544 2.93245 5.91682 2.18889 7.14039 1.68206C8.36396 1.17522 9.67561 0.9151 11 0.916633ZM14.158 3.37579C13.1572 2.96125 12.0844 2.74856 11.0012 2.74997H10.9988C9.9156 2.74859 8.84277 2.96128 7.842 3.37583C6.84122 3.79037 5.93224 4.3986 5.16727 5.16556L5.16559 5.16724C4.39863 5.93221 3.7904 6.84119 3.37586 7.84197C2.96131 8.84274 2.74862 9.91557 2.75 10.9988V11.0012C2.74859 12.0844 2.96128 13.1572 3.37582 14.158C3.79037 15.1588 4.3986 16.0677 5.16557 16.8327L5.16727 16.8344C5.93224 17.6013 6.84122 18.2096 7.842 18.6241C8.84277 19.0387 9.9156 19.2513 10.9988 19.25H11.0012C12.0844 19.2514 13.1572 19.0387 14.158 18.6241C15.1588 18.2096 16.0678 17.6014 16.8327 16.8344L16.8344 16.8327C17.6014 16.0677 18.2096 15.1588 18.6242 14.158C19.0387 13.1572 19.2514 12.0844 19.25 11.0012V10.9988C19.2514 9.91557 19.0387 8.84274 18.6241 7.84197C18.2096 6.84119 17.6014 5.93221 16.8344 5.16724L16.8327 5.16554C16.0678 4.39857 15.1588 3.79034 14.158 3.37579Z" fill="white"/>
<path fill-rule="evenodd" clip-rule="evenodd" d="M11 16.9583C11.3039 16.9583 11.5953 16.8376 11.8102 16.6227C12.0251 16.4078 12.1458 16.1164 12.1458 15.8125C12.1458 15.5086 12.0251 15.2171 11.8102 15.0022C11.5953 14.7873 11.3039 14.6666 11 14.6666C10.6961 14.6666 10.4046 14.7873 10.1898 15.0022C9.97488 15.2171 9.85416 15.5086 9.85416 15.8125C9.85416 16.1164 9.97488 16.4078 10.1898 16.6227C10.4046 16.8376 10.6961 16.9583 11 16.9583Z" fill="black"/>
<path fill-rule="evenodd" clip-rule="evenodd" d="M11 4.58325C11.5063 4.58325 11.9167 4.99366 11.9167 5.49992V12.8333C11.9167 13.3395 11.5063 13.7499 11 13.7499C10.4937 13.7499 10.0833 13.3395 10.0833 12.8333V5.49992C10.0833 4.99366 10.4937 4.58325 11 4.58325Z" fill="black"/>
</mask>
<g mask="url(#mask0_15194_60986)">
<path d="M0 0H22V22H0V0Z" fill="#FF8C21"/>
</g>
</g>
<defs>
<clipPath id="clip0_15194_60986">
<rect width="22" height="22" fill="white"/>
</clipPath>
</defs>
</svg>