<svg width="244" height="243" viewBox="0 0 244 243" fill="none" xmlns="http://www.w3.org/2000/svg">
<g clip-path="url(#clip0_15859_68443)">
<path d="M243.089 174.347C242.641 173.08 241.846 172.381 241.081 171.578C240.568 171.034 240.141 170.416 239.813 169.743C239.36 168.815 238.852 168.035 238.151 167.466C237.893 167.256 237.713 166.867 237.467 166.516C238.599 165.857 238.599 165.857 239.437 164.676C239.308 163.318 239.301 161.897 238.597 160.759C238.576 159.53 237.98 158.655 237.604 157.643C237.502 157.358 237.421 157.066 237.36 156.77C237.069 155.421 237.678 153.671 238.631 153.145C238.883 153.005 239.156 152.947 239.496 152.822C239.596 151.925 239.699 151.093 239.776 150.257C239.811 149.876 239.718 149.445 239.814 149.107C240.076 148.177 240.405 147.283 240.709 146.377C241.035 145.407 241.005 145.065 240.405 144.347C239.944 143.796 239.437 143.32 238.914 142.771C239.012 142.361 239.194 141.984 239.164 141.651C239.057 140.558 239.264 139.782 239.888 139.002C240.743 137.934 240.873 136.412 240.658 134.884C240.574 134.294 240.37 133.736 240.231 133.196C240.507 132.706 240.791 132.846 240.943 133.19C241.203 133.782 241.364 134.45 241.597 135.07C241.724 135.412 241.904 135.718 242.24 135.626C242.429 135.573 242.617 135.507 242.774 135.457C243.121 136.208 242.766 137.277 243.553 137.511L243.805 139.182C244.062 137.313 244.261 135.472 243.118 133.989C242.963 133.787 242.897 133.451 242.79 133.177L242.749 132.999C242.662 132.657 242.679 132.47 242.589 132.127C242.572 132.08 242.558 132.032 242.547 131.983C242.757 131.257 242.5 130.742 242.066 130.344C241.456 129.784 240.819 129.284 240.213 128.717C239.74 128.276 239.674 127.821 239.993 127.125C240.35 126.343 240.861 125.664 241.114 124.83C241.567 123.338 241.884 121.76 241.471 120.119C241.446 120.017 241.289 119.979 241.191 119.909L240.86 121.089C238.764 120.038 237.101 118.14 235.484 117.213C235.367 115.712 235.266 114.548 235.189 113.382C235.13 112.487 234.904 111.627 234.399 111.142C233.628 110.402 232.97 109.365 231.966 109.118C231.377 108.973 230.886 108.236 230.202 108.576C230.073 108.64 229.865 108.526 229.729 108.414C229.253 108.022 228.792 107.595 228.258 107.121C228.317 106.596 228.408 106.075 228.422 105.551C228.431 105.245 228.289 104.978 228.019 105.032C227.937 105.48 227.857 105.918 227.783 106.321C226.157 106.321 225.497 106.049 223.775 104.711C223.762 104.267 223.793 103.788 223.722 103.342C223.636 102.804 223.458 102.23 223.01 102.151C222.047 101.976 221.189 100.846 220.114 101.558C219.916 101.688 219.58 101.453 219.315 101.348C217.704 100.702 216.119 99.8908 214.482 99.4267C211.677 98.6307 209.013 97.0576 206.154 96.576C206.048 96.5585 205.944 96.4661 205.847 96.3897C205.036 95.7457 204.127 95.6813 203.234 95.5574C202.289 95.4264 201.313 95.5307 200.471 94.7383C199.911 94.8839 199.42 94.153 198.833 94.4932C198.756 94.5286 198.671 94.5404 198.587 94.527C198.503 94.5137 198.425 94.4759 198.363 94.4183C197.932 93.971 197.452 93.9794 196.949 93.8758C195.917 93.6657 194.918 93.1554 193.9 92.7871C193.25 92.5519 192.601 92.2817 191.939 92.1452C189.607 91.6621 187.34 90.745 185.001 90.2717C182.239 89.7117 179.517 88.7827 176.774 88.042C175.178 87.6107 173.569 87.2642 171.974 86.8231C170.379 86.3821 169.904 85.4867 169.904 83.0588C170.489 82.6059 171.091 82.8642 171.688 83.0343C172.948 83.3934 174.209 83.8093 175.478 84.1117C177.028 84.4807 178.571 84.8496 180.109 85.3285C182.794 86.1637 185.523 86.7286 188.23 87.4287C189.211 87.6842 190.192 87.9748 191.162 88.315C192.52 88.7918 193.866 89.3336 195.218 89.8405C196.57 90.3474 197.888 89.9644 199.196 89.4695C199.709 89.2755 200.11 88.9591 200.246 88.1393C200.412 87.12 201.023 86.8428 201.674 86.8379C202.054 86.8379 202.434 87.057 202.819 87.1473C202.908 87.1683 203.012 87.0661 203.111 87.0199C203.142 86.5004 203.173 85.9809 203.212 85.3397C203.753 85.4853 204.185 85.5931 204.613 85.7191C204.997 85.8325 205.375 86.0062 205.764 86.079C206.343 86.1868 206.769 85.7891 206.885 85.0008C207.062 83.7862 207.239 82.5646 207.321 81.3331C207.354 80.8354 207.157 80.2928 207.022 79.7929C206.749 78.7876 206.442 77.7998 206.156 76.8008C205.993 76.2302 205.844 75.652 205.712 75.1654C204.35 74.5171 203.443 75.3054 202.712 76.6258C201.815 76.6475 201.006 76.5768 200.175 76.2155C199.017 75.7129 197.812 75.4097 196.617 75.0842C193.588 74.2567 190.552 73.474 187.523 72.6507C186.645 72.4113 185.789 71.987 184.907 71.8225C183.465 71.5537 182.151 70.4791 180.654 70.5841C180.5 70.5946 180.343 70.4014 180.18 70.3524C178.758 69.9246 177.355 69.4605 175.861 69.8511C175.173 70.031 174.425 69.8567 173.722 69.4675C173.216 69.1906 172.66 69.02 172.086 68.9662C170.959 68.8654 169.856 68.5858 168.817 68.138C167.773 67.6816 166.669 67.3752 165.538 67.2279C163.857 67.0179 162.221 66.4788 160.6 65.8459C160.491 65.8032 160.425 65.5582 160.245 65.2432C161.209 65.1767 162.086 64.8448 162.843 65.1291C163.955 65.5491 165.066 65.5491 166.18 65.7129C167.581 65.923 168.974 66.1799 170.371 66.4067C171.151 66.5334 171.935 66.7567 172.714 66.7329C175.424 66.6594 178.028 67.5849 180.652 68.2899C183.299 69.0019 185.924 69.8665 188.562 70.6422C190.313 71.1581 192.12 71.441 193.82 72.1866C195.549 72.9441 197.335 73.1968 199.073 73.7968C200.404 74.2567 201.633 73.9095 202.694 72.6325C202.767 72.545 202.904 72.5625 203.086 72.5079C204.417 73.0526 205.831 73.565 207.207 74.221C207.821 74.5136 208.398 74.4821 209.018 74.4961C209.607 74.5094 210.192 74.9071 210.78 75.1262C210.837 75.1346 210.895 75.1243 210.946 75.0968C211.866 74.7706 212.591 75.3068 213.269 76.086C213.342 76.1693 213.479 76.1511 213.636 76.1952L214.546 75.4629C215.585 75.533 216.276 76.3465 216.835 77.0542C217.974 76.8673 219.054 76.9842 219.94 76.4662C220.959 75.8662 221.934 76.5229 222.968 76.219C222.929 75.7703 222.898 75.4118 222.876 75.1514L221.195 74.4373C220.896 73.3333 220.615 72.321 220.349 71.3017C220.078 70.2676 219.61 69.6817 218.775 69.5025C216.561 69.0278 214.358 68.4425 212.152 67.8923C212.05 67.8671 211.962 67.739 211.868 67.6584C211.86 66.4508 211.86 66.4508 213.37 64.7076C213.475 64.7495 213.576 64.8028 213.669 64.8665C213.765 64.9449 213.837 65.0766 213.931 65.1592C214.658 65.7766 215.408 66.1253 216.285 65.7759C217.235 65.3958 218.172 65.5155 219.058 66.1834C219.575 66.5733 220.134 66.6237 220.702 66.4676C221.193 66.3325 221.679 66.1799 222.053 66.0693C222.403 65.4105 222.651 64.8147 222.986 64.3317C223.406 63.7254 223.476 63.005 223.187 62.4127C222.767 61.5621 222.746 60.6744 222.744 59.7342C222.744 58.9347 222.638 58.1801 222.184 57.634C220.133 57.2139 219.996 57.0697 219.739 54.9646C220.267 54.0895 220.9 53.3677 221.736 53.0352C222.907 54.0769 222.907 54.0769 224.167 53.2074C224.217 51.3585 224.996 49.5495 224.547 47.5738C222.586 46.7379 220.704 45.8173 218.841 44.6573C218.771 44.2282 218.724 43.7633 218.613 43.3272C218.457 42.7181 217.976 42.7671 217.647 42.499C217.281 42.2014 217.139 41.5188 217.405 41.0883C217.726 40.585 218.096 40.1144 218.509 39.6832C218.934 39.2317 219.402 38.8585 219.896 38.4098C220.113 38.6247 220.335 38.8571 220.566 39.0693C220.972 39.441 221.012 39.915 220.807 40.4862C220.737 40.69 220.693 40.9147 220.557 41.4341C221.007 41.0344 221.138 40.8993 221.28 40.795C221.96 40.2972 222.401 40.286 222.722 41.0883C223.109 42.0635 223.669 42.3099 224.348 42.4044L225.839 40.3245C225.758 38.9461 225.103 38.3391 224.478 37.6432C223.398 38.3755 222.657 37.7006 221.994 36.6729C221.924 37.0229 221.812 37.3674 221.495 37.296C220.967 37.1776 220.468 36.7625 219.902 37.1405C219.822 37.1945 219.552 36.9816 219.521 36.8346C219.472 36.5791 219.468 36.1527 219.58 36.0211C219.847 35.711 220.18 35.5101 220.491 35.2755C220.287 35.0291 220.071 34.6329 219.891 34.6651C218.764 34.8681 217.856 33.9202 216.824 33.6541C216.237 33.5029 215.817 33.0073 215.62 32.2582C215.966 30.977 216.308 29.7505 216.627 28.5128C216.795 27.8596 216.664 27.2365 216.306 26.8053C216.035 26.4702 215.689 26.2037 215.296 26.0275C213.301 25.2077 211.298 24.4264 209.292 23.657C208.485 23.3469 207.657 23.1403 206.855 22.8099C206.327 22.5922 206.037 21.8396 205.432 21.6296C204.897 21.4426 204.452 20.7615 203.961 20.2952C203.572 20.5444 203.401 21.3201 202.834 21.1528C201.959 20.8945 201.041 20.8231 200.212 20.4023C199.04 19.8073 197.84 19.4642 196.631 19.1051C196.031 18.9265 195.452 18.615 194.867 18.3469C194.019 17.9604 193.186 17.497 192.326 17.1848C191.025 16.7136 189.683 16.4448 188.398 15.9099C185.871 14.8598 183.285 14.2297 180.704 13.517C179.717 13.2454 178.742 12.7784 177.714 12.9073C176.205 12.0077 174.568 11.8242 172.99 11.3188C171.952 10.9862 170.858 10.9687 169.838 10.5746C166.858 9.43416 163.779 9.01621 160.774 8.0585C159.2 7.55725 157.593 7.24921 156.006 6.82076C155.457 6.67164 154.93 6.3097 154.381 6.23549C151.649 5.86375 148.977 4.84443 146.223 4.67431C145.996 4.66299 145.771 4.61573 145.559 4.5343C144.264 4.01904 142.919 3.90423 141.606 3.57939C139.394 3.02843 137.184 2.59158 134.942 2.43336C132.421 2.25484 129.955 1.26562 127.41 1.44274C124.748 0.71886 122.04 1.0227 119.36 0.71956C119.09 0.689457 118.813 0.843475 118.538 0.855376C117.648 0.89458 116.756 0.907882 115.865 0.930285C115.334 0.265208 114.702 0.565543 114.097 0.564843C113.424 0.564843 112.752 0.500435 112.08 0.477333C111.407 0.45423 110.73 0.414325 110.059 0.45423C109.894 0.464031 109.737 0.673355 109.577 0.826673C110.163 0.966689 110.75 1.11091 111.337 1.24672C112.381 1.49105 113.426 1.73118 114.666 2.01681C115.194 1.29993 116.031 1.46445 116.871 1.69967C117.09 1.76058 117.347 1.77528 117.516 1.9454C117.941 2.37385 118.346 2.31224 118.788 2.04411C118.934 1.94979 119.105 1.90284 119.279 1.9097C120.512 2.01401 121.745 2.12952 122.975 2.27584C123.097 2.29054 123.203 2.53277 123.365 2.72879C123 3.27625 122.594 3.40997 122.139 3.40227C120.518 3.37637 118.896 3.34136 117.275 3.34906C114.815 3.36096 112.351 3.51078 109.926 2.74699C109.818 2.71087 109.703 2.69682 109.589 2.70569C107.497 2.90661 105.474 2.16243 103.417 1.86559C102.581 1.74588 101.736 1.72558 100.896 1.70667C99.4949 1.67517 98.0681 1.88939 96.6931 1.62196C94.83 1.25862 92.9914 1.61706 91.1429 1.57366C89.4164 1.53305 87.6877 1.71367 85.9597 1.46795C85.2909 1.36077 84.6129 1.32137 83.9362 1.35033C82.7055 1.42524 81.4784 1.60936 80.2708 1.0703C80.0607 0.97789 79.8226 1.01149 79.5984 1.0262C78.9253 1.071 78.2529 1.16271 77.5784 1.18441C76.9403 1.20542 76.3001 1.17601 75.6613 1.13961C75.3398 1.12141 75.0043 1.106 74.7024 0.970189C73.9343 0.619576 73.0842 0.488016 72.246 0.590045C71.2416 0.702058 70.2526 0.968089 69.2264 0.907182C67.7198 0.818272 66.2146 0.936585 64.6954 0.825973C62.5163 0.667054 60.3212 0.943586 58.1323 1.01779C57.3023 1.0465 56.4772 1.11091 55.6388 0.97579C54.4726 0.788168 53.2916 0.740563 52.1163 0.71536C51.1154 0.692957 50.1145 0.810571 49.1129 0.824572C47.7673 0.843475 46.4211 0.824572 45.0749 0.817572C44.4557 0.817572 43.8309 0.876378 43.2187 0.782568C40.3806 0.349918 37.5453 -0.211547 34.6798 0.0663853C33.0905 0.220403 31.4725 -0.0288256 29.9253 0.751764C29.6766 0.877078 29.3565 0.853976 29.0911 0.769266C28.1371 0.470332 27.4569 0.97999 26.9309 2.04761C26.8672 2.17643 26.8118 2.34935 26.7208 2.40955C25.9727 2.89961 25.4978 3.7061 25.1714 4.75482C24.9823 5.35969 24.5901 5.67893 24.0676 5.59072C23.8442 5.55005 23.6142 5.56717 23.3994 5.64043C22.7732 5.86865 22.2205 6.21729 22.2086 7.31292C22.1967 8.46175 21.7246 9.16813 21.0214 9.67359C20.4281 10.0999 20.115 10.8077 20.0653 11.7444C20.0492 12.0511 20.0359 12.3969 19.9252 12.6433C19.8223 12.8758 19.5491 13.1943 19.4286 13.1404C18.7373 12.8338 18.4634 13.6213 18.0116 14.0022C17.3616 14.551 17.2727 15.2686 17.4275 16.1675C17.6467 17.4438 17.8722 18.7172 18.0922 19.976C18.8865 20.6165 19.6871 20.9169 20.5507 20.9183C22.5361 20.9227 24.5113 21.2026 26.4196 21.75C27.569 22.0769 28.7836 21.9733 29.8517 22.819C29.9393 22.889 30.0696 22.854 30.1802 22.8722C31.9614 23.1669 33.7419 23.4582 35.5224 23.7606C35.9132 23.8306 36.3384 23.8222 36.683 24.0448C38.6141 25.2924 40.8002 24.6665 42.7607 25.6711C42.9007 25.7446 43.0913 25.6375 43.2587 25.6389C43.9318 25.6445 44.607 25.6221 45.2787 25.6795C46.62 25.795 47.9586 26.0226 49.3006 26.0695C49.973 26.0926 50.6314 26.0548 51.3017 26.2578C51.993 26.4678 52.7145 26.4853 53.5221 26.6022C53.0955 27.5585 52.4875 27.7133 51.8929 27.847C50.1207 28.2406 48.2833 28.2368 46.5129 27.8358C45.0826 27.5214 43.6691 27.1056 42.2066 27.4157C41.9419 27.4717 41.6505 27.3891 41.3815 27.3051C39.5121 26.7177 37.6132 26.458 35.708 26.2858C35.264 26.2459 34.8101 25.9757 34.3842 26.0534C32.4517 26.4034 30.6019 25.9547 28.7745 25.1398C28.5643 25.046 28.3269 24.9661 28.1133 25.0046C26.3552 25.3183 24.6391 24.7561 22.9062 24.5552C22.5904 24.5181 22.285 24.4082 22.0076 24.6686C22.2927 24.8436 22.5679 25.0775 22.867 25.1454C24.0872 25.4254 25.3129 25.6641 26.5408 25.8748C27.3204 26.0079 28.1112 26.0226 28.8886 26.171C29.3383 26.2571 29.9036 26.311 29.7796 27.2911C28.8389 27.1581 27.8709 26.7647 26.9722 26.9656C26.0617 27.17 25.0972 26.8326 24.1649 27.3023C24.6363 28.4448 25.6302 27.6951 26.1156 28.6682C25.9797 28.7928 25.8558 29.0028 25.7339 29C25.2289 28.9895 24.7246 28.9139 24.2203 28.8642C22.0895 28.6542 19.9588 28.4581 17.8302 28.2222C17.2755 28.1613 16.7228 28.0073 16.1786 27.8351C15.2582 27.5438 14.3442 27.4248 13.3489 27.7084C14.0493 28.7438 14.0899 28.8355 14.9564 28.9419C16.1471 29.0889 17.2944 29.5405 18.3541 30.2195C19.7655 31.1248 21.2035 31.5973 22.7465 31.6246C23.3629 31.6351 23.9779 31.7961 24.5929 31.9046C25.1476 31.9999 25.701 32.1959 26.2557 32.2015C28.1069 32.2211 29.8419 33.3846 31.71 33.2243C31.9201 33.2061 32.1568 33.3426 32.3537 33.4826C32.5183 33.6009 32.6422 33.8292 32.844 34.0875C31.7436 35.2503 30.5809 35.7418 29.4076 36.1716C28.7128 36.4265 28.0635 36.8899 27.2839 36.7611C25.8388 36.5285 24.3829 36.3687 22.9217 36.2822C22.2633 36.2395 21.5649 36.2024 20.9682 36.7905C21.3884 37.6915 21.3884 37.6894 21.7582 37.8406C22.4972 38.1431 23.3055 38.1704 24.055 38.9572C23.8231 39.3346 23.6522 39.7196 23.412 39.9822C22.7066 40.7523 21.9326 41.4068 21.263 42.2273C20.6046 43.0345 19.8902 43.5575 19.0259 43.7157C18.8045 43.757 18.5888 43.8557 18.3682 43.9131C17.6068 44.1168 17.1417 44.6398 16.8272 45.727C16.3761 47.2882 15.605 48.6296 14.6524 49.8204C14.6818 51.0196 14.7413 52.2882 14.1621 53.2319C12.6309 54.5277 10.9212 54.7245 9.34801 55.4995C8.30437 56.0133 7.24671 56.5349 6.21848 57.0809C4.22926 58.1311 2.41094 59.6936 0.716597 61.4984C0.42903 61.7973 0.210923 62.1558 0.0778044 62.5486C-0.236689 63.5665 0.414712 66.9297 1.08572 67.5191C1.68809 68.0449 2.36121 68.5111 3.04693 68.7359C4.64742 69.2581 6.14073 70.1444 7.63475 71.0461C8.06412 71.3052 8.39822 71.728 8.53411 72.37C8.83179 73.7785 9.11406 75.1934 9.42575 76.721C8.94246 77.1088 8.525 77.7144 8.08653 77.7445C6.71369 77.8397 6.02516 79.2147 5.23718 80.395C4.64952 81.2757 4.58718 82.5163 4.86105 83.495C5.18348 84.5874 5.69559 85.6147 6.37398 86.5298C6.9021 87.2509 7.45264 87.86 7.68238 88.8863C7.75058 89.1649 7.8787 89.4253 8.05781 89.6494C9.46988 91.4143 9.86422 93.8569 10.4344 96.1671C9.84601 97.1626 9.29548 98.0216 8.5278 98.6055C8.14957 98.8932 7.69919 99.3357 7.56961 99.8481C7.30695 100.889 6.74801 101.486 6.22409 102.186C5.86266 102.67 5.55447 103.237 5.26029 103.809C5.17764 103.969 5.22947 104.262 5.20636 104.799C5.83675 103.897 6.19677 103.034 6.94973 102.854C8.30437 103.318 8.97328 104.934 9.64709 106.046C10.5282 106.498 11.2791 106.691 11.8647 107.23C12.584 107.894 13.4448 107.399 14.1249 108.026C14.168 108.073 14.2148 108.116 14.265 108.155C15.8438 109.142 16.0588 109.044 16.8902 106.89C17.0836 106.956 17.328 106.955 17.4947 107.113C18.0102 107.599 18.5187 108.054 19.1442 108.258C19.4594 108.361 19.7508 108.66 20.031 108.917C21.3618 110.134 24.4717 111.927 26.0302 112.454C26.9008 112.749 27.7532 113.166 28.5958 113.596C29.3444 113.979 30.0694 114.407 30.7672 114.876C32.4342 115.996 34.4409 115.762 35.9763 117.402C36.0547 117.487 36.1969 117.45 36.3048 117.492C36.9515 117.739 37.5973 117.99 38.2422 118.246C39.2641 118.648 40.2279 119.253 41.3241 119.394C42.4202 119.534 43.5017 120.131 44.6014 120.438C45.8096 120.774 47.0326 121.011 48.2499 121.285C49.8609 121.649 51.5188 121.787 53.0696 122.427C54.6435 123.078 56.2573 123.318 57.8388 123.827C58.3039 123.977 58.7977 124.074 59.274 123.793C59.239 123.639 59.239 123.528 59.204 123.496C58.9721 123.286 58.7368 123.085 58.4923 122.906C57.8451 122.437 57.1846 122.004 56.5472 121.511C56.2671 121.296 56.3525 120.442 56.6663 120.343C57.0381 120.221 57.431 120.177 57.8206 120.213C58.6611 120.305 59.4975 120.539 60.3422 120.594C61.2483 120.66 62.1401 120.856 62.9898 121.177C63.8548 121.497 64.7409 121.707 65.6213 121.948C66.3918 122.158 67.1672 122.335 67.939 122.535C68.6983 122.732 69.4548 122.942 70.2218 123.148C69.9906 123.885 69.8764 124.121 69.6614 124.192C69.1144 124.371 68.5561 124.49 68.0168 124.705C67.0467 125.091 66.0927 125.434 65.068 125.017C64.7703 124.895 64.3837 124.973 64.0832 125.13C63.4528 125.456 62.8882 125.358 62.2817 125.029C61.8166 124.778 61.3088 124.679 60.8283 124.521C60.7323 124.85 60.7071 125.269 60.5705 125.357C59.2999 126.17 57.9607 126.183 56.6054 125.89C55.9302 125.142 55.1114 125.452 54.3556 125.281C53.2503 125.029 52.1548 124.69 51.0384 124.383C50.7035 124.707 50.5242 125.407 49.959 125.277C48.4138 124.924 46.8526 124.684 45.3228 124.233C44.0081 123.846 42.7263 123.239 41.4347 122.709C40.2545 122.226 39.0666 121.781 37.9725 120.951C37.5354 120.62 37.0367 120.419 36.5485 120.266C36.4274 120.228 36.2565 120.498 36.101 120.674C37.4318 121.369 38.8116 121.934 40.0808 122.807C41.399 123.711 42.7579 124.234 44.1909 124.54C44.8409 124.68 45.4433 125.146 46.0576 125.776C45.9623 126.261 45.673 126.229 45.3999 126.273C44.9264 126.349 44.4557 125.853 43.9822 126.24C44.3794 126.865 44.9768 126.832 45.4818 127.103C45.7522 127.247 45.9721 127.48 45.8264 128.073C45.4909 128.182 45.1106 128.278 44.7422 128.429C43.1256 129.09 41.5454 129.28 40.057 127.869C39.4392 127.284 38.8242 127.391 38.2359 127.958C38.376 128.528 38.5161 129.095 38.647 129.611C38.1357 130.353 37.5824 130.288 37.0122 130.321C36.4204 130.355 35.8348 130.597 35.2261 130.753C34.4185 130.193 33.6453 129.353 32.6275 129.779C32.5813 130.145 32.5344 130.512 32.4972 130.81C31.6707 131.392 30.8961 130.918 30.134 130.956C29.823 131.91 29.346 132.58 28.6505 133.048C27.7995 133.621 27.0052 134.357 26.1927 135.038C25.874 135.305 25.7808 135.956 26.0491 136.237C26.8196 137.043 27.4983 137.924 27.7511 139.277C28.3605 139.794 28.3892 140.44 28.046 141.262C27.8856 141.649 27.859 142.142 27.7721 142.587C26.9253 142.769 26.9561 143.913 26.6115 144.639C26.3047 145.285 25.8284 145.489 25.3458 145.642C25.0818 145.726 24.782 145.564 24.5053 145.61C23.3104 145.808 22.0825 145.783 20.9037 146.438C21.0109 146.789 21.0907 146.99 21.1377 147.209C21.4318 148.593 21.3093 149.291 20.4281 149.944C19.9546 150.294 19.6177 150.764 19.2906 151.287C18.7303 152.183 18.06 152.589 17.2012 152.337C17.1214 152.314 17.0156 152.465 16.8895 152.559C16.947 153.145 17.0058 153.749 17.0612 154.316C20.1206 156.102 20.412 157.251 20.5332 159.935C21.3555 160.898 22.5644 161.228 23.1717 162.693C22.9819 163.331 22.8096 163.974 23.3006 164.549C23.6186 164.902 23.9017 165.286 24.146 165.694C24.4325 166.195 24.6672 166.724 24.8464 167.272C24.9165 167.479 24.8191 167.918 24.6881 168.078C24.5572 168.238 24.235 168.327 24.0844 168.218C23.7426 167.969 23.4701 167.544 23.1395 167.257C22.8796 167.031 22.6051 167.084 22.4166 167.477C22.4321 168.838 23.4225 168.705 24.0143 169.368L23.5569 170.278C23.0772 169.916 22.5988 169.557 22.1435 169.213C21.6637 169.261 21.214 169.374 20.772 169.333C20.2012 169.279 19.7998 169.574 19.493 170.184C19.36 172.714 20.9534 173.628 22.0146 175.134C21.567 175.873 21.1818 176.509 20.8085 177.124C20.8141 178.074 21.2287 178.638 21.7463 178.958C23.0001 179.734 23.7236 181.408 24.9067 182.208C24.5109 183.657 24.5116 183.686 23.9653 183.788C22.4944 184.069 21.6455 185.18 21.4746 187.254C21.4571 187.468 21.3464 187.667 21.2595 187.932L20.2719 188.066C20.0296 188.473 19.7879 188.882 19.5715 189.252C18.9523 189.187 18.3275 188.361 17.936 189.56C18.212 190.561 18.6427 189.481 18.8942 189.684C19.3144 190.023 19.6569 189.776 20.0205 189.648C20.4239 189.508 20.6186 188.697 21.2735 188.905C21.2623 189.377 21.3086 189.829 21.2287 190.235C21.1033 190.871 20.9002 191.478 20.7258 192.096C21.8339 191.349 23.0723 191.104 24.1215 190.322L25.2226 191.013C25.3914 190.672 25.5154 190.422 25.7024 190.044L27.9115 190.402C28.1672 189.569 28.4018 188.812 28.626 188.072C29.1863 188.179 29.6458 188.202 30.0766 188.361C31.5916 188.921 33.2215 189.047 34.5726 190.229C35.2744 190.85 36.1194 191.288 37.0318 191.503C37.48 191.624 37.9153 191.789 38.3318 191.993C40.1901 192.866 42.0063 193.963 44.0242 193.926C44.8557 194.527 45.7753 194.346 46.6158 194.572C46.8631 194.229 47.0361 193.913 47.2609 193.699C47.4858 193.485 47.7694 193.216 48.0069 193.251C49.6179 193.488 51.2611 193.291 52.8511 193.971C53.8562 194.392 54.9052 194.699 55.9785 194.887C58.1926 195.292 60.4178 195.587 62.6382 195.937C65.9302 196.456 69.2299 196.961 72.5493 197.106C73.1636 197.133 73.775 197.296 74.3886 197.383C76.1194 197.626 77.848 197.943 79.5837 198.083C82.2194 198.299 84.8461 198.632 87.4678 199.052C87.5917 199.071 87.6982 199.302 87.9427 199.584C87.5819 199.779 87.3508 199.958 87.1021 200.026C86.4984 200.193 85.8848 200.292 85.281 200.446C83.5706 200.89 81.8629 201.356 80.1511 201.795C79.826 201.884 79.49 201.927 79.153 201.923C77.2968 201.872 75.4407 201.834 73.5845 201.713C72.5766 201.649 71.5743 201.428 70.5678 201.293C70.469 201.28 70.3618 201.383 70.2589 201.433L70.4081 202.343L69.55 203.114L70.3906 204.895C69.55 205.724 68.7263 205.934 67.7843 205.772C65.7607 205.422 63.74 204.751 61.6821 205.478C61.4264 205.569 61.126 205.408 60.8458 205.368V205.405C60.1054 205.055 59.3749 205.458 58.6408 205.499C58.5939 205.499 58.5561 205.824 58.5148 206.029L58.493 206.013C58.617 206.794 58.9756 207.268 59.536 207.337C60.2585 207.426 60.9866 207.46 61.7143 207.441C62.1542 207.429 62.468 207.607 62.6816 208.125C62.6361 208.771 62.3139 209.046 61.9357 209.267C61.4741 209.535 61.0181 209.827 60.5593 210.107C60.3884 211.405 59.4863 211.199 58.8454 211.549C59.6719 213.538 60.0508 215.506 59.826 217.71C59.7321 218.62 59.5871 219.246 59.0366 219.864C58.554 220.406 58.3102 221.359 58.0322 221.974C56.8919 222.608 55.8279 223.12 54.8172 223.785C53.7861 224.465 52.9729 225.508 52.5002 227.013C52.2802 227.713 52.0526 228.468 51.6877 229.017C50.8653 230.251 49.9541 231.374 49.0764 232.545C49.1815 232.965 49.2698 233.323 49.3454 233.629C49.8196 233.743 50.1397 233.722 50.5074 233.318C51.1 232.667 51.6982 231.843 52.5506 232.066C53.1319 232.78 53.4149 233.804 54.0159 234.166C55.1408 233.519 56.1606 232.866 57.2127 232.341C58.3628 231.768 59.4855 230.927 60.7947 231.386C60.9789 231.451 61.2345 231.276 61.425 231.131C62.3888 230.396 63.4626 230.282 64.5139 230.04C64.8992 229.952 65.2907 229.896 65.6676 229.76C66.2034 229.567 66.7182 229.227 67.2589 229.103C68.4475 228.832 69.5946 228.403 70.67 227.828C70.9691 227.67 71.3396 227.597 71.6506 227.681C72.5031 227.911 73.3191 227.821 74.1519 227.51C75.1255 227.147 76.1131 226.855 77.1021 226.572C77.5364 226.447 78.0091 226.267 78.4224 226.388C79.1228 226.591 79.7791 226.374 80.4277 226.211C82.0857 225.791 83.7289 225.277 85.4008 224.935C86.0963 224.795 86.8017 224.691 87.3886 225.042C88.2901 225.583 89.1488 225.431 90.0369 225.266C90.5931 225.163 91.1408 224.981 91.6949 224.857C94.9028 224.137 98.1724 224.173 101.368 223.18C102.879 222.71 104.493 222.876 106.061 222.76C106.228 222.747 106.481 222.673 106.551 222.792C107.106 223.685 107.775 223.316 108.428 223.191C109.103 223.062 109.619 223.487 109.937 224.081C110.997 223.853 111.93 223.606 112.872 223.459C115.666 223.026 118.336 221.72 121.124 221.219C121.85 221.089 122.582 220.86 123.289 220.994C124.819 221.283 126.319 220.98 127.832 220.837C129.117 220.716 130.41 220.616 131.778 220.97C131.83 221.407 131.88 221.833 131.93 222.253C133.25 221.577 134.68 221.486 136.055 221.509C137.238 221.528 138.399 221.628 139.572 221.313C140.565 221.048 141.348 221.478 141.673 222.929C142.889 222.985 143.964 223.274 144.369 225.263C143.409 226.328 142.351 227.137 141.122 227.433C140.291 227.634 139.446 227.721 138.607 227.853C137.729 227.993 136.885 228.483 135.971 228.285C135.689 228.218 135.392 228.258 135.138 228.4C133.578 229.357 131.916 228.805 130.305 229.044C129.821 229.114 129.351 229.077 128.844 229.236C127.663 229.607 126.439 229.824 125.202 229.881C124.343 229.919 123.637 230.231 123.01 230.973C123.422 231.08 123.835 231.253 124.247 231.253C125.315 231.246 126.382 231.116 127.45 231.099C128.066 231.088 128.724 231.029 129.291 231.292C130.663 231.923 132.042 231.841 133.434 231.67C134.659 231.52 135.88 231.214 137.114 231.418C139.076 231.742 141.051 231.792 142.998 231.441C146.129 230.876 149.276 230.835 152.416 230.577C154.604 230.397 156.795 230.258 158.98 230.011C161.164 229.765 163.348 229.438 165.527 229.092C168.425 228.633 171.315 228.078 174.213 227.658C175.146 227.523 176.068 226.927 177.061 227.385L178.176 229.325C179.367 229.203 180.469 228.749 181.597 229.144C181.853 229.234 182.157 229.118 182.43 229.04C183.089 228.854 183.75 228.673 184.397 228.418C185.193 228.104 186.023 228.162 186.724 228.571C187.774 229.182 188.885 229.378 189.951 229.847C192.09 230.789 194.255 231.633 196.325 232.854C197.971 233.827 199.661 234.692 201.017 236.425C201.438 236.964 201.987 237.097 202.564 236.626C203.046 236.232 203.528 236.322 203.932 236.942C204.104 237.207 204.328 237.408 204.549 237.66C204.919 236.39 205.071 236.127 205.914 235.13C206.075 234.939 206.194 234.679 206.328 234.454C206.123 233.375 205.806 232.476 205.315 231.696C205.167 231.461 204.965 231.26 204.877 230.989C204.766 230.657 204.643 230.226 204.709 229.913C204.798 229.497 205.125 229.546 205.427 229.595C206.322 229.74 207.15 230.253 208.013 230.493C209.571 230.926 211.045 231.671 212.495 232.485C213.208 232.884 213.95 233.228 214.716 233.513C216.397 234.143 217.915 235.352 219.409 236.573C219.647 236.768 219.773 237.229 220.024 237.706C218.595 237.739 217.573 236.134 216.184 236.609C216.367 237.177 216.726 237.251 217.024 237.41C217.908 237.884 218.824 238.251 219.607 239.04C219.738 239.171 219.918 239.214 220.08 239.278C221.153 239.704 221.983 240.468 222.461 241.978C222.61 242.443 223.141 242.739 223.541 242.958C223.751 243.073 224.056 242.857 224.331 242.788C224.453 241.668 224.55 240.661 224.681 239.665C224.775 238.921 224.831 238.143 225.273 237.59C224.84 236.8 224.396 236.023 223.983 235.214C223.576 234.417 222.659 234.205 222.647 232.91C222.758 232.792 222.872 232.59 223.016 232.532C223.468 232.35 223.809 232.056 224.031 231.429C224.272 230.776 224.311 230.066 224.143 229.391C223.981 228.731 223.907 227.891 223.571 227.478C222.547 226.222 222.352 224.157 221.194 223.048C220.861 222.73 220.891 221.831 221.209 221.597C222.313 220.79 222.638 219.007 223.601 218.035C223.741 217.867 223.827 217.661 223.847 217.443C223.898 216.826 223.959 216.192 223.907 215.582C223.837 214.727 224.559 214.486 224.569 213.762C224.59 212.287 224.683 210.772 223.745 209.653C223.58 209.455 223.465 209.178 223.349 208.981C223.333 208.048 223.291 207.191 223.317 206.338C223.332 205.885 223.41 205.436 223.55 205.004C223.756 204.374 224.023 203.775 224.284 203.18C224.442 202.822 224.705 202.598 224.993 202.76C225.175 202.861 225.373 203.152 225.423 203.41C225.555 204.081 225.612 204.78 225.691 205.469C225.777 206.206 225.514 206.589 224.915 206.544C224.59 206.519 224.264 206.283 223.88 206.754C224.09 206.987 224.269 207.314 224.493 207.398C224.808 207.516 225.225 207.294 225.481 207.499C226.206 208.078 226.888 208.772 227.555 209.477C227.966 209.911 227.967 210.527 227.803 211.182C227.758 211.358 227.85 211.602 227.873 211.786C228.135 211.884 228.35 211.98 228.573 212.043C228.73 212.081 228.89 212.108 229.051 212.124C229.11 211.717 229.149 211.451 229.191 211.186C229.339 211.247 229.563 211.244 229.622 211.38C229.984 212.21 230.307 213.071 230.752 214.2C230.847 212.629 230.576 211.594 229.926 210.73C229.362 209.981 228.869 209.174 227.987 209.005C227.625 208.935 227.286 208.287 227.006 207.82C226.763 207.411 226.958 206.952 227.09 206.51C227.686 204.51 227.253 202.519 227.056 200.519C226.946 199.399 226.426 198.734 225.909 198.016C225.794 197.858 225.661 197.622 225.662 197.423C225.666 195.973 224.899 195.451 224.147 194.874C223.811 194.616 223.51 194.269 223.149 193.919C223.392 192.094 222.262 190.528 222.838 188.677C222.237 188.152 221.81 187.591 221.6 186.717C221.41 185.926 221.079 185.201 220.788 184.383C221.478 183.438 222.392 183.414 223.149 183.296C223.51 182.316 223.845 181.505 224.111 180.653C224.487 179.447 224.509 178.155 224.036 177.04C223.705 176.263 223.195 175.467 222.626 175.084C221.427 174.276 220.91 172.689 220.115 171.422C219.783 170.894 219.842 170.238 219.941 169.636C219.979 169.403 220.212 169.184 220.392 169.056C220.616 168.896 220.942 169.296 221.185 168.761L220.918 166.667C220.309 166.142 219.777 165.71 219.273 165.22C219.182 165.132 219.151 164.768 219.203 164.6C219.253 164.444 219.477 164.256 219.583 164.295C220.393 164.596 221.194 164.934 221.997 165.289C223.983 166.172 225.916 167.212 227.549 169.091C227.615 169.167 227.754 169.12 227.852 169.13C228.044 168.593 228.235 168.059 228.417 167.554C229.124 167.662 229.634 168.014 229.933 168.712C230.669 170.427 231.873 171.237 233.131 171.862C234.072 172.328 234.773 173.189 235.507 174.032C235.869 174.452 236.075 174.962 236.105 175.642C236.131 176.334 236.206 177.022 236.33 177.703C236.4 178.066 236.739 178.497 236.96 178.23C237.623 177.429 238.314 177.789 239.096 178.085C239.003 175.998 239.367 174.287 240.427 172.996C241.03 173.21 241.366 173.742 241.662 174.315C242.028 175.025 242.002 176.098 241.447 176.601C240.84 177.152 240.83 177.806 240.913 178.702C241.51 178.652 242.182 178.912 242.647 178.217C243.192 177.402 244.078 176.84 243.954 175.42C243.65 175.057 243.244 174.787 243.089 174.347ZM239.225 128.792C240.377 129.767 241.649 130.466 242.504 131.979C242.508 132.02 242.508 132.061 242.504 132.102C242.597 132.459 242.468 132.81 242.561 133.167C241.947 133.365 241.791 132.682 241.352 132.318C240.828 131.882 240.372 131.434 239.706 131.369C239.062 131.304 238.475 130.764 237.782 130.155L239.225 128.792ZM193.86 71.1238C193.699 71.079 193.765 70.3755 193.936 70.3734C194.19 70.3699 194.449 70.4805 194.696 70.5834C194.732 70.5988 194.719 70.8424 194.74 71.149C194.44 71.1483 194.14 71.1981 193.86 71.1238ZM197.101 71.6881C198.082 71.2149 198.401 71.2828 199.209 72.0809C198.465 72.6864 197.82 72.3777 197.101 71.6881ZM200.861 72.8215C200.58 72.6815 200.328 72.6493 200.227 72.4617C200.14 72.3021 200.233 71.9583 200.246 71.6958C200.443 71.8057 200.67 71.8673 200.826 72.0459C200.903 72.1348 200.85 72.4414 200.861 72.8222V72.8215ZM207.089 24.236C208.368 24.3564 209.519 24.5573 210.648 25.1146C211.699 25.6347 212.808 25.9435 213.886 26.3705C214.112 26.4618 214.31 26.613 214.457 26.8081C214.684 27.1147 214.704 27.485 214.359 27.8743L213.257 26.7983C211.965 27.0083 210.623 27.142 209.311 26.5182C209.156 26.4557 208.984 26.4475 208.824 26.4951C207.864 26.7394 207.403 25.9267 207.053 24.8954C207.012 24.7708 207.066 24.5888 207.089 24.2346V24.236ZM190.271 60.7879C190.64 60.8502 190.966 60.9104 191.294 60.9601C192.446 61.1323 193.549 61.3437 194.751 60.8901C196.322 60.2922 197.973 60.47 199.496 61.5285C199.594 61.5986 199.703 61.8282 199.756 61.8002C201.044 61.119 201.973 62.6459 203.127 62.8552C204.227 63.0547 205.309 63.5553 206.369 64.0453C206.814 64.2554 207.239 64.2974 207.684 64.3044C208.25 64.3128 208.616 64.7244 208.865 65.3832C209.31 65.1249 209.745 64.828 210.204 64.6299C210.566 64.4738 210.865 64.7797 211.071 65.1739C211.304 65.6191 211.204 66.084 210.959 66.4473C210.539 67.0711 210.094 67.6584 209.603 68.3375C209.156 68.2745 208.655 68.222 208.161 68.1079C208.113 68.0967 208.109 67.7117 208.088 67.5226C207.143 68.2892 207.153 68.1856 206.028 67.9819C204.255 67.6619 202.511 67.0452 200.713 67.0102C200.127 66.999 199.642 66.7042 199.184 66.175C198.509 65.3937 198.484 65.4343 197.451 65.211C197.44 65.7171 197.43 66.21 197.416 66.8471C196.039 66.8253 194.746 66.427 193.354 66.1218C193.268 65.6604 193.172 65.1515 193.058 64.5403C192.436 63.836 191.807 63.2143 190.837 63.745C190.265 64.0579 189.813 63.395 189.312 62.7747L190.271 60.7879ZM192.844 70.379C191.712 70.379 190.769 70.1479 189.828 69.8637C189.063 69.632 189.063 69.6285 188.26 68.8332C189.931 68.8416 191.896 69.4591 192.844 70.3755V70.379ZM185.445 63.7436C185.479 63.7499 185.491 63.9907 185.567 64.4535C185.368 64.3485 185.209 64.303 185.087 64.1833C185.032 64.1293 185.053 63.9277 185.039 63.7933C185.175 63.7667 185.314 63.7163 185.445 63.7401V63.7436ZM183.113 67.5058C183.982 67.2335 184.838 67.2853 186.018 67.8314C183.847 68.9389 183.847 68.9389 182.967 67.8517C183.015 67.7285 183.049 67.5226 183.113 67.5023V67.5058ZM164.468 62.0473C166.347 62.6228 168.266 62.4786 170.159 62.7726C171.716 63.0141 173.28 63.173 174.84 63.3866C174.996 63.4083 175.147 63.5483 175.293 63.6519C175.336 63.7051 175.356 63.7731 175.349 63.8409C175.321 63.9809 175.288 64.1986 175.221 64.2302C175.019 64.3315 174.798 64.3851 174.573 64.387C173.844 64.3597 173.116 64.2757 172.387 64.247C169.42 64.1279 166.476 63.6806 163.544 63.0624C163.099 62.9686 162.822 62.7341 162.618 62.0123C163.27 62.0158 163.894 61.8709 164.468 62.0473ZM161.379 61.7554C161.402 61.7274 161.46 61.7554 161.503 61.7554C161.503 61.8135 161.512 61.8954 161.49 61.9241C161.468 61.9528 161.409 61.9241 161.367 61.9241C161.368 61.866 161.355 61.7834 161.379 61.7554ZM11.8555 56.8975C11.7659 57.2356 11.8654 57.6599 11.8352 58.0393C11.7876 58.6281 11.5495 59.0384 11.1348 59.2295C10.7636 59.4024 10.4015 59.6845 10.0232 59.7356C9.23244 59.8414 8.63847 60.2439 8.31417 61.3017C8.25463 61.4949 8.09073 61.7218 7.95135 61.7561C7.00436 62.0067 6.44402 62.998 5.78632 63.822C5.04316 64.7573 4.20264 64.5333 3.72915 63.3011C3.64896 63.0928 3.58938 62.8771 3.55124 62.6571C3.50151 62.3574 3.4812 62.048 3.43427 61.5853C3.82791 61.0322 4.23066 60.3909 4.68944 59.8414C5.17974 59.2526 5.7632 59.1413 6.4118 59.3709C7.29644 59.6866 7.30345 59.6453 7.56191 58.2627C7.586 58.1747 7.61571 58.0885 7.65086 58.0043C8.82128 56.9829 10.1864 56.5293 11.5221 55.9804C11.761 55.8817 12.0433 55.9853 12.28 55.9944C12.411 56.6959 11.9284 56.6189 11.8555 56.8975ZM26.5779 172.276C26.1177 173.632 25.4873 173.899 24.6069 173.082C24.3302 172.825 24.1166 172.439 23.8532 172.15C23.5899 171.86 23.3069 171.627 23.0687 171.403C22.9287 170.687 23.3419 170.595 23.5766 170.327C24.2245 170.471 24.8731 170.607 25.5189 170.763C25.9909 170.877 26.3356 171.247 26.5639 171.821C26.5709 171.98 26.6164 172.157 26.5779 172.276ZM71.3172 187.294C70.8192 187.448 70.3086 187.794 69.6915 187.084C70.282 186.454 70.773 186.647 71.25 186.734C71.3046 186.744 71.348 186.97 71.3754 187.104C71.3866 187.161 71.3473 187.285 71.3172 187.294ZM72.8953 186.636L74.2899 186.881C73.7905 187.608 73.3464 187.672 72.8953 186.636ZM60.0025 206.454L59.8806 206.384C59.9254 206.307 59.971 206.23 60.0158 206.152C60.0389 206.204 60.0823 206.258 60.0795 206.307C60.0767 206.357 60.027 206.402 60.0025 206.454ZM145.69 61.0014C145.755 61.0154 145.795 61.245 145.847 61.3752C145.176 62.3336 144.338 62.2153 143.513 62.0053C143.298 61.9493 143.125 61.5951 142.875 61.3143C143.596 60.9531 144.871 60.8222 145.69 61.0014ZM147.461 79.1545C146.207 78.9136 145.169 78.7211 144.133 78.5125C143.17 78.3186 142.349 77.7522 141.623 76.5985C141.871 76.4119 142.165 76.2964 142.473 76.2642C142.782 76.232 143.093 76.2844 143.374 76.4158C144.24 76.7987 145.118 76.8694 146.001 77.0101C146.396 77.0821 146.773 77.2297 147.112 77.4449C147.291 77.5555 147.458 77.8593 147.521 78.1246C147.581 78.3711 147.498 78.6847 147.462 79.1545H147.461ZM148.449 79.6291C149.45 78.3389 149.958 78.439 150.516 79.8111L148.449 79.6291ZM157.703 82.9769C157.298 83.4516 156.845 83.0686 156.478 82.9027C155.962 82.671 155.482 82.3027 154.928 82.183C154.767 82.148 154.527 81.7672 154.533 81.5529C154.54 81.2372 154.733 80.9306 154.837 80.6484C155.043 80.7184 155.187 80.7066 155.247 80.7983C155.774 81.5732 156.404 81.8897 157.177 81.8484C157.663 81.8218 157.872 82.2488 157.703 82.9769H157.703ZM159.579 62.5752C159.571 62.6235 159.388 62.6193 159.286 62.6389C158.642 63.6246 157.83 63.1534 157.074 63.1093C156.803 63.0932 156.444 62.7362 156.284 62.8776C155.463 63.5917 154.654 62.9154 153.848 62.9476C153.069 62.9819 152.289 62.8776 151.51 62.8622C150.575 62.8419 149.625 63.2045 148.723 62.4905C148.522 62.3315 148.181 62.5444 147.907 62.5248C147.439 62.4912 147.06 62.251 146.892 61.4046C147.208 61.3416 147.473 61.2324 147.732 61.2464C149.413 61.3367 151.088 61.4473 152.765 61.5643C154.612 61.6938 156.46 61.8261 158.305 61.9843C158.633 62.0123 158.955 62.1635 159.28 62.2587C159.453 62.244 159.633 62.23 159.579 62.5752H159.579ZM200.634 224.426C200.606 224.566 200.373 224.64 200.227 224.723C200.182 224.749 200.115 224.719 200.061 224.7C197.941 223.974 195.821 223.251 193.703 222.512C193.436 222.418 193.186 222.232 192.62 221.925C193.652 220.912 194.441 220.484 195.481 220.794C197.14 221.284 198.639 222.334 200.212 223.125C200.388 223.217 200.524 223.372 200.59 223.559C200.669 223.841 200.684 224.137 200.635 224.426H200.634ZM221.857 211.386C222.12 211.301 222.394 211.252 222.67 211.241C223.178 211.229 223.243 211.381 223.242 212.782C222.686 212.581 222.266 212.464 221.867 212.264C221.762 212.211 221.694 211.908 221.669 211.704C221.655 211.614 221.774 211.412 221.855 211.386H221.857ZM214.098 216.039C214.238 215.697 214.44 215.329 214.74 215.475C215.551 215.871 216.174 216.595 216.464 217.763C216.491 217.873 216.4 218.038 216.346 218.247C215.542 218.358 214.913 217.638 214.211 217.267C213.944 217.128 213.906 216.503 214.095 216.039H214.098ZM207.839 226.325C207.003 225.835 206.163 225.514 205.237 225.708C204.997 225.758 204.718 225.533 204.466 225.398C204.056 225.175 203.654 224.922 203.118 224.605C202.898 223.765 202.675 222.979 202.497 222.175C202.458 222.002 202.535 221.689 202.637 221.572C202.738 221.455 202.987 221.401 203.089 221.494C203.612 221.967 204.108 222.468 204.574 222.996C204.913 223.382 205.205 223.85 205.534 224.309C205.682 224.202 205.824 224.09 205.972 223.995C207.029 223.312 207.45 223.428 208.122 224.662C208.354 225.089 208.52 225.586 208.706 226.026C208.483 226.664 208.127 226.497 207.836 226.325H207.839ZM206.916 211.854C206.808 211.762 206.79 211.467 206.654 211.008C207.693 210.884 208.26 211.577 209.083 212.198C208.502 212.364 207.245 212.135 206.913 211.854H206.916ZM216.376 229.25C215.881 229.46 215.35 229.265 214.814 229.077C212.958 228.428 211.334 227.573 210.638 226.864C210.728 226.422 211.029 226.154 211.257 226.304C211.755 226.631 212.116 226.734 212.605 226.172C213.094 225.61 213.682 225.682 214.328 226.059C215.02 226.465 215.612 227.011 216.182 227.643C216.535 228.036 216.594 228.533 216.374 229.25H216.376Z" fill="#FAFAFA"/>
<path d="M214.008 174.188L216.67 175.798C217.485 176.292 218.42 176.553 219.373 176.553C220.326 176.553 221.261 176.292 222.077 175.798L224.738 174.188L223.127 176.848C222.633 177.663 222.371 178.597 222.371 179.55C222.371 180.503 222.633 181.438 223.127 182.252L224.738 184.913L222.077 183.303C221.262 182.808 220.327 182.547 219.373 182.547C218.42 182.547 217.485 182.808 216.67 183.303L214.008 184.913L215.619 182.252C216.113 181.438 216.375 180.503 216.375 179.55C216.375 178.597 216.113 177.663 215.619 176.848L214.008 174.188Z" fill="#94E3FF"/>
<path d="M214.008 185.612C213.884 185.612 213.762 185.579 213.655 185.516C213.548 185.454 213.459 185.364 213.398 185.256C213.338 185.147 213.306 185.025 213.308 184.901C213.31 184.777 213.345 184.656 213.41 184.549L215.021 181.889C215.45 181.184 215.677 180.375 215.677 179.55C215.677 178.725 215.45 177.915 215.021 177.21L213.41 174.55C213.328 174.416 213.294 174.259 213.313 174.103C213.331 173.947 213.402 173.802 213.513 173.691C213.624 173.58 213.769 173.51 213.925 173.491C214.08 173.473 214.238 173.507 214.372 173.588L217.034 175.202C217.739 175.631 218.548 175.858 219.374 175.858C220.2 175.858 221.009 175.631 221.715 175.202L224.376 173.588C224.51 173.507 224.668 173.473 224.823 173.492C224.979 173.511 225.124 173.581 225.235 173.692C225.345 173.803 225.416 173.948 225.434 174.103C225.453 174.259 225.419 174.416 225.338 174.55L223.727 177.21C223.297 177.915 223.07 178.725 223.07 179.55C223.07 180.375 223.297 181.184 223.727 181.889L225.338 184.549C225.419 184.683 225.453 184.841 225.434 184.996C225.415 185.151 225.344 185.296 225.234 185.406C225.123 185.517 224.978 185.587 224.823 185.606C224.668 185.625 224.51 185.592 224.376 185.511L221.715 183.9C221.009 183.471 220.2 183.244 219.374 183.244C218.548 183.244 217.739 183.471 217.034 183.9L214.372 185.511C214.262 185.577 214.137 185.612 214.008 185.612ZM216.09 176.268L216.221 176.484C216.784 177.408 217.082 178.468 217.082 179.55C217.082 180.631 216.784 181.692 216.221 182.615L216.089 182.831L216.306 182.7C217.23 182.138 218.291 181.84 219.373 181.84C220.455 181.84 221.516 182.138 222.44 182.7L222.656 182.831L222.525 182.615C221.962 181.692 221.665 180.631 221.665 179.55C221.665 178.468 221.962 177.408 222.525 176.484L222.657 176.268L222.44 176.4C221.516 176.962 220.455 177.26 219.373 177.26C218.292 177.26 217.231 176.962 216.307 176.4L216.09 176.268Z" fill="#3B5C91"/>
<path d="M219.375 24.8787L222.398 24.1387C223.324 23.912 224.17 23.4359 224.844 22.7621C225.519 22.0882 225.995 21.2425 226.222 20.317L226.962 17.2954L227.702 20.317C227.929 21.2425 228.406 22.0882 229.08 22.7621C229.754 23.4359 230.6 23.912 231.526 24.1387L234.549 24.8787L231.526 25.6187C230.6 25.8453 229.754 26.3215 229.08 26.9953C228.406 27.6691 227.929 28.5148 227.702 29.4404L226.962 32.462L226.222 29.4404C225.995 28.5148 225.519 27.6691 224.844 26.9953C224.17 26.3215 223.324 25.8453 222.398 25.6187L219.375 24.8787Z" fill="#FFD385"/>
<path d="M226.961 33.1621C226.804 33.1622 226.652 33.1097 226.528 33.013C226.405 32.9163 226.317 32.7809 226.28 32.6286L225.539 29.6071C225.344 28.8052 224.932 28.0723 224.349 27.4887C223.765 26.9051 223.032 26.4934 222.229 26.2985L219.206 25.5585C219.054 25.5211 218.919 25.4338 218.822 25.3106C218.726 25.1873 218.673 25.0353 218.673 24.8787C218.673 24.7222 218.726 24.5702 218.822 24.4469C218.919 24.3237 219.054 24.2364 219.206 24.199L222.229 23.4583C223.032 23.2636 223.765 22.8519 224.348 22.2685C224.932 21.685 225.344 20.9522 225.539 20.1504L226.279 17.1289C226.316 16.9765 226.404 16.8411 226.527 16.7442C226.651 16.6474 226.803 16.5947 226.96 16.5947C227.117 16.5947 227.269 16.6474 227.392 16.7442C227.516 16.8411 227.603 16.9765 227.64 17.1289L228.381 20.1504C228.576 20.9523 228.987 21.6851 229.571 22.2685C230.155 22.852 230.888 23.2636 231.691 23.4583L234.715 24.199C234.867 24.2364 235.002 24.3237 235.098 24.4469C235.195 24.5702 235.248 24.7222 235.248 24.8787C235.248 25.0353 235.195 25.1873 235.098 25.3106C235.002 25.4338 234.867 25.5211 234.715 25.5585L231.692 26.2985C230.889 26.4933 230.156 26.9051 229.572 27.4886C228.988 28.0722 228.576 28.8051 228.381 29.6071L227.64 32.6286C227.603 32.7807 227.516 32.9158 227.393 33.0125C227.269 33.1092 227.117 33.1619 226.961 33.1621ZM222.317 24.8787L222.563 24.939C223.614 25.1942 224.575 25.7337 225.34 26.4983C226.105 27.2629 226.644 28.2231 226.9 29.2739L226.96 29.5196L227.02 29.2739C227.276 28.2231 227.815 27.2627 228.58 26.4981C229.345 25.7335 230.306 25.1941 231.357 24.939L231.603 24.8787L231.357 24.8185C230.306 24.5633 229.345 24.0238 228.58 23.2592C227.815 22.4946 227.276 21.5344 227.02 20.4836L226.96 20.2379L226.9 20.4836C226.644 21.5343 226.105 22.4945 225.34 23.2591C224.575 24.0237 223.614 24.5632 222.563 24.8185L222.317 24.8787Z" fill="#3B5C91"/>
<path d="M6.14788 69.0223L8.6155 78.2221C8.71003 78.5749 8.89581 78.8966 9.15415 79.1549C9.4125 79.4132 9.73431 79.5989 10.0873 79.6935C10.4402 79.7881 10.8118 79.7881 11.1648 79.6937C11.5178 79.5992 11.8396 79.4135 12.098 79.1553L18.8362 72.4205C19.0945 72.1622 19.2803 71.8405 19.3748 71.4877C19.4693 71.135 19.4693 70.7635 19.3747 70.4107C19.28 70.058 19.0942 69.7363 18.8358 69.4781C18.5773 69.2199 18.2555 69.0342 17.9025 68.9397L8.69675 66.4748C8.34388 66.3802 7.97232 66.3802 7.61942 66.4746C7.26653 66.5691 6.94474 66.7548 6.68641 67.013C6.42808 67.2712 6.24231 67.5928 6.14778 67.9456C6.05324 68.2983 6.05328 68.6696 6.14788 69.0223Z" fill="#FFD385"/>
<path d="M10.6368 80.4675C10.3893 80.4668 10.143 80.4338 9.90411 80.3694C9.43111 80.2457 8.99961 79.9983 8.65394 79.6527C8.30828 79.3071 8.06093 78.8757 7.9373 78.4029L5.47109 69.2039C5.34483 68.7325 5.34493 68.2361 5.47135 67.7648C5.59778 67.2934 5.84608 66.8636 6.19133 66.5186C6.53657 66.1735 6.96659 65.9253 7.43818 65.7989C7.90978 65.6726 8.40634 65.6725 8.87798 65.7987L18.0823 68.2637C18.5542 68.3897 18.9846 68.6377 19.3301 68.9827C19.6757 69.3277 19.9243 69.7576 20.051 70.2291C20.1776 70.7006 20.1778 71.1971 20.0516 71.6687C19.9254 72.1403 19.6772 72.5704 19.3319 72.9157L12.5938 79.6505C12.3378 79.9092 12.033 80.1146 11.6971 80.2548C11.3612 80.395 11.0008 80.4673 10.6368 80.4675ZM6.82432 68.8419L9.29054 78.041C9.35305 78.2753 9.47625 78.489 9.64772 78.6606C9.81919 78.8322 10.0329 78.9556 10.2672 79.0183C10.5016 79.0811 10.7484 79.081 10.9827 79.018C11.217 78.9551 11.4306 78.8316 11.602 78.6599L18.3394 71.9258C18.5112 71.7545 18.6348 71.541 18.6978 71.3068C18.7607 71.0726 18.7608 70.826 18.698 70.5917C18.6353 70.3575 18.5118 70.1439 18.3401 69.9725C18.1685 69.8011 17.9547 69.678 17.7202 69.6155L8.51656 67.1505C8.28236 67.0876 8.03571 67.0875 7.80144 67.1501C7.56717 67.2128 7.35355 67.336 7.18207 67.5074C7.01059 67.6788 6.8873 67.8923 6.82462 68.1265C6.76194 68.3606 6.76208 68.6071 6.82502 68.8412L6.82432 68.8419Z" fill="#3B5C91"/>
<path d="M140.086 236.487L141.648 227.092C141.708 226.732 141.672 226.362 141.544 226.02C141.415 225.678 141.199 225.376 140.917 225.144C140.635 224.912 140.297 224.759 139.936 224.699C139.576 224.639 139.206 224.675 138.864 224.803L129.942 228.148C129.6 228.277 129.297 228.493 129.065 228.775C128.833 229.057 128.679 229.395 128.619 229.755C128.56 230.116 128.596 230.485 128.724 230.827C128.852 231.169 129.068 231.471 129.351 231.703L136.711 237.747C136.993 237.979 137.331 238.132 137.691 238.192C138.051 238.252 138.42 238.217 138.762 238.089C139.104 237.962 139.406 237.746 139.639 237.465C139.871 237.184 140.025 236.847 140.086 236.487Z" fill="#FF9494"/>
<path d="M138.024 238.928C137.382 238.927 136.761 238.701 136.267 238.291L128.907 232.241C128.53 231.931 128.241 231.527 128.07 231.07C127.898 230.613 127.85 230.119 127.93 229.637C128.01 229.156 128.216 228.704 128.526 228.327C128.836 227.95 129.24 227.661 129.697 227.49L138.619 224.145C139.076 223.973 139.571 223.925 140.052 224.005C140.534 224.085 140.986 224.29 141.364 224.6C141.741 224.91 142.03 225.314 142.201 225.771C142.373 226.228 142.421 226.722 142.341 227.204L140.778 236.599C140.701 237.082 140.497 237.535 140.186 237.912C139.876 238.29 139.47 238.578 139.011 238.747C138.696 238.866 138.361 238.927 138.024 238.928ZM139.601 225.366C139.433 225.366 139.267 225.397 139.111 225.456L130.188 228.801C129.962 228.886 129.761 229.029 129.607 229.216C129.453 229.404 129.351 229.628 129.311 229.867C129.272 230.106 129.295 230.351 129.381 230.578C129.466 230.805 129.609 231.005 129.796 231.159L137.156 237.21C137.343 237.364 137.568 237.466 137.807 237.506C138.046 237.546 138.292 237.522 138.519 237.437C138.747 237.352 138.947 237.208 139.101 237.021C139.256 236.833 139.357 236.609 139.397 236.369L140.96 226.974C140.992 226.777 140.982 226.575 140.929 226.382C140.875 226.189 140.781 226.009 140.652 225.856C140.523 225.703 140.362 225.58 140.181 225.495C139.999 225.41 139.802 225.365 139.602 225.364L139.601 225.366Z" fill="#3B5C91"/>
<path d="M12.8081 202.775L15.495 200.089C15.7897 199.794 15.9552 199.395 15.9552 198.978C15.9551 198.562 15.7894 198.162 15.4946 197.867C15.1998 197.573 14.8 197.407 14.3831 197.407C13.9663 197.408 13.5665 197.573 13.2718 197.868L10.5856 200.553L7.8988 197.868C7.75287 197.722 7.57959 197.606 7.38885 197.527C7.19811 197.448 6.99366 197.407 6.78715 197.407C6.3701 197.406 5.97002 197.572 5.67493 197.866C5.52881 198.012 5.41287 198.185 5.33373 198.376C5.25458 198.567 5.21378 198.771 5.21365 198.977C5.21339 199.394 5.37881 199.794 5.67353 200.089L8.35968 202.775L5.67353 205.46C5.52334 205.605 5.40353 205.778 5.3211 205.97C5.23867 206.162 5.19526 206.368 5.19342 206.577C5.19158 206.785 5.23133 206.992 5.31036 207.185C5.38939 207.378 5.50611 207.554 5.65372 207.701C5.80132 207.849 5.97685 207.965 6.17006 208.044C6.36326 208.123 6.57027 208.163 6.77901 208.161C6.98775 208.16 7.19402 208.116 7.3858 208.034C7.57758 207.951 7.75102 207.832 7.89599 207.682L10.5828 204.996L13.269 207.682C13.4149 207.827 13.5882 207.943 13.7789 208.022C13.9695 208.101 14.1739 208.142 14.3803 208.142C14.5867 208.142 14.7911 208.101 14.9818 208.022C15.1726 207.943 15.3458 207.828 15.4918 207.682C15.6378 207.536 15.7536 207.363 15.8326 207.172C15.9116 206.982 15.9523 206.777 15.9524 206.571C15.9524 206.365 15.9118 206.16 15.8328 205.97C15.7538 205.779 15.6381 205.606 15.4922 205.46L12.8081 202.775Z" fill="#FF9494"/>
<path d="M105.898 13.0053H102.495V9.60429C102.487 9.23662 102.335 8.88676 102.072 8.62963C101.809 8.37249 101.455 8.22852 101.087 8.22852C100.719 8.22852 100.366 8.37249 100.103 8.62963C99.8399 8.88676 99.6881 9.23662 99.6799 9.60429V13.0053H96.2772C96.0897 13.0011 95.9032 13.0344 95.7288 13.1032C95.5544 13.172 95.3955 13.275 95.2614 13.406C95.1273 13.5371 95.0208 13.6936 94.9481 13.8664C94.8754 14.0391 94.8379 14.2247 94.8379 14.4121C94.8379 14.5995 94.8754 14.7851 94.9481 14.9578C95.0208 15.1306 95.1273 15.2871 95.2614 15.4181C95.3955 15.5492 95.5544 15.6521 95.7288 15.721C95.9032 15.7898 96.0897 15.8231 96.2772 15.8189H99.6799V19.2199C99.6881 19.5876 99.8399 19.9374 100.103 20.1946C100.366 20.4517 100.719 20.5957 101.087 20.5957C101.455 20.5957 101.809 20.4517 102.072 20.1946C102.335 19.9374 102.487 19.5876 102.495 19.2199V15.8217H105.898C106.265 15.8135 106.615 15.6617 106.873 15.3987C107.13 15.1358 107.274 14.7827 107.274 14.4149C107.274 14.0471 107.13 13.694 106.873 13.431C106.615 13.1681 106.265 13.0163 105.898 13.0081V13.0053Z" fill="#FF9494"/>
<g style="mix-blend-mode:multiply">
<path d="M216.919 131.165L213.778 129.036L212.027 127.846L210.276 129.036C209.699 129.427 208.932 129.642 208.117 129.642C207.302 129.642 206.536 129.427 205.959 129.036C205.383 128.646 205.065 128.126 205.065 127.574C205.065 127.021 205.383 126.502 205.959 126.111L207.71 124.921L205.959 123.731L201.056 120.408L199.305 119.218L197.554 120.408C196.977 120.798 196.211 121.014 195.396 121.014C194.581 121.014 193.814 120.798 193.237 120.408C192.661 120.017 192.343 119.498 192.343 118.945C192.343 118.393 192.661 117.873 193.237 117.483L194.988 116.293L193.237 115.103L188.438 111.851L186.687 110.661L184.936 111.851C184.36 112.242 183.593 112.457 182.778 112.457C181.962 112.457 181.196 112.242 180.62 111.851C180.043 111.461 179.725 110.941 179.725 110.389C179.725 109.837 180.042 109.317 180.62 108.926L182.371 107.736L180.62 106.546L177.013 104.103L175.262 102.913L173.511 104.103C172.934 104.494 172.167 104.708 171.352 104.708C170.537 104.708 169.771 104.494 169.194 104.103C168.003 103.296 168.003 101.984 169.194 101.178L170.945 99.9878L169.194 98.7977L164.651 95.7173L162.9 94.5272L161.149 95.7173C160.573 96.108 159.806 96.3236 158.99 96.3236C158.175 96.3236 157.409 96.108 156.832 95.7173C155.641 94.9115 155.641 93.5989 156.832 92.7924L158.583 91.6023L156.832 90.4121L153.691 88.2839L151.94 87.0938L150.189 88.2839L27.0809 171.703L25.3298 172.893L27.0809 174.083L30.3911 176.323L32.1422 177.513L33.8933 176.323C34.4698 175.933 35.236 175.718 36.0513 175.718C36.8666 175.718 37.6336 175.933 38.2101 176.323C38.7865 176.714 39.1038 177.233 39.1038 177.786C39.1038 178.338 38.7865 178.857 38.2101 179.248L36.459 180.438L38.2101 181.628L42.7523 184.709L44.5034 185.899L46.2545 184.709C46.831 184.318 47.5972 184.102 48.4125 184.102C49.2278 184.102 49.9941 184.318 50.5713 184.709C51.1484 185.099 51.465 185.619 51.465 186.171C51.465 186.724 51.1477 187.243 50.5713 187.634L48.8202 188.824L50.5713 190.014L54.1771 192.457L55.9282 193.647L57.6792 192.457C58.2564 192.067 59.0227 191.852 59.838 191.852C60.6533 191.852 61.4195 192.067 61.9967 192.457C63.1874 193.264 63.1874 194.576 61.9967 195.382L60.2456 196.572L61.9967 197.762L66.7946 201.014L68.5457 202.204L70.2968 201.014C70.8732 200.623 71.6395 200.408 72.4548 200.408C73.2701 200.408 74.0371 200.623 74.6136 201.014C75.8043 201.82 75.8043 203.132 74.6136 203.939L72.8625 205.129L74.6136 206.319L79.5166 209.642L81.2676 210.832L83.0187 209.642C83.5952 209.251 84.3615 209.037 85.1768 209.037C85.9921 209.037 86.759 209.251 87.3355 209.642C87.9119 210.033 88.2292 210.552 88.2292 211.105C88.2292 211.657 87.9119 212.176 87.3355 212.567L85.5844 213.757L87.3355 214.947L90.3074 216.961L92.0585 218.152L93.8096 216.961L216.889 133.566L218.64 132.376L216.919 131.165Z" fill="#E6E6E6"/>
</g>
<path d="M149.845 44.768L45.2297 149.331L94.1549 198.232L198.77 93.6687L149.845 44.768Z" fill="white"/>
<path d="M208.113 90.0806C207.019 90.08 205.95 89.7553 205.04 89.1477C204.131 88.54 203.422 87.6766 203.004 86.6665C202.585 85.6563 202.475 84.5449 202.688 83.4725C202.901 82.4001 203.428 81.4149 204.201 80.6414L199.298 75.7408C198.788 76.2732 198.178 76.6985 197.502 76.9918C196.825 77.285 196.097 77.4403 195.36 77.4485C194.623 77.4567 193.892 77.3176 193.21 77.0395C192.527 76.7613 191.907 76.3497 191.386 75.8288C190.865 75.3078 190.453 74.6881 190.175 74.0059C189.897 73.3237 189.758 72.5928 189.766 71.8562C189.774 71.1195 189.93 70.392 190.223 69.7162C190.516 69.0404 190.942 68.43 191.475 67.9209L186.676 63.1247C186.166 63.6554 185.556 64.0791 184.88 64.3711C184.204 64.663 183.477 64.8173 182.741 64.8249C182.005 64.8325 181.275 64.6932 180.594 64.4152C179.912 64.1372 179.293 63.7261 178.772 63.206C178.252 62.6859 177.84 62.0672 177.562 61.3861C177.283 60.705 177.144 59.9753 177.151 59.2396C177.159 58.5039 177.313 57.7771 177.604 57.1017C177.896 56.4263 178.32 55.8159 178.851 55.3062L175.248 51.7C174.203 52.7026 172.807 53.256 171.359 53.2413C169.911 53.2267 168.526 52.6452 167.502 51.6217C166.478 50.5982 165.897 49.2143 165.882 47.7669C165.867 46.3196 166.421 44.9241 167.424 43.8801L162.882 39.3401C162.372 39.8725 161.762 40.2978 161.085 40.5911C160.409 40.8843 159.681 41.0396 158.944 41.0478C158.207 41.056 157.476 40.917 156.794 40.6388C156.111 40.3607 155.491 39.949 154.97 39.4281C154.449 38.9072 154.037 38.2874 153.759 37.6052C153.481 36.923 153.341 36.1922 153.35 35.4555C153.358 34.7189 153.513 33.9913 153.807 33.3155C154.1 32.6397 154.526 32.0294 155.059 31.5202L151.916 28.3804L28.834 151.399L32.1442 154.708C33.1887 153.705 34.5849 153.152 36.0329 153.166C37.481 153.181 38.8657 153.763 39.8897 154.786C40.9137 155.81 41.4954 157.194 41.5101 158.641C41.5247 160.088 40.9711 161.484 39.968 162.528L44.5103 167.068C45.5554 166.069 46.9503 165.518 48.3964 165.534C49.8425 165.55 51.2248 166.132 52.2474 167.154C53.27 168.176 53.8517 169.557 53.8679 171.003C53.8841 172.448 53.3336 173.842 52.3341 174.887L55.94 178.492C56.9851 177.493 58.38 176.942 59.826 176.958C61.2721 176.974 62.6544 177.556 63.677 178.578C64.6996 179.6 65.2813 180.981 65.2975 182.427C65.3137 183.872 64.7632 185.266 63.7638 186.311L68.5624 191.107C69.6076 190.108 71.0026 189.558 72.4486 189.574C73.8947 189.59 75.2769 190.172 76.2995 191.194C77.322 192.216 77.9036 193.597 77.9196 195.043C77.9357 196.488 77.3851 197.882 76.3855 198.927L81.2886 203.828C81.7984 203.297 82.409 202.873 83.0847 202.581C83.7604 202.29 84.4876 202.135 85.2236 202.128C85.9597 202.121 86.6898 202.26 87.3713 202.538C88.0527 202.816 88.6718 203.227 89.1923 203.748C89.7128 204.268 90.1242 204.887 90.4025 205.568C90.6807 206.249 90.8202 206.979 90.8127 207.714C90.8053 208.45 90.6511 209.177 90.3591 209.852C90.0671 210.527 89.6433 211.138 89.1124 211.647L92.085 214.618L215.165 91.5997L212.023 88.4599C211.51 88.9742 210.901 89.3821 210.23 89.6602C209.559 89.9383 208.839 90.0812 208.113 90.0806ZM202.277 93.6706L94.1548 201.736L41.7233 149.331L149.845 41.2632L202.277 93.6706Z" fill="#F9F9F9"/>
<path d="M216.919 89.8481L213.778 86.7082L212.027 84.958L210.276 86.7082C209.993 86.9947 209.656 87.2224 209.285 87.3783C208.914 87.5342 208.516 87.6152 208.113 87.6165C207.711 87.6179 207.312 87.5397 206.939 87.3863C206.567 87.2329 206.229 87.0075 205.944 86.723C205.66 86.4384 205.434 86.1004 205.281 85.7284C205.127 85.3563 205.049 84.9576 205.05 84.5552C205.052 84.1528 205.133 83.7547 205.289 83.3837C205.445 83.0127 205.672 82.6762 205.959 82.3936L207.71 80.6434L205.959 78.8932L201.056 73.9927L199.305 72.2425L197.554 73.9927C196.98 74.5584 196.206 74.8744 195.4 74.8716C194.594 74.8689 193.822 74.5477 193.252 73.978C192.682 73.4084 192.36 72.6366 192.358 71.8311C192.355 71.0255 192.671 70.2515 193.237 69.6781L194.988 67.9279L193.237 66.1777L188.438 61.3814L186.687 59.6312L184.936 61.3814C184.652 61.6657 184.315 61.8912 183.943 62.0452C183.572 62.1991 183.174 62.2785 182.772 62.2787C182.37 62.2789 181.972 62.1999 181.6 62.0463C181.229 61.8927 180.891 61.6675 180.607 61.3835C180.323 61.0995 180.097 60.7623 179.943 60.3912C179.789 60.02 179.709 59.6222 179.709 59.2204C179.709 58.8185 179.788 58.4206 179.942 58.0493C180.095 57.678 180.321 57.3406 180.605 57.0563L182.356 55.3061L180.605 53.5559L176.999 49.947L175.248 48.1968L173.497 49.947C173.214 50.2335 172.878 50.4612 172.506 50.6171C172.135 50.773 171.737 50.854 171.334 50.8553C170.932 50.8567 170.533 50.7784 170.16 50.6251C169.788 50.4717 169.45 50.2463 169.165 49.9617C168.881 49.6772 168.655 49.3392 168.502 48.9671C168.348 48.5951 168.27 48.1964 168.271 47.794C168.273 47.3916 168.354 46.9935 168.51 46.6225C168.666 46.2515 168.894 45.915 169.18 45.6324L170.931 43.8822L169.18 42.132L164.637 37.5913L162.886 35.8411L161.135 37.5913C160.561 38.157 159.787 38.473 158.981 38.4702C158.175 38.4675 157.403 38.1463 156.833 37.5767C156.263 37.007 155.942 36.2353 155.939 35.4297C155.936 34.6241 156.252 33.8502 156.818 33.2767L158.569 31.5265L156.818 29.7763L153.677 26.6364L151.926 24.8862L150.175 26.6364L27.0809 149.646L25.3298 151.396L27.0809 153.147L30.3911 156.455L32.1422 158.205L33.8933 156.455C34.4671 155.889 35.2414 155.573 36.0474 155.576C36.8533 155.579 37.6255 155.9 38.1954 156.47C38.7653 157.039 39.0867 157.811 39.0895 158.617C39.0922 159.422 38.7761 160.196 38.2101 160.77L36.459 162.52L38.2101 164.27L42.7523 168.81L44.5034 170.56L46.2545 168.81C46.8283 168.244 47.6026 167.928 48.4086 167.931C49.2145 167.934 49.9867 168.255 50.5566 168.825C51.1265 169.394 51.4479 170.166 51.4507 170.972C51.4534 171.777 51.1373 172.551 50.5713 173.125L48.8202 174.875L50.5713 176.625L54.1771 180.229L55.9282 181.979L57.6792 180.229C58.2517 179.657 59.0281 179.335 59.8377 179.335C60.6473 179.335 61.4238 179.657 61.9963 180.229C62.5689 180.801 62.8905 181.577 62.8906 182.386C62.8907 183.195 62.5691 183.972 61.9967 184.544L60.2456 186.294L61.9967 188.044L66.7946 192.84L68.5457 194.591L70.2968 192.84C70.8706 192.275 71.6449 191.959 72.4509 191.961C73.2568 191.964 74.029 192.285 74.5989 192.855C75.1688 193.425 75.4902 194.196 75.4929 195.002C75.4957 195.808 75.1796 196.582 74.6136 197.155L72.8625 198.905L74.6136 200.655L79.5166 205.556L81.2676 207.306L83.0187 205.556C83.5925 204.99 84.3668 204.674 85.1728 204.677C85.9788 204.68 86.7509 205.001 87.3208 205.571C87.8907 206.14 88.2121 206.912 88.2149 207.718C88.2176 208.523 87.9015 209.297 87.3355 209.871L85.5844 211.621L87.3355 213.371L90.3074 216.341L92.0585 218.092L93.8096 216.341L216.889 93.3233L218.64 91.5731L216.919 89.8481ZM92.0865 214.619L89.1139 211.649C90.1169 210.605 90.6706 209.209 90.6559 207.762C90.6413 206.315 90.0595 204.931 89.0355 203.907C88.0115 202.884 86.6269 202.302 85.1788 202.288C83.7307 202.273 82.3346 202.826 81.2901 203.829L76.387 198.928C77.3866 197.884 77.9372 196.49 77.9212 195.044C77.9051 193.599 77.3235 192.217 76.301 191.195C75.2784 190.173 73.8962 189.592 72.4501 189.575C71.0041 189.559 69.6091 190.109 68.5639 191.108L63.7653 186.312C64.7647 185.267 65.3153 183.873 65.299 182.428C65.2828 180.983 64.7011 179.601 63.6785 178.579C62.6559 177.557 61.2736 176.976 59.8275 176.96C58.3815 176.944 56.9866 177.494 55.9415 178.493L52.3356 174.888C53.3351 173.844 53.8856 172.449 53.8694 171.004C53.8532 169.559 53.2715 168.177 52.2489 167.155C51.2263 166.133 49.844 165.552 48.3979 165.536C46.9518 165.52 45.557 166.07 44.5118 167.069L39.9695 162.529C40.9726 161.485 41.5262 160.09 41.5116 158.642C41.4969 157.195 40.9152 155.811 39.8912 154.787C38.8672 153.764 37.4825 153.182 36.0344 153.168C34.5864 153.153 33.1902 153.707 32.1457 154.709L28.8355 151.401L151.914 28.3803L155.056 31.5202C154.056 32.5648 153.506 33.959 153.522 35.4043C153.538 36.8496 154.119 38.2313 155.142 39.2534C156.165 40.2755 157.547 40.8569 158.993 40.8731C160.439 40.8893 161.834 40.339 162.879 39.3401L167.421 43.8801C166.396 44.92 165.824 46.3229 165.829 47.7828C165.835 49.2428 166.418 50.6413 167.451 51.6735C168.484 52.7056 169.883 53.2877 171.344 53.2926C172.805 53.2976 174.208 52.7251 175.248 51.7L178.851 55.3061C178.318 55.8153 177.893 56.4257 177.599 57.1015C177.306 57.7773 177.151 58.5049 177.142 59.2416C177.134 59.9782 177.273 60.709 177.552 61.3912C177.83 62.0734 178.242 62.6931 178.763 63.214C179.284 63.7349 179.904 64.1465 180.587 64.4245C181.269 64.7026 182.001 64.8416 182.738 64.8334C183.475 64.8251 184.202 64.6698 184.879 64.3764C185.555 64.0831 186.165 63.6578 186.675 63.1253L191.473 67.9216C190.474 68.9662 189.923 70.3604 189.939 71.8057C189.955 73.251 190.537 74.6326 191.56 75.6547C192.582 76.6769 193.964 77.2583 195.41 77.2745C196.856 77.2907 198.251 76.7404 199.297 75.7415L204.2 80.642C203.196 81.686 202.643 83.0814 202.658 84.5288C202.672 85.9762 203.254 87.3601 204.278 88.3836C205.302 89.4071 206.687 89.9886 208.135 90.0032C209.583 90.0178 210.979 89.4645 212.023 88.4619L215.165 91.6018L92.0865 214.619Z" fill="#3B5C91"/>
<path d="M149.845 41.2637L41.7234 149.332L94.1548 201.737L202.277 93.671L149.845 41.2637ZM149.845 44.769L198.771 93.671L94.1548 198.232L45.2297 149.332L149.845 44.769Z" fill="#3B5C91"/>
<path d="M121.293 102.338C121.835 102.88 122.212 103.563 122.424 104.388L131.44 139.072C131.746 140.274 131.522 141.252 130.768 142.006C130.273 142.501 129.648 142.749 128.894 142.749C128.14 142.749 127.468 142.454 126.879 141.865C126.337 141.323 125.924 140.533 125.641 139.496L119.666 116.621C118.889 118.342 117.899 119.85 116.697 121.147C117.687 123.032 118.087 124.941 117.899 126.874C117.71 128.76 116.968 130.351 115.671 131.647C114.493 132.826 113.196 133.556 111.782 133.839C110.344 134.099 108.942 133.969 107.575 133.45C106.208 132.932 104.982 132.13 103.898 131.046C102.389 129.538 101.341 127.923 100.751 126.202C100.162 124.435 100.032 122.726 100.362 121.076C100.692 119.426 101.47 117.988 102.696 116.763C104.204 115.254 105.949 114.571 107.928 114.712C109.885 114.83 111.688 115.572 113.338 116.939C114.823 115.266 115.883 113.427 116.52 111.424C117.156 109.373 117.274 107.464 116.873 105.696C116.473 104.023 116.661 102.797 117.439 102.019C117.934 101.524 118.547 101.312 119.278 101.383C120.032 101.43 120.704 101.748 121.293 102.338ZM112.843 128.112C113.338 127.617 113.574 126.957 113.55 126.132C113.526 125.307 113.185 124.399 112.525 123.409C111.535 123.457 110.557 123.28 109.59 122.879C108.6 122.455 107.763 121.901 107.08 121.217C106.703 120.84 106.337 120.404 105.984 119.909C105.913 119.933 105.807 120.015 105.666 120.157C104.959 120.864 104.735 121.818 104.994 123.021C105.253 124.175 106.09 125.46 107.504 126.874C108.588 127.958 109.602 128.595 110.545 128.783C111.488 128.925 112.254 128.701 112.843 128.112ZM132.677 112.237C133.903 111.011 135.235 110.269 136.672 110.01C138.087 109.727 139.477 109.845 140.844 110.363C142.211 110.882 143.437 111.683 144.521 112.767C146.006 114.252 147.043 115.879 147.633 117.647C148.245 119.391 148.375 121.1 148.021 122.773C147.691 124.423 146.914 125.861 145.688 127.086C144.462 128.312 143.142 129.066 141.728 129.349C140.314 129.585 138.923 129.443 137.556 128.925C136.189 128.406 134.964 127.605 133.879 126.521C132.371 125.012 131.31 123.386 130.697 121.642C130.084 119.897 129.955 118.212 130.308 116.586C130.638 114.936 131.428 113.486 132.677 112.237ZM142.824 123.586C143.484 122.926 143.673 122.007 143.39 120.828C143.131 119.626 142.306 118.33 140.915 116.939C139.831 115.855 138.817 115.242 137.874 115.101C136.932 114.912 136.189 115.089 135.647 115.631C134.94 116.338 134.716 117.293 134.975 118.495C135.235 119.65 136.071 120.935 137.486 122.349C138.617 123.48 139.642 124.128 140.561 124.293C141.481 124.411 142.235 124.175 142.824 123.586Z" fill="#444463"/>
</g>
<defs>
<clipPath id="clip0_15859_68443">
<rect width="244" height="243" fill="white"/>
</clipPath>
</defs>
</svg>
