<svg width="24" height="24" viewBox="0 0 24 24" fill="none" xmlns="http://www.w3.org/2000/svg">
<path d="M15.0443 12.7133C16.6067 9.02976 17.3933 4.12665 13.9273 3.07321C11.1437 2.2248 8.50022 4.56853 8.30627 7.19154C8.21106 8.85781 8.434 10.5269 8.96355 12.1123C8.93253 12.1087 8.90119 12.1087 8.87017 12.1123C8.65826 12.1477 8.45353 12.1866 8.24521 12.229C7.5592 12.0452 6.57507 12.3103 6.01118 12.3739C4.24047 12.5683 2.73196 13.3248 1.92383 14.9616C0.411728 18.0265 5.68074 20.296 7.86449 20.5717C12.0093 21.109 19.5195 22.2473 21.9583 17.7118C24.0092 13.9081 17.343 12.9466 15.0443 12.7133ZM10.6696 4.61449C11.6465 3.87567 13.543 3.63175 14.5019 4.46248C16.9982 6.62947 13.938 13.7809 12.1637 15.6721C12.1637 15.6721 12.1637 15.6721 12.1458 15.7004C10.5232 13.6859 9.53107 11.2502 9.29039 8.6904C9.13954 7.20568 9.39815 5.57249 10.6696 4.61449ZM11.1329 18.7264C9.43047 18.631 7.69927 18.5603 6.13689 17.8144C3.74123 16.6831 6.19795 14.403 7.76033 13.9612C8.3507 13.8058 8.95054 13.6878 9.55618 13.6077C9.70344 13.9152 9.86147 14.2157 10.0339 14.502C9.0282 14.2899 7.81062 14.9828 8.10154 16.1387C8.37451 17.1993 10.2566 17.3124 11.1222 17.4679C12.3757 17.6942 14.8539 17.9204 15.6046 16.5559C15.7486 16.328 15.8287 16.0667 15.8369 15.7985C15.845 15.5304 15.7809 15.2648 15.651 15.0289C15.5211 14.793 15.3301 14.5951 15.0974 14.4554C14.8647 14.3157 14.5985 14.2391 14.3259 14.2334C14.3511 14.1909 14.3726 14.145 14.3942 14.099C14.4292 14.1197 14.4666 14.1363 14.5055 14.1485C16.0356 14.502 21.125 15.916 17.6914 18.3269C16.1577 19.4122 12.936 18.8289 11.1329 18.7264ZM20.1732 18.3269C20.4174 18.0014 20.5932 17.6313 20.6904 17.2381C20.7577 16.8593 20.7397 16.4705 20.638 16.0992C20.5362 15.7279 20.3531 15.383 20.1014 15.0888C20.1912 15.1525 20.281 15.202 20.3744 15.2691C21.028 16.6018 20.949 17.6199 20.1732 18.3269Z" fill="#026F30"/>
<path d="M14.4734 6.56228C14.3253 6.32557 14.1298 6.12108 13.8987 5.96132C13.9215 5.90497 13.9227 5.84243 13.9022 5.78525C13.8818 5.72806 13.841 5.68011 13.7874 5.65023C13.148 5.31794 12.5554 5.03867 11.8119 5.20128C11.4388 5.28541 11.0885 5.4481 10.7853 5.67817C10.4822 5.90823 10.2332 6.2002 10.0556 6.53399C9.73485 7.05574 9.61305 7.67274 9.71196 8.27473C9.81088 8.87673 10.1241 9.42449 10.5956 9.82012C11.0671 10.2158 11.6661 10.4335 12.2857 10.4344C12.9053 10.4353 13.505 10.2194 13.9777 9.82512C14.4262 9.41852 14.7198 8.87321 14.81 8.2797C14.9001 7.68619 14.7814 7.08019 14.4734 6.56228Z" fill="#026F30"/>
</svg>
