<svg width="24" height="24" viewBox="0 0 24 24" fill="none" xmlns="http://www.w3.org/2000/svg">
<path d="M22.5435 13.895C20.5949 14.0634 21.8142 11.5949 22.1695 10.5289C22.5659 9.34707 22.9175 8.25869 22.1695 7.16284C21.7814 6.64258 21.2715 6.22557 20.6846 5.94842C20.0977 5.67127 19.4517 5.54245 18.8034 5.57329C18.5421 5.5874 18.2871 5.65868 18.0564 5.78212C17.8257 5.90555 17.6249 6.07812 17.4682 6.28765C17.4139 6.19274 17.3278 6.12004 17.2252 6.0824C17.1226 6.04477 17.0099 6.0446 16.9071 6.08194C16.6266 4.21189 12.8192 4.32409 11.469 4.21189C9.67376 4.0735 3.82048 3.57981 3.34549 6.17171L3.15474 6.20163C3.09327 6.21902 3.03727 6.25187 2.99209 6.29705C2.94692 6.34222 2.91407 6.39822 2.89667 6.4597C2.87526 6.57205 2.88144 6.68792 2.91466 6.79736C2.94788 6.9068 3.00717 7.00655 3.08742 7.08804C1.37071 8.25495 1.84944 11.6285 2.12995 13.334C2.3768 14.8637 3.49135 16.0082 4.86771 16.7862C4.2506 17.0106 4.71437 18.3196 5.09212 18.6562C6.21416 19.6099 8.08421 19.7782 9.46806 19.868C10.9828 19.9802 12.7481 19.9503 14.1357 19.2584C14.3656 19.1556 14.5626 18.9911 14.7046 18.7832C14.8466 18.5752 14.9282 18.3319 14.9402 18.0804C14.9522 17.8288 14.8942 17.5789 14.7727 17.3583C14.6511 17.1377 14.4708 16.9552 14.2517 16.831C16.5705 15.249 17.5766 12.3092 17.644 9.01045C17.7048 9.04157 17.7706 9.06182 17.8384 9.0703C18.2124 9.1077 18.5191 8.80101 18.9044 8.76361C20.0077 8.66262 19.9404 9.73604 19.7085 10.4579C19.3345 11.6585 18.7922 12.4252 19.0876 13.7118C19.5065 15.5295 21.4589 16.2999 22.5061 14.9124H22.5435C23.1681 14.845 23.1905 13.8427 22.5435 13.895ZM4.01123 6.59808C6.33758 4.20067 12.146 4.94121 15.1643 5.76029C16.4546 6.10813 14.8987 6.95339 14.4162 7.1404C13.6917 7.37875 12.9349 7.50488 12.1722 7.51441C10.8758 7.56807 9.57713 7.51302 8.28992 7.34984C7.36985 7.26008 6.46474 7.11796 5.55216 6.97583C5.137 6.87859 4.72933 6.78883 4.32166 6.69158C4.22067 6.66914 4.07855 6.65792 3.94765 6.63922C3.97058 6.62841 3.99196 6.61457 4.01123 6.59808ZM11.772 17.0367C8.94444 17.7848 5.29783 16.7301 3.54371 14.3925C2.37306 12.8329 2.38054 9.00297 3.41655 7.36854C4.63209 8.11657 7.53068 8.22877 8.2787 8.31479C10.4068 8.56164 12.5911 8.6888 14.6743 8.10535C15.1979 7.96322 16.2526 7.48075 16.7052 6.84493C17.0044 10.9852 16.4845 15.8175 11.772 17.0367ZM21.4963 9.27974C21.4652 9.23782 21.4301 9.19899 21.3915 9.1638C21.4953 8.89859 21.5198 8.60894 21.462 8.33007C21.4043 8.0512 21.2667 7.79512 21.0662 7.59295C21.0717 7.54323 21.0717 7.49306 21.0662 7.44335C21.3026 7.67853 21.4694 7.97458 21.5479 8.29871C21.6265 8.62284 21.6138 8.96239 21.5112 9.27974H21.4963Z" fill="#026F30"/>
<path d="M13.8179 11.9277C13.5837 11.5425 13.2099 11.2625 12.7744 11.146C12.7673 11.0816 12.7435 11.0202 12.7055 10.9678C12.6675 10.9153 12.6165 10.8736 12.5575 10.8468C12.1049 9.91927 10.7809 9.94171 9.75988 10.211C8.23018 10.6187 6.99968 11.6322 6.86129 13.2742C6.78275 14.2129 7.51207 14.3962 8.23392 14.2952C7.8599 14.8188 7.68412 15.4995 8.4845 15.7501C9.38213 16.0344 10.5864 15.4808 11.3831 15.118C12.2919 14.7029 13.4252 14.0558 13.8516 13.1021C13.9411 12.9182 13.9848 12.7153 13.979 12.5108C13.9731 12.3063 13.9179 12.1062 13.8179 11.9277ZM7.65794 13.5173C7.44849 13.2031 7.85242 12.3952 8.00951 12.1334C8.33798 11.7018 8.78124 11.3713 9.28863 11.1797C9.96185 10.8506 11.3382 10.4616 12.0339 11.0189C11.45 11.7436 10.7311 12.3482 9.91697 12.7992C9.6028 13.0011 7.99081 14.0072 7.65794 13.5173ZM13.0886 12.8964C12.7146 13.5509 11.9217 13.981 11.2821 14.3139C10.5986 14.7024 9.84702 14.9563 9.06796 15.0619C8.9408 15.0619 8.61915 15.0283 8.62663 15.0432C8.54435 14.845 8.83981 14.4074 8.9408 14.2391C8.96115 14.2053 8.97152 14.1664 8.97072 14.1269C9.03807 14.1055 9.10423 14.0805 9.16894 14.0521C10.3999 13.5445 11.5005 12.7659 12.3892 11.7744C12.7482 12.1297 13.4701 12.2232 13.0886 12.8964Z" fill="#026F30"/>
</svg>
