<svg width="24" height="24" viewBox="0 0 24 24" fill="none" xmlns="http://www.w3.org/2000/svg">
<path d="M9.73586 2.0542C11.0203 0.888817 12.9797 0.888817 14.2641 2.0542C14.9174 2.64693 15.7771 2.95984 16.6586 2.92572C18.3917 2.85863 19.8926 4.11805 20.1275 5.83643C20.2469 6.71043 20.7044 7.50273 21.4015 8.04319C22.7723 9.10579 23.1125 11.0353 22.1879 12.5027C21.7176 13.249 21.5587 14.15 21.7454 15.0121C22.1124 16.7072 21.1327 18.404 19.4812 18.9337C18.6413 19.2031 17.9404 19.7912 17.5293 20.5716C16.7208 22.106 14.8797 22.7762 13.2741 22.1204C12.4574 21.7868 11.5426 21.7868 10.7259 22.1204C9.12032 22.7762 7.27918 22.106 6.47074 20.5716C6.05956 19.7912 5.35873 19.2031 4.51875 18.9337C2.86726 18.404 1.88761 16.7072 2.25462 15.0121C2.44129 14.15 2.28242 13.249 1.81214 12.5027C0.887507 11.0353 1.22774 9.10579 2.59846 8.04319C3.29564 7.50273 3.75307 6.71043 3.87253 5.83643C4.10741 4.11805 5.60833 2.85863 7.34139 2.92572C8.22286 2.95984 9.08255 2.64693 9.73586 2.0542Z" fill="url(#paint0_linear_16227_69774)"/>
<path d="M10.389 15.3423C10.3144 15.4588 10.2212 15.5331 10.1093 15.5655C10.0049 15.6043 9.8967 15.6107 9.78481 15.5849C9.68038 15.5655 9.59087 15.5202 9.51628 15.4491C9.44169 15.3844 9.39693 15.3035 9.38201 15.2065C9.36709 15.1031 9.39693 14.9931 9.47152 14.8767L13.6002 8.66814C13.6748 8.55172 13.7643 8.47412 13.8687 8.43531C13.9806 8.39651 14.0888 8.39004 14.1932 8.41591C14.2976 8.43531 14.3871 8.48058 14.4617 8.55172C14.5363 8.62286 14.5811 8.71017 14.596 8.81365C14.6184 8.91066 14.5923 9.01413 14.5177 9.12408L10.389 15.3423ZM9.1918 12.6649C8.56523 12.6649 8.07665 12.4774 7.72607 12.1022C7.37549 11.7271 7.2002 11.2162 7.2002 10.5695C7.2002 10.1362 7.27852 9.76434 7.43516 9.45391C7.5918 9.14348 7.81931 8.90419 8.11768 8.73604C8.41605 8.56789 8.77409 8.48382 9.1918 8.48382C9.81838 8.48382 10.307 8.67137 10.6575 9.04647C11.0081 9.4151 11.1834 9.92278 11.1834 10.5695C11.1834 11.0028 11.1051 11.3779 10.9484 11.6948C10.7918 12.0052 10.5643 12.2445 10.2659 12.4127C9.96756 12.5808 9.60952 12.6649 9.1918 12.6649ZM9.1918 11.85C9.37082 11.85 9.52374 11.8048 9.65054 11.7142C9.77735 11.6172 9.87432 11.4749 9.94145 11.2874C10.0086 11.0998 10.0422 10.8605 10.0422 10.5695C10.0422 10.1362 9.96756 9.81607 9.81838 9.60912C9.66919 9.40217 9.46034 9.29869 9.1918 9.29869C9.01278 9.29869 8.85987 9.34396 8.73306 9.43451C8.60626 9.52505 8.50929 9.66409 8.44215 9.85164C8.37502 10.0392 8.34145 10.2785 8.34145 10.5695C8.34145 11.0093 8.41605 11.3326 8.56523 11.5396C8.71441 11.7466 8.92327 11.85 9.1918 11.85ZM14.8086 15.517C14.182 15.517 13.6934 15.3294 13.3429 14.9543C12.9923 14.5792 12.817 14.0683 12.817 13.4216C12.817 12.9883 12.8953 12.6164 13.0519 12.306C13.2086 11.9955 13.4361 11.7563 13.7345 11.5881C14.0328 11.42 14.3909 11.3359 14.8086 11.3359C15.4352 11.3359 15.9237 11.5234 16.2743 11.8985C16.6249 12.2672 16.8002 12.7748 16.8002 13.4216C16.8002 13.8549 16.7219 14.23 16.5652 14.5469C16.4086 14.8573 16.1811 15.0966 15.8827 15.2647C15.5843 15.4329 15.2263 15.517 14.8086 15.517ZM14.8086 14.7021C14.9876 14.7021 15.1405 14.6568 15.2673 14.5663C15.3941 14.4757 15.4911 14.3367 15.5582 14.1491C15.6254 13.9551 15.6589 13.7126 15.6589 13.4216C15.6589 12.9883 15.5843 12.6681 15.4352 12.4612C15.286 12.2542 15.0771 12.1508 14.8086 12.1508C14.6296 12.1508 14.4767 12.196 14.3498 12.2866C14.223 12.3771 14.1261 12.5162 14.0589 12.7037C13.9918 12.8913 13.9582 13.1305 13.9582 13.4216C13.9582 13.8613 14.0328 14.1847 14.182 14.3917C14.3312 14.5986 14.5401 14.7021 14.8086 14.7021Z" fill="white"/>
<defs>
<linearGradient id="paint0_linear_16227_69774" x1="7.27273" y1="1.45455" x2="19.2727" y2="24" gradientUnits="userSpaceOnUse">
<stop stop-color="#EBBA0F"/>
<stop offset="1" stop-color="#FF8C21"/>
</linearGradient>
</defs>
</svg>
