<svg xmlns="http://www.w3.org/2000/svg" width="44" height="45" viewBox="0 0 44 45" fill="none">
  <g clip-path="url(#clip0_24176_51051)">
    <path d="M42.858 21.3704C42.858 32.8968 33.5139 42.2408 21.9876 42.2408C10.4612 42.2408 1.11719 32.8968 1.11719 21.3704C1.11719 9.84402 10.4612 0.5 21.9876 0.5C33.5139 0.5 42.858 9.84402 42.858 21.3704Z" fill="#F5585C"/>
    <path d="M32.6398 27.5891L30.0933 21.4016C29.1926 21.4016 14.783 21.4016 13.8823 21.4016L11.3354 27.5891C10.3827 29.9037 9.89258 32.3828 9.89258 34.8861V41.2481C9.89258 43.0441 11.3485 44.5 13.1444 44.5H30.8308C32.6267 44.5 34.0826 43.0441 34.0826 41.2481V34.8861C34.083 32.3828 33.5925 29.9037 32.6398 27.5891Z" fill="#E2E9F2"/>
    <path d="M9.89258 34.8861V41.2481C9.89258 43.0441 11.3481 44.5 13.1441 44.5H18.2611C16.9358 44.5 15.8615 43.0441 15.8615 41.2481V34.8861C15.8615 32.3828 16.2234 29.9037 16.9264 27.5891L18.8056 21.4016C16.2593 21.4016 14.2049 21.4016 13.8823 21.4016L11.3354 27.5891C10.3827 29.9037 9.89258 32.3828 9.89258 34.8861Z" fill="#C7D6E5"/>
    <path d="M29.3658 17.4539H14.6094C14.2076 17.4539 13.8823 17.7795 13.8823 18.181V21.4016H30.0933V18.181C30.0933 17.7795 29.7677 17.4539 29.3658 17.4539Z" fill="#494970"/>
    <path d="M19.5327 17.4539H14.6094C14.2076 17.4539 13.8823 17.7795 13.8823 18.181V21.4016H18.8056V18.181C18.8056 17.7795 19.1309 17.4539 19.5327 17.4539Z" fill="#3A3A60"/>
    <path d="M26.2459 6.80872H17.5954L17.6125 8.41031C17.6145 8.62045 17.5534 8.82657 17.4366 9.0018C16.6376 10.1985 16.2184 11.6085 16.2338 13.0476L16.2892 18.8202C16.2966 19.5046 16.8347 20.0837 17.5192 20.0992C18.2349 20.1156 18.8163 19.5365 18.8086 18.8265C18.816 19.5224 19.386 20.0804 20.0815 20.073C20.7774 20.0656 21.3353 19.4956 21.328 18.8C21.3353 19.4956 21.9053 20.0535 22.6009 20.0461C23.2965 20.0387 23.8544 19.4691 23.847 18.7735H23.9165C23.9239 19.458 24.4623 20.0307 25.1465 20.0461C25.8622 20.0626 26.4436 19.4832 26.4362 18.7735L26.3368 15.4411C26.3318 14.9476 26.9559 14.7294 27.2593 15.1185L29.4648 17.9457C29.9606 18.4308 30.7653 18.4596 31.2594 17.9729C31.763 17.477 31.76 16.667 31.2574 16.1746C29.8949 14.3857 28.7048 13.0123 27.1271 10.5903C26.5685 9.73294 26.266 8.73392 26.2553 7.71072L26.2459 6.80872Z" fill="#F9D6BF"/>
    <path d="M26.9202 1.08813C25.3384 0.704773 23.6871 0.5 21.9875 0.5C20.3188 0.5 18.6967 0.697052 17.1411 1.06699V3.47089H26.9202V1.08813Z" fill="#E2E9F2"/>
    <path d="M21.7498 0.503296C20.165 0.521423 18.6225 0.714447 17.1411 1.06692V3.47083H21.7498V0.503296Z" fill="#C7D6E5"/>
    <path d="M16.7549 10.2946C19.5492 7.7406 23.7675 7.58081 26.7448 9.89542C26.4316 9.21228 26.2634 8.46838 26.2553 7.71072L26.2459 6.80872H17.5955L17.6126 8.41031C17.6146 8.62045 17.5535 8.82657 17.4367 9.0018C17.1641 9.41 16.9368 9.84372 16.7549 10.2946Z" fill="#EFC1A8"/>
    <path d="M16.9677 6.98959H27.0076C27.1342 6.98959 27.2366 6.88721 27.2366 6.76099V3.51852C27.2366 3.3923 27.1342 3.28992 27.0076 3.28992H17.0154C16.8626 3.28992 16.7388 3.41379 16.7388 3.56653V6.76099C16.7388 6.88721 16.8412 6.98959 16.9677 6.98959Z" fill="#F6A221"/>
    <path d="M20.4572 5.16376C20.4572 4.12881 21.2961 3.28992 22.3311 3.28992H17.0154C16.8626 3.28992 16.7388 3.41379 16.7388 3.56653V6.76099C16.7388 6.88721 16.8412 6.98959 16.9677 6.98959H22.2831C21.2747 6.98959 20.4572 6.17218 20.4572 5.16376Z" fill="#F28A00"/>
    <path d="M20.4355 26.1715C19.8605 26.1715 19.3945 26.6378 19.3945 27.2125V28.1763H21.4762V27.2125C21.4762 26.6375 21.0102 26.1715 20.4355 26.1715Z" fill="#75BDEF"/>
    <path d="M14.8988 35.0456C15.8102 35.0456 15.8102 34.5497 16.7213 34.5497C17.6327 34.5497 17.6327 35.0456 18.5441 35.0456C19.4552 35.0456 19.4552 34.5497 20.3666 34.5497C21.278 34.5497 21.278 35.0456 22.1894 35.0456C22.9692 35.0456 23.083 34.683 23.6702 34.5783L23.9374 31.9709C23.5896 31.9709 13.4987 31.9709 13.1509 31.9709L13.4184 34.5783C14.0056 34.683 14.1194 35.0456 14.8988 35.0456Z" fill="#A0D5FF"/>
    <path d="M14.899 35.0456C15.6577 35.0456 15.7852 34.7021 16.3324 34.587L16.0642 31.9709C14.4861 31.9709 13.2682 31.9709 13.1514 31.9709L13.4189 34.5783C14.0057 34.683 14.1195 35.0456 14.899 35.0456Z" fill="#75BDEF"/>
    <path d="M21.8559 27.9919H15.233C14.0833 27.9919 13.1514 28.9238 13.1514 30.0736H23.9379C23.9379 28.9238 23.0056 27.9919 21.8559 27.9919Z" fill="#A0D5FF"/>
    <path d="M18.1649 27.9919H15.233C14.0833 27.9919 13.1514 28.9238 13.1514 30.0736H16.083C16.083 28.9238 17.0152 27.9919 18.1649 27.9919Z" fill="#75BDEF"/>
    <path d="M14.3232 43.3939C14.3877 44.0223 14.9167 44.5 15.5485 44.5H21.541C22.1728 44.5 22.7021 44.0223 22.7666 43.3939L23.6901 34.3886C23.0852 34.4886 22.9788 34.8599 22.1899 34.8599C21.2785 34.8599 21.2785 34.3638 20.3671 34.3638C19.4557 34.3638 19.4557 34.8599 18.5446 34.8599C17.6332 34.8599 17.6332 34.3638 16.7218 34.3638C15.8107 34.3638 15.8107 34.8599 14.8993 34.8599C14.1107 34.8599 14.0043 34.4886 13.3994 34.3886L14.3232 43.3939Z" fill="#FC757E"/>
    <path d="M15.5482 44.4999H18.461C17.8292 44.4999 17.2998 44.0222 17.2354 43.3938L16.3136 34.405C15.7822 34.5238 15.6492 34.8595 14.899 34.8595C14.1104 34.8595 14.004 34.4886 13.3994 34.3882L14.3229 43.3938C14.3874 44.0222 14.9167 44.4999 15.5482 44.4999Z" fill="#F5585C"/>
    <path d="M24.3015 32.0632H12.7876C12.2129 32.0632 11.7466 31.5969 11.7466 31.0222C11.7466 30.4471 12.2129 29.9812 12.7876 29.9812H24.3015C24.8766 29.9812 25.3425 30.4471 25.3425 31.0222C25.3425 31.5969 24.8766 32.0632 24.3015 32.0632Z" fill="#75BDEF"/>
    <path d="M15.1738 31.0222C15.1738 30.4471 15.6401 29.9812 16.2148 29.9812H12.7877C12.213 29.9812 11.7471 30.4471 11.7471 31.0222C11.7471 31.5969 12.213 32.0632 12.7877 32.0632H16.2148C15.6398 32.0632 15.1738 31.5969 15.1738 31.0222Z" fill="#4DADE2"/>
    <path d="M27.1967 26.1715C26.6217 26.1715 26.1558 26.6378 26.1558 27.2125V28.1763H28.2377V27.2125C28.2377 26.6375 27.7715 26.1715 27.1967 26.1715Z" fill="#75BDEF"/>
    <path d="M21.6606 35.0456C22.572 35.0456 22.572 34.5497 23.483 34.5497C24.3944 34.5497 24.3944 35.0456 25.3055 35.0456C26.2169 35.0456 26.2169 34.5497 27.128 34.5497C28.0394 34.5497 28.0394 35.0456 28.9508 35.0456C29.7306 35.0456 29.8444 34.683 30.4315 34.5783L30.6991 31.9709C30.3513 31.9709 20.2604 31.9709 19.9126 31.9709L20.1801 34.5783C20.7669 34.683 20.8807 35.0456 21.6606 35.0456Z" fill="#A0D5FF"/>
    <path d="M21.6607 35.0456C22.4194 35.0456 22.5469 34.7021 23.0938 34.587L22.8256 31.9709C21.2475 31.9709 20.0296 31.9709 19.9131 31.9709L20.1803 34.5783C20.7671 34.683 20.8809 35.0456 21.6607 35.0456Z" fill="#75BDEF"/>
    <path d="M28.6175 27.9919H21.9946C20.8448 27.9919 19.9126 28.9238 19.9126 30.0736H30.6991C30.6991 28.9238 29.7672 27.9919 28.6175 27.9919Z" fill="#A0D5FF"/>
    <path d="M24.9262 27.9919H21.9946C20.8448 27.9919 19.9126 28.9238 19.9126 30.0736H22.8445C22.8445 28.9238 23.7764 27.9919 24.9262 27.9919Z" fill="#75BDEF"/>
    <path d="M21.0841 43.3939C21.1486 44.0223 21.678 44.5 22.3098 44.5H28.3022C28.9337 44.5 29.463 44.0223 29.5275 43.3939L30.4513 34.3886C29.8464 34.4886 29.7397 34.8599 28.9511 34.8599C28.0397 34.8599 28.0397 34.3638 27.1283 34.3638C26.2169 34.3638 26.2169 34.8599 25.3055 34.8599C24.3944 34.8599 24.3944 34.3638 23.483 34.3638C22.5716 34.3638 22.5716 34.8599 21.6605 34.8599C20.872 34.8599 20.7656 34.4886 20.1606 34.3886L21.0841 43.3939Z" fill="#F6A221"/>
    <path d="M22.3098 44.4999H25.2222C24.5905 44.4999 24.0614 44.0222 23.9969 43.3938L23.0751 34.405C22.5434 34.5238 22.4105 34.8595 21.6605 34.8595C20.872 34.8595 20.7652 34.4886 20.1606 34.3882L21.0841 43.3938C21.1486 44.0222 21.678 44.4999 22.3098 44.4999Z" fill="#F28A00"/>
    <path d="M31.0632 32.0632H19.5493C18.9742 32.0632 18.5083 31.5969 18.5083 31.0222C18.5083 30.4471 18.9742 29.9812 19.5493 29.9812H31.0632C31.6379 29.9812 32.1039 30.4471 32.1039 31.0222C32.1039 31.5969 31.6379 32.0632 31.0632 32.0632Z" fill="#75BDEF"/>
    <path d="M21.9354 31.0222C21.9354 30.4471 22.4013 29.9812 22.976 29.9812H19.5493C18.9742 29.9812 18.5083 30.4471 18.5083 31.0222C18.5083 31.5969 18.9742 32.0632 19.5493 32.0632H22.976C22.4013 32.0632 21.9354 31.5969 21.9354 31.0222Z" fill="#4DADE2"/>
  </g>
  <defs>
    <clipPath id="clip0_24176_51051">
      <rect width="44" height="44" fill="white" transform="translate(0 0.5)"/>
    </clipPath>
  </defs>
</svg>