<svg width="82" height="82" viewBox="0 0 82 82" fill="none" xmlns="http://www.w3.org/2000/svg">
<g clip-path="url(#clip0_7161_22142)">
<path d="M81.9978 50.4744C82.079 48.5684 80.5917 47.3953 78.9805 47.3996C78.3672 47.3996 77.7539 47.3782 77.1427 47.3996C76.9053 47.4263 76.6656 47.3748 76.46 47.2529C76.2545 47.1311 76.0943 46.9455 76.0037 46.7244C74.2686 43.3911 71.5995 41.1795 68.0352 40.0599L67.8621 40.0043C67.5639 39.8905 67.2555 39.8053 66.9411 39.75C65.2828 39.3761 63.5989 39.5513 61.9236 39.5364C60.6542 39.5193 60.5389 39.6667 60.5538 40.9808C60.5538 41.0086 60.5538 41.0342 60.5538 41.062C60.5538 41.0898 60.5538 41.1453 60.5538 41.1881C60.6234 41.1562 60.6876 41.1137 60.744 41.062V42.2607C61.1073 42.4423 61.4577 42.3547 61.7911 42.3611C63.413 42.3911 65.0435 42.2564 66.6419 42.6539C69.4947 43.3611 71.6551 44.9872 73.2193 47.5876H64.7999C64.069 44.8205 62.7164 43.5941 60.5431 43.718C58.4895 43.8334 57.1241 45.2351 56.7629 47.5983H44.9906C44.4073 44.9787 43.014 43.6624 40.8877 43.7052C38.7615 43.7479 37.4217 45.0898 36.943 47.6047H29.6048C29.4894 47.3312 29.6732 47.1304 29.7758 46.9338C31.3656 43.9295 33.8808 42.3889 37.255 42.3718C43.9158 42.3398 50.5765 42.3718 57.2373 42.359C57.5237 42.359 57.8228 42.4402 58.0921 42.2735C58.3186 41.9402 58.0793 41.5342 58.278 41.124C58.278 41.015 58.278 40.9103 58.278 40.7992C58.3122 39.7308 58.1177 39.5577 57.0386 39.5342C56.7992 39.5342 56.5578 39.5342 56.3184 39.5342C51.2112 39.5342 46.1025 39.5342 40.9925 39.5342C40.6099 39.5342 40.189 39.6389 39.8129 39.2607C40.0073 38.1731 39.7167 37.1389 39.206 36.1496C39.0222 35.7949 39.1611 35.4787 39.3257 35.1646C39.6679 34.5473 39.8474 33.8532 39.8474 33.1475C39.8474 32.4417 39.6679 31.7476 39.3257 31.1304C39.2698 31.1637 39.212 31.1936 39.1526 31.2201C38.3341 30.0086 37.2571 29.2244 35.71 29.1838C35.6373 28.8376 35.5818 28.5022 35.4963 28.1752C34.7847 25.421 31.4725 24.2906 29.265 26.0791C28.9079 26.3821 28.4511 26.542 27.9829 26.5278C22.6235 26.515 17.2655 26.515 11.909 26.5278H11.1012C10.926 26.0428 10.7444 25.6026 10.6119 25.1496C10.4217 24.4894 10.7807 23.9893 11.4666 23.9231C11.6248 23.9082 11.785 23.9231 11.9453 23.9231H37.0798C36.6524 26.7778 37.6225 28.9936 39.8364 30.6902C39.8169 30.7201 39.7955 30.7486 39.7723 30.7757C39.8648 30.7973 39.9607 30.8001 40.0543 30.7839C40.1479 30.7678 40.2373 30.733 40.3172 30.6817C41.1654 30.1853 42.0976 29.8492 43.0674 29.6902C43.3089 29.6453 43.5867 29.5919 43.6743 29.2629C43.6136 29.1776 43.5308 29.1104 43.435 29.0684V29.0684C43.311 29.0876 43.1807 29.0534 43.0717 29.1111C41.2767 28.8547 39.8877 27.5022 39.674 25.7992C39.5479 24.936 39.7085 24.0553 40.1311 23.2922C40.5538 22.5291 41.2152 21.9258 42.0139 21.5748C42.8148 21.2296 43.7075 21.159 44.5527 21.3738C45.398 21.5887 46.1485 22.0771 46.6873 22.7629C46.8027 22.9082 46.9139 23.0556 47.0271 23.2009L46.9331 23.2244L46.9758 23.2436L47.0207 23.2607C47.8456 23.1176 48.4653 22.5492 49.1918 22.1923C49.242 22.1596 49.2832 22.1149 49.3119 22.0624C49.3406 22.0098 49.3559 21.951 49.3564 21.8911V21.8911C49.3574 21.8783 49.3574 21.8654 49.3564 21.8526C48.7901 20.5406 47.7708 19.6517 46.5143 19.094C44.0418 17.9979 41.657 18.1774 39.4475 19.8227C39.3406 19.9017 39.2338 19.9894 39.0906 19.9402C36.8383 16.7757 36.5519 16.4958 33.8081 15.1026L33.6457 15.0193C32.4276 14.5483 31.1219 14.3471 29.8185 14.4295C29.3591 14.4573 28.936 14.5599 28.9146 15.1154C28.9039 15.4082 28.8783 15.703 28.8719 15.9958C29.1112 16.3868 28.8377 16.8141 29.0727 17.1603C29.8206 17.374 30.5963 17.2479 31.3592 17.374C33.4833 17.7009 35.5796 19.2607 36.3682 21.1988H13.7232C14.8195 19.062 16.4585 17.7799 18.7664 17.3825C19.9032 17.1859 21.0529 17.2842 22.1961 17.2735C23.5766 17.2607 24.9527 17.2735 26.3738 17.2735C26.3952 16.7992 26.4165 16.3825 26.4358 15.9658H26.6217V15.8825C26.6366 14.5705 26.5191 14.4359 25.2605 14.4295C23.3743 14.421 21.4881 14.421 19.6019 14.4295C18.4553 14.4354 17.3226 14.6815 16.2769 15.1517C16.2256 15.1819 16.1711 15.2063 16.1144 15.2244C15.7191 15.3526 15.608 14.9573 15.4627 14.6881C14.1805 12.2906 12.8913 9.89818 11.5949 7.51072C10.6183 5.70516 9.69086 3.87824 8.65659 2.1026C7.91294 0.820545 6.77184 0.217982 5.32942 0.0470422C2.63049 -0.273471 0.232864 1.43166 -0.00219727 3.7949V5.55559C0.187989 6.10046 0.211492 6.67952 0.502113 7.21584C3.1177 12.0385 5.68628 16.8889 8.26768 21.7308C8.37758 21.8976 8.43702 22.0925 8.43892 22.2923C8.44082 22.492 8.38507 22.688 8.27836 22.8569C7.57532 23.9915 7.60309 25.2073 8.01979 26.3996C9.42375 30.4252 10.7978 34.4594 12.2936 38.4552C14.1613 43.4915 15.3366 48.6667 15.5973 54.0278C15.8666 59.562 15.0054 64.968 13.5843 70.3013C13.3984 70.9979 13.033 71.2436 12.3385 71.2287C10.8997 71.2016 9.46079 71.2016 8.02193 71.2287C6.35941 71.2628 5.20333 72.3483 5.08153 74.0064C5.01956 74.9641 5.01956 75.9248 5.08153 76.8825C5.14564 77.9915 5.74397 78.765 6.70772 79.2778C7.22699 79.5535 7.79115 79.5214 8.34889 79.5214C20.3156 79.5214 32.2824 79.5214 44.2491 79.5214C45.0204 79.4862 45.7769 79.7416 46.3689 80.2372C47.5934 81.2564 48.9739 82.0022 50.6428 81.9359H50.7112C51.0338 81.9552 51.3651 81.8569 51.6792 82.0129H53.752C55.6496 81.9445 57.2309 81.1774 58.5579 79.844C58.6714 79.7303 58.8079 79.6421 58.9583 79.5853C59.1087 79.5286 59.2694 79.5046 59.4298 79.515C60.0692 79.5092 60.7069 79.4484 61.3359 79.3334C66.6782 78.6325 71.2427 76.2949 75.0614 72.5641C77.4214 70.2706 79.252 67.4893 80.425 64.4146C81.158 62.4915 81.7777 60.5406 81.8995 58.468C82.0469 55.797 81.8845 53.1325 81.9978 50.4744ZM3.81006 2.98294C4.85929 2.48721 5.80594 2.76927 6.37436 3.79704C6.80175 4.55559 7.1928 5.32909 7.64155 6.17097L2.90829 5.57268C2.42534 4.28636 2.72664 3.49576 3.81006 2.98294ZM4.45113 8.43166L9.20365 9.02567L11.2807 12.8953L6.51113 12.2992L4.45113 8.43166ZM8.03903 15.156L12.8236 15.7564L13.5309 17.0791C12.4327 18.11 11.5735 19.3688 11.0136 20.7671L8.03903 15.156ZM60.6436 46.3526C61.3487 46.2821 61.8424 46.7009 62.0668 47.6346H59.5623C59.5537 46.8782 59.9491 46.4103 60.6372 46.3419L60.6436 46.3526ZM40.9839 46.3526C41.6506 46.374 42.0524 46.7671 42.2212 47.6133C41.3675 47.6685 40.5114 47.6764 39.6569 47.6368C39.8449 46.7308 40.2894 46.3163 40.9882 46.3398L40.9839 46.3526ZM35.7143 31.8227C36.0622 31.8409 36.3887 31.9961 36.6226 32.2544C36.8564 32.5126 36.9785 32.8529 36.9622 33.2009C36.951 33.5504 36.8021 33.8813 36.5479 34.1215C36.2937 34.3616 35.9549 34.4916 35.6053 34.4829C35.2571 34.4642 34.9307 34.3081 34.6975 34.0489C34.4644 33.7897 34.3435 33.4486 34.3616 33.1005C34.3632 32.9255 34.3998 32.7526 34.4693 32.5921C34.5389 32.4315 34.6398 32.2865 34.7663 32.1656C34.8928 32.0447 35.0422 31.9504 35.2058 31.8882C35.3693 31.826 35.5437 31.7972 35.7185 31.8035L35.7143 31.8227ZM35.6865 37.1047C36.0356 37.1148 36.3666 37.2628 36.6069 37.5163C36.8472 37.7698 36.9773 38.1081 36.9686 38.4573C36.9619 38.8055 36.8185 39.1371 36.5695 39.3805C36.3204 39.624 35.9856 39.7598 35.6373 39.7586C35.4641 39.7542 35.2934 39.7156 35.1351 39.645C34.9768 39.5745 34.834 39.4734 34.7149 39.3475C34.5957 39.2216 34.5027 39.0735 34.4409 38.9116C34.3792 38.7496 34.3501 38.5771 34.3552 38.4039C34.3543 38.2291 34.3884 38.0558 34.4554 37.8943C34.5224 37.7329 34.621 37.5864 34.7455 37.4636C34.8699 37.3408 35.0176 37.2441 35.1799 37.1791C35.3423 37.1142 35.5159 37.0824 35.6908 37.0855L35.6865 37.1047ZM31.684 27.8697C31.8566 27.8677 32.0277 27.9 32.1876 27.9648C32.3475 28.0296 32.493 28.1255 32.6155 28.247C32.738 28.3685 32.8351 28.5131 32.9011 28.6725C32.9672 28.8318 33.001 29.0027 33.0004 29.1752C33.0044 29.5232 32.8704 29.8587 32.6277 30.1081C32.385 30.3576 32.0534 30.5008 31.7054 30.5064C31.3575 30.5048 31.0242 30.3666 30.7772 30.1216C30.5302 29.8766 30.3893 29.5445 30.3848 29.1966C30.3814 29.0225 30.4125 28.8494 30.4763 28.6873C30.54 28.5253 30.6352 28.3774 30.7564 28.2523C30.8776 28.1272 31.0223 28.0273 31.1822 27.9583C31.3421 27.8893 31.5141 27.8527 31.6883 27.8505L31.684 27.8697ZM30.4403 33.1325C30.6125 33.1396 30.7816 33.1809 30.9377 33.2539C31.0937 33.327 31.2337 33.4303 31.3495 33.558C31.4652 33.6857 31.5544 33.8351 31.6118 33.9975C31.6693 34.16 31.6938 34.3323 31.684 34.5043C31.6774 34.6764 31.6369 34.8454 31.5647 35.0017C31.4925 35.158 31.3901 35.2985 31.2634 35.4151C31.1367 35.5317 30.9881 35.6221 30.8263 35.681C30.6645 35.7399 30.4927 35.7663 30.3207 35.7586C30.1487 35.7504 29.98 35.7082 29.8244 35.6345C29.6688 35.5607 29.5293 35.4569 29.4141 35.3289C29.2988 35.201 29.2101 35.0514 29.153 34.889C29.0958 34.7266 29.0715 34.5544 29.0813 34.3825C29.0853 34.2102 29.124 34.0404 29.1951 33.8834C29.2662 33.7264 29.3682 33.5853 29.4951 33.4686C29.622 33.352 29.7711 33.262 29.9335 33.2043C30.0959 33.1465 30.2683 33.1221 30.4403 33.1325ZM30.3933 38.4188C30.565 38.4188 30.7349 38.4532 30.893 38.52C31.0512 38.5868 31.1943 38.6847 31.3138 38.8078C31.4334 38.931 31.527 39.0769 31.5892 39.2369C31.6513 39.3969 31.6806 39.5678 31.6755 39.7394C31.6758 39.9116 31.6418 40.0822 31.5756 40.2412C31.5094 40.4001 31.4122 40.5444 31.2897 40.6655C31.1672 40.7866 31.0218 40.8821 30.8621 40.9465C30.7023 41.0109 30.5314 41.0429 30.3591 41.0406C30.1874 41.039 30.0178 41.0032 29.86 40.9354C29.7023 40.8676 29.5596 40.769 29.4403 40.6455C29.321 40.5221 29.2274 40.3761 29.165 40.2161C29.1027 40.0561 29.0727 39.8854 29.077 39.7137C29.0764 39.5421 29.1102 39.3721 29.1765 39.2137C29.2428 39.0554 29.3402 38.912 29.463 38.7921C29.5858 38.6721 29.7314 38.578 29.8912 38.5154C30.051 38.4527 30.2217 38.4228 30.3933 38.4274V38.4188ZM15.1315 37.8761C14.1549 35.2094 13.236 32.5193 12.2936 29.8376C12.2252 29.6432 12.0799 29.4594 12.1804 29.1966H27.6816C27.8525 29.8163 27.8654 30.4787 28.2756 31.062C27.2927 31.7693 26.6473 32.6795 26.4593 33.8718C26.2712 35.0641 26.6879 36.1176 27.391 37.0513C25.7284 39.7671 26.2306 41.9231 28.9317 43.4274C27.8949 44.6541 27.1282 46.0855 26.6815 47.6282C25.8075 47.6282 24.957 47.6282 24.1065 47.6282C22.2025 47.6453 21.1148 48.7094 21.1319 50.5983C21.1533 52.9167 21.0315 55.2351 21.2302 57.5492C21.6576 62.5834 23.5402 67.015 26.7648 70.8889C26.9203 71.0156 27.0342 71.1861 27.0918 71.3782H16.2982C16.2982 70.7372 16.529 70.1496 16.6893 69.5535C18.1748 64.0677 18.7445 58.3743 18.3753 52.703C18.0419 47.609 16.8859 42.6838 15.1315 37.8846V37.8761ZM55.1709 78.797C52.8887 79.9231 49.57 79.4616 47.743 77.6154C47.0335 76.8975 46.3262 76.6945 45.371 76.6966C33.1977 76.7223 21.0229 76.728 8.84678 76.7137H7.97705V74.1069H58.0258C58.216 75.921 57.0087 77.8975 55.1709 78.8056V78.797ZM60.3764 76.5278C60.5551 75.9207 60.6774 75.2984 60.7419 74.6688C60.9406 72.7052 59.7973 71.4402 57.8292 71.4381H30.9639C27.032 67.8868 24.692 63.5321 23.9591 58.2393H78.9676C78.3479 66.8419 70.4691 75.7159 60.3764 76.5278ZM79.2283 55.5492H23.8223V50.3718H79.2305L79.2283 55.5492Z" fill="#026F30"/>
<path d="M50.7047 81.9999C50.7099 81.951 50.6994 81.9016 50.6748 81.8589C51.0146 81.8333 51.365 81.7392 51.6663 81.9999H50.7047Z" fill="#3C3C3C"/>
<path d="M68.0353 40.0642C68.014 40.1219 67.9905 40.1774 67.967 40.233C65.7788 39.7693 62.7165 39.592 60.8254 39.8056C60.6972 40.2073 60.8254 40.639 60.742 41.0514C60.6856 41.103 60.6214 41.1456 60.5518 41.1774C60.5518 41.1347 60.5518 41.0941 60.5518 41.0514H58.3273C58.3145 41.0727 58.3038 41.0941 58.2931 41.1155C58.0944 41.5257 58.3337 41.9317 58.1072 42.265C57.9897 41.4531 58.1927 40.6283 58.0452 39.7479H39.4348C39.843 38.2522 39.5865 36.9467 38.6826 35.8313C38.7125 35.5492 38.8963 35.4039 39.0032 35.2351C39.828 33.9232 39.781 32.5749 39.1805 31.2031C39.2399 31.1766 39.2977 31.1466 39.3536 31.1133C39.5188 31.0191 39.664 30.8936 39.781 30.7437C39.8042 30.7166 39.8256 30.6881 39.8451 30.6582C40.993 29.9897 42.263 29.5575 43.5804 29.3868C43.4779 29.0834 43.1787 29.2693 43.0654 29.0941C43.1744 29.0364 43.3048 29.0706 43.4287 29.0514C43.4931 29.0433 43.5535 29.0157 43.6018 28.9723C43.7086 28.545 43.8155 28.1176 43.9288 27.6902C44.4416 25.8633 45.5037 24.4103 46.9653 23.2308L46.9226 23.2116L47.0166 23.1881L49.2817 21.9061L49.3458 21.8868C50.4143 21.5685 51.0746 20.7714 51.6708 19.9082C52.3952 18.8612 53.094 17.7971 53.8419 16.6838L57.5708 19.6155C58.2696 19.7223 58.5902 20.3142 59.0133 20.7629C59.2526 21.015 59.4599 21.2971 59.6992 21.5556C59.7261 21.589 59.7554 21.6204 59.7868 21.6497C59.7416 21.6833 59.6929 21.7119 59.6415 21.7351C60.3247 22.7452 60.8978 23.8254 61.3511 24.9573C61.5049 25.3847 61.5049 25.8505 61.8126 26.2116C61.8554 26.1667 61.8981 26.1197 61.943 26.0749L61.9643 26.1411C61.9643 26.1411 61.9643 26.1411 61.9643 26.1539C62.023 26.4667 62.0616 26.7828 62.0797 27.1005C62.1139 27.8185 62.4131 28.312 63.1632 28.4488L63.223 28.4766C63.2409 28.4826 63.258 28.4905 63.2743 28.5001C63.2294 28.545 63.1867 28.592 63.1418 28.639C65.065 29.4937 66.6186 30.7757 67.6614 32.6176C67.6948 32.5568 67.739 32.5025 67.7917 32.4573L67.8281 32.5172L67.8473 32.5706C68.1571 33.4039 68.7127 34.1689 68.5781 35.1347C68.7448 36.8163 68.6679 38.4744 68.0353 40.0642Z" fill="#00B151"/>
<path d="M28.8676 15.9957V15.985C28.1229 15.9364 27.3761 15.9264 26.6303 15.9551H26.4444V14.8119C26.1858 14.5726 25.9358 14.6581 25.7071 14.6581C23.9549 14.6581 22.2004 14.6837 20.4482 14.6431C18.9868 14.5967 17.5316 14.8535 16.1743 15.3974C16.1572 15.3376 16.1402 15.2777 16.1252 15.2179C15.5183 12.9259 15.93 10.8197 17.3603 8.89952C17.4153 8.80957 17.4611 8.71437 17.4971 8.61533C17.7856 8.50636 18.0057 8.68798 18.2429 8.79268C19.6618 9.41875 20.9952 9.27132 22.1727 8.26063C23.3501 7.24995 23.8822 5.94012 23.4078 4.35465C23.3287 4.08542 23.1642 3.80978 23.3544 3.51918C23.7818 2.95508 23.8309 2.23713 24.1044 1.6132C24.2198 1.34824 24.2946 1.06832 24.4164 0.713623C25.3396 1.32473 26.2114 1.91662 27.1004 2.48713C28.0364 3.08756 28.9104 3.78841 29.9083 4.29268C30.8315 4.52345 31.3657 5.29482 32.0709 5.82901L32.0858 5.84396L31.9747 5.93798L33.4107 7.9679L33.5347 7.89097L33.5795 7.96149C33.9581 8.74257 34.2263 9.57243 34.3766 10.4273C34.3082 10.5082 34.2618 10.6054 34.242 10.7094C34.2221 10.8135 34.2295 10.9209 34.2634 11.0213C34.5604 12.4358 34.227 13.7735 33.821 15.1025C33.8039 15.1623 33.7868 15.22 33.7676 15.2799C31.652 14.6559 30.6477 14.5341 29.1262 14.7264L28.8676 15.9957Z" fill="#00B151"/>
<path d="M60.5559 41.0598C60.5559 41.1026 60.5559 41.1432 60.5559 41.1859C60.6255 41.154 60.6897 41.1115 60.7461 41.0598H60.5559Z" fill="#FEFEFE"/>
<path d="M46.9331 23.2159L46.9758 23.2351L47.0271 23.1924L46.9331 23.2159Z" fill="#FEFEFE"/>
<path d="M81.8932 8.85479C81.8932 11.7836 81.8932 14.7123 81.8932 17.6411C81.8825 25.9189 76.8436 32.6582 68.89 35.0321L68.5887 35.1304C68.3419 34.2732 68.0356 33.4343 67.672 32.6197C67.7054 32.5589 67.7496 32.5046 67.8023 32.4595L67.8386 32.5193L67.8579 32.5727C73.6596 31.1091 78.1322 26.2693 79.0254 20.3933C79.5126 17.1881 79.1344 13.968 79.2647 10.8078C79.191 10.7507 79.1061 10.7097 79.0156 10.6872C78.9251 10.6648 78.8309 10.6614 78.7391 10.6774C77.115 10.6774 75.4888 10.6368 73.8669 10.6903C69.5631 10.8313 65.9325 12.4766 63.0135 15.6582C61.4428 17.3676 60.4171 19.3783 59.7055 21.5642C59.7324 21.5976 59.7617 21.629 59.7931 21.6582C59.7479 21.6918 59.6992 21.7205 59.6478 21.7437C58.964 21.0321 58.3358 20.2629 57.5771 19.624C58.7695 16.5321 60.6009 13.8997 63.2208 11.8462C66.1505 9.55137 69.4734 8.21376 73.2002 8.10265C76.07 8.01077 78.9442 8.08342 81.8226 8.08342C81.9594 8.32273 81.8932 8.59411 81.8932 8.85479Z" fill="#026F30"/>
<path d="M23.3458 3.51747C23.1877 3.30378 23.0381 3.09008 22.8693 2.87639C22.4597 2.37549 21.9334 1.98278 21.3367 1.73272C20.7399 1.48265 20.0909 1.38288 19.4466 1.44217C18.8023 1.50145 18.1824 1.71797 17.6413 2.07273C17.1002 2.42749 16.6544 2.90964 16.3431 3.47687C15.3858 5.22701 15.826 7.32332 17.4885 8.60547C20.1938 10.377 22.9355 8.6824 23.583 6.59677C23.9185 5.52831 23.7475 4.52182 23.3458 3.51747ZM19.8284 4.09016C19.9995 4.09011 20.1689 4.12431 20.3266 4.19074C20.4843 4.25717 20.6271 4.35448 20.7466 4.47696C20.8661 4.59943 20.9598 4.74458 21.0223 4.90386C21.0849 5.06314 21.1149 5.23332 21.1106 5.40437C21.1106 5.57566 21.0764 5.74523 21.0098 5.90306C20.9433 6.06089 20.8457 6.20377 20.723 6.32329C20.6003 6.44281 20.4549 6.53653 20.2954 6.59892C20.1359 6.6613 19.9655 6.69109 19.7942 6.68652C19.6226 6.68896 19.4523 6.65646 19.2937 6.591C19.1351 6.52554 18.9914 6.42849 18.8715 6.30575C18.7515 6.18301 18.6578 6.03715 18.596 5.87705C18.5343 5.71694 18.5057 5.54594 18.5121 5.37445C18.5099 5.20248 18.5428 5.03186 18.6086 4.87296C18.6744 4.71405 18.7718 4.57018 18.8949 4.45008C19.018 4.32997 19.1642 4.23613 19.3247 4.17426C19.4852 4.11239 19.6566 4.08378 19.8284 4.09016V4.09016Z" fill="#026F30"/>
<path d="M34.368 10.426C34.291 10.3576 34.1543 10.302 34.1436 10.2123C33.994 9.42591 33.6371 8.71645 33.4021 7.95571L33.526 7.87877C34.4898 7.25052 34.6351 6.33165 33.8487 5.6863C33.2995 5.23968 32.746 5.28242 32.0772 5.83161L31.9661 5.92563L29.8997 4.2802C30.9681 2.99805 32.3422 2.48733 33.9491 2.86343C35.4621 3.21602 36.4429 4.2161 36.8532 5.73117C37.3767 7.67363 36.4066 9.49001 34.368 10.426Z" fill="#026F30"/>
<path d="M59.7098 21.5576C59.7367 21.591 59.766 21.6224 59.7974 21.6516C59.7522 21.6852 59.7035 21.7139 59.6521 21.7371L59.7098 21.5576Z" fill="#FEFEFE"/>
<path d="M61.975 26.1431L61.8232 26.2137C61.866 26.1688 61.9087 26.1218 61.9536 26.0769L61.975 26.1431Z" fill="#FEFEFE"/>
<path d="M63.2379 28.4785C63.2558 28.4846 63.273 28.4924 63.2892 28.502C63.2444 28.5469 63.2016 28.5939 63.1567 28.6409C63.1824 28.5854 63.2102 28.5319 63.2379 28.4785Z" fill="#FEFEFE"/>
<path d="M67.8558 32.5727L67.6699 32.6197C67.7034 32.5589 67.7475 32.5046 67.8003 32.4595L67.8366 32.5193L67.8558 32.5727Z" fill="#FEFEFE"/>
<path d="M75.2857 20.1816C75.1746 20.8804 75.0976 21.5534 74.7515 22.1047C74.3925 22.2201 74.1403 22.1047 73.886 22.0449C73.0056 21.8312 72.1188 21.6346 71.2512 21.3782C70.9883 21.2856 70.7032 21.2769 70.4352 21.3535C70.1672 21.4301 69.9296 21.5881 69.7554 21.8056C69.1741 22.4274 68.548 23.0107 67.9561 23.6218C67.7424 23.8355 67.4667 24.0492 67.5287 24.4936C68.6591 25.0898 70.046 24.9316 71.2384 25.4893C71.2042 26.2073 71.1465 26.8526 70.811 27.4124C70.4285 27.5214 70.1208 27.4124 69.8088 27.3504C68.5266 27.0983 67.2445 26.8355 65.9623 26.5855C65.6461 26.5257 65.2977 26.4274 65.0328 26.6453C64.3639 27.1923 63.6544 27.7137 63.2378 28.4936C63.2556 28.4997 63.2728 28.5075 63.289 28.5171C63.2442 28.562 63.2014 28.609 63.1565 28.656L62.1073 28.3034C61.9919 27.5962 61.7975 26.9295 61.8231 26.2286C61.8658 26.1838 61.9086 26.1368 61.9535 26.0919L61.9748 26.1581C63.1459 25.5833 63.5134 24.8248 63.257 23.5385C63.0112 22.2842 62.7527 21.0321 62.5091 19.7757C62.4642 19.5492 62.3509 19.3141 62.5838 19.015C63.1587 18.9252 63.7677 18.6346 64.5071 18.7457C64.8917 19.9509 64.9345 21.2479 65.3512 22.3782C65.4853 22.4248 65.6304 22.4293 65.7671 22.3911C65.9038 22.3529 66.0256 22.2739 66.1162 22.1645C66.8491 21.468 67.5607 20.7479 68.2659 20.0278C68.642 19.6368 68.6677 19.1838 68.5437 18.688C68.33 17.8333 68.1163 16.9786 67.9026 16.1239C67.83 15.8205 67.6889 15.5128 67.9026 15.1453C68.4846 14.8537 69.128 14.7057 69.7789 14.7137C70.2297 15.5427 70.0887 16.547 70.6828 17.2372H70.7148L70.7276 17.2842L70.7747 17.2329C71.1208 17.203 71.2961 16.9872 71.4927 16.8056C71.8602 16.4594 72.2021 16.0855 72.5739 15.7372C72.7876 15.547 73.0227 15.3718 73.2791 15.5919C73.7343 15.9829 74.2493 16.3333 74.4758 16.9402C73.9736 17.8333 72.9372 18.2757 72.5526 19.2906C73.4373 19.7842 74.416 19.7607 75.2857 20.1816Z" fill="#026F30"/>
<path d="M51.5083 29.1858C52.5572 29.1813 53.5651 29.5929 54.311 30.3303C55.0569 31.0678 55.4799 32.071 55.4872 33.1199C55.4844 34.1696 55.0656 35.1753 54.3226 35.9167C53.5796 36.6581 52.5729 37.0748 51.5233 37.0753C50.4727 37.0793 49.4633 36.6665 48.7166 35.9274C47.9699 35.1883 47.5468 34.1833 47.54 33.1327C47.5446 32.0836 47.9648 31.0791 48.7086 30.3393C49.4524 29.5995 50.4592 29.1847 51.5083 29.1858Z" fill="#026F30"/>
<path d="M52.8161 33.1325C52.8167 33.4809 52.6791 33.8153 52.4336 34.0624C52.1881 34.3096 51.8546 34.4493 51.5062 34.451C51.158 34.4426 50.827 34.2976 50.5848 34.0473C50.3425 33.7971 50.2083 33.4616 50.2112 33.1133C50.2118 32.7653 50.3501 32.4316 50.596 32.1854C50.8419 31.9391 51.1753 31.8002 51.5233 31.7991C51.8715 31.8047 52.2032 31.9483 52.4456 32.1983C52.688 32.4483 52.8213 32.7843 52.8161 33.1325Z" fill="#00B151"/>
</g>
<defs>
<clipPath id="clip0_7161_22142">
<rect width="82" height="82" fill="white"/>
</clipPath>
</defs>
</svg>