<svg width="36" height="30" viewBox="0 0 36 30" fill="none" xmlns="http://www.w3.org/2000/svg">
<rect width="27" height="26.9039" rx="7.5" fill="#FFEDEF"/>
<g filter="url(#filter0_d_13822_48211)">
<path d="M6 19.9832C6.2247 19.6013 6.45374 19.2208 6.67047 18.8367C6.71266 18.7568 6.72838 18.6658 6.71541 18.5766C6.61756 17.9969 6.48129 17.4222 6.41243 16.8396C6.33052 16.1531 6.7502 15.6687 7.45039 15.5928C7.69465 15.567 7.74032 15.433 7.74032 15.2287C7.73669 14.2456 7.73017 13.2625 7.74032 12.2793C7.74902 11.5878 8.2477 11.0282 8.94861 10.8906C9.59009 10.7645 10.2924 11.1177 10.5432 11.734C10.6324 11.9762 10.6738 12.2331 10.665 12.4907C10.6447 13.5656 10.6911 14.634 10.9433 15.6859C10.9636 15.7705 10.9905 15.8543 11.0158 15.946L12.9932 15.0904C12.6308 13.7031 12.999 12.505 13.9354 11.4244L14.5153 12.0586C13.8854 12.8261 13.5498 13.7132 13.8209 14.7723C14.4465 14.5681 15.0531 14.3588 15.6714 14.1704C17.5226 13.6043 19.4007 13.1621 21.3403 13.036C22.271 12.9758 23.2024 12.9787 24.0911 13.337C24.2512 13.4022 24.3042 13.3413 24.2853 13.1779C24.173 12.1804 24.4107 11.7691 25.3646 11.337C27.4975 10.3696 29.6317 9.40441 31.767 8.44133C32.2961 8.20127 32.805 8.22636 33.229 8.62047C33.6639 9.02462 33.8951 9.53411 33.7241 10.1446C33.6081 10.5466 33.3261 10.8075 32.947 10.9852C30.948 11.9406 28.9513 12.902 26.957 13.8694C26.8026 13.9411 26.6475 14.0163 26.4975 14.0987C26.2899 14.218 26.0562 14.2857 25.8163 14.2961C25.5764 14.3064 25.3376 14.2591 25.1203 14.1582C25.071 14.1367 25.021 14.1173 24.971 14.0987C24.9659 14.0987 24.9572 14.1051 24.9326 14.1173C25.0051 14.3946 25.0935 14.6734 25.1537 14.9586C25.5886 17.0223 25.1218 18.9227 23.9903 20.6633C22.2558 23.3268 19.7232 24.8524 16.634 25.4973C14.3914 25.9673 12.1893 25.7997 10.0888 24.8423C8.1484 23.9602 6.7415 22.5672 6.03987 20.5364C6.02909 20.5112 6.01574 20.4872 6 20.4648V19.9832ZM11.3072 16.7586C11.3087 16.7972 11.3138 16.8356 11.3224 16.8733C11.9675 18.424 13.083 19.4379 14.761 19.8019C14.8583 19.8192 14.9584 19.8103 15.051 19.7761C16.2527 19.3405 17.448 18.8854 18.6548 18.4655C19.284 18.2505 19.6993 17.8156 20.0262 17.2774C20.1851 17.0286 20.3182 16.7645 20.4234 16.4892C20.5444 16.1349 20.6399 15.7726 20.709 15.405C20.8424 14.7329 21.3961 14.2707 22.0652 14.2986C22.7342 14.3266 23.2524 14.8425 23.3082 15.5233C23.3119 15.5691 23.322 15.615 23.3293 15.6601L23.4075 15.6924C23.625 15.3821 23.8722 15.0847 24.0599 14.7558C24.2049 14.4993 24.1324 14.3165 23.8598 14.1825C23.6763 14.0901 23.4814 14.0217 23.28 13.979C22.4471 13.802 21.6056 13.8522 20.7699 13.9439C18.5693 14.1847 16.4513 14.7658 14.3732 15.5018C14.3046 15.5299 14.2376 15.5617 14.1725 15.5971L14.5747 16.1761L13.9101 16.7249C13.7042 16.4383 13.5143 16.1689 13.3128 15.8851L11.3072 16.7586ZM13.2483 20.2956C12.733 19.8908 12.1959 19.549 11.7588 19.109C10.5969 17.9367 10.1076 16.4455 9.91409 14.8568C9.81696 14.0528 9.82856 13.2359 9.80391 12.4241C9.79666 12.1976 9.76187 11.9941 9.57124 11.8508C9.4875 11.7811 9.38494 11.7371 9.27622 11.7244C9.1675 11.7117 9.05738 11.7307 8.95948 11.7791C8.71232 11.8938 8.60214 12.0959 8.60214 12.361C8.60214 13.3262 8.60214 14.2915 8.60214 15.2567C8.60214 15.9439 8.23465 16.3545 7.53809 16.439C7.34746 16.462 7.25686 16.5537 7.26773 16.735C7.32644 17.7497 7.56418 18.712 8.15057 19.5647C8.58547 20.1989 9.18201 20.6303 9.96265 20.7234C10.3817 20.7628 10.8041 20.7467 11.2188 20.6754C11.911 20.5737 12.596 20.421 13.2483 20.2956ZM21.1287 17.2352C21.3294 17.1155 21.5338 16.9629 21.7614 16.8632C22.3326 16.6146 22.392 16.1101 22.4341 15.5992C22.4375 15.4938 22.4012 15.3908 22.3323 15.3102C22.2634 15.2297 22.1667 15.1772 22.061 15.1631C21.9552 15.1489 21.8479 15.174 21.7598 15.2335C21.6716 15.293 21.609 15.3827 21.5839 15.4853C21.4251 16.0643 21.2802 16.6476 21.1287 17.2352ZM25.1276 12.7207C25.5625 12.548 25.7386 12.5444 25.8698 12.7487C25.9356 12.8524 25.9633 12.9754 25.9481 13.0969C25.927 13.2137 25.8248 13.3155 25.7582 13.423C26.1583 13.385 26.4105 13.1328 26.3989 12.778C26.3928 12.6157 26.3252 12.4615 26.2097 12.3459C26.0942 12.2304 25.939 12.1619 25.7748 12.1539C25.4327 12.1396 25.1747 12.366 25.1276 12.7222V12.7207ZM8.06432 20.8897L8.07737 20.8238L7.12856 19.6514C7.05884 19.7542 6.99449 19.8604 6.93576 19.9696C6.83211 20.1846 6.81616 20.416 7.0568 20.5285C7.37718 20.6783 7.72727 20.7736 8.06432 20.8918V20.8897Z" fill="url(#paint0_linear_13822_48211)"/>
<path d="M14.7863 6.28589L15.4096 6.8742C14.8377 7.54133 14.3224 8.22423 14.2354 9.13571H13.3757C13.4446 7.97773 14.0534 7.1078 14.7863 6.28589Z" fill="#ED4C5C"/>
<path d="M12.9422 4C13.1709 3.99998 13.3904 4.089 13.5532 4.24779C13.716 4.40658 13.809 4.62236 13.812 4.84843C13.8143 5.01897 13.7653 5.18633 13.6711 5.32924C13.5769 5.47215 13.4419 5.58415 13.2832 5.65099C13.1245 5.71783 12.9492 5.73651 12.7798 5.70463C12.6103 5.67276 12.4542 5.59178 12.3314 5.47199C12.2086 5.3522 12.1246 5.19902 12.0901 5.03191C12.0556 4.8648 12.0721 4.69132 12.1376 4.53353C12.2031 4.37573 12.3145 4.24076 12.4578 4.14575C12.6011 4.05075 12.7697 4.00002 12.9422 4V4Z" fill="#ED4C5C"/>
<path d="M10.7737 7.86946C10.7723 8.04 10.7195 8.20625 10.6222 8.34709C10.5249 8.48792 10.3875 8.59697 10.2273 8.66036C10.0672 8.72376 9.89155 8.73864 9.72282 8.70312C9.55409 8.6676 9.39985 8.58328 9.27972 8.46087C9.15959 8.33847 9.07899 8.18352 9.04817 8.01571C9.01735 7.84791 9.0377 7.67483 9.10664 7.51849C9.17557 7.36215 9.28998 7.2296 9.4353 7.1377C9.58063 7.04581 9.75032 6.99871 9.92279 7.0024C10.1511 7.00839 10.3679 7.10247 10.527 7.26451C10.686 7.42655 10.7746 7.64368 10.7737 7.86946V7.86946Z" fill="#ED4C5C"/>
<path d="M6.88696 9.15918H7.72197V9.98539H6.88696V9.15918Z" fill="#ED4C5C"/>
<path d="M11.6638 9.58911H12.4945V10.4218H11.6638V9.58911Z" fill="#ED4C5C"/>
<path d="M11.2237 14.2822C11.2171 14.2462 11.2125 14.2098 11.21 14.1733C11.21 13.9426 11.21 13.7118 11.21 13.4603H12.058V14.2822H11.2237Z" fill="#ED4C5C"/>
<path d="M11.3071 16.7595L13.3077 15.8845C13.5092 16.1712 13.6991 16.4342 13.9049 16.7244L14.5696 16.1755L14.1673 15.5965C14.2324 15.5611 14.2995 15.5293 14.3681 15.5012C16.4462 14.7653 18.5641 14.1841 20.7647 13.9433C21.6005 13.8516 22.442 13.8 23.2748 13.9785C23.4762 14.0211 23.6711 14.0895 23.8547 14.182C24.1243 14.3174 24.2011 14.5001 24.0547 14.7552C23.867 15.0841 23.6198 15.3815 23.4024 15.6918L23.3241 15.6595C23.3169 15.6144 23.3067 15.5685 23.3031 15.5227C23.2473 14.8419 22.7232 14.3267 22.06 14.298C21.3968 14.2694 20.8372 14.7323 20.7038 15.4044C20.6367 15.7724 20.5432 16.1352 20.4241 16.4901C20.3188 16.7653 20.1858 17.0294 20.0268 17.2783C19.6999 17.8164 19.2846 18.2478 18.6555 18.4664C17.4486 18.8863 16.2534 19.3413 15.0516 19.777C14.959 19.8111 14.8589 19.82 14.7617 19.8028C13.0837 19.4388 11.9682 18.4248 11.3231 16.8741C11.3142 16.8365 11.3089 16.7981 11.3071 16.7595V16.7595ZM14.6645 18.1554V17.3206H13.8346V18.1554H14.6645Z" fill="white"/>
<path d="M13.2483 20.2956C12.5959 20.421 11.9081 20.5736 11.2151 20.6754C10.8 20.747 10.3771 20.7633 9.95755 20.7241C9.18053 20.6309 8.58617 20.1996 8.1491 19.5654C7.56271 18.7127 7.32497 17.7503 7.26625 16.7356C7.25538 16.5543 7.34599 16.4626 7.53662 16.4397C8.23318 16.3551 8.59922 15.9445 8.60067 15.2573C8.60067 14.2921 8.60067 13.3269 8.60067 12.3616C8.60067 12.0965 8.71084 11.8944 8.95801 11.7798C9.05591 11.7313 9.16602 11.7123 9.27474 11.725C9.38347 11.7378 9.48603 11.7817 9.56977 11.8514C9.7604 11.9948 9.79519 12.1961 9.80244 12.4247C9.82708 13.2366 9.81548 14.0535 9.91261 14.8575C10.104 16.4461 10.5932 17.9388 11.758 19.1096C12.1987 19.5496 12.7358 19.8907 13.2483 20.2956ZM11.0086 19.9523C10.5012 19.5869 10.0561 19.1999 9.89232 18.603H9.02252C9.17763 19.5489 9.77707 20.1429 10.5302 20.6603L11.0086 19.9523Z" fill="white"/>
<path d="M21.1287 17.2351C21.2802 16.6475 21.4251 16.0642 21.5839 15.4853C21.609 15.3827 21.6716 15.293 21.7598 15.2335C21.8479 15.174 21.9552 15.1489 22.061 15.163C22.1667 15.1772 22.2634 15.2297 22.3323 15.3102C22.4012 15.3908 22.4375 15.4937 22.4341 15.5992C22.392 16.1101 22.3326 16.6146 21.7614 16.8632C21.5338 16.9628 21.3294 17.1133 21.1287 17.2351Z" fill="white"/>
<path d="M25.1274 12.7221C25.1746 12.3638 25.4326 12.1396 25.7747 12.1532C25.9389 12.1611 26.094 12.2297 26.2096 12.3452C26.3251 12.4608 26.3926 12.6149 26.3988 12.7773C26.4082 13.1356 26.1581 13.3864 25.758 13.4222C25.8247 13.3147 25.9269 13.213 25.9479 13.0962C25.9631 12.9747 25.9355 12.8517 25.8697 12.7479C25.7385 12.5459 25.5616 12.5494 25.1274 12.7221Z" fill="white"/>
<path d="M8.06425 20.8919C7.7272 20.7736 7.37856 20.6769 7.05674 20.5286C6.81609 20.4161 6.83204 20.1832 6.93569 19.9696C6.99442 19.8604 7.05877 19.7542 7.12849 19.6515L8.0773 20.826L8.06425 20.8919Z" fill="white"/>
<path d="M14.6646 18.1554H13.8347V17.3206H14.6646V18.1554Z" fill="#ED4C5C"/>
<path d="M11.0114 19.9523L10.5338 20.6603C9.78067 20.143 9.18124 19.5489 9.02612 18.603H9.89592C10.059 19.1999 10.5019 19.5869 11.0114 19.9523Z" fill="#ED4C5C"/>
</g>
<defs>
<filter id="filter0_d_13822_48211" x="5.25" y="4" width="29.2808" height="23.25" filterUnits="userSpaceOnUse" color-interpolation-filters="sRGB">
<feFlood flood-opacity="0" result="BackgroundImageFix"/>
<feColorMatrix in="SourceAlpha" type="matrix" values="0 0 0 0 0 0 0 0 0 0 0 0 0 0 0 0 0 0 127 0" result="hardAlpha"/>
<feOffset dy="0.75"/>
<feGaussianBlur stdDeviation="0.375"/>
<feComposite in2="hardAlpha" operator="out"/>
<feColorMatrix type="matrix" values="0 0 0 0 0.192157 0 0 0 0 0.239216 0 0 0 0 0.682353 0 0 0 0.25 0"/>
<feBlend mode="normal" in2="BackgroundImageFix" result="effect1_dropShadow_13822_48211"/>
<feBlend mode="normal" in="SourceGraphic" in2="effect1_dropShadow_13822_48211" result="shape"/>
</filter>
<linearGradient id="paint0_linear_13822_48211" x1="7.73629" y1="5.35934" x2="24.9417" y2="22.5583" gradientUnits="userSpaceOnUse">
<stop stop-color="#ED4C5C"/>
<stop offset="1" stop-color="#D02436"/>
</linearGradient>
</defs>
</svg>
