<svg width="24" height="20" viewBox="0 0 24 20" fill="none" xmlns="http://www.w3.org/2000/svg">
<path d="M10.125 17.4513C10.4471 17.3687 10.7325 17.1812 10.9362 16.9185C11.1399 16.6557 11.2503 16.3325 11.25 16.0001V8.50006C11.2503 8.16757 11.1399 7.84444 10.9362 7.58166C10.7325 7.31888 10.4471 7.1314 10.125 7.04881C10.0029 7.01531 9.87665 6.99891 9.75 7.00006H2.25C2.053 7 1.85792 7.03876 1.67591 7.11412C1.4939 7.18949 1.32851 7.29997 1.18922 7.43927C1.04992 7.57857 0.93943 7.74395 0.864067 7.92597C0.788705 8.10798 0.749944 8.30306 0.75 8.50006V16.0001C0.749946 16.1971 0.788708 16.3921 0.864071 16.5741C0.939434 16.7562 1.04992 16.9215 1.18922 17.0608C1.32852 17.2001 1.4939 17.3106 1.67591 17.386C1.85792 17.4613 2.053 17.5001 2.25 17.5001H9.75C9.87665 17.5012 10.0028 17.4848 10.125 17.4513V17.4513ZM4.125 16.0001H2.625C2.52651 15.9986 2.43254 15.9584 2.36341 15.8883C2.29428 15.8181 2.25553 15.7235 2.25553 15.625C2.25554 15.5265 2.29429 15.432 2.36343 15.3618C2.43256 15.2917 2.52653 15.2515 2.62502 15.2501H4.125C4.22349 15.2515 4.31746 15.2917 4.38659 15.3618C4.45573 15.432 4.49448 15.5266 4.49448 15.6251C4.49448 15.7236 4.45573 15.8181 4.38659 15.8883C4.31746 15.9584 4.22349 15.9986 4.125 16.0001V16.0001ZM4.875 14.5001H2.625C2.52651 14.4986 2.43254 14.4584 2.36341 14.3883C2.29428 14.3181 2.25553 14.2235 2.25553 14.125C2.25554 14.0265 2.29429 13.932 2.36343 13.8618C2.43256 13.7917 2.52653 13.7515 2.62502 13.7501H4.875C4.97349 13.7515 5.06746 13.7917 5.13659 13.8618C5.20573 13.932 5.24448 14.0266 5.24448 14.1251C5.24448 14.2236 5.20573 14.3181 5.13659 14.3883C5.06746 14.4584 4.97349 14.4986 4.875 14.5001V14.5001ZM8.25 8.87506C8.24913 9.17316 8.13032 9.4588 7.91953 9.66959C7.70874 9.88038 7.4231 9.99918 7.125 10.0001H4.875C4.5769 9.99918 4.29126 9.88038 4.08047 9.66959C3.86968 9.4588 3.75087 9.17316 3.75 8.87506V7.75006H4.5V8.87506C4.5003 8.97442 4.5399 9.06963 4.61016 9.13989C4.68042 9.21016 4.77564 9.24976 4.875 9.25006H7.125C7.22436 9.24976 7.31958 9.21016 7.38984 9.13989C7.4601 9.06963 7.4997 8.97442 7.5 8.87506V7.75006H8.25V8.87506Z" fill="#50429B"/>
<path d="M13.5 4.375H17.25C17.548 4.37391 17.8335 4.25503 18.0443 4.04429C18.255 3.83355 18.3739 3.54803 18.375 3.25V1.375C18.3741 1.0769 18.2553 0.791256 18.0445 0.580465C17.8337 0.369675 17.5481 0.25087 17.25 0.25H13.5C13.2019 0.25087 12.9163 0.369675 12.7055 0.580465C12.4947 0.791256 12.3759 1.0769 12.375 1.375V3.25C12.3763 3.54797 12.4952 3.83337 12.7059 4.04407C12.9166 4.25477 13.202 4.37371 13.5 4.375V4.375Z" fill="#50429B"/>
<path d="M21.3746 1.75H19.1246V3.25H20.6246C20.8233 3.25058 21.0138 3.32978 21.1543 3.47031C21.2948 3.61084 21.374 3.80127 21.3746 4V17.5C21.374 17.6987 21.2948 17.8892 21.1543 18.0297C21.0138 18.1702 20.8233 18.2494 20.6246 18.25C18.71 18.2514 9.23964 18.2485 7.53711 18.25C7.62359 18.6735 7.85372 19.0541 8.18856 19.3274C8.52339 19.6008 8.94237 19.7501 9.37461 19.75H21.3746C21.8718 19.7498 22.3486 19.5522 22.7002 19.2006C23.0518 18.849 23.2494 18.3722 23.2496 17.875V3.625C23.2494 3.12777 23.0518 2.65097 22.7002 2.29937C22.3486 1.94778 21.8718 1.75018 21.3746 1.75V1.75Z" fill="#50429B"/>
<path d="M9.375 4C9.37558 3.80127 9.45479 3.61084 9.59531 3.47031C9.73584 3.32978 9.92627 3.25058 10.125 3.25H11.625V1.75H9.375C8.87777 1.75018 8.40097 1.94778 8.04937 2.29937C7.69778 2.65097 7.50018 3.12777 7.5 3.625V6.25H9.375V4Z" fill="#50429B"/>
<path d="M10.125 6.28C10.6496 6.36858 11.1258 6.6402 11.469 7.04663C11.8123 7.45307 12.0004 7.968 12 8.5V16C12.0005 16.5537 11.7962 17.088 11.4262 17.5H20.625V4H18.9675C18.8197 4.33278 18.579 4.61589 18.2744 4.81541C17.9698 5.01494 17.6141 5.12243 17.25 5.125H13.5C13.1362 5.12326 12.7806 5.01606 12.4765 4.81639C12.1723 4.61672 11.9325 4.33314 11.7863 4H10.125V6.28ZM16.7963 7.10875C16.8671 7.03849 16.9628 6.99907 17.0625 6.99907C17.1622 6.99907 17.2579 7.03849 17.3287 7.10875L17.8125 7.59625L19.2338 6.17125C19.3048 6.10294 19.3999 6.06522 19.4984 6.0662C19.597 6.06718 19.6913 6.10678 19.761 6.17649C19.8307 6.2462 19.8703 6.34047 19.8713 6.43905C19.8723 6.53763 19.8346 6.63267 19.7662 6.70375L18.0787 8.39125C18.0075 8.46072 17.912 8.49961 17.8125 8.49961C17.713 8.49961 17.6175 8.46072 17.5463 8.39125L16.7963 7.64125C16.726 7.57045 16.6866 7.47475 16.6866 7.375C16.6866 7.27525 16.726 7.17955 16.7963 7.10875V7.10875ZM16.7963 10.4838C16.8671 10.4135 16.9628 10.3741 17.0625 10.3741C17.1622 10.3741 17.2579 10.4135 17.3287 10.4838L17.8125 10.9713L19.2338 9.54625C19.3048 9.47794 19.3999 9.44022 19.4984 9.4412C19.597 9.44218 19.6913 9.48178 19.761 9.55149C19.8307 9.6212 19.8703 9.71547 19.8713 9.81405C19.8723 9.91263 19.8346 10.0077 19.7662 10.0787L18.0787 11.7662C18.0075 11.8357 17.912 11.8746 17.8125 11.8746C17.713 11.8746 17.6175 11.8357 17.5463 11.7662L16.7963 11.0162C16.726 10.9454 16.6866 10.8497 16.6866 10.75C16.6866 10.6503 16.726 10.5546 16.7963 10.4838V10.4838ZM16.7963 13.8588C16.8671 13.7885 16.9628 13.7491 17.0625 13.7491C17.1622 13.7491 17.2579 13.7885 17.3287 13.8588L17.8125 14.3463L19.2338 12.9213C19.3048 12.8529 19.3999 12.8152 19.4984 12.8162C19.597 12.8172 19.6913 12.8568 19.761 12.9265C19.8307 12.9962 19.8703 13.0905 19.8713 13.1891C19.8723 13.2876 19.8346 13.3827 19.7662 13.4537L18.0787 15.1412C18.0075 15.2107 17.912 15.2496 17.8125 15.2496C17.713 15.2496 17.6175 15.2107 17.5463 15.1412L16.7963 14.3912C16.726 14.3204 16.6866 14.2247 16.6866 14.125C16.6866 14.0253 16.726 13.9296 16.7963 13.8588V13.8588ZM12.5625 7.375C12.5937 7.37569 15.573 7.3745 15.5625 7.375C15.661 7.37647 15.755 7.41662 15.8241 7.4868C15.8932 7.55697 15.932 7.65152 15.932 7.75002C15.932 7.84853 15.8932 7.94307 15.8241 8.01324C15.7549 8.0834 15.661 8.12354 15.5625 8.125H12.5625C12.464 8.12354 12.37 8.08339 12.3009 8.01322C12.2318 7.94305 12.193 7.8485 12.193 7.75C12.193 7.6515 12.2318 7.55695 12.3009 7.48678C12.37 7.41661 12.464 7.37646 12.5625 7.375V7.375ZM12.5625 10.75C12.5937 10.7507 15.573 10.7495 15.5625 10.75C15.661 10.7515 15.755 10.7916 15.8241 10.8618C15.8932 10.932 15.932 11.0265 15.932 11.125C15.932 11.2235 15.8932 11.3181 15.8241 11.3882C15.7549 11.4584 15.661 11.4985 15.5625 11.5H12.5625C12.464 11.4985 12.37 11.4584 12.3009 11.3882C12.2318 11.3181 12.193 11.2235 12.193 11.125C12.193 11.0265 12.2318 10.9319 12.3009 10.8618C12.37 10.7916 12.464 10.7515 12.5625 10.75V10.75ZM12.5625 14.125C12.5937 14.1257 15.573 14.1245 15.5625 14.125C15.661 14.1265 15.755 14.1666 15.8241 14.2368C15.8932 14.307 15.932 14.4015 15.932 14.5C15.932 14.5985 15.8932 14.6931 15.8241 14.7632C15.7549 14.8334 15.661 14.8735 15.5625 14.875H12.5625C12.464 14.8735 12.37 14.8334 12.3009 14.7632C12.2318 14.6931 12.193 14.5985 12.193 14.5C12.193 14.4015 12.2318 14.3069 12.3009 14.2368C12.37 14.1666 12.464 14.1265 12.5625 14.125V14.125Z" fill="#50429B"/>
</svg>