<svg width="54" height="53" viewBox="0 0 54 53" fill="none">
  <g opacity="0.8" clip-path="url(#clip0_4703_11839)">
    <path d="M60.0599 11.9584L50.6938 38.1558L20.1475 30.9864L27.8408 3.8684L60.0599 11.9584Z"
      fill="#D6A685" />
    <path d="M65.2151 20.0476L46.8936 41.2738L21.2807 23.6051L38.3932 0.915974L65.2151 20.0476Z"
      fill="#E2BB9F" />
    <path
      d="M44.4919 58.2561C56.2768 52.5303 61.2954 38.5544 55.7011 27.04C50.1068 15.5257 36.0181 10.8331 24.2331 16.5589C12.4481 22.2846 7.42961 36.2605 13.0239 47.7749C18.6182 59.2893 32.7069 63.9819 44.4919 58.2561Z"
      fill="#7A7272" />
    <g opacity="0.4">
      <path
        d="M38.1113 57.5433C30.7107 59.2375 25.6427 57.1032 22.6217 54.9171C19.1153 52.3769 17.5976 49.2865 17.5329 49.1515C17.4444 48.9694 17.4336 48.7587 17.5028 48.5659C17.572 48.3731 17.7156 48.2139 17.902 48.1233C18.0884 48.0328 18.3024 48.0183 18.4967 48.083C18.6911 48.1478 18.85 48.2864 18.9385 48.4686C18.9578 48.5083 20.3939 51.4011 23.6139 53.7094C27.9048 56.7896 33.1943 57.4375 39.3374 55.6336C39.535 55.5792 39.745 55.6032 39.9221 55.7002C40.0992 55.7973 40.2292 55.9598 40.2841 56.1527C40.3391 56.3456 40.3146 56.5534 40.2159 56.7314C40.1171 56.9094 39.9521 57.0433 39.7564 57.1043C39.1954 57.2726 38.6471 57.4189 38.1113 57.5433Z"
        fill="#8E757B" />
    </g>
    <g opacity="0.2">
      <path
        d="M42.3006 19.2165C42.2081 19.2616 42.106 19.2834 42.0036 19.2799C41.9013 19.2765 41.8019 19.2479 41.7144 19.1968C37.4494 16.7097 33.9782 17.5358 33.9439 17.5442C33.7866 17.5801 33.6224 17.5543 33.4864 17.4722C33.3503 17.3902 33.253 17.2584 33.2153 17.105C33.1777 16.9516 33.2025 16.7886 33.2846 16.6508C33.3667 16.513 33.4996 16.4113 33.6549 16.3673C33.8147 16.3263 37.6302 15.392 42.3555 18.148C42.4504 18.2034 42.5279 18.2833 42.5798 18.3793C42.6316 18.4753 42.656 18.5838 42.6502 18.6933C42.6444 18.8029 42.6088 18.9094 42.547 19.0016C42.4852 19.0938 42.3996 19.1683 42.2992 19.2172L42.3006 19.2165Z"
        fill="white" />
    </g>
    <g opacity="0.2">
      <path
        d="M46.7157 21.8027C46.6096 21.8541 46.4915 21.8749 46.3751 21.8628C46.2587 21.8507 46.1488 21.8062 46.0582 21.7344C44.8685 20.788 44.1598 20.6213 44.1537 20.6193C44.0746 20.6045 43.9996 20.5743 43.933 20.5304C43.8664 20.4866 43.8095 20.43 43.7656 20.3639C43.7218 20.2978 43.6919 20.2235 43.6776 20.1454C43.6633 20.0673 43.665 19.9869 43.6825 19.9088C43.7174 19.7502 43.8145 19.6106 43.9524 19.5205C44.0903 19.4304 44.2578 19.3972 44.4182 19.4282C44.5129 19.4479 45.4113 19.6422 46.8439 20.7818C46.9064 20.8315 46.9582 20.893 46.9962 20.9628C47.0342 21.0326 47.0577 21.1094 47.0654 21.1887C47.0731 21.2681 47.0648 21.3484 47.041 21.4252C47.0172 21.5019 46.9784 21.5736 46.9268 21.6361C46.8695 21.7061 46.7974 21.7631 46.7157 21.8027Z"
        fill="white" />
    </g>
    <path
      d="M29.242 68.7183L28.5654 40.1724L26.9273 40.1928L25.8264 68.7701C25.8193 68.9953 25.858 69.2188 25.9403 69.4273C26.0226 69.6359 26.1468 69.8253 26.3056 69.9843C26.4643 70.1434 26.6544 70.2688 26.8646 70.3533C27.0748 70.4377 27.3007 70.4794 27.5292 70.476C27.7576 70.4725 27.9839 70.4239 28.1946 70.3331C28.4053 70.2423 28.5961 70.111 28.7558 69.9472C28.9155 69.7833 29.0408 69.5901 29.1243 69.379C29.2078 69.168 29.2479 68.9433 29.242 68.7183Z"
      fill="#E2E2E2" />
    <path
      d="M33.4357 35.7026C33.4614 31.3874 30.9386 27.9203 27.8009 27.9586C24.6631 27.9969 22.0986 31.5262 22.0729 35.8414C22.0472 40.1566 24.57 43.6237 27.7078 43.5854C30.8455 43.547 33.41 40.0178 33.4357 35.7026Z"
      fill="#F2F2F2" />
    <g opacity="0.2">
      <path
        d="M27.6907 42.9365C26.2664 43.1359 25.3533 42.4836 24.8303 41.8856C24.4716 41.4713 24.197 40.9923 24.0209 40.474C23.9983 40.3905 24.0098 40.3009 24.0529 40.2244C24.0961 40.1479 24.1675 40.0904 24.252 40.0642C24.3365 40.038 24.4274 40.0451 24.5055 40.084C24.5835 40.1229 24.6426 40.1906 24.67 40.2726C24.7004 40.3719 25.4377 42.6923 27.7748 42.2491C27.8631 42.2323 27.9539 42.2507 28.0273 42.3002C28.1006 42.3497 28.1504 42.4263 28.1658 42.513C28.1812 42.5998 28.1609 42.6897 28.1093 42.7629C28.0577 42.8361 27.9792 42.8866 27.8909 42.9033C27.8231 42.9163 27.756 42.9273 27.6907 42.9365Z"
        fill="#B3B3B3" />
    </g>
    <path opacity="0.2"
      d="M31.3583 35.7898C31.377 32.6525 29.7667 30.1291 27.7616 30.1536C25.7566 30.178 24.116 32.7412 24.0973 35.8784C24.0786 39.0157 25.6889 41.5391 27.694 41.5147C29.699 41.4902 31.3396 38.927 31.3583 35.7898Z"
      fill="#B3B3B3" />
    <path
      d="M69.4845 56.5822L47.4463 38.4232L46.3465 39.6391L67.1962 59.1244C67.3614 59.2775 67.5567 59.3958 67.7706 59.4722C67.9844 59.5486 68.2125 59.5817 68.4412 59.5693C68.6699 59.557 68.8945 59.4996 69.1019 59.4005C69.3093 59.3013 69.4951 59.1625 69.6483 58.9923C69.8016 58.822 69.9191 58.6238 69.9941 58.4093C70.069 58.1948 70.0997 57.9685 70.0844 57.7438C70.0691 57.519 70.0081 57.3004 69.9051 57.1009C69.802 56.9013 69.659 56.725 69.4845 56.5822Z"
      fill="#E2E2E2" />
    <path
      d="M41.4683 29.9758L45.7766 33.7457C45.9192 33.8706 46.0047 34.0472 46.0141 34.2366C46.0236 34.4259 45.9562 34.6126 45.8269 34.7556C45.7628 34.827 45.6852 34.8854 45.5986 34.9275C45.512 34.9696 45.4181 34.9945 45.3223 35.0008C45.2266 35.0071 45.1308 34.9946 45.0407 34.9642C44.9505 34.9337 44.8677 34.8858 44.7969 34.8233L39.9299 30.5643C39.8408 30.4864 39.7291 30.4377 39.6099 30.4249C39.4907 30.4122 39.3697 30.4359 39.2633 30.4929C39.1801 30.5376 39.1087 30.6012 39.0552 30.6784C39.0018 30.7556 38.9678 30.8441 38.9563 30.9363C38.9448 31.0284 38.956 31.1216 38.989 31.2078C39.0221 31.2939 39.0759 31.3706 39.1459 31.4311L44.1017 35.7677C44.2215 35.8726 44.2932 36.0209 44.3012 36.1799C44.3091 36.3389 44.2527 36.4957 44.1442 36.6158L43.9714 36.8054C43.8671 36.9202 43.7217 36.9904 43.5669 37.0005C43.4122 37.0106 43.2608 36.9599 43.146 36.8595L38.2485 32.5745C38.1729 32.5084 38.0815 32.462 37.9825 32.4396C37.8836 32.4172 37.7801 32.4193 37.6812 32.4459C37.5824 32.4725 37.4913 32.5227 37.4162 32.592C37.341 32.6613 37.2841 32.7475 37.2505 32.843C37.2104 32.9568 37.2049 33.0791 37.2349 33.1946C37.2648 33.3102 37.3288 33.4138 37.4188 33.4927L42.3508 37.8083C42.4566 37.9009 42.5201 38.0318 42.5271 38.1723C42.5342 38.3127 42.4843 38.4512 42.3885 38.5573L42.1358 38.8365C42.0886 38.8894 42.0314 38.9327 41.9675 38.9639C41.9037 38.9952 41.8343 39.0137 41.7636 39.0184C41.6929 39.023 41.6222 39.0139 41.5557 38.9913C41.4891 38.9687 41.428 38.9333 41.3759 38.887L37.0722 35.1231C37.0342 35.0895 36.9861 35.0689 36.9349 35.0641C36.8837 35.0593 36.832 35.0706 36.7872 35.0965C36.7424 35.1223 36.7067 35.1613 36.6854 35.2079C36.664 35.2545 36.6581 35.3063 36.6684 35.3559C37.0105 37.0961 38.0637 38.9168 39.7349 40.3791C42.9793 43.218 47.3174 43.6308 49.4242 41.3008C51.5311 38.9707 50.6095 34.781 47.3651 31.9421C45.6078 30.4044 43.5303 29.5798 41.6599 29.5166C41.6051 29.5146 41.5507 29.5296 41.5042 29.5592C41.4578 29.5889 41.4215 29.6319 41.4005 29.6823C41.3795 29.7327 41.3747 29.788 41.3868 29.8405C41.399 29.8931 41.4274 29.9404 41.4683 29.9758Z"
      fill="#F2F2F2" />
    <g opacity="0.2">
      <path
        d="M48.626 40.8683C47.808 42.0421 46.6932 42.2875 45.8853 42.2831C45.328 42.2762 44.779 42.1648 44.2678 41.9548C44.1866 41.9181 44.1241 41.8508 44.094 41.7678C44.064 41.6848 44.0689 41.5928 44.1076 41.5121C44.1463 41.4314 44.2157 41.3685 44.3005 41.3374C44.3853 41.3063 44.4785 41.3094 44.5597 41.3461C44.6546 41.389 46.9122 42.3666 48.1673 40.3572C48.2164 40.2848 48.2917 40.2334 48.3774 40.2139C48.4631 40.1944 48.5526 40.2083 48.627 40.2527C48.7013 40.297 48.7548 40.3684 48.7762 40.4518C48.7976 40.5351 48.7852 40.624 48.7417 40.6997C48.703 40.7579 48.6644 40.8141 48.626 40.8683Z"
        fill="#B3B3B3" />
    </g>
  </g>
  <defs>
    <clipPath id="clip0_4703_11839">
      <rect width="59.0647" height="67.9744" fill="white"
        transform="translate(-1.4082 18.0793) rotate(-25.913)" />
    </clipPath>
  </defs>
</svg>