<svg width="18" height="18" viewBox="0 0 18 18" fill="none">
  <g clip-path="url(#clip0_5289_452)">
    <path
      d="M12.7291 6.17682C12.5149 6.17694 12.3073 6.25132 12.1418 6.38729C11.9763 6.52326 11.8631 6.71242 11.8214 6.92252C11.7797 7.13262 11.8122 7.35067 11.9133 7.53953C12.0143 7.72839 12.1777 7.87636 12.3757 7.95823C12.5736 8.04011 12.7938 8.05083 12.9987 7.98856C13.2037 7.92629 13.3807 7.79488 13.4996 7.61674C13.6185 7.43859 13.672 7.22471 13.6509 7.01156C13.6299 6.7984 13.5355 6.59915 13.384 6.44775C13.2981 6.36165 13.196 6.29339 13.0836 6.24689C12.9712 6.2004 12.8507 6.17658 12.7291 6.17682Z"
      fill="#8778DC" />
    <path
      d="M16.702 1.92872C16.7018 1.92769 16.7018 1.92663 16.702 1.9256C16.6727 1.79701 16.608 1.67918 16.5152 1.5854C16.4225 1.49162 16.3054 1.42562 16.1771 1.39485C15.1434 1.14266 13.5172 1.4115 11.715 2.13304C9.89869 2.86152 8.19683 3.9369 7.04652 5.08928C6.67782 5.45602 6.33529 5.84817 6.02145 6.26283C5.24683 6.22814 4.56449 6.33845 3.98968 6.58925C1.98671 7.47071 1.41468 9.72657 1.2624 10.6528C1.24036 10.7844 1.24899 10.9193 1.28761 11.047C1.32623 11.1747 1.39381 11.2918 1.48507 11.3892C1.57634 11.4865 1.68883 11.5615 1.81381 11.6082C1.93878 11.655 2.07286 11.6723 2.2056 11.6588H2.21011L4.44134 11.4153C4.44412 11.4437 4.44724 11.4697 4.44967 11.4937C4.47832 11.7655 4.59957 12.0193 4.79309 12.2124L5.882 13.302C6.07482 13.4958 6.32854 13.6172 6.60042 13.6458L6.675 13.6538L6.43217 15.8822C6.43217 15.8822 6.43217 15.885 6.43217 15.8867C6.41976 16.0068 6.43253 16.128 6.46967 16.2428C6.5068 16.3576 6.56748 16.4634 6.64783 16.5534C6.72818 16.6435 6.82643 16.7157 6.9363 16.7656C7.04616 16.8155 7.16523 16.8419 7.28588 16.8431C7.33411 16.8432 7.38226 16.8392 7.42984 16.8313C8.36125 16.6815 10.6161 16.1164 11.4951 14.1027C11.7438 13.5317 11.8538 12.8521 11.8229 12.0789C12.2394 11.7657 12.633 11.4231 13.0006 11.0538C14.1603 9.90002 15.2391 8.21203 15.96 6.42205C16.6777 4.6404 16.9479 3.00201 16.702 1.92872ZM12.9881 7.99522C12.7031 8.28055 12.3398 8.47493 11.9443 8.55376C11.5488 8.6326 11.1388 8.59235 10.7661 8.43811C10.3935 8.28387 10.0749 8.02256 9.85084 7.68725C9.62673 7.35195 9.50711 6.9577 9.50711 6.55439C9.50711 6.15108 9.62673 5.75684 9.85084 5.42153C10.0749 5.08622 10.3935 4.82492 10.7661 4.67067C11.1388 4.51643 11.5488 4.47618 11.9443 4.55502C12.3398 4.63385 12.7031 4.82823 12.9881 5.11356C13.1792 5.30174 13.3309 5.52603 13.4345 5.77339C13.538 6.02075 13.5913 6.28623 13.5913 6.55439C13.5913 6.82255 13.538 7.08803 13.4345 7.33539C13.3309 7.58275 13.1792 7.80704 12.9881 7.99522Z"
      fill="#2B2162" />
    <path
      d="M5.82736 14.9269C5.69312 14.9102 5.55743 14.9431 5.44577 15.0195C5.22411 15.1711 5.0014 15.3209 4.77661 15.467C4.32183 15.7625 3.7779 15.2436 4.04813 14.7732L4.46961 14.0447C4.52987 13.9566 4.56342 13.8529 4.56624 13.7462C4.56907 13.6394 4.54105 13.5341 4.48554 13.4429C4.43003 13.3517 4.34938 13.2785 4.25328 13.2319C4.15718 13.1854 4.04969 13.1676 3.94372 13.1806C3.47593 13.2398 3.04111 13.4528 2.70773 13.7863C2.58077 13.9136 2.19467 14.3 1.98688 15.7726C1.92774 16.1956 1.89045 16.6213 1.87518 17.0481C1.87328 17.1222 1.88624 17.1959 1.91328 17.2649C1.94032 17.3339 1.9809 17.3968 2.03263 17.4498C2.08436 17.5029 2.14619 17.545 2.21448 17.5738C2.28276 17.6026 2.35611 17.6174 2.43021 17.6174H2.44409C2.87123 17.6023 3.29732 17.5652 3.72066 17.5064C5.19393 17.2982 5.58037 16.9118 5.70733 16.7848C6.04232 16.4513 6.25489 16.0145 6.31058 15.545C6.32842 15.399 6.28753 15.2518 6.19692 15.1359C6.10631 15.02 5.97338 14.9448 5.82736 14.9269Z"
      fill="#8778DC" />
  </g>
  <defs>
    <clipPath id="clip0_5289_452">
      <rect width="17.761" height="17.761" fill="white" transform="translate(0 0.0522156)" />
    </clipPath>
  </defs>
</svg>