<svg width="459" height="504" viewBox="0 0 459 504" fill="none">
  <path
    d="M321.888 414.384C317.027 412.23 311.883 410.736 306.602 409.945C303.371 409.425 300.071 409.453 296.85 410.028C294.556 410.484 292.335 411.232 290.243 412.253C283.076 415.709 282.04 419.555 281.808 422.81C281.576 426.064 283.429 430.42 289.353 434.443L391.028 503.594C409.535 494.022 426.734 482.237 442.225 468.516C398.049 448.586 325.959 416.076 321.888 414.384Z"
    fill="#2F4650" />
  <path
    d="M353.668 269.134C359.846 270.31 362.26 270.722 365.216 275.71C368.172 280.698 373.191 299.237 374.567 303.084C375.943 306.931 376.353 308.331 375.774 312.613C375.182 317.083 372.48 325.023 371.345 329.376C370.814 331.388 370.465 333.352 370.078 335.411C369.544 337.518 368.859 339.586 368.027 341.599C367.671 342.58 367.05 343.45 366.229 344.116C365.723 344.551 365.023 344.598 364.54 344.998C364.057 345.398 363.925 346.104 363.249 346.433C362.573 346.763 361.632 346.575 360.968 346.951C360.314 347.419 359.633 347.851 358.929 348.245C358.281 348.429 357.689 348.764 357.204 349.222C356.769 349.68 356.359 350.716 355.575 350.633C354.791 350.551 354.561 349.727 354.525 349.022C354.553 347.637 355.035 346.297 355.901 345.198C356.67 343.975 357.512 342.797 358.423 341.669C359.309 340.623 359.944 339.397 360.281 338.081C360.558 337.199 360.474 336.081 359.303 336.587C357.94 337.199 356.492 338.469 354.851 338.187C353.717 337.999 353.644 337.128 354.308 336.399C355.399 335.197 356.399 333.919 357.3 332.576C358.217 331.199 358.978 329.752 359.931 328.411C360.446 327.714 361.006 327.05 361.608 326.423C363.273 324.659 363.201 322.247 363.394 320C363.659 316.883 363.888 308.884 363.888 308.884L356.407 290.92L353.668 269.134Z"
    fill="#FFBDA7" />
  <path
    d="M363.405 320C363.478 316.294 363.634 312.589 363.779 308.883C361.366 303.166 358.784 296.872 356.419 290.92C359.025 296.872 361.559 302.852 364.021 308.86C363.828 312.577 363.659 316.294 363.405 320V320Z"
    fill="white" />
  <path
    d="M311.955 408.64C314.079 407.91 315.66 407.84 315.636 408.863C315.348 410.124 314.889 411.343 314.272 412.486L312.583 414.757L311.774 416.992C311.774 416.992 310.785 418.168 310.725 418.286C310.664 418.404 310.339 414.11 310.339 414.11C310.339 414.11 309.144 409.169 311.955 408.64Z"
    fill="#263238" />
  <path
    d="M334.761 321.305C334.761 321.305 329.935 326.892 327.075 337.362C324.437 347.093 322.422 356.974 321.042 366.948C320.354 371.406 319.244 377.03 317.603 385.77C316.336 392.499 312.354 413.133 312.354 413.133C312.354 413.133 314.647 416.85 317.422 417.979C321.404 419.603 325.241 418.861 325.748 415.391C325.748 415.391 328.378 411.297 332.372 400.734C334.292 395.884 335.825 390.897 336.957 385.817C337.352 382.629 337.47 379.414 337.307 376.206L353.331 349.044C355.102 346.068 357.224 343.304 359.654 340.809C361.155 339.311 362.332 337.535 363.117 335.586C365.771 328.528 361.91 319.034 361.91 319.034L334.761 321.305Z"
    fill="#263238" />
  <path
    d="M321.102 366.937C318.52 382.406 315.564 397.816 312.415 413.18C315.19 397.746 318.158 382.347 321.102 366.937Z"
    fill="white" />
  <path
    d="M314.852 425.074L313.995 424.909C314.055 424.591 320.475 392.382 324.963 378.854C329.452 365.326 341.216 338.457 341.337 338.187L342.145 338.528C342.025 338.786 330.284 365.643 325.808 379.124C321.331 392.606 314.924 424.756 314.852 425.074Z"
    fill="black" />
  <path
    d="M355.853 330.352H329.536C328.573 332.63 327.767 334.968 327.123 337.351C324.69 346.31 322.816 355.404 321.512 364.584C322.152 368.784 322.876 373.101 323.539 376.066C325.313 383.9 326.423 389.429 327.823 392.664C329.174 395.399 330.769 398.013 332.589 400.475C334.463 395.724 335.959 390.84 337.066 385.865C337.461 382.677 337.578 379.461 337.415 376.254L353.101 349.726L354.224 345.55C358.121 339.233 357.675 334.492 355.853 330.352Z"
    fill="black" />
  <path
    d="M290.381 419.074C289.911 418.862 289.331 420.662 289.283 421.309C289.235 421.956 290.49 424.591 293.784 426.532C297.078 428.473 302.737 429.555 304.86 430.202C306.984 430.849 308.685 432.555 311.485 433.884C313.97 435.061 317.723 435.684 319.364 434.967C319.681 434.783 319.953 434.534 320.161 434.237C320.369 433.941 320.509 433.604 320.571 433.249C321.017 431.92 320.981 431.614 320.812 431.567L290.381 419.074Z"
    fill="#37474F" />
  <path
    d="M321.982 428.626C321.766 429.984 321.304 431.295 320.619 432.496C320.139 432.848 319.592 433.103 319.01 433.247C318.428 433.39 317.822 433.419 317.228 433.331C314.673 433.153 312.212 432.316 310.097 430.908C308.482 429.883 306.738 429.065 304.909 428.473C302.392 427.881 299.92 427.119 297.512 426.191C295.716 425.451 294.044 424.451 292.553 423.226C291.346 422.12 290.224 420.873 290.345 419.321C290.616 418.343 291.19 417.471 291.99 416.824C292.789 416.178 293.774 415.788 294.809 415.709C296.791 415.611 298.773 415.903 300.637 416.568C302.448 417.165 304.322 417.56 306.224 417.744C307.527 417.85 309.059 418.921 310.073 417.803C311.28 416.509 311.75 413.45 312.559 411.921C312.691 411.674 312.872 411.404 313.15 411.345C313.427 411.286 313.886 411.615 314.139 411.945C315.321 413.382 316.834 414.527 318.556 415.286C323.213 417.533 325.373 416.344 325.373 416.344L325.807 415.403C325.807 415.403 326.736 415.909 325.554 418.027C324.556 419.768 323.717 421.59 323.044 423.473C322.457 425.137 322.1 426.87 321.982 428.626V428.626Z"
    fill="#455A64" />
  <path
    d="M290.382 419.32C291.842 414.05 297.971 415.462 301.929 416.791C303.331 417.273 304.784 417.6 306.261 417.767C304.769 417.702 303.292 417.445 301.869 417.003C297.959 415.826 292.083 414.321 290.382 419.355V419.32Z"
    fill="white" />
  <path
    d="M301.507 416.804C299.516 416.981 298.973 420.121 298.973 420.121C300.756 421.055 302.698 421.669 304.704 421.933C306.099 422.169 307.534 421.888 308.728 421.146C309.923 420.404 310.789 419.254 311.159 417.922C312.004 415.298 311.232 411.628 311.075 410.44C310.984 410.032 311.058 409.605 311.283 409.249C311.508 408.894 311.866 408.637 312.282 408.534C311.94 408.565 311.609 408.665 311.308 408.826C311.008 408.987 310.745 409.207 310.535 409.472C310.326 409.737 310.175 410.041 310.091 410.366C310.007 410.69 309.993 411.028 310.049 411.357C310.11 412.769 310.049 415.557 309.434 416.486C308.819 417.416 305.742 417.828 301.507 416.804Z"
    fill="#455A64" />
  <path
    d="M351.389 321.306C354.287 324.645 355.983 328.819 356.215 333.187C356.414 337.431 355.049 341.604 352.366 344.951C351.365 359.256 348.469 386.795 348.469 386.795C352.342 390.677 353.295 393.194 355.588 400.158C356.951 404.393 362.067 418.004 363.334 421.792C356.553 422.604 352.861 429.18 352.861 429.18C352.861 429.18 340.915 411.981 335.172 401.864C330.912 394.382 328.946 391.653 327.679 387.23C326.11 381.713 325.688 378.866 324.288 369.584C322.889 360.303 321.549 348.492 320.861 339.34C320.174 330.187 319.655 320.518 319.655 320.518L351.389 321.306Z"
    fill="#263238" />
  <path
    d="M352.908 429.144C345.946 419.144 339.116 409.027 333.132 398.44C331.163 395.353 329.472 392.106 328.076 388.735C326.959 385.271 326.104 381.733 325.518 378.148C322.438 359.035 320.488 339.765 319.678 320.435L320.691 334.904C321.608 349.385 323.454 363.796 325.819 378.101C326.676 382.806 327.569 387.664 329.765 391.994C336.808 404.77 344.533 417.178 352.908 429.167V429.144Z"
    fill="white" />
  <path
    d="M336.028 391.253C332.516 382.524 328.305 335.01 328.522 318.588H327.642C327.569 324.082 327.992 333.034 328.716 342.857C325.856 341.445 324.01 338.857 324.01 325.846H323.129C323.129 338.927 324.878 342.092 328.788 343.845C330.26 363.302 332.89 385.806 335.207 391.582C338.646 400.123 356.588 428.979 356.757 429.226L357.517 428.779C357.336 428.52 339.442 399.734 336.028 391.253Z"
    fill="black" />
  <path
    d="M351.919 427.685C350.845 429.167 349.627 430.214 352.679 432.19C355.093 433.708 355.177 434.931 355.913 436.554C356.392 438.137 356.588 439.789 356.492 441.436C356.492 441.436 360.546 435.472 359.364 431.625C358.182 427.779 351.919 427.685 351.919 427.685Z"
    fill="#455A64" />
  <path
    d="M364.914 424.273C366.056 425.448 367.399 426.419 368.884 427.143C369.909 427.767 370.971 428.32 371.297 429.496C371.297 429.626 370.694 430.331 370.706 430.461C370.758 431.022 370.738 431.587 370.645 432.143C370.416 434.084 369.33 435.519 369.089 437.449C369.01 438.219 368.869 438.982 368.667 439.731C368.493 440.642 368.416 441.568 368.437 442.495C368.377 443.46 368.305 444.424 368.256 445.389C368.202 445.799 368.202 446.214 368.256 446.624C368.341 447.036 361.608 450.342 358.893 451.612C358.732 451.688 358.567 451.755 358.398 451.812C356.742 452.251 354.978 452.084 353.439 451.342C348.034 449.424 348.371 447.518 348.371 447.518C348.399 446.729 348.655 445.963 349.11 445.31C349.564 444.656 350.199 444.141 350.941 443.824C351.271 443.638 351.618 443.484 351.979 443.366V443.366C353.324 442.879 354.791 442.809 356.178 443.166C356.452 442.383 356.579 441.558 356.552 440.731C356.663 439.494 356.683 438.252 356.613 437.013C356.373 435.613 355.817 434.283 354.984 433.119C353.837 431.578 352.57 429.59 351.81 428.508C351.05 427.426 350.845 424.814 355.346 421.673C359.665 418.674 362.827 419.321 363.442 420.556C363.785 421.846 364.278 423.093 364.914 424.273V424.273Z"
    fill="#455A64" />
  <path
    d="M348.299 447.53C348.299 443.895 353.053 442.072 356.154 443.142C352.981 442.566 348.757 444.001 348.299 447.53Z"
    fill="white" />
  <path opacity="0.1"
    d="M353.295 445.048C353.655 444.151 354.337 443.411 355.213 442.966C355.531 443.001 355.846 443.06 356.155 443.142C355.612 443.648 353.669 444.401 353.295 445.048Z"
    fill="black" />
  <path
    d="M371.924 430.638C373.131 431.132 372.129 432.99 370.718 435.873C369.442 438.002 368.932 440.487 369.27 442.931C369.559 445.484 368.944 446.731 367.81 447.636C366.676 448.542 358.253 452.13 358.253 452.13C360.256 449.664 361.416 446.649 361.572 443.507C362.03 437.884 362.585 434.273 365.457 431.814C366.35 431.11 367.409 430.633 368.538 430.428C369.667 430.222 370.831 430.295 371.924 430.638V430.638Z"
    fill="black" />
  <path
    d="M348.299 447.518C348.432 448.624 351.654 450.859 355.455 450.812C359.255 450.765 359.581 449.977 360.172 445.636C360.764 441.295 361.174 435.26 363.105 432.696C365.035 430.131 367.569 428.578 371.273 429.519C371.696 429.719 372.842 430.837 372.42 431.872C372.42 431.872 372.42 431.049 370.899 430.613C369.596 430.249 368.04 430.284 365.868 432.119C363.322 434.248 362.755 439.272 362.465 443.577C362.175 447.883 360.8 452.012 357.144 452.4C355.566 452.608 353.96 452.478 352.439 452.019C350.917 451.56 349.517 450.783 348.336 449.741C348.107 449.019 348.094 448.247 348.299 447.518Z"
    fill="#37474F" />
  <path
    d="M326.508 242.124C326.015 241.448 325.712 240.659 325.627 239.834C325.543 239.009 325.68 238.176 326.025 237.419C326.641 235.889 327.92 234.278 331.648 232.395C336.088 230.16 348.275 228.561 354.308 236.336C355.177 237.513 343.183 259.452 343.775 264.005C340.662 260.817 330.393 249.606 330.393 249.606C327.98 248.594 326.484 247.735 325.965 245.5C325.777 244.347 325.967 243.166 326.508 242.124Z"
    fill="#263238" />
  <path
    d="M330.393 249.547C326.773 248.618 324.468 245.524 326.508 242.089C324.963 245.618 327.026 248.182 330.393 249.547Z"
    fill="white" />
  <path
    d="M326.508 242.124C324.987 240.501 325.361 237.889 326.508 236.148C327.839 234.459 329.615 233.154 331.648 232.372C330.721 232.892 329.826 233.466 328.969 234.09C326.447 235.795 324.565 239.383 326.556 242.124H326.508Z"
    fill="white" />
  <path
    d="M328.342 248.37C328.342 248.37 325.048 253.605 325.422 254.04C326.179 254.628 326.986 255.151 327.835 255.605L328.342 248.37Z"
    fill="#F0997A" />
  <path
    d="M328.342 248.37C327.521 250.052 326.532 251.64 325.723 253.311C325.615 253.581 325.386 253.899 325.542 254.087C325.749 254.32 325.994 254.519 326.266 254.675C325.941 254.499 325.398 254.358 325.325 253.934C325.989 251.922 327.01 250.039 328.342 248.37Z"
    fill="white" />
  <path
    d="M332.42 238.795C330.212 239.819 328.306 241.466 327.594 246.183C327.413 247.418 328.402 249.1 327.956 250.735C326.037 257.794 328.318 263.675 329.718 264.911C330.659 265.781 335.606 266.169 338.164 265.464C341.41 264.581 348.468 261.476 351.835 256.523C355.793 250.641 356.661 242.877 352.305 239.736C346.164 235.313 334.773 237.713 332.42 238.795Z"
    fill="#FFBDA7" />
  <path
    d="M327.618 246.183C327.618 247.782 328.583 249.347 328.028 250.982C327.003 255.535 326.93 260.946 329.742 264.911C326.653 261.076 326.653 255.5 327.835 250.935C328.39 249.382 327.473 247.794 327.618 246.23V246.183Z"
    fill="white" />
  <path
    d="M349.301 259.853L350.58 268.522C352.571 268.934 352.752 271.228 351.786 272.957L352.257 275.404L338.646 277.781L337.126 265.652L349.301 259.853Z"
    fill="#FFBDA7" />
  <path
    d="M330.007 265.087C331.213 265.711 333.687 266.169 337.138 265.699L336.933 263.981C335.838 264.382 334.712 264.697 333.566 264.923C332.395 265.149 331.195 265.204 330.007 265.087V265.087Z"
    fill="#F0997A" />
  <path
    d="M329.162 241.313C329.071 242.33 329.344 243.348 329.936 244.191C330.528 245.034 331.402 245.651 332.408 245.936C331.871 247.063 331.67 248.314 331.829 249.547C331.874 250.276 332.132 250.976 332.573 251.566C333.013 252.156 333.618 252.611 334.315 252.876C335.268 253.194 335.521 252.782 335.895 252.041C336.378 250.994 336.993 249.394 339.298 249.688C341.941 250.041 342.64 253.923 341.096 256.464C340.799 257.001 340.373 257.46 339.854 257.8C339.334 258.141 338.738 258.352 338.116 258.417C337.773 258.412 337.436 258.336 337.126 258.194C336.816 258.052 336.54 257.847 336.318 257.594C336.318 257.594 336.487 260.982 340.963 262.993C343.763 264.445 347.007 264.863 350.097 264.17C352.178 261.916 354.139 259.56 355.973 257.111C360.8 250.241 361.826 237.666 353.56 235.407C353.162 235.301 345.645 234.231 341.977 235.054C330.671 237.407 329.187 240.783 329.162 241.313Z"
    fill="#263238" />
  <path
    d="M349.566 234.524C348.567 235.226 347.88 236.274 347.648 237.454C347.544 238.042 347.602 238.646 347.813 239.205C348.025 239.765 348.384 240.26 348.854 240.642C351.268 242.489 355.032 240.336 355.479 237.607C355.986 234.383 352.004 232.76 349.566 234.524Z"
    fill="#92E3A9" />
  <path
    d="M351.534 235.548C349.06 237.031 347.516 240.524 348.831 243.042C349.193 243.724 349.7 244.336 350.038 245.053C350.991 247.347 349.603 249.877 349.302 252.335C349.095 254.287 349.442 256.256 350.303 258.029C351.124 259.335 352.933 259.664 353.657 261.029C354.152 261.97 353.814 263.123 354.007 264.17C354.43 266.416 357.157 267.499 359.51 267.546C360.504 267.632 361.506 267.503 362.444 267.17C363.383 266.836 364.234 266.306 364.939 265.617C365.479 264.8 366.067 264.014 366.701 263.264C368.101 261.982 370.321 262.087 371.865 260.911C372.437 260.419 372.884 259.806 373.173 259.118C373.462 258.431 373.584 257.688 373.53 256.947C373.388 255.462 372.98 254.012 372.324 252.665C371.322 250.312 372.119 248.794 372.625 246.406C372.863 245.117 372.644 243.786 372.003 242.634C371.363 241.482 370.34 240.576 369.102 240.066C367.401 239.407 365.325 239.513 363.95 238.325C363.297 237.572 362.685 236.786 362.116 235.972C359.534 233.207 354.442 233.819 351.534 235.548Z"
    fill="#263238" />
  <path
    d="M361.246 275.616C360.704 274.178 359.845 272.874 358.73 271.794C357.614 270.715 356.27 269.887 354.791 269.369C353.584 269.017 350.58 268.522 350.58 268.522C351.268 270.052 350.109 271.063 348.07 271.522C345.452 272.122 341.458 272.181 338.743 270.428L337.633 269.758C334.67 270.468 331.747 271.324 328.873 272.322C328.282 272.593 325.012 273.663 319.871 284.921C317.675 289.733 318.327 294.614 322.369 298.085C322.598 301.132 320.583 307.99 320.583 307.99C319.559 313.714 319.323 319.545 319.884 325.33C319.884 325.33 322.297 331.564 341.434 331.494C356.239 331.494 363.684 324.436 363.684 324.436C363.503 320.907 357.807 308.519 358.375 304.355C359.255 298.285 364.963 287.403 361.246 275.616Z"
    fill="#92E3A9" />
  <path
    d="M328.872 272.322C332.77 275.416 333.071 279.663 332.492 285.392C331.913 291.121 326.013 309.025 324.806 312.919C323.599 316.813 321.874 318.166 318.833 321.318C315.793 324.471 308.686 329.482 305.15 332.353C303.509 333.682 302.049 335.07 300.493 336.517C298.792 337.915 296.994 339.197 295.111 340.352C294.231 340.939 293.207 341.288 292.143 341.364C291.467 341.364 290.876 341.058 290.237 341.105C289.597 341.152 289.03 341.646 288.33 341.529C287.63 341.411 286.93 340.717 286.17 340.634C285.364 340.645 284.559 340.61 283.757 340.529C283.121 340.299 282.436 340.23 281.766 340.329C281.139 340.446 280.185 341.046 279.594 340.54C279.003 340.035 279.329 339.223 279.715 338.623C280.568 337.5 281.77 336.675 283.142 336.27C284.499 335.723 285.89 335.256 287.304 334.87C288.636 334.522 289.872 333.891 290.924 333.023C291.672 332.47 292.276 331.506 291.033 331.259C289.561 330.965 287.618 331.165 286.448 330C285.651 329.2 286.122 328.459 287.099 328.247C288.706 327.901 290.283 327.437 291.817 326.859C293.386 326.271 294.87 325.53 296.451 324.989C297.293 324.723 298.152 324.507 299.021 324.342C301.434 323.859 302.822 321.871 304.318 320.166C306.417 317.813 310.025 313.319 312.474 310.096L316.179 292.627C318.52 283.145 319.34 275.193 328.872 272.322Z"
    fill="#FFBDA7" />
  <path
    d="M332.468 285.391C331.527 290.567 330.233 295.676 328.595 300.684C328.474 301.096 328.342 301.496 328.221 301.86C326.737 306.766 325.301 311.189 324.77 312.906C323.684 316.436 322.152 317.894 319.606 320.482L318.797 321.306C315.624 324.588 308.65 329.47 305.114 332.352C303.485 333.681 302.013 335.058 300.469 336.505C298.764 337.907 296.962 339.192 295.075 340.351C294.194 340.934 293.17 341.279 292.107 341.351C291.431 341.41 290.84 341.045 290.2 341.092C289.561 341.139 288.994 341.634 288.294 341.516C287.594 341.398 286.894 340.704 286.134 340.634C285.328 340.641 284.522 340.601 283.721 340.516C283.084 340.292 282.4 340.223 281.73 340.316C281.537 340.316 281.308 340.445 281.066 340.528L280.765 340.622C280.629 340.671 280.487 340.703 280.342 340.716C280.207 340.742 280.068 340.739 279.935 340.707C279.801 340.674 279.677 340.613 279.57 340.528C278.907 339.963 279.293 339.222 279.679 338.622C280.532 337.499 281.733 336.674 283.106 336.269C284.463 335.718 285.853 335.247 287.268 334.858C288.6 334.509 289.836 333.879 290.888 333.011C291.636 332.458 292.24 331.505 290.997 331.246C289.525 330.952 287.582 331.152 286.424 329.999C285.615 329.188 286.086 328.446 287.063 328.235C288.67 327.89 290.247 327.426 291.781 326.846C293.35 326.258 294.846 325.517 296.415 324.988C297.255 324.714 298.114 324.498 298.985 324.341C301.398 323.858 302.785 321.859 304.282 320.165C306.381 317.812 309.989 313.306 312.45 310.083L316.143 292.614C318.484 283.085 319.34 275.133 328.836 272.274C329.817 273.049 330.636 273.999 331.25 275.074C332.866 277.85 332.903 281.227 332.468 285.391Z"
    fill="#FFBDA7" />
  <path
    d="M279.522 340.54C279.297 340.317 279.163 340.022 279.146 339.71C279.128 339.398 279.227 339.091 279.426 338.846C280.331 337.14 282.297 336.41 284.035 335.834C285.19 335.305 286.405 334.91 287.655 334.658C288.841 334.3 289.955 333.747 290.949 333.022C290.008 333.845 288.909 334.477 287.715 334.881C285.305 335.457 282.99 336.36 280.837 337.563C280.041 338.187 278.654 339.493 279.571 340.492L279.522 340.54Z"
    fill="white" />
  <path
    d="M286.449 330.047C284.952 328.377 287.848 328.165 288.934 327.812C291.806 327.094 294.34 325.553 297.163 324.777C298.611 324.561 299.996 324.052 301.23 323.283C303.196 321.765 305.308 318.719 306.937 316.801L312.367 310.06C313.573 304.179 315.492 295.015 316.928 289.039C318.46 281.98 320.813 274.44 328.873 272.322C320.934 274.522 318.617 282.016 317.145 289.086C315.697 295.156 313.96 304.037 312.596 310.26L307.118 316.989C305.441 318.919 303.377 321.907 301.338 323.471C300.088 324.243 298.687 324.751 297.224 324.965C294.4 325.73 291.83 327.236 288.958 327.906C287.86 328.247 284.989 328.4 286.449 330.082V330.047Z"
    fill="white" />
  <path opacity="0.3"
    d="M356.154 348.845C356.154 349.302 356.283 349.75 356.528 350.139C356.781 349.834 356.999 349.457 357.216 349.222C357.701 348.765 358.293 348.429 358.941 348.245C359.645 347.851 360.326 347.419 360.981 346.951C361.632 346.575 362.501 346.799 363.261 346.434C364.021 346.069 364.045 345.422 364.552 344.999C365.059 344.575 365.759 344.552 366.241 344.116C367.062 343.45 367.683 342.581 368.039 341.599C368.871 339.586 369.556 337.518 370.09 335.411C370.477 333.353 370.826 331.388 371.357 329.376C372.492 325.024 375.194 317.083 375.786 312.613C376.353 308.331 375.943 306.919 374.579 303.084C373.216 299.249 368.184 280.733 365.228 275.71C362.428 271.005 360.1 270.369 354.597 269.311L354.272 269.228L353.717 269.111L353.282 269.017L352.727 268.911L352.401 268.852L351.605 268.699L351.002 268.593H350.845H350.592L349.952 264.252H350.109C351.086 263.076 352.16 261.958 353.282 260.641C353.419 260.795 353.537 260.965 353.632 261.147C354.139 262.088 353.789 263.229 353.982 264.276C354.404 266.534 357.131 267.605 359.484 267.664C360.48 267.745 361.481 267.613 362.419 267.278C363.357 266.943 364.208 266.412 364.914 265.723C365.458 264.908 366.046 264.123 366.676 263.37C368.075 262.088 370.296 262.194 371.852 261.017C372.422 260.523 372.868 259.907 373.154 259.217C373.441 258.528 373.561 257.783 373.505 257.041C373.368 255.555 372.96 254.105 372.299 252.759C371.297 250.406 372.093 248.889 372.6 246.512C372.839 245.222 372.622 243.891 371.984 242.737C371.346 241.583 370.326 240.675 369.089 240.16C367.376 239.501 365.3 239.619 363.925 238.419C363.276 237.666 362.668 236.881 362.103 236.066C360.172 234.008 356.854 233.831 354.079 234.584C353.393 234.12 352.572 233.885 351.738 233.913C347.973 231.067 343.062 230.384 338.851 230.714C337.266 231.363 335.834 232.319 334.64 233.525C330.851 237.184 328.607 242.56 329.596 247.642C329.789 248.595 330.091 249.512 330.248 250.465C330.646 252.9 330.091 255.382 330.103 257.853C330.115 260.323 330.912 263.052 333.108 264.264C334.773 265.17 336.812 264.993 338.706 265.229C341.819 265.617 341.457 267.487 341.578 270.064C341.631 270.458 341.598 270.859 341.482 271.24C341.434 271.377 341.36 271.505 341.264 271.616C340.456 272.593 338.163 272.981 337.15 273.31C335.141 273.785 333.179 274.43 331.286 275.24C330.416 275.67 329.664 276.295 329.09 277.063C326.785 280.216 325.808 283.968 324.83 287.65C323.925 291.062 322.972 294.473 321.971 297.861C321.07 300.936 320.128 303.994 319.147 307.037C318.384 309.806 317.239 312.461 315.744 314.931C313.874 317.719 311.196 319.883 308.782 322.259C303.316 327.647 298.743 334.541 291.431 337.129C288.62 338.117 285.603 338.387 282.719 339.14C281.718 339.399 280.584 339.917 280.306 340.823C280.451 340.809 280.593 340.778 280.728 340.728L281.03 340.634C281.271 340.552 281.501 340.47 281.694 340.423C282.364 340.329 283.048 340.398 283.685 340.623C284.486 340.708 285.292 340.747 286.098 340.74C286.858 340.811 287.425 341.493 288.258 341.622C289.09 341.752 289.464 341.246 290.164 341.199C290.864 341.152 291.371 341.517 292.071 341.458C293.133 341.386 294.157 341.041 295.039 340.458C296.926 339.299 298.728 338.013 300.432 336.611C301.977 335.164 303.449 333.788 305.078 332.459C308.613 329.576 315.588 324.694 318.761 321.412L319.569 320.589C322.103 318.013 323.636 316.566 324.722 313.025C325.253 311.307 326.688 306.884 328.173 301.979L328.547 300.802C329.104 301.464 329.395 302.3 329.367 303.155C329.814 308.872 331.213 314.66 332.167 320.354C332.842 324.412 333.53 328.471 333.844 332.564C334.085 335.529 334.121 338.446 334.169 341.458L334.459 362.633C334.459 363.809 334.459 364.985 334.519 366.232C334.535 369.565 334.769 372.893 335.219 376.196C335.613 379.108 336.262 381.981 337.162 384.784C337.379 385.466 337.608 386.148 337.862 386.831C340.359 393.595 344.281 399.771 348.058 405.864C351.889 412.376 355.326 419.1 358.35 426.004C358.97 427.211 359.424 428.493 359.701 429.815C360.088 432.098 359.448 434.415 359.267 436.721C359.086 439.026 359.352 441.238 359.267 443.497C359.319 445.77 358.644 448.002 357.337 449.884C356.393 451.069 355.087 451.931 353.608 452.343C354.767 452.54 355.95 452.575 357.119 452.449C357.794 452.388 358.444 452.17 359.014 451.814C361.999 450.586 364.915 449.204 367.75 447.673C368.884 446.791 369.499 445.532 369.222 442.967C368.873 440.524 369.379 438.038 370.658 435.909C371.432 434.616 372.024 433.227 372.419 431.78C372.721 430.78 371.659 429.745 371.213 429.545C370.911 428.369 369.849 427.804 368.799 427.192C367.318 426.468 365.979 425.496 364.842 424.322C364.188 423.138 363.682 421.882 363.333 420.581C363.179 420.295 362.939 420.061 362.646 419.91C360.787 414.699 356.745 403.865 355.551 400.183C353.306 393.207 352.305 390.689 348.432 386.807C348.432 386.807 350.567 366.479 351.81 351.692L353.306 349.14C353.463 348.869 353.62 348.61 353.789 348.351C355.464 345.689 357.422 343.205 359.629 340.94C359.846 340.717 360.063 340.458 360.281 340.211C359.955 340.74 359.641 341.27 359.279 341.787C357.843 343.928 356.045 346.222 356.154 348.845ZM363.539 324.589L363.683 324.459C363.611 323.694 363.461 322.937 363.237 322.201C362.959 321.201 362.573 320.012 362.151 318.73C362.018 318.33 361.873 317.919 361.729 317.554C361.234 316.119 360.703 314.589 360.22 313.107C360.063 312.648 359.919 312.19 359.786 311.743C359.653 311.296 359.472 310.754 359.339 310.284C359.207 309.813 359.146 309.613 359.062 309.284C359.062 309.178 359.002 309.06 358.978 308.955C358.953 308.849 358.869 308.519 358.821 308.319C358.724 307.931 358.64 307.566 358.579 307.213L358.507 306.825C358.501 306.735 358.501 306.645 358.507 306.555C358.472 306.384 358.448 306.211 358.435 306.037V305.684C358.423 305.473 358.423 305.261 358.435 305.049C358.421 304.845 358.421 304.641 358.435 304.437C358.761 302.611 359.208 300.807 359.774 299.038C360.16 297.673 360.594 296.214 360.981 294.662C362.127 296.744 363.237 298.826 364.347 300.92C365.301 302.575 366.108 304.307 366.76 306.096C368.087 310.166 367.762 314.578 367.255 318.824C366.725 323.669 365.624 328.437 363.973 333.035C364.326 330.216 364.179 327.359 363.539 324.589V324.589Z"
    fill="black" />
  <path opacity="0.2"
    d="M248.789 303.072V288.202L227.076 275.802V260.932L205.363 248.52V233.662L183.662 221.262L89.8408 271.874L114.21 285.72V300.59L135.923 312.978V327.86L157.636 340.248V355.13L252.749 491.072C346.936 475.346 418.837 427.915 449.177 366.615C452.686 359.529 455.809 352.391 458.547 345.201L248.789 303.072Z"
    fill="#92E3A9" />
  <path opacity="0.15"
    d="M115.196 13.5464C51.5782 49.5801 0 146.15 0 229.292C0 278.694 18.2184 312.241 46.4008 323.772L58.0377 317.166L172.452 252.197L184.382 245.423C212.357 202.123 230.441 148.132 230.441 98.8861C230.392 15.7685 178.826 -22.4512 115.196 13.5464Z"
    fill="#92E3A9" />
  <path opacity="0.15"
    d="M115.354 37.6653C61.7978 68.0306 18.3828 149.438 18.3828 219.531C18.3828 289.624 61.7978 321.845 115.354 291.504C168.91 261.163 212.337 179.719 212.337 109.626C212.337 39.5331 168.922 7.31218 115.354 37.6653Z"
    fill="#92E3A9" />
  <path opacity="0.15"
    d="M114.685 54.5842C68.8175 80.7441 31.6304 150.903 31.6304 211.292C31.6304 271.68 68.8175 299.458 114.685 273.31C160.553 247.163 197.74 176.991 197.74 116.591C197.74 56.1907 160.565 28.4123 114.685 54.5842Z"
    fill="#92E3A9" />
  <path
    d="M65.8714 214.706C65.8714 162.217 98.2457 101.236 138.171 78.4914C155.773 68.4843 171.887 67.5581 184.415 74.1494L168.179 64.8879C155.492 57.6713 138.903 58.2726 120.8 68.5925C80.8509 91.3371 48.4888 152.318 48.4888 204.807C48.4888 233.542 58.1864 253.773 73.5197 262.481C76.1424 263.96 85.8888 269.529 89.8655 271.79C75.0933 262.757 65.8714 242.791 65.8714 214.706Z"
    fill="#92E3A9" />
  <path opacity="0.3"
    d="M65.8021 214.134C65.8021 161.839 98.0474 101.084 137.813 78.4232C155.345 68.4531 171.395 67.5304 183.873 74.0972L167.702 64.8701C155.066 57.6801 138.542 58.2793 120.512 68.561C80.7219 91.2214 48.4888 151.977 48.4888 204.272C48.4888 232.9 58.1478 253.056 73.42 261.732C76.0322 263.206 85.7398 268.754 89.7006 271.007C74.9873 262.007 65.8021 242.115 65.8021 214.134Z"
    fill="white" />
  <path
    d="M166.58 89.4971C172.887 97.7963 176.266 111.003 175.51 128.179C173.692 170.276 147.722 220.36 117.519 239.953C108.346 245.907 99.819 248.372 92.4756 247.711C101.649 259.739 117.019 261.459 134.901 249.852C165.117 230.258 191.087 180.211 192.904 138.065C194.149 108.742 183.39 90.9765 166.58 89.4971Z"
    fill="#92E3A9" />
  <path opacity="0.15"
    d="M166.58 89.4971C172.887 97.7963 176.266 111.003 175.51 128.179C173.692 170.276 147.722 220.36 117.519 239.953C108.346 245.907 99.819 248.372 92.4756 247.711C101.649 259.739 117.019 261.459 134.901 249.852C165.117 230.258 191.087 180.211 192.904 138.065C194.149 108.742 183.39 90.9765 166.58 89.4971Z"
    fill="black" />
  <path
    d="M84.2905 102.391L101.673 112.29L103.064 110.449L85.6811 100.526C85.2054 101.164 84.7541 101.729 84.2905 102.391Z"
    fill="#92E3A9" />
  <path
    d="M76.3122 159.716L58.8686 149.841C58.6247 150.502 58.3929 151.188 58.1611 151.861L75.5437 161.76C75.7877 161.063 76.0073 160.377 76.3122 159.716Z"
    fill="#92E3A9" />
  <path
    d="M155.602 60.5215L172.997 70.4565C173.704 70.5767 174.412 70.697 175.107 70.8414L157.712 60.9425C157.017 60.762 156.31 60.6297 155.602 60.5215Z"
    fill="#92E3A9" />
  <path
    d="M68.323 188.787C68.4572 188.041 68.6036 187.283 68.75 186.538L51.3674 176.639C51.2088 177.384 51.0624 178.13 50.9282 178.888L68.323 188.787Z"
    fill="#92E3A9" />
  <path
    d="M101.38 83.1455L118.763 93.0444C119.361 92.4791 119.983 91.9138 120.568 91.3725L103.149 81.4736C102.576 82.0149 101.929 82.5802 101.38 83.1455Z"
    fill="#92E3A9" />
  <path
    d="M68.4081 238.268C68.2496 237.607 68.1032 236.933 67.9568 236.26L67.8226 235.959L50.5254 226.108C50.684 226.878 50.8426 227.636 51.0255 228.382L68.4081 238.268Z"
    fill="#92E3A9" />
  <path
    d="M140.439 60.9668C139.707 61.1111 138.951 61.3036 138.207 61.484L155.602 71.3829C156.358 71.1904 157.114 71.0221 157.859 70.8777L140.439 60.9668Z"
    fill="#92E3A9" />
  <path
    d="M139.256 77.9146L121.873 68.0518C121.507 68.2562 121.153 68.4246 120.8 68.6291L119.738 69.2666L137.121 79.1655L138.17 78.528L139.256 77.9146Z"
    fill="#92E3A9" />
  <path
    d="M69.5547 125.785L86.9373 135.683L87.962 133.807L70.5793 123.908C70.2134 124.51 69.884 125.135 69.5547 125.785Z"
    fill="#92E3A9" />
  <path
    d="M75.7886 257.152C75.3982 256.491 75.0323 255.829 74.6541 255.144L57.2837 245.257C57.6496 245.942 58.04 246.604 58.4303 247.265L75.7886 257.152Z"
    fill="#92E3A9" />
  <path
    d="M48.4883 204.999L65.8709 214.91V214.705C65.8709 213.972 65.8709 213.214 65.8709 212.468L48.4761 202.569C48.4761 203.315 48.4761 204.073 48.4761 204.807L48.4883 204.999Z"
    fill="#92E3A9" />
  <path
    d="M137.872 78.5233C98.1122 101.353 65.8716 162.563 65.8716 215.25C65.8716 267.936 98.1122 292.166 137.872 269.349C177.632 246.531 209.897 185.321 209.897 132.622C209.897 79.9238 177.645 55.7055 137.872 78.5233ZM192.344 138.321C190.533 180.576 164.671 230.848 134.58 250.515C104.49 270.182 81.591 251.843 83.401 209.551C85.2111 167.26 111.098 117.024 141.164 97.3572C171.23 77.6903 194.166 96.0292 192.344 138.321Z"
    fill="#92E3A9" />
  <g opacity="0.15">
    <path
      d="M123.373 113.095C123.958 112.458 124.532 111.808 125.129 111.183L120.555 91.373C119.945 91.9143 119.335 92.4676 118.75 93.0329L123.373 113.095Z"
      fill="black" />
    <path
      d="M137.108 79.1162V100.357C137.816 99.816 138.523 99.2868 139.243 98.7816V77.9014L138.17 78.4907L137.108 79.1162Z"
      fill="black" />
    <path
      d="M151.808 91.9149C152.588 91.6142 153.369 91.3375 154.138 91.097L157.797 70.8662C157.053 71.0105 156.297 71.1789 155.54 71.3594L151.808 91.9149Z"
      fill="black" />
    <path
      d="M92.8656 165.007L93.6341 163.011L76.3125 159.703C76.0685 160.377 75.8245 161.05 75.5928 161.724L92.8656 165.007Z"
      fill="black" />
    <path d="M101.074 146.233L102.05 144.308L87.949 133.796L86.9365 135.684L101.074 146.233Z"
      fill="black" />
    <path
      d="M207.529 107.178L192.196 121.359C192.318 122.2 192.428 123.054 192.525 123.945L208.151 109.511C207.919 108.741 207.736 107.948 207.529 107.178Z"
      fill="black" />
    <path
      d="M83.9973 202.161L65.895 212.457C65.895 213.215 65.895 213.96 65.895 214.706V214.911L83.7778 204.735C83.8144 203.881 83.9119 203.015 83.9973 202.161Z"
      fill="black" />
    <path
      d="M86.9247 184.722C87.1077 183.964 87.3029 183.206 87.4858 182.437L68.737 186.514C68.5906 187.26 68.4442 188.017 68.3101 188.763L86.9247 184.722Z"
      fill="black" />
    <path
      d="M166.214 89.4849C166.958 89.5451 167.678 89.6292 168.385 89.7495L175.119 70.7817C174.411 70.6374 173.704 70.505 172.984 70.3848L166.214 89.4849Z"
      fill="black" />
    <path
      d="M187.487 105.266C187.829 105.976 188.158 106.721 188.475 107.479L201.04 90.7965C200.662 90.1229 200.259 89.4734 199.82 88.8359L187.487 105.266Z"
      fill="black" />
    <path
      d="M178.607 94.0912C179.181 94.5242 179.742 94.9813 180.291 95.4744L189.757 77.6011C189.183 77.1561 188.61 76.7351 188.012 76.3262L178.607 94.0912Z"
      fill="black" />
    <path d="M111.284 128.72L112.602 126.759L103.05 110.438L101.66 112.29L111.284 128.72Z"
      fill="black" />
    <path
      d="M153.345 233.59C152.772 234.251 152.125 234.889 151.601 235.514L156.175 255.384C156.785 254.843 157.395 254.254 157.98 253.688L153.345 233.59Z"
      fill="black" />
    <path
      d="M176.021 199.419C175.704 200.068 175.375 200.706 175.045 201.343L189.183 211.88L190.171 209.967L176.021 199.419Z"
      fill="black" />
    <path
      d="M165.701 217.437L164.384 219.409L173.959 235.767C174.423 235.153 174.899 234.564 175.35 233.927L165.701 217.437Z"
      fill="black" />
    <path
      d="M184.17 180.187C183.926 180.86 183.694 181.534 183.438 182.195L200.76 185.491C201.004 184.817 201.235 184.144 201.467 183.47L184.17 180.187Z"
      fill="black" />
    <path
      d="M189.891 160.232C189.732 160.99 189.574 161.748 189.391 162.493L208.054 158.464C208.188 157.706 208.31 156.961 208.444 156.215L189.891 160.232Z"
      fill="black" />
    <path
      d="M210.493 130.175L192.732 140.218C192.732 141.06 192.623 141.902 192.562 142.756L210.493 132.592V132.388C210.493 131.642 210.493 130.909 210.493 130.175Z"
      fill="black" />
    <path
      d="M139.243 267.965V246.748C138.536 247.289 137.816 247.819 137.108 248.324V269.204L138.17 268.603C138.523 268.398 138.889 268.17 139.243 267.965Z"
      fill="black" />
    <path
      d="M88.2793 240.578C87.95 239.845 87.6328 239.087 87.3279 238.293L74.6538 255.132C75.0198 255.817 75.4101 256.491 75.8005 257.141L88.2793 240.578Z"
      fill="black" />
    <path
      d="M96.9754 252.426C96.4143 251.969 95.8654 251.488 95.3287 250.971L85.814 268.916C86.3751 269.373 86.9484 269.806 87.5339 270.227L96.9754 252.426Z"
      fill="black" />
    <path
      d="M124.129 255.36C123.348 255.649 122.58 255.902 121.811 256.142L118.152 276.313C118.908 276.168 119.664 276.012 120.421 275.832L124.129 255.36Z"
      fill="black" />
    <path
      d="M109.43 257.562C108.698 257.49 107.991 257.381 107.283 257.249L100.623 276.133C101.331 276.301 102.038 276.433 102.746 276.554L109.43 257.562Z"
      fill="black" />
    <path
      d="M83.9602 223.943C83.8626 223.077 83.7772 222.187 83.704 221.285L67.8462 235.875C68.017 236.681 68.1878 237.475 68.3707 238.28L83.9602 223.943Z"
      fill="black" />
  </g>
  <path
    d="M157.688 354.89L75.0562 307.85V263.311L92.451 273.209L114.213 285.61V300.452L135.95 312.817V327.671L157.688 340.036V354.89Z"
    fill="#263238" />
  <path d="M92.4756 273.234L183.768 221.262L205.493 233.638L114.213 285.61L92.4756 273.234Z"
    fill="#455A64" />
  <path d="M114.213 285.61V300.452L205.493 248.48V233.638L114.213 285.61Z" fill="#37474F" />
  <path d="M114.213 300.453L205.493 248.48L227.23 260.857L135.95 312.817L114.213 300.453Z"
    fill="#455A64" />
  <path d="M135.951 312.817V327.671L227.231 275.699V260.856L135.951 312.817Z" fill="#37474F" />
  <path d="M135.951 327.216L226.684 275.699L248.291 287.967L157.558 339.473L135.951 327.216Z"
    fill="#455A64" />
  <path d="M157.688 340.035V354.89L248.968 302.918V288.075L157.688 340.035Z" fill="#37474F" />
  <path
    d="M183.829 133.001C182.011 175.098 156.029 225.182 125.826 244.788C114.603 252.064 104.381 254.121 96.0375 251.655C87.4987 243.97 82.6193 229.248 83.4732 209.053C85.303 166.956 111.285 116.872 141.476 97.2785C152.711 89.9897 162.957 87.945 171.289 90.4227C179.877 98.1205 184.707 112.794 183.829 133.001Z"
    fill="#92E3A9" />
  <path opacity="0.9"
    d="M183.133 132.904C181.328 174.907 155.526 224.88 125.532 244.441C114.387 251.702 104.236 253.754 95.9498 251.294C87.4701 243.625 82.6246 228.936 83.4725 208.786C85.2896 166.783 111.092 116.811 141.074 97.261C152.231 89.9884 162.406 87.9482 170.68 90.4204C179.208 98.1011 184.005 112.742 183.133 132.904Z"
    fill="white" />
  <path opacity="0.1"
    d="M125.383 222.933C116.023 224.007 107.361 228.372 100.971 235.236C97.5182 238.909 94.7031 243.123 92.6394 247.707C93.6359 248.999 94.7418 250.203 95.9453 251.308C97.7281 251.824 99.5643 252.138 101.419 252.244C101.903 251.044 102.266 249.784 102.69 248.571C104.784 242.926 108.516 238.022 113.416 234.474C118.316 230.926 124.165 228.895 130.227 228.634C134.38 228.526 138.497 229.271 142.627 229.595C144.261 227.806 145.86 225.994 147.47 224.025C140.156 223.653 132.612 222.213 125.383 222.933ZM123.591 161.466C132.067 162.558 141.319 163.026 148.73 158.729C157.122 153.856 161.106 144.194 165.15 135.444C168.916 127.318 174.063 118.736 182.285 115.591C180.577 104.224 176.484 95.6659 170.636 90.3846C166.646 89.2466 162.441 89.0696 158.369 89.8684C154.266 94.5246 151.278 100.039 149.626 106C147.688 112.722 147.01 119.864 143.898 126.117C140.729 132.405 135.35 137.327 128.774 139.957C123.591 141.997 117.96 142.489 112.45 143.329C108.607 143.892 104.808 144.718 101.08 145.802C98.2032 151.465 95.6403 157.279 93.4023 163.218C94.889 162.464 96.4362 161.834 98.0281 161.334C106.25 158.825 115.114 160.386 123.591 161.466ZM132.261 119.456C134.974 114.811 135.894 109.397 137.383 104.224C137.916 102.291 138.594 100.407 139.224 98.5226C137.286 99.8749 135.365 101.347 133.46 102.94C130.723 109.529 128.059 116.143 123.01 121.112C120.436 123.612 117.363 125.549 113.988 126.801C113.351 127.013 112.693 127.162 112.026 127.246C110.791 129.046 109.58 130.886 108.394 132.767C111.126 132.55 113.833 132.092 116.483 131.399C123.043 129.447 128.659 125.187 132.273 119.42L132.261 119.456ZM183.12 126.741C180.752 127.958 178.607 129.561 176.775 131.483C172.27 136.38 169.848 142.729 167.088 148.779C163.237 157.397 158.211 166.171 149.844 170.636C144.274 173.601 137.735 174.345 131.474 174.513C119.546 174.837 107.437 173.313 95.7757 175.845C93.2622 176.39 90.8055 177.165 88.4375 178.162C87.6302 181.035 86.9238 183.895 86.3184 186.744C89.0338 185.319 91.9067 184.212 94.8796 183.443C112.111 179.122 131.208 188.605 147.713 182.243C159.822 177.55 167.197 165.631 173.142 154.18C175.564 149.511 178.168 144.578 182.345 141.481C182.668 138.624 182.894 135.792 183.023 132.983C183.181 130.762 183.205 128.71 183.169 126.705L183.12 126.741ZM140.132 196.707C130.808 197.043 121.496 196.178 112.172 196.046C107.394 195.789 102.605 196.275 97.9796 197.487C93.9303 198.844 90.1217 200.825 86.6937 203.356C85.6402 204.1 84.6231 204.869 83.618 205.649C83.5453 206.717 83.4727 207.773 83.4242 208.818C82.9035 221.001 84.4656 231.167 87.6504 239.017C89.7088 237.246 91.5391 235.23 93.0996 233.015C99.5054 224.433 105.681 214.939 115.393 210.342C125.819 205.409 138.11 207.173 149.444 204.917C154.402 203.913 159.166 202.126 163.552 199.623C165.344 196.294 167.035 192.902 168.625 189.445C168.141 189.733 167.645 190.009 167.148 190.285C158.95 194.738 149.493 196.334 140.181 196.671L140.132 196.707Z"
    fill="#92E3A9" />
</svg>
  