<svg width="24" height="24" viewBox="0 0 24 24" fill="none">
  <path
    className="fill-strong-reservation-icon-right-profile"
    d="M4.15665 1C2.42907 1 1 2.35687 1 3.99721V18.7183C1 20.3586 2.42907 21.7155 4.15665 21.7155H15.1773C15.3212 21.716 15.4638 21.6895 15.5969 21.6374C15.7299 21.5854 15.8509 21.5089 15.9526 21.4122C16.0544 21.3156 16.135 21.2008 16.1899 21.0744C16.2447 20.9481 16.2726 20.8127 16.2721 20.676V10.3253V7.21487C16.2721 5.61464 15.6043 4.08115 14.4126 2.94962L14.2188 2.77366C13.027 1.64213 11.4141 1 9.72874 1H4.15665Z"
    fill="#382E6C" />
  <path
    className="fill-white-reservation-icon-right-profile"
    d="M6.46932 7.12531C6.32539 7.12478 6.18278 7.15131 6.0497 7.20336C5.91662 7.25541 5.7957 7.33196 5.69393 7.4286C5.59215 7.52523 5.51153 7.64004 5.45671 7.7664C5.40189 7.89276 5.37396 8.02817 5.37452 8.16483C5.37508 8.30081 5.40384 8.43536 5.45916 8.56078C5.51448 8.68621 5.59528 8.80006 5.69694 8.89584C5.79861 8.99162 5.91914 9.06744 6.05166 9.11899C6.18419 9.17053 6.32611 9.19679 6.46932 9.19626H10.8337C11.1215 9.19519 11.3971 9.08619 11.6006 8.89299C11.8041 8.69979 11.9189 8.43805 11.92 8.16483C11.9206 8.02885 11.8929 7.8941 11.8386 7.76827C11.7843 7.64243 11.7045 7.52798 11.6036 7.43145C11.5027 7.33492 11.3828 7.25821 11.2507 7.20568C11.1186 7.15315 10.9769 7.12584 10.8337 7.12531H6.46932ZM6.46932 11.2692C6.32539 11.2687 6.18278 11.2952 6.0497 11.3473C5.91662 11.3993 5.7957 11.4759 5.69393 11.5725C5.59215 11.6691 5.51153 11.784 5.45671 11.9103C5.40189 12.0367 5.37396 12.1721 5.37452 12.3087C5.37508 12.4447 5.40384 12.5793 5.45916 12.7047C5.51448 12.8301 5.59528 12.944 5.69694 13.0397C5.79861 13.1355 5.91914 13.2113 6.05166 13.2629C6.18419 13.3144 6.32611 13.3407 6.46932 13.3402H10.8337C11.1215 13.3391 11.3971 13.2301 11.6006 13.0369C11.8041 12.8437 11.9189 12.582 11.92 12.3087C11.9206 12.1728 11.8929 12.038 11.8386 11.9122C11.7843 11.7863 11.7045 11.6719 11.6036 11.5754C11.5027 11.4788 11.3828 11.4021 11.2507 11.3496C11.1186 11.2971 10.9769 11.2698 10.8337 11.2692H6.46932Z"
    fill="#FAFAFA" />
  <circle className="fill-medium-reservation-icon-right-profile" cx="15.875" cy="15.8748" r="6.125"
    fill="#382E6C" />
  <path
    className="fill-strong-reservation-icon-right-profile"
    d="M21.7423 14.117C22.2085 15.6731 22.0375 17.3506 21.2669 18.7807C20.4963 20.2107 19.1891 21.276 17.633 21.7423C16.0769 22.2085 14.3994 22.0375 12.9693 21.2669C11.5393 20.4963 10.474 19.1891 10.0077 17.633L15.875 15.875L21.7423 14.117Z"
    fill="#382E6C" />
  <path
    className="fill-white-reservation-icon-right-profile"
    d="M15.2113 13.2497C14.9234 13.2506 14.6475 13.3597 14.4439 13.553C14.2403 13.7463 14.1255 14.0082 14.1245 14.2816V16.3531C14.124 16.4891 14.1516 16.6239 14.206 16.7497C14.2603 16.8756 14.3402 16.9901 14.4411 17.0866C14.542 17.1831 14.662 17.2598 14.7942 17.3124C14.9263 17.3649 15.0681 17.3921 15.2113 17.3926H17.393C17.5369 17.3931 17.6795 17.3666 17.8126 17.3146C17.9457 17.2625 18.0666 17.186 18.1684 17.0893C18.2702 16.9927 18.3508 16.8779 18.4056 16.7515C18.4605 16.6252 18.4884 16.4897 18.4878 16.3531C18.4873 16.217 18.4586 16.0824 18.4033 15.957C18.348 15.8315 18.2672 15.7176 18.1656 15.6217C18.0639 15.5259 17.9433 15.45 17.8108 15.3985C17.6782 15.3469 17.5362 15.3206 17.393 15.3212H16.3062V14.2816C16.3057 14.1456 16.277 14.011 16.2217 13.8855C16.1664 13.76 16.0856 13.6461 15.9839 13.5503C15.8822 13.4545 15.7617 13.3786 15.6291 13.327C15.4965 13.2754 15.3546 13.2492 15.2113 13.2497Z"
    fill="#FAFAFA" />
</svg>
  