<svg width="175" height="31" viewBox="0 0 175 31" fill="none" xmlns="http://www.w3.org/2000/svg">
<path d="M11.0883 17.0547C11.0883 17.4531 10.9594 17.8633 10.7016 18.2852C10.4438 18.707 10.1039 19.1172 9.68204 19.5156C9.26797 19.9062 8.79922 20.2773 8.27579 20.6289C7.76016 20.9805 7.23672 21.293 6.70547 21.5664C6.18204 21.832 5.67813 22.043 5.19376 22.1992C4.70938 22.3633 4.29922 22.4492 3.96329 22.457C3.64297 22.4727 3.29922 22.4453 2.93204 22.375C2.56485 22.3047 2.21329 22.2148 1.87735 22.1055C1.54922 22.0039 1.25235 21.8945 0.986725 21.7773C0.728912 21.6523 0.553131 21.543 0.459381 21.4492C0.404694 21.3867 0.357819 21.3203 0.318756 21.25C0.287506 21.1719 0.271881 21.0898 0.271881 21.0039C0.271881 20.9102 0.295319 20.8164 0.342194 20.7227C0.396881 20.6211 0.482819 20.5195 0.600006 20.418C0.709381 20.332 0.8461 20.2227 1.01016 20.0898C1.15079 19.9805 1.33047 19.8398 1.54922 19.668C1.76797 19.4883 2.03751 19.2734 2.35782 19.0234C2.24063 19.1406 2.16641 19.25 2.13516 19.3516C2.10391 19.4531 2.09219 19.5469 2.10001 19.6328C2.10782 19.7266 2.13907 19.8125 2.19376 19.8906C2.27188 19.9922 2.4086 20.1055 2.60391 20.2305C2.79922 20.3555 3.0336 20.4727 3.30704 20.582C3.58829 20.6836 3.90079 20.7695 4.24454 20.8398C4.5961 20.9102 4.95938 20.9453 5.33438 20.9453C5.79532 20.9453 6.25235 20.9023 6.70547 20.8164C7.1586 20.7227 7.56485 20.5703 7.92422 20.3594C8.29141 20.1484 8.58438 19.8711 8.80313 19.5273C9.02969 19.1758 9.14297 18.7422 9.14297 18.2266C9.14297 17.75 9.02969 17.332 8.80313 16.9727C8.58438 16.6055 8.29532 16.2773 7.93594 15.9883C7.57657 15.6992 7.16251 15.4375 6.69376 15.2031C6.23282 14.9609 5.76016 14.7227 5.27579 14.4883C4.79922 14.2539 4.32657 14.0156 3.85782 13.7734C3.39688 13.5312 2.98672 13.2617 2.62735 12.9648C2.26797 12.6602 1.97501 12.3203 1.74844 11.9453C1.52969 11.5625 1.42032 11.1211 1.42032 10.6211C1.42032 10.1367 1.53751 9.66406 1.77188 9.20312C2.01407 8.73438 2.33047 8.29688 2.7211 7.89062C3.11172 7.47656 3.55704 7.09375 4.05704 6.74219C4.56485 6.39062 5.08438 6.08984 5.61563 5.83984C6.14688 5.58203 6.66641 5.38281 7.17422 5.24219C7.68985 5.09375 8.15469 5.01562 8.56876 5.00781C8.96719 5 9.35001 5.01953 9.71719 5.06641C10.0844 5.10547 10.393 5.16797 10.643 5.25391C10.893 5.33984 11.0648 5.44922 11.1586 5.58203C11.2523 5.70703 11.2289 5.85156 11.0883 6.01562C10.9711 6.14844 10.8266 6.28906 10.6547 6.4375C10.4984 6.57031 10.307 6.71875 10.0805 6.88281C9.85391 7.04688 9.57657 7.22266 9.24844 7.41016C9.31094 7.31641 9.3461 7.23438 9.35391 7.16406C9.36172 7.08594 9.35782 7.02344 9.34219 6.97656C9.31876 6.92188 9.28751 6.875 9.24844 6.83594C9.19376 6.78906 9.0961 6.73828 8.95547 6.68359C8.82266 6.62891 8.65469 6.57422 8.45157 6.51953C8.24844 6.46484 8.01797 6.42188 7.76016 6.39062C7.50235 6.35156 7.22891 6.33203 6.93985 6.33203C6.4711 6.33203 6.01797 6.39062 5.58047 6.50781C5.15079 6.61719 4.76797 6.78906 4.43204 7.02344C4.10391 7.25781 3.83829 7.55469 3.63516 7.91406C3.43985 8.27344 3.34219 8.69531 3.34219 9.17969C3.34219 9.71094 3.45157 10.1758 3.67032 10.5742C3.89688 10.9727 4.18985 11.3281 4.54922 11.6406C4.91641 11.9453 5.33047 12.2227 5.79141 12.4727C6.26016 12.7227 6.73282 12.9648 7.20938 13.1992C7.69376 13.4258 8.16641 13.6602 8.62735 13.9023C9.0961 14.1445 9.51016 14.4141 9.86954 14.7109C10.2367 15.0078 10.5297 15.3477 10.7484 15.7305C10.975 16.1055 11.0883 16.5469 11.0883 17.0547ZM18.7359 18.3555L18.4781 19.3164C18.3453 19.4492 18.1813 19.6172 17.9859 19.8203C17.7984 20.0156 17.5875 20.2266 17.3531 20.4531C17.1266 20.6719 16.8883 20.8906 16.6383 21.1094C16.3883 21.3281 16.1422 21.5234 15.9 21.6953C15.6578 21.8672 15.4234 22 15.1969 22.0938C14.9781 22.1953 14.7828 22.2344 14.6109 22.2109C14.3453 22.1719 14.1539 21.9805 14.0367 21.6367C13.9274 21.2852 13.8727 20.7188 13.8727 19.9375C13.8727 19.7969 13.8766 19.5703 13.8844 19.2578C13.9 18.9375 13.9156 18.5664 13.9313 18.1445C13.9547 17.7227 13.9781 17.2617 14.0016 16.7617C14.0328 16.2539 14.0641 15.7461 14.0953 15.2383C14.1266 14.7227 14.1578 14.2188 14.1891 13.7266C14.2281 13.2266 14.2672 12.7695 14.3063 12.3555C14.3297 12.082 14.275 11.8867 14.1422 11.7695C14.0094 11.6445 13.8453 11.582 13.65 11.582C13.4859 11.582 13.3141 11.6211 13.1344 11.6992C12.9547 11.7773 12.7906 11.8828 12.6422 12.0156C12.9547 11.7109 13.232 11.457 13.4742 11.2539C13.7164 11.043 13.9234 10.8711 14.0953 10.7383C14.2984 10.5898 14.4703 10.4648 14.6109 10.3633C14.8063 10.2461 14.9938 10.1875 15.1734 10.1875C15.3609 10.1797 15.525 10.2227 15.6656 10.3164C15.8141 10.4102 15.9274 10.5469 16.0055 10.7266C16.0914 10.9062 16.1305 11.1211 16.1227 11.3711C16.1149 11.543 16.0953 11.8203 16.0641 12.2031C16.0406 12.5781 16.0094 13.0078 15.9703 13.4922C15.9391 13.9766 15.9 14.4883 15.8531 15.0273C15.8141 15.5664 15.775 16.0859 15.7359 16.5859C15.7047 17.0859 15.6734 17.5391 15.6422 17.9453C15.6188 18.3516 15.6031 18.6641 15.5953 18.8828C15.5797 19.3281 15.6266 19.6875 15.7359 19.9609C15.8531 20.2344 16.0367 20.3711 16.2867 20.3711C16.4742 20.3711 16.6891 20.2891 16.9313 20.125C17.1813 19.9609 17.4274 19.7695 17.6695 19.5508C17.9117 19.332 18.1266 19.1094 18.3141 18.8828C18.5094 18.6562 18.65 18.4805 18.7359 18.3555ZM16.7438 1.07031C16.7594 1.45313 16.7477 1.79688 16.7086 2.10156C16.6774 2.39844 16.6383 2.65234 16.5914 2.86328C16.5367 3.11328 16.4703 3.33203 16.3922 3.51953C16.2984 3.70703 16.1539 3.91016 15.9586 4.12891C15.7945 4.31641 15.568 4.53516 15.2789 4.78516C14.9977 5.02734 14.6305 5.28516 14.1774 5.55859C14.3258 5.26172 14.443 4.94922 14.5289 4.62109C14.6149 4.28516 14.6813 3.97656 14.7281 3.69531C14.7828 3.36719 14.818 3.04297 14.8336 2.72266L16.7438 1.07031ZM28.3992 9.73047C28.3524 9.94922 28.3016 10.2461 28.2469 10.6211C28.2 10.9961 28.1531 11.418 28.1063 11.8867C28.0672 12.3555 28.0242 12.8555 27.9774 13.3867C27.9305 13.918 27.8875 14.4531 27.8484 14.9922C27.8172 15.5234 27.7859 16.043 27.7547 16.5508C27.7234 17.0508 27.6961 17.5078 27.6727 17.9219C27.6492 18.3359 27.6297 18.6875 27.6141 18.9766C27.6063 19.2656 27.6024 19.4648 27.6024 19.5742C27.6024 20.3633 27.5477 21.1875 27.4383 22.0469C27.3367 22.9062 27.1649 23.75 26.9227 24.5781C26.6883 25.4141 26.3758 26.207 25.9852 26.957C25.5945 27.7148 25.118 28.3789 24.5555 28.9492C23.993 29.5195 23.3328 29.9727 22.575 30.3086C21.8172 30.6445 20.95 30.8125 19.9734 30.8125C19.5203 30.8125 19.0594 30.7383 18.5906 30.5898C18.1219 30.4414 17.6961 30.2266 17.3133 29.9453C16.9227 29.6719 16.6063 29.3398 16.3641 28.9492C16.1141 28.5664 15.9891 28.1367 15.9891 27.6602C15.9891 27.3008 16.0672 26.9492 16.2234 26.6055C16.3719 26.2617 16.5789 25.9297 16.8445 25.6094C17.1024 25.2891 17.3992 24.9805 17.7352 24.6836C18.0711 24.3867 18.4227 24.1016 18.7899 23.8281C19.1649 23.5547 19.5359 23.293 19.9031 23.043C20.2781 22.793 20.6297 22.5586 20.9578 22.3398C20.8094 22.332 20.6375 22.2617 20.4422 22.1289C20.2547 22.0039 20.0789 21.7812 19.9149 21.4609C19.7508 21.1406 19.6102 20.707 19.493 20.1602C19.3836 19.6133 19.3367 18.9141 19.3524 18.0625C19.3602 17.1641 19.4539 16.375 19.6336 15.6953C19.8211 15.0078 20.0594 14.4102 20.3484 13.9023C20.6375 13.3867 20.9617 12.9453 21.3211 12.5781C21.6805 12.2031 22.0399 11.8789 22.3992 11.6055C23.1102 11.0508 23.8016 10.6094 24.4734 10.2812C25.1531 9.94531 25.8133 9.76172 26.4539 9.73047C26.6492 9.72266 26.8445 9.73047 27.0399 9.75391C27.2039 9.76953 27.3758 9.79688 27.5555 9.83594C27.743 9.875 27.9109 9.92969 28.0594 10L28.3992 9.73047ZM24.7664 19.1641C24.2586 19.7812 23.7781 20.3086 23.325 20.7461C22.8797 21.1758 22.4734 21.5234 22.1063 21.7891C21.8641 21.9688 21.5945 22.1641 21.2977 22.375C21.0008 22.5859 20.7 22.8086 20.3953 23.043C20.0984 23.2852 19.8055 23.5352 19.5164 23.793C19.2274 24.0586 18.9695 24.332 18.743 24.6133C18.5242 24.8945 18.3484 25.1797 18.2156 25.4688C18.075 25.7656 18.0047 26.0664 18.0047 26.3711C18.0047 26.7383 18.0711 27.0625 18.2039 27.3438C18.3367 27.625 18.5164 27.875 18.743 28.0938C18.9695 28.3125 19.2274 28.4961 19.5164 28.6445C19.8133 28.793 20.1219 28.9141 20.4422 29.0078C20.7625 29.1016 21.0828 29.168 21.4031 29.207C21.7313 29.2539 22.0399 29.2773 22.3289 29.2773C22.9852 29.2773 23.5203 29.1055 23.9344 28.7617C24.3563 28.418 24.6883 27.9531 24.9305 27.3672C25.1727 26.7812 25.3445 26.0977 25.4461 25.3164C25.5555 24.543 25.6297 23.7266 25.6688 22.8672C25.7078 22.0078 25.7352 21.1289 25.7508 20.2305C25.7664 19.3242 25.8016 18.457 25.8563 17.6289C25.7078 17.8477 25.5672 18.0508 25.4344 18.2383C25.3094 18.4258 25.1961 18.5859 25.0945 18.7188C24.9774 18.8828 24.868 19.0312 24.7664 19.1641ZM24.6492 11.3945C24.157 11.3945 23.7274 11.4805 23.3602 11.6523C22.993 11.8242 22.6805 12.0547 22.4227 12.3438C22.1649 12.625 21.95 12.9531 21.7781 13.3281C21.6063 13.7031 21.4734 14.0938 21.3797 14.5C21.2859 14.9062 21.2195 15.3203 21.1805 15.7422C21.1414 16.1562 21.1219 16.5469 21.1219 16.9141C21.1219 17.0625 21.1297 17.25 21.1453 17.4766C21.1609 17.7031 21.1883 17.9453 21.2274 18.2031C21.2742 18.4609 21.3328 18.7227 21.4031 18.9883C21.4734 19.2461 21.5594 19.4805 21.6609 19.6914C21.7703 19.8945 21.8953 20.0625 22.0359 20.1953C22.1844 20.3281 22.3524 20.3945 22.5399 20.3945C22.743 20.3945 22.9891 20.2852 23.2781 20.0664C23.5672 19.8398 23.9227 19.4609 24.3445 18.9297C24.532 18.6797 24.7234 18.3789 24.9188 18.0273C25.0828 17.7305 25.2625 17.3633 25.4578 16.9258C25.6531 16.4883 25.8406 15.9805 26.0203 15.4023C26.0438 15.1133 26.0672 14.8008 26.0906 14.4648C26.1219 14.1211 26.1531 13.7773 26.1844 13.4336C26.2156 13.0898 26.2469 12.7578 26.2781 12.4375C26.3172 12.1094 26.3524 11.8086 26.3836 11.5352C25.657 11.4414 25.0789 11.3945 24.6492 11.3945ZM34.0664 10.457C34.1211 10.5977 34.1562 10.8047 34.1719 11.0781C34.1875 11.3516 34.1953 11.6641 34.1953 12.0156C34.1953 12.2656 34.1914 12.5312 34.1836 12.8125C34.1758 13.0938 34.1641 13.3789 34.1484 13.668C34.375 13.3398 34.6211 13.0039 34.8867 12.6602C35.1523 12.3086 35.4297 11.9766 35.7188 11.6641C36.0156 11.3438 36.3242 11.0508 36.6445 10.7852C36.9648 10.5195 37.293 10.3047 37.6289 10.1406C37.9727 9.96875 38.3203 9.85938 38.6719 9.8125C39.0312 9.75781 39.3945 9.78906 39.7617 9.90625C39.9648 9.96875 40.1289 10.0625 40.2539 10.1875C40.3867 10.3125 40.4922 10.4688 40.5703 10.6562C40.6484 10.8359 40.6992 11.043 40.7227 11.2773C40.7539 11.5117 40.7695 11.7656 40.7695 12.0391C40.7695 12.6484 40.7461 13.25 40.6992 13.8438C40.6523 14.4375 40.5977 15.0273 40.5352 15.6133C40.4805 16.1914 40.4297 16.7695 40.3828 17.3477C40.3359 17.9258 40.3125 18.5 40.3125 19.0703C40.3125 19.4609 40.3438 19.7695 40.4062 19.9961C40.4766 20.2227 40.5977 20.3555 40.7695 20.3945C40.9414 20.3867 41.1328 20.3125 41.3438 20.1719C41.5234 20.0625 41.7383 19.8828 41.9883 19.6328C42.2383 19.3828 42.5117 19.0273 42.8086 18.5664L42.7148 19.457C42.5039 19.6914 42.2578 19.9727 41.9766 20.3008C41.7031 20.6289 41.4141 20.9414 41.1094 21.2383C40.8125 21.5273 40.5078 21.7695 40.1953 21.9648C39.8906 22.1602 39.6016 22.2422 39.3281 22.2109C39.0312 22.1719 38.7891 22.0039 38.6016 21.707C38.4141 21.4023 38.3203 20.9258 38.3203 20.2773C38.3203 19.957 38.332 19.582 38.3555 19.1523C38.3789 18.7148 38.4102 18.2578 38.4492 17.7812C38.4883 17.3047 38.5273 16.8203 38.5664 16.3281C38.6133 15.8359 38.6562 15.3672 38.6953 14.9219C38.7422 14.4766 38.7812 14.0703 38.8125 13.7031C38.8516 13.3281 38.8789 13.0234 38.8945 12.7891C38.9102 12.5547 38.8867 12.3438 38.8242 12.1562C38.7695 11.9609 38.6797 11.793 38.5547 11.6523C38.4375 11.5117 38.2969 11.4062 38.1328 11.3359C37.9688 11.2578 37.7891 11.2188 37.5938 11.2188C37.3828 11.2188 37.1602 11.2734 36.9258 11.3828C36.6914 11.4844 36.4531 11.6484 36.2109 11.875C36.0938 11.9922 35.9492 12.1562 35.7773 12.3672C35.6133 12.5703 35.4336 12.8398 35.2383 13.1758C35.043 13.5039 34.8359 13.8984 34.6172 14.3594C34.4062 14.8203 34.1992 15.3594 33.9961 15.9766C33.9805 16.1562 33.9688 16.332 33.9609 16.5039C33.9531 16.6758 33.9492 16.8359 33.9492 16.9844C33.9336 17.3594 33.9102 17.7578 33.8789 18.1797C33.8555 18.5391 33.8281 18.9453 33.7969 19.3984C33.7656 19.8516 33.7305 20.3125 33.6914 20.7812L31.8398 22.4102C31.9258 20.5117 32 18.9453 32.0625 17.7109C32.1328 16.4688 32.1875 15.4883 32.2266 14.7695C32.2734 13.9258 32.3125 13.2812 32.3438 12.8359C32.3672 12.3125 32.2969 11.9414 32.1328 11.7227C31.9688 11.5039 31.7656 11.3945 31.5234 11.3945C31.3359 11.3945 31.1328 11.4531 30.9141 11.5703C30.7031 11.6875 30.5 11.8359 30.3047 12.0156C30.5 11.7969 30.7148 11.5625 30.9492 11.3125C31.1914 11.0625 31.4453 10.832 31.7109 10.6211C31.9766 10.4102 32.2461 10.2344 32.5195 10.0938C32.8008 9.95312 33.0781 9.88281 33.3516 9.88281C33.5234 9.88281 33.668 9.92969 33.7852 10.0234C33.9102 10.1094 34.0039 10.2539 34.0664 10.457ZM55.1086 18.9531C55.0383 19.0625 54.9406 19.1953 54.8156 19.3516C54.6906 19.5 54.5656 19.6484 54.4406 19.7969C54.3 19.9688 54.1477 20.1445 53.9836 20.3242C53.7805 20.5742 53.5617 20.8164 53.3273 21.0508C53.093 21.2852 52.8586 21.4961 52.6242 21.6836C52.3977 21.8633 52.175 22.0078 51.9563 22.1172C51.7375 22.2266 51.5422 22.2773 51.3703 22.2695C51.0422 22.2539 50.8156 22.0547 50.6906 21.6719C50.5656 21.2812 50.5031 20.7188 50.5031 19.9844C50.5031 19.5938 50.5148 19.1719 50.5383 18.7188C50.5617 18.2656 50.5969 17.7578 50.6438 17.1953C50.4719 17.4688 50.3078 17.7188 50.1516 17.9453C49.9953 18.1719 49.8547 18.3711 49.7297 18.543C49.5891 18.7461 49.4484 18.9297 49.3078 19.0938C48.8938 19.6016 48.4914 20.0508 48.1008 20.4414C47.718 20.832 47.3625 21.1602 47.0344 21.4258C46.7141 21.6914 46.4289 21.8945 46.1789 22.0352C45.9367 22.1758 45.7453 22.2539 45.6047 22.2695C45.4641 22.2852 45.2922 22.2383 45.0891 22.1289C44.8938 22.0195 44.7063 21.8086 44.5266 21.4961C44.3469 21.1836 44.1906 20.7461 44.0578 20.1836C43.9328 19.6211 43.8742 18.8906 43.882 17.9922C43.8898 17.0938 43.9836 16.3047 44.1633 15.625C44.3508 14.9375 44.5891 14.3398 44.8781 13.832C45.175 13.3164 45.5031 12.875 45.8625 12.5078C46.2219 12.1328 46.5773 11.8086 46.9289 11.5352C47.6555 10.9805 48.3508 10.5391 49.0148 10.2109C49.6867 9.875 50.343 9.69922 50.9836 9.68359C51.1945 9.67578 51.4016 9.67969 51.6047 9.69531C51.7844 9.71094 51.9758 9.73828 52.1789 9.77734C52.3898 9.80859 52.5891 9.85938 52.7766 9.92969L53.1164 9.66016C53.0695 9.87891 53.0188 10.1758 52.9641 10.5508C52.9172 10.9258 52.8703 11.3477 52.8234 11.8164C52.7766 12.2852 52.7297 12.7852 52.6828 13.3164C52.6359 13.8477 52.593 14.3828 52.5539 14.9219C52.5227 15.4531 52.4914 15.9727 52.4602 16.4805C52.4289 16.9805 52.4016 17.4375 52.3781 17.8516C52.3625 18.2656 52.3508 18.6172 52.343 18.9062C52.343 19.1953 52.3469 19.3945 52.3547 19.5039C52.3938 19.9492 52.4953 20.2539 52.6594 20.418C52.8313 20.582 53.0656 20.5664 53.3625 20.3711C53.4797 20.2773 53.6242 20.1289 53.7961 19.9258C53.9445 19.7539 54.1242 19.5195 54.3352 19.2227C54.5539 18.918 54.8117 18.5234 55.1086 18.0391V18.9531ZM51.1008 11.4883C50.3586 11.3945 49.7492 11.3477 49.2727 11.3477C48.7648 11.3477 48.3234 11.4297 47.9484 11.5938C47.5734 11.7578 47.2531 11.9805 46.9875 12.2617C46.7219 12.5352 46.5031 12.8555 46.3313 13.2227C46.1594 13.582 46.0227 13.9648 45.9211 14.3711C45.8273 14.7773 45.7609 15.1914 45.7219 15.6133C45.6906 16.0352 45.675 16.4375 45.675 16.8203C45.675 16.9531 45.6828 17.1328 45.6984 17.3594C45.7141 17.5859 45.7414 17.8281 45.7805 18.0859C45.8273 18.3438 45.882 18.6055 45.9445 18.8711C46.0148 19.1367 46.1008 19.3789 46.2023 19.5977C46.3117 19.8086 46.4367 19.9844 46.5773 20.125C46.718 20.2578 46.882 20.3242 47.0695 20.3242C47.2727 20.3242 47.5188 20.2148 47.8078 19.9961C48.1047 19.7695 48.4602 19.3906 48.8742 18.8594C49.1164 18.5312 49.3586 18.1367 49.6008 17.6758C49.8039 17.2852 50.0188 16.8047 50.2453 16.2344C50.4797 15.6641 50.6867 15 50.8664 14.2422L51.1008 11.4883ZM63.0492 18.1094L62.8031 19.3164C62.6234 19.4648 62.4125 19.6523 62.1703 19.8789C61.9359 20.0977 61.6781 20.3281 61.3969 20.5703C61.1234 20.8125 60.8383 21.0508 60.5414 21.2852C60.2445 21.5117 59.9477 21.707 59.6508 21.8711C59.3539 22.0273 59.0609 22.1367 58.7719 22.1992C58.4906 22.2695 58.2289 22.2578 57.9867 22.1641C57.8305 22.1094 57.6938 22.0273 57.5766 21.918C57.4672 21.8086 57.3734 21.6523 57.2953 21.4492C57.225 21.2461 57.1703 20.9883 57.1313 20.6758C57.0922 20.3555 57.0727 19.9648 57.0727 19.5039C57.0727 18.1133 57.1 16.7656 57.1547 15.4609C57.2172 14.1484 57.2914 12.8477 57.3773 11.5586C57.0492 11.582 56.725 11.625 56.4047 11.6875C56.0922 11.7422 55.85 11.8359 55.6781 11.9688C56.1703 11.5312 56.557 11.1289 56.8383 10.7617C57.1195 10.3867 57.3344 10.0547 57.4828 9.76562L57.6234 7.62109L59.6391 5.94531L59.393 10.1406C59.5648 10.1562 59.725 10.1641 59.8734 10.1641C60.0219 10.1641 60.1664 10.1641 60.307 10.1641C60.9867 10.1641 61.6156 10.1055 62.1938 9.98828C62.7797 9.86328 63.3422 9.69922 63.8813 9.49609C63.3813 9.89453 62.9008 10.2188 62.4398 10.4688C61.9867 10.7188 61.5648 10.9219 61.1742 11.0781C60.7836 11.2266 60.4281 11.3359 60.1078 11.4062C59.7875 11.4688 59.518 11.5117 59.2992 11.5352C59.2211 12.9414 59.1586 14.082 59.1117 14.957C59.0727 15.8242 59.0414 16.4961 59.018 16.9727C58.9867 17.5352 58.9711 17.9453 58.9711 18.2031C58.9477 18.5859 58.9711 18.9258 59.0414 19.2227C59.1117 19.5195 59.2172 19.7656 59.3578 19.9609C59.5063 20.1562 59.682 20.293 59.8852 20.3711C60.0961 20.4492 60.3266 20.457 60.5766 20.3945C60.7719 20.332 60.9984 20.207 61.2563 20.0195C61.475 19.8633 61.7328 19.6367 62.0297 19.3398C62.3344 19.0352 62.6742 18.625 63.0492 18.1094ZM55.6781 11.9688L55.6078 12.0156L55.6781 11.9688ZM77.2008 18.9766C76.8258 19.3047 76.5172 19.582 76.275 19.8086C76.0328 20.0273 75.8336 20.2031 75.6774 20.3359C75.4977 20.4922 75.357 20.6211 75.2555 20.7227C75.1383 20.8398 74.9781 20.9883 74.775 21.168C74.5797 21.3398 74.3649 21.5078 74.1305 21.6719C73.9039 21.8359 73.6695 21.9727 73.4274 22.082C73.193 22.1992 72.9781 22.25 72.7828 22.2344C72.4625 22.2188 72.2281 21.9375 72.0797 21.3906C71.9391 20.8359 71.8688 20.0859 71.8688 19.1406V18.0156C71.5953 18.3828 71.3336 18.7148 71.0836 19.0117C70.8414 19.3008 70.6266 19.5469 70.4391 19.75C70.2203 19.9922 70.0172 20.207 69.8297 20.3945C69.4391 20.7773 69.0758 21.0977 68.7399 21.3555C68.4039 21.6055 68.0953 21.8008 67.8141 21.9414C67.5328 22.082 67.2828 22.1719 67.0641 22.2109C66.8453 22.2578 66.6539 22.2656 66.4899 22.2344C66.3336 22.2031 66.1891 22.1289 66.0563 22.0117C65.9234 21.8945 65.8102 21.7109 65.7164 21.4609C65.6227 21.2109 65.5484 20.8867 65.4938 20.4883C65.4469 20.082 65.4274 19.5781 65.4352 18.9766C65.443 18.375 65.4586 17.7773 65.482 17.1836C65.5133 16.582 65.5406 16.0117 65.5641 15.4727C65.5953 14.9336 65.6266 14.4414 65.6578 13.9961C65.6969 13.543 65.7281 13.1641 65.7516 12.8594C65.775 12.4688 65.732 12.1562 65.6227 11.9219C65.5211 11.6797 65.3375 11.5586 65.0719 11.5586C64.9156 11.5586 64.7399 11.6055 64.5445 11.6992C64.3492 11.7852 64.1266 11.9297 63.8766 12.1328C64.0641 11.9531 64.2828 11.7383 64.5328 11.4883C64.7828 11.2305 65.0445 10.9844 65.318 10.75C65.5992 10.5156 65.8805 10.3164 66.1617 10.1523C66.443 9.98828 66.7047 9.90625 66.9469 9.90625C67.1344 9.90625 67.275 9.95703 67.3688 10.0586C67.4703 10.1523 67.5406 10.2695 67.5797 10.4102C67.6266 10.5508 67.65 10.7031 67.65 10.8672C67.6578 11.0234 67.6617 11.1602 67.6617 11.2773C67.6617 11.8398 67.6422 12.3984 67.6031 12.9531C67.5641 13.5 67.5211 14.0469 67.4742 14.5938C67.4274 15.1328 67.3844 15.6719 67.3453 16.2109C67.3063 16.75 67.2867 17.2891 67.2867 17.8281C67.2867 18.2031 67.3024 18.5664 67.3336 18.918C67.3727 19.2617 67.4391 19.5625 67.5328 19.8203C67.6266 20.0781 67.7516 20.2812 67.9078 20.4297C68.0719 20.5703 68.2789 20.6289 68.5289 20.6055C68.857 20.5742 69.1813 20.4375 69.5016 20.1953C69.8297 19.9531 70.1383 19.6406 70.4274 19.2578C70.7164 18.8672 70.9781 18.4258 71.2125 17.9336C71.4469 17.4414 71.6344 16.9336 71.775 16.4102C71.7906 16.3477 71.8102 16.2734 71.8336 16.1875C71.8492 16.1172 71.8688 16.0391 71.8922 15.9531C71.9234 15.8672 71.9547 15.7695 71.9859 15.6602C72.0328 14.9023 72.0953 14.1562 72.1734 13.4219C72.2594 12.6875 72.357 11.9531 72.4664 11.2188L74.7516 9.58984C74.4625 11.0195 74.232 12.3906 74.0602 13.7031C73.8961 15.0156 73.8141 16.3242 73.8141 17.6289C73.8141 18.2461 73.8414 18.7461 73.8961 19.1289C73.9586 19.5117 74.0406 19.8047 74.1422 20.0078C74.2516 20.2109 74.3805 20.3359 74.5289 20.3828C74.6774 20.4297 74.8375 20.4258 75.0094 20.3711C75.1656 20.3008 75.3492 20.168 75.5602 19.9727C75.7399 19.8086 75.9664 19.5703 76.2399 19.2578C76.5133 18.9453 76.8336 18.5234 77.2008 17.9922V18.9766ZM63.8766 12.1328L63.8063 12.1797L63.8766 12.1328ZM81.0984 15.4961C81.0594 15.9414 81.0242 16.4414 80.993 16.9961C80.9617 17.4727 80.9266 18.0391 80.8875 18.6953C80.8484 19.3438 80.8055 20.0625 80.7586 20.8516L78.7899 22.5273C78.9617 20.9336 79.1102 19.4141 79.2352 17.9688C79.368 16.5234 79.4344 15.0977 79.4344 13.6914C79.4344 12.9805 79.3367 12.457 79.1414 12.1211C78.9461 11.7773 78.6844 11.6055 78.3563 11.6055C78.0125 11.6055 77.6141 11.7812 77.1609 12.1328C77.2625 12.0391 77.3836 11.9219 77.5242 11.7812C77.6727 11.6328 77.8289 11.4766 77.993 11.3125C78.1649 11.1484 78.3406 10.9844 78.5203 10.8203C78.7078 10.6562 78.8875 10.5078 79.0594 10.375C79.2391 10.2422 79.4109 10.1367 79.575 10.0586C79.7391 9.97266 79.8836 9.92969 80.0086 9.92969C80.3133 9.92969 80.5477 10.0156 80.7117 10.1875C80.8758 10.3594 80.9969 10.5703 81.075 10.8203C81.1531 11.0703 81.2 11.332 81.2156 11.6055C81.2313 11.8789 81.2391 12.1133 81.2391 12.3086V12.8594C81.6531 12.1719 82.1414 11.5664 82.7039 11.043C83.2742 10.5195 83.9383 10.1484 84.6961 9.92969C84.8602 9.88281 85.0203 9.87109 85.1766 9.89453C85.3328 9.91016 85.4891 9.94141 85.6453 9.98828C85.8016 10.0273 85.9656 10.0703 86.1375 10.1172C86.3172 10.1641 86.5086 10.1875 86.7117 10.1875C86.868 10.1875 87.032 10.168 87.2039 10.1289C87.3758 10.0898 87.5711 10.0234 87.7899 9.92969C87.5633 10.1562 87.3406 10.3789 87.1219 10.5977C86.9031 10.8164 86.6844 11.0156 86.4656 11.1953C86.2547 11.3672 86.0438 11.5156 85.8328 11.6406C85.6297 11.7578 85.4344 11.8281 85.2469 11.8516C85.0438 11.875 84.8484 11.8633 84.6609 11.8164C84.4813 11.7617 84.2938 11.707 84.0984 11.6523C83.9109 11.5898 83.7117 11.5469 83.5008 11.5234C83.2899 11.4922 83.0633 11.5117 82.8211 11.582C82.657 11.6367 82.493 11.7891 82.3289 12.0391C82.1727 12.2812 82.0164 12.5859 81.8602 12.9531C81.7117 13.3125 81.5711 13.7148 81.4383 14.1602C81.3133 14.5977 81.2 15.0352 81.0984 15.4727V15.4961ZM93.2578 18.5898C92.8438 19.0586 92.4609 19.4727 92.1094 19.832C91.7656 20.1836 91.4609 20.4805 91.1953 20.7227C90.8828 21.0039 90.6016 21.2461 90.3516 21.4492C89.6641 21.9961 89.0664 22.2695 88.5586 22.2695C88.2695 22.2695 88.0195 22.1914 87.8086 22.0352C87.6055 21.8867 87.4297 21.6914 87.2812 21.4492C87.1328 21.207 87.0117 20.9336 86.918 20.6289C86.8242 20.3242 86.75 20.0195 86.6953 19.7148C86.6484 19.4023 86.6133 19.1055 86.5898 18.8242C86.5742 18.543 86.5664 18.3047 86.5664 18.1094C86.5664 17.5859 86.625 17.0195 86.7422 16.4102C86.8672 15.8008 87.043 15.1953 87.2695 14.5938C87.5039 13.9844 87.7891 13.4023 88.125 12.8477C88.4609 12.2852 88.8438 11.7891 89.2734 11.3594C89.7109 10.9219 90.1875 10.5742 90.7031 10.3164C91.2266 10.0586 91.7891 9.92969 92.3906 9.92969C92.5547 9.92969 92.6914 9.96094 92.8008 10.0234C92.9102 10.0781 93 10.1562 93.0703 10.2578C93.1406 10.3594 93.1875 10.4727 93.2109 10.5977C93.2422 10.7227 93.2578 10.8516 93.2578 10.9844C93.2578 11.3281 93.1797 11.6719 93.0234 12.0156C92.8672 12.3594 92.6562 12.6992 92.3906 13.0352C92.1328 13.3633 91.8359 13.6875 91.5 14.0078C91.1641 14.3203 90.8125 14.6211 90.4453 14.9102C90.0859 15.1914 89.7266 15.457 89.3672 15.707C89.0078 15.957 88.6797 16.1836 88.3828 16.3867V16.6445C88.3828 16.8398 88.3906 17.0781 88.4062 17.3594C88.4297 17.6328 88.4648 17.9219 88.5117 18.2266C88.5664 18.5234 88.6367 18.8203 88.7227 19.1172C88.8086 19.4141 88.918 19.6797 89.0508 19.9141C89.1836 20.1484 89.3398 20.3398 89.5195 20.4883C89.707 20.6289 89.9219 20.6992 90.1641 20.6992C90.2734 20.6992 90.3867 20.6836 90.5039 20.6523C90.6211 20.6133 90.7383 20.5508 90.8555 20.4648C91.0586 20.3008 91.2891 20.0742 91.5469 19.7852C91.7656 19.5352 92.0195 19.2109 92.3086 18.8125C92.5977 18.4141 92.9141 17.9102 93.2578 17.3008V18.5898ZM91.0781 11.6758C90.9844 11.5664 90.8633 11.4961 90.7148 11.4648C90.5664 11.4336 90.4062 11.4414 90.2344 11.4883C90.0703 11.5352 89.9062 11.625 89.7422 11.7578C89.5859 11.8906 89.4531 12.0664 89.3438 12.2852C89.1875 12.5977 89.0156 13.0469 88.8281 13.6328C88.6406 14.2109 88.5078 14.8789 88.4297 15.6367C88.6797 15.4883 88.9375 15.3164 89.2031 15.1211C89.4688 14.9258 89.7227 14.7188 89.9648 14.5C90.2148 14.2812 90.4375 14.0547 90.6328 13.8203C90.8359 13.5781 90.9922 13.3359 91.1016 13.0938C91.2188 12.8438 91.2812 12.6016 91.2891 12.3672C91.2969 12.125 91.2266 11.8945 91.0781 11.6758ZM106.338 28.0938C106.049 28.3906 105.784 28.6445 105.541 28.8555C105.307 29.0742 105.1 29.25 104.92 29.3828C104.717 29.5391 104.526 29.6719 104.346 29.7812C104.135 29.9141 103.92 30.0117 103.702 30.0742C103.483 30.1445 103.28 30.1875 103.092 30.2031C102.905 30.2188 102.741 30.207 102.6 30.168C102.467 30.1289 102.377 30.0703 102.33 29.9922C102.276 29.9219 102.248 29.7188 102.248 29.3828C102.248 29.0547 102.264 28.6445 102.295 28.1523C102.327 27.668 102.362 27.1289 102.401 26.5352C102.448 25.9414 102.487 25.3398 102.518 24.7305L102.635 22.1406C102.432 22.1406 102.237 22.1367 102.049 22.1289C101.862 22.1211 101.682 22.1172 101.51 22.1172C101.338 22.1172 101.19 22.1172 101.065 22.1172C100.948 22.125 100.858 22.1406 100.795 22.1641C101.17 21.8984 101.502 21.6406 101.791 21.3906C102.088 21.1406 102.393 20.9375 102.705 20.7812C102.729 20.1875 102.752 19.5781 102.776 18.9531C102.807 18.3281 102.834 17.7188 102.858 17.125C102.889 16.5234 102.913 15.9531 102.928 15.4141C102.952 14.8672 102.971 14.3828 102.987 13.9609C103.01 13.5312 103.026 13.1758 103.034 12.8945C103.041 12.6055 103.045 12.418 103.045 12.332C103.045 12.0898 102.959 11.8828 102.788 11.7109C102.623 11.5312 102.405 11.4414 102.131 11.4414C101.998 11.4414 101.854 11.4688 101.698 11.5234C101.541 11.5703 101.373 11.6484 101.194 11.7578C101.413 11.5547 101.635 11.3438 101.862 11.125C102.096 10.9062 102.33 10.7109 102.565 10.5391C102.807 10.3594 103.049 10.2148 103.291 10.1055C103.541 9.98828 103.795 9.92969 104.053 9.92969C104.295 9.92969 104.495 10.0078 104.651 10.1641C104.815 10.3203 104.897 10.5859 104.897 10.9609C104.897 11.1562 104.885 11.5625 104.862 12.1797C104.846 12.7891 104.819 13.5352 104.78 14.418C104.936 14.0352 105.077 13.7148 105.202 13.457C105.334 13.1914 105.444 12.9766 105.53 12.8125C105.631 12.6172 105.717 12.4648 105.788 12.3555C106.03 12.0039 106.295 11.6719 106.584 11.3594C106.873 11.0469 107.166 10.7695 107.463 10.5273C107.76 10.2852 108.057 10.0859 108.354 9.92969C108.651 9.76562 108.936 9.66016 109.209 9.61328C109.491 9.57422 109.764 9.60938 110.03 9.71875C110.295 9.82031 110.534 10.0039 110.745 10.2695C110.955 10.5352 111.131 10.8828 111.272 11.3125C111.413 11.7344 111.495 12.2422 111.518 12.8359C111.534 13.5 111.463 14.1797 111.307 14.875C111.151 15.5625 110.92 16.2383 110.616 16.9023C110.319 17.5586 109.955 18.1836 109.526 18.7773C109.096 19.3711 108.616 19.9023 108.084 20.3711C107.553 20.832 106.979 21.2188 106.362 21.5312C105.745 21.8359 105.104 22.0312 104.44 22.1172L104.17 28.3398C104.233 28.3711 104.307 28.4023 104.393 28.4336C104.463 28.457 104.545 28.4766 104.639 28.4922C104.741 28.5156 104.858 28.5273 104.991 28.5273C105.17 28.5273 105.377 28.4961 105.612 28.4336C105.846 28.3789 106.088 28.2656 106.338 28.0938ZM105.588 20.5586C105.815 20.5586 106.038 20.5547 106.256 20.5469C106.475 20.5312 106.678 20.5117 106.866 20.4883C107.061 20.457 107.237 20.418 107.393 20.3711C107.549 20.3164 107.678 20.25 107.78 20.1719C107.936 20.0547 108.123 19.8594 108.342 19.5859C108.561 19.3125 108.768 18.9688 108.963 18.5547C109.166 18.1328 109.338 17.6406 109.479 17.0781C109.62 16.5156 109.69 15.8828 109.69 15.1797C109.69 14.9609 109.678 14.6992 109.655 14.3945C109.639 14.0898 109.604 13.7773 109.549 13.457C109.495 13.1367 109.416 12.8281 109.315 12.5312C109.213 12.2266 109.08 11.9688 108.916 11.7578C108.76 11.5391 108.569 11.3828 108.342 11.2891C108.116 11.1953 107.846 11.1992 107.534 11.3008C107.37 11.3555 107.19 11.4844 106.995 11.6875C106.799 11.8828 106.596 12.1797 106.385 12.5781C106.182 12.9766 105.975 13.4883 105.764 14.1133C105.561 14.7305 105.373 15.4883 105.202 16.3867C105.147 16.6133 105.084 16.8672 105.014 17.1484C104.952 17.3906 104.881 17.6758 104.803 18.0039C104.733 18.3242 104.659 18.6719 104.58 19.0469L104.51 20.5352C104.69 20.5352 104.87 20.5391 105.049 20.5469C105.229 20.5547 105.409 20.5586 105.588 20.5586ZM116.845 15.4961C116.806 15.9414 116.771 16.4414 116.74 16.9961C116.709 17.4727 116.673 18.0391 116.634 18.6953C116.595 19.3438 116.552 20.0625 116.505 20.8516L114.537 22.5273C114.709 20.9336 114.857 19.4141 114.982 17.9688C115.115 16.5234 115.181 15.0977 115.181 13.6914C115.181 12.9805 115.084 12.457 114.888 12.1211C114.693 11.7773 114.431 11.6055 114.103 11.6055C113.759 11.6055 113.361 11.7812 112.908 12.1328C113.009 12.0391 113.13 11.9219 113.271 11.7812C113.42 11.6328 113.576 11.4766 113.74 11.3125C113.912 11.1484 114.088 10.9844 114.267 10.8203C114.455 10.6562 114.634 10.5078 114.806 10.375C114.986 10.2422 115.158 10.1367 115.322 10.0586C115.486 9.97266 115.63 9.92969 115.755 9.92969C116.06 9.92969 116.295 10.0156 116.459 10.1875C116.623 10.3594 116.744 10.5703 116.822 10.8203C116.9 11.0703 116.947 11.332 116.963 11.6055C116.978 11.8789 116.986 12.1133 116.986 12.3086V12.8594C117.4 12.1719 117.888 11.5664 118.451 11.043C119.021 10.5195 119.685 10.1484 120.443 9.92969C120.607 9.88281 120.767 9.87109 120.923 9.89453C121.08 9.91016 121.236 9.94141 121.392 9.98828C121.548 10.0273 121.713 10.0703 121.884 10.1172C122.064 10.1641 122.255 10.1875 122.459 10.1875C122.615 10.1875 122.779 10.168 122.951 10.1289C123.123 10.0898 123.318 10.0234 123.537 9.92969C123.31 10.1562 123.088 10.3789 122.869 10.5977C122.65 10.8164 122.431 11.0156 122.213 11.1953C122.002 11.3672 121.791 11.5156 121.58 11.6406C121.377 11.7578 121.181 11.8281 120.994 11.8516C120.791 11.875 120.595 11.8633 120.408 11.8164C120.228 11.7617 120.041 11.707 119.845 11.6523C119.658 11.5898 119.459 11.5469 119.248 11.5234C119.037 11.4922 118.81 11.5117 118.568 11.582C118.404 11.6367 118.24 11.7891 118.076 12.0391C117.92 12.2812 117.763 12.5859 117.607 12.9531C117.459 13.3125 117.318 13.7148 117.185 14.1602C117.06 14.5977 116.947 15.0352 116.845 15.4727V15.4961ZM130.47 12.9766C130.493 13.5859 130.473 14.1836 130.411 14.7695C130.348 15.3555 130.255 15.9062 130.13 16.4219C130.013 16.9297 129.864 17.3945 129.684 17.8164C129.513 18.2305 129.325 18.5703 129.122 18.8359C128.989 19.0156 128.802 19.2266 128.559 19.4688C128.325 19.7031 128.059 19.9492 127.763 20.207C127.466 20.457 127.149 20.707 126.813 20.957C126.477 21.207 126.145 21.4297 125.817 21.625C125.489 21.8125 125.173 21.9648 124.868 22.082C124.571 22.207 124.309 22.2695 124.083 22.2695C123.817 22.2695 123.587 22.1992 123.391 22.0586C123.196 21.9258 123.028 21.75 122.888 21.5312C122.747 21.3047 122.63 21.0547 122.536 20.7812C122.442 20.5 122.368 20.2227 122.313 19.9492C122.259 19.668 122.22 19.4023 122.196 19.1523C122.18 18.8945 122.173 18.6758 122.173 18.4961C122.173 17.8086 122.235 17.1289 122.36 16.457C122.485 15.7773 122.677 15.1328 122.934 14.5234C123.2 13.9141 123.532 13.3516 123.93 12.8359C124.329 12.3125 124.805 11.8633 125.36 11.4883C125.72 11.2461 126.044 11.0273 126.333 10.832C126.622 10.6289 126.888 10.4609 127.13 10.3281C127.372 10.1953 127.591 10.0938 127.786 10.0234C127.989 9.94531 128.18 9.90625 128.36 9.90625C128.532 9.90625 128.731 9.95312 128.958 10.0469C129.192 10.1406 129.415 10.3047 129.626 10.5391C129.845 10.7656 130.032 11.0781 130.188 11.4766C130.345 11.8672 130.438 12.3672 130.47 12.9766ZM128.618 14.9219C128.618 14.5938 128.595 14.2188 128.548 13.7969C128.501 13.375 128.407 12.9805 128.266 12.6133C128.126 12.2461 127.927 11.9375 127.669 11.6875C127.419 11.4297 127.083 11.3008 126.661 11.3008C126.489 11.3008 126.309 11.3398 126.122 11.418C125.942 11.4883 125.774 11.6016 125.618 11.7578C125.305 12.0703 125.052 12.4297 124.856 12.8359C124.669 13.2344 124.52 13.6562 124.411 14.1016C124.302 14.5469 124.227 14.9961 124.188 15.4492C124.149 15.9023 124.13 16.332 124.13 16.7383C124.13 16.9492 124.134 17.1953 124.141 17.4766C124.149 17.75 124.173 18.0352 124.212 18.332C124.251 18.6211 124.305 18.9102 124.376 19.1992C124.454 19.4883 124.555 19.7461 124.68 19.9727C124.813 20.1914 124.977 20.3711 125.173 20.5117C125.368 20.6523 125.606 20.7227 125.888 20.7227C126.263 20.7227 126.591 20.6172 126.872 20.4062C127.153 20.1875 127.395 19.9062 127.598 19.5625C127.802 19.2188 127.966 18.832 128.091 18.4023C128.223 17.9727 128.329 17.543 128.407 17.1133C128.485 16.6836 128.54 16.2773 128.571 15.8945C128.602 15.5039 128.618 15.1797 128.618 14.9219ZM144.094 18.2266L143.824 19.5039C143.402 19.8633 143.051 20.1602 142.77 20.3945C142.496 20.6211 142.273 20.8047 142.102 20.9453C141.898 21.1094 141.738 21.2383 141.621 21.332C141.488 21.4414 141.348 21.5547 141.199 21.6719C141.051 21.7812 140.895 21.8789 140.73 21.9648C140.574 22.0508 140.414 22.1172 140.25 22.1641C140.094 22.2188 139.941 22.2344 139.793 22.2109C139.332 22.1641 139.102 21.2305 139.102 19.4102C139.102 18.6211 139.125 17.6992 139.172 16.6445C138.945 17.043 138.73 17.4062 138.527 17.7344C138.332 18.0547 138.156 18.3281 138 18.5547C137.82 18.8203 137.652 19.0586 137.496 19.2695C137.145 19.7148 136.801 20.1172 136.465 20.4766C136.129 20.8281 135.812 21.1328 135.516 21.3906C135.219 21.6484 134.949 21.8516 134.707 22C134.473 22.1406 134.281 22.2188 134.133 22.2344C133.984 22.25 133.82 22.2305 133.641 22.1758C133.461 22.1211 133.285 22 133.113 21.8125C132.949 21.6172 132.801 21.3398 132.668 20.9805C132.543 20.6211 132.457 20.1445 132.41 19.5508C132.395 19.4336 132.387 19.3164 132.387 19.1992C132.387 19.0742 132.387 18.9531 132.387 18.8359C132.387 18.2656 132.43 17.6719 132.516 17.0547C132.609 16.4375 132.73 15.8516 132.879 15.2969C133.035 14.7344 133.215 14.2266 133.418 13.7734C133.629 13.3125 133.852 12.957 134.086 12.707C134.258 12.5195 134.473 12.3203 134.73 12.1094C134.988 11.8984 135.266 11.6914 135.562 11.4883C135.867 11.2773 136.18 11.0781 136.5 10.8906C136.82 10.6953 137.125 10.5234 137.414 10.375C137.703 10.2266 137.965 10.1055 138.199 10.0117C138.434 9.91797 138.621 9.85938 138.762 9.83594H138.996C139.074 9.83594 139.168 9.83594 139.277 9.83594C139.387 9.83594 139.512 9.84375 139.652 9.85938C139.707 9.15625 139.758 8.47266 139.805 7.80859C139.859 7.14453 139.902 6.51953 139.934 5.93359C139.973 5.33984 140.004 4.79688 140.027 4.30469C140.051 3.8125 140.062 3.39062 140.062 3.03906C140.062 2.72656 140.035 2.49219 139.98 2.33594C139.934 2.17188 139.855 2.03125 139.746 1.91406C139.676 1.85156 139.59 1.8125 139.488 1.79688C139.402 1.78125 139.293 1.78906 139.16 1.82031C139.027 1.85156 138.871 1.92188 138.691 2.03125C139.09 1.75781 139.426 1.52734 139.699 1.33984C139.973 1.15234 140.199 1.00391 140.379 0.894531C140.582 0.761719 140.75 0.660156 140.883 0.589844C141.047 0.496094 141.207 0.449219 141.363 0.449219C141.527 0.441406 141.672 0.496094 141.797 0.613281C141.922 0.722656 142.016 0.898437 142.078 1.14062C142.141 1.38281 142.156 1.70312 142.125 2.10156C142.102 2.30469 142.066 2.66016 142.02 3.16797C141.98 3.66797 141.93 4.26953 141.867 4.97266C141.805 5.66797 141.738 6.43359 141.668 7.26953C141.605 8.10547 141.539 8.96094 141.469 9.83594C141.398 10.7109 141.328 11.5781 141.258 12.4375C141.195 13.2891 141.141 14.082 141.094 14.8164C141.047 15.543 141.008 16.1836 140.977 16.7383C140.945 17.293 140.93 17.7031 140.93 17.9688C140.93 18.7734 140.984 19.3984 141.094 19.8438C141.203 20.2891 141.402 20.5117 141.691 20.5117C141.895 20.5117 142.152 20.3906 142.465 20.1484C142.691 19.9688 142.906 19.7734 143.109 19.5625C143.289 19.3828 143.469 19.1797 143.648 18.9531C143.828 18.7188 143.977 18.4766 144.094 18.2266ZM139.535 11.5117C139.074 11.4258 138.676 11.3711 138.34 11.3477C138.004 11.3164 137.723 11.3008 137.496 11.3008C137.059 11.3008 136.672 11.4102 136.336 11.6289C136.008 11.8398 135.719 12.1172 135.469 12.4609C135.219 12.8047 135.008 13.1953 134.836 13.6328C134.672 14.0703 134.539 14.5117 134.438 14.957C134.336 15.4023 134.262 15.832 134.215 16.2461C134.176 16.6523 134.156 17.0039 134.156 17.3008C134.156 17.4258 134.16 17.5898 134.168 17.793C134.184 17.9883 134.207 18.1992 134.238 18.4258C134.277 18.6445 134.328 18.8672 134.391 19.0938C134.453 19.3203 134.531 19.5273 134.625 19.7148C134.719 19.8945 134.832 20.043 134.965 20.1602C135.098 20.2695 135.254 20.3242 135.434 20.3242C135.637 20.3242 135.879 20.1953 136.16 19.9375C136.449 19.6797 136.82 19.2539 137.273 18.6602C137.492 18.3555 137.719 17.9805 137.953 17.5352C138.156 17.1523 138.379 16.668 138.621 16.082C138.863 15.4961 139.105 14.7969 139.348 13.9844L139.535 11.5117ZM157.601 18.9766C157.226 19.3047 156.917 19.582 156.675 19.8086C156.433 20.0273 156.234 20.2031 156.077 20.3359C155.898 20.4922 155.757 20.6211 155.655 20.7227C155.538 20.8398 155.378 20.9883 155.175 21.168C154.98 21.3398 154.765 21.5078 154.53 21.6719C154.304 21.8359 154.07 21.9727 153.827 22.082C153.593 22.1992 153.378 22.25 153.183 22.2344C152.862 22.2188 152.628 21.9375 152.48 21.3906C152.339 20.8359 152.269 20.0859 152.269 19.1406V18.0156C151.995 18.3828 151.734 18.7148 151.484 19.0117C151.241 19.3008 151.027 19.5469 150.839 19.75C150.62 19.9922 150.417 20.207 150.23 20.3945C149.839 20.7773 149.476 21.0977 149.14 21.3555C148.804 21.6055 148.495 21.8008 148.214 21.9414C147.933 22.082 147.683 22.1719 147.464 22.2109C147.245 22.2578 147.054 22.2656 146.89 22.2344C146.734 22.2031 146.589 22.1289 146.456 22.0117C146.323 21.8945 146.21 21.7109 146.116 21.4609C146.023 21.2109 145.948 20.8867 145.894 20.4883C145.847 20.082 145.827 19.5781 145.835 18.9766C145.843 18.375 145.859 17.7773 145.882 17.1836C145.913 16.582 145.941 16.0117 145.964 15.4727C145.995 14.9336 146.027 14.4414 146.058 13.9961C146.097 13.543 146.128 13.1641 146.152 12.8594C146.175 12.4688 146.132 12.1562 146.023 11.9219C145.921 11.6797 145.737 11.5586 145.472 11.5586C145.316 11.5586 145.14 11.6055 144.945 11.6992C144.749 11.7852 144.527 11.9297 144.277 12.1328C144.464 11.9531 144.683 11.7383 144.933 11.4883C145.183 11.2305 145.445 10.9844 145.718 10.75C145.999 10.5156 146.28 10.3164 146.562 10.1523C146.843 9.98828 147.105 9.90625 147.347 9.90625C147.534 9.90625 147.675 9.95703 147.769 10.0586C147.87 10.1523 147.941 10.2695 147.98 10.4102C148.027 10.5508 148.05 10.7031 148.05 10.8672C148.058 11.0234 148.062 11.1602 148.062 11.2773C148.062 11.8398 148.042 12.3984 148.003 12.9531C147.964 13.5 147.921 14.0469 147.874 14.5938C147.827 15.1328 147.784 15.6719 147.745 16.2109C147.706 16.75 147.687 17.2891 147.687 17.8281C147.687 18.2031 147.702 18.5664 147.734 18.918C147.773 19.2617 147.839 19.5625 147.933 19.8203C148.027 20.0781 148.152 20.2812 148.308 20.4297C148.472 20.5703 148.679 20.6289 148.929 20.6055C149.257 20.5742 149.581 20.4375 149.902 20.1953C150.23 19.9531 150.538 19.6406 150.827 19.2578C151.116 18.8672 151.378 18.4258 151.612 17.9336C151.847 17.4414 152.034 16.9336 152.175 16.4102C152.191 16.3477 152.21 16.2734 152.234 16.1875C152.249 16.1172 152.269 16.0391 152.292 15.9531C152.323 15.8672 152.355 15.7695 152.386 15.6602C152.433 14.9023 152.495 14.1562 152.573 13.4219C152.659 12.6875 152.757 11.9531 152.866 11.2188L155.152 9.58984C154.862 11.0195 154.632 12.3906 154.46 13.7031C154.296 15.0156 154.214 16.3242 154.214 17.6289C154.214 18.2461 154.241 18.7461 154.296 19.1289C154.359 19.5117 154.441 19.8047 154.542 20.0078C154.652 20.2109 154.78 20.3359 154.929 20.3828C155.077 20.4297 155.237 20.4258 155.409 20.3711C155.566 20.3008 155.749 20.168 155.96 19.9727C156.14 19.8086 156.366 19.5703 156.64 19.2578C156.913 18.9453 157.234 18.5234 157.601 17.9922V18.9766ZM144.277 12.1328L144.206 12.1797L144.277 12.1328ZM165.811 10.6914C165.733 10.7773 165.62 10.8906 165.471 11.0312C165.338 11.1484 165.155 11.3008 164.92 11.4883C164.694 11.668 164.393 11.8828 164.018 12.1328C164.112 12.0469 164.163 11.9688 164.17 11.8984C164.178 11.8281 164.17 11.7656 164.147 11.7109C164.116 11.6484 164.065 11.5898 163.995 11.5352C163.87 11.4648 163.666 11.4102 163.385 11.3711C163.112 11.3242 162.819 11.3008 162.506 11.3008C162.241 11.3008 161.991 11.3203 161.756 11.3594C161.522 11.3906 161.33 11.4492 161.182 11.5352C161.041 11.6211 160.889 11.8281 160.725 12.1562C160.569 12.4844 160.424 12.8828 160.291 13.3516C160.159 13.8203 160.049 14.3359 159.963 14.8984C159.877 15.4531 159.834 16.0039 159.834 16.5508C159.834 16.8086 159.846 17.0898 159.87 17.3945C159.901 17.6992 159.948 18.0039 160.01 18.3086C160.073 18.6055 160.159 18.8945 160.268 19.1758C160.377 19.4492 160.514 19.6914 160.678 19.9023C160.842 20.1133 161.034 20.2773 161.252 20.3945C161.471 20.5117 161.729 20.5586 162.026 20.5352C162.213 20.5039 162.424 20.4219 162.659 20.2891C162.854 20.1797 163.08 20.0117 163.338 19.7852C163.604 19.5508 163.885 19.2266 164.182 18.8125L165.166 18.5195C164.752 18.9883 164.381 19.3906 164.053 19.7266C163.725 20.0547 163.448 20.3242 163.221 20.5352C162.955 20.7852 162.717 20.9844 162.506 21.1328C162.248 21.3125 162.006 21.4766 161.78 21.625C161.553 21.7656 161.33 21.8867 161.112 21.9883C160.901 22.082 160.69 22.1484 160.479 22.1875C160.268 22.2266 160.053 22.2344 159.834 22.2109C159.647 22.1953 159.444 22.0898 159.225 21.8945C159.014 21.6992 158.815 21.4297 158.627 21.0859C158.44 20.7344 158.284 20.3125 158.159 19.8203C158.034 19.3281 157.971 18.7734 157.971 18.1562C157.971 17.4844 158.034 16.8047 158.159 16.1172C158.291 15.4297 158.487 14.7695 158.745 14.1367C159.002 13.4961 159.33 12.9062 159.729 12.3672C160.127 11.8203 160.596 11.3594 161.135 10.9844C161.416 10.7891 161.721 10.6172 162.049 10.4688C162.385 10.3203 162.717 10.1992 163.045 10.1055C163.381 10.0117 163.702 9.94531 164.006 9.90625C164.319 9.86719 164.592 9.85156 164.827 9.85938C165.295 9.88281 165.612 9.97266 165.776 10.1289C165.948 10.2773 165.959 10.4648 165.811 10.6914ZM173.998 18.1094L173.752 19.3164C173.572 19.4648 173.361 19.6523 173.119 19.8789C172.884 20.0977 172.627 20.3281 172.345 20.5703C172.072 20.8125 171.787 21.0508 171.49 21.2852C171.193 21.5117 170.896 21.707 170.599 21.8711C170.302 22.0273 170.009 22.1367 169.72 22.1992C169.439 22.2695 169.177 22.2578 168.935 22.1641C168.779 22.1094 168.642 22.0273 168.525 21.918C168.416 21.8086 168.322 21.6523 168.244 21.4492C168.173 21.2461 168.119 20.9883 168.08 20.6758C168.041 20.3555 168.021 19.9648 168.021 19.5039C168.021 18.1133 168.048 16.7656 168.103 15.4609C168.166 14.1484 168.24 12.8477 168.326 11.5586C167.998 11.582 167.673 11.625 167.353 11.6875C167.041 11.7422 166.798 11.8359 166.627 11.9688C167.119 11.5312 167.505 11.1289 167.787 10.7617C168.068 10.3867 168.283 10.0547 168.431 9.76562L168.572 7.62109L170.588 5.94531L170.341 10.1406C170.513 10.1562 170.673 10.1641 170.822 10.1641C170.97 10.1641 171.115 10.1641 171.255 10.1641C171.935 10.1641 172.564 10.1055 173.142 9.98828C173.728 9.86328 174.291 9.69922 174.83 9.49609C174.33 9.89453 173.849 10.2188 173.388 10.4688C172.935 10.7188 172.513 10.9219 172.123 11.0781C171.732 11.2266 171.377 11.3359 171.056 11.4062C170.736 11.4688 170.466 11.5117 170.248 11.5352C170.17 12.9414 170.107 14.082 170.06 14.957C170.021 15.8242 169.99 16.4961 169.966 16.9727C169.935 17.5352 169.92 17.9453 169.92 18.2031C169.896 18.5859 169.92 18.9258 169.99 19.2227C170.06 19.5195 170.166 19.7656 170.306 19.9609C170.455 20.1562 170.63 20.293 170.834 20.3711C171.045 20.4492 171.275 20.457 171.525 20.3945C171.72 20.332 171.947 20.207 172.205 20.0195C172.423 19.8633 172.681 19.6367 172.978 19.3398C173.283 19.0352 173.623 18.625 173.998 18.1094ZM166.627 11.9688L166.556 12.0156L166.627 11.9688Z" fill="#026F30" />
</svg>
