<svg width="84" height="84" viewBox="0 0 84 84" fill="none" xmlns="http://www.w3.org/2000/svg">
<path d="M24.7933 70.9067L26.5464 72.8051C24.8809 75.0716 20.4565 75.1155 18.0592 72.7568L19.9197 70.8979C21.5216 72.1189 23.141 72.1584 24.7933 70.9067Z" fill="#026F30"/>
<path d="M11.2703 70.8893C9.51717 72.1344 8.29438 72.1387 6.39665 70.9265L4.5274 72.7481C6.83273 75.1221 11.0248 75.109 13.1001 72.7481L11.2703 70.8893ZM11.2703 70.8893C9.51717 72.1344 8.29438 72.1387 6.39665 70.9265L4.5274 72.7481C6.83273 75.1221 11.0248 75.109 13.1001 72.7481L11.2703 70.8893ZM11.2703 70.8893C9.51717 72.1344 8.29438 72.1387 6.39665 70.9265L4.5274 72.7481C6.83273 75.1221 11.0248 75.109 13.1001 72.7481L11.2703 70.8893ZM11.2703 70.8893C9.51717 72.1344 8.29438 72.1387 6.39665 70.9265L4.5274 72.7481C6.83273 75.1221 11.0248 75.109 13.1001 72.7481L11.2703 70.8893ZM11.2703 70.8893C9.51717 72.1344 8.29438 72.1387 6.39665 70.9265L4.5274 72.7481C6.83273 75.1221 11.0248 75.109 13.1001 72.7481L11.2703 70.8893ZM11.2703 70.8893C9.51717 72.1344 8.29438 72.1387 6.39665 70.9265L4.5274 72.7481C6.83273 75.1221 11.0248 75.109 13.1001 72.7481L11.2703 70.8893ZM60.2937 41.7764C59.5508 41.7019 58.7991 41.5857 58.0804 41.9145C58.0466 41.9482 58.0151 41.9841 57.9861 42.0219C57.9564 42.0602 57.9293 42.1005 57.9051 42.1425C57.9685 42.1102 58.0275 42.0697 58.0804 42.0219C56.6976 52.7631 55.3126 63.5042 53.897 74.4974C46.1019 76.502 37.9266 76.502 30.1315 74.4974C28.7181 63.513 27.3331 52.7674 25.9503 42.0219C26.0024 42.0676 26.059 42.108 26.1191 42.1425C26.094 42.1 26.0654 42.0596 26.0336 42.0219C26.0028 41.9789 25.9675 41.9392 25.9284 41.9036C25.2206 41.5901 24.4821 41.7019 23.7524 41.772C23.4237 41.8049 23.1804 41.9737 23.2615 42.3749C24.3309 50.6762 25.4025 58.9776 26.4785 67.3272L24.1709 66.5292C25.0278 60.7005 22.4704 56.9872 16.6041 55.5579C15.6504 52.6917 14.0494 50.0836 11.9255 47.9361L10.0168 49.7183C10.7356 50.6587 11.5048 51.5465 12.1359 52.5263C12.767 53.5062 13.282 54.6066 13.8561 55.6719C8.41053 57.4979 6.42514 60.6962 7.01243 66.538C1.31484 68.3793 -1.36303 73.4101 0.681526 78.476C1.93938 81.5975 4.40687 83.2394 7.57342 83.9978H10.0343C12.1008 83.8882 13.7772 82.9632 15.2191 81.5383C15.2914 81.4645 15.3801 81.4088 15.478 81.3756C15.5758 81.3425 15.6801 81.3329 15.7823 81.3476C17.1563 82.8097 18.8831 83.8203 21.0219 83.9978H23.4828C24.8897 83.8992 26.2111 83.5594 27.3747 82.7067C27.7004 82.4232 28.0501 82.1687 28.42 81.946C29.1563 83.0421 30.0132 83.8707 31.3543 83.9978H52.6742C54.5391 83.3227 55.6786 82.0951 55.9372 80.0521C57.5296 67.4916 59.1366 54.9325 60.7582 42.3749C60.8481 41.9825 60.6158 41.8093 60.2937 41.7764ZM13.8057 76.9416C14.2615 78.2721 13.683 79.0459 12.7933 79.7912C11.6713 80.7713 10.2241 81.2973 8.73485 81.2665C7.70424 81.2509 6.6945 80.9735 5.80041 80.4605C4.90632 79.9475 4.1572 79.2157 3.62337 78.3337C3.08953 77.4517 2.78848 76.4485 2.74848 75.4182C2.70848 74.3879 2.93083 73.3644 3.39467 72.4436C3.85852 71.5229 4.54864 70.7351 5.40026 70.1543C6.25188 69.5735 7.23707 69.2186 8.26336 69.123C9.28965 69.0275 10.3234 69.1943 11.2675 69.608C12.2117 70.0216 13.0353 70.6684 13.6611 71.4877C13.8243 71.6635 13.9355 71.8812 13.9824 72.1165C14.0292 72.3518 14.0098 72.5956 13.9262 72.8205C13.4967 74.1817 13.3543 75.6132 13.8057 76.9416ZM15.5588 69.528C14.1882 67.9252 12.2934 66.861 10.2118 66.5249C9.8656 66.4701 9.78891 66.2421 9.70782 65.9768C8.6976 62.6493 11.0095 58.9732 14.5749 58.4032C14.6735 59.1968 14.7677 59.9859 14.8707 60.8145C14.1213 60.8321 13.6764 60.3761 13.1614 60.0561L11.336 61.9456C13.5866 64.2736 17.5135 64.2846 19.9416 61.8908C19.1571 61.3625 18.8021 60.2928 17.5639 60.1065C17.5179 59.7426 17.45 59.2165 17.3711 58.5918C20.5552 59.5585 22.3762 62.8597 21.5062 65.9352C21.4859 66.079 21.4221 66.2132 21.3234 66.3198C21.2247 66.4264 21.0958 66.5002 20.954 66.5314C18.0241 67.3293 17.7502 67.4894 15.5741 69.5302L15.5588 69.528ZM22.2666 81.2753C21.2935 81.261 20.3379 81.0135 19.4801 80.5536C18.6223 80.0936 17.8873 79.4347 17.3366 78.632C16.7859 77.8292 16.4356 76.9061 16.3152 75.9401C16.1947 74.974 16.3076 73.9931 16.6443 73.0797C16.981 72.1662 17.5317 71.3468 18.2503 70.6902C18.9689 70.0336 19.8344 69.559 20.7742 69.306C21.714 69.053 22.7008 69.0291 23.6517 69.2363C24.6027 69.4435 25.4901 69.8758 26.2396 70.4969C26.4891 70.6824 26.6948 70.9206 26.8421 71.1944C26.9894 71.4683 27.0747 71.7712 27.092 72.0817C27.1841 73.2238 27.3682 74.3593 27.5303 75.4948C28.0278 78.9407 25.821 81.3673 22.282 81.2775L22.2666 81.2753ZM53.1278 80.2099C52.981 80.9487 52.4332 81.2797 51.6859 81.2797H32.3755C31.477 81.2797 30.9467 80.8588 30.8415 79.9359C30.7451 79.1029 30.6224 78.2721 30.5216 77.4983C38.1038 79.0821 45.9313 79.0821 53.5135 77.4983C53.3952 78.3839 53.3207 79.309 53.1432 80.2121L53.1278 80.2099ZM6.39665 70.9265L4.5274 72.7481C6.83273 75.1221 11.0248 75.109 13.1001 72.7481L11.2703 70.8827C9.52813 72.1344 8.29438 72.1387 6.39665 70.9265ZM11.2703 70.8893C9.51717 72.1344 8.29438 72.1387 6.39665 70.9265L4.5274 72.7481C6.83273 75.1221 11.0248 75.109 13.1001 72.7481L11.2703 70.8893ZM11.2703 70.8893C9.51717 72.1344 8.29438 72.1387 6.39665 70.9265L4.5274 72.7481C6.83273 75.1221 11.0248 75.109 13.1001 72.7481L11.2703 70.8893ZM11.2703 70.8893C9.51717 72.1344 8.29438 72.1387 6.39665 70.9265L4.5274 72.7481C6.83273 75.1221 11.0248 75.109 13.1001 72.7481L11.2703 70.8893ZM11.2703 70.8893C9.51717 72.1344 8.29438 72.1387 6.39665 70.9265L4.5274 72.7481C6.83273 75.1221 11.0248 75.109 13.1001 72.7481L11.2703 70.8893Z" fill="#026F30"/>
<path d="M77.2944 70.4444C76.6896 67.0467 75.0504 65.2601 72.1863 65.0782C70.1131 64.9489 68.0338 64.9489 65.9606 65.0782C64.7909 65.1458 63.6771 65.6012 62.795 66.3725C61.9128 67.1437 61.3126 68.1869 61.0891 69.3374C60.8326 70.6523 61.0533 72.0156 61.7115 73.1823C58.3915 73.9955 56.599 76.2687 56.9606 79.2302C57.2717 81.7664 58.946 83.1562 61.2031 83.9935H68.5902C69.3246 83.9537 70.0403 83.7475 70.6834 83.3906C71.3264 83.0336 71.88 82.5352 72.3024 81.933C72.6224 81.4946 73.0672 81.4639 73.5406 81.4639H78.7692C79.2884 81.4876 79.8077 81.4193 80.3032 81.2622C82.3455 80.5147 83.6998 79.1754 84.011 76.9395V74.9666C83.0533 71.5667 80.6845 70.1901 77.2944 70.4444ZM66.3375 67.7591C68.1943 67.7343 70.0497 67.7343 71.9036 67.7591C72.2429 67.7584 72.5789 67.8258 72.8917 67.9574C73.2045 68.0889 73.4877 68.2819 73.7245 68.525C73.9614 68.768 74.147 69.0562 74.2705 69.3723C74.394 69.6885 74.4528 70.0262 74.4434 70.3655C70.3981 70.9244 69.8897 71.1612 68.4741 73.1625C67.7487 73.1625 67.0124 73.1932 66.2827 73.1625C65.5804 73.1308 64.9177 72.8286 64.4332 72.319C63.9488 71.8095 63.6802 71.1322 63.6837 70.429C63.6877 69.7252 63.9678 69.051 64.4637 68.5517C64.9596 68.0523 65.6317 67.7677 66.3353 67.7591H66.3375ZM67.7027 81.2754C65.9306 81.3061 64.1563 81.3061 62.3799 81.2754C60.7933 81.2469 59.6472 80.1158 59.6165 78.6252C59.5858 77.1346 60.7582 75.9333 62.3733 75.8763C63.2739 75.8434 64.1746 75.8763 65.0774 75.8763C65.9803 75.8763 66.8305 75.8522 67.7071 75.8763C69.3463 75.9333 70.4682 77.071 70.4507 78.6186C70.42 80.1289 69.3046 81.2447 67.7005 81.2754H67.7027ZM78.6596 78.5704C76.8649 78.612 75.0658 78.5813 73.1812 78.5813C73.0804 76.8058 72.3901 75.3787 71.0095 74.2805C71.251 73.9286 71.5765 73.6427 71.9565 73.4486C72.3366 73.2545 72.759 73.1584 73.1856 73.1691C74.9847 73.1691 76.7838 73.1516 78.5829 73.1691C79.2984 73.1592 79.9884 73.4341 80.5013 73.9331C81.0142 74.4322 81.3079 75.1146 81.3178 75.8303C81.3276 76.546 81.0529 77.2362 80.554 77.7493C80.0551 78.2623 79.3729 78.5561 78.6574 78.566L78.6596 78.5704Z" fill="#026F30"/>
<path d="M77.8269 14.7307C77.4828 14.174 77.1125 13.6347 76.7465 13.0889C75.1403 10.7061 72.561 10.1406 70.122 11.6706C67.58 13.2643 65.0555 14.8886 62.5245 16.4932C62.3053 16.6378 62.0643 16.7672 61.7509 16.9513L64.0497 13.2095C64.7487 12.0696 65.4434 10.9297 66.1446 9.79202C68.7721 5.51749 68.3711 3.72657 64.1921 0.971142C61.6063 -0.729902 59.027 -0.170925 57.3988 2.46175C55.0497 6.26133 52.7056 10.0697 50.3667 13.8868C50.2199 14.1279 50.0621 14.3625 49.8627 14.6694C48.5961 10.8859 46.0628 8.76832 42.2937 8.14578C41.5768 5.51921 40.5033 3.00339 39.103 0.668637L36.8021 2.05622C37.9638 4.01112 38.8738 6.10506 39.5106 8.28826C35.6472 9.35361 33.3506 11.8372 32.5683 15.8224C30.9335 13.7794 29.393 11.8306 27.8284 9.90381C26.2944 8.01864 23.6779 7.4772 21.7276 8.80778C17.7305 11.5172 13.775 14.2858 9.86122 17.1135C7.97883 18.466 7.49453 21.2631 8.94085 23.0387C12.7363 27.7253 16.6545 32.3067 20.5354 36.9298C21.149 36.2612 21.8634 35.6716 22.2557 34.8232V34.8079L22.2381 34.8254C18.6384 30.5144 15.0373 26.2033 11.4346 21.8922C10.6633 20.9694 10.637 20.0969 11.5793 19.196C15.8028 24.2027 20.011 29.1896 24.2038 34.1568H23.9847C24.0074 34.1742 24.0316 34.1896 24.057 34.2029C24.1366 34.2538 24.2239 34.2916 24.3156 34.3147C25.7181 34.3848 26.2265 33.8763 26.2878 32.3265C26.2722 32.2471 26.2494 32.1694 26.2199 32.0941C26.2199 32.0656 26.1958 32.0393 26.1826 32.0108C26.1671 32.0772 26.1561 32.1446 26.1498 32.2125L13.7882 17.6265C16.8912 15.4563 19.9416 13.2862 23.0248 11.1796C24.057 10.4781 25.0365 10.7412 25.8254 11.7276C28.8057 15.4629 31.7933 19.1894 34.7882 22.9072C35.0059 23.1401 35.2443 23.3529 35.5004 23.5429C35.4587 23.5689 35.4191 23.5982 35.382 23.6305C35.4054 23.6327 35.4288 23.6327 35.4522 23.6305H35.5004C36.3112 23.1176 37.0782 22.5608 37.4989 21.6577C37.4989 21.6423 37.5143 21.6248 37.523 21.6073C37.524 21.5941 37.524 21.5809 37.523 21.5678C37.5043 21.6031 37.4882 21.6398 37.4748 21.6774C35.5026 19.8361 34.7356 17.6243 35.5815 15.0113C36.2937 12.8061 37.8824 11.504 40.1724 10.945C40.2995 11.8 40.4178 12.5979 40.5406 13.4309C39.962 13.3289 39.4241 13.0652 38.9891 12.6702H38.8883L37.1549 14.5378C38.908 16.8329 43.3126 16.8636 45.6377 14.494L43.729 12.6899L43.2118 12.9464C43.133 12.3217 43.0606 11.7605 42.9752 11.0897C45.0022 11.7473 46.3828 12.9749 47.0599 14.8842C47.8904 17.2275 47.3579 19.3407 45.7166 21.1864C45.7089 21.1658 45.6993 21.146 45.6881 21.1272C45.687 21.1396 45.687 21.1521 45.6881 21.1645C46.2929 21.9711 46.9635 22.6814 48.011 22.8524C48.024 22.8544 48.0373 22.8544 48.0504 22.8524L50.4324 18.9395C51.1096 21.6752 51.7473 24.2158 52.3587 26.763C52.4003 26.9406 52.2513 27.1641 52.1921 27.3658C52.1755 27.3319 52.1557 27.2996 52.133 27.2694C52.133 27.2979 52.133 27.3264 52.133 27.357C52.133 27.3877 52.1439 27.4294 52.1483 27.4645C52.9876 27.927 53.7984 28.4597 54.8042 28.486H54.8174C54.8325 28.4793 54.8465 28.4704 54.859 28.4597L54.7407 28.4202L58.7422 21.844L59.1059 22.0303C58.8671 24.1895 58.6304 26.3465 58.3894 28.5188L56.2593 29.7508C56.2477 29.7141 56.2338 29.6783 56.2177 29.6434L56.2045 29.6609C56.2071 29.6779 56.2108 29.6948 56.2155 29.7113C56.4105 30.6846 57 31.4014 57.7276 32.0327C63.9445 28.3544 70.1724 24.6959 76.3718 20.9913C78.6706 19.6191 79.2294 16.9908 77.8269 14.7307ZM60.2958 3.13252C60.813 2.74014 61.4507 2.56697 61.9876 2.85851C62.9291 3.34502 63.8065 3.9466 64.5997 4.64943C65.2571 5.26321 65.1695 6.151 64.7159 6.91822C63.9861 8.16112 63.217 9.37991 62.3733 10.7565C61.5734 8.36498 60.8174 6.09839 60.0548 3.83617C60.0043 3.7085 60.0019 3.56686 60.0478 3.43748C60.0937 3.30811 60.185 3.19977 60.3046 3.13252H60.2958ZM55.3937 22.1092C55.1746 22.6222 54.8108 23.0759 54.4076 23.7248C53.7349 21.0154 52.9262 18.5033 52.5581 15.9298C52.3893 14.757 53.7217 13.8188 54.3506 12.4795C55.0453 15.0376 55.6194 17.359 56.3229 19.641C56.6713 20.7765 55.7509 21.3091 55.4025 22.1092H55.3937ZM59.6362 15.1845C59.2684 15.8665 58.8661 16.5294 58.431 17.1705C57.7297 14.5773 56.9189 12.1419 56.4587 9.64077C56.2396 8.50308 57.5347 7.68544 58.0738 6.425C58.9043 8.92615 59.6516 11.1643 60.3879 13.4045C60.6574 14.2003 59.9255 14.608 59.645 15.1845H59.6362ZM63.859 24.8121C63.6618 26.0221 62.2067 25.9476 61.3017 26.923C61.5734 24.4526 61.6457 22.2408 62.1454 20.1276C62.3075 19.4459 63.5895 19.0316 64.5427 18.374C64.317 20.691 64.2075 22.7691 63.8678 24.8121H63.859ZM69.3178 21.7015C69.1096 22.7756 67.6633 22.8304 66.7473 23.6283C66.9883 21.2193 67.0563 18.9987 67.4945 16.8549C67.7137 15.8312 69.1271 15.669 70.0343 14.8973C69.8042 17.2801 69.7341 19.5095 69.3178 21.7015ZM72.2411 20.1978C72.4602 18.0057 72.6793 15.8465 72.8875 13.6895C73.7816 13.6172 75.5172 15.4739 75.8108 16.7913C76.1045 18.1087 75.0044 19.1368 72.2411 20.1868V20.1978Z" fill="#026F30"/>
<path d="M61.4135 41.6493C61.2603 41.7166 61.1233 41.816 61.0118 41.9408C60.9003 42.0656 60.8168 42.2128 60.767 42.3726C60.5479 41.4849 59.8904 42.1534 59.4522 42.0285C59.0139 41.9035 58.5427 42.0153 58.0826 42.0285C58.0297 42.0762 57.9707 42.1168 57.9072 42.149C57.6026 42.3178 57.2498 42.285 56.9124 42.285C55.2732 42.285 53.6362 42.285 51.9971 42.285C50.038 42.3047 49.0782 43.2429 49.0322 45.2026C48.9949 46.7875 49.0322 48.3723 49.0168 49.955C48.9971 51.7086 47.8839 52.9757 46.3105 53.0787C44.6516 53.1905 43.3148 52.0177 43.0957 50.2443C43.0391 49.4814 43.023 48.7161 43.0475 47.9514C43.03 46.7765 43.1132 45.5994 43.0059 44.4288C42.9525 43.8941 42.7181 43.3937 42.3414 43.0106C41.9648 42.6274 41.4686 42.3845 40.935 42.3222C40.4002 42.2734 39.8642 42.4019 39.4096 42.6879C38.955 42.9739 38.607 43.4016 38.4193 43.9049C38.2415 44.4806 38.1673 45.0832 38.2002 45.6849C38.2002 49.7533 38.2002 53.8233 38.2002 57.8947C38.2002 58.8986 37.981 59.7996 37.1987 60.4813C35.5793 61.9105 33.0197 61.1389 32.3886 59.0411C32.2534 58.5108 32.1972 57.9635 32.2221 57.4168V45.7002C32.2221 45.3451 32.2221 44.9878 32.2045 44.6348C32.0994 43.2604 31.2097 42.3748 29.8225 42.3003C28.8956 42.2499 27.9664 42.3003 27.0373 42.2806C26.7245 42.3106 26.4092 42.2631 26.1191 42.1425C26.059 42.108 26.0024 42.0676 25.9503 42.0219C25.1921 42.0088 24.4317 42.0219 23.6779 41.9649C23.3054 41.9364 23.2812 42.1206 23.2615 42.3748C23.1191 42.1074 23.0424 41.8465 22.7005 41.6799C20.7042 40.7176 20.0117 39.1525 20.5354 36.9297C20.8685 36.0398 21.5369 35.4194 22.2403 34.8297L22.2579 34.8122C22.7268 34.2905 23.3382 34.1831 23.9803 34.1546H24.1994L25.7159 33.9354C25.8605 33.3545 26.0007 32.7889 26.141 32.2212C26.1473 32.1533 26.1583 32.0859 26.1739 32.0195C26.3251 31.2698 26.8488 30.7043 27.2279 30.0773L27.2696 30.0182L27.3134 29.959C27.813 29.3013 28.488 28.8301 29.1191 28.3127L29.198 28.247L29.2791 28.2009C30.0883 27.7511 30.9352 27.3727 31.8101 27.0698L31.946 27.0194L31.9898 27.0041C32.1229 26.9811 32.2581 26.9723 32.393 26.9778C33.5785 26.9405 33.7648 26.798 34.1593 25.6165L34.2338 25.5113C34.6436 24.9084 34.7619 24.1171 35.3733 23.648C35.4103 23.6157 35.4499 23.5863 35.4916 23.5603L37.4639 21.7014C37.4773 21.6638 37.4934 21.6272 37.5121 21.5918C37.5131 21.605 37.5131 21.6182 37.5121 21.6313C37.5121 21.6488 37.4967 21.6664 37.488 21.6817C40.1286 20.0903 42.8547 19.9281 45.6684 21.1929C45.6673 21.1805 45.6673 21.168 45.6684 21.1556C45.6796 21.1745 45.6892 21.1943 45.6969 21.2148L47.9913 22.8895L48.0219 22.9115C48.8836 24.187 49.574 25.5704 50.0753 27.026L52.1549 27.357C52.1549 27.3263 52.1549 27.2978 52.1549 27.2693C52.1776 27.2995 52.1974 27.3318 52.214 27.3657L54.7736 28.4114L54.8919 28.4508C54.8794 28.4616 54.8654 28.4705 54.8503 28.4771L56.2484 29.7025C56.2437 29.6859 56.24 29.6691 56.2374 29.6521L56.2506 29.6345C56.2667 29.6694 56.2806 29.7053 56.2922 29.7419L57.7604 32.0261C57.9445 32.6223 58.1286 33.2208 58.3324 33.8784C59.1257 34.0757 59.9474 34.2576 60.7538 34.4878C62.439 34.9722 63.5062 36.0639 63.6662 37.8329C63.8262 39.6019 63.0307 40.9061 61.4135 41.6493Z" fill="#00B151"/>
<path d="M57.9861 42.0219C55.9131 42.0219 53.8422 42.0021 51.767 42.0043C49.8824 42.0043 48.7779 43.1157 48.7648 45.0228C48.7648 46.6362 48.7648 48.2495 48.7648 49.8607C48.7648 51.6319 47.6691 52.8309 46.0891 52.8309C44.5091 52.8309 43.3696 51.6319 43.3543 49.8804C43.3389 48.2956 43.3543 46.7085 43.3543 45.1236C43.3543 43.2143 42.2914 41.9912 40.6567 42.0043C39.0219 42.0175 37.9416 43.2428 37.9416 45.1412C37.9416 49.3792 37.9416 53.6172 37.9416 57.8552C37.9416 59.7513 36.8459 61.0249 35.2352 60.9876C33.6245 60.9504 32.5288 59.6724 32.5288 57.8201C32.5288 53.5017 32.5288 49.1811 32.5288 44.8606C32.5288 43.0938 31.4332 42.0109 29.6516 42.0109C28.4507 42.0109 27.241 42.0109 26.0467 42.0284H25.9635C26.0156 42.0741 26.0721 42.1145 26.1322 42.149C26.4223 42.2697 26.7376 42.3171 27.0504 42.2871C27.9795 42.3003 28.9087 42.2564 29.8356 42.3068C31.2228 42.3814 32.1125 43.267 32.2177 44.6414C32.244 44.9943 32.2352 45.3516 32.2352 45.7067V57.4255C32.2104 57.9722 32.2665 58.5196 32.4017 59.0498C33.0329 61.1476 35.5924 61.9193 37.2118 60.49C37.9854 59.8083 38.2133 58.9073 38.2133 57.9034C38.2045 53.8334 38.2045 49.7635 38.2133 45.6936C38.1804 45.092 38.2546 44.4893 38.4324 43.9136C38.6201 43.4103 38.9681 42.9827 39.4227 42.6967C39.8773 42.4107 40.4133 42.2822 40.9481 42.3309C41.4817 42.3933 41.9779 42.6361 42.3546 43.0193C42.7312 43.4024 42.9656 43.9028 43.019 44.4375C43.1264 45.6081 43.0431 46.7852 43.0606 47.9602C43.0361 48.7248 43.0522 49.4902 43.1088 50.2531C43.328 52.0265 44.6647 53.1992 46.3236 53.0874C47.897 52.9844 49.0102 51.7086 49.0299 49.9637C49.0497 48.381 49.008 46.7962 49.0453 45.2113C49.0913 43.2516 50.0511 42.3134 52.0102 42.2937C53.6494 42.2761 55.2863 42.2937 56.9255 42.2937C57.2651 42.2937 57.6158 42.3266 57.9204 42.1578C57.9839 42.1255 58.0428 42.0849 58.0957 42.0372L57.9861 42.0219Z" fill="#FEFEFE"/>
<path d="M26.5552 72.8051C24.8897 75.0716 20.4653 75.1155 18.0679 72.7568L19.9284 70.8979C21.5215 72.1124 23.141 72.1584 24.7933 70.8979L26.5552 72.8051Z" fill="#FEFEFE"/>
<path d="M13.1001 72.7549C11.0248 75.1091 6.83274 75.1223 4.5274 72.7549L6.39665 70.9333C8.29439 72.1455 9.52814 72.1411 11.2703 70.896L13.1001 72.7549Z" fill="#FEFEFE"/>
<path d="M35.3842 23.6306C34.7728 24.0997 34.6545 24.891 34.2447 25.4938C31.8137 22.3928 29.3835 19.2917 26.954 16.1907C25.775 14.6935 24.3243 14.5028 22.8232 15.6207C21.9467 16.2667 21.0701 16.9184 20.1936 17.5761C18.767 18.6568 18.5851 20.2855 19.7553 21.6336C20.7911 22.8305 21.8371 24.0193 22.8934 25.2001C24.3462 26.8112 25.8189 28.4071 27.2761 30.0073L27.2345 30.0665C26.8554 30.7 26.3316 31.2589 26.1804 32.0086C26.1649 32.075 26.1539 32.1424 26.1476 32.2103C26.1717 32.1708 26.1958 32.1314 26.2177 32.0919L27.3945 30.1344C27.3779 30.0686 27.3528 30.0053 27.32 29.9459C27.196 29.7486 27.0488 29.5668 26.8817 29.4045C24.5742 26.7411 22.2031 24.1435 19.9219 21.4516C18.8875 20.235 19.0453 18.7686 20.2834 17.7843C21.2279 17.0368 22.2162 16.3507 23.1936 15.6514C24.2235 14.9105 25.385 15.0245 26.3294 15.8991C26.6078 16.1621 26.8643 16.4473 27.0964 16.7519C29.2221 19.4941 31.3806 22.2123 33.504 24.9568C33.6947 25.2023 33.8656 25.4807 34.1614 25.6144C34.2272 25.6416 34.2966 25.6594 34.3674 25.667C34.729 24.994 35.0884 24.3167 35.45 23.6415L35.4982 23.5516C35.4583 23.575 35.4202 23.6014 35.3842 23.6306Z" fill="#FEFEFE"/>
<path d="M37.523 21.5745C37.524 21.5876 37.524 21.6008 37.523 21.6139C37.523 21.6315 37.5077 21.649 37.4989 21.6643L37.466 21.6841C37.4823 21.6462 37.5013 21.6095 37.523 21.5745Z" fill="#FEFEFE"/>
<path d="M45.7169 21.1892L45.6881 21.1759C45.687 21.1633 45.687 21.1507 45.6881 21.1382C45.699 21.1544 45.7087 21.1715 45.7169 21.1892Z" fill="#FEFEFE"/>
<path d="M23.9868 34.1567C23.3448 34.1765 22.7334 34.2839 22.2644 34.8144L22.2469 34.8319L24.0504 34.2115L24.1972 34.1611L23.9868 34.1567Z" fill="#FEFEFE"/>
<path d="M52.1921 27.3658H52.1439C52.1439 27.3351 52.1439 27.3066 52.1439 27.2781C52.1624 27.3059 52.1785 27.3352 52.1921 27.3658Z" fill="#FEFEFE"/>
<path d="M56.2703 29.742C56.2587 29.7053 56.2448 29.6694 56.2286 29.6346L56.2155 29.6521C56.2181 29.6691 56.2217 29.6859 56.2264 29.7025L56.2703 29.742ZM54.7516 28.4114L54.8283 28.4771C54.8434 28.4705 54.8575 28.4616 54.87 28.4508L54.7516 28.4114Z" fill="#FEFEFE"/>
<path d="M34.3718 25.6582C34.2337 27.1422 33.2915 27.3724 32.0577 27.1422C31.9745 27.1289 31.8943 27.1007 31.821 27.059L31.9569 27.0085C29.5128 23.8724 27.0635 20.7305 24.6092 17.5826L21.7056 19.8339L29.1256 28.3019L29.2045 28.2361L29.2856 28.1901C29.2968 28.2759 29.2839 28.3632 29.2484 28.4421L27.3923 30.1366L27.2739 30.0073C25.8101 28.4071 24.3375 26.8112 22.8912 25.2001C21.832 24.0237 20.786 22.8348 19.7531 21.6336C18.5873 20.2855 18.7692 18.6568 20.1914 17.5761C21.0679 16.9184 21.9445 16.2667 22.821 15.6207C24.3331 14.5028 25.7728 14.6935 26.9518 16.1907C29.3857 19.28 31.8159 22.3811 34.2425 25.4938L34.3718 25.6582Z" fill="#026F30"/>
<path d="M31.9525 27.0085L31.8167 27.059C30.9418 27.3618 30.0949 27.7403 29.2856 28.1901L29.2045 28.2361L29.1256 28.3019L29.2484 28.4422L32.0533 27.1423L31.9525 27.0085Z" fill="#FEFEFE"/>
<path d="M44.2659 28.8388L42.4186 30.7218C41.2703 29.5841 40.1067 29.4657 38.9299 30.7218L37.1308 28.819C38.7743 26.5897 42.2367 26.5634 44.2659 28.8388Z" fill="#026F30"/>
<path d="M36.103 36.9516L34.2316 38.7995C33.1359 37.686 31.9832 37.6136 30.8174 38.8434L28.9898 36.9165C30.8985 34.696 34.2491 34.6872 36.103 36.9516Z" fill="#026F30"/>
<path d="M47.0708 36.1318L45.1994 34.3102C46.9328 32.0063 50.4237 31.9844 52.3827 34.2729L50.4762 36.0726C49.3915 34.9722 48.2257 34.9064 47.0708 36.1318Z" fill="#026F30"/>
<path d="M26.5552 72.8051C24.8897 75.0716 20.4653 75.1155 18.0679 72.7568L19.9284 70.8979C21.5215 72.1124 23.141 72.1584 24.7933 70.8979L26.5552 72.8051Z" fill="#026F30"/>
<path d="M13.1001 72.7549C11.0248 75.1091 6.83274 75.1223 4.5274 72.7549L6.39665 70.9333C8.29439 72.1455 9.52814 72.1411 11.2703 70.896L13.1001 72.7549Z" fill="#026F30"/>
</svg>