<svg width="26" height="24" viewBox="0 0 26 24" fill="none" xmlns="http://www.w3.org/2000/svg">
<path d="M12.056 0.928568C12.3552 0.00708151 13.6589 0.00708127 13.9582 0.928568L16.1487 7.67363C16.2826 8.08572 16.6666 8.36475 17.0998 8.36475H24.1897C25.1583 8.36475 25.5611 9.60412 24.7776 10.1736L19.041 14.3435C18.6907 14.5981 18.5441 15.0493 18.6779 15.4613L20.8689 22.2076C21.1681 23.129 20.1134 23.895 19.3298 23.3254L13.595 19.1569C13.2445 18.9021 12.7697 18.9021 12.4191 19.1569L6.68431 23.3254C5.90069 23.895 4.84601 23.129 5.14525 22.2076L7.33624 15.4613C7.47002 15.0493 7.32343 14.5981 6.97311 14.3435L1.2365 10.1736C0.453009 9.60412 0.855862 8.36475 1.82447 8.36475H8.9143C9.34758 8.36475 9.73157 8.08572 9.8654 7.67363L12.056 0.928568Z" fill="#DC710E"/>
</svg>
