<svg xmlns="http://www.w3.org/2000/svg" width="32" height="32" viewBox="0 0 32 32" fill="none">
  <path d="M10.5447 29.7674H16.678L17.7002 22.9087H9.52246L10.5447 29.7674Z" fill="#C78640"/>
  <path d="M26.7918 18.1845C26.721 17.8456 26.6152 17.5155 26.4762 17.1999L23.3214 10.0358L21.7881 6.55371H10.5437L5.85557 17.1999C5.57694 17.8331 5.43273 18.5205 5.43262 19.216C5.43256 19.701 5.52506 20.1813 5.70484 20.6294C5.88462 21.0775 6.14815 21.4846 6.48039 21.8276C6.81262 22.1705 7.20705 22.4426 7.64115 22.6281C8.07525 22.8137 8.54051 22.9092 9.01037 22.9091H23.3214C23.7912 22.9092 24.2565 22.8137 24.6905 22.6281C25.1246 22.4425 25.519 22.1704 25.8513 21.8275C26.1835 21.4846 26.447 21.0774 26.6268 20.6293C26.8066 20.1812 26.8991 19.701 26.8991 19.216C26.8993 18.8692 26.8633 18.5234 26.7918 18.1845ZM13.0992 10.7745C12.8281 10.7745 12.5681 10.6633 12.3764 10.4654C12.1847 10.2675 12.077 9.99913 12.077 9.71928C12.077 9.43943 12.1847 9.17103 12.3764 8.97315C12.5681 8.77526 12.8281 8.66409 13.0992 8.66409H19.2325C19.5036 8.66409 19.7636 8.77526 19.9553 8.97315C20.147 9.17103 20.2547 9.43943 20.2547 9.71928C20.2547 9.99913 20.147 10.2675 19.9553 10.4654C19.7636 10.6633 19.5036 10.7745 19.2325 10.7745H13.0992Z" fill="#FFA100"/>
  <path d="M14.1221 19.2161H23.322V22.9092H14.1221V19.2161Z" fill="#FFD873"/>
  <path d="M22.2991 19.2156L21.2768 16.5776H16.1658L15.1436 19.2156H22.2991Z" fill="#FFCC4D"/>
  <path d="M31.4992 0.749878V8.6638H13.6105C13.2935 8.66371 12.9843 8.5622 12.7255 8.37323C12.4667 8.18426 12.271 7.91713 12.1653 7.60861C12.1066 7.43932 12.0768 7.26082 12.0772 7.08101V5.49823C12.0772 4.23892 12.5619 3.03122 13.4246 2.14075C14.2872 1.25028 15.4572 0.749978 16.6771 0.749878H31.4992Z" fill="#FFCEB6"/>
  <path d="M19.7436 19.216V18.1608L23.3214 10.0358L21.7881 6.55371H10.5437L5.85557 17.1999C5.57694 17.8331 5.43273 18.5205 5.43262 19.216C5.43256 19.701 5.52506 20.1813 5.70484 20.6294C5.88462 21.0775 6.14815 21.4846 6.48039 21.8276C6.81262 22.1705 7.20705 22.4426 7.64115 22.6281C8.07525 22.8137 8.54051 22.9092 9.01037 22.9091H23.3214C22.8515 22.9092 22.3863 22.8137 21.9522 22.6281C21.5181 22.4425 21.1237 22.1704 20.7915 21.8275C20.4592 21.4846 20.1957 21.0774 20.0159 20.6293C19.8361 20.1812 19.7436 19.701 19.7436 19.216ZM13.0992 10.7745C12.8281 10.7745 12.5681 10.6633 12.3764 10.4654C12.1847 10.2675 12.077 9.99913 12.077 9.71928C12.077 9.43943 12.1847 9.17103 12.3764 8.97315C12.5681 8.77526 12.8281 8.66409 13.0992 8.66409H19.2325C19.5036 8.66409 19.7636 8.77526 19.9553 8.97315C20.147 9.17103 20.2547 9.43943 20.2547 9.71928C20.2547 9.99913 20.147 10.2675 19.9553 10.4654C19.7636 10.6633 19.5036 10.7745 19.2325 10.7745H13.0992Z" fill="#FFB401"/>
  <path d="M23.3215 0.749878V3.38785H21.7882C21.3816 3.38796 20.9916 3.55475 20.7041 3.85156C20.4166 4.14836 20.255 4.55089 20.2549 4.97064V7.08101C20.2548 7.50076 20.0932 7.90329 19.8057 8.20009C19.5181 8.4969 19.1282 8.66369 18.7215 8.6638H13.6105C13.2935 8.66371 12.9843 8.5622 12.7255 8.37323C12.4667 8.18426 12.271 7.91713 12.1653 7.60861C12.1066 7.43932 12.0768 7.26082 12.0772 7.08101V5.49823C12.0772 4.23892 12.5619 3.03122 13.4246 2.14075C14.2872 1.25028 15.4572 0.749978 16.6771 0.749878H23.3215Z" fill="#FFCEB6"/>
  <path d="M0.833008 21.8538H10.8453C11.1721 21.8538 11.4855 21.9878 11.7165 22.2263C11.9476 22.4648 12.0774 22.7882 12.0774 23.1255C12.0774 23.3744 12.0066 23.6178 11.8739 23.8256C11.7412 24.0334 11.5523 24.1964 11.3307 24.2945L9.1449 25.2615C8.95338 25.3462 8.79016 25.4871 8.67546 25.6666C8.56076 25.8462 8.49962 26.0565 8.49962 26.2716C8.49962 26.5177 8.57836 26.7569 8.7236 26.9521C8.86885 27.1472 9.07247 27.2874 9.30282 27.3508L15.308 29.0038C15.5541 29.0716 15.7717 29.2214 15.9269 29.4299C16.0821 29.6384 16.1662 29.894 16.1662 30.157C16.1662 30.3137 16.1363 30.4689 16.0782 30.6137C16.0201 30.7585 15.935 30.8901 15.8276 31.0009C15.7202 31.1117 15.5928 31.1996 15.4525 31.2596C15.3122 31.3196 15.1619 31.3505 15.0101 31.3505H0.833008V21.8538Z" fill="#FFCEB6"/>
  <path d="M24.8555 0.749878H31.4999V8.6638H24.8555V0.749878Z" fill="#548AFF"/>
  <path d="M16.1658 29.7674H21.2768L22.2991 22.9087H15.1436L16.1658 29.7674Z" fill="#D69651"/>
  <path d="M0.833008 21.8538H4.41076V31.3505H0.833008V21.8538Z" fill="#548AFF"/>
  <path d="M21.7889 2.86011C21.2467 2.86011 20.7267 3.08245 20.3433 3.47822C19.9599 3.874 19.7445 4.41078 19.7445 4.97049V6.55327C19.7442 6.83303 19.6364 7.10123 19.4447 7.29905C19.2531 7.49686 18.9933 7.60814 18.7223 7.60846V5.62264C18.7229 5.08609 18.8166 4.55399 18.9989 4.05152C19.042 3.93006 19.0402 3.79643 18.9938 3.67627C18.9473 3.55612 18.8595 3.45793 18.7471 3.40054C18.6832 3.36741 18.6132 3.34852 18.5417 3.3451C18.4702 3.34168 18.3988 3.35381 18.3322 3.38069C18.2655 3.40757 18.2051 3.44861 18.1548 3.50114C18.1045 3.55368 18.0654 3.61654 18.0401 3.68566C17.816 4.30527 17.7008 4.96123 17.7 5.62264V7.60846H16.6778V5.62264C16.6785 5.08609 16.7721 4.55399 16.9544 4.05152C16.9976 3.93006 16.9958 3.79643 16.9493 3.67627C16.9029 3.55612 16.815 3.45793 16.7027 3.40054C16.6387 3.36741 16.5688 3.34852 16.4973 3.3451C16.4258 3.34168 16.3544 3.35381 16.2877 3.38069C16.2211 3.40757 16.1606 3.44861 16.1103 3.50114C16.06 3.55368 16.021 3.61654 15.9957 3.68566C15.7716 4.30527 15.6564 4.96123 15.6556 5.62264V7.60846H14.6334V5.62264C14.634 5.08609 14.7277 4.55399 14.91 4.05152C14.9532 3.93006 14.9514 3.79643 14.9049 3.67627C14.8584 3.55612 14.7706 3.45793 14.6583 3.40054C14.5943 3.36741 14.5243 3.34852 14.4528 3.3451C14.3814 3.34168 14.31 3.35381 14.2433 3.38069C14.1767 3.40757 14.1162 3.44861 14.0659 3.50114C14.0156 3.55368 13.9766 3.61654 13.9513 3.68566C13.7271 4.30527 13.612 4.96123 13.6112 5.62264V7.60846H12.166C12.2717 7.91698 12.4674 8.18411 12.7262 8.37308C12.985 8.56205 13.2942 8.66356 13.6112 8.66365H18.7223C19.2645 8.66365 19.7845 8.44131 20.1679 8.04553C20.5513 7.64976 20.7667 7.11298 20.7667 6.55327V4.97049C20.7667 4.69063 20.8744 4.42224 21.0661 4.22435C21.2578 4.02647 21.5178 3.9153 21.7889 3.9153H21.789C21.8561 3.9153 21.9226 3.90165 21.9846 3.87515C22.0466 3.84864 22.1029 3.80979 22.1503 3.76081C22.1978 3.71183 22.2354 3.65368 22.2611 3.58968C22.2868 3.52569 22.3 3.4571 22.3 3.38783V3.38757C22.3 3.24768 22.2462 3.11352 22.1503 3.0146C22.0545 2.91568 21.9245 2.86011 21.789 2.86011H21.7889Z" fill="#FFBFA1"/>
</svg>