<svg width="28" height="27" viewBox="0 0 28 27" fill="none" xmlns="http://www.w3.org/2000/svg">
<path opacity="0.2" d="M14 18C18.4183 18 22 14.4183 22 10C22 5.58172 18.4183 2 14 2C9.58172 2 6 5.58172 6 10C6 14.4183 9.58172 18 14 18Z" fill="black"/>
<path d="M26.9876 24.5C25.1217 21.2857 22.135 18.8732 18.6001 17.725C20.2944 16.7175 21.6111 15.1815 22.3479 13.3531C23.0846 11.5246 23.2007 9.50487 22.6782 7.60408C22.1558 5.70329 21.0237 4.0266 19.4559 2.8316C17.8881 1.63659 15.9714 0.98938 14.0001 0.98938C12.0288 0.98938 10.112 1.63659 8.54425 2.8316C6.97647 4.0266 5.84439 5.70329 5.32194 7.60408C4.79948 9.50487 4.91554 11.5246 5.65229 13.3531C6.38905 15.1815 7.70574 16.7175 9.40009 17.725C5.86521 18.8732 2.87851 21.2857 1.01259 24.5C0.934325 24.6136 0.880391 24.7421 0.854175 24.8774C0.827959 25.0128 0.830027 25.1522 0.86025 25.2867C0.890473 25.4213 0.948198 25.5481 1.0298 25.6593C1.1114 25.7704 1.2151 25.8635 1.33441 25.9327C1.45371 26.0018 1.58603 26.0456 1.72305 26.0612C1.86006 26.0767 1.99882 26.0638 2.1306 26.0231C2.26238 25.9825 2.38433 25.9151 2.48878 25.825C2.59324 25.735 2.67795 25.6243 2.73759 25.5C3.88057 23.525 5.52282 21.8852 7.4996 20.7453C9.47638 19.6053 11.7182 19.0053 14.0001 19.0053C16.282 19.0053 18.5238 19.6053 20.5006 20.7453C22.4774 21.8852 24.1196 23.525 25.2626 25.5C25.3222 25.6243 25.4069 25.735 25.5114 25.825C25.6158 25.9151 25.7378 25.9825 25.8696 26.0231C26.0014 26.0638 26.1401 26.0767 26.2771 26.0612C26.4141 26.0456 26.5465 26.0018 26.6658 25.9327C26.7851 25.8635 26.8888 25.7704 26.9704 25.6593C27.052 25.5481 27.1097 25.4213 27.1399 25.2867C27.1701 25.1522 27.1722 25.0128 27.146 24.8774C27.1198 24.7421 27.0659 24.6136 26.9876 24.5V24.5ZM7.00009 10C7.00009 8.61554 7.41063 7.26216 8.1798 6.11102C8.94897 4.95988 10.0422 4.06267 11.3213 3.53285C12.6004 3.00304 14.0079 2.86442 15.3657 3.13451C16.7236 3.40461 17.9709 4.0713 18.9498 5.05026C19.9288 6.02923 20.5955 7.27651 20.8656 8.63438C21.1357 9.99225 20.9971 11.3997 20.4672 12.6788C19.9374 13.9579 19.0402 15.0511 17.8891 15.8203C16.7379 16.5895 15.3846 17 14.0001 17C12.1436 17 10.3631 16.2625 9.05034 14.9498C7.73759 13.637 7.00009 11.8565 7.00009 10Z" fill="black"/>
</svg>
