<svg width="24" height="20" viewBox="0 0 24 20" fill="none" xmlns="http://www.w3.org/2000/svg">
<path d="M23.2969 15.7422H0.703125C0.314812 15.7422 0 16.057 0 16.4453C0 18.128 1.36411 19.4922 3.04688 19.4922H20.9531C22.6358 19.4922 24 18.1281 24 16.4453C24 16.057 23.6852 15.7422 23.2969 15.7422Z" fill="#50429B"/>
<path d="M13.875 2.75725V2.38281C13.875 1.3473 13.0355 0.507812 12 0.507812C10.9645 0.507812 10.125 1.3473 10.125 2.38281V2.75725C10.7401 2.66467 11.3664 2.61719 12 2.61719C12.6336 2.61719 13.2599 2.66467 13.875 2.75725Z" fill="#50429B"/>
<path d="M19.7899 7.24984C17.7093 5.16925 14.9431 4.02344 12.0007 4.02344C9.05831 4.02344 6.29208 5.16925 4.21148 7.24984C2.29753 9.1638 1.17539 11.6582 1.00781 14.3359H22.9935C22.826 11.6582 21.7039 9.1638 19.7899 7.24984Z" fill="#50429B"/>
</svg>