<svg xmlns="http://www.w3.org/2000/svg" width="24" height="24" viewBox="0 0 24 24" fill="none">
  <path d="M14.6625 17.3624C14.6475 17.3399 14.1675 15.7874 14.1675 15.7874C14.036 15.3614 14.0234 14.9075 14.131 14.4747C14.2386 14.042 14.4623 13.6469 14.778 13.3319C15.0937 13.017 15.4894 12.7943 15.9224 12.6878C16.3554 12.5812 16.8092 12.5949 17.235 12.7274L18.72 13.1849C19.0974 13.3071 19.4414 13.5151 19.725 13.7924L21.6825 15.7499L23.1825 17.2574V6.24744C23.1818 5.17155 22.7541 4.13993 21.9933 3.37915C21.2325 2.61838 20.2009 2.19066 19.125 2.18994H4.8075C3.732 2.19194 2.70112 2.62007 1.94062 3.38056C1.18013 4.14106 0.751998 5.17194 0.75 6.24744V14.8049C0.751996 15.8804 1.18012 16.9113 1.94062 17.6718C2.70112 18.4323 3.732 18.8604 4.8075 18.8624H15.8175L15.24 18.2849C14.9818 18.0238 14.7846 17.7088 14.6625 17.3624ZM8.295 5.47494H18.465C18.6639 5.47494 18.8547 5.55396 18.9953 5.69461C19.136 5.83526 19.215 6.02603 19.215 6.22494C19.215 6.42385 19.136 6.61462 18.9953 6.75527C18.8547 6.89592 18.6639 6.97494 18.465 6.97494H8.295C8.09609 6.97494 7.90532 6.89592 7.76467 6.75527C7.62402 6.61462 7.545 6.42385 7.545 6.22494C7.545 6.02603 7.62402 5.83526 7.76467 5.69461C7.90532 5.55396 8.09609 5.47494 8.295 5.47494ZM5.3925 5.39994C5.55641 5.40068 5.71642 5.45002 5.85229 5.5417C5.98816 5.63338 6.0938 5.76329 6.15584 5.91501C6.21787 6.06672 6.23353 6.23343 6.20083 6.39404C6.16812 6.55466 6.08852 6.70197 5.9721 6.81734C5.85567 6.93272 5.70765 7.01098 5.54674 7.04223C5.38584 7.07348 5.21928 7.05632 5.06813 6.99291C4.91699 6.9295 4.78804 6.82269 4.69759 6.686C4.60714 6.5493 4.55926 6.38885 4.56 6.22494C4.56031 6.11606 4.58212 6.00831 4.62416 5.90787C4.6662 5.80743 4.72765 5.71627 4.80499 5.63963C4.88233 5.56298 4.97404 5.50236 5.07486 5.46123C5.17567 5.4201 5.28362 5.39927 5.3925 5.39994ZM5.31 8.93244H18.915C19.1139 8.93244 19.3047 9.01146 19.4453 9.15211C19.586 9.29276 19.665 9.48353 19.665 9.68244C19.665 9.88135 19.586 10.0721 19.4453 10.2128C19.3047 10.3534 19.1139 10.4324 18.915 10.4324H5.31C5.11109 10.4324 4.92032 10.3534 4.77967 10.2128C4.63902 10.0721 4.56 9.88135 4.56 9.68244C4.56 9.48353 4.63902 9.29276 4.77967 9.15211C4.92032 9.01146 5.11109 8.93244 5.31 8.93244ZM12.2625 13.8899H5.31C5.11109 13.8899 4.92032 13.8109 4.77967 13.6703C4.63902 13.5296 4.56 13.3389 4.56 13.1399C4.56 12.941 4.63902 12.7503 4.77967 12.6096C4.92032 12.469 5.11109 12.3899 5.31 12.3899H12.2625C12.4614 12.3899 12.6522 12.469 12.7928 12.6096C12.9335 12.7503 13.0125 12.941 13.0125 13.1399C13.0125 13.3389 12.9335 13.5296 12.7928 13.6703C12.6522 13.8109 12.4614 13.8899 12.2625 13.8899Z" fill="white"/>
  <path d="M18.9315 14.5877C18.7794 14.4354 18.5909 14.3244 18.384 14.2651L16.8989 13.8001C16.6685 13.7293 16.4232 13.7226 16.1893 13.7807C15.9554 13.8389 15.7417 13.9597 15.5713 14.1301C15.4008 14.3005 15.2801 14.5142 15.2219 14.7481C15.1638 14.982 15.1705 15.2274 15.2413 15.4578L15.7063 16.9428C15.7688 17.15 15.8823 17.3383 16.0363 17.4904L19.9666 21.4208C20.216 21.6685 20.5527 21.8086 20.9042 21.8108C21.2561 21.81 21.5932 21.6698 21.8418 21.4208L22.8619 20.4007C23.1104 20.1519 23.25 19.8147 23.25 19.4631C23.25 19.1115 23.1104 18.7742 22.8619 18.5255L18.9315 14.5877Z" fill="white"/>
</svg>