<svg xmlns="http://www.w3.org/2000/svg" width="68" height="68" viewBox="0 0 68 68" fill="none">
<rect width="68" height="68" rx="16" fill="white"/>
<g filter="url(#filter0_d_13297_49905)">
<path fill-rule="evenodd" clip-rule="evenodd" d="M20.1362 43.3169C21.6193 43.3169 23.0691 43.8061 24.3022 44.7227C25.5353 45.6393 26.4964 46.942 27.064 48.4662C27.6316 49.9904 27.78 51.6676 27.4907 53.2857C27.2014 54.9038 26.4872 56.3901 25.4385 57.5567C24.3898 58.7233 23.0537 59.5177 21.5991 59.8396C20.1445 60.1614 18.6368 59.9962 17.2666 59.3649C15.8964 58.7335 14.7253 57.6644 13.9013 56.2926C13.0774 54.9209 12.6376 53.3082 12.6376 51.6584C12.6376 49.4461 13.4276 47.3244 14.8339 45.7601C16.2401 44.1957 18.1474 43.3169 20.1362 43.3169ZM20.1362 45.4568C19.0356 45.4568 17.9598 45.8199 17.0447 46.5002C16.1297 47.1806 15.4166 48.1475 14.9957 49.2787C14.5748 50.4099 14.465 51.6546 14.6801 52.8553C14.8952 54.0559 15.4257 55.1586 16.2043 56.0239C16.9829 56.8891 17.9748 57.4781 19.0544 57.7161C20.1339 57.9542 21.2527 57.8307 22.2692 57.3613C23.2857 56.8919 24.1542 56.0977 24.7648 55.0791C25.3754 54.0606 25.7007 52.8634 25.6996 51.6391C25.6996 49.9978 25.1134 48.4236 24.0701 47.263C23.0268 46.1024 21.6117 45.4504 20.1362 45.4504" fill="#000044"/>
<path fill-rule="evenodd" clip-rule="evenodd" d="M20.1363 45.4571C21.2369 45.4571 22.3127 45.8202 23.2277 46.5005C24.1427 47.1808 24.8558 48.1478 25.2767 49.279C25.6976 50.4102 25.8075 51.6549 25.5923 52.8555C25.3772 54.0562 24.8468 55.1589 24.0681 56.0242C23.2895 56.8894 22.2977 57.4784 21.2181 57.7164C20.1385 57.9545 19.0197 57.831 18.0033 57.3616C16.9868 56.8922 16.1183 56.098 15.5077 55.0794C14.8971 54.0609 14.5717 52.8637 14.5729 51.6394C14.5729 49.9981 15.159 48.4239 16.2024 47.2633C17.2457 46.1027 18.6608 45.4507 20.1363 45.4507M20.1363 47.7831C19.4518 47.7831 18.7826 48.0089 18.2135 48.4319C17.6444 48.8549 17.2008 49.4562 16.9388 50.1597C16.6769 50.8632 16.6083 51.6373 16.7419 52.3841C16.8754 53.1309 17.205 53.8169 17.689 54.3553C18.1731 54.8937 18.7897 55.2604 19.4611 55.4089C20.1324 55.5575 20.8283 55.4812 21.4607 55.1898C22.0931 54.8985 22.6336 54.405 23.0139 53.7719C23.3942 53.1388 23.5972 52.3944 23.5972 51.633C23.5972 50.6119 23.2325 49.6327 22.5835 48.9107C21.9345 48.1887 21.0542 47.7831 20.1363 47.7831Z" fill="#A9C2C2"/>
<path d="M20.1362 56.0249C19.3578 56.0249 18.5969 55.7682 17.9497 55.2873C17.3024 54.8064 16.7978 54.1228 16.4997 53.323C16.2015 52.5231 16.1232 51.6429 16.2747 50.7936C16.4261 49.9443 16.8005 49.164 17.3505 48.5513C17.9005 47.9386 18.6014 47.521 19.3647 47.3513C20.1279 47.1816 20.9193 47.2674 21.6388 47.5979C22.3582 47.9283 22.9734 48.4886 23.4067 49.208C23.84 49.9273 24.0718 50.7733 24.073 51.6392C24.073 52.8007 23.6582 53.9145 22.9199 54.7358C22.1816 55.5571 21.1803 56.0185 20.1362 56.0185M20.1362 45.9702C19.1283 45.9702 18.143 46.3027 17.3049 46.9256C16.4669 47.5485 15.8137 48.4339 15.428 49.4698C15.0422 50.5057 14.9413 51.6455 15.138 52.7452C15.3346 53.8448 15.82 54.855 16.5327 55.6478C17.2454 56.4406 18.1534 56.9805 19.142 57.1993C20.1306 57.418 21.1552 57.3057 22.0864 56.8767C23.0176 56.4476 23.8136 55.721 24.3735 54.7887C24.9335 53.8565 25.2324 52.7604 25.2324 51.6392C25.2324 50.1357 24.6955 48.6938 23.7398 47.6306C22.784 46.5675 21.4878 45.9702 20.1362 45.9702Z" fill="#7E9191"/>
<path fill-rule="evenodd" clip-rule="evenodd" d="M19.4584 50.2726C19.55 50.2172 19.6467 50.1731 19.7468 50.141L19.9314 47.4429H20.3438L20.5313 50.141C20.6312 50.1738 20.7278 50.2179 20.8197 50.2726L22.6684 48.5144L22.8126 48.6748L22.9597 48.8385L21.3763 50.8917C21.4254 50.9939 21.465 51.1014 21.4946 51.2126L23.9201 51.4211V51.8799L21.4946 52.0852C21.4654 52.1965 21.4258 52.304 21.3763 52.406L22.9597 54.4593L22.8126 54.623L22.6684 54.7834L20.8197 53.022C20.7284 53.078 20.6316 53.1222 20.5313 53.1536L20.3438 55.8517H19.9285L19.7439 53.1536C19.6434 53.1228 19.5465 53.0786 19.4555 53.022L17.6068 54.7834L17.4626 54.623L17.3155 54.4593L18.8989 52.406C18.8494 52.304 18.8098 52.1965 18.7806 52.0852L16.3638 51.8767V51.4179L18.7893 51.2094C18.8188 51.0982 18.8584 50.9907 18.9075 50.8885L17.3242 48.8353L17.4713 48.6716L17.6155 48.5112L19.4584 50.2726Z" fill="#A9C2C2"/>
<path fill-rule="evenodd" clip-rule="evenodd" d="M52.5013 53.5257C52.8354 53.5251 53.1619 53.4143 53.4395 53.2073C53.717 53.0003 53.9332 52.7065 54.0607 52.3629C54.1881 52.0193 54.2212 51.6414 54.1557 51.2769C54.0901 50.9124 53.9289 50.5778 53.6925 50.3151C53.456 50.0525 53.1548 49.8738 52.8271 49.8015C52.4993 49.7292 52.1596 49.7667 51.851 49.909C51.5423 50.0514 51.2786 50.2924 51.093 50.6015C50.9074 50.9106 50.8084 51.274 50.8083 51.6457C50.8091 52.1446 50.9878 52.6228 51.3052 52.9752C51.6226 53.3277 52.0528 53.5257 52.5013 53.5257Z" fill="#A9C2C2"/>
<path fill-rule="evenodd" clip-rule="evenodd" d="M53.6953 50.3177C53.9316 50.5807 54.0924 50.9157 54.1576 51.2803C54.2227 51.645 54.1892 52.0229 54.0612 52.3664C53.9333 52.7098 53.7166 53.0034 53.4387 53.2099C53.1608 53.4164 52.8341 53.5267 52.4999 53.5267C52.1657 53.5267 51.839 53.4164 51.561 53.2099C51.2831 53.0034 51.0665 52.7098 50.9386 52.3664C50.8106 52.0229 50.7771 51.645 50.8422 51.2803C50.9073 50.9157 51.0682 50.5807 51.3044 50.3177C51.4614 50.143 51.6477 50.0044 51.8529 49.9098C52.058 49.8153 52.2778 49.7666 52.4999 49.7666C52.7219 49.7666 52.9418 49.8153 53.1469 49.9098C53.352 50.0044 53.5384 50.143 53.6953 50.3177Z" fill="#A9C2C2"/>
<path fill-rule="evenodd" clip-rule="evenodd" d="M54.1914 51.6393C54.1914 52.0112 54.0923 52.3746 53.9066 52.6838C53.7209 52.993 53.4569 53.234 53.1481 53.3762C52.8393 53.5185 52.4995 53.5558 52.1716 53.4832C51.8438 53.4107 51.5427 53.2316 51.3063 52.9687C51.0699 52.7058 50.909 52.3708 50.8438 52.0061C50.7785 51.6414 50.812 51.2634 50.9399 50.9199C51.0678 50.5763 51.2845 50.2827 51.5624 50.0761C51.8403 49.8695 52.1671 49.7593 52.5014 49.7593C52.9496 49.7593 53.3795 49.9574 53.6964 50.3099C54.0134 50.6625 54.1914 51.1407 54.1914 51.6393Z" fill="#A9C2C2"/>
<path fill-rule="evenodd" clip-rule="evenodd" d="M53.6953 52.9774C53.4589 53.2402 53.1577 53.4192 52.8299 53.4916C52.5021 53.5641 52.1624 53.5268 51.8536 53.3844C51.5448 53.2421 51.281 53.0011 51.0953 52.692C50.9096 52.3828 50.8105 52.0194 50.8105 51.6476C50.8105 51.2758 50.9096 50.9124 51.0953 50.6033C51.281 50.2941 51.5448 50.0531 51.8536 49.9108C52.1624 49.7685 52.5021 49.7312 52.8299 49.8036C53.1577 49.8761 53.4589 50.055 53.6953 50.3178C53.8523 50.4924 53.9769 50.6997 54.0619 50.9279C54.1469 51.1561 54.1907 51.4006 54.1907 51.6476C54.1907 51.8946 54.1469 52.1392 54.0619 52.3674C53.9769 52.5955 53.8523 52.8028 53.6953 52.9774Z" fill="#A9C2C2"/>
<path fill-rule="evenodd" clip-rule="evenodd" d="M52.5014 53.5257C52.1671 53.5257 51.8403 53.4154 51.5624 53.2089C51.2845 53.0023 51.0678 52.7087 50.9399 52.3651C50.812 52.0216 50.7785 51.6436 50.8438 51.2789C50.909 50.9142 51.0699 50.5792 51.3063 50.3163C51.5427 50.0533 51.8438 49.8743 52.1716 49.8018C52.4995 49.7292 52.8393 49.7664 53.1481 49.9087C53.4569 50.051 53.7209 50.292 53.9066 50.6012C54.0923 50.9103 54.1914 51.2738 54.1914 51.6457C54.1914 51.8926 54.1477 52.137 54.0628 52.3651C53.9778 52.5932 53.8534 52.8005 53.6964 52.9751C53.5395 53.1496 53.3532 53.2881 53.1481 53.3826C52.9431 53.4771 52.7233 53.5257 52.5014 53.5257Z" fill="#A9C2C2"/>
<path fill-rule="evenodd" clip-rule="evenodd" d="M51.3044 52.9771C51.0682 52.7141 50.9073 52.3791 50.8422 52.0144C50.7771 51.6498 50.8106 51.2718 50.9386 50.9284C51.0665 50.5849 51.2831 50.2914 51.561 50.0848C51.839 49.8783 52.1657 49.7681 52.4999 49.7681C52.8341 49.7681 53.1608 49.8783 53.4387 50.0848C53.7166 50.2914 53.9333 50.5849 54.0612 50.9284C54.1892 51.2718 54.2227 51.6498 54.1576 52.0144C54.0924 52.3791 53.9316 52.7141 53.6953 52.9771C53.5384 53.1518 53.352 53.2904 53.1469 53.3849C52.9418 53.4795 52.7219 53.5281 52.4999 53.5281C52.2778 53.5281 52.058 53.4795 51.8529 53.3849C51.6477 53.2904 51.4614 53.1518 51.3044 52.9771Z" fill="#A9C2C2"/>
<path fill-rule="evenodd" clip-rule="evenodd" d="M50.8084 51.6394C50.8078 51.2668 50.9066 50.9024 51.0923 50.5922C51.2779 50.2821 51.5421 50.0402 51.8514 49.8972C52.1607 49.7542 52.5012 49.7164 52.8298 49.7887C53.1584 49.861 53.4603 50.0401 53.6974 50.3034C53.9344 50.5666 54.096 50.9022 54.1615 51.2676C54.2271 51.633 54.1937 52.0118 54.0657 52.3561C53.9376 52.7004 53.7206 52.9947 53.4422 53.2018C53.1637 53.4089 52.8363 53.5194 52.5013 53.5194C52.2791 53.5199 52.059 53.4715 51.8537 53.3772C51.6483 53.2829 51.4616 53.1445 51.3044 52.9699C51.1471 52.7953 51.0224 52.5879 50.9373 52.3596C50.8522 52.1313 50.8084 51.8865 50.8084 51.6394Z" fill="#A9C2C2"/>
<path fill-rule="evenodd" clip-rule="evenodd" d="M52.5013 43.3169C53.9844 43.3169 55.4342 43.8061 56.6673 44.7227C57.9004 45.6393 58.8616 46.942 59.4291 48.4662C59.9967 49.9904 60.1452 51.6676 59.8558 53.2857C59.5665 54.9038 58.8523 56.3901 57.8036 57.5567C56.7549 58.7233 55.4188 59.5177 53.9642 59.8396C52.5096 60.1614 51.0019 59.9962 49.6317 59.3649C48.2615 58.7335 47.0904 57.6644 46.2664 56.2926C45.4425 54.9209 45.0027 53.3082 45.0027 51.6584C45.0027 49.4461 45.7927 47.3244 47.199 45.7601C48.6052 44.1957 50.5125 43.3169 52.5013 43.3169ZM52.5013 45.4568C51.4007 45.4568 50.3249 45.8199 49.4098 46.5002C48.4948 47.1806 47.7818 48.1475 47.3608 49.2787C46.9399 50.4099 46.8301 51.6546 47.0452 52.8553C47.2604 54.0559 47.7908 55.1586 48.5694 56.0239C49.3481 56.8891 50.3399 57.4781 51.4195 57.7161C52.499 57.9542 53.6178 57.8307 54.6343 57.3613C55.6508 56.8919 56.5193 56.0977 57.1299 55.0791C57.7405 54.0606 58.0658 52.8634 58.0647 51.6391C58.0647 49.9978 57.4786 48.4236 56.4352 47.263C55.3919 46.1024 53.9768 45.4504 52.5013 45.4504" fill="#000044"/>
<path fill-rule="evenodd" clip-rule="evenodd" d="M52.5016 45.4571C53.602 45.4577 54.6776 45.8214 55.5923 46.5021C56.5069 47.1828 57.2195 48.1499 57.64 49.2812C58.0605 50.4125 58.1699 51.6571 57.9544 52.8575C57.739 54.058 57.2083 55.1604 56.4295 56.0253C55.6508 56.8903 54.659 57.4789 53.5795 57.7167C52.5 57.9545 51.3813 57.8308 50.365 57.3613C49.3487 56.8918 48.4804 56.0976 47.8699 55.0791C47.2594 54.0606 46.9342 52.8636 46.9353 51.6394C46.9353 49.9981 47.5214 48.4239 48.5648 47.2633C49.6081 46.1027 51.0232 45.4507 52.4987 45.4507M52.4987 47.7831C51.8142 47.7831 51.1451 48.0089 50.5759 48.4319C50.0068 48.8549 49.5632 49.4562 49.3012 50.1597C49.0393 50.8632 48.9708 51.6373 49.1043 52.3841C49.2378 53.1309 49.5675 53.8169 50.0515 54.3553C50.5355 54.8937 51.1522 55.2604 51.8235 55.4089C52.4949 55.5575 53.1907 55.4812 53.8231 55.1899C54.4555 54.8985 54.996 54.405 55.3763 53.7719C55.7566 53.1388 55.9596 52.3944 55.9596 51.633C55.9596 50.6119 55.595 49.6327 54.9459 48.9107C54.2969 48.1887 53.4166 47.7831 52.4987 47.7831Z" fill="#A9C2C2"/>
<path d="M52.5013 56.0249C51.7228 56.0255 50.9617 55.7694 50.314 55.2889C49.6663 54.8083 49.1613 54.125 48.8627 53.3252C48.5642 52.5254 48.4855 51.6451 48.6366 50.7956C48.7877 49.9461 49.1618 49.1654 49.7117 48.5524C50.2616 47.9394 50.9625 47.5215 51.7258 47.3515C52.4892 47.1816 53.2807 47.2672 54.0003 47.5976C54.72 47.9279 55.3354 48.4882 55.7688 49.2076C56.2022 49.927 56.4341 50.7732 56.4352 51.6392C56.4352 52.8001 56.0209 53.9135 55.2832 54.7347C54.5455 55.5559 53.5449 56.0176 52.5013 56.0185M52.5013 45.9702C51.4938 45.9721 50.5093 46.3062 49.6724 46.9303C48.8355 47.5544 48.1837 48.4404 47.7993 49.4764C47.4149 50.5125 47.3152 51.652 47.5128 52.7511C47.7104 53.8501 48.1965 54.8593 48.9095 55.6512C49.6226 56.443 50.5306 56.982 51.519 57.2C52.5073 57.4179 53.5315 57.3051 54.4622 56.8757C55.3929 56.4464 56.1883 55.7198 56.7479 54.7877C57.3075 53.8557 57.6062 52.76 57.6062 51.6392C57.6062 50.1357 57.0692 48.6938 56.1135 47.6306C55.1578 46.5675 53.8616 45.9702 52.51 45.9702" fill="#7E9191"/>
<path fill-rule="evenodd" clip-rule="evenodd" d="M51.8206 50.2726C51.9123 50.2175 52.009 50.1734 52.109 50.141L52.2936 47.4429H52.7031L52.8906 50.141C52.9905 50.1738 53.0871 50.2179 53.179 50.2726L55.0248 48.5144L55.1719 48.6748L55.3161 48.8385L53.7356 50.8917C53.7848 50.9939 53.8244 51.1014 53.8539 51.2126L56.2794 51.4211V51.8799L53.8539 52.0852C53.8247 52.1965 53.7851 52.304 53.7356 52.406L55.3161 54.4593L55.1719 54.623L55.0248 54.7834L53.179 53.022C53.0877 53.078 52.9909 53.1222 52.8906 53.1536L52.7031 55.8517H52.2907L52.1061 53.1536C52.0057 53.1225 51.9088 53.0784 51.8177 53.022L49.9719 54.7834L49.8248 54.623L49.6806 54.4593L51.264 52.406C51.2133 52.3047 51.1736 52.197 51.1457 52.0852L48.7202 51.8799V51.4211L51.1457 51.2126C51.1739 51.1009 51.2136 50.9933 51.264 50.8917L49.6806 48.8385L49.8248 48.6748L49.9719 48.5144L51.8206 50.2726Z" fill="#A9C2C2"/>
<path fill-rule="evenodd" clip-rule="evenodd" d="M46.1072 41.1256L47.4656 40.2529L53.1242 51.3182C53.3376 51.7321 53.1415 52.1684 52.8357 52.5085C52.53 52.8486 51.9705 52.6047 51.7657 52.1877L46.1072 41.1256Z" fill="black"/>
<path fill-rule="evenodd" clip-rule="evenodd" d="M52.5014 40.9976C53.349 40.9997 54.1926 41.1259 55.0106 41.3729C55.1278 41.4073 55.2348 41.4757 55.3206 41.571C55.4064 41.6663 55.468 41.7853 55.499 41.9156C55.5301 42.046 55.5295 42.1833 55.4975 42.3134C55.4654 42.4434 55.4028 42.5617 55.3163 42.6562L44.4 54.7995C44.3151 54.8958 44.2088 54.9653 44.0918 55.001C43.9749 55.0367 43.8515 55.0373 43.7343 55.0028C43.6171 54.9682 43.5102 54.8997 43.4245 54.8043C43.3388 54.7088 43.2773 54.5898 43.2464 54.4594C42.8613 52.8803 42.8081 51.2239 43.091 49.6182C43.3738 48.0126 43.985 46.501 44.8773 45.2003C45.7696 43.8997 46.9191 42.845 48.2367 42.1178C49.5543 41.3907 51.0047 41.0107 52.4755 41.0072L52.5014 40.9976Z" fill="#463796"/>
<path fill-rule="evenodd" clip-rule="evenodd" d="M19.8507 38.9186L34.7008 38.6748C31.8975 44.8026 31.7735 49.23 34.7008 52.9259H27.9001L27.4185 52.3965H11.0254C10.8273 52.3961 10.6316 52.3487 10.4513 52.2575C10.271 52.1664 10.1103 52.0334 9.97979 51.8677C9.84932 51.7019 9.75214 51.5071 9.69472 51.2962C9.63729 51.0853 9.62095 50.8633 9.64679 50.6448C10.3938 44.424 13.8114 39.8041 19.2479 39.4833C19.8939 39.448 19.9718 39.079 19.8507 38.9186Z" fill="#463796"/>
<path fill-rule="evenodd" clip-rule="evenodd" d="M32.4455 52.0919H33.1982C30.914 48.1361 31.7418 43.7504 33.4866 39.5284H32.9098C32.6602 39.5263 32.4161 39.6091 32.2099 39.7656C32.0037 39.9221 31.8455 40.1449 31.7562 40.4042C30.4584 44.0584 29.9363 47.7832 31.2919 51.2481C31.385 51.5019 31.5451 51.7184 31.7511 51.869C31.957 52.0196 32.1991 52.0973 32.4455 52.0919Z" fill="#371A45"/>
<path fill-rule="evenodd" clip-rule="evenodd" d="M27.7559 52.5567H34.3893C36.4976 52.5567 39.3268 52.8775 40.6506 50.4488L46.4621 39.7172C47.2004 38.3505 47.209 37.3078 46.8081 35.4502L45.4815 29.2936C45.3632 28.745 45.3084 28.3311 45.7699 28.3311H46.3813C46.6612 28.3286 46.9335 28.4321 47.1536 28.6245C47.3737 28.8168 47.5285 29.0867 47.5926 29.3898L48.7664 34.7701C49.0058 35.8577 49.8105 39.4541 49.2971 40.4134L42.185 53.6828H27.6117C27.6782 53.3106 27.7264 52.9347 27.7559 52.5567Z" fill="#371A45"/>
<path d="M42.0263 53.5771H27.5021C27.4049 53.5771 27.3262 53.6648 27.3262 53.7729V54.4947C27.3262 54.6028 27.4049 54.6904 27.5021 54.6904H42.0263C42.1235 54.6904 42.2023 54.6028 42.2023 54.4947V53.7729C42.2023 53.6648 42.1235 53.5771 42.0263 53.5771Z" fill="#463796"/>
<path fill-rule="evenodd" clip-rule="evenodd" d="M20.1131 40.6445C22.6701 40.6446 25.1403 41.6763 27.0656 43.5483C28.9908 45.4203 30.2403 48.0055 30.5823 50.8243C30.6057 51.0202 30.5913 51.2193 30.54 51.4084C30.4887 51.5975 30.4017 51.7723 30.2849 51.9211C30.1681 52.0699 30.0241 52.1892 29.8625 52.2712C29.701 52.3531 29.5255 52.3958 29.3479 52.3964H10.884C10.7065 52.3958 10.531 52.3531 10.3695 52.2712C10.2079 52.1892 10.0639 52.0699 9.94707 51.9211C9.83024 51.7723 9.74329 51.5975 9.692 51.4084C9.64072 51.2193 9.62628 51.0202 9.64966 50.8243C9.99158 48.0066 11.2403 45.4222 13.1643 43.5504C15.0883 41.6786 17.5571 40.6461 20.1131 40.6445Z" fill="#371A45"/>
<path fill-rule="evenodd" clip-rule="evenodd" d="M20.1131 41.7803C22.2841 41.7803 24.3814 42.6563 26.016 44.2457C27.6505 45.8351 28.7114 48.03 29.0018 50.4233C29.0249 50.5896 29.0141 50.7596 28.9701 50.9207C28.9262 51.0817 28.8503 51.2297 28.748 51.3537C28.7224 51.3881 28.6944 51.4203 28.6644 51.45C28.0877 49.4304 26.9481 47.6675 25.4108 46.4163C23.8734 45.1652 22.0179 44.4908 20.1131 44.4908C18.2082 44.4908 16.3528 45.1652 14.8154 46.4163C13.278 47.6675 12.1385 49.4304 11.5618 51.45C11.5318 51.4203 11.5038 51.3881 11.4781 51.3537C11.3759 51.2297 11.2999 51.0817 11.256 50.9207C11.2121 50.7596 11.2013 50.5896 11.2243 50.4233C11.5147 48.03 12.5756 45.8351 14.2102 44.2457C15.8448 42.6563 17.9421 41.7803 20.1131 41.7803Z" fill="#463796"/>
<path d="M34.7614 35.8677H19.5854C19.4038 35.8677 19.2566 36.0314 19.2566 36.2334V38.553C19.2566 38.755 19.4038 38.9187 19.5854 38.9187H34.7614C34.943 38.9187 35.0902 38.755 35.0902 38.553V36.2334C35.0902 36.0314 34.943 35.8677 34.7614 35.8677Z" fill="black"/>
<path d="M26.1034 17.3877H8.61719C8.27633 17.3877 8 17.6951 8 18.0743V35.1422C8 35.5214 8.27633 35.8288 8.61719 35.8288H26.1034C26.4442 35.8288 26.7206 35.5214 26.7206 35.1422V18.0743C26.7206 17.6951 26.4442 17.3877 26.1034 17.3877Z" fill="#371A45"/>
<path fill-rule="evenodd" clip-rule="evenodd" d="M9.62085 18.4434H25.0997C25.2448 18.4442 25.3838 18.5087 25.4864 18.6228C25.589 18.737 25.6469 18.8915 25.6477 19.0529V25.3315C20.1131 27.8179 12.9491 22.0077 9.07288 30.1856V19.0529C9.07363 18.8915 9.13161 18.737 9.23421 18.6228C9.33681 18.5087 9.47575 18.4442 9.62085 18.4434Z" fill="#463796"/>
<path fill-rule="evenodd" clip-rule="evenodd" d="M49.8191 30.6223C50.197 30.5838 50.5719 31.4565 50.6555 32.5665C50.7392 33.6766 50.5027 34.6038 50.1248 34.6391C49.747 34.6744 49.3721 33.8017 49.2856 32.6949C49.1991 31.588 49.4471 30.6576 49.8191 30.6223Z" fill="#F1CF00"/>
<path fill-rule="evenodd" clip-rule="evenodd" d="M49.6721 30.3555C49.7055 30.3491 49.7398 30.3505 49.7728 30.3595C49.8058 30.3685 49.8368 30.3849 49.8638 30.4078C49.8909 30.4307 49.9134 30.4595 49.93 30.4924C49.9466 30.5253 49.957 30.5617 49.9605 30.5993L50.37 34.5808C50.3749 34.6179 50.373 34.6557 50.3646 34.692C50.3562 34.7284 50.3413 34.7625 50.3209 34.7923C50.3005 34.8222 50.275 34.8473 50.2458 34.866C50.2166 34.8848 50.1843 34.8969 50.1508 34.9016C48.8761 35.0652 47.7397 34.1797 47.6128 32.9285C47.4859 31.6773 48.4002 30.5159 49.6721 30.3555Z" fill="#463796"/>
<path fill-rule="evenodd" clip-rule="evenodd" d="M49.271 30.4422L49.793 34.9081C49.9086 34.9112 50.0243 34.9047 50.1391 34.8889C50.1726 34.8842 50.2048 34.8721 50.234 34.8533C50.2633 34.8346 50.2888 34.8095 50.3092 34.7796C50.3296 34.7498 50.3445 34.7157 50.3529 34.6793C50.3613 34.643 50.3632 34.6052 50.3583 34.5681L49.9488 30.5866C49.9453 30.549 49.9349 30.5126 49.9183 30.4797C49.9017 30.4468 49.8791 30.418 49.8521 30.3951C49.8251 30.3722 49.7941 30.3558 49.7611 30.3468C49.7281 30.3378 49.6938 30.3364 49.6603 30.3428C49.5284 30.3645 49.3982 30.3977 49.271 30.4422Z" fill="#9DC6C6"/>
<path d="M43.0387 28.2255L42.9669 28.5362C42.93 28.6958 43.0165 28.8584 43.1599 28.8994L45.9142 29.6867C46.0576 29.7277 46.2038 29.6315 46.2407 29.4719L46.3125 29.1612C46.3493 29.0016 46.2629 28.839 46.1194 28.798L43.3652 28.0108C43.2217 27.9697 43.0755 28.0659 43.0387 28.2255Z" fill="black"/>
<path d="M34.8048 50.3337C34.6794 50.6116 34.5827 50.9043 34.5164 51.2064C34.4804 51.3583 34.4723 51.5167 34.4926 51.6721C34.5129 51.8276 34.5612 51.9769 34.6346 52.1111C34.923 52.6052 35.5691 52.618 36.1055 52.5795L36.8929 52.5249C37.2274 52.4993 37.6197 52.4383 37.7869 52.1143C37.9542 51.7903 37.8331 51.4726 37.7494 51.1518C37.5503 50.4241 37.453 49.6667 37.461 48.906C37.4793 48.6822 37.4578 48.4565 37.3976 48.2419C37.3376 48.1002 37.2492 47.9756 37.1392 47.8777C37.0292 47.7799 36.9006 47.7113 36.7631 47.6773C36.1488 47.4912 35.6844 47.5072 35.5172 48.1617C35.3309 48.9052 35.0927 49.6315 34.8048 50.3337Z" fill="#191213"/>
<path d="M36.8954 40.1793C37.0435 40.3342 37.1553 40.5269 37.2213 40.7408C37.2565 40.947 37.2405 41.1599 37.1751 41.3568C36.9415 42.239 36.4224 43.0379 36.3762 43.9555C36.384 44.2318 36.3743 44.5084 36.3474 44.7832C36.2785 45.0841 36.1633 45.3696 36.0071 45.627L35.4303 46.6793C35.2954 46.8839 35.2182 47.1284 35.2082 47.3819C35.2341 47.8599 35.7014 48.1326 36.108 48.2834C36.3416 48.37 36.6387 48.4342 36.8117 48.2353C36.8758 48.1474 36.9229 48.0459 36.9502 47.9369C37.6539 45.6056 38.3595 43.2753 39.0671 40.9461C39.243 40.3622 39.419 39.7206 39.2257 39.1463C39.0094 38.5046 38.4182 38.1613 37.8702 37.863L36.3474 37.032C35.9033 36.7882 35.3005 36.5765 34.9746 36.9903C34.5189 37.5678 34.9746 38.0426 35.3293 38.3506C35.9177 38.8287 36.4109 39.5922 36.8954 40.1793Z" fill="#2E4C5E"/>
<path d="M35.8515 50.542C35.6391 51.0214 35.5342 51.5508 35.5458 52.0851C35.5487 52.2033 35.5885 52.3167 35.6583 52.406C35.7269 52.4675 35.8082 52.5093 35.8948 52.5279C37.3839 52.9676 38.9422 53.0345 40.4574 52.7236C40.6798 52.6977 40.8929 52.6105 41.0775 52.4701C41.1662 52.3994 41.2327 52.2993 41.2674 52.1841C41.3021 52.0689 41.3032 51.9444 41.2707 51.8285C41.1611 51.5493 40.841 51.482 40.567 51.4499C40.0778 51.4145 39.5997 51.2728 39.1595 51.0328C38.9417 50.9111 38.7557 50.7291 38.6194 50.5044C38.483 50.2797 38.4009 50.0197 38.3808 49.7495C38.3808 49.3356 38.5395 48.8352 38.2597 48.5625C38.1133 48.4506 37.9383 48.3944 37.7608 48.402C37.1839 48.3603 36.8667 48.2192 36.512 48.6972C36.1976 49.095 36.0303 50.035 35.8515 50.542Z" fill="#281B1C"/>
<path d="M28.3819 23.291C27.1215 25.9282 26.4841 28.8605 25.8583 31.7704C25.7849 32.0231 25.7691 32.2921 25.8122 32.5532C25.8376 32.682 25.9044 32.7959 25.9999 32.8739C26.0955 32.9518 26.2133 32.9884 26.3313 32.9767C26.3313 33.2238 26.3313 33.474 26.3313 33.7243C26.5016 33.9678 26.7175 34.1671 26.964 34.3084C27.2106 34.4497 27.4818 34.5295 27.7589 34.5424C28.3129 34.5662 28.8669 34.4981 29.4028 34.3402L32.9301 33.5125C33.1704 33.4913 33.3967 33.3779 33.5703 33.1917C33.7203 32.9831 33.6655 32.5885 33.429 32.55C34.2596 32.3832 34.6086 31.2956 34.8018 30.3813C34.9951 29.4669 35.1912 28.5397 35.3988 27.6093C35.7551 26.1636 35.9689 24.6791 36.0362 23.1819C36.0362 22.0719 35.9526 20.8078 36.6592 20.025C36.8784 19.7812 37.1726 19.5919 37.2821 19.2678C37.4494 18.7738 37.1033 18.2605 36.7803 17.869L35.4998 16.3483C35.4422 16.2559 35.3541 16.1924 35.2546 16.1719C35.1971 16.1782 35.1415 16.1984 35.0917 16.2311C35.0419 16.2638 34.9991 16.3082 34.9662 16.3612C34.4704 16.9924 33.8547 17.4931 33.1637 17.8273C32.4581 18.2173 31.8 18.7057 31.2054 19.2807C30.1152 20.3202 28.9212 21.8024 28.3819 23.291Z" fill="#50429B"/>
<path d="M30.6315 25.2644C30.4613 26.9166 30.8247 28.7261 31.9264 29.849C32.6982 30.5801 33.6584 31.0204 34.6692 31.1066C35.6724 31.1883 36.6807 31.1529 37.6773 31.0007L37.8647 30.619L38.58 30.8981L38.8396 30.5516C38.8871 30.6915 38.9791 30.8073 39.0981 30.877C39.2171 30.9468 39.3549 30.9657 39.4856 30.9302C39.5654 30.1612 39.7665 29.414 40.0797 28.7229C38.2627 28.325 36.4227 27.9144 34.7615 27C34.5159 26.8166 34.2178 26.7412 33.9251 26.7883C34.1449 25.4404 34.2041 24.0661 34.101 22.701C34.052 22.0593 33.9539 21.3727 33.579 20.8723C31.8197 18.527 30.7411 24.1832 30.6315 25.2644Z" fill="#50429B"/>
<path d="M34.1962 21.8571C34.1612 21.5398 34.0854 21.2297 33.9713 20.9363C33.8415 20.6348 33.556 20.3524 33.2733 20.4551C32.9272 20.5834 32.9186 21.116 32.9849 21.5138C33.1522 22.6773 33.3214 23.843 33.4925 25.0108C33.6136 25.8385 33.7348 26.708 33.4925 27.5004L33.9713 27.4491L34.0059 28.0362C35.2434 28.4376 36.5139 28.6998 37.7984 28.819C37.7725 28.2929 37.187 28.0843 36.7256 27.9656C36.1604 27.832 35.6114 27.6241 35.0903 27.3464C34.4587 26.9903 34.5394 26.862 34.5308 26.0631C34.5163 24.6536 34.4045 23.2475 34.1962 21.8571Z" fill="#371A45"/>
<path d="M36.0853 19.916C36.3634 19.6957 36.6171 19.4393 36.8409 19.1524L36.1747 18.2252C36.1441 18.1751 36.1037 18.1334 36.0564 18.1033C36.0074 18.0824 35.954 18.0779 35.9027 18.0905C35.8514 18.103 35.8046 18.132 35.768 18.1739C35.6739 18.2813 35.6112 18.4177 35.5881 18.5654C35.5649 18.7131 35.5824 18.8652 35.6382 19.0016C35.7542 19.2725 35.9191 19.5139 36.1227 19.7106" fill="#371A45"/>
<path d="M33.4953 32.3545C33.2411 32.5433 32.9315 32.6168 32.6301 32.5598C32.481 32.5663 32.333 32.5298 32.2004 32.4539C32.1329 32.4166 32.0813 32.3514 32.0565 32.2723C32.0317 32.1931 32.0357 32.1063 32.0677 32.0304C32.1131 31.9704 32.171 31.9236 32.2363 31.894C32.3016 31.8644 32.3724 31.8529 32.4426 31.8604C32.6456 31.8619 32.8477 31.8306 33.0425 31.7674C33.1399 31.7341 33.2282 31.6745 33.2997 31.5939C33.3712 31.5132 33.4236 31.4141 33.4521 31.3054C33.4933 31.2861 33.5378 31.2766 33.5826 31.2774C33.6273 31.2782 33.6715 31.2894 33.7121 31.3102C33.7528 31.331 33.7892 31.361 33.8189 31.3983C33.8486 31.4356 33.871 31.4793 33.8847 31.5267C33.9073 31.6249 33.9067 31.7279 33.883 31.8257C33.8592 31.9235 33.8131 32.0129 33.7491 32.085C33.6192 32.2275 33.4679 32.3437 33.3021 32.4283" fill="#371A45"/>
<path d="M27.8395 36.2557C28.624 36.7594 29.5498 36.8974 30.4352 37L33.4375 37.3882C34.8219 37.5647 36.3649 37.8374 37.2099 39.0694C37.2798 39.2134 37.3917 39.3265 37.5272 39.3902C37.6847 39.3985 37.8415 39.3621 37.9829 39.2843C38.1328 39.233 38.3491 39.2843 38.3636 39.4608C38.2839 39.5418 38.2212 39.6412 38.1799 39.7521C38.1385 39.8629 38.1195 39.9825 38.1242 40.1024L38.4645 40.0383C38.4752 40.1948 38.4575 40.3522 38.4124 40.501C38.3673 40.6498 38.2958 40.7871 38.2021 40.9045C37.7262 41.7361 37.4355 42.682 37.3541 43.6636C37.2993 44.3598 37.3541 45.1041 37.0138 45.6976C36.8667 45.9671 36.6533 46.1885 36.5004 46.4548C36.3494 46.7181 36.2658 47.0223 36.2589 47.3345C36.2521 47.6468 36.322 47.9552 36.4613 48.2264C36.6006 48.4976 36.8039 48.7213 37.0492 48.8733C37.2945 49.0253 37.5725 49.0998 37.8531 49.0888C38.7356 49.0053 39.3297 48.0717 39.7566 47.2055C41.0976 44.5804 41.9683 41.691 42.3205 38.6972C42.3974 38.2035 42.3797 37.6973 42.2686 37.2118C41.9629 36.1338 40.9246 35.5724 39.9786 35.1553C38.3886 34.4495 36.7658 33.8164 35.1103 33.256C34.666 33.092 34.2064 32.9844 33.7404 32.9352C33.3225 32.9219 32.9044 32.952 32.4916 33.025L27.73 33.7084C26.9916 33.8174 26.3975 33.6827 26.66 34.6901C26.8627 35.3581 27.2837 35.9169 27.8395 36.2557Z" fill="#3D5E77"/>
<path d="M38.5711 36.0888C39.0522 36.2583 39.5004 36.5271 39.892 36.8813C40.7774 37.8116 40.7024 39.4126 40.3217 40.7023C39.941 41.992 39.3209 43.2368 39.3296 44.5939C39.5113 44.7736 39.768 44.5041 39.8805 44.2731C40.7079 42.5271 41.2415 40.6276 41.4552 38.6683C41.5545 38.1569 41.4955 37.6233 41.2879 37.154C41.0442 36.7944 40.7144 36.5187 40.3361 36.3583C38.4932 35.3573 36.1571 33.9521 34.1008 33.7051C34.0431 34.7221 37.7895 35.7584 38.5711 36.0888Z" fill="#4A6D82"/>
<path d="M41.098 30.6474C41.2812 30.6599 41.4652 30.6481 41.6459 30.6121C42.3266 30.4324 42.7102 29.563 43.3764 29.3481C43.418 29.3357 43.4617 29.3357 43.5033 29.3481C43.5632 29.3675 43.6158 29.408 43.6533 29.4636C43.7511 29.6077 43.8634 29.739 43.9878 29.855C44.0497 29.9138 44.1251 29.9524 44.2055 29.9666C44.2859 29.9807 44.3683 29.9699 44.4435 29.9352C44.479 29.9151 44.5098 29.886 44.5333 29.8502C44.5568 29.8144 44.5725 29.773 44.5789 29.7293C44.5854 29.6855 44.5825 29.6407 44.5705 29.5985C44.5585 29.5562 44.5377 29.5177 44.5098 29.486C44.5435 29.5626 44.6031 29.6212 44.6756 29.6488C44.7481 29.6765 44.8275 29.671 44.8963 29.6336C44.9651 29.5962 45.0178 29.5298 45.0427 29.4492C45.0676 29.3686 45.0626 29.2803 45.029 29.2037C45.0636 29.2648 45.1142 29.3127 45.174 29.3408C45.2339 29.3689 45.3 29.3759 45.3635 29.3609C45.4265 29.3435 45.4832 29.3054 45.5264 29.2516C45.5696 29.1978 45.5973 29.1308 45.6058 29.0593C45.6231 28.8476 45.4702 28.6711 45.3433 28.5139C45.1588 28.2829 45.003 28.023 44.8098 27.8017C44.6257 27.5644 44.3725 27.4066 44.0945 27.3557C43.8735 27.3429 43.6527 27.3857 43.4485 27.4809C42.9785 27.6598 42.5239 27.8852 42.0901 28.1546C41.7534 28.3905 41.4048 28.6048 41.0461 28.7962C40.6864 28.9835 40.2838 29.044 39.8924 28.9695C39.653 28.9085 39.3156 30.3394 39.4165 30.5415C39.5175 30.7436 39.9472 30.641 40.126 30.6474H41.098Z" fill="#EDB38C"/>
<path d="M42.4966 14.0288C42.6697 14.3496 43.0734 14.4523 43.2032 14.7859C42.9637 14.8912 42.7472 15.0521 42.5682 15.2579C42.3891 15.4637 42.2517 15.7097 42.1649 15.9794C41.9631 16.6211 42.0438 17.4071 41.6285 17.9044C41.2536 18.3503 40.6191 18.3792 40.0855 18.2252C39.552 18.0712 39.0501 17.7985 38.5022 17.7343C38.1611 17.698 37.8171 17.7475 37.4956 17.8791C37.1741 18.0107 36.8833 18.2211 36.6448 18.4947C36.5352 18.6262 36.4054 18.7802 36.2497 18.7481C36.143 18.7123 36.0531 18.6318 35.9988 18.5236L35.2114 17.3461C35.5903 16.8836 35.7966 16.2779 35.7882 15.6522C35.7882 15.1741 35.6469 14.7057 35.6181 14.2277C35.5114 12.4792 36.8698 10.9264 38.3983 10.5125C39.5923 10.1917 41.5997 10.3233 42.6322 11.1542C43.6647 11.9851 41.9544 13.0567 42.4966 14.0288Z" fill="#EDB38C"/>
<path d="M41.4899 12.1584C41.562 12.3669 41.2995 12.5241 41.0977 12.5209C40.7054 12.5209 40.3276 12.3509 39.944 12.3124C39.5604 12.2739 39.0788 12.4343 38.9634 12.8482C38.9147 13.1358 38.9255 13.4321 38.9952 13.7144C39.0298 14.0031 38.9663 14.356 38.7068 14.4683C38.4904 14.1475 38.5654 13.6631 38.303 13.4064C38.1762 13.3202 38.0305 13.2746 37.8819 13.2746C37.7333 13.2746 37.5876 13.3202 37.4608 13.4064C37.2209 13.4996 37.0171 13.6821 36.884 13.9229C36.6244 14.5004 37.1003 15.2062 36.9071 15.8479C36.8348 16.0356 36.7299 16.2057 36.5985 16.3484C36.4454 16.5535 36.2546 16.7198 36.039 16.836C35.9308 16.8931 35.8102 16.915 35.6913 16.8991C35.5724 16.8832 35.46 16.8302 35.367 16.7462C35.0786 16.4414 35.2372 15.8992 35.1622 15.4629C35.0872 15.0266 34.7267 14.6352 34.6489 14.1796C34.622 13.9191 34.6416 13.6553 34.7065 13.4032C34.8171 12.7417 35.0236 12.1045 35.318 11.5167C35.8659 10.5851 36.7093 9.91725 37.68 9.64633C38.6447 9.38236 39.6495 9.35499 40.6247 9.56612C41.0542 9.62692 41.4698 9.77596 41.8504 10.0057C42.2859 10.2944 42.6839 10.7788 43.1886 10.7275C43.0523 10.8648 42.891 10.9677 42.7156 11.0291C42.9506 11.1489 43.1615 11.3202 43.3357 11.5328C43.3004 11.5931 43.2527 11.6432 43.1965 11.6789C43.1404 11.7147 43.0773 11.7349 43.0127 11.7381C43.0499 11.8004 43.0729 11.8718 43.0796 11.9462C43.0864 12.0206 43.0767 12.0957 43.0514 12.1649C43.0261 12.2342 42.9859 12.2955 42.9344 12.3436C42.883 12.3917 42.8217 12.425 42.756 12.4407C42.5426 12.4664 42.3032 12.2065 42.084 12.1712C42.1388 12.2033 42.1965 12.2835 42.2513 12.322C42.1129 12.3541 41.5649 12.3733 41.4899 12.1584Z" fill="#9E5E32"/>
<path d="M38.0322 14.8501C38.0322 14.8789 37.9947 14.8918 37.9716 14.8789C37.9526 14.858 37.9395 14.8312 37.9341 14.8019C37.9005 14.699 37.8955 14.5872 37.9197 14.4811C37.9271 14.4547 37.9393 14.4302 37.9556 14.4093C37.9719 14.3884 37.992 14.3715 38.0146 14.3597C38.0371 14.3479 38.0616 14.3415 38.0865 14.3409C38.1114 14.3402 38.1361 14.3454 38.1591 14.356C38.2019 14.2634 38.2151 14.1573 38.1965 14.0553C38.1779 13.9532 38.1287 13.8612 38.0569 13.7944C37.9851 13.7276 37.895 13.6899 37.8014 13.6876C37.7078 13.6853 37.6163 13.7185 37.5419 13.7817C37.4317 13.8824 37.3513 14.0177 37.3112 14.1699C37.2614 14.289 37.2434 14.4215 37.2593 14.5517C37.2876 14.6547 37.3336 14.7506 37.3948 14.834L37.5938 15.1388C37.6573 15.2383 37.738 15.3441 37.8447 15.3474C37.8991 15.3428 37.9505 15.3178 37.9904 15.2764C38.0302 15.235 38.0562 15.1796 38.0639 15.1196C38.0762 14.9981 38.0593 14.8752 38.0149 14.7634" fill="#C19272"/>
<path d="M42.1617 14.4234C42.3294 14.3114 42.5229 14.2568 42.7183 14.2662C42.8625 14.3081 42.9887 14.4056 43.0742 14.5413C43.1598 14.677 43.1993 14.8422 43.1855 15.0073C43.1446 15.3318 43.0349 15.6408 42.8654 15.9088C42.6087 16.3868 42.352 16.8713 42.0896 17.3429C41.9355 17.6776 41.7121 17.9668 41.4378 18.1867C41.252 18.2977 41.047 18.3631 40.8366 18.3786C40.6261 18.3941 40.4151 18.3593 40.2178 18.2765C39.8255 18.1104 39.4573 17.8813 39.1248 17.5963C39.1248 17.3429 39.3613 17.1889 39.517 17.006C39.6535 16.8154 39.7521 16.5947 39.8063 16.3586C39.8605 16.1224 39.869 15.8762 39.8314 15.6361C39.765 14.879 40.1573 15.0618 40.6966 14.9463C41.2028 14.8412 41.695 14.6655 42.1617 14.4234Z" fill="#CEEAE8"/>
<path d="M38.525 14.1317C39.0341 14.5481 39.5668 14.9275 40.1199 15.2674C40.2064 15.322 40.2872 15.1712 40.1978 15.1198C39.644 14.7799 39.1112 14.3995 38.6029 13.9809C38.5221 13.9167 38.4443 14.0675 38.525 14.1317Z" fill="#CEEAE8"/>
<path d="M36.8752 15.7067C37.7193 16.3484 38.548 17.005 39.3613 17.6766C39.4421 17.744 39.5199 17.5932 39.4392 17.5258C38.6259 16.8457 37.7972 16.189 36.9531 15.5559C36.8695 15.4822 36.7916 15.6329 36.8752 15.7067Z" fill="#CEEAE8"/>
<path d="M40.2527 16.1207C40.2441 15.9471 40.278 15.7741 40.3507 15.6202C40.4739 15.4766 40.638 15.3848 40.8151 15.3604C41.1176 15.2651 41.4082 15.1282 41.6803 14.9529C41.7263 14.9156 41.7797 14.8914 41.836 14.8823C41.9658 14.8823 42.0552 15.0427 42.0466 15.1871C42.0234 15.3287 41.9775 15.4646 41.911 15.5881V15.6651C41.911 15.694 41.9427 15.7101 41.9629 15.7325C42.0046 15.7897 42.0274 15.861 42.0274 15.9346C42.0274 16.0082 42.0046 16.0796 41.9629 16.1368C41.9184 16.192 41.8642 16.2367 41.8038 16.2681C41.7433 16.2995 41.6778 16.317 41.6111 16.3196C41.5245 16.3196 41.4178 16.3196 41.3746 16.4159C41.3592 16.4587 41.3523 16.5046 41.3544 16.5506C41.3445 16.7754 41.2695 16.9907 41.1406 17.1641C41.0117 17.3376 40.8358 17.46 40.6391 17.5131C40.6675 17.6048 40.6802 17.7017 40.6766 17.7986C40.6776 17.8167 40.6753 17.8349 40.6699 17.852C40.6644 17.869 40.6559 17.8847 40.6449 17.8981C40.6045 17.9366 40.5411 17.8981 40.4949 17.882C40.2065 17.7056 39.7854 17.6126 39.8864 17.1955C39.9873 16.7784 40.2527 16.5506 40.2527 16.1207Z" fill="#B7CECC"/>
<path d="M37.4898 15.4181C37.6236 15.4188 37.7554 15.3824 37.8734 15.3122C37.9814 15.2254 38.0677 15.1095 38.1243 14.9753C38.4329 14.3337 38.5079 13.506 38.9492 12.9862C39.4885 12.3446 40.3364 12.4376 41.0834 12.4376C41.6812 12.4377 42.2768 12.3569 42.8571 12.197C42.9672 12.1759 43.0716 12.1276 43.1628 12.0558C43.2392 11.9729 43.2988 11.8727 43.3376 11.762C43.3764 11.6514 43.3935 11.5328 43.3878 11.4142C43.4137 10.5191 42.8484 9.76193 42.2341 9.25823C41.194 8.38082 39.9098 7.93795 38.6059 8.00701C37.2932 8.10381 36.0515 8.70486 35.0931 9.70739C34.5377 10.2381 34.1462 10.9497 33.9741 11.7414C33.9006 12.2504 33.9006 12.7692 33.9741 13.2782C34.0061 13.7279 34.1035 14.1689 34.2625 14.5839C34.8884 15.9667 36.4429 15.5079 37.4898 15.4181Z" fill="#50429B"/>
<path d="M37.8472 17.6673V17.7507L37.7982 17.7956C37.7056 17.8467 37.6091 17.8885 37.5098 17.9207C37.2752 17.1511 37.1185 16.3548 37.0426 15.5466C37.0239 15.4634 37.0239 15.3764 37.0426 15.2932C37.0916 15.1552 37.3887 14.9723 37.504 15.0878C37.5732 15.1616 37.504 15.8257 37.504 15.9541C37.5413 16.5409 37.6569 17.1183 37.8472 17.6673Z" fill="#681616"/>
<path d="M40.965 13.3006C41.248 13.1427 41.5631 13.0697 41.8792 13.0888C42.0321 13.0888 42.1936 13.0407 42.1993 12.8418V12.8225C42.0971 12.8194 41.9949 12.8259 41.8936 12.8418C41.766 12.829 41.6377 12.829 41.5101 12.8418C41.2758 12.8747 41.0619 13.0068 40.913 13.2107C40.8784 13.2749 40.9246 13.323 40.965 13.3006Z" fill="#4C3729"/>
<path d="M41.0427 13.8171C41.2435 13.7125 41.4613 13.6546 41.6829 13.647C41.7954 13.6278 41.9281 13.6085 41.9887 13.4866C41.9923 13.4809 41.9941 13.4741 41.9939 13.4671C41.9937 13.4602 41.9915 13.4535 41.9876 13.4481C41.9837 13.4426 41.9783 13.4388 41.9723 13.437C41.9662 13.4353 41.9598 13.4358 41.954 13.4385C41.8791 13.4609 41.8156 13.5091 41.7406 13.5347C41.6656 13.5604 41.5762 13.5732 41.4926 13.5957C41.3321 13.6392 41.1791 13.7118 41.0398 13.8106L41.0427 13.8171Z" fill="#4C3729"/>
<path d="M41.5708 13.6182C41.5535 13.6952 41.5073 13.8877 41.6198 13.9101C41.7323 13.9326 41.7438 13.7272 41.7294 13.6438L41.6862 13.5957L41.6371 13.6182V13.6823V13.7305V13.7818L41.6515 13.7529V13.7112C41.6515 13.6791 41.6515 13.6438 41.6342 13.6117L41.5708 13.6182Z" fill="#4C3729"/>
<path d="M41.3169 13.9101C41.3984 13.9612 41.4917 13.9847 41.5851 13.9775C41.6543 13.9775 41.761 13.955 41.7956 13.8748L41.7812 13.8491C41.7211 13.8624 41.6622 13.8818 41.6053 13.9069C41.5144 13.9249 41.4208 13.9115 41.337 13.8684C41.3321 13.8654 41.3262 13.8647 41.3208 13.8665C41.3154 13.8683 41.3109 13.8725 41.3082 13.878C41.3055 13.8835 41.3049 13.89 41.3066 13.896C41.3082 13.902 41.3119 13.9071 41.3169 13.9101Z" fill="#4C3729"/>
<path d="M41.5074 14.1024C41.5496 14.1076 41.5921 14.0975 41.6286 14.0735V14.0318C41.5911 14.0318 41.5565 14.0318 41.519 14.0318C41.5106 14.0301 41.5019 14.0322 41.4948 14.0376C41.4878 14.043 41.483 14.0513 41.4815 14.0607C41.4799 14.0701 41.4818 14.0797 41.4867 14.0875C41.4916 14.0954 41.499 14.1007 41.5074 14.1024Z" fill="#4C3729"/>
<g clip-path="url(#clip0_13297_49905)">
<path d="M20.4766 23.6457C20.6053 23.6457 20.7096 23.5298 20.7096 23.3868C20.7096 23.2438 20.6053 23.1279 20.4766 23.1279C20.3479 23.1279 20.2435 23.2438 20.2435 23.3868C20.2435 23.5298 20.3479 23.6457 20.4766 23.6457Z" fill="white"/>
<path d="M20.7248 22.942C20.8118 22.942 20.8823 22.8637 20.8823 22.7672C20.8823 22.6706 20.8118 22.5923 20.7248 22.5923C20.6379 22.5923 20.5674 22.6706 20.5674 22.7672C20.5674 22.8637 20.6379 22.942 20.7248 22.942Z" fill="white"/>
<path d="M20.4666 22.4697C20.5286 22.4697 20.5789 22.4139 20.5789 22.345C20.5789 22.2761 20.5286 22.2202 20.4666 22.2202C20.4045 22.2202 20.3542 22.2761 20.3542 22.345C20.3542 22.4139 20.4045 22.4697 20.4666 22.4697Z" fill="white"/>
<path d="M22.9801 22.0027L22.9966 21.869C22.9978 21.8592 22.9967 21.8491 22.9935 21.8399C22.9902 21.8307 22.9849 21.8225 22.978 21.8162C22.9712 21.8098 22.9629 21.8055 22.9542 21.8037C22.9454 21.8019 22.9363 21.8026 22.9279 21.8057L21.9651 22.17L21.0133 23.802C21.0084 23.8103 21.0055 23.8198 21.0049 23.8297C21.0043 23.8395 21.0059 23.8494 21.0097 23.8584C21.0134 23.8674 21.0192 23.8751 21.0264 23.8809C21.0337 23.8867 21.0421 23.8904 21.051 23.8915L21.2825 23.9233C21.2926 23.9247 21.3028 23.9228 21.312 23.9179C21.3211 23.913 21.3288 23.9053 21.3341 23.8957L22.1273 22.4306C22.1332 22.42 22.142 22.4116 22.1525 22.4068L22.9478 22.0487C22.9563 22.0448 22.9638 22.0386 22.9694 22.0305C22.9751 22.0224 22.9788 22.0129 22.9801 22.0027Z" fill="white"/>
<path d="M22.2246 24.3662L22.2144 24.4588C22.2098 24.4997 22.1909 24.5369 22.1618 24.5624C22.1326 24.5878 22.0956 24.5994 22.0588 24.5947C22.0406 24.5923 22.0223 24.5976 22.0074 24.6095C21.9928 24.6214 21.9828 24.6391 21.9794 24.6589L21.5544 27.2407C21.5524 27.2528 21.5477 27.2642 21.5409 27.2739C21.534 27.2836 21.5252 27.2913 21.515 27.2963C21.5049 27.3014 21.4938 27.3036 21.4828 27.3029C21.4717 27.3022 21.4609 27.2985 21.4514 27.2922C21.3748 27.2436 21.2901 27.2125 21.2025 27.2009C21.1049 27.1875 21.0059 27.1983 20.9125 27.2324C20.9035 27.2356 20.894 27.2367 20.8846 27.2356C20.8751 27.2345 20.866 27.2312 20.8578 27.226C20.8496 27.2207 20.8425 27.2137 20.8369 27.2052C20.8313 27.1967 20.8274 27.187 20.8254 27.1767C20.7208 26.6929 20.3381 26.3044 19.8452 26.2377C19.3524 26.171 18.8975 26.4451 18.6909 26.8871C18.6866 26.8965 18.6807 26.9048 18.6734 26.9115C18.6661 26.9182 18.6576 26.9231 18.6485 26.926C18.6394 26.9288 18.6299 26.9296 18.6205 26.9281C18.6111 26.9267 18.6021 26.923 18.5941 26.9175C18.5134 26.8613 18.4228 26.8249 18.3285 26.8106C18.2341 26.7964 18.138 26.8047 18.0468 26.8349C18.0361 26.8387 18.0248 26.8395 18.0138 26.8373C18.0027 26.8352 17.9923 26.8301 17.9835 26.8224C17.9747 26.8148 17.9676 26.8049 17.963 26.7936C17.9583 26.7823 17.9562 26.7699 17.9568 26.7575L18.1099 24.134C18.1112 24.1138 18.1054 24.0938 18.0939 24.0782C18.0823 24.0626 18.0658 24.0525 18.0477 24.05C18.0109 24.045 17.9773 24.0241 17.9544 23.9917C17.9314 23.9593 17.921 23.9181 17.9254 23.8772L17.9354 23.7845C17.9378 23.7636 17.9475 23.7446 17.9625 23.7317C17.9775 23.7187 17.9965 23.7129 18.0153 23.7154L18.3265 23.7576L18.3604 23.7624C18.3831 23.7656 18.4039 23.778 18.4189 23.7971C18.4339 23.8162 18.4421 23.8407 18.4419 23.8661C18.4419 23.985 18.3953 24.163 18.409 24.2618C18.4226 24.3607 18.6124 24.4384 18.6311 24.0517C18.6395 23.8789 18.698 23.8392 18.7092 23.8889C18.7686 24.1495 18.8523 23.9536 18.8337 23.8751C18.8337 23.8751 18.8337 23.873 18.8337 23.8716C18.8337 23.8703 18.8094 23.8398 18.8545 23.8295L22.1668 24.2788C22.1846 24.2825 22.2005 24.2936 22.2112 24.3098C22.222 24.326 22.2268 24.3462 22.2246 24.3662Z" fill="white"/>
<path d="M21.5833 28.1617C21.5693 28.2778 21.5258 28.3871 21.4579 28.4768C21.39 28.5664 21.3006 28.6328 21.2 28.6681C21.1764 28.6766 21.1554 28.6924 21.1396 28.7136C21.1237 28.7348 21.1136 28.7606 21.1104 28.788L21.0821 29.0434C21.08 29.0624 21.0746 29.0807 21.0661 29.0973C21.0576 29.114 21.0463 29.1286 21.0328 29.1404C21.0192 29.1522 21.0037 29.1609 20.9871 29.166C20.9705 29.1711 20.9532 29.1725 20.9361 29.1702L18.1485 28.7918C18.1314 28.7895 18.1149 28.7834 18.0999 28.774C18.085 28.7647 18.0718 28.7521 18.0612 28.737C18.0506 28.722 18.0428 28.7047 18.0381 28.6863C18.0335 28.6679 18.0322 28.6487 18.0343 28.6297L18.0623 28.375C18.0653 28.3477 18.0613 28.32 18.0508 28.2952C18.0402 28.2704 18.0235 28.2494 18.0026 28.2347L17.988 28.2243C17.9055 28.1661 17.8386 28.0844 17.7944 27.9876C17.7501 27.8908 17.7301 27.7826 17.7365 27.6743C17.7429 27.566 17.7754 27.4616 17.8305 27.3721C17.8857 27.2825 17.9616 27.2111 18.0502 27.1653C18.135 27.12 18.228 27.0968 18.3221 27.0974C18.4162 27.0981 18.5089 27.1226 18.5932 27.1691C18.6226 27.1863 18.6569 27.1904 18.689 27.1807C18.7211 27.1709 18.7486 27.148 18.7662 27.1166C18.969 26.7413 19.3729 26.5132 19.8079 26.5723C20.2429 26.6314 20.5858 26.9607 20.7012 27.3796C20.7114 27.4145 20.7331 27.4439 20.762 27.4618C20.7908 27.4798 20.8247 27.485 20.8568 27.4764C20.9253 27.4597 20.9959 27.4559 21.0656 27.4653C21.1788 27.4804 21.2859 27.5303 21.3749 27.6094C21.4492 27.674 21.5074 27.7587 21.5439 27.8554C21.5804 27.9521 21.594 28.0576 21.5833 28.1617Z" fill="white"/>
<path d="M18.0056 28.8896C17.9381 29.501 18.3582 30.0799 18.9886 30.3208C18.9519 30.4359 18.8794 30.5883 18.7431 30.6664C18.9781 30.6606 19.2059 30.5757 19.3965 30.4228C20.2329 30.5299 20.9728 30.0309 21.0528 29.303L18.0056 28.8896ZM19.0303 29.6479C19.0076 29.6487 18.9852 29.6418 18.9662 29.628C18.9472 29.6143 18.9324 29.5944 18.9238 29.571C18.9153 29.5476 18.9134 29.5219 18.9184 29.4973C18.9234 29.4728 18.9351 29.4505 18.9519 29.4335C18.9686 29.4165 18.9897 29.4056 19.0122 29.4023C19.0347 29.399 19.0576 29.4034 19.0778 29.415C19.0979 29.4266 19.1144 29.4447 19.125 29.467C19.1356 29.4893 19.1398 29.5147 19.137 29.5397C19.1355 29.5697 19.1235 29.5979 19.1036 29.6181C19.0836 29.6383 19.0573 29.6491 19.0303 29.6479ZM19.6404 29.9144C19.617 29.9518 19.5849 29.9813 19.5474 29.9999C19.51 30.0185 19.4687 30.0254 19.428 30.0199C19.3873 30.0144 19.3488 29.9967 19.3164 29.9687C19.2841 29.9406 19.2593 29.9033 19.2447 29.8608C19.2401 29.8456 19.2411 29.829 19.2474 29.8145C19.2537 29.8001 19.2648 29.7889 19.2784 29.7834C19.292 29.7779 19.307 29.7784 19.3202 29.7849C19.3334 29.7915 19.3438 29.8034 19.3492 29.8183C19.3569 29.8394 19.3695 29.8578 19.3857 29.8716C19.402 29.8854 19.4212 29.8942 19.4415 29.897C19.4619 29.8998 19.4825 29.8965 19.5012 29.8874C19.52 29.8784 19.5363 29.864 19.5483 29.8456C19.5566 29.8319 19.5694 29.8223 19.584 29.8191C19.5986 29.8158 19.6138 29.8192 19.6261 29.8283C19.6385 29.8375 19.6471 29.8517 19.65 29.868C19.6529 29.8842 19.6499 29.901 19.6417 29.9147L19.6404 29.9144ZM19.895 29.7654C19.8723 29.7662 19.8499 29.7593 19.8309 29.7456C19.8119 29.7318 19.7971 29.712 19.7885 29.6886C19.78 29.6653 19.7781 29.6396 19.783 29.615C19.788 29.5904 19.7997 29.5681 19.8164 29.5511C19.8331 29.5341 19.8542 29.5232 19.8767 29.5198C19.8991 29.5165 19.922 29.5209 19.9422 29.5324C19.9624 29.5439 19.9789 29.562 19.9895 29.5843C20.0002 29.6065 20.0044 29.6319 20.0017 29.6569C20.0001 29.6868 19.988 29.7147 19.9681 29.7348C19.9481 29.7549 19.9219 29.7655 19.895 29.7644V29.7654Z" fill="white"/>
<path d="M15.5697 28.2266C15.5987 28.0613 15.6147 27.8935 15.6176 27.7251C15.6209 27.5482 15.6227 27.3771 15.6229 27.2119C15.6229 27.0665 15.6246 26.919 15.6282 26.7695C15.6316 26.619 15.6441 26.4689 15.6655 26.3202L15.6814 26.2259L15.7663 26.2082C15.9999 26.1852 16.2327 26.1714 16.4649 26.1668C16.6964 26.1629 16.9279 26.1768 17.1578 26.2082L17.243 26.2259L17.6787 29.8365L17.6258 29.8838C17.1981 30.1948 16.7307 30.4325 16.2393 30.5889C15.7453 30.7418 15.2325 30.8066 14.7202 30.7807C14.4964 30.7692 14.2737 30.7396 14.0537 30.6922C13.8387 30.6459 13.628 30.5777 13.4243 30.4886C13.222 30.4001 13.0295 30.2862 12.8505 30.1492C12.6666 30.0077 12.4994 29.8412 12.3526 29.6536C12.0574 29.2843 11.8317 28.853 11.689 28.3852C11.5444 27.9179 11.4681 27.4278 11.4631 26.9337C11.4579 26.437 11.5215 25.9424 11.6516 25.4672C11.7784 24.9944 11.9733 24.5475 12.2288 24.1439C12.4858 23.7374 12.7974 23.3773 13.1529 23.076C13.4873 22.7963 13.8558 22.5709 14.2473 22.4065C14.6443 22.2415 15.0581 22.1315 15.4794 22.0792C15.922 22.0237 16.3679 22.0078 16.8127 22.0319H16.8765L16.9076 22.1027C17.0327 22.374 17.1213 22.6642 17.1705 22.964C17.2213 23.2661 17.2542 23.5716 17.2689 23.8785V24.0146H17.1466C16.945 24.0146 16.721 24.0216 16.4748 24.0354C16.2286 24.0492 15.9809 24.0769 15.7318 24.1183C15.4869 24.1585 15.2451 24.2183 15.008 24.2974C14.7924 24.367 14.5867 24.4703 14.3972 24.6043C14.2956 24.6769 14.2017 24.762 14.1172 24.8579C14.0521 24.9297 13.9917 25.0065 13.9364 25.0878C13.8821 25.1688 13.8325 25.2535 13.7877 25.3414C13.7079 25.4999 13.6429 25.667 13.5938 25.8402C13.5427 26.0182 13.5107 26.2023 13.4983 26.3886C13.4857 26.574 13.4946 26.7605 13.5248 26.9434C13.5538 27.1229 13.6104 27.2956 13.6922 27.4538C13.7612 27.5959 13.852 27.7236 13.9604 27.8312C14.064 27.9329 14.1804 28.0174 14.3058 28.0821C14.4336 28.1478 14.5683 28.1953 14.7068 28.2235C14.8486 28.2532 14.9926 28.2682 15.1368 28.2681C15.2078 28.2681 15.2804 28.2651 15.3547 28.2591C15.4269 28.2533 15.4987 28.2425 15.5697 28.2266Z" fill="white"/>
</g>
</g>
<defs>
<filter id="filter0_d_13297_49905" x="4" y="8" width="60" height="60" filterUnits="userSpaceOnUse" color-interpolation-filters="sRGB">
<feFlood flood-opacity="0" result="BackgroundImageFix"/>
<feColorMatrix in="SourceAlpha" type="matrix" values="0 0 0 0 0 0 0 0 0 0 0 0 0 0 0 0 0 0 127 0" result="hardAlpha"/>
<feOffset dy="4"/>
<feGaussianBlur stdDeviation="2"/>
<feComposite in2="hardAlpha" operator="out"/>
<feColorMatrix type="matrix" values="0 0 0 0 0 0 0 0 0 0 0 0 0 0 0 0 0 0 0.25 0"/>
<feBlend mode="normal" in2="BackgroundImageFix" result="effect1_dropShadow_13297_49905"/>
<feBlend mode="normal" in="SourceGraphic" in2="effect1_dropShadow_13297_49905" result="shape"/>
</filter>
<clipPath id="clip0_13297_49905">
<rect width="11.5363" height="8.98312" fill="white" transform="translate(11.4609 21.8027)"/>
</clipPath>
</defs>
</svg>