<svg width="36" height="36" viewBox="0 0 36 36" fill="none" xmlns="http://www.w3.org/2000/svg">
<rect x="2" y="2" width="28" height="28" rx="8" fill="#E7E9FF"/>
<path d="M27.9972 33.0002C27.997 33.5524 27.5493 34 26.9972 34H11C10.4477 34 10 33.5523 10 33V21.9105C10 21.4095 10.4275 20.9903 10.8239 21.2967C10.9846 21.4213 11.1266 21.5648 11.2764 21.7013C11.9073 22.2738 12.6587 22.2787 13.2888 21.7118C13.4116 21.6012 13.529 21.485 13.6548 21.3765C14.2301 20.8775 14.9915 20.8817 15.5645 21.3863C15.7089 21.5144 15.844 21.6516 15.9915 21.7776C16.5413 22.2479 17.2842 22.2493 17.8363 21.7776C17.9838 21.6523 18.1197 21.5151 18.2649 21.387C18.8479 20.8733 19.6085 20.874 20.1954 21.387C20.3266 21.5025 20.4502 21.6257 20.5815 21.7412C21.1583 22.2507 21.912 22.2549 22.4896 21.751C22.644 21.618 22.783 21.471 22.9382 21.3422C23.4788 20.8866 24.2178 20.8852 24.7629 21.3422C24.912 21.4661 25.0463 21.604 25.1907 21.7328C25.7815 22.257 26.5189 22.264 27.1212 21.7489C27.268 21.6229 27.4 21.4822 27.5514 21.3618C27.7326 21.2177 27.9999 21.3726 27.9999 21.6042L27.9972 33.0002Z" fill="url(#paint0_linear_12950_46007)"/>
<path d="M30 34C29.4477 34 29 33.5523 29 33V21.6869C29 21.3996 29.3168 21.197 29.5588 21.3519C29.7683 21.4922 29.9499 21.6522 30.1566 21.7925C30.7946 22.226 31.6662 22.2239 32.3032 21.7862C32.509 21.6459 32.6934 21.4866 32.8955 21.3421C32.9493 21.3036 33.0045 21.2677 33.0614 21.2348C33.5327 20.9622 34 21.4361 34 21.9805V33C34 33.5523 33.5523 34 33 34H30Z" fill="url(#paint1_linear_12950_46007)"/>
<path d="M28.6975 16.4463C28.6918 16.4619 28.6862 16.4774 28.6807 16.4928L28.3935 17.2892L27.8347 16.6532C27.3991 16.1575 26.9251 15.974 26.4731 15.9684C26.006 15.9626 25.5134 16.1475 25.0727 16.4774L28.6975 16.4463ZM28.6975 16.4463L28.5946 17.1011L29.2685 17C29.3795 16.9833 29.5048 16.9597 29.6173 16.9385C29.6778 16.9271 29.7347 16.9163 29.7837 16.9078C29.9428 16.8799 30.0785 16.8625 30.2049 16.8625C30.8318 16.8625 31.2686 17.1446 31.5843 17.6271M28.6975 16.4463L31.5843 17.6271M31.5843 17.6271C32.0976 18.4127 32.191 19.2671 31.9611 20.1622C31.9578 20.1654 31.9335 20.2029 31.8431 20.277C31.7892 20.3211 31.727 20.3665 31.654 20.4184C31.642 20.427 31.6295 20.4359 31.6167 20.445C31.6055 20.4529 31.594 20.461 31.5824 20.4693C31.5484 20.4469 31.5204 20.4179 31.4641 20.3595C31.4347 20.3291 31.3976 20.2907 31.348 20.2411C30.2084 19.099 28.2295 19.0654 27.0853 20.2244L27.0843 20.2254C26.9493 20.363 26.8624 20.4406 26.8013 20.4835C26.7408 20.4408 26.6554 20.3643 26.5223 20.2291L26.5222 20.229C26.0557 19.7555 25.4197 19.4611 24.7405 19.3884C24.2786 19.339 23.8117 19.3936 23.3809 19.5457C23.4183 19.197 23.4988 18.852 23.6216 18.5166L23.6216 18.5166M31.5843 17.6271L23.6216 18.5166M23.6216 18.5166L23.6228 18.5134M23.6216 18.5166L23.6228 18.5134M23.6228 18.5134C23.9128 17.7042 24.3595 17.0115 25.0726 16.4775L23.6228 18.5134ZM31.427 20.5828C31.4274 20.5825 31.4277 20.5823 31.4281 20.582L31.427 20.5828Z" fill="white" stroke="url(#paint2_linear_12950_46007)"/>
<path d="M20.1056 14.0792C20.0984 13.8956 20.0973 13.7147 20.0978 13.5245H21.9694V14.2903V14.6509L22.3116 14.7647C22.7556 14.9125 23.1431 15.0964 23.4756 15.3353C22.0716 16.6408 21.4315 18.1996 21.4119 19.9545C21.2205 19.8137 21.0104 19.6961 20.787 19.6043C20.4161 19.4519 20.0151 19.3731 19.6104 19.3717C19.2057 19.3704 18.8041 19.4465 18.4321 19.5963C18.0609 19.7458 17.7257 19.9662 17.451 20.2458C17.4042 20.2925 17.3599 20.3361 17.314 20.3812C17.2821 20.4125 17.2495 20.4445 17.2148 20.4788C17.2144 20.4793 17.214 20.4797 17.2136 20.4801C17.2234 19.9873 17.2217 19.4807 17.2201 18.9813C17.2189 18.6199 17.2177 18.2623 17.2209 17.9164L17.2209 17.9145C17.2284 16.5431 18.07 15.3879 19.5745 14.8419L19.5755 14.8415C19.6886 14.8001 19.8531 14.7246 19.9715 14.5614C20.0967 14.389 20.1098 14.2042 20.1057 14.0821L20.1057 14.0821L20.1056 14.0792Z" fill="white" stroke="url(#paint3_linear_12950_46007)"/>
<path d="M19.6419 11.3766H22.4366V11.6388H19.6419V11.3766Z" stroke="url(#paint4_linear_12950_46007)"/>
<mask id="path-7-inside-1_12950_46007" fill="white">
<path fill-rule="evenodd" clip-rule="evenodd" d="M15.3225 19.9264L15.3224 19.9264C15.0015 19.9099 14.6884 19.8939 14.38 19.9206C13.813 19.9685 13.3526 20.2424 12.9765 20.6242C12.892 20.7123 12.8021 20.7961 12.707 20.8752C12.4872 21.0532 12.3004 21.0482 12.0718 20.8752C11.9475 20.7805 11.8223 20.6864 11.6972 20.5923L11.6971 20.5922C11.4728 20.4236 11.2485 20.255 11.0292 20.0829C10.9736 20.0342 10.9352 19.972 10.9185 19.9041C10.3411 17.7275 9.91926 15.533 10.0131 13.2891C10.0397 12.6717 10.1779 12.0559 10.3148 11.4455C10.3306 11.3752 10.3464 11.3049 10.362 11.2348C10.4189 10.9816 10.5761 10.7342 10.7397 10.5147C11.1223 10.0056 11.6925 9.84685 12.2747 10.1622C12.7513 10.4201 13.1801 10.7424 13.5459 11.1175C14.6871 12.2988 15.4073 13.7032 16.1123 15.1161C16.2999 15.4929 16.3577 15.814 16.1315 16.2123C15.8308 16.74 15.757 17.3342 15.7594 17.9284C15.7591 18.2167 15.7585 18.5048 15.7579 18.788C15.757 19.1876 15.7562 19.5775 15.7562 19.9449C15.6099 19.9411 15.4654 19.9337 15.3225 19.9264Z"/>
</mask>
<path fill-rule="evenodd" clip-rule="evenodd" d="M15.3225 19.9264L15.3224 19.9264C15.0015 19.9099 14.6884 19.8939 14.38 19.9206C13.813 19.9685 13.3526 20.2424 12.9765 20.6242C12.892 20.7123 12.8021 20.7961 12.707 20.8752C12.4872 21.0532 12.3004 21.0482 12.0718 20.8752C11.9475 20.7805 11.8223 20.6864 11.6972 20.5923L11.6971 20.5922C11.4728 20.4236 11.2485 20.255 11.0292 20.0829C10.9736 20.0342 10.9352 19.972 10.9185 19.9041C10.3411 17.7275 9.91926 15.533 10.0131 13.2891C10.0397 12.6717 10.1779 12.0559 10.3148 11.4455C10.3306 11.3752 10.3464 11.3049 10.362 11.2348C10.4189 10.9816 10.5761 10.7342 10.7397 10.5147C11.1223 10.0056 11.6925 9.84685 12.2747 10.1622C12.7513 10.4201 13.1801 10.7424 13.5459 11.1175C14.6871 12.2988 15.4073 13.7032 16.1123 15.1161C16.2999 15.4929 16.3577 15.814 16.1315 16.2123C15.8308 16.74 15.757 17.3342 15.7594 17.9284C15.7591 18.2167 15.7585 18.5048 15.7579 18.788C15.757 19.1876 15.7562 19.5775 15.7562 19.9449C15.6099 19.9411 15.4654 19.9337 15.3225 19.9264Z" fill="white"/>
<path d="M15.3224 19.9264L15.39 18.9287L15.3818 18.9281L15.3736 18.9277L15.3224 19.9264ZM15.3225 19.9264L15.2548 20.9241L15.263 20.9247L15.2712 20.9251L15.3225 19.9264ZM14.38 19.9206L14.4642 20.917L14.4662 20.9169L14.38 19.9206ZM12.9765 20.6242L12.264 19.9224L12.2543 19.9325L12.9765 20.6242ZM12.707 20.8752L13.3366 21.6522L13.3463 21.6441L12.707 20.8752ZM12.0718 20.8752L11.4658 21.6706L11.4682 21.6725L12.0718 20.8752ZM11.6972 20.5923L12.2981 19.793L12.2947 19.7904L11.6972 20.5923ZM11.6971 20.5922L11.0962 21.3916L11.0996 21.3941L11.6971 20.5922ZM11.0292 20.0829L10.3701 20.8349L10.3905 20.8528L10.4118 20.8695L11.0292 20.0829ZM10.9185 19.9041L11.8899 19.6665L11.8876 19.6571L11.8851 19.6477L10.9185 19.9041ZM10.0131 13.2891L9.01402 13.2461L9.01396 13.2474L10.0131 13.2891ZM10.3148 11.4455L9.3391 11.2266L9.3391 11.2266L10.3148 11.4455ZM10.362 11.2348L9.38633 11.0153L9.38572 11.0181L10.362 11.2348ZM10.7397 10.5147L9.94023 9.91399L9.93789 9.91713L10.7397 10.5147ZM12.2747 10.1622L11.7985 11.0415L11.7987 11.0416L12.2747 10.1622ZM13.5459 11.1175L14.2651 10.4227L14.2618 10.4194L13.5459 11.1175ZM16.1123 15.1161L17.0074 14.6703L17.0071 14.6697L16.1123 15.1161ZM16.1315 16.2123L17.0003 16.7074L17.0011 16.7061L16.1315 16.2123ZM15.7594 17.9284L16.7594 17.9296L16.7594 17.9244L15.7594 17.9284ZM15.7579 18.788L16.7579 18.7902V18.7902L15.7579 18.788ZM15.7562 19.9449L15.7306 20.9446L16.7562 20.9708V19.9449H15.7562ZM15.2548 20.9241L15.2548 20.9241L15.3901 18.9287L15.39 18.9287L15.2548 20.9241ZM14.4662 20.9169C14.6942 20.8971 14.9376 20.908 15.2712 20.9251L15.3736 18.9277C15.0655 18.9119 14.6826 18.8906 14.2937 18.9243L14.4662 20.9169ZM13.6889 21.326C13.9444 21.0665 14.1941 20.9398 14.4642 20.917L14.2958 18.9241C13.4318 18.9971 12.7608 19.4182 12.2641 19.9224L13.6889 21.326ZM13.3463 21.6441C13.4701 21.5412 13.5877 21.4317 13.6986 21.3159L12.2543 19.9325C12.1964 19.993 12.1341 20.051 12.0677 20.1062L13.3463 21.6441ZM11.4682 21.6725C11.6732 21.8277 11.9844 22.0044 12.3866 22.0068C12.7992 22.0093 13.1193 21.8282 13.3365 21.6522L12.0775 20.0982C12.0775 20.0981 12.0841 20.0928 12.0972 20.0847C12.1103 20.0765 12.1312 20.0648 12.1595 20.0528C12.2198 20.0275 12.3023 20.0063 12.3988 20.0069C12.5955 20.0081 12.699 20.0957 12.6754 20.0779L11.4682 21.6725ZM11.0963 21.3916C11.2219 21.486 11.3444 21.5782 11.4658 21.6706L12.6778 20.0797C12.5505 19.9827 12.4228 19.8867 12.2981 19.793L11.0963 21.3916ZM11.0996 21.3941L11.0997 21.3942L12.2947 19.7904L12.2946 19.7904L11.0996 21.3941ZM10.4118 20.8695C10.6407 21.0492 10.8733 21.224 11.0962 21.3916L12.298 19.7929C12.0722 19.6232 11.8564 19.4609 11.6466 19.2963L10.4118 20.8695ZM9.9472 20.1418C10.0155 20.4209 10.1695 20.6591 10.3701 20.8349L11.6883 19.3309C11.7778 19.4093 11.8548 19.5232 11.8899 19.6665L9.9472 20.1418ZM9.01396 13.2474C8.91394 15.6392 9.36475 17.947 9.95198 20.1606L11.8851 19.6477C11.3175 17.508 10.9246 15.4267 11.0122 13.3309L9.01396 13.2474ZM9.3391 11.2266C9.20572 11.821 9.04512 12.5244 9.01402 13.2461L11.0122 13.3322C11.0343 12.819 11.15 12.2909 11.2906 11.6645L9.3391 11.2266ZM9.38572 11.0181C9.37044 11.0869 9.35493 11.1561 9.3391 11.2266L11.2906 11.6645C11.3063 11.5943 11.3223 11.523 11.3382 11.4515L9.38572 11.0181ZM9.93789 9.91713C9.7614 10.1539 9.49237 10.544 9.38634 11.0153L11.3376 11.4542C11.3454 11.4193 11.3908 11.3145 11.5415 11.1123L9.93789 9.91713ZM12.751 9.28287C12.2704 9.02263 11.7298 8.92797 11.1963 9.05752C10.6697 9.18541 10.245 9.50838 9.94024 9.914L11.5392 11.1154C11.5783 11.0633 11.6116 11.0344 11.633 11.0194C11.6536 11.0049 11.6653 11.0018 11.6683 11.001C11.6708 11.0004 11.6772 10.9989 11.6926 11.0013C11.709 11.0038 11.7443 11.0122 11.7985 11.0415L12.751 9.28287ZM14.2618 10.4194C13.8233 9.9696 13.3129 9.587 12.7507 9.28273L11.7987 11.0416C12.1897 11.2532 12.5369 11.5152 12.8299 11.8156L14.2618 10.4194ZM17.0071 14.6697C16.3074 13.2673 15.5273 11.7292 14.2651 10.4227L12.8267 11.8123C13.847 12.8684 14.5072 14.139 15.2175 15.5626L17.0071 14.6697ZM17.0011 16.7061C17.1956 16.3635 17.297 15.9953 17.2756 15.6019C17.2554 15.2305 17.1293 14.915 17.0074 14.6703L15.2171 15.5619C15.283 15.6941 15.2795 15.7275 15.2786 15.7104C15.2779 15.6988 15.2794 15.6864 15.2813 15.6789C15.2828 15.6731 15.2807 15.6854 15.2619 15.7185L17.0011 16.7061ZM16.7594 17.9244C16.7573 17.4024 16.8259 17.0135 17.0003 16.7074L15.2627 15.7171C14.8356 16.4665 14.7567 17.2661 14.7594 17.9325L16.7594 17.9244ZM16.7579 18.7902C16.7585 18.507 16.7591 18.2185 16.7594 17.9296L14.7594 17.9273C14.7591 18.215 14.7585 18.5026 14.7579 18.7859L16.7579 18.7902ZM16.7562 19.9449C16.7562 19.5788 16.757 19.1899 16.7579 18.7902L14.7579 18.7859C14.757 19.1853 14.7562 19.5763 14.7562 19.9449H16.7562ZM15.2712 20.9251C15.4122 20.9323 15.5694 20.9404 15.7306 20.9446L15.7818 18.9452C15.6504 18.9419 15.5186 18.9352 15.3737 18.9277L15.2712 20.9251Z" fill="url(#paint5_linear_12950_46007)" mask="url(#path-7-inside-1_12950_46007)"/>
<defs>
<linearGradient id="paint0_linear_12950_46007" x1="10.4293" y1="22.2562" x2="26.6044" y2="33.7484" gradientUnits="userSpaceOnUse">
<stop stop-color="#CED3FF"/>
<stop offset="1" stop-color="#99A1EA"/>
</linearGradient>
<linearGradient id="paint1_linear_12950_46007" x1="29.1728" y1="21.3359" x2="32.3055" y2="33.8495" gradientUnits="userSpaceOnUse">
<stop stop-color="#BCC2F5"/>
<stop offset="1" stop-color="#99A1EA"/>
</linearGradient>
<linearGradient id="paint2_linear_12950_46007" x1="32.1503" y1="19.2296" x2="24.7665" y2="13.6918" gradientUnits="userSpaceOnUse">
<stop stop-color="#99A1EA"/>
<stop offset="1" stop-color="#CED3FF"/>
</linearGradient>
<linearGradient id="paint3_linear_12950_46007" x1="23.3828" y1="17.8456" x2="18.7674" y2="13.2302" gradientUnits="userSpaceOnUse">
<stop stop-color="#99A1EA"/>
<stop offset="1" stop-color="#CED3FF"/>
</linearGradient>
<linearGradient id="paint4_linear_12950_46007" x1="19.2286" y1="10.4613" x2="23.3824" y2="12.3075" gradientUnits="userSpaceOnUse">
<stop stop-color="#CED3FF"/>
<stop offset="1" stop-color="#A5ABDE"/>
</linearGradient>
<linearGradient id="paint5_linear_12950_46007" x1="15.9982" y1="19.6911" x2="10.9219" y2="9.07685" gradientUnits="userSpaceOnUse">
<stop stop-color="#A5ABDE"/>
<stop offset="1" stop-color="#CED3FF"/>
</linearGradient>
</defs>
</svg>
