<svg width="24" height="24" viewBox="0 0 24 24" fill="none" xmlns="http://www.w3.org/2000/svg">
<path fill-rule="evenodd" clip-rule="evenodd" d="M2.91211 12.0464C3.89525 13.5754 5.1989 15.072 6.69297 16.2124C8.33013 17.462 10.1492 18.25 12 18.25C13.8508 18.25 15.6699 17.462 17.307 16.2124C18.8011 15.072 20.1048 13.5754 21.0879 12.0464C19.9024 10.5198 18.6575 9.00514 17.2357 7.8359C15.6991 6.57223 14.0006 5.75 12 5.75C9.99937 5.75 8.30094 6.57223 6.7643 7.8359C5.3425 9.00514 4.09757 10.5198 2.91211 12.0464ZM5.81154 6.67735C7.52296 5.26994 9.5473 4.25 12 4.25C14.4527 4.25 16.477 5.26994 18.1885 6.67735C19.8871 8.0742 21.321 9.88972 22.5941 11.5423C22.7826 11.7869 22.8019 12.122 22.6427 12.3866C21.5522 14.1995 20.0247 16.025 18.2171 17.4047C16.4118 18.7827 14.2803 19.75 12 19.75C9.71968 19.75 7.58821 18.7827 5.78286 17.4047C3.9753 16.025 2.44776 14.1995 1.3573 12.3866C1.19815 12.122 1.21743 11.7869 1.40588 11.5423C2.67903 9.88972 4.11295 8.0742 5.81154 6.67735Z" fill="#026F30"/>
<path fill-rule="evenodd" clip-rule="evenodd" d="M10.0555 10.0555C10.5712 9.53973 11.2707 9.25 12 9.25C12.7293 9.25 13.4288 9.53973 13.9445 10.0555C14.4603 10.5712 14.75 11.2707 14.75 12C14.75 12.7293 14.4603 13.4288 13.9445 13.9445C13.4288 14.4603 12.7293 14.75 12 14.75C11.2707 14.75 10.5712 14.4603 10.0555 13.9445C9.53973 13.4288 9.25 12.7293 9.25 12C9.25 11.2707 9.53973 10.5712 10.0555 10.0555ZM12 10.75C11.6685 10.75 11.3505 10.8817 11.1161 11.1161C10.8817 11.3505 10.75 11.6685 10.75 12C10.75 12.3315 10.8817 12.6495 11.1161 12.8839C11.3505 13.1183 11.6685 13.25 12 13.25C12.3315 13.25 12.6495 13.1183 12.8839 12.8839C13.1183 12.6495 13.25 12.3315 13.25 12C13.25 11.6685 13.1183 11.3505 12.8839 11.1161C12.6495 10.8817 12.3315 10.75 12 10.75Z" fill="#026F30"/>
</svg>