<svg width="19" height="19" viewBox="0 0 19 19" fill="none" xmlns="http://www.w3.org/2000/svg">
<path d="M18.7125 14.4158C18.5467 15.6818 17.9267 16.8445 16.9679 17.6877C16.0092 18.5309 14.7768 18.9973 13.5 19.0001C6.05625 19.0001 0 12.9439 0 5.50013C0.00281471 4.22331 0.469194 2.99095 1.31243 2.03218C2.15566 1.07342 3.31837 0.453477 4.58437 0.287629C4.90711 0.251846 5.23284 0.319794 5.51435 0.48162C5.79586 0.643446 6.01851 0.890736 6.15 1.18763L8.03437 5.5845C8.13212 5.81273 8.17131 6.06176 8.14839 6.30897C8.12547 6.55619 8.04116 6.79376 7.90312 7.00013L6.34687 9.38138C7.05158 10.8115 8.21273 11.9661 9.64687 12.6626L12 11.097C12.2061 10.958 12.4443 10.8739 12.692 10.8526C12.9397 10.8313 13.1888 10.8734 13.4156 10.9751L17.8125 12.8501C18.1094 12.9816 18.3567 13.2043 18.5185 13.4858C18.6803 13.7673 18.7483 14.093 18.7125 14.4158ZM11.7562 2.472C12.8979 2.7839 13.9384 3.38806 14.7752 4.22489C15.6121 5.06171 16.2162 6.10227 16.5281 7.24388C16.5695 7.40416 16.6627 7.54625 16.7933 7.64799C16.9239 7.74974 17.0845 7.80543 17.25 7.80638C17.3166 7.80625 17.3829 7.79679 17.4469 7.77825C17.5422 7.75331 17.6316 7.70959 17.7098 7.64965C17.7881 7.58971 17.8535 7.51477 17.9024 7.4292C17.9513 7.34364 17.9827 7.24918 17.9946 7.15135C18.0065 7.05353 17.9988 6.95431 17.9719 6.8595C17.5969 5.4614 16.8607 4.18656 15.8371 3.16301C14.8136 2.13946 13.5387 1.40323 12.1406 1.02825C12.0428 0.992613 11.9386 0.977733 11.8347 0.984562C11.7308 0.99139 11.6295 1.01978 11.5372 1.06791C11.4448 1.11605 11.3635 1.18289 11.2985 1.26416C11.2334 1.34544 11.1859 1.43938 11.1591 1.53999C11.1324 1.64061 11.1268 1.7457 11.1429 1.84858C11.1589 1.95146 11.1962 2.04986 11.2524 2.13753C11.3086 2.22521 11.3824 2.30022 11.4691 2.35781C11.5559 2.41539 11.6536 2.45428 11.7562 2.472ZM10.9781 5.36888C11.6127 5.54259 12.1911 5.8786 12.6563 6.34382C13.1215 6.80904 13.4575 7.38743 13.6312 8.022C13.6712 8.18308 13.764 8.32609 13.8949 8.42809C14.0258 8.53009 14.1872 8.58517 14.3531 8.5845C14.4167 8.58513 14.48 8.57563 14.5406 8.55638C14.6368 8.53246 14.7272 8.48948 14.8065 8.42998C14.8857 8.37049 14.9523 8.29569 15.0021 8.21001C15.0519 8.12434 15.0841 8.02953 15.0966 7.93121C15.1091 7.83289 15.1018 7.73306 15.075 7.63763C14.8382 6.74654 14.3702 5.93386 13.7182 5.28191C13.0663 4.62996 12.2536 4.16189 11.3625 3.92513C11.2647 3.88949 11.1605 3.87461 11.0566 3.88144C10.9527 3.88826 10.8514 3.91665 10.759 3.96479C10.6667 4.01293 10.5854 4.07976 10.5203 4.16104C10.4553 4.24231 10.4078 4.33625 10.381 4.43687C10.3542 4.53749 10.3487 4.64258 10.3647 4.74545C10.3808 4.84833 10.4181 4.94674 10.4743 5.03441C10.5304 5.12208 10.6042 5.1971 10.691 5.25468C10.7777 5.31227 10.8755 5.35116 10.9781 5.36888Z" fill="black"/>
</svg>
