<svg xmlns="http://www.w3.org/2000/svg" width="32" height="32" viewBox="0 0 32 32" fill="none">
  <path d="M17.333 9.33338L14.6663 9.33338L14.6663 17.3334L17.333 17.3334L17.333 9.33338ZM15.9997 20C15.6219 20 15.305 20.128 15.049 20.384C14.7939 20.6392 14.6663 20.9556 14.6663 21.3334C14.6663 21.7112 14.7939 22.028 15.049 22.284C15.305 22.5392 15.6219 22.6667 15.9997 22.6667C16.3775 22.6667 16.6939 22.5392 16.949 22.284C17.205 22.028 17.333 21.7112 17.333 21.3334C17.333 20.9556 17.205 20.6392 16.949 20.384C16.6939 20.128 16.3775 20 15.9997 20ZM15.9997 2.66671C17.8441 2.66671 19.5775 3.01693 21.1997 3.71738C22.8219 4.41693 24.233 5.36671 25.433 6.56671C26.633 7.76671 27.5828 9.17782 28.2823 10.8C28.9828 12.4223 29.333 14.1556 29.333 16C29.333 17.8445 28.9828 19.5778 28.2823 21.2C27.5828 22.8223 26.633 24.2334 25.433 25.4334C24.233 26.6334 22.8219 27.5836 21.1997 28.284C19.5775 28.9836 17.8441 29.3334 15.9997 29.3334C14.1552 29.3334 12.4219 28.9836 10.7997 28.284C9.17745 27.5836 7.76634 26.6334 6.56634 25.4334C5.36634 24.2334 4.41656 22.8223 3.71701 21.2C3.01656 19.5778 2.66634 17.8445 2.66634 16C2.66634 14.1556 3.01656 12.4223 3.71701 10.8C4.41656 9.17782 5.36634 7.76671 6.56634 6.56671C7.76634 5.36671 9.17745 4.41693 10.7997 3.71738C12.4219 3.01693 14.1552 2.66671 15.9997 2.66671Z" fill="#ED4C5C"/>
</svg>