<svg width="36" height="36" viewBox="0 0 36 36" fill="none" xmlns="http://www.w3.org/2000/svg">
<g clip-path="url(#clip0_7371_26514)">
<path d="M28.5 4.533C28.5 4.521 28.5 4.512 28.5 4.5V1.5C28.5 1.10218 28.342 0.720644 28.0607 0.43934C27.7794 0.158035 27.3978 0 27 0C26.6022 0 26.2206 0.158035 25.9393 0.43934C25.658 0.720644 25.5 1.10218 25.5 1.5V3.15C25.0063 3.04975 24.5038 2.9995 24 3H22.5V1.5C22.5 1.10218 22.342 0.720644 22.0607 0.43934C21.7794 0.158035 21.3978 0 21 0C20.6022 0 20.2206 0.158035 19.9393 0.43934C19.658 0.720644 19.5 1.10218 19.5 1.5V3H16.5V1.5C16.5 1.10218 16.342 0.720644 16.0607 0.43934C15.7794 0.158035 15.3978 0 15 0C14.6022 0 14.2206 0.158035 13.9393 0.43934C13.658 0.720644 13.5 1.10218 13.5 1.5V3H12C11.4962 2.9995 10.9937 3.04975 10.5 3.15V1.5C10.5 1.10218 10.342 0.720644 10.0607 0.43934C9.77936 0.158035 9.39782 0 9 0C8.60218 0 8.22064 0.158035 7.93934 0.43934C7.65804 0.720644 7.5 1.10218 7.5 1.5V4.5V4.533C6.57118 5.22656 5.81655 6.12681 5.29585 7.16248C4.77515 8.19815 4.50268 9.34081 4.5 10.5V28.5C4.50238 30.4884 5.29332 32.3947 6.69933 33.8007C8.10534 35.2067 10.0116 35.9976 12 36H24C25.9884 35.9976 27.8947 35.2067 29.3007 33.8007C30.7067 32.3947 31.4976 30.4884 31.5 28.5V10.5C31.4973 9.34081 31.2249 8.19815 30.7042 7.16248C30.1835 6.12681 29.4288 5.22656 28.5 4.533ZM18 25.5H12C11.6022 25.5 11.2206 25.342 10.9393 25.0607C10.658 24.7794 10.5 24.3978 10.5 24C10.5 23.6022 10.658 23.2206 10.9393 22.9393C11.2206 22.658 11.6022 22.5 12 22.5H18C18.3978 22.5 18.7794 22.658 19.0607 22.9393C19.342 23.2206 19.5 23.6022 19.5 24C19.5 24.3978 19.342 24.7794 19.0607 25.0607C18.7794 25.342 18.3978 25.5 18 25.5ZM24 19.5H12C11.6022 19.5 11.2206 19.342 10.9393 19.0607C10.658 18.7794 10.5 18.3978 10.5 18C10.5 17.6022 10.658 17.2206 10.9393 16.9393C11.2206 16.658 11.6022 16.5 12 16.5H24C24.3978 16.5 24.7794 16.658 25.0607 16.9393C25.342 17.2206 25.5 17.6022 25.5 18C25.5 18.3978 25.342 18.7794 25.0607 19.0607C24.7794 19.342 24.3978 19.5 24 19.5ZM24 13.5H12C11.6022 13.5 11.2206 13.342 10.9393 13.0607C10.658 12.7794 10.5 12.3978 10.5 12C10.5 11.6022 10.658 11.2206 10.9393 10.9393C11.2206 10.658 11.6022 10.5 12 10.5H24C24.3978 10.5 24.7794 10.658 25.0607 10.9393C25.342 11.2206 25.5 11.6022 25.5 12C25.5 12.3978 25.342 12.7794 25.0607 13.0607C24.7794 13.342 24.3978 13.5 24 13.5Z" fill="#6A6A6A"/>
</g>
<defs>
<clipPath id="clip0_7371_26514">
<rect width="36" height="36" fill="white"/>
</clipPath>
</defs>
</svg>
