<svg width="52" height="52" viewBox="0 0 52 52" fill="none" xmlns="http://www.w3.org/2000/svg">
<path d="M9.71948 7.34296H42.0773V46.2312H9.71948V7.34296Z" fill="#00B151"/>
<path d="M42.0773 46.6273H9.71948C9.49604 46.6273 9.31323 46.4445 9.31323 46.2211V7.34296C9.31323 7.11952 9.49604 6.93671 9.71948 6.93671H10.146C10.3695 6.93671 10.5523 7.11952 10.5523 7.34296C10.5523 7.56639 10.3695 7.74921 10.146 7.74921H10.1257V45.8148H41.671V7.74921H41.6609C41.4375 7.74921 41.2546 7.56639 41.2546 7.34296C41.2546 7.11952 41.4375 6.93671 41.6609 6.93671H42.0773C42.3007 6.93671 42.4835 7.11952 42.4835 7.34296V46.2211C42.4835 46.4445 42.3007 46.6273 42.0773 46.6273Z" fill="#026F30"/>
<path d="M11.375 5.81952H25.8984V44.3219H11.375V5.81952Z" fill="white"/>
<path d="M25.8984 44.7281H11.375C11.1516 44.7281 10.9688 44.5453 10.9688 44.3219V5.81952C10.9688 5.59608 11.1516 5.41327 11.375 5.41327H25.8984C26.1219 5.41327 26.3047 5.59608 26.3047 5.81952V44.3219C26.3047 44.5453 26.1219 44.7281 25.8984 44.7281ZM11.7812 43.9156H25.4922V6.22577H11.7812V43.9156Z" fill="#026F30"/>
<path d="M25.8984 5.81952H40.4219V44.3219H25.8984V5.81952Z" fill="white"/>
<path d="M40.4219 44.7281H25.8984C25.675 44.7281 25.4922 44.5453 25.4922 44.3219V5.81952C25.4922 5.59608 25.675 5.41327 25.8984 5.41327H40.4219C40.6453 5.41327 40.8281 5.59608 40.8281 5.81952V44.3219C40.8281 44.5453 40.6453 44.7281 40.4219 44.7281ZM26.3047 43.9156H40.0156V6.22577H26.3047V43.9156Z" fill="#026F30"/>
<path d="M25.8984 46.6274C25.675 46.6274 25.4922 46.4445 25.4922 46.2211V45.6727C25.4922 45.4492 25.675 45.2664 25.8984 45.2664C26.1219 45.2664 26.3047 45.4492 26.3047 45.6727V46.2211C26.3047 46.4445 26.1219 46.6274 25.8984 46.6274Z" fill="#026F30"/>
<path d="M31.0579 21.2672C29.7172 21.2672 28.8743 20.475 28.8743 19.1953V16.0469C28.8743 15.8234 29.0571 15.6406 29.2805 15.6406C29.504 15.6406 29.6868 15.8234 29.6868 16.0469V19.1953C29.6868 20.2414 30.4383 20.4547 31.0579 20.4547C31.6774 20.4547 32.429 20.2313 32.429 19.1953V16.0469C32.429 15.8234 32.6118 15.6406 32.8352 15.6406C33.0586 15.6406 33.2415 15.8234 33.2415 16.0469V19.1953C33.2415 20.475 32.3985 21.2672 31.0579 21.2672Z" fill="#026F30"/>
<path d="M31.0579 21.7242C30.8344 21.7242 30.6516 21.5414 30.6516 21.318V16.0469C30.6516 15.8234 30.8344 15.6406 31.0579 15.6406C31.2813 15.6406 31.4641 15.8234 31.4641 16.0469V21.318C31.4641 21.5414 31.2813 21.7242 31.0579 21.7242Z" fill="#026F30"/>
<path d="M31.0579 32.561C30.8344 32.561 30.6516 32.3781 30.6516 32.1547V21.318C30.6516 21.0946 30.8344 20.9117 31.0579 20.9117C31.2813 20.9117 31.4641 21.0946 31.4641 21.318V32.1547C31.4641 32.3781 31.2813 32.561 31.0579 32.561Z" fill="#026F30"/>
<path d="M34.7344 16.0469V26.9344L35.9633 25.8781C36.3898 25.5125 36.6133 25.0352 36.7453 24.507C36.8469 24.0805 36.8672 23.6336 36.8367 23.1969L36.6742 21.0742C36.5219 19.2359 35.8516 17.4891 34.7344 16.0469Z" fill="white"/>
<path d="M34.7344 27.3406C34.6734 27.3406 34.6227 27.3304 34.5617 27.3C34.4195 27.239 34.3281 27.0867 34.3281 26.9344V16.0469C34.3281 15.8742 34.4398 15.7219 34.6023 15.6609C34.7648 15.6101 34.9477 15.6609 35.0492 15.7929C36.2172 17.2961 36.9078 19.1039 37.0703 21.0336L37.2328 23.1562C37.2734 23.6742 37.2328 24.1617 37.1313 24.5883C36.9586 25.2789 36.6641 25.7969 36.2172 26.1726L34.9883 27.2289C34.9273 27.3 34.8258 27.3406 34.7344 27.3406ZM35.1406 17.3875V26.0609L35.6992 25.5734C36.0141 25.2992 36.2172 24.9336 36.3492 24.4156C36.4305 24.0703 36.4609 23.664 36.4305 23.2273L36.268 21.1047C36.1664 19.7844 35.7703 18.5148 35.1406 17.3875Z" fill="#026F30"/>
<path d="M34.7344 32.5609C34.5109 32.5609 34.3281 32.3781 34.3281 32.1547V26.9242C34.3281 26.7008 34.5109 26.5179 34.7344 26.5179C34.9578 26.5179 35.1406 26.7008 35.1406 26.9242V32.1547C35.1406 32.3781 34.9578 32.5609 34.7344 32.5609Z" fill="#026F30"/>
<path d="M23.268 14.1273H13.7922C13.5688 14.1273 13.386 13.9445 13.386 13.7211C13.386 13.4976 13.5688 13.3148 13.7922 13.3148H23.268C23.4915 13.3148 23.6743 13.4976 23.6743 13.7211C23.6743 13.9445 23.4915 14.1273 23.268 14.1273Z" fill="#026F30"/>
<path d="M23.268 16.8289H21.9883C21.7648 16.8289 21.582 16.6461 21.582 16.4227C21.582 16.1992 21.7648 16.0164 21.9883 16.0164H23.268C23.4914 16.0164 23.6742 16.1992 23.6742 16.4227C23.6742 16.6461 23.4914 16.8289 23.268 16.8289Z" fill="#026F30"/>
<path d="M20.2922 16.8289H13.7922C13.5688 16.8289 13.386 16.6461 13.386 16.4227C13.386 16.1992 13.5688 16.0164 13.7922 16.0164H20.2922C20.5157 16.0164 20.6985 16.1992 20.6985 16.4227C20.6985 16.6461 20.5157 16.8289 20.2922 16.8289Z" fill="#026F30"/>
<path d="M23.268 19.5203H21.9883C21.7648 19.5203 21.582 19.3375 21.582 19.1141C21.582 18.8906 21.7648 18.7078 21.9883 18.7078H23.268C23.4914 18.7078 23.6742 18.8906 23.6742 19.1141C23.6742 19.3375 23.4914 19.5203 23.268 19.5203Z" fill="#026F30"/>
<path d="M20.2922 19.5203H13.7922C13.5688 19.5203 13.386 19.3375 13.386 19.1141C13.386 18.8906 13.5688 18.7078 13.7922 18.7078H20.2922C20.5157 18.7078 20.6985 18.8906 20.6985 19.1141C20.6985 19.3375 20.5157 19.5203 20.2922 19.5203Z" fill="#026F30"/>
<path d="M23.268 22.2117H21.9883C21.7648 22.2117 21.582 22.0289 21.582 21.8055C21.582 21.582 21.7648 21.3992 21.9883 21.3992H23.268C23.4914 21.3992 23.6742 21.582 23.6742 21.8055C23.6742 22.0289 23.4914 22.2117 23.268 22.2117Z" fill="#026F30"/>
<path d="M20.2922 22.2117H13.7922C13.5688 22.2117 13.386 22.0289 13.386 21.8055C13.386 21.582 13.5688 21.3992 13.7922 21.3992H20.2922C20.5157 21.3992 20.6985 21.582 20.6985 21.8055C20.6985 22.0289 20.5157 22.2117 20.2922 22.2117Z" fill="#026F30"/>
<path d="M23.268 27.5945H13.7922C13.5688 27.5945 13.386 27.4117 13.386 27.1883C13.386 26.9649 13.5688 26.782 13.7922 26.782H23.268C23.4915 26.782 23.6743 26.9649 23.6743 27.1883C23.6743 27.4117 23.4915 27.5945 23.268 27.5945Z" fill="#026F30"/>
<path d="M23.268 30.2961H21.9883C21.7648 30.2961 21.582 30.1133 21.582 29.8898C21.582 29.6664 21.7648 29.4836 21.9883 29.4836H23.268C23.4914 29.4836 23.6742 29.6664 23.6742 29.8898C23.6742 30.1133 23.4914 30.2961 23.268 30.2961Z" fill="#026F30"/>
<path d="M20.2922 30.2961H13.7922C13.5688 30.2961 13.386 30.1133 13.386 29.8898C13.386 29.6664 13.5688 29.4836 13.7922 29.4836H20.2922C20.5157 29.4836 20.6985 29.6664 20.6985 29.8898C20.6985 30.1133 20.5157 30.2961 20.2922 30.2961Z" fill="#026F30"/>
<path d="M23.268 32.9875H21.9883C21.7648 32.9875 21.582 32.8047 21.582 32.5812C21.582 32.3578 21.7648 32.175 21.9883 32.175H23.268C23.4914 32.175 23.6742 32.3578 23.6742 32.5812C23.6742 32.8047 23.4914 32.9875 23.268 32.9875Z" fill="#026F30"/>
<path d="M20.2922 32.9875H13.7922C13.5688 32.9875 13.386 32.8047 13.386 32.5812C13.386 32.3578 13.5688 32.175 13.7922 32.175H20.2922C20.5157 32.175 20.6985 32.3578 20.6985 32.5812C20.6985 32.8047 20.5157 32.9875 20.2922 32.9875Z" fill="#026F30"/>
<path d="M23.268 35.6789H21.9883C21.7648 35.6789 21.582 35.4961 21.582 35.2726C21.582 35.0492 21.7648 34.8664 21.9883 34.8664H23.268C23.4914 34.8664 23.6742 35.0492 23.6742 35.2726C23.6742 35.4961 23.4914 35.6789 23.268 35.6789Z" fill="#026F30"/>
<path d="M20.2922 35.6789H13.7922C13.5688 35.6789 13.386 35.4961 13.386 35.2726C13.386 35.0492 13.5688 34.8664 13.7922 34.8664H20.2922C20.5157 34.8664 20.6985 35.0492 20.6985 35.2726C20.6985 35.4961 20.5157 35.6789 20.2922 35.6789Z" fill="#026F30"/>
</svg>
