<svg width="52" height="52" viewBox="0 0 52 52" fill="none" xmlns="http://www.w3.org/2000/svg">
<path d="M21.1554 40.3305C23.5169 40.3305 25.4312 38.4162 25.4312 36.0547C25.4312 33.6933 23.5169 31.7789 21.1554 31.7789C18.794 31.7789 16.8796 33.6933 16.8796 36.0547C16.8796 38.4162 18.794 40.3305 21.1554 40.3305Z" fill="white"/>
<path d="M21.1553 40.7368C19.378 40.7368 17.7225 39.711 16.9506 38.1164C16.8491 37.9133 16.9405 37.6696 17.1334 37.5782C17.3366 37.4766 17.5803 37.568 17.6717 37.761C18.3116 39.0813 19.6725 39.9344 21.1452 39.9344C22.7092 39.9344 24.1006 39.0102 24.71 37.568C24.8014 37.3649 25.035 37.2633 25.2381 37.3547C25.4413 37.4461 25.5428 37.6797 25.4514 37.8829C24.7303 39.6094 23.0444 40.7368 21.1553 40.7368Z" fill="#C1C1C1"/>
<path d="M41.8031 40.3305C44.1646 40.3305 46.0789 38.4162 46.0789 36.0547C46.0789 33.6933 44.1646 31.7789 41.8031 31.7789C39.4417 31.7789 37.5273 33.6933 37.5273 36.0547C37.5273 38.4162 39.4417 40.3305 41.8031 40.3305Z" fill="white"/>
<path d="M41.8031 40.7266C39.2234 40.7266 37.1211 38.6242 37.1211 36.0445C37.1211 34.0336 38.4008 32.2461 40.3102 31.6062C40.5234 31.5352 40.7469 31.6469 40.818 31.8602C40.8891 32.0734 40.7773 32.2969 40.5641 32.368C38.9898 32.8961 37.9234 34.3687 37.9234 36.0344C37.9234 38.1672 39.6602 39.9039 41.793 39.9039C43.9258 39.9039 45.6625 38.1672 45.6625 36.0344C45.6625 34.3281 44.5656 32.8453 42.9305 32.3375C42.7172 32.2766 42.5953 32.043 42.6664 31.8297C42.7273 31.6164 42.9609 31.4945 43.1742 31.5656C45.1445 32.175 46.475 33.9726 46.475 36.0344C46.4852 38.6242 44.3828 40.7266 41.8031 40.7266Z" fill="#C1C1C1"/>
<path d="M41.803 37.9235C40.767 37.9235 39.9241 37.0805 39.9241 36.0446C39.9241 35.0086 40.767 34.1656 41.803 34.1656C42.8389 34.1656 43.6819 35.0086 43.6819 36.0446C43.6819 37.0805 42.8389 37.9235 41.803 37.9235Z" fill="white"/>
<path d="M41.793 38.3399C40.5336 38.3399 39.5078 37.3141 39.5078 36.0547C39.5078 35.1914 39.9852 34.4094 40.757 34.0235C40.9602 33.9219 41.2039 34.0031 41.2953 34.2063C41.3969 34.4094 41.3156 34.6531 41.1125 34.7446C40.6148 34.9883 40.3102 35.4961 40.3102 36.0446C40.3102 36.8571 40.9703 37.5172 41.7828 37.5172C42.5953 37.5172 43.2656 36.8672 43.2656 36.0547C43.2656 35.8313 43.4484 35.6485 43.6719 35.6485C43.8953 35.6485 44.0781 35.8313 44.0781 36.0547C44.0781 37.3141 43.0523 38.3399 41.793 38.3399Z" fill="#C1C1C1"/>
<path d="M21.1553 37.9235C20.1193 37.9235 19.2764 37.0805 19.2764 36.0446C19.2764 35.0086 20.1193 34.1656 21.1553 34.1656C22.1912 34.1656 23.0342 35.0086 23.0342 36.0446C23.0342 37.0805 22.1912 37.9235 21.1553 37.9235Z" fill="white"/>
<path d="M21.1554 38.3297C20.6578 38.3297 20.1804 38.1672 19.7945 37.8727C19.6218 37.7407 19.5812 37.4868 19.7234 37.3039C19.8554 37.1313 20.1093 37.0907 20.2922 37.2329C20.5359 37.4258 20.8508 37.5274 21.1656 37.5274C21.5109 37.5274 21.8359 37.4055 22.1 37.1821C22.2726 37.0399 22.5265 37.0602 22.6687 37.2329C22.8109 37.4055 22.7906 37.6594 22.6179 37.8016C22.2117 38.1368 21.6937 38.3297 21.1554 38.3297Z" fill="#C1C1C1"/>
<path d="M23.0444 36.4609C22.821 36.4609 22.6382 36.2781 22.6382 36.0547C22.6382 35.2422 21.978 34.582 21.1655 34.582C20.353 34.582 19.6929 35.2422 19.6929 36.0547C19.6929 36.2781 19.5101 36.4609 19.2866 36.4609C19.0632 36.4609 18.8804 36.2781 18.8804 36.0547C18.8804 34.7953 19.9062 33.7695 21.1655 33.7695C22.4249 33.7695 23.4507 34.7953 23.4507 36.0547C23.4507 36.2781 23.2679 36.4609 23.0444 36.4609Z" fill="#C1C1C1"/>
<path d="M36.3287 36.0547C36.3287 33.1602 38.5833 30.7938 41.4169 30.5907L39.0201 20.4446H34.9576L35.2013 30.7125C35.2013 31.9618 34.1958 32.9672 32.9466 32.9672H29.3513C28.0716 32.9672 27.0255 31.9313 27.0255 30.6415V25.9391H19.8044C18.9005 25.9391 18.0169 26.2641 17.3365 26.8532C15.7318 28.2446 14.6044 30.1032 14.1271 32.175L13.1521 36.4H36.3388C36.3287 36.2883 36.3287 36.1665 36.3287 36.0547Z" fill="white"/>
<path d="M36.3389 36.8063H13.1522C13.0303 36.8063 12.9084 36.7454 12.8374 36.654C12.7561 36.5625 12.7358 36.4305 12.7561 36.3086L13.7311 32.0836C14.2288 29.9204 15.3866 28.011 17.0725 26.5485C17.8241 25.8985 18.7991 25.5329 19.8045 25.5329H27.0256C27.2491 25.5329 27.4319 25.7157 27.4319 25.9391V30.6415C27.4319 31.6977 28.2952 32.561 29.3514 32.561H32.9467C33.9624 32.561 34.7952 31.7282 34.7952 30.7125L34.5514 20.4547C34.5514 20.343 34.592 20.2415 34.6631 20.1602C34.7342 20.079 34.846 20.0383 34.9475 20.0383H39.01C39.1928 20.0383 39.3553 20.1704 39.4061 20.3532L41.803 30.4993C41.8335 30.611 41.803 30.7329 41.7319 30.8344C41.6608 30.936 41.5491 30.9868 41.4374 30.9969C38.7967 31.1899 36.7249 33.4141 36.7249 36.0547C36.7249 36.1563 36.7249 36.268 36.735 36.3594C36.7452 36.4711 36.7045 36.5829 36.6335 36.6641C36.5624 36.7555 36.4506 36.8063 36.3389 36.8063ZM13.66 35.9938H35.9225C35.953 33.1094 38.0959 30.6719 40.9194 30.2352L38.7053 20.8407H35.3741L35.6077 30.6922C35.6077 32.1649 34.4194 33.3633 32.9467 33.3633H29.3514C27.8483 33.3633 26.6194 32.1344 26.6194 30.6313V26.3352H19.8045C18.992 26.3352 18.21 26.6297 17.6006 27.1477C16.0467 28.4985 14.9803 30.2657 14.5233 32.2563L13.66 35.9938Z" fill="#C1C1C1"/>
<path d="M34.9578 17.1235H39.0101V20.4446H34.9578V17.1235Z" fill="white"/>
<path d="M39.0101 20.8508H34.9578C34.7343 20.8508 34.5515 20.668 34.5515 20.4446V17.1235C34.5515 16.9 34.7343 16.7172 34.9578 16.7172H39.0101C39.2335 16.7172 39.4164 16.9 39.4164 17.1235V20.4446C39.4164 20.668 39.2335 20.8508 39.0101 20.8508ZM35.364 20.0383H38.6039V17.5297H35.364V20.0383Z" fill="#C1C1C1"/>
<path d="M39.01 17.1235H40.6959V20.4446H39.01V17.1235Z" fill="#EEEEEE"/>
<path d="M40.6959 20.8508H39.01C38.7866 20.8508 38.6038 20.668 38.6038 20.4446V17.1235C38.6038 16.9 38.7866 16.7172 39.01 16.7172H40.6959C40.9194 16.7172 41.1022 16.9 41.1022 17.1235V20.4446C41.1022 20.668 40.9194 20.8508 40.6959 20.8508ZM39.4163 20.0383H40.2897V17.5297H39.4163V20.0383Z" fill="#C1C1C1"/>
<path d="M34.9577 18.9719H31.6265C31.403 18.9719 31.2202 18.7891 31.2202 18.5657C31.2202 18.3422 31.403 18.1594 31.6265 18.1594H34.9577C35.1812 18.1594 35.364 18.3422 35.364 18.5657C35.364 18.7891 35.1812 18.9719 34.9577 18.9719Z" fill="#C1C1C1"/>
<path d="M36.5521 17.5297C36.4201 17.5297 36.2881 17.4586 36.2068 17.3469L35.1506 15.6813C35.0287 15.4883 35.0896 15.2445 35.2724 15.1227C35.4654 15.0008 35.7092 15.0617 35.831 15.2445L36.8873 16.9102C37.0092 17.1031 36.9482 17.3469 36.7654 17.4688C36.7045 17.5094 36.6232 17.5297 36.5521 17.5297Z" fill="#C1C1C1"/>
<path d="M35.6382 15.3664H34.9578V11.7203H35.6382C35.9937 11.7203 36.2679 12.0047 36.2679 12.35V14.7266C36.2679 15.0821 35.9835 15.3664 35.6382 15.3664Z" fill="white"/>
<path d="M35.6382 15.7727H34.9578C34.7343 15.7727 34.5515 15.5899 34.5515 15.3664V11.7203C34.5515 11.4969 34.7343 11.3141 34.9578 11.3141H35.6382C36.207 11.3141 36.6742 11.7813 36.6742 12.35V14.7266C36.6742 15.3055 36.207 15.7727 35.6382 15.7727ZM35.364 14.9602H35.6382C35.7601 14.9602 35.8617 14.8586 35.8617 14.7266V12.35C35.8617 12.2281 35.7601 12.1266 35.6382 12.1266H35.364V14.9602Z" fill="#C1C1C1"/>
<path d="M19.4998 22.943H27.3709C28.1936 22.943 28.8639 23.6133 28.8639 24.436C28.8639 25.2586 28.1936 25.9289 27.3709 25.9289H19.4998C18.6771 25.9289 18.0068 25.2586 18.0068 24.436C18.0068 23.6133 18.6771 22.943 19.4998 22.943Z" fill="#EEEEEE"/>
<path d="M27.3709 26.3352H19.4998C18.4537 26.3352 17.6006 25.4821 17.6006 24.436C17.6006 23.3899 18.4537 22.5367 19.4998 22.5367H27.3709C28.417 22.5367 29.2701 23.3899 29.2701 24.436C29.2701 25.4821 28.417 26.3352 27.3709 26.3352ZM19.4998 23.3492C18.9006 23.3492 18.4131 23.8367 18.4131 24.436C18.4131 25.0352 18.9006 25.5227 19.4998 25.5227H27.3709C27.9701 25.5227 28.4576 25.0352 28.4576 24.436C28.4576 23.8367 27.9701 23.3492 27.3709 23.3492H19.4998Z" fill="#C1C1C1"/>
<path d="M42.7374 36.4305H41.3257C41.1022 36.4305 40.9194 36.2477 40.9194 36.0243C40.9194 35.8008 41.1022 35.618 41.3257 35.618H42.2194L40.828 29.9C40.7772 29.6868 40.9093 29.4633 41.1225 29.4125C41.3358 29.3618 41.5593 29.4938 41.61 29.7071L43.1233 35.9227C43.1538 36.0446 43.1233 36.1664 43.0522 36.268C42.9811 36.3696 42.8593 36.4305 42.7374 36.4305Z" fill="#C1C1C1"/>
<path d="M5.72803 15.4578H16.5343V25.9391H5.72803V15.4578Z" fill="white"/>
<path d="M16.5343 26.3453H5.72803C5.50459 26.3453 5.32178 26.1625 5.32178 25.9391V15.4578C5.32178 15.2344 5.50459 15.0516 5.72803 15.0516H16.5343C16.7577 15.0516 16.9405 15.2344 16.9405 15.4578V25.9391C16.9405 26.1625 16.7577 26.3453 16.5343 26.3453ZM6.13428 25.5328H16.128V15.8641H6.13428V25.5328Z" fill="#C1C1C1"/>
<path d="M19.5305 26.3453H15.3867C15.1633 26.3453 14.9805 26.1625 14.9805 25.9391C14.9805 25.7156 15.1633 25.5328 15.3867 25.5328H19.5305C19.7539 25.5328 19.9367 25.7156 19.9367 25.9391C19.9367 26.1625 19.7539 26.3453 19.5305 26.3453Z" fill="#C1C1C1"/>
<path d="M15.5086 29.3313C15.3969 29.3313 15.2851 29.2906 15.2039 29.1992L12.5328 26.2133C12.3805 26.0508 12.4008 25.7867 12.5633 25.6446C12.7258 25.4922 12.9898 25.5125 13.132 25.675L15.8031 28.661C15.9555 28.8235 15.9351 29.0875 15.7726 29.2297C15.7015 29.2906 15.6 29.3313 15.5086 29.3313Z" fill="#C1C1C1"/>
</svg>
