<svg width="24" height="24" viewBox="0 0 24 24" fill="none" xmlns="http://www.w3.org/2000/svg">
<path d="M19.3291 4.89487C19.4228 4.84029 19.4941 4.75426 19.5303 4.65209C19.5665 4.54991 19.5654 4.4382 19.527 4.3368C19.4887 4.23539 19.4156 4.15087 19.3209 4.09823C19.2261 4.0456 19.1157 4.02827 19.0094 4.04932C19.0121 3.97993 18.9972 3.91098 18.9662 3.84887C18.9351 3.78676 18.8889 3.7335 18.8317 3.69405C18.2064 3.21798 17.4817 2.83784 17.0198 2.19124C17.0466 2.12994 17.0604 2.06378 17.0605 1.99689C17.0605 1.93001 17.0468 1.86383 17.0201 1.80249C16.9934 1.74115 16.9544 1.68596 16.9055 1.64038C16.8565 1.59479 16.7987 1.55978 16.7356 1.53754C15.2008 1.11476 13.5382 1.67254 12.0211 1.96031C9.40988 2.45059 6.68849 2.1344 4.05236 2.50033C3.95094 2.52693 3.86114 2.58628 3.7969 2.66915C3.73266 2.75202 3.69757 2.85378 3.69709 2.95863C3.69709 6.1028 3.64735 9.23276 3.87118 12.3698C4.09145 15.4323 4.4929 18.4699 4.12342 21.5394C4.11556 21.6014 4.12976 21.6642 4.16354 21.7169C4.19731 21.7695 4.2485 21.8085 4.30816 21.8272C4.28283 21.855 4.26609 21.8896 4.25994 21.9268C4.2538 21.9639 4.25851 22.002 4.27353 22.0366C4.28854 22.0711 4.31321 22.1006 4.34456 22.1214C4.37592 22.1422 4.41262 22.1536 4.45027 22.154C6.93718 22.154 9.38857 21.5927 11.911 21.646C14.0888 21.6957 16.423 21.9338 18.5226 21.241C18.5783 21.221 18.6291 21.1895 18.6719 21.1486C18.8886 21.241 19.2048 21.1202 19.1799 20.8395C18.7465 15.9154 21.1872 9.65908 19.3291 4.89487ZM17.0767 3.3672C17.4101 3.69453 17.7796 3.98296 18.178 4.22696C17.6093 4.33307 17.0353 4.40897 16.4585 4.45433C16.4372 3.80063 16.4585 3.14337 16.4407 2.49322C16.5958 2.82477 16.8156 3.12194 17.0873 3.3672H17.0767ZM18.4125 20.4203C15.6449 20.6406 12.9555 20.6406 10.1808 20.6193C8.43999 20.6193 6.33677 20.5802 4.79133 21.4968C5.89979 16.7006 4.60659 11.336 4.61725 6.45452C4.61725 5.06895 4.05237 3.3743 6.23374 3.22153C7.61931 3.12206 9.01908 3.17535 10.4082 3.12206C12.2556 3.05456 14.064 2.39375 15.9043 2.41151C15.7799 3.2393 15.716 4.07774 15.6201 4.89842C15.5916 5.13646 15.8332 5.31054 16.0428 5.3212C16.8294 5.35454 17.617 5.2901 18.3876 5.12935C19.3007 10.2666 17.5527 15.3292 18.4232 20.4239L18.4125 20.4203Z" fill="#026F30"/>
<path d="M14.0995 5.78662C14.0736 5.71889 14.0308 5.65894 13.9751 5.61253C13.6422 5.34149 13.3407 5.03404 13.0763 4.69593C13.0323 4.62367 12.9683 4.56573 12.892 4.52914C12.8158 4.49254 12.7305 4.47887 12.6466 4.48978C12.5628 4.50069 12.4838 4.53571 12.4195 4.59059C12.3551 4.64547 12.3081 4.71785 12.284 4.79896C12.2468 4.88133 12.2016 4.95987 12.149 5.03344C12.0318 4.88067 11.9145 4.72435 11.7937 4.56092C11.7552 4.49848 11.7014 4.44692 11.6374 4.41116C11.5733 4.37541 11.5012 4.35663 11.4278 4.35663C11.3545 4.35663 11.2823 4.37541 11.2183 4.41116C11.1542 4.44692 11.1004 4.49848 11.0619 4.56092C10.9594 4.70302 10.8479 4.83831 10.7279 4.96593C10.5594 4.79566 10.4027 4.61404 10.259 4.42237C10.2153 4.35273 10.1527 4.29705 10.0784 4.26192C10.0041 4.2268 9.92136 4.21369 9.83986 4.22416C9.75837 4.23462 9.68158 4.26823 9.6186 4.32098C9.55561 4.37374 9.50906 4.44345 9.48446 4.52184C9.33682 4.9089 9.14867 5.27926 8.92313 5.62674C8.67444 5.15778 8.44351 4.67816 8.21259 4.20565C8.18287 4.15637 8.14093 4.1156 8.09082 4.0873C8.04071 4.059 7.98414 4.04413 7.92659 4.04413C7.86904 4.04413 7.81247 4.059 7.76236 4.0873C7.71225 4.1156 7.67031 4.15637 7.6406 4.20565C7.25704 4.89496 7.08642 5.6825 7.15032 6.46874C7.15032 6.52622 7.17315 6.58134 7.21379 6.62198C7.25444 6.66262 7.30956 6.68546 7.36703 6.68546C7.42451 6.68546 7.47963 6.66262 7.52028 6.62198C7.56092 6.58134 7.58375 6.52622 7.58375 6.46874C7.63013 6.02793 7.73158 5.59467 7.88573 5.1791C8.08364 5.6883 8.30898 6.18641 8.56075 6.67125C8.59638 6.73086 8.64686 6.78021 8.70726 6.81448C8.76766 6.84875 8.83592 6.86677 8.90537 6.86677C8.97482 6.86677 9.04307 6.84875 9.10348 6.81448C9.16388 6.78021 9.21436 6.73086 9.24998 6.67125C9.49867 6.25202 9.76868 5.84701 9.9925 5.42068C10.1221 5.5531 10.2409 5.69567 10.3478 5.84701C10.3869 5.90864 10.441 5.95939 10.5049 5.99456C10.5689 6.02972 10.6407 6.04816 10.7137 6.04816C10.7867 6.04816 10.8585 6.02972 10.9225 5.99456C10.9865 5.95939 11.0405 5.90864 11.0796 5.84701C11.1728 5.72245 11.2737 5.60379 11.3816 5.49174C11.506 5.65872 11.6268 5.82214 11.7369 5.99978C11.7763 6.06216 11.8308 6.11354 11.8954 6.14916C11.96 6.18477 12.0326 6.20345 12.1064 6.20345C12.1802 6.20345 12.2527 6.18477 12.3173 6.14916C12.3819 6.11354 12.4365 6.06216 12.4759 5.99978C12.5682 5.87543 12.6464 5.77951 12.721 5.68359C12.938 5.91251 13.1758 6.12066 13.4315 6.30531C13.5082 6.36424 13.6023 6.39607 13.6989 6.39583C13.7956 6.39559 13.8895 6.36328 13.9659 6.30398C14.0422 6.24467 14.0968 6.16171 14.121 6.06809C14.1451 5.97447 14.1376 5.87548 14.0995 5.78662Z" fill="#026F30"/>
<path d="M7.60514 8.40856C7.60442 8.34689 7.58767 8.28648 7.55652 8.23326C7.52537 8.18003 7.4809 8.13584 7.42749 8.10501C7.37408 8.07418 7.31357 8.05779 7.2519 8.05744C7.19024 8.05709 7.12954 8.0728 7.07579 8.10302C6.83612 8.17537 6.58232 8.18758 6.33682 8.13855C6.25045 8.1332 6.16384 8.1332 6.07747 8.13855C6.01794 8.11649 5.95359 8.11079 5.89111 8.12204C5.82863 8.13329 5.7703 8.16107 5.7222 8.2025C5.7222 8.2025 5.68312 8.2025 5.66535 8.2025C5.63518 8.21121 5.60772 8.22747 5.58558 8.24974C5.56343 8.27202 5.54733 8.29957 5.5388 8.32979C5.53026 8.36002 5.52958 8.39192 5.5368 8.42249C5.54402 8.45305 5.55892 8.48127 5.58009 8.50448C5.45019 9.05441 5.45751 9.62783 5.6014 10.1743C5.62548 10.2603 5.67708 10.336 5.7483 10.3899C5.81952 10.4438 5.90644 10.4729 5.99576 10.4727H7.11487C7.2016 10.4697 7.28524 10.4397 7.35405 10.3868C7.42286 10.334 7.47339 10.2609 7.49856 10.1778C7.62817 9.59751 7.66415 9.00022 7.60514 8.40856ZM6.8946 8.73541C6.8946 8.87752 6.8946 9.02318 6.87683 9.16529C6.87402 9.33881 6.86097 9.51201 6.83775 9.68399H6.34037C6.313 9.32924 6.313 8.97291 6.34037 8.61817C6.53932 8.66435 6.70275 8.70699 6.8946 8.73541Z" fill="#026F30"/>
<path d="M16.4869 8.75671C16.0073 8.78869 15.5774 9.03383 15.0659 9.08001C14.1892 9.12382 13.3105 9.10364 12.4368 9.01962C11.3248 8.95567 9.66925 8.62171 8.64252 9.22212C8.59015 9.25328 8.54934 9.30064 8.52627 9.35705C8.50319 9.41345 8.4991 9.47583 8.51462 9.53476C8.52376 9.56436 8.53821 9.59204 8.55725 9.61648C8.76686 9.88648 9.55557 9.68753 9.854 9.69108C10.831 9.69108 11.8151 9.84385 12.7886 9.93267C13.5773 10.0002 16.5971 10.462 16.8067 9.19725C16.8193 9.14692 16.8207 9.09444 16.8108 9.0435C16.8009 8.99257 16.78 8.94441 16.7495 8.90243C16.7191 8.86044 16.6798 8.82563 16.6344 8.80046C16.589 8.77529 16.5387 8.76035 16.4869 8.75671Z" fill="#026F30"/>
<path d="M7.55187 12.956C7.55187 12.8921 7.55187 12.8281 7.55187 12.7606C7.55187 12.4053 7.58029 12.0927 7.59095 11.7587C7.5939 11.679 7.56992 11.6006 7.52287 11.5361C7.47582 11.4717 7.40845 11.425 7.3316 11.4035C6.39013 11.1867 5.32786 11.7054 5.49839 12.7997C5.52938 12.999 5.60785 13.1879 5.72719 13.3506C5.84652 13.5132 6.00323 13.6447 6.18407 13.7341C6.42978 13.8328 6.69511 13.873 6.95903 13.8514C7.22296 13.8298 7.47824 13.7471 7.70464 13.6097C8.06702 13.4321 7.86806 12.9951 7.55187 12.956ZM6.23381 12.6611C6.22363 12.5859 6.23083 12.5093 6.25485 12.4372C6.27887 12.3652 6.31907 12.2996 6.37236 12.2455C6.45097 12.1809 6.54194 12.1331 6.6397 12.105C6.73745 12.0769 6.83992 12.0691 6.9408 12.082C7.00804 12.41 7.05079 12.7425 7.0687 13.0768C6.6779 13.1727 6.31907 13.0875 6.23381 12.6611Z" fill="#026F30"/>
<path d="M16.5119 11.5314C15.2624 11.7746 13.9986 11.9371 12.7283 12.0181C11.4635 12.0643 10.1881 12.0643 8.93039 12.1993C8.60709 12.2348 8.57511 12.7216 8.93039 12.718C10.4616 12.6967 11.9857 12.8814 13.517 12.8672C14.4904 12.8672 16.1353 12.9241 16.885 12.1567C16.9353 12.0951 16.9654 12.0195 16.9713 11.9401C16.9771 11.8608 16.9584 11.7816 16.9176 11.7133C16.8769 11.6449 16.8161 11.5908 16.7435 11.5583C16.6709 11.5258 16.59 11.5164 16.5119 11.5314Z" fill="#026F30"/>
<path d="M7.49151 14.7573C6.98711 14.5427 6.42869 14.4893 5.89278 14.6045C5.45934 14.7253 5.50198 15.5708 5.50908 15.919C5.51037 16.1216 5.53662 16.3233 5.58724 16.5194C5.6583 16.7859 5.83238 16.8747 6.08462 16.9386C6.28186 17.0053 6.49308 17.0194 6.69744 16.9796C6.9018 16.9397 7.09222 16.8472 7.24992 16.7113C7.29813 16.7155 7.34637 16.7034 7.38693 16.677C7.4275 16.6506 7.45806 16.6114 7.47374 16.5656C7.56428 16.3473 7.62521 16.1179 7.65493 15.8835C7.65131 15.6857 7.67522 15.4884 7.72599 15.2973C7.75249 15.2473 7.76739 15.192 7.7696 15.1355C7.7718 15.079 7.76125 15.0227 7.73873 14.9708C7.7162 14.919 7.68228 14.8728 7.63948 14.8358C7.59668 14.7989 7.54611 14.772 7.49151 14.7573ZM6.6353 16.2032C6.52577 16.2315 6.41086 16.2315 6.30134 16.2032C6.23748 15.913 6.23748 15.6124 6.30134 15.3221C6.57071 15.3068 6.84057 15.3418 7.09715 15.4252C7.10438 15.5577 7.10438 15.6905 7.09715 15.8231C7.09715 15.9202 7.09715 16.0161 7.09715 16.1109H7.03676C6.90141 16.1346 6.76741 16.1654 6.6353 16.2032Z" fill="#026F30"/>
<path d="M16.4264 14.9065C15.8935 14.5157 14.7069 14.8709 14.1136 14.9065C12.2946 15.0592 10.472 15.1623 8.64949 15.2902C8.58919 15.2902 8.53136 15.3141 8.48872 15.3568C8.44607 15.3994 8.42212 15.4572 8.42212 15.5175C8.42212 15.5778 8.44607 15.6357 8.48872 15.6783C8.53136 15.721 8.58919 15.7449 8.64949 15.7449C11.1574 15.9085 13.6747 15.8586 16.1742 15.5957H16.1919H16.2381C16.317 15.5913 16.3926 15.5623 16.454 15.5126C16.5155 15.4629 16.5598 15.3952 16.5806 15.3189C16.6014 15.2427 16.5978 15.1618 16.5701 15.0878C16.5424 15.0138 16.4922 14.9503 16.4264 14.9065Z" fill="#026F30"/>
<path d="M8.00309 18.1857C8.00259 18.1282 7.98729 18.0719 7.95866 18.0221C7.93003 17.9723 7.88905 17.9308 7.83967 17.9014C7.30373 17.6607 6.72183 17.5395 6.13436 17.5462C6.05462 17.5432 5.97621 17.5672 5.91176 17.6142C5.84731 17.6613 5.80057 17.7287 5.77908 17.8055C5.69994 18.0865 5.65931 18.3769 5.65829 18.6688C5.63781 18.9953 5.69631 19.3219 5.82882 19.621C5.98159 19.8874 6.53937 19.9265 6.79516 19.9762C6.95575 20.0226 7.12487 20.0314 7.28938 20.0018C7.4539 19.9722 7.60938 19.9051 7.74374 19.8057C7.78506 19.7625 7.81229 19.7078 7.8218 19.6488C7.83132 19.5898 7.82268 19.5293 7.79704 19.4753C7.85477 19.4649 7.90651 19.4332 7.94202 19.3865C7.97754 19.3398 7.99426 19.2815 7.98888 19.223C7.97186 18.8773 7.9766 18.5308 8.00309 18.1857ZM7.00122 19.2834C6.80797 19.2625 6.61816 19.2172 6.43634 19.1484C6.37771 18.8595 6.37049 18.5624 6.41502 18.2709C6.73477 18.3064 7.04386 18.3846 7.3565 18.4486C7.35973 18.7212 7.39189 18.9927 7.45242 19.2586C7.30321 19.2657 7.15754 19.2906 7.00122 19.2834Z" fill="#026F30"/>
<path d="M17.1301 17.8268C15.9861 17.3472 13.9823 17.8588 12.7709 17.944C11.4577 17.9795 10.1501 18.1293 8.86285 18.3917C8.81768 18.4061 8.77827 18.4346 8.75031 18.4729C8.72234 18.5112 8.70728 18.5574 8.70728 18.6048C8.70728 18.6523 8.72234 18.6985 8.75031 18.7368C8.77827 18.7751 8.81768 18.8035 8.86285 18.818C10.1205 19.0951 11.4706 18.921 12.7709 18.8464C14.0712 18.7718 16.0074 19.0418 17.2189 18.5089C17.5528 18.3597 17.3859 17.9334 17.1301 17.8268Z" fill="#026F30"/>
</svg>
