<svg width="52" height="52" viewBox="0 0 52 52" fill="none" xmlns="http://www.w3.org/2000/svg">
<path d="M35.7908 44.5351H16.0166L14.1377 12.1672H37.6596L35.7908 44.5351Z" fill="white"/>
<path d="M35.7907 44.9414H16.0165C15.8032 44.9414 15.6306 44.7789 15.6103 44.5656L14.8689 31.8195C14.8587 31.5961 15.0212 31.4031 15.2446 31.393C15.4681 31.3828 15.661 31.5453 15.6712 31.7687L16.3923 44.1391H35.4048L36.1157 31.7789C36.1259 31.5555 36.3189 31.3828 36.5423 31.4031C36.7657 31.4133 36.9384 31.6062 36.9181 31.8297L36.1868 44.5758C36.1868 44.7687 36.004 44.9414 35.7907 44.9414Z" fill="#C1C1C1"/>
<path d="M14.818 24.2328C14.6047 24.2328 14.4321 24.0703 14.4117 23.857L13.7313 12.1875C13.7211 12.0758 13.7617 11.964 13.843 11.8828C13.9242 11.8015 14.0258 11.7609 14.1375 11.7609H37.6594C37.7711 11.7609 37.8727 11.8117 37.9539 11.8828C38.0352 11.964 38.0656 12.0758 38.0656 12.1875L37.3953 23.8469C37.3852 24.0703 37.1922 24.243 36.9688 24.2226C36.7453 24.2125 36.5727 24.0195 36.593 23.7961L37.243 12.5633H14.5641L15.2242 23.7961C15.2344 24.0195 15.0719 24.2125 14.8485 24.2226C14.8383 24.2328 14.8281 24.2328 14.818 24.2328Z" fill="#C1C1C1"/>
<path d="M16.2603 5.84998H18.2306V7.75935H16.2603V5.84998Z" fill="#EEEEEE"/>
<path d="M18.2306 8.1656H16.2603C16.0368 8.1656 15.854 7.98279 15.854 7.75935V5.84998C15.854 5.62654 16.0368 5.44373 16.2603 5.44373H18.2306C18.454 5.44373 18.6368 5.62654 18.6368 5.84998V7.75935C18.6368 7.98279 18.454 8.1656 18.2306 8.1656ZM16.6665 7.3531H17.8243V6.25623H16.6665V7.3531Z" fill="#C1C1C1"/>
<path d="M12.4517 8.78516H39.3556V12.1672H12.4517V8.78516Z" fill="white"/>
<path d="M39.3556 12.5734H12.4517C12.2282 12.5734 12.0454 12.3906 12.0454 12.1672V8.78516C12.0454 8.56172 12.2282 8.37891 12.4517 8.37891H39.3556C39.579 8.37891 39.7618 8.56172 39.7618 8.78516V12.1672C39.7618 12.3906 39.579 12.5734 39.3556 12.5734ZM12.8579 11.7609H38.9493V9.19141H12.8579V11.7609Z" fill="#C1C1C1"/>
<path d="M36.8165 5.84998L14.9907 7.5156V8.78513H36.8165V5.84998Z" fill="#EEEEEE"/>
<path d="M36.8165 9.1914H14.9907C14.7673 9.1914 14.5845 9.00859 14.5845 8.78515V7.51562C14.5845 7.30234 14.747 7.12968 14.9603 7.10937L36.786 5.44374C36.8978 5.43359 37.0095 5.47421 37.0907 5.54531C37.172 5.6164 37.2228 5.72812 37.2228 5.83984V8.77499C37.2228 9.00859 37.0399 9.1914 36.8165 9.1914ZM15.397 8.3789H36.4103V6.28671L15.397 7.8914V8.3789Z" fill="#C1C1C1"/>
<path d="M15.9453 43.7633H35.8516V46.2008H15.9453V43.7633Z" fill="white"/>
<path d="M35.8516 46.6071H15.9453C15.7219 46.6071 15.5391 46.4242 15.5391 46.2008V43.7633C15.5391 43.5399 15.7219 43.3571 15.9453 43.3571H35.8516C36.075 43.3571 36.2578 43.5399 36.2578 43.7633V46.2008C36.2578 46.4242 36.075 46.6071 35.8516 46.6071ZM16.3516 45.7946H35.4453V44.1696H16.3516V45.7946Z" fill="#C1C1C1"/>
<path d="M37.1109 25.3399H31.3218C30.4382 23.2781 28.3968 21.8258 26 21.8258C23.6031 21.8258 21.5617 23.2781 20.6781 25.3399H14.696L14.9703 30.0219H20.7593C21.6734 32.0024 23.6742 33.3735 26 33.3735C28.3257 33.3735 30.3265 32.0024 31.2406 30.0219H36.8367L37.1109 25.3399Z" fill="#EEEEEE"/>
<path d="M26 33.7797C23.6844 33.7797 21.5617 32.4695 20.5055 30.4281H14.9703C14.7571 30.4281 14.5844 30.2656 14.5641 30.0523L14.2899 25.3703C14.2797 25.2586 14.3203 25.1469 14.4016 25.0656C14.4828 24.9844 14.5844 24.9438 14.6961 24.9438H20.4141C21.4399 22.8008 23.6031 21.4297 26 21.4297C28.3867 21.4297 30.55 22.8008 31.586 24.9438H37.111C37.2227 24.9438 37.3242 24.9945 37.4055 25.0656C37.4867 25.1469 37.5172 25.2586 37.5172 25.3703L37.243 30.0523C37.2328 30.2656 37.05 30.4281 36.8367 30.4281H31.4946C30.4383 32.4695 28.3156 33.7797 26 33.7797ZM15.3563 29.6156H20.7594C20.9219 29.6156 21.0641 29.707 21.125 29.8492C21.9985 31.7383 23.9078 32.9672 26 32.9672C28.0821 32.9672 30.0016 31.7484 30.875 29.8492C30.9461 29.707 31.0883 29.6156 31.2406 29.6156H36.4508L36.6742 25.7461H31.3117C31.1492 25.7461 31.0071 25.6547 30.936 25.5023C30.0828 23.5117 28.143 22.232 25.9899 22.232C23.8367 22.232 21.8867 23.5117 21.0438 25.5023C20.9828 25.6547 20.8305 25.7461 20.668 25.7461H15.1125L15.3563 29.6156Z" fill="#C1C1C1"/>
<path d="M23.1868 28.5898C23.1868 30.1437 24.4461 31.3929 25.9899 31.3929C27.5438 31.3929 28.793 30.1336 28.793 28.5898V26.6297C28.793 25.0758 27.5336 23.8265 25.9899 23.8265C24.436 23.8265 23.1868 25.0859 23.1868 26.6297V28.5898Z" fill="white"/>
<path d="M25.9899 31.7992C24.2227 31.7992 22.7805 30.357 22.7805 28.5898V26.6297C22.7805 24.8625 24.2227 23.4203 25.9899 23.4203C27.7571 23.4203 29.1993 24.8625 29.1993 26.6297V28.5898C29.1993 30.357 27.7571 31.7992 25.9899 31.7992ZM25.9899 24.2328C24.6696 24.2328 23.593 25.3094 23.593 26.6297V28.5898C23.593 29.9101 24.6696 30.9867 25.9899 30.9867C27.3102 30.9867 28.3868 29.9101 28.3868 28.5898V26.6297C28.3868 25.3094 27.3102 24.2328 25.9899 24.2328Z" fill="#C1C1C1"/>
<path d="M26 31.8094C25.7766 31.8094 25.5938 31.6265 25.5938 31.4031V23.8265C25.5938 23.6031 25.7766 23.4203 26 23.4203C26.2234 23.4203 26.4062 23.6031 26.4062 23.8265V31.4031C26.4062 31.6265 26.2234 31.8094 26 31.8094Z" fill="#C1C1C1"/>
</svg>
