<svg width="90" height="90" viewBox="0 0 90 90" fill="none" xmlns="http://www.w3.org/2000/svg">
<path d="M89.086 70.8326C88.7685 73.7281 86.4233 75.9902 83.5169 76.1938C83.2764 76.2108 83.0377 76.2277 82.7988 76.2432C81.0268 76.3634 79.649 77.835 79.649 79.6117V86.3272C79.649 88.5863 77.0633 89.8683 75.2664 88.5C71.9872 86.0022 67.6247 82.2869 64.9481 78.4343C64.3147 77.522 63.2685 76.9904 62.1574 76.9966C53.9162 77.0382 45.6751 76.7731 37.4339 76.1938C35.1363 76.0334 33.1854 74.5896 32.3164 72.5586C32.0852 72.0255 31.9311 71.4491 31.8648 70.8467C30.6444 59.6977 30.6444 48.5472 31.8648 37.3966C32.1823 34.5041 34.5291 32.2527 37.4307 32.0493C49.7077 31.1878 61.9832 31.0153 74.2587 31.5314C77.3436 31.6594 80.4303 31.8318 83.5153 32.0493C86.4185 32.2527 88.7669 34.5041 89.0844 37.3966C90.305 48.5423 90.305 59.6867 89.086 70.8326Z" fill="#D3D3D3"/>
<path d="M35.0092 37.0902C33.7593 48.5058 33.7593 59.9226 35.0092 71.3359C35.0769 71.9538 35.2349 72.543 35.4714 73.0897C36.0761 74.5035 37.193 75.6394 38.5855 76.2728C38.2018 76.2478 37.818 76.2216 37.4341 76.1944C35.1363 76.034 33.1853 74.5904 32.3168 72.5587C32.0851 72.0252 31.9306 71.449 31.8652 70.8466C30.6439 59.6983 30.6439 48.5475 31.8652 37.3968C32.1825 34.5048 34.529 32.2533 37.4304 32.0502C37.9972 32.011 38.5639 31.9718 39.1318 31.9362C36.9221 32.6964 35.2741 34.6759 35.0092 37.0902Z" fill="#B3B3B3"/>
<path d="M53.7109 66.6699C53.7145 68.4869 56.0998 69.958 57.9169 69.958H71.9804C73.4426 69.958 74.628 68.7726 74.628 67.3095C74.628 66.5785 74.3325 65.9156 73.8534 65.4366C73.3742 64.9576 72.7115 64.661 71.9804 64.661H72.931C74.3932 64.661 75.5795 63.4764 75.5795 62.0125C75.5795 61.2806 75.284 60.6195 74.8031 60.1396C74.3248 59.6604 73.6628 59.3649 72.9309 59.3649H73.8824C75.3266 59.3649 76.501 58.2076 76.5291 56.7693C76.559 55.2833 75.3087 54.0679 73.8224 54.0679H72.9307C74.3928 54.0679 75.5792 52.8825 75.5792 51.4186C75.5792 50.6866 75.2837 50.0255 74.8028 49.5456C74.3245 49.0664 73.6625 48.7709 72.9305 48.7709H65.4816C65.4711 48.7542 65.4677 48.7491 65.4572 48.7324L68.362 42.5446C69.1862 40.7903 68.4312 38.7003 66.6769 37.8762C66.1953 37.6498 65.688 37.5431 65.1882 37.5431C63.8695 37.5431 62.6063 38.2896 62.0085 39.5621L60.7666 42.2081C60.0329 43.7703 58.8578 45.0908 57.3698 45.9635C56.3876 46.5392 55.5695 47.4173 55.0697 48.5412C54.7289 49.3081 54.5761 50.1162 54.5906 50.9095L53.7109 66.6699Z" fill="white"/>
<path d="M67.7626 38.6695C67.6431 38.6567 67.5235 38.6507 67.4038 38.6507C66.0851 38.6507 64.822 39.3972 64.2241 40.6697L62.9822 43.3157C62.2485 44.8779 61.0734 46.1984 59.5854 47.0711C58.6032 47.6468 55.0698 48.541 54.9392 55.2346C54.929 55.7574 54.7402 56.2399 54.6019 56.7215L54.5908 50.9095C54.5762 50.116 54.7291 49.3081 55.07 48.5412C55.5695 47.4172 56.3878 46.5392 57.3701 45.9635C58.8579 45.0906 60.0332 43.7703 60.7669 42.2081L62.0088 39.5621C62.6066 38.2895 63.8698 37.5431 65.1885 37.5431C65.688 37.5431 66.1955 37.6498 66.6772 37.8762C67.0997 38.0743 67.4645 38.3468 67.7626 38.6695Z" fill="#EAEAEA"/>
<path d="M74.6284 67.3097C74.6284 68.7727 73.4429 69.9582 71.9808 69.9582H57.55C56.0228 69.9582 54.6069 69.2203 53.7305 68.0074H71.9806C73.0986 68.0074 74.0543 67.3148 74.4429 66.3343C74.4438 66.3352 74.4438 66.3369 74.4456 66.3376C74.4456 66.3376 74.4447 66.3385 74.4456 66.3385C74.5635 66.6393 74.6284 66.9673 74.6284 67.3097Z" fill="#EAEAEA"/>
<path d="M75.3936 61.0372C75.5131 61.3392 75.5796 61.6683 75.5796 62.0125C75.5796 63.4762 74.3943 64.6615 72.9316 64.6615H71.9168C71.378 64.6615 70.9414 64.2248 70.9414 63.6861C70.9414 63.1473 71.378 62.7107 71.9168 62.7107H72.9316C74.0499 62.7108 75.0053 62.0177 75.3936 61.0372Z" fill="#EAEAEA"/>
<path d="M76.3448 55.7404C76.4643 56.0423 76.5307 56.3714 76.5307 56.7156C76.5307 58.1793 75.3454 59.3646 73.8828 59.3646H72.868C72.3292 59.3646 71.8926 58.928 71.8926 58.3892C71.8926 57.8504 72.3292 57.4138 72.868 57.4138H73.8828C75.0009 57.4138 75.9565 56.7207 76.3448 55.7404Z" fill="#EAEAEA"/>
<path d="M75.3936 50.4435C75.5131 50.7455 75.5796 51.0745 75.5796 51.4187C75.5796 52.8824 74.3943 54.0677 72.9316 54.0677H71.9168C71.378 54.0677 70.9414 53.6311 70.9414 53.0923C70.9414 52.5536 71.378 52.1169 71.9168 52.1169H72.9316C74.0497 52.1171 75.0053 51.4238 75.3936 50.4435Z" fill="#EAEAEA"/>
<path d="M46.3535 50.9096V67.4257C46.3535 68.5711 47.2822 69.4997 48.4276 69.4997H52.5171C53.6625 69.4997 54.5912 68.5711 54.5912 67.4257V50.9096C54.5912 49.7642 53.6625 48.8356 52.5171 48.8356H48.4276C47.2822 48.8356 46.3535 49.764 46.3535 50.9096Z" fill="#F1F4F6"/>
<path d="M46.3535 62.2233V67.4261C46.3535 68.5715 47.2827 69.4996 48.4281 69.4996H52.5175C53.6628 69.4996 54.591 68.5715 54.591 67.4261V62.2233C54.591 63.3687 53.6628 64.298 52.5175 64.298H48.4281C47.2827 64.2979 46.3535 63.3687 46.3535 62.2233Z" fill="#EAEAEA"/>
<path d="M0.878906 39.0071C1.18406 41.7913 3.43934 43.9666 6.23408 44.1622C6.46524 44.1786 6.69498 44.1947 6.92455 44.2097C8.62857 44.3252 9.95326 45.7404 9.95326 47.4488V53.9063C9.95326 56.0786 12.4397 57.3114 14.1674 55.9956C17.3206 53.5938 21.5155 50.0212 24.0894 46.3168C24.6985 45.4396 25.7045 44.9283 26.7729 44.9342C34.6975 44.9743 42.6219 44.7194 50.5464 44.1622C52.7556 44.0081 54.6316 42.6197 55.4674 40.6666C55.6896 40.1539 55.8378 39.5998 55.9016 39.0204C57.0751 28.2999 57.0751 17.5778 55.9016 6.85563C55.5963 4.07442 53.3396 1.9095 50.5494 1.71385C38.7439 0.885748 26.9402 0.719811 15.1363 1.21604C12.1699 1.33909 9.2018 1.50503 6.23531 1.71385C3.44373 1.9095 1.18564 4.07442 0.880313 6.85581C-0.293203 17.5734 -0.293203 28.2895 0.878906 39.0071Z" fill="#F0F0F0"/>
<path d="M3.90388 6.56103C2.70207 17.538 2.70207 28.5161 3.90388 39.4908C3.9691 40.085 4.12097 40.6515 4.34826 41.1771C4.92974 42.5366 6.00376 43.6289 7.34269 44.2378C6.97373 44.2139 6.60458 44.1886 6.23562 44.1624C4.02605 44.0082 2.15011 42.6201 1.31498 40.6665C1.09226 40.1535 0.943726 39.5993 0.880796 39.0201C-0.293599 28.3003 -0.293599 17.5779 0.880796 6.85564C1.18578 4.07478 3.44228 1.90986 6.23228 1.71439C6.7772 1.67678 7.3223 1.63898 7.86828 1.60471C5.74326 2.33613 4.15859 4.23949 3.90388 6.56103Z" fill="#D9D9D9"/>
<path d="M37.915 22.1154C39.5817 22.1154 40.9375 19.8624 40.9375 17.0929C40.9375 14.3235 39.5817 12.0705 37.915 12.0705C36.2484 12.0705 34.8926 14.3235 34.8926 17.0929C34.8926 19.8624 36.2484 22.1154 37.915 22.1154Z" fill="#282828"/>
<path d="M18.8681 22.1154C20.5348 22.1154 21.8906 19.8624 21.8906 17.0929C21.8906 14.3235 20.5348 12.0705 18.8681 12.0705C17.2015 12.0705 15.8457 14.3235 15.8457 17.0929C15.8457 19.8624 17.2015 22.1154 18.8681 22.1154Z" fill="#282828"/>
<path d="M38.8024 25.8072C38.1105 25.5163 37.3146 25.8399 37.0232 26.5311C35.5556 30.0123 32.1676 32.2616 28.3919 32.2616C24.6162 32.2616 21.2282 30.0123 19.7606 26.5311C19.4693 25.8399 18.6723 25.5163 17.9813 25.8072C17.2901 26.0987 16.966 26.8951 17.2574 27.5863C19.1506 32.0765 23.5211 34.9779 28.3918 34.9779C33.2623 34.9779 37.6328 32.0765 39.5259 27.5863C39.8177 26.8951 39.4936 26.0987 38.8024 25.8072Z" fill="#282828"/>
</svg>
