<svg width="22" height="17" viewBox="0 0 22 17" fill="none" xmlns="http://www.w3.org/2000/svg">
<path d="M21.3782 3.89065C21.1637 3.71158 20.9032 3.5964 20.6263 3.55828C20.3495 3.52015 20.0675 3.56061 19.8126 3.67503L15.0688 5.7844L12.3126 0.815654C12.1809 0.583677 11.99 0.390759 11.7594 0.25655C11.5289 0.122341 11.2669 0.0516357 11.0001 0.0516357C10.7333 0.0516357 10.4713 0.122341 10.2408 0.25655C10.0102 0.390759 9.81934 0.583677 9.6876 0.815654L6.93135 5.7844L2.1876 3.67503C1.93214 3.56078 1.64981 3.52026 1.37252 3.55808C1.09524 3.59589 0.834067 3.71051 0.618523 3.889C0.402979 4.06748 0.241662 4.3027 0.15281 4.56807C0.0639569 4.83343 0.0511114 5.11837 0.115725 5.39065L2.49698 15.5438C2.54251 15.7403 2.62747 15.9256 2.74672 16.0884C2.86597 16.2511 3.01702 16.388 3.19072 16.4907C3.42589 16.6314 3.69477 16.7059 3.96885 16.7063C4.10208 16.706 4.23462 16.6871 4.3626 16.65C8.70306 15.45 13.2878 15.45 17.6282 16.65C18.0245 16.7542 18.446 16.6969 18.8001 16.4907C18.9749 16.3893 19.1267 16.2528 19.2461 16.0899C19.3655 15.9269 19.4499 15.741 19.4938 15.5438L21.8845 5.39065C21.9484 5.11829 21.9348 4.83349 21.8454 4.56843C21.7559 4.30336 21.5941 4.0686 21.3782 3.89065V3.89065Z" fill="white"/>
</svg>
