<svg width="82" height="82" viewBox="0 0 82 82" fill="none" xmlns="http://www.w3.org/2000/svg">
<path d="M81.9829 64.0855C81.8481 61.5483 80.8852 59.302 79.3445 57.2697L81.0007 56.814C80.7867 55.9454 80.5727 55.1261 80.3844 54.3752C78.8373 54.2918 77.3737 55.7722 75.8352 54.3217L77.8488 50.9437L75.587 49.5917L73.3658 53.2692C70.9072 53.4018 70.6804 51.4315 70.002 49.8612L67.5156 50.702C67.8173 51.5042 68.0955 52.2402 68.3972 53.0381C66.648 53.3221 64.9741 53.9558 63.4756 54.9015C63.4756 49.658 63.3986 44.5686 63.5013 39.4813C63.5697 36.0862 62.9299 33.0205 60.4156 30.5582C61.0833 29.3987 60.8201 28.175 60.8436 26.9919C60.8757 24.797 59.8871 23.8343 57.681 23.8343C53.9769 23.8343 50.2729 23.8343 46.494 23.8343C46.785 19.4444 47.0824 15.138 47.3499 10.8315C47.474 8.82701 48.5439 7.94133 50.5083 7.94561C56.4869 7.95844 62.4656 7.94561 68.4464 7.94561C70.0149 7.94561 71.0912 7.2653 71.3886 5.69718C71.945 2.74921 71.3202 0.776757 69.7196 0.188445C69.4203 0.0768633 69.1039 0.0182263 68.7845 0.01516C61.8429 0.01516 54.9035 -0.0340443 47.964 0.0344138C43.663 0.0772002 39.8156 3.47443 39.24 7.73595C38.8399 10.7075 38.6836 13.7089 38.4055 16.8259C36.7193 14.4919 34.5388 13.2982 31.7934 13.2105C31.7643 13.1187 31.7414 13.0251 31.725 12.9302C31.4125 8.67083 28.2734 5.4747 24.2249 5.29927C20.0308 5.13454 16.5515 7.99053 15.9716 12.2756C15.7576 13.8394 15.8411 15.2321 14.722 16.7339C10.9751 21.7528 14.5615 28.9109 21.0922 29.1655C21.2398 29.6361 21.3854 30.1089 21.5416 30.6095C20.4683 31.6926 19.6336 32.9883 19.0915 34.4132C17.0287 34.4132 15.0001 34.3469 12.978 34.4261C7.45299 34.64 3.51144 37.3334 1.14908 42.2945C0.622687 43.3984 0.376608 44.6349 0 45.8094V53.3355C0.0646218 53.4877 0.0979251 53.6514 0.0979251 53.8168C0.0979251 53.9822 0.0646218 54.1459 0 54.2982L0 54.7774C0.192584 55.8149 0.213982 56.8782 0.611988 57.8879C2.30958 62.1395 5.34955 64.907 9.7319 66.1906C12.2654 66.938 14.8054 67.6611 17.3518 68.3599C18.0622 68.5546 18.3596 68.9097 18.3404 69.6435C18.3019 71.141 18.3404 72.6385 18.3404 74.1361C18.3084 74.7498 18.3639 75.3649 18.5052 75.963C19.4788 79.3453 21.5844 81.4825 25.16 82.0002H56.5426C58.768 81.5424 60.6681 80.539 62.012 78.6564C64.1796 79.6469 66.236 79.4993 68.3073 78.5067C70.537 77.437 72.8138 76.4679 75.0584 75.4282C79.6227 73.3124 82.2461 69.0231 81.9829 64.0855ZM18.518 39.6973C16.8404 39.6973 15.1991 39.6973 13.56 39.6973C8.65771 39.7187 5.29819 43.0989 5.28963 48.0107C5.28963 49.7436 5.28963 51.4764 5.28963 53.2114C5.31745 56.8482 7.46155 59.7727 10.9473 60.8659C13.4552 61.6531 15.9802 62.3891 18.5052 63.1507V65.7906C14.3839 64.0791 9.67198 64.1454 6.16696 61.0263C3.99932 59.1009 2.76679 56.6471 2.69831 53.7334C2.63412 50.886 2.3324 48.0086 2.93583 45.1975C3.91587 40.6344 7.94729 37.3034 12.7084 37.0553C14.6192 36.9569 16.5408 37.0403 18.5159 37.0403L18.518 39.6973ZM18.4624 42.3266V60.376C16.0722 59.655 13.7034 59.0346 11.401 58.2195C9.27825 57.4665 8.06712 55.847 7.97724 53.5708C7.89379 51.5213 7.90021 49.4633 7.97724 47.4139C8.00347 46.0779 8.54555 44.8039 9.49001 43.8584C10.4345 42.913 11.7081 42.3694 13.0443 42.3415C14.8225 42.2645 16.6093 42.3244 18.4624 42.3244V42.3266ZM60.8308 39.7016C60.4734 39.3957 60.0776 39.4556 59.6731 39.5861C59.6394 39.6065 59.6072 39.6293 59.5768 39.6546C59.5019 39.1582 59.4549 38.6534 59.3372 38.1677C58.5561 34.9844 55.6738 32.8601 52.4898 33.104C48.9676 33.3757 46.6202 35.8466 46.2714 39.646L46.2436 39.6203C46.1271 39.556 45.9935 39.5295 45.8612 39.5444C45.7289 39.5594 45.6046 39.6151 45.5054 39.7038C45.6573 37.0745 45.8071 34.4475 45.9633 31.7412C49.8535 31.7412 53.6838 31.7177 57.5183 31.7755C57.9056 31.7755 58.3336 32.2226 58.6589 32.5456C60.6639 34.533 61.0383 37.0296 60.8244 39.6995L60.8308 39.7016ZM36.5567 39.7123L27.2613 39.7016C27.4753 37.9773 28.5452 36.989 30.1993 37.0788C32.3626 37.1986 34.5089 37.6393 36.7557 37.9538L36.5567 39.7123ZM39.2828 39.3914C39.4968 36.8692 39.7001 34.3469 39.914 31.784H43.357C43.158 34.4517 42.9633 37.0788 42.7664 39.6995L39.2871 39.6246C39.2794 39.5464 39.2758 39.4679 39.2764 39.3893L39.2828 39.3914ZM49.0019 39.7059C49.0019 38.667 49.4146 37.6707 50.1494 36.9361C50.8842 36.2015 51.8807 35.7888 52.9199 35.7888C53.959 35.7888 54.9555 36.2015 55.6903 36.9361C56.4251 37.6707 56.8379 38.667 56.8379 39.7059H49.0019ZM41.8848 7.97556C42.1844 5.29285 44.643 2.85403 47.2579 2.79627C54.4006 2.64224 61.5455 2.74279 68.7331 2.74279V5.29499H50.611C46.9605 5.29499 44.8763 7.3359 44.6773 10.9599C44.4462 15.2193 44.1316 19.4744 43.8492 23.7787H40.5153C40.9604 18.486 41.2985 13.2169 41.8848 7.97556ZM58.1646 26.4956V29.0628H23.8718V26.4956H58.1646ZM34.8662 16.9008C35.926 17.665 36.6585 18.8008 36.9175 20.0812C37.1765 21.3617 36.943 22.6927 36.2635 23.8086H28.6543C29.3605 21.5902 29.2406 19.4487 28.1557 17.4228C29.7884 15.5872 32.7649 15.369 34.8662 16.9008ZM20.8204 8.89546C22.6864 7.62899 24.6721 7.59048 26.5979 8.7671C28.2691 9.78756 29.2535 11.3813 29.0224 13.2982C28.8876 14.4277 27.0965 14.2309 26.5445 15.3348C24.0922 13.2918 21.4902 12.8126 18.5672 13.6512C18.4303 11.6017 19.1878 10.0036 20.8204 8.89546ZM21.1307 26.3887C18.9588 26.5277 16.8511 24.9874 16.1321 22.7647C15.7741 21.6389 15.8041 20.4257 16.2171 19.319C16.6302 18.2123 17.4026 17.2761 18.4107 16.6601C19.4188 16.044 20.6044 15.7837 21.7779 15.9208C22.9515 16.0579 24.0451 16.5845 24.884 17.4164C25.725 18.2377 26.2607 19.3213 26.4027 20.4881C26.5447 21.6549 26.2845 22.8353 25.665 23.8343C23.6557 23.7594 21.5351 23.5819 21.1307 26.3887ZM21.5587 35.4337C22.5216 32.629 23.7349 31.7391 26.6493 31.7391H37.2328C37.1408 32.9435 37.0552 34.0923 36.9632 35.3096C35.4247 35.0957 33.9482 34.9096 32.4825 34.6678C27.7941 33.8827 25.727 35.1791 24.5009 39.7102H21.1885C21.1243 38.2619 21.0836 36.8285 21.563 35.4337H21.5587ZM74.6262 72.6578C71.9707 74.0526 69.1996 75.2464 66.4285 76.4016C65.8165 76.6605 65.1496 76.763 64.4881 76.6999C63.8265 76.6368 63.191 76.41 62.639 76.0401C62.087 75.6701 61.6358 75.1685 61.3261 74.5807C61.0164 73.9928 60.8579 73.3371 60.865 72.6728C60.9142 69.2499 60.3985 65.7692 61.1903 62.3869C62.1532 58.2794 66.3494 55.2523 70.445 55.6374C69.1597 56.4264 67.6862 56.8564 66.1782 56.8825V59.501C68.5962 59.501 70.7232 58.7201 72.7175 57.3082C72.8715 60.0722 73.8152 62.4147 75.679 64.3251C76.2931 63.6834 76.8944 63.0715 77.5107 62.4319C76.1759 61.024 75.4216 59.1644 75.3987 57.2248C78.0007 59.2379 79.3616 61.7173 79.3231 64.8493C79.2974 68.3342 77.7161 71.0405 74.639 72.6556L74.6262 72.6578ZM74.0677 66.1543C73.2439 66.1543 72.7581 66.657 72.7538 67.4379C72.7496 68.2187 73.231 68.7321 74.0527 68.7407C74.8744 68.7493 75.281 68.2315 75.4008 67.4186C75.2852 66.6955 74.9151 66.15 74.0805 66.1521L74.0677 66.1543ZM70.0855 62.1794C69.2788 62.1794 68.7845 62.6928 68.7866 63.4951C68.7888 64.2973 69.298 64.8022 70.1005 64.7958C70.9029 64.7894 71.3394 64.2802 71.4314 63.4373C71.3223 62.6971 70.9093 62.1687 70.0983 62.1773L70.0855 62.1794ZM68.8016 70.1291C67.9714 70.1163 67.4856 70.604 67.4685 71.3956C67.4514 72.1871 67.92 72.6984 68.7524 72.7198C69.5848 72.7412 69.9828 72.2235 70.1176 71.4362C70.0149 70.6725 69.6468 70.1398 68.808 70.127L68.8016 70.1291ZM64.7959 64.8215C65.5662 64.7466 66.1012 64.3423 66.1226 63.5379C66.1439 62.7335 65.6539 62.2201 64.8536 62.1922C64.0533 62.1644 63.5376 62.6565 63.5098 63.4587C63.482 64.261 63.9806 64.7017 64.7959 64.8215ZM64.783 67.4721C63.9806 67.4935 63.4991 68.0112 63.4991 68.8134C63.4991 69.6157 64.0341 70.1099 64.8365 70.097C65.6389 70.0842 66.0648 69.5579 66.1418 68.7493C66.0263 67.9577 65.5897 67.4464 64.783 67.4657V67.4721Z" fill="#026F30"/>
<path d="M0 53.3354C0.226821 53.6563 0.273897 53.9772 0 54.2981V53.3354Z" fill="#026F30"/>
<path d="M60.7965 57.3724C57.559 61.2681 58.2394 65.9404 58.1881 70.4672C58.1881 70.9699 58.1881 71.4769 58.1881 72.0781L56.9192 71.5924C56.5854 68.2145 54.5247 66.1308 51.5589 66.1415C48.6424 66.1522 46.5603 68.2808 46.2629 71.5411C42.5096 73.4087 41.7907 75.0603 42.9312 79.3453H31.0038C29.3754 79.3453 27.7449 79.3924 26.1208 79.3111C23.4267 79.1763 21.1992 77.0477 21.1992 74.3543C21.15 62.802 21.1992 51.2497 21.1992 39.6974H24.5116C24.3169 41.1478 24.15 42.6026 23.9253 44.0487C23.3711 47.6086 25.1536 50.2335 28.68 50.9758C30.9204 51.4486 33.1736 51.8915 35.4119 52.3493C35.4568 52.3493 35.4953 52.4006 35.598 52.4691C35.3555 55.4827 35.1116 58.5362 34.8662 61.6296L33.4068 61.4328C34.9325 57.6655 34.3912 55.139 31.7528 53.6136C30.6452 52.9736 29.343 52.7572 28.088 53.0047C26.8329 53.2522 25.7104 53.9467 24.9289 54.9592C23.217 57.1627 23.5273 59.9717 25.6307 62.1602C24.3126 65.3563 24.0302 68.7108 23.9189 72.031C23.8526 74.1019 25.3654 75.3534 27.3982 75.7085C29.6022 76.0936 31.8255 76.3802 34.0445 76.6669C36.4368 76.975 38.4183 75.3298 38.7521 72.8161C38.9297 71.4962 39.1223 70.1805 39.3256 68.7279C45.3171 69.5344 43.3313 64.7937 44.1209 61.8307C46.3784 64.6076 49.2158 63.0501 51.8735 62.8961C52.6706 62.8266 53.4635 62.7145 54.2487 62.5602C57.1931 62.0639 58.5519 60.1321 58.0811 57.1991C57.7558 55.1732 57.5076 53.1344 57.1867 51.1085C57.0181 50.0425 56.4379 49.0851 55.5708 48.4423C54.7037 47.7994 53.6189 47.5223 52.5497 47.6706C50.0204 48.0236 47.4911 48.3937 44.8463 48.7723C45.0603 45.7773 45.2743 42.7438 45.4883 39.7059C45.5875 39.6172 45.7118 39.5615 45.8441 39.5466C45.9763 39.5316 46.11 39.5582 46.2265 39.6225L46.2543 39.6482L46.2779 39.6738C46.6031 40.0054 46.5539 40.4697 46.6373 40.8783C46.9366 42.3532 47.7419 43.6772 48.9141 44.6214C50.0863 45.5656 51.5517 46.0705 53.0568 46.049C54.5211 46.0085 55.9261 45.4623 57.0332 44.5033C58.1402 43.5443 58.881 42.2316 59.1296 40.7884C59.1938 40.3991 59.1874 39.9733 59.5084 39.6888C59.5201 39.6769 59.533 39.6661 59.5469 39.6567C59.5772 39.6315 59.6094 39.6086 59.6432 39.5883C60.0476 39.4578 60.4435 39.3979 60.8008 39.7038C60.8122 45.4671 60.8215 51.2297 60.8286 56.9916C60.8522 57.12 60.8693 57.2868 60.7965 57.3724Z" fill="#ECFFDB"/>
<path d="M66.1504 68.7363C66.0733 69.545 65.6454 70.0627 64.8451 70.0841C64.0448 70.1055 63.5269 69.6091 63.5077 68.8005C63.4884 67.9918 63.9806 67.4805 64.7916 67.4591C65.6026 67.4377 66.0263 67.9576 66.1504 68.7363Z" fill="#FEFEFE"/>
<path d="M63.5098 63.4457C63.5377 62.6435 64.0469 62.1493 64.8536 62.1793C65.6604 62.2092 66.1375 62.7205 66.1226 63.5249C66.1076 64.3293 65.5662 64.74 64.7959 64.8085C63.9806 64.7015 63.482 64.2523 63.5098 63.4457Z" fill="#FEFEFE"/>
<path d="M70.1176 71.4404C69.9828 72.2212 69.589 72.7411 68.7524 72.724C67.9157 72.7068 67.4685 72.1913 67.4685 71.3997C67.4685 70.6082 67.9713 70.1161 68.8016 70.1332C69.6318 70.1504 70.0149 70.6724 70.1176 71.4404Z" fill="#FEFEFE"/>
<path d="M71.4443 63.4352C71.3523 64.2781 70.9136 64.7873 70.1133 64.7937C69.313 64.8001 68.8037 64.2995 68.7995 63.493C68.7952 62.6865 69.2916 62.1837 70.0983 62.1773C70.905 62.1709 71.3223 62.6972 71.4443 63.4352Z" fill="#FEFEFE"/>
<path d="M75.4136 67.4272C75.2938 68.2401 74.8979 68.7578 74.0655 68.7493C73.2331 68.7407 72.7602 68.2401 72.7667 67.4464C72.7731 66.6527 73.2567 66.1628 74.0805 66.1628C74.9043 66.1628 75.2852 66.6955 75.4136 67.4272Z" fill="#FEFEFE"/>
<path d="M42.76 39.7037C42.255 47.709 41.7507 55.7136 41.2471 63.7175C41.1958 64.5091 41.1402 65.3006 41.0845 66.1114H39.7172C39.6466 64.4299 38.9361 63.1314 37.4532 62.2607C38.0638 54.7146 38.6729 47.1728 39.2807 39.6353L42.76 39.7037Z" fill="#ECFFDB"/>
<path d="M44.9875 52.9716C44.9875 51.9747 45.3834 51.38 46.2886 51.2409C48.4455 50.9093 50.6067 50.5991 52.7701 50.3039C53.8678 50.1584 54.4712 50.7039 54.6253 51.8014C54.9206 53.883 55.2351 55.9603 55.5219 58.0439C55.6652 59.0986 55.1709 59.7426 54.1267 59.9009C51.994 60.2232 49.8578 60.5284 47.718 60.8165C46.8385 60.932 46.1323 60.5576 45.9783 59.6655C45.5995 57.4107 45.3042 55.1409 44.9875 52.9716Z" fill="#ECFFDB"/>
<path d="M34.3462 74.0504C32.2064 73.7402 29.9639 73.4428 27.732 73.077C26.7563 72.9165 26.354 72.2212 26.4888 71.2628C26.7755 69.1813 27.088 67.1019 27.3875 65.0224C27.548 63.9014 28.1621 63.3795 29.3134 63.5399L35.4782 64.3956C36.593 64.5518 37.1515 65.1743 36.9932 66.321C36.6979 68.4603 36.3883 70.5925 36.0645 72.7176C35.9254 73.6246 35.3412 74.0311 34.3462 74.0504Z" fill="#ECFFDB"/>
<path d="M36.5503 39.7101C36.3127 43.0175 36.0752 46.3228 35.8291 49.7649C33.2271 49.2151 30.7086 48.798 28.2649 48.1198C26.8911 47.739 26.3219 46.4811 26.476 45.0713C26.6707 43.2764 26.9896 41.4943 27.2549 39.708L36.5503 39.7101Z" fill="#ECFFDB"/>
<path d="M60.8244 39.6994H59.5768L59.5319 39.6801C59.1938 39.5282 59.2195 39.1945 59.1874 38.8971C58.845 35.8101 56.3479 33.5296 53.1338 33.3734C51.6558 33.3076 50.202 33.7649 49.0279 34.6649C47.8538 35.5648 47.0346 36.8498 46.7144 38.2938C46.6053 38.7602 46.6716 39.2886 46.3014 39.6758L46.2714 39.7079H45.5118C45.611 39.6192 45.7354 39.5635 45.8676 39.5486C45.9999 39.5336 46.1335 39.5602 46.25 39.6245L46.2779 39.6502C46.6267 35.8507 48.974 33.3798 52.4962 33.1081C55.6717 32.8642 58.554 34.9886 59.3436 38.1719C59.4613 38.6575 59.5084 39.1624 59.5833 39.6587C59.6136 39.6335 59.6458 39.6106 59.6795 39.5903C60.0711 39.4533 60.467 39.3934 60.8244 39.6994Z" fill="#FEFEFE"/>
<path d="M31.7678 58.1701C31.5687 59.8324 30.6978 60.8379 29.0716 60.8165C27.4453 60.7951 26.461 59.7875 26.4824 58.1701C26.5038 56.5528 27.4774 55.5773 29.1251 55.588C30.7727 55.5987 31.5752 56.6405 31.7678 58.1701Z" fill="#ECFFDB"/>
<path d="M58.2031 76.6902C58.0447 78.2883 57.2188 79.3023 55.5733 79.3173C53.9277 79.3323 52.9498 78.3418 52.9306 76.7373C52.9113 75.1328 53.8935 74.1145 55.5198 74.0974C57.146 74.0803 58.0276 75.0686 58.2031 76.6902Z" fill="#ECFFDB"/>
<path d="M47.5832 79.3686C46.019 79.1782 45.0025 78.3631 45.0154 76.7052C45.0282 75.0472 46.019 74.1059 47.6302 74.1038C49.2415 74.1016 50.243 75.1092 50.2408 76.7223C50.2387 78.3353 49.2265 79.206 47.5832 79.3686Z" fill="#ECFFDB"/>
<path d="M54.2487 71.5624C53.2366 71.9347 52.3229 72.3925 51.6103 73.2375C50.8853 72.4743 49.9759 71.9106 48.9698 71.6009C48.9933 69.9087 49.8257 68.8797 51.4712 68.8198C53.2152 68.7407 54.0946 69.8039 54.2487 71.5624Z" fill="#ECFFDB"/>
<path d="M59.5704 39.6524C59.4955 39.1561 59.4484 38.6512 59.3307 38.1655C58.5497 34.9822 55.6674 32.8579 52.4833 33.1018C48.9612 33.3735 46.6138 35.8444 46.265 39.6438V39.7016C46.3592 41.3103 46.8149 42.7907 47.9212 44.0016C49.7508 46.0019 52.0211 46.772 54.636 46.0361C57.7815 45.1526 59.2773 42.8656 59.5747 39.7037L59.5704 39.6524ZM52.8664 35.7267C53.3914 35.7171 53.9129 35.8135 54.3998 36.0102C54.8867 36.2068 55.3288 36.4997 55.6998 36.8712C56.0708 37.2427 56.363 37.6853 56.5589 38.1723C56.7549 38.6594 56.8505 39.181 56.84 39.7059H49.004C48.9885 39.189 49.077 38.6743 49.2641 38.1923C49.4513 37.7103 49.7333 37.2707 50.0934 36.8997C50.4536 36.5286 50.8846 36.2336 51.3609 36.0321C51.8373 35.8306 52.3492 35.7268 52.8664 35.7267Z" fill="#026F30"/>
<path d="M66.1504 68.7363C66.0733 69.545 65.6454 70.0627 64.8451 70.0841C64.0448 70.1055 63.5269 69.6091 63.5077 68.8005C63.4884 67.9918 63.9806 67.4805 64.7916 67.4591C65.6026 67.4377 66.0263 67.9576 66.1504 68.7363Z" fill="#026F30"/>
<path d="M66.1204 63.525C66.099 64.3358 65.5641 64.7401 64.7937 64.8086C63.9763 64.6952 63.4799 64.2459 63.5098 63.4394C63.5398 62.6329 64.0469 62.143 64.8536 62.1729C65.6603 62.2029 66.1439 62.7206 66.1204 63.525Z" fill="#026F30"/>
<path d="M70.1176 71.4404C69.9828 72.2212 69.589 72.7411 68.7524 72.724C67.9157 72.7068 67.4685 72.1913 67.4685 71.3997C67.4685 70.6082 67.9713 70.1161 68.8016 70.1332C69.6318 70.1504 70.0149 70.6724 70.1176 71.4404Z" fill="#026F30"/>
<path d="M71.4443 63.4352C71.3523 64.2781 70.9136 64.7873 70.1133 64.7937C69.313 64.8001 68.8037 64.2995 68.7995 63.493C68.7952 62.6865 69.2916 62.1837 70.0983 62.1773C70.905 62.1709 71.3223 62.6972 71.4443 63.4352Z" fill="#026F30"/>
<path d="M75.4136 67.4272C75.2938 68.2401 74.8979 68.7578 74.0655 68.7493C73.2331 68.7407 72.7602 68.2401 72.7667 67.4464C72.7731 66.6527 73.2567 66.1628 74.0805 66.1628C74.9043 66.1628 75.2852 66.6955 75.4136 67.4272Z" fill="#026F30"/>
<path d="M56.84 39.7014C56.534 40.0373 56.1232 40.0245 55.7252 40.0266C53.8564 40.038 51.9898 40.038 50.1253 40.0266C49.723 40.0266 49.3186 40.0266 49.004 39.7057L56.84 39.7014Z" fill="#FEFEFE"/>
<path d="M56.84 39.7014C56.844 40.2189 56.7452 40.7321 56.5493 41.2111C56.3534 41.6902 56.0644 42.1256 55.699 42.4922C55.3335 42.8587 54.899 43.1491 54.4204 43.3465C53.9419 43.5439 53.429 43.6443 52.9113 43.642C52.3938 43.6484 51.8802 43.5508 51.4012 43.3549C50.9222 43.159 50.4874 42.8688 50.1227 42.5016C49.7581 42.1345 49.4709 41.6977 49.2784 41.2174C49.0858 40.7371 48.9918 40.223 49.0019 39.7057L56.84 39.7014Z" fill="#ECFFDB"/>
</svg>
