<svg width="16" height="16" viewBox="0 0 16 16" fill="none" xmlns="http://www.w3.org/2000/svg">
<rect width="16" height="16" rx="8" fill="white"/>
<path fill-rule="evenodd" clip-rule="evenodd" d="M8.73698 4.77732C8.51089 4.65406 8.2575 4.58948 8 4.58948C7.7425 4.58948 7.48911 4.65406 7.26302 4.77732L4.80216 6.11886C4.55935 6.25136 4.35672 6.44681 4.21557 6.68469C4.07441 6.92256 3.99995 7.19407 4 7.47067V10.0049C3.99995 10.2815 4.07441 10.553 4.21557 10.7909C4.35672 11.0288 4.55935 11.2242 4.80216 11.3567L7.26302 12.6983C7.48911 12.8215 7.7425 12.8861 8 12.8861C8.2575 12.8861 8.51089 12.8215 8.73698 12.6983L11.1973 11.3567C11.4402 11.2243 11.643 11.0289 11.7842 10.791C11.9255 10.5531 12 10.2816 12 10.0049V7.47016C12 7.1935 11.9255 6.92196 11.7842 6.68408C11.643 6.4462 11.4402 6.25078 11.1973 6.11835L8.73698 4.77732ZM8 7.19815C7.85425 7.19815 7.75673 7.37265 7.56171 7.72317L7.51142 7.8135C7.45599 7.91306 7.42828 7.96233 7.38517 7.99518C7.34154 8.02802 7.28766 8.04034 7.17988 8.06446L7.08237 8.08704C6.70362 8.17275 6.51424 8.21535 6.46908 8.36007C6.42392 8.50531 6.55325 8.6562 6.81139 8.95797L6.87811 9.03598C6.9515 9.12168 6.98845 9.16428 7.00487 9.21766C7.0213 9.27103 7.01565 9.328 7.00487 9.44244L6.99461 9.54663C6.95561 9.9495 6.9361 10.1512 7.05363 10.2405C7.17167 10.3298 7.34924 10.2482 7.70387 10.085L7.79523 10.0429C7.89633 9.99672 7.94662 9.97362 8 9.97362C8.05337 9.97362 8.10367 9.99672 8.20477 10.0429L8.29612 10.085C8.65076 10.2487 8.82833 10.3298 8.94637 10.2405C9.06441 10.1512 9.04439 9.9495 9.00539 9.54663L8.99512 9.44244C8.98435 9.328 8.9787 9.27103 8.99512 9.21766C9.01155 9.1648 9.0485 9.12168 9.12189 9.03598L9.18861 8.95797C9.44675 8.6562 9.57608 8.50531 9.53092 8.36007C9.48576 8.21535 9.29638 8.17275 8.91763 8.08704L8.82012 8.06446C8.71234 8.04034 8.65845 8.02854 8.61483 7.99518C8.57172 7.96233 8.54401 7.91306 8.48858 7.8135L8.43828 7.72317C8.24326 7.37316 8.14575 7.19815 8 7.19815Z" fill="#FF8C21"/>
<path d="M7.48694 2.83582H8.51337C9.4813 2.83582 9.96474 2.83582 10.2655 3.13656C10.5662 3.4373 10.5662 3.92075 10.5662 4.88868V4.89791L9.10562 4.1014C8.76649 3.91652 8.38641 3.81964 8.00016 3.81964C7.6139 3.81964 7.23382 3.91652 6.89469 4.1014L5.43408 4.89791V4.88868C5.43408 3.92075 5.43408 3.4373 5.73483 3.13656C6.03557 2.83582 6.51902 2.83582 7.48694 2.83582Z" fill="#FF8C21"/>
</svg>
