<svg xmlns="http://www.w3.org/2000/svg" width="24" height="24" viewBox="0 0 24 24" fill="none">
<path d="M4.62127 4.51493C4.80316 3.78737 4.8941 3.42359 5.16536 3.21179C5.43663 3 5.8116 3 6.56155 3H17.4384C18.1884 3 18.5634 3 18.8346 3.21179C19.1059 3.42359 19.1968 3.78737 19.3787 4.51493L20.8447 10.3787C20.9162 10.6647 20.9519 10.8077 20.8769 10.9039C20.8018 11 20.6544 11 20.3596 11H17.744C17.3856 11 17.2064 11 17.0736 10.9011C16.9407 10.8023 16.8892 10.6306 16.7862 10.2873L16.0975 7.99155C15.8809 7.26969 15.7726 6.90876 15.6835 6.92642C15.5944 6.94407 15.6319 7.31902 15.7069 8.06892L15.89 9.9005C15.9414 10.4142 15.9671 10.671 15.8182 10.8355C15.6694 11 15.4112 11 14.895 11H13.405C12.9749 11 12.7598 11 12.617 10.8707C12.4741 10.7415 12.4527 10.5275 12.41 10.0995L12.199 7.99008C12.1267 7.26668 12.0905 6.90499 12 6.90499C11.9095 6.90499 11.8733 7.26668 11.801 7.99007L11.59 10.0995C11.5473 10.5275 11.5259 10.7415 11.383 10.8707C11.2402 11 11.0251 11 10.595 11H9.10499C8.58875 11 8.33064 11 8.18177 10.8355C8.0329 10.671 8.05858 10.4142 8.10995 9.9005L8.29311 8.06892C8.3681 7.31902 8.40559 6.94407 8.31648 6.92642C8.22737 6.90876 8.11909 7.26969 7.90254 7.99155L7.2138 10.2873C7.11081 10.6306 7.05931 10.8023 6.92645 10.9011C6.79359 11 6.61438 11 6.25597 11H3.64039C3.3456 11 3.19821 11 3.12314 10.9039C3.04807 10.8077 3.08382 10.6647 3.15532 10.3787L4.62127 4.51493Z" fill="white"/>
<path fill-rule="evenodd" clip-rule="evenodd" d="M5 12.0584C5 12.0261 5.02618 12 5.05847 12H6.307L6.33605 12C6.47706 12.0001 6.65394 12.0002 6.81094 11.9827C7.00385 11.9612 7.25826 11.9058 7.50789 11.7328C7.56972 11.69 7.65252 11.6891 7.71535 11.7305C7.94837 11.8839 8.19302 11.9427 8.38121 11.9691C8.6032 12.0003 8.86475 12.0001 9.08955 12L9.13278 12H10.6172L10.6529 12C10.8305 12.0001 11.0463 12.0002 11.2342 11.9763L11.8793 11.8941C11.9357 11.8873 11.9744 11.8813 12 11.8762C12.0256 11.8813 12.0643 11.8873 12.1207 11.8941L12.7658 11.9763C12.9537 12.0002 13.1695 12.0001 13.3471 12L13.3828 12H14.8672L14.9104 12C15.1352 12.0001 15.3968 12.0003 15.6188 11.9691C15.807 11.9427 16.0516 11.8839 16.2846 11.7305C16.3475 11.6891 16.4303 11.69 16.4921 11.7328C16.7417 11.9058 16.9962 11.9612 17.1891 11.9827C17.3461 12.0002 17.5229 12.0001 17.664 12L17.693 12H18.9415C18.9738 12 19 12.0261 19 12.0584V19C19 19.9428 19 20.4142 18.7071 20.7071C18.4142 21 17.9428 21 17 21H14.3536C14.4348 20.998 14.5 20.9316 14.5 20.85V17C14.5 15.8954 13.6046 15 12.5 15H11.5C10.3954 15 9.5 15.8954 9.5 17V20.85C9.5 20.9316 9.56521 20.998 9.64638 21H7C6.05719 21 5.58579 21 5.29289 20.7071C5 20.4142 5 19.9428 5 19V12.0584ZM12 11.8538C12.0374 11.8538 12.0747 11.8613 12 11.8762C11.9253 11.8613 11.9626 11.8538 12 11.8538ZM5.22166 10.114C4.9946 10.5553 5.43742 11 5.93366 11H6.307C6.64221 11 6.80982 11 6.9383 10.9109C7.00456 10.865 7.05229 10.801 7.09914 10.7068C7.14313 10.6183 7.18633 10.5031 7.24333 10.3511L7.45371 9.79007L7.88683 8.63508L7.8871 8.63435L7.9036 8.59036C8.12321 8.00472 8.23302 7.7119 8.31935 7.73317C8.40569 7.75444 8.3669 8.06475 8.28932 8.68537V8.68537L8.28932 8.68538L8.28932 8.68539L8.28349 8.73201L8.2834 8.73278L8.1405 9.87592L8.1405 9.87593C8.09218 10.2625 8.06169 10.5064 8.109 10.6757C8.11933 10.7127 8.13338 10.7461 8.15176 10.7766C8.16327 10.7958 8.17649 10.8138 8.19155 10.8309C8.34083 11 8.60481 11 9.13278 11H10.6172C11.0376 11 11.2477 11 11.3895 10.8748C11.4249 10.8435 11.4532 10.807 11.4763 10.7634C11.5383 10.6468 11.5645 10.4791 11.597 10.2232L11.6095 10.124L11.7896 8.68312L11.7952 8.638L11.8015 8.5876C11.875 7.99999 11.9117 7.70618 12 7.70618C12.0883 7.70618 12.125 7.99999 12.1985 8.5876L12.2048 8.638L12.2104 8.68312L12.3905 10.124L12.403 10.2232C12.4355 10.4791 12.4617 10.6468 12.5237 10.7634C12.5468 10.807 12.5751 10.8435 12.6105 10.8748C12.7523 11 12.9624 11 13.3828 11H14.8672C15.3952 11 15.6592 11 15.8084 10.8309C15.8235 10.8138 15.8367 10.7958 15.8482 10.7766C15.8666 10.7461 15.8807 10.7127 15.891 10.6757C15.9383 10.5064 15.9078 10.2625 15.8595 9.87595L15.8595 9.87592L15.7166 8.73278L15.7165 8.73201L15.7107 8.68538L15.7107 8.68536L15.7107 8.68533C15.6331 8.06474 15.5943 7.75444 15.6806 7.73317C15.767 7.7119 15.8768 8.00471 16.0964 8.59034L16.0964 8.59036L16.1129 8.63435L16.1132 8.63508L16.5463 9.79007L16.7567 10.3511L16.7567 10.3512C16.8137 10.5031 16.8569 10.6183 16.9009 10.7068C16.9477 10.801 16.9954 10.865 17.0617 10.9109C17.1902 11 17.3578 11 17.693 11H18.0663C18.5626 11 19.0054 10.5553 18.7783 10.114C18.5567 9.68329 18.1461 9.39003 17.325 8.8035L17.325 8.80349L14.325 6.66064C13.2023 5.85872 12.6409 5.45776 12 5.45776C11.3591 5.45776 10.7977 5.85872 9.67505 6.66064L6.67505 8.80349C5.8539 9.39003 5.44333 9.68329 5.22166 10.114Z" fill="white"/>
</svg>