<svg width="82" height="82" viewBox="0 0 82 82" fill="none" xmlns="http://www.w3.org/2000/svg">
<path d="M44.0176 7.64307C43.8838 7.65758 43.7491 7.6626 43.6146 7.65808L44.0176 7.64307Z" fill="#FEFEFE"/>
<path d="M81.7963 33.7558C81.4008 31.2652 80.2129 28.9687 78.4092 27.2073C76.6055 25.4459 74.2821 24.3135 71.784 23.9782C70.4612 23.8066 69.1148 23.9482 67.7791 23.9289C66.6943 23.9117 66.5678 23.8259 66.2998 22.7598C65.9225 21.2582 65.4679 19.7716 65.097 18.2657C64.7733 16.9486 64.0594 16.0498 62.625 15.9061C62.0848 15.8525 61.8318 15.5328 61.7503 15.0223C61.6388 14.3101 61.5123 13.6001 61.3944 12.8879C60.9142 9.95763 59.6642 8.62336 56.7892 7.97124C56.1331 7.78675 55.4621 7.88972 54.7975 7.87685C54.4835 7.89729 54.1685 7.85798 53.8691 7.76101C53.8117 7.73365 53.7638 7.68953 53.7319 7.63445C50.5989 7.53005 47.4665 7.53005 44.3349 7.63445C44.2961 7.69361 44.2399 7.73932 44.1741 7.7653C43.968 7.83978 43.7501 7.87612 43.5309 7.87256C42.787 7.90474 42.0302 7.79319 41.2969 7.95622C38.4648 8.56544 37.1184 9.97908 36.651 12.8493C36.5309 13.5872 36.4044 14.3251 36.2865 15.0652C36.2735 15.2812 36.1823 15.485 36.03 15.6385C35.8777 15.7921 35.6747 15.8849 35.4589 15.8997C34.0782 16.0906 33.315 16.8929 32.9612 18.2464C32.2001 21.1703 31.424 24.0898 30.6029 26.9986C30.2963 28.0883 30.2341 28.1205 29.2522 27.5821C26.9324 26.31 24.5955 25.0658 22.3315 23.6972C21.1313 22.9367 20.0984 21.9397 19.2956 20.767C17.7263 18.5875 15.4365 17.9933 13.0288 19.1946C11.1893 20.1127 9.3348 21.0094 7.50386 21.9597C5.81442 22.8435 5.1455 24.4545 5.72866 26.1169C6.05058 26.955 6.68786 27.6334 7.50386 28.0068C10.261 29.4205 12.2463 31.5828 13.8007 34.2277C16.2126 38.3292 18.6889 42.3942 21.1309 46.4807C21.3131 46.7853 21.6947 47.1243 21.4653 47.4761C21.2359 47.8279 20.7793 47.6906 20.4148 47.6906C18.6996 47.6906 16.9844 47.7077 15.2821 47.6906C13.5177 47.6756 12.0855 48.2548 11.2279 49.8915C10.9706 50.3806 10.5397 50.4428 10.068 50.4213C8.80923 50.3484 7.54902 50.5383 6.36756 50.9791C3.26954 52.1632 1.37428 54.437 0.460951 57.5882C0.375193 57.8821 0.488822 58.3197 0.00643158 58.4055V61.1363C0.289434 61.3379 0.192956 61.6726 0.259419 61.9386C1.3314 66.1752 4.76173 69.054 9.13112 69.3457C10.4175 69.4315 11.6846 69.5603 12.9624 69.6439C13.0679 69.6408 13.1725 69.6642 13.2666 69.7122C13.3607 69.7602 13.4411 69.8312 13.5005 69.9185C14.0484 70.7086 14.6709 71.4441 15.3593 72.1151C16.0453 72.7851 16.7885 73.3937 17.5805 73.9342C17.3081 74.0411 17.0128 74.0766 16.7229 74.0372C13.8671 74.0372 11.0092 74.0264 8.14704 74.0372C6.26679 74.0479 5.10691 75.3564 5.31702 77.2055C5.43676 78.3845 5.94776 79.4894 6.76848 80.3439C7.44188 81.0418 8.28705 81.5501 9.21902 81.8176C9.36481 81.8626 9.54705 81.8176 9.63495 81.9999H48.625C48.6121 81.6524 48.9123 81.646 49.1181 81.5859C50.1757 81.2609 51.0995 80.6015 51.7509 79.7068C51.9311 79.4753 52.1577 79.2842 52.4162 79.1456C52.6747 79.0071 52.9593 78.9242 53.2517 78.9023C58.5151 78.2395 63.0581 76.0943 66.8701 72.3682C70.4977 68.8677 72.891 64.2831 73.69 59.3044C74.0759 57.0455 73.9537 54.7674 73.8851 52.5021C73.8615 51.6827 74.1574 51.2773 74.7984 50.9276C76.1877 50.1725 77.5491 49.3702 78.6447 48.2033C80.7672 45.9466 81.9164 43.2695 81.9357 40.1612C81.9486 38.0267 82.1372 35.8816 81.7963 33.7558ZM10.5976 60.186H10.6212C10.5986 60.6664 10.6029 61.1476 10.634 61.6275C10.6791 62.0566 10.514 62.1081 10.1495 62.1102C8.88671 62.1102 7.99054 61.3272 7.97124 60.1538C7.95194 58.9804 8.82882 58.1567 10.083 58.1095C10.4411 58.0966 10.6319 58.1589 10.604 58.5793C10.5719 59.1134 10.5976 59.6497 10.5976 60.186ZM7.91978 66.4798C6.40603 66.1041 5.06342 65.228 4.10954 63.9933C3.15565 62.7587 2.64638 61.238 2.66424 59.6776C2.68211 58.1172 3.22607 56.6086 4.20797 55.3962C5.18987 54.1837 6.55219 53.3386 8.07415 52.9977C8.77895 52.8511 9.4986 52.7884 10.2181 52.811C10.4947 52.811 10.5997 52.9097 10.5954 53.1821C10.5954 53.8257 10.5783 54.4692 10.5954 55.1128C10.5954 55.4453 10.4604 55.5182 10.1667 55.5032C8.99064 55.4549 7.84049 55.8572 6.95059 56.6279C6.06068 57.3987 5.49799 58.4799 5.37716 59.6514C5.25634 60.8228 5.58648 61.9962 6.30031 62.9326C7.01415 63.8689 8.05795 64.4977 9.21902 64.6908C9.69371 64.7678 10.1751 64.7959 10.6555 64.7745C11.0007 64.7594 11.1807 64.8517 11.2644 65.2292C11.3844 65.7698 11.5924 66.2911 11.7918 66.9132C10.4561 66.7137 9.16971 66.8016 7.91978 66.4798ZM61.9111 18.3516C62.4064 18.3516 62.6958 18.4352 62.7794 18.9951C62.878 19.6386 63.161 20.2607 63.2446 20.9064C63.0936 20.989 62.9189 21.0177 62.7494 20.9879H52.3126C51.6801 20.9879 51.6694 20.9879 51.6694 20.3444C51.6694 19.836 51.6844 19.3276 51.6694 18.8192C51.6544 18.4803 51.7595 18.3365 52.1154 18.358C52.5141 18.3837 52.9172 18.358 53.3181 18.358C56.1867 18.3623 59.0489 18.3709 61.9111 18.3516ZM39.2859 12.2958C39.4239 11.7754 39.7231 11.3122 40.1407 10.9726C40.5582 10.6331 41.0726 10.4347 41.61 10.406C41.8244 10.3867 42.0387 10.391 42.2531 10.391H55.7944C57.7411 10.391 58.5815 11.1053 58.9482 13.0488C59.1025 13.8875 59.2397 14.7306 59.3984 15.6616H38.6899C38.8743 14.5182 38.9858 13.3877 39.2859 12.2958ZM35.3174 18.8771C35.4096 18.4481 35.6433 18.3558 36.0485 18.3623C37.7637 18.3816 39.4789 18.3623 41.1812 18.3623H48.2391C49.116 18.3623 49.0409 18.2893 49.0409 19.1967C49.0409 19.5979 49.0195 20.0012 49.0409 20.4002C49.0624 20.7992 48.9723 21.0094 48.4835 21.0072C44.0198 20.9879 39.556 20.9944 35.0923 20.9922C34.9862 20.9823 34.8809 20.9651 34.7772 20.9407C34.9744 20.2092 35.1716 19.5442 35.3174 18.8771ZM33.8553 24.3794C34.0439 23.6865 34.0418 23.6822 34.7407 23.6822C39.2559 23.6822 43.7711 23.6822 48.2862 23.6822C48.5221 23.6822 48.7686 23.6179 48.9895 23.7659L48.9509 28.2449C48.9509 28.9914 48.9509 28.9936 48.2176 28.9957C47.1457 28.9957 46.0737 29.0258 45.0167 28.9957C42.9156 28.9335 41.0761 30.8019 41.0804 32.9835C41.089 37.8144 41.089 42.6459 41.0804 47.4782C40.2786 47.4911 39.4789 47.5125 38.6792 47.5125C35.286 47.5125 31.8928 47.5125 28.4996 47.5125C28.2165 47.5501 27.9286 47.5238 27.6571 47.4353C28.0859 45.8501 28.4932 44.2605 28.9199 42.6753C30.5636 36.5688 32.2087 30.4673 33.8553 24.3708V24.3794ZM15.7495 32.7476C14.0065 29.798 11.706 27.4555 8.67446 25.8574C8.30355 25.6622 7.97767 25.4562 7.97982 24.9736C7.98196 24.4909 8.32285 24.2936 8.69375 24.1155C10.5519 23.1888 12.41 22.2593 14.268 21.3269C14.6058 21.1463 14.9791 21.0423 15.3615 21.0222C15.7333 21.0316 16.0972 21.1313 16.4219 21.313C16.7465 21.4946 17.022 21.7527 17.2246 22.0648C17.8417 22.9729 18.5674 23.802 19.3857 24.5338C20.2137 25.2522 21.1182 25.8774 22.0828 26.398C24.3447 27.6529 26.6022 28.9185 28.877 30.152C29.3251 30.3965 29.4537 30.6217 29.3058 31.1494C27.8779 36.345 26.4843 41.5491 25.0757 46.751C25.005 47.0149 25.0757 47.4289 24.722 47.4696C24.4368 47.4997 24.3682 47.1135 24.2375 46.8947C21.3989 42.184 18.5474 37.4819 15.7495 32.7476ZM13.6291 63.925C13.3778 62.8304 13.2548 61.7102 13.2625 60.5872C13.2625 57.6955 13.2925 54.7953 13.2475 51.9165C13.2304 50.7045 13.8435 50.1661 14.9863 50.1725C20.1747 50.2111 25.363 50.1897 30.5514 50.1897H45.7156C45.9558 50.1897 46.198 50.1789 46.4382 50.1897C46.7626 50.1923 47.0734 50.3203 47.3056 50.547C47.5378 50.7738 47.6733 51.0815 47.6838 51.406C47.6945 51.5132 47.6945 51.6205 47.6945 51.7256C47.6945 54.8039 47.7267 57.8821 47.6838 60.9497C47.6576 63.8192 46.6959 66.6017 44.9449 68.8745C43.1938 71.1472 40.7492 72.7859 37.9824 73.5416C37.1377 73.7934 36.2646 73.9375 35.3839 73.9707C32.1487 74.05 28.9091 74.1058 25.6782 73.9707C19.9388 73.7304 14.9584 69.5023 13.6291 63.925ZM47.3815 79.3378C40.2164 79.3378 33.052 79.3378 25.8883 79.3378C20.9172 79.3378 15.9453 79.3378 10.9728 79.3378C10.231 79.3378 9.5299 79.2413 8.9446 78.7457C8.64221 78.509 8.39898 78.2051 8.23415 77.8581C8.06931 77.5111 7.98738 77.1306 7.99482 76.7465H50.353C50.1215 78.5119 49.1738 79.3378 47.3815 79.3378ZM68.6496 66.1988C65.2321 71.9585 60.1381 75.35 53.5197 76.4376C53.1766 76.4933 53.0415 76.4998 52.9236 76.09C52.5249 74.7064 51.6051 74.0543 50.1365 74.0436C48.1297 74.0307 46.1251 74.0436 44.1205 74.0436C43.9233 74.0436 43.7067 74.1101 43.4773 73.917C43.726 73.7261 43.9533 73.5588 44.1741 73.3829C48.2234 70.1466 50.2958 65.9357 50.3916 60.7502C50.4345 58.3905 50.3916 56.0416 50.3916 53.6862C50.3916 53.3945 50.4152 53.1006 50.4281 52.8067C50.7218 52.4957 51.112 52.5472 51.4807 52.545C52.87 52.545 54.2572 52.545 55.6465 52.545C57.6168 52.5214 58.9696 51.3781 59.3512 49.4453C59.4404 48.9723 59.4827 48.4916 59.4777 48.0102C59.4777 43.2795 59.4777 38.5494 59.4777 33.8201C59.483 33.2592 59.4255 32.6994 59.3062 32.1512C59.1465 31.3429 58.7123 30.6148 58.0774 30.0901C57.4424 29.5655 56.6457 29.2766 55.8223 29.2724C54.7824 29.2446 53.7405 29.2724 52.6985 29.2617C52.3555 29.2617 51.9932 29.296 51.7273 28.9979C51.7273 27.3933 51.7273 25.7802 51.6844 24.1842C51.6716 23.7037 51.886 23.6758 52.2547 23.6801C53.271 23.6951 54.2872 23.6801 55.3034 23.6801C58.0027 23.6801 60.7041 23.6929 63.4054 23.6672C63.8943 23.6672 64.0937 23.8088 64.218 24.2807C66.4199 32.5288 68.7096 40.7511 70.8321 49.0184C72.3479 54.9883 71.8334 60.8167 68.6388 66.1988H68.6496ZM68.9304 31.6385C69.9166 31.5699 70.8171 31.5291 71.679 31.8917C73.1798 32.5352 74.1081 33.6485 74.1788 35.296C74.2539 37.055 74.2303 38.8226 74.1788 40.5816C74.1403 41.9373 73.4199 42.9284 72.185 43.7371C71.0722 39.6377 70.0024 35.6628 68.9197 31.6385H68.9304ZM79.4744 40.6867C79.275 43.7392 77.8236 46.1053 75.3023 47.8129C74.7749 48.1711 74.2067 48.4671 73.5871 48.8254C73.2848 48.081 73.1583 47.3238 72.9439 46.6051C72.8367 46.2512 73.1583 46.2276 73.3427 46.1268C74.6524 45.4307 75.69 44.3139 76.2885 42.9563C76.6555 42.1518 76.8498 41.2792 76.8588 40.395C76.8588 38.7647 76.8845 37.1322 76.8588 35.5019C76.8406 33.7989 76.1639 32.1691 74.9707 30.9545C73.7776 29.7398 72.1606 29.0347 70.4591 28.9871C69.8459 28.9657 69.2284 28.9614 68.6153 28.9871C68.557 28.9985 68.4971 28.9981 68.439 28.9858C68.381 28.9735 68.326 28.9496 68.2774 28.9155C68.2287 28.8815 68.1874 28.838 68.156 28.7877C68.1245 28.7373 68.1036 28.6811 68.0943 28.6225C67.9035 27.876 67.7062 27.1209 67.5047 26.3551C70.5706 26.1405 73.4906 26.2971 75.9776 28.3221C78.0487 30.0082 79.2665 32.1705 79.4551 34.8412C79.5894 36.7873 79.5923 38.7402 79.4637 40.6867H79.4744ZM43.6146 7.65805C43.7491 7.66257 43.8838 7.65755 44.0176 7.64303L43.6146 7.65805ZM41.3055 7.7653L43.6146 7.65805C42.8384 7.68522 42.0688 7.72097 41.3055 7.7653Z" fill="#026F30"/>
<path d="M53.8691 7.75899H51.0691H44.1741C44.2399 7.733 44.2961 7.6873 44.3349 7.62813C44.4271 7.48441 44.4014 7.25917 44.2856 6.90308C44.0804 6.20752 43.9941 5.48226 44.0305 4.75794C44.0777 1.88131 46.9827 -0.478338 49.8192 0.0622368C52.9772 0.66931 54.7374 3.53092 53.8477 6.61777C53.6955 7.14548 53.6333 7.4458 53.7383 7.61741C53.7661 7.6771 53.8118 7.72661 53.8691 7.75899Z" fill="#00B151"/>
<path d="M59.4606 33.8074C59.4606 38.5382 59.4606 43.2682 59.4606 47.9975C59.4656 48.4789 59.4232 48.9596 59.3341 49.4326C58.9524 51.3632 57.5996 52.5087 55.6293 52.5323C54.24 52.5473 52.8529 52.5323 51.4636 52.5323C51.0948 52.5323 50.7046 52.483 50.4109 52.794C50.398 52.4487 50.3787 52.1033 50.3766 51.7601C50.353 49.2009 48.6807 47.5234 46.1123 47.4998C44.7015 47.4891 43.2908 47.4998 41.8801 47.4998C41.6142 47.4998 41.3484 47.4784 41.0847 47.4655C41.0847 42.6347 41.0847 37.8031 41.0847 32.9708C41.0847 30.7892 42.9199 28.9208 45.021 28.983C46.093 29.0152 47.1542 28.983 48.2219 28.983C48.9487 28.983 48.9487 28.983 48.9552 28.2322L48.9938 23.7532C49.1696 23.9913 49.0774 24.2659 49.0774 24.5233C49.0774 27.5136 49.0695 30.5046 49.0538 33.4964C49.0538 34.2729 49.0538 34.2729 48.2627 34.2772C47.8081 34.2772 47.3536 34.2922 46.9012 34.2772C46.5496 34.2601 46.3503 34.3223 46.3781 34.7491C46.4124 35.3069 46.3996 35.8711 46.3781 36.4309C46.3674 36.7591 46.4489 36.9072 46.8176 36.905C49.1674 36.8893 51.5165 36.8893 53.8648 36.905C54.2593 36.905 54.3794 36.7656 54.3601 36.3902C54.3344 35.856 54.3344 35.3176 54.3601 34.7878C54.3794 34.4059 54.2507 34.2579 53.8605 34.2751C53.301 34.3008 52.7392 34.2622 52.1797 34.2879C51.7959 34.3072 51.6694 34.1764 51.6758 33.7881C51.7037 32.1878 51.7037 30.5854 51.7123 28.983C51.9781 29.2812 52.3405 29.2426 52.6835 29.2469C53.7255 29.2597 54.7674 29.2297 55.8073 29.2576C56.6307 29.2617 57.4274 29.5506 58.0624 30.0753C58.6973 30.5999 59.1314 31.3281 59.2912 32.1364C59.4099 32.6853 59.4667 33.2458 59.4606 33.8074Z" fill="#00B151"/>
</svg>