<svg width="40" height="40" viewBox="0 0 40 40" fill="none" xmlns="http://www.w3.org/2000/svg">
<g clip-path="url(#clip0_16011_66953)">
<path d="M20 40C31.0457 40 40 31.0457 40 20C40 8.9543 31.0457 0 20 0C8.9543 0 0 8.9543 0 20C0 31.0457 8.9543 40 20 40Z" fill="#FC4581"/>
<path d="M30.6671 3.08047H9.33276C9.71349 2.83984 10.1026 2.61198 10.5 2.39687C13.3146 0.873641 16.4554 0.0527121 19.6554 0.00390625H20.3445C20.7273 0.009375 21.107 0.0273437 21.4843 0.0546875C24.7477 0.292037 27.9019 1.33138 30.6671 3.08047Z" fill="#DB1B1B"/>
<path d="M34.4344 6.15713H5.56567C5.58442 6.13682 5.60396 6.11729 5.62349 6.09697C5.98807 5.72197 6.36437 5.36182 6.75239 5.0165C7.12583 4.68682 7.51151 4.37041 7.90942 4.06729C8.3688 3.71885 8.84692 3.38838 9.33286 3.08057H30.6672C32.0435 3.94901 33.3085 4.98217 34.4344 6.15713Z" fill="white"/>
<path d="M36.8571 9.23301H3.14307C3.42822 8.78848 3.73057 8.3541 4.04932 7.93457C4.51984 7.31317 5.02616 6.71972 5.56572 6.15723H34.4345C35.34 7.1014 36.1514 8.13152 36.8571 9.23301Z" fill="#DB1B1B"/>
<path d="M38.4671 12.3095H1.53271C1.62959 12.0751 1.73115 11.8454 1.83818 11.6157C2.17811 10.8803 2.56242 10.1662 2.98896 9.47744C3.03975 9.39932 3.09131 9.31494 3.14521 9.23291H36.8569C37.4821 10.2097 38.0208 11.2391 38.4671 12.3095Z" fill="white"/>
<path d="M39.464 15.3851H0.535889C0.647347 14.9085 0.777555 14.4397 0.926514 13.9788C1.10516 13.4101 1.30828 12.8538 1.53589 12.3101H38.4671C38.8828 13.3061 39.2162 14.3346 39.464 15.3851Z" fill="#DB1B1B"/>
<path d="M39.9414 18.4618H0.0585938C0.136889 17.4254 0.296495 16.3967 0.535938 15.3853H39.4641C39.7035 16.3967 39.8631 17.4254 39.9414 18.4618Z" fill="white"/>
<path d="M40 20.0002C40 20.5174 39.9805 21.0301 39.9414 21.5385H0.0585938C0.0195312 21.0307 0 20.5179 0 20.0002V19.0041C7.78887e-05 19.0301 0.00738179 19.0555 0.0210938 19.0775C0.0210938 19.0236 0.0257812 18.9697 0.0289063 18.9166C0.0367188 18.7643 0.046875 18.6135 0.0585938 18.4619H39.9414C39.9805 18.9697 40 19.4825 40 20.0002Z" fill="#DB1B1B"/>
<path d="M39.9414 21.5381C39.8632 22.5745 39.7036 23.6032 39.4641 24.6146H0.535938C0.296429 23.6032 0.136822 22.5745 0.0585938 21.5381H39.9414Z" fill="white"/>
<path d="M39.464 24.6147C39.2167 25.6656 38.8833 26.6944 38.4671 27.6905H1.53276C1.11662 26.6944 0.783204 25.6656 0.535889 24.6147H39.464Z" fill="#DB1B1B"/>
<path d="M38.4671 27.6904C38.0213 28.761 37.4825 29.7905 36.8569 30.767H3.14287C2.51728 29.7905 1.9785 28.761 1.53271 27.6904H38.4671Z" fill="white"/>
<path d="M36.8571 30.7671C36.1518 31.8689 35.3406 32.8993 34.4352 33.8437H5.56567C4.66025 32.8993 3.84912 31.8689 3.1438 30.7671H36.8571Z" fill="#DB1B1B"/>
<path d="M34.4344 33.8438C33.3079 35.0181 32.0429 36.0511 30.6672 36.9203H9.33286C7.95717 36.0511 6.69217 35.0181 5.56567 33.8438H34.4344Z" fill="white"/>
<path d="M30.6671 36.9204C27.5886 38.8694 24.0336 39.9348 20.3905 40.0001H19.6093C15.9656 39.9365 12.4094 38.8725 9.32959 36.9243L30.6671 36.9204Z" fill="#DB1B1B"/>
<path d="M21.4844 0.0546875V21.5391H0.0585938C0.0195312 21.0307 0 20.5177 0 20V19.0039C7.78887e-05 19.0299 0.00738179 19.0553 0.0210938 19.0773C0.0210938 19.0234 0.0257812 18.9695 0.0289063 18.9164C0.0367188 18.7641 0.046875 18.6133 0.0585938 18.4617C0.136889 17.4253 0.296495 16.3966 0.535937 15.3852C0.647396 14.9086 0.777604 14.4398 0.926562 13.9789C1.10521 13.4102 1.30833 12.8539 1.53594 12.3102C1.63281 12.0758 1.73438 11.8461 1.84141 11.6164C2.18134 10.881 2.56564 10.1669 2.99219 9.47812C3.04297 9.4 3.09453 9.31563 3.14844 9.23359C3.43359 8.78906 3.73594 8.35469 4.05469 7.93516C4.52342 7.31364 5.02792 6.71993 5.56562 6.15703C5.58437 6.13672 5.60391 6.11719 5.62344 6.09687C5.98802 5.72187 6.36432 5.36172 6.75234 5.01641C7.12578 4.68672 7.51146 4.37031 7.90937 4.06719C8.36875 3.71875 8.84688 3.38828 9.33281 3.08047C9.71354 2.83984 10.1026 2.61198 10.5 2.39688C13.3146 0.873642 16.4555 0.0527121 19.6555 0.00390625H20.3445C20.7273 0.009375 21.107 0.0273437 21.4844 0.0546875Z" fill="#3E436D"/>
<path d="M19.1717 1.28148L19.4452 2.12288C19.4544 2.15146 19.4725 2.17638 19.4967 2.19407C19.521 2.21175 19.5503 2.22129 19.5803 2.22132H20.4686C20.4981 2.22248 20.5266 2.2328 20.5499 2.25085C20.5733 2.2689 20.5905 2.29379 20.5991 2.32205C20.6077 2.35031 20.6073 2.38055 20.5979 2.40856C20.5885 2.43657 20.5706 2.46097 20.5467 2.47835L19.8303 2.99867C19.8064 3.016 19.7886 3.04042 19.7793 3.06846C19.7701 3.09651 19.7699 3.12676 19.7788 3.15492L20.0522 3.9971C20.0606 4.02547 20.0599 4.05576 20.0503 4.08374C20.0407 4.11171 20.0226 4.13599 19.9985 4.15319C19.9744 4.17039 19.9456 4.17965 19.916 4.17968C19.8864 4.17971 19.8576 4.1705 19.8335 4.15335L19.1178 3.63304C19.0935 3.6155 19.0642 3.60605 19.0342 3.60605C19.0042 3.60605 18.975 3.6155 18.9506 3.63304L18.2342 4.15335C18.2101 4.1705 18.1813 4.17971 18.1517 4.17968C18.1221 4.17965 18.0932 4.17039 18.0692 4.15319C18.0451 4.13599 18.027 4.11171 18.0174 4.08374C18.0077 4.05576 18.0071 4.02547 18.0155 3.9971L18.2897 3.15492C18.2982 3.12673 18.2979 3.0966 18.2886 3.06863C18.2794 3.04066 18.2618 3.01623 18.2381 2.99867L17.5217 2.47835C17.4975 2.46068 17.4795 2.4358 17.4703 2.40728C17.4611 2.37875 17.4611 2.34804 17.4704 2.31953C17.4796 2.29102 17.4977 2.26617 17.5219 2.24854C17.5462 2.2309 17.5753 2.22137 17.6053 2.22132H18.4905C18.5205 2.22117 18.5497 2.21159 18.574 2.19392C18.5982 2.17625 18.6163 2.1514 18.6256 2.12288L18.8991 1.28148C18.9078 1.25208 18.9258 1.22629 18.9503 1.20794C18.9749 1.1896 19.0047 1.17969 19.0354 1.17969C19.0661 1.17969 19.0959 1.1896 19.1205 1.20794C19.145 1.22629 19.163 1.25208 19.1717 1.28148Z" fill="white"/>
<path d="M9.67344 3.08066C9.66631 3.10622 9.66631 3.13324 9.67344 3.15879L9.94766 3.99941C9.95606 4.02778 9.9554 4.05807 9.94578 4.08605C9.93616 4.11403 9.91805 4.13831 9.89397 4.1555C9.86989 4.1727 9.84105 4.18196 9.81146 4.18199C9.78188 4.18202 9.75302 4.17281 9.72891 4.15566L9.0125 3.63613C8.98828 3.61865 8.95917 3.60925 8.9293 3.60925C8.89943 3.60925 8.87032 3.61865 8.84609 3.63613L8.12969 4.15566C8.11027 4.17002 8.08751 4.17916 8.06356 4.18222C8.03961 4.18528 8.01527 4.18216 7.99287 4.17315C7.97047 4.16415 7.95075 4.14955 7.93559 4.13076C7.92043 4.11198 7.91032 4.08962 7.90625 4.06582C8.36563 3.71738 8.84375 3.38691 9.32969 3.0791C9.71042 2.83848 10.0995 2.61061 10.4969 2.39551C10.4879 2.42715 10.4683 2.45475 10.4414 2.47363L9.725 2.99395C9.69795 3.01572 9.67965 3.0465 9.67344 3.08066Z" fill="white"/>
<path d="M19.1718 7.82968L19.4453 8.67186C19.4545 8.70036 19.4726 8.72518 19.4969 8.74273C19.5212 8.76029 19.5505 8.76967 19.5804 8.76952H20.4687C20.4987 8.76957 20.5279 8.7791 20.5521 8.79673C20.5764 8.81437 20.5944 8.83922 20.6037 8.86773C20.613 8.89624 20.613 8.92695 20.6037 8.95547C20.5945 8.984 20.5765 9.00888 20.5523 9.02655L19.8359 9.54686C19.812 9.56419 19.7941 9.58861 19.7849 9.61666C19.7756 9.64471 19.7754 9.67495 19.7843 9.70311L20.0546 10.5469C20.063 10.5752 20.0624 10.6055 20.0528 10.6335C20.0431 10.6615 20.025 10.6858 20.001 10.703C19.9769 10.7202 19.948 10.7294 19.9185 10.7294C19.8889 10.7295 19.86 10.7203 19.8359 10.7031L19.1203 10.1828C19.0959 10.1653 19.0667 10.1558 19.0367 10.1558C19.0067 10.1558 18.9774 10.1653 18.9531 10.1828L18.2367 10.7031C18.2126 10.7203 18.1837 10.7295 18.1541 10.7294C18.1245 10.7294 18.0957 10.7202 18.0716 10.703C18.0475 10.6858 18.0294 10.6615 18.0198 10.6335C18.0102 10.6055 18.0095 10.5752 18.0179 10.5469L18.2921 9.70468C18.3007 9.67649 18.3003 9.64636 18.2911 9.61839C18.2819 9.59042 18.2642 9.56599 18.2406 9.54843L17.5242 9.02811C17.5 9.01044 17.482 8.98556 17.4727 8.95704C17.4635 8.92851 17.4635 8.8978 17.4728 8.86929C17.4821 8.84078 17.5001 8.81594 17.5244 8.7983C17.5486 8.78066 17.5778 8.77113 17.6078 8.77108H18.4929C18.5229 8.77111 18.5521 8.76168 18.5763 8.74415C18.6006 8.72661 18.6187 8.70186 18.6281 8.67343L18.9015 7.83124C18.9107 7.80268 18.9286 7.77774 18.9528 7.76C18.977 7.74225 19.0061 7.7326 19.0361 7.73242C19.0661 7.73225 19.0954 7.74156 19.1197 7.75903C19.1441 7.7765 19.1624 7.80122 19.1718 7.82968Z" fill="white"/>
<path d="M14.1193 7.8299L14.3928 8.67209C14.402 8.70059 14.4201 8.7254 14.4444 8.74296C14.4687 8.76051 14.498 8.76989 14.5279 8.76974H15.4131C15.4431 8.76979 15.4723 8.77932 15.4965 8.79696C15.5207 8.8146 15.5388 8.83944 15.5481 8.86795C15.5573 8.89646 15.5574 8.92717 15.5481 8.9557C15.5389 8.98422 15.5209 9.0091 15.4967 9.02677L14.7803 9.54709C14.7565 9.5645 14.7387 9.58892 14.7294 9.61694C14.7202 9.64496 14.7199 9.67517 14.7287 9.70334L14.9998 10.5471C15.0085 10.5754 15.0081 10.6058 14.9987 10.6339C14.9892 10.662 14.9712 10.6864 14.9471 10.7037C14.923 10.7209 14.894 10.7302 14.8644 10.7301C14.8347 10.7301 14.8059 10.7207 14.7818 10.7033L14.0654 10.183C14.0411 10.1655 14.0118 10.156 13.9818 10.156C13.9518 10.156 13.9226 10.1655 13.8982 10.183L13.1842 10.7033C13.1602 10.7207 13.1313 10.7301 13.1016 10.7301C13.072 10.7302 13.0431 10.7209 13.019 10.7037C12.9949 10.6864 12.9768 10.662 12.9673 10.6339C12.9579 10.6058 12.9575 10.5754 12.9662 10.5471L13.2397 9.7049C13.2484 9.67673 13.2482 9.64652 13.2389 9.6185C13.2297 9.59048 13.2119 9.56606 13.1881 9.54865L12.4717 9.02834C12.4475 9.01066 12.4295 8.98578 12.4202 8.95726C12.411 8.92874 12.411 8.89803 12.4203 8.86952C12.4296 8.84101 12.4476 8.81616 12.4719 8.79852C12.4961 8.78088 12.5253 8.77136 12.5553 8.77131H13.4373C13.4673 8.77145 13.4965 8.76207 13.5208 8.74452C13.5451 8.72697 13.5632 8.70215 13.5725 8.67365L13.8459 7.83146C13.8542 7.8017 13.872 7.77546 13.8966 7.75671C13.9211 7.73796 13.9511 7.72772 13.982 7.72754C14.0129 7.72736 14.0431 7.73726 14.0678 7.75573C14.0926 7.7742 14.1107 7.80023 14.1193 7.8299Z" fill="white"/>
<path d="M5.39063 9.02764L5.10703 9.23311L4.67422 9.54561C4.65049 9.56309 4.63278 9.58752 4.62354 9.61551C4.61431 9.64351 4.614 9.67368 4.62266 9.70186L4.89844 10.5472C4.90635 10.5755 4.90535 10.6055 4.89558 10.6332C4.88581 10.6609 4.86775 10.6849 4.84385 10.702C4.81994 10.7191 4.79137 10.7284 4.76199 10.7286C4.73262 10.7289 4.70389 10.7201 4.67969 10.7034L3.96406 10.1823C3.93972 10.1648 3.91048 10.1553 3.88047 10.1553C3.85046 10.1553 3.82122 10.1648 3.79688 10.1823L3.08047 10.7034C3.05628 10.7201 3.02754 10.7289 2.99817 10.7286C2.9688 10.7284 2.94022 10.7191 2.91632 10.702C2.89241 10.6849 2.87435 10.6609 2.86458 10.6332C2.85481 10.6055 2.85382 10.5755 2.86172 10.5472L3.13594 9.70576C3.14426 9.67756 3.14378 9.6475 3.13456 9.61958C3.12535 9.59167 3.10784 9.56722 3.08438 9.54951L2.98906 9.47998C3.03985 9.40186 3.09141 9.31748 3.14531 9.23545C3.43047 8.79092 3.73281 8.35654 4.05156 7.93701L4.28907 8.67217C4.29831 8.70075 4.31636 8.72567 4.34064 8.74335C4.36493 8.76104 4.39418 8.77058 4.42422 8.77061H5.3125C5.34179 8.7722 5.36987 8.78277 5.39295 8.80087C5.41602 8.81897 5.43297 8.84373 5.4415 8.87178C5.45003 8.89984 5.44972 8.92985 5.44062 8.95773C5.43152 8.98561 5.41407 9.01001 5.39063 9.02764Z" fill="white"/>
<path d="M19.1719 14.5012L19.4453 15.3434C19.4547 15.3718 19.4728 15.3966 19.4971 15.4141C19.5213 15.4317 19.5505 15.4411 19.5805 15.4411H20.4688C20.4987 15.4411 20.5279 15.4506 20.5522 15.4683C20.5764 15.4859 20.5945 15.5108 20.6037 15.5393C20.613 15.5678 20.613 15.5985 20.6038 15.627C20.5946 15.6555 20.5766 15.6804 20.5523 15.6981L19.8359 16.2184C19.812 16.2357 19.7942 16.2602 19.7849 16.2882C19.7757 16.3163 19.7755 16.3465 19.7844 16.3747L20.0578 17.2168C20.0662 17.2452 20.0656 17.2755 20.0559 17.3035C20.0463 17.3315 20.0282 17.3557 20.0041 17.3729C19.9801 17.3901 19.9512 17.3994 19.9216 17.3994C19.892 17.3994 19.8632 17.3902 19.8391 17.3731L19.1234 16.8528C19.0991 16.8352 19.0699 16.8258 19.0398 16.8258C19.0098 16.8258 18.9806 16.8352 18.9563 16.8528L18.2398 17.3731C18.2157 17.3902 18.1869 17.3994 18.1573 17.3994C18.1277 17.3994 18.0989 17.3901 18.0748 17.3729C18.0507 17.3557 18.0326 17.3315 18.023 17.3035C18.0133 17.2755 18.0127 17.2452 18.0211 17.2168L18.2953 16.3747C18.3039 16.3465 18.3035 16.3163 18.2943 16.2884C18.285 16.2604 18.2674 16.236 18.2438 16.2184L17.5273 15.6981C17.5031 15.6804 17.4851 15.6555 17.4759 15.627C17.4667 15.5985 17.4667 15.5678 17.476 15.5393C17.4852 15.5108 17.5033 15.4859 17.5275 15.4683C17.5518 15.4506 17.581 15.4411 17.6109 15.4411H18.4961C18.526 15.441 18.5551 15.4315 18.5794 15.414C18.6036 15.3965 18.6218 15.3718 18.6313 15.3434L18.9047 14.5012C18.9147 14.4738 18.9329 14.4501 18.9568 14.4334C18.9807 14.4167 19.0091 14.4077 19.0383 14.4077C19.0675 14.4077 19.0959 14.4167 19.1198 14.4334C19.1437 14.4501 19.1619 14.4738 19.1719 14.5012Z" fill="white"/>
<path d="M14.1195 14.5009L14.3929 15.3431C14.4023 15.3715 14.4204 15.3963 14.4447 15.4138C14.469 15.4313 14.4981 15.4408 14.5281 15.4407H15.4132C15.4432 15.4408 15.4724 15.4503 15.4967 15.468C15.5209 15.4856 15.5389 15.5105 15.5482 15.539C15.5575 15.5675 15.5575 15.5982 15.5483 15.6267C15.5391 15.6552 15.521 15.6801 15.4968 15.6978L14.7804 16.2181C14.7566 16.2355 14.7388 16.2599 14.7296 16.2879C14.7203 16.316 14.7201 16.3462 14.7289 16.3743L15 17.2189C15.0087 17.2472 15.0083 17.2776 14.9988 17.3057C14.9894 17.3338 14.9713 17.3582 14.9472 17.3754C14.9231 17.3927 14.8942 17.402 14.8645 17.4019C14.8349 17.4019 14.806 17.3925 14.782 17.3751L14.0656 16.8548C14.0412 16.8373 14.012 16.8278 13.982 16.8278C13.952 16.8278 13.9227 16.8373 13.8984 16.8548L13.182 17.3751C13.158 17.3925 13.1291 17.4019 13.0994 17.4019C13.0698 17.402 13.0409 17.3927 13.0168 17.3754C12.9927 17.3582 12.9746 17.3338 12.9651 17.3057C12.9557 17.2776 12.9553 17.2472 12.964 17.2189L13.2375 16.3767C13.2462 16.3485 13.246 16.3183 13.2367 16.2903C13.2275 16.2623 13.2097 16.2378 13.1859 16.2204L12.4695 15.7001C12.4453 15.6824 12.4273 15.6576 12.418 15.629C12.4088 15.6005 12.4088 15.5698 12.4181 15.5413C12.4274 15.5128 12.4454 15.4879 12.4697 15.4703C12.4939 15.4527 12.5231 15.4431 12.5531 15.4431H13.4375C13.4674 15.4431 13.4966 15.4337 13.5209 15.4162C13.5451 15.3986 13.5632 15.3739 13.5726 15.3454L13.846 14.5032C13.8543 14.4735 13.872 14.4472 13.8965 14.4283C13.921 14.4095 13.951 14.3992 13.9819 14.3989C14.0128 14.3987 14.0429 14.4085 14.0678 14.4269C14.0926 14.4453 14.1107 14.4713 14.1195 14.5009Z" fill="white"/>
<path d="M9.0671 14.5011L9.34053 15.3433C9.35001 15.3716 9.36815 15.3963 9.3924 15.4138C9.41665 15.4314 9.44578 15.4408 9.47569 15.4409H10.3608C10.3908 15.441 10.42 15.4505 10.4443 15.4681C10.4685 15.4858 10.4865 15.5106 10.4958 15.5391C10.5051 15.5676 10.5051 15.5984 10.4959 15.6269C10.4867 15.6554 10.4687 15.6803 10.4444 15.698L9.72803 16.2183C9.70439 16.2358 9.68675 16.2603 9.67752 16.2882C9.66829 16.3162 9.66793 16.3463 9.67647 16.3745L9.95069 17.2167C9.95909 17.2451 9.95844 17.2754 9.94881 17.3033C9.93919 17.3313 9.92108 17.3556 9.897 17.3728C9.87293 17.39 9.84409 17.3993 9.8145 17.3993C9.78491 17.3993 9.75605 17.3901 9.73194 17.373L9.01553 16.8526C8.99131 16.8352 8.9622 16.8258 8.93233 16.8258C8.90246 16.8258 8.87335 16.8352 8.84913 16.8526L8.13272 17.373C8.10861 17.3901 8.07975 17.3993 8.05016 17.3993C8.02058 17.3993 7.99173 17.39 7.96766 17.3728C7.94358 17.3556 7.92547 17.3313 7.91585 17.3033C7.90622 17.2754 7.90557 17.2451 7.91397 17.2167L8.18741 16.3745C8.19631 16.3464 8.19612 16.3161 8.18686 16.2881C8.17761 16.26 8.15976 16.2356 8.13585 16.2183L7.42178 15.698C7.3979 15.6806 7.38003 15.6562 7.37064 15.6282C7.36126 15.6002 7.36084 15.5699 7.36943 15.5417C7.37802 15.5134 7.3952 15.4885 7.41858 15.4705C7.44197 15.4524 7.47039 15.4421 7.49991 15.4409H8.38506C8.41501 15.441 8.44419 15.4315 8.46846 15.414C8.49273 15.3965 8.51084 15.3717 8.52022 15.3433L8.79366 14.5011C8.80215 14.4714 8.82008 14.4452 8.84475 14.4266C8.86942 14.408 8.89948 14.3979 8.93038 14.3979C8.96128 14.3979 8.99134 14.408 9.01601 14.4266C9.04067 14.4452 9.05861 14.4714 9.0671 14.5011Z" fill="white"/>
<path d="M4.01548 14.5009L4.28892 15.343C4.2983 15.3715 4.31641 15.3962 4.34068 15.4138C4.36495 15.4313 4.39413 15.4407 4.42408 15.4407H5.31236C5.34188 15.4419 5.3703 15.4522 5.39368 15.4702C5.41707 15.4883 5.43425 15.5132 5.44284 15.5414C5.45143 15.5697 5.451 15.5999 5.44162 15.6279C5.43224 15.656 5.41436 15.6803 5.39048 15.6977L4.67408 16.218C4.65016 16.2354 4.63231 16.2598 4.62306 16.2878C4.6138 16.3159 4.61361 16.3461 4.62251 16.3743L4.89595 17.2165C4.90435 17.2449 4.9037 17.2751 4.89408 17.3031C4.88445 17.3311 4.86634 17.3554 4.84226 17.3726C4.81819 17.3898 4.78935 17.399 4.75976 17.3991C4.73017 17.3991 4.70131 17.3899 4.6772 17.3727L3.96158 16.8524C3.93723 16.8349 3.90799 16.8254 3.87798 16.8254C3.84798 16.8254 3.81873 16.8349 3.79439 16.8524L3.07798 17.3727C3.05387 17.3899 3.02501 17.3991 2.99542 17.3991C2.96584 17.399 2.937 17.3898 2.91292 17.3726C2.88884 17.3554 2.87073 17.3311 2.86111 17.3031C2.85148 17.2751 2.85083 17.2449 2.85923 17.2165L3.13345 16.3743C3.142 16.3461 3.14163 16.316 3.1324 16.288C3.12317 16.26 3.10553 16.2356 3.08189 16.218L2.36548 15.6977C2.34127 15.6801 2.32326 15.6552 2.31403 15.6267C2.3048 15.5981 2.30483 15.5674 2.3141 15.5389C2.32337 15.5104 2.34142 15.4856 2.36566 15.4679C2.3899 15.4503 2.4191 15.4408 2.44908 15.4407H3.33658C3.36649 15.4406 3.39562 15.4311 3.41987 15.4136C3.44411 15.3961 3.46225 15.3714 3.47173 15.343L3.74517 14.5009C3.75448 14.4724 3.77257 14.4475 3.79684 14.4299C3.82112 14.4123 3.85034 14.4028 3.88033 14.4028C3.91031 14.4028 3.93953 14.4123 3.96381 14.4299C3.98808 14.4475 4.00617 14.4724 4.01548 14.5009Z" fill="white"/>
<path d="M16.6452 4.36827L16.9187 5.21046C16.928 5.23889 16.9462 5.26364 16.9704 5.28118C16.9947 5.29871 17.0239 5.30814 17.0538 5.30811H17.939C17.9689 5.30816 17.9981 5.31769 18.0224 5.33533C18.0466 5.35297 18.0647 5.37782 18.0739 5.40632C18.0832 5.43483 18.0832 5.46554 18.074 5.49407C18.0648 5.52259 18.0468 5.54747 18.0226 5.56514L17.3062 6.08546C17.2825 6.10302 17.2649 6.12745 17.2556 6.15542C17.2464 6.18339 17.2461 6.21352 17.2546 6.24171L17.5288 7.08389C17.5372 7.11226 17.5366 7.14255 17.5269 7.17053C17.5173 7.19851 17.4992 7.22279 17.4751 7.23998C17.4511 7.25718 17.4222 7.26644 17.3926 7.26647C17.363 7.2665 17.3342 7.2573 17.3101 7.24014L16.5937 6.71983C16.5694 6.70235 16.5403 6.69295 16.5105 6.69295C16.4806 6.69295 16.4515 6.70235 16.4273 6.71983L15.7108 7.24014C15.6867 7.2573 15.6579 7.2665 15.6283 7.26647C15.5987 7.26644 15.5699 7.25718 15.5458 7.23998C15.5217 7.22279 15.5036 7.19851 15.494 7.17053C15.4843 7.14255 15.4837 7.11226 15.4921 7.08389L15.7655 6.24171C15.7744 6.21355 15.7742 6.1833 15.765 6.15525C15.7557 6.12721 15.7379 6.10279 15.714 6.08546L14.9999 5.56514C14.976 5.54776 14.9582 5.52337 14.9488 5.49535C14.9394 5.46734 14.939 5.43711 14.9476 5.40884C14.9561 5.38058 14.9733 5.35569 14.9967 5.33764C15.0201 5.31959 15.0485 5.30927 15.078 5.30811H15.9632C15.9932 5.30826 16.0224 5.29888 16.0467 5.28133C16.071 5.26377 16.0891 5.23896 16.0983 5.21046L16.3718 4.36827C16.3803 4.33856 16.3982 4.31242 16.4229 4.29381C16.4475 4.2752 16.4776 4.26514 16.5085 4.26514C16.5394 4.26514 16.5695 4.2752 16.5941 4.29381C16.6188 4.31242 16.6367 4.33856 16.6452 4.36827Z" fill="white"/>
<path d="M7.15062 6.15742C7.14163 6.1859 7.14163 6.21645 7.15062 6.24492L7.42172 7.08633C7.42993 7.11458 7.42918 7.14469 7.41956 7.17249C7.40994 7.2003 7.39194 7.22444 7.36802 7.24158C7.34411 7.25873 7.31547 7.26803 7.28604 7.2682C7.25662 7.26838 7.22787 7.25943 7.20375 7.24258L6.48734 6.72148C6.463 6.70394 6.43375 6.6945 6.40375 6.6945C6.37374 6.6945 6.3445 6.70394 6.32015 6.72148L5.60375 7.24258C5.57963 7.25943 5.55088 7.26838 5.52145 7.2682C5.49203 7.26803 5.46339 7.25873 5.43947 7.24158C5.41556 7.22444 5.39755 7.2003 5.38794 7.17249C5.37832 7.14469 5.37757 7.11458 5.38578 7.08633L5.65922 6.24492C5.66821 6.21645 5.66821 6.1859 5.65922 6.15742C5.654 6.13349 5.64208 6.11154 5.62484 6.09414C5.98943 5.71914 6.36573 5.35898 6.75375 5.01367L6.81625 5.20664C6.82502 5.23606 6.84308 5.26185 6.86772 5.28016C6.89236 5.29846 6.92227 5.3083 6.95297 5.3082H7.83812C7.86806 5.30853 7.89715 5.31824 7.92127 5.33598C7.94539 5.35372 7.96334 5.37858 7.97257 5.40707C7.98181 5.43555 7.98187 5.46621 7.97274 5.49473C7.96362 5.52325 7.94577 5.54818 7.92172 5.56602L7.20531 6.08555C7.17967 6.10284 7.16045 6.1281 7.15062 6.15742Z" fill="white"/>
<path d="M3.14131 12.3098C3.13933 12.3293 3.13313 12.3481 3.12315 12.365C3.11317 12.3818 3.09964 12.3963 3.0835 12.4074L2.36709 12.9285C2.34345 12.9461 2.32581 12.9705 2.31658 12.9985C2.30735 13.0264 2.30698 13.0566 2.31553 13.0848L2.58896 13.927C2.5977 13.9553 2.5973 13.9856 2.58784 14.0137C2.57837 14.0418 2.56031 14.0663 2.53622 14.0835C2.51212 14.1008 2.4832 14.1101 2.45355 14.11C2.42391 14.1099 2.39503 14.1006 2.371 14.0832L1.65459 13.5637C1.63054 13.5454 1.60118 13.5355 1.571 13.5355C1.54081 13.5355 1.51145 13.5454 1.4874 13.5637L0.92334 13.9738C1.10199 13.4051 1.30511 12.8488 1.53271 12.3051C1.62959 12.0707 1.73115 11.841 1.83818 11.6113L1.97959 12.048C1.9888 12.0767 2.00683 12.1017 2.0311 12.1195C2.05537 12.1374 2.08464 12.1471 2.11475 12.1473H2.9999C3.02035 12.1472 3.04057 12.1515 3.0592 12.1599C3.07783 12.1683 3.09442 12.1807 3.10784 12.1961C3.12126 12.2115 3.1312 12.2297 3.13698 12.2493C3.14275 12.2689 3.14423 12.2895 3.14131 12.3098Z" fill="white"/>
<path d="M16.6453 11.2113L16.9188 12.0535C16.9282 12.0818 16.9464 12.1065 16.9706 12.124C16.9949 12.1416 17.024 12.151 17.0539 12.1511H17.9391C17.969 12.1512 17.9982 12.1607 18.0225 12.1783C18.0467 12.196 18.0648 12.2208 18.074 12.2493C18.0833 12.2779 18.0833 12.3086 18.0741 12.3371C18.0649 12.3656 18.0469 12.3905 18.0227 12.4082L17.3063 12.9285C17.2826 12.946 17.265 12.9705 17.2557 12.9984C17.2465 13.0264 17.2461 13.0565 17.2547 13.0847L17.5289 13.9269C17.5373 13.9553 17.5367 13.9856 17.527 14.0135C17.5174 14.0415 17.4993 14.0658 17.4752 14.083C17.4511 14.1002 17.4223 14.1095 17.3927 14.1095C17.3631 14.1095 17.3343 14.1003 17.3102 14.0832L16.5938 13.5629C16.5695 13.5454 16.5404 13.536 16.5106 13.536C16.4807 13.536 16.4516 13.5454 16.4273 13.5629L15.7109 14.0832C15.6868 14.1003 15.658 14.1095 15.6284 14.1095C15.5988 14.1095 15.57 14.1002 15.5459 14.083C15.5218 14.0658 15.5037 14.0415 15.4941 14.0135C15.4844 13.9856 15.4838 13.9553 15.4922 13.9269L15.7656 13.0847C15.7745 13.0566 15.7743 13.0263 15.7651 12.9983C15.7558 12.9702 15.738 12.9458 15.7141 12.9285L15 12.4082C14.9758 12.3905 14.9578 12.3656 14.9486 12.3371C14.9393 12.3086 14.9393 12.2779 14.9486 12.2493C14.9579 12.2208 14.9759 12.196 15.0002 12.1783C15.0244 12.1607 15.0536 12.1512 15.0836 12.1511H15.9688C15.9987 12.1512 16.0279 12.1417 16.0521 12.1242C16.0764 12.1067 16.0945 12.0819 16.1039 12.0535L16.3773 11.2113C16.3872 11.1836 16.4053 11.1597 16.4293 11.1427C16.4533 11.1258 16.482 11.1167 16.5113 11.1167C16.5407 11.1167 16.5693 11.1258 16.5933 11.1427C16.6173 11.1597 16.6355 11.1836 16.6453 11.2113Z" fill="white"/>
<path d="M11.5938 11.2112L11.8672 12.0534C11.8766 12.0818 11.8947 12.1066 11.919 12.1241C11.9432 12.1416 11.9724 12.1511 12.0023 12.151H12.8906C12.9206 12.1511 12.9498 12.1606 12.974 12.1782C12.9983 12.1959 13.0163 12.2207 13.0256 12.2492C13.0349 12.2777 13.0349 12.3085 13.0257 12.337C13.0164 12.3655 12.9984 12.3904 12.9742 12.4081L12.2578 12.9284C12.2339 12.9457 12.2161 12.9701 12.2068 12.9982C12.1975 13.0262 12.1974 13.0565 12.2063 13.0846L12.4797 13.9268C12.4881 13.9552 12.4874 13.9855 12.4778 14.0134C12.4682 14.0414 12.4501 14.0657 12.426 14.0829C12.4019 14.1001 12.3731 14.1094 12.3435 14.1094C12.3139 14.1094 12.2851 14.1002 12.2609 14.0831L11.5453 13.5627C11.521 13.5452 11.4917 13.5358 11.4617 13.5358C11.4317 13.5358 11.4025 13.5452 11.3781 13.5627L10.6617 14.0831C10.6376 14.1002 10.6088 14.1094 10.5792 14.1094C10.5496 14.1094 10.5207 14.1001 10.4967 14.0829C10.4726 14.0657 10.4545 14.0414 10.4448 14.0134C10.4352 13.9855 10.4346 13.9552 10.443 13.9268L10.7172 13.0846C10.7257 13.0564 10.7254 13.0263 10.7161 12.9983C10.7069 12.9704 10.6893 12.9459 10.6656 12.9284L9.94922 12.4081C9.92501 12.3904 9.907 12.3655 9.89777 12.337C9.88854 12.3085 9.88857 12.2777 9.89784 12.2492C9.90711 12.2207 9.92516 12.1959 9.9494 12.1782C9.97364 12.1606 10.0028 12.1511 10.0328 12.151H10.918C10.9479 12.1509 10.977 12.1415 11.0013 12.1239C11.0255 12.1064 11.0436 12.0817 11.0531 12.0534L11.3266 11.2112C11.3366 11.1838 11.3547 11.1601 11.3786 11.1434C11.4025 11.1266 11.431 11.1177 11.4602 11.1177C11.4893 11.1177 11.5178 11.1266 11.5417 11.1434C11.5656 11.1601 11.5838 11.1838 11.5938 11.2112Z" fill="white"/>
<path d="M2.36709 19.6388C2.34327 19.6562 2.32549 19.6806 2.31624 19.7086C2.307 19.7366 2.30675 19.7668 2.31553 19.795L2.58896 20.638C2.5977 20.6663 2.5973 20.6967 2.58784 20.7248C2.57837 20.7529 2.56031 20.7773 2.53622 20.7945C2.51212 20.8118 2.4832 20.8211 2.45355 20.821C2.42391 20.821 2.39503 20.8116 2.371 20.7942L1.65459 20.2747C1.63039 20.2568 1.60109 20.2471 1.571 20.2471C1.5409 20.2471 1.5116 20.2568 1.4874 20.2747L0.771777 20.7973C0.747764 20.815 0.718775 20.8247 0.688954 20.8249C0.659134 20.8251 0.630009 20.8159 0.605742 20.7985C0.581475 20.7812 0.56331 20.7566 0.553842 20.7284C0.544375 20.7001 0.544089 20.6695 0.553027 20.6411L0.826465 19.7981C0.835489 19.77 0.835359 19.7397 0.826095 19.7116C0.816831 19.6835 0.798909 19.6591 0.774902 19.6419L0.0584961 19.1177C0.0434808 19.107 0.0307342 19.0934 0.0209961 19.0778C0.0209961 19.0239 0.0256836 18.97 0.0288086 18.9169C0.0418039 18.8992 0.0588977 18.8849 0.0786264 18.8752C0.0983551 18.8655 0.120131 18.8608 0.14209 18.8614H1.02725C1.05735 18.8612 1.08663 18.8515 1.1109 18.8337C1.13516 18.8159 1.15319 18.7909 1.1624 18.7622L1.26006 18.4622L1.43584 17.9208C1.44515 17.8923 1.46324 17.8674 1.48751 17.8498C1.51179 17.8322 1.54101 17.8228 1.571 17.8228C1.60098 17.8228 1.6302 17.8322 1.65448 17.8498C1.67875 17.8674 1.69684 17.8923 1.70615 17.9208L1.88193 18.4622L1.97959 18.7622C1.9888 18.7909 2.00683 18.8159 2.0311 18.8337C2.05537 18.8515 2.08464 18.8612 2.11475 18.8614H2.9999C3.02992 18.8612 3.05924 18.8705 3.0836 18.888C3.10797 18.9056 3.12612 18.9304 3.13543 18.959C3.14474 18.9875 3.14473 19.0183 3.13539 19.0468C3.12606 19.0753 3.10788 19.1001 3.0835 19.1177L2.36709 19.6388Z" fill="white"/>
<path d="M16.6453 17.9208L16.9188 18.763C16.9281 18.7914 16.9462 18.8161 16.9705 18.8337C16.9948 18.8512 17.024 18.8606 17.0539 18.8606H17.9391C17.969 18.8607 17.9982 18.8702 18.0225 18.8878C18.0467 18.9055 18.0648 18.9303 18.074 18.9588C18.0833 18.9873 18.0833 19.018 18.0741 19.0466C18.0649 19.0751 18.0469 19.1 18.0227 19.1176L17.3063 19.638C17.2828 19.6557 17.2653 19.6801 17.2561 19.708C17.2469 19.7359 17.2464 19.766 17.2547 19.7942L17.5289 20.6356C17.5373 20.664 17.5367 20.6943 17.527 20.7222C17.5174 20.7502 17.4993 20.7745 17.4752 20.7917C17.4511 20.8089 17.4223 20.8182 17.3927 20.8182C17.3631 20.8182 17.3343 20.809 17.3102 20.7919L16.5938 20.2715C16.5695 20.2541 16.5404 20.2447 16.5106 20.2447C16.4807 20.2447 16.4516 20.2541 16.4273 20.2715L15.7109 20.7919C15.6868 20.809 15.658 20.8182 15.6284 20.8182C15.5988 20.8182 15.57 20.8089 15.5459 20.7917C15.5218 20.7745 15.5037 20.7502 15.4941 20.7222C15.4844 20.6943 15.4838 20.664 15.4922 20.6356L15.7656 19.7942C15.7743 19.766 15.774 19.7359 15.7647 19.7079C15.7555 19.6799 15.7378 19.6554 15.7141 19.638L15 19.1176C14.9758 19.1 14.9578 19.0751 14.9486 19.0466C14.9393 19.018 14.9393 18.9873 14.9486 18.9588C14.9579 18.9303 14.9759 18.9055 15.0002 18.8878C15.0244 18.8702 15.0536 18.8607 15.0836 18.8606H15.9688C15.9987 18.8608 16.028 18.8514 16.0523 18.8338C16.0765 18.8163 16.0946 18.7915 16.1039 18.763L16.3773 17.9208C16.3872 17.8931 16.4053 17.8691 16.4293 17.8522C16.4533 17.8353 16.482 17.8262 16.5113 17.8262C16.5407 17.8262 16.5693 17.8353 16.5933 17.8522C16.6173 17.8691 16.6355 17.8931 16.6453 17.9208Z" fill="white"/>
<path d="M11.5936 17.9206L11.867 18.7628C11.8763 18.7913 11.8944 18.8161 11.9187 18.8337C11.943 18.8512 11.9722 18.8606 12.0022 18.8605H12.8905C12.92 18.8616 12.9484 18.872 12.9718 18.89C12.9952 18.9081 13.0124 18.9329 13.021 18.9612C13.0296 18.9895 13.0291 19.0197 13.0197 19.0477C13.0104 19.0757 12.9925 19.1001 12.9686 19.1175L12.2522 19.6378C12.2285 19.6553 12.2108 19.6797 12.2015 19.7077C12.1923 19.7357 12.192 19.7659 12.2006 19.7941L12.4741 20.6355C12.4825 20.6639 12.4818 20.6941 12.4722 20.7221C12.4626 20.7501 12.4445 20.7744 12.4204 20.7916C12.3963 20.8088 12.3675 20.818 12.3379 20.8181C12.3083 20.8181 12.2794 20.8089 12.2553 20.7917L11.5397 20.2714C11.5154 20.2539 11.4861 20.2444 11.4561 20.2444C11.4261 20.2444 11.3969 20.2539 11.3725 20.2714L10.6561 20.7917C10.632 20.8089 10.6031 20.8181 10.5735 20.8181C10.544 20.818 10.5151 20.8088 10.491 20.7916C10.467 20.7744 10.4489 20.7501 10.4392 20.7221C10.4296 20.6941 10.429 20.6639 10.4374 20.6355L10.7116 19.7941C10.7199 19.7659 10.7194 19.7358 10.7102 19.7079C10.701 19.68 10.6835 19.6555 10.66 19.6378L9.94361 19.1175C9.91939 19.0998 9.90139 19.075 9.89216 19.0464C9.88293 19.0179 9.88295 18.9872 9.89223 18.9587C9.9015 18.9302 9.91954 18.9053 9.94378 18.8877C9.96803 18.8701 9.99722 18.8605 10.0272 18.8605H10.9124C10.9423 18.8605 10.9715 18.8511 10.9958 18.8335C11.02 18.816 11.0381 18.7913 11.0475 18.7628L11.321 17.9206C11.3297 17.8912 11.3476 17.8654 11.3722 17.8471C11.3968 17.8288 11.4266 17.8188 11.4573 17.8188C11.4879 17.8188 11.5178 17.8288 11.5423 17.8471C11.5669 17.8654 11.5849 17.8912 11.5936 17.9206Z" fill="white"/>
<path d="M6.54136 17.9205L6.8148 18.7626C6.82423 18.7917 6.84279 18.8168 6.86771 18.8344C6.89263 18.852 6.92258 18.8611 6.95308 18.8603H7.83824C7.86822 18.8603 7.89741 18.8699 7.92165 18.8875C7.94589 18.9051 7.96394 18.93 7.97321 18.9585C7.98248 18.987 7.98251 19.0177 7.97328 19.0463C7.96405 19.0748 7.94604 19.0997 7.92183 19.1173L7.20542 19.6376C7.18178 19.6552 7.16414 19.6796 7.15491 19.7076C7.14568 19.7356 7.14532 19.7657 7.15386 19.7939L7.42183 20.6384C7.43056 20.6668 7.43017 20.6971 7.4207 20.7252C7.41124 20.7533 7.39318 20.7777 7.36908 20.795C7.34498 20.8123 7.31607 20.8215 7.28642 20.8215C7.25677 20.8214 7.22789 20.812 7.20386 20.7947L6.48746 20.2744C6.46311 20.2568 6.43387 20.2474 6.40386 20.2474C6.37386 20.2474 6.34461 20.2568 6.32027 20.2744L5.60386 20.7947C5.57983 20.812 5.55095 20.8214 5.5213 20.8215C5.49166 20.8215 5.46274 20.8123 5.43864 20.795C5.41454 20.7777 5.39649 20.7533 5.38702 20.7252C5.37756 20.6971 5.37716 20.6668 5.38589 20.6384L5.65933 19.797C5.66788 19.7688 5.66751 19.7387 5.65828 19.7107C5.64905 19.6828 5.63141 19.6583 5.60777 19.6408L4.89136 19.1205C4.86715 19.1028 4.84914 19.0779 4.83991 19.0494C4.83068 19.0209 4.83071 18.9901 4.83998 18.9616C4.84925 18.9331 4.8673 18.9083 4.89154 18.8906C4.91578 18.873 4.94498 18.8635 4.97496 18.8634H5.85933C5.8893 18.8636 5.91854 18.8542 5.94283 18.8366C5.96713 18.8191 5.98521 18.7943 5.99449 18.7658L6.26792 17.9236C6.27607 17.8938 6.2937 17.8674 6.31816 17.8485C6.34261 17.8296 6.37256 17.8192 6.40346 17.8189C6.43437 17.8185 6.46454 17.8282 6.48943 17.8466C6.51431 17.8649 6.53254 17.8908 6.54136 17.9205Z" fill="white"/>
<path d="M22.4218 0.145312C22.1093 0.182031 21.7968 0.228125 21.4843 0.279687C19.407 0.629611 17.3987 1.30844 15.5351 2.29062C15.4679 2.325 15.4015 2.36172 15.3351 2.39687C14.9372 2.61198 14.5481 2.83984 14.1679 3.08047H9.33276C9.71349 2.83984 10.1026 2.61198 10.5 2.39687C13.3146 0.873641 16.4554 0.0527121 19.6554 0.00390625H20.3445C20.7273 0.009375 21.107 0.0273437 21.4843 0.0546875C21.7968 0.0776042 22.1093 0.107812 22.4218 0.145312Z" fill="#DB1B1B"/>
<path d="M14.168 3.08027C13.7711 3.32923 13.3844 3.59277 13.0079 3.8709C12.9196 3.93496 12.8321 4.00059 12.7446 4.06699C12.4063 4.3248 12.0774 4.59121 11.7571 4.86934C11.7 4.91699 11.6438 4.96621 11.5875 5.01621C11.2297 5.33262 10.8844 5.66309 10.55 6.00371L10.6625 6.08184C10.687 6.09962 10.7051 6.12483 10.7141 6.15371H5.56567C5.58442 6.1334 5.60396 6.11387 5.62349 6.09355C5.98807 5.71855 6.36437 5.3584 6.75239 5.01309C7.12583 4.6834 7.51151 4.36699 7.90942 4.06387C8.3688 3.71543 8.84692 3.38496 9.33286 3.07715L14.168 3.08027Z" fill="white"/>
<path d="M10.4009 6.15723C9.91219 6.66675 9.45062 7.2016 9.01807 7.75957L8.88447 7.93457C8.81182 8.03066 8.73994 8.12676 8.66885 8.22441L8.52353 8.67207C8.51429 8.70065 8.49624 8.72557 8.47196 8.74326C8.44767 8.76094 8.41842 8.77048 8.38838 8.77051H8.28135C8.17666 8.92676 8.0751 9.07832 7.9751 9.23379H3.14307C3.42822 8.78926 3.73057 8.35488 4.04932 7.93535C4.51981 7.31369 5.02614 6.71997 5.56572 6.15723H10.4009Z" fill="#DB1B1B"/>
<path d="M7.97803 9.23272L7.89209 9.36943L7.82412 9.47725C7.39757 10.166 7.01327 10.8801 6.67334 11.6155C6.56631 11.8444 6.46475 12.0741 6.36787 12.3085H1.53271C1.62959 12.0741 1.73115 11.8444 1.83818 11.6147C2.17811 10.8793 2.56242 10.1653 2.98896 9.47647C3.03975 9.39834 3.09131 9.31396 3.14521 9.23193L7.97803 9.23272Z" fill="white"/>
<path d="M6.36792 12.3092C6.14032 12.8529 5.93719 13.4087 5.75855 13.9764C5.61271 14.4383 5.4825 14.9071 5.36792 15.3826H0.535889C0.647347 14.9061 0.777555 14.4373 0.926514 13.9764C1.10516 13.4076 1.30828 12.8514 1.53589 12.3076L6.36792 12.3092Z" fill="#DB1B1B"/>
<path d="M5.39062 15.6979L5.28047 15.776C5.08915 16.6608 4.95864 17.5577 4.88984 18.4604H0.0585938C0.136889 17.4239 0.296495 16.3952 0.535938 15.3838H5.37109C5.36641 15.4049 5.36094 15.4268 5.35625 15.4471C5.38095 15.4557 5.40279 15.471 5.41935 15.4913C5.43591 15.5116 5.44655 15.536 5.45011 15.562C5.45366 15.5879 5.44999 15.6143 5.43949 15.6383C5.429 15.6623 5.41209 15.6829 5.39062 15.6979Z" fill="white"/>
<path d="M4.83516 20.0002C4.83516 20.5174 4.85469 21.0301 4.89375 21.5385H0.0585938C0.0195313 21.0307 0 20.5179 0 20.0002V19.0041C7.78887e-05 19.0301 0.00738179 19.0555 0.0210938 19.0775C0.0210938 19.0236 0.0257813 18.9697 0.0289063 18.9166C0.0367188 18.7643 0.046875 18.6135 0.0585938 18.4619H4.89375C4.88203 18.6135 4.87188 18.7643 4.86406 18.9166C4.86406 18.9697 4.85859 19.0236 4.85625 19.0775C4.84915 19.0668 4.84387 19.0549 4.84063 19.0424C4.84063 19.0354 4.84063 19.0291 4.83672 19.0229C4.8363 19.0166 4.8363 19.0103 4.83672 19.0041L4.83516 20.0002Z" fill="#DB1B1B"/>
<path d="M5.37109 24.6146H0.535938C0.296429 23.6032 0.136822 22.5745 0.0585938 21.5381H4.89375C4.97198 22.5745 5.13158 23.6032 5.37109 24.6146Z" fill="#DBDBDB"/>
<path d="M6.36792 27.6905H1.53276C1.11662 26.6944 0.783204 25.6656 0.535889 24.6147H5.37105C5.61836 25.6656 5.95178 26.6944 6.36792 27.6905Z" fill="#C11A1A"/>
<path d="M7.97803 30.767H3.14287C2.51728 29.7905 1.9785 28.761 1.53271 27.6904H6.36787C6.81366 28.761 7.35244 29.7905 7.97803 30.767Z" fill="#DBDBDB"/>
<path d="M10.4008 33.8437H5.56567C4.66025 32.8993 3.84912 31.8689 3.1438 30.7671H7.97895C8.68427 31.8689 9.49541 32.8993 10.4008 33.8437Z" fill="#C11A1A"/>
<path d="M14.168 36.9203H9.33286C7.95717 36.0511 6.69217 35.0181 5.56567 33.8438H10.4008C11.5273 35.0181 12.7923 36.0511 14.168 36.9203Z" fill="#DBDBDB"/>
<path d="M22.4218 39.8548C21.7476 39.9381 21.0697 39.9866 20.3905 40.0001H19.6093C15.9656 39.9365 12.4094 38.8725 9.32959 36.9243H14.1647C16.6645 38.5038 19.4855 39.505 22.4218 39.8548Z" fill="#C11A1A"/>
<path d="M21.4844 0.0546875V0.279687C19.407 0.629611 17.3988 1.30844 15.5352 2.29063C15.468 2.325 15.4016 2.36172 15.3352 2.39688C14.9372 2.61198 14.5482 2.83984 14.168 3.08047C13.7711 3.32943 13.3844 3.59297 13.0078 3.87109C12.9195 3.93516 12.832 4.00078 12.7445 4.06719C12.4062 4.325 12.0773 4.59141 11.757 4.86953C11.7 4.91719 11.6438 4.96641 11.5875 5.01641C11.2297 5.33281 10.8844 5.66328 10.55 6.00391L10.6625 6.08203C10.687 6.09982 10.7051 6.12502 10.7141 6.15391H10.4016C9.91288 6.66343 9.4513 7.19828 9.01875 7.75625L8.88516 7.93125C8.8125 8.02734 8.74063 8.12344 8.66953 8.22109L8.52344 8.67188C8.51419 8.70046 8.49614 8.72538 8.47186 8.74306C8.44758 8.76074 8.41832 8.77028 8.38828 8.77031H8.28125C8.17656 8.92656 8.075 9.07812 7.975 9.23359L7.88906 9.37031L7.82109 9.47812C7.39454 10.1669 7.01024 10.881 6.67031 11.6164C6.56328 11.8453 6.46172 12.075 6.36484 12.3094C6.13932 12.8531 5.93724 13.4089 5.75859 13.9766C5.61276 14.4385 5.48255 14.9073 5.36797 15.3828C5.36328 15.4039 5.35781 15.4258 5.35312 15.4461C5.37762 15.4547 5.39931 15.4698 5.41584 15.4898C5.43236 15.5098 5.4431 15.5339 5.44688 15.5596C5.45067 15.5853 5.44735 15.6115 5.4373 15.6354C5.42724 15.6593 5.41083 15.68 5.38984 15.6953L5.27969 15.7734C5.08837 16.6583 4.95786 17.5552 4.88906 18.4578C4.87734 18.6094 4.86719 18.7602 4.85938 18.9125C4.85938 18.9656 4.85391 19.0195 4.85156 19.0734C4.84447 19.0627 4.83919 19.0508 4.83594 19.0383C4.83594 19.0312 4.83594 19.025 4.83203 19.0187C4.83161 19.0125 4.83161 19.0062 4.83203 19V20C4.83203 20.5172 4.85156 21.0299 4.89062 21.5383H0.0585938C0.0195312 21.0305 0 20.5177 0 20V19.0039C7.78887e-05 19.0299 0.00738179 19.0553 0.0210938 19.0773C0.0210938 19.0234 0.0257812 18.9695 0.0289063 18.9164C0.0367188 18.7641 0.046875 18.6133 0.0585938 18.4617C0.136889 17.4253 0.296495 16.3966 0.535937 15.3852C0.647396 14.9086 0.777604 14.4398 0.926562 13.9789C1.10521 13.4102 1.30833 12.8539 1.53594 12.3102C1.63281 12.0758 1.73438 11.8461 1.84141 11.6164C2.18134 10.881 2.56564 10.1669 2.99219 9.47812C3.04297 9.4 3.09453 9.31563 3.14844 9.23359C3.43359 8.78906 3.73594 8.35469 4.05469 7.93516C4.52342 7.31364 5.02792 6.71993 5.56562 6.15703C5.58437 6.13672 5.60391 6.11719 5.62344 6.09687C5.98802 5.72187 6.36432 5.36172 6.75234 5.01641C7.12578 4.68672 7.51146 4.37031 7.90937 4.06719C8.36875 3.71875 8.84688 3.38828 9.33281 3.08047C9.71354 2.83984 10.1026 2.61198 10.5 2.39688C13.3146 0.873642 16.4555 0.0527121 19.6555 0.00390625H20.3445C20.7273 0.009375 21.107 0.0273437 21.4844 0.0546875Z" fill="#32314B"/>
<path d="M9.67344 3.08066C9.66631 3.10622 9.66631 3.13324 9.67344 3.15879L9.94766 3.99941C9.95606 4.02778 9.9554 4.05807 9.94578 4.08605C9.93616 4.11403 9.91805 4.13831 9.89397 4.1555C9.86989 4.1727 9.84105 4.18196 9.81146 4.18199C9.78188 4.18202 9.75302 4.17281 9.72891 4.15566L9.0125 3.63613C8.98828 3.61865 8.95917 3.60925 8.9293 3.60925C8.89943 3.60925 8.87032 3.61865 8.84609 3.63613L8.12969 4.15566C8.11027 4.17002 8.08751 4.17916 8.06356 4.18222C8.03961 4.18528 8.01527 4.18216 7.99287 4.17315C7.97047 4.16415 7.95075 4.14955 7.93559 4.13076C7.92043 4.11198 7.91032 4.08962 7.90625 4.06582C8.36563 3.71738 8.84375 3.38691 9.32969 3.0791C9.71042 2.83848 10.0995 2.61061 10.4969 2.39551C10.4879 2.42715 10.4683 2.45475 10.4414 2.47363L9.725 2.99395C9.69795 3.01572 9.67965 3.0465 9.67344 3.08066Z" fill="#DBDBDB"/>
<path d="M9.01792 7.75939L8.88433 7.93439C8.81167 8.03049 8.73979 8.12658 8.6687 8.22424L8.79683 7.83361C8.80327 7.81164 8.81493 7.79155 8.8308 7.77505C8.84668 7.75855 8.86631 7.74612 8.88802 7.73884C8.90972 7.73155 8.93287 7.72961 8.95549 7.73319C8.9781 7.73677 8.99952 7.74576 9.01792 7.75939Z" fill="#DBDBDB"/>
<path d="M5.39063 9.02715L5.10703 9.23262L4.67422 9.54512C4.65049 9.5626 4.63278 9.58703 4.62354 9.61503C4.61431 9.64302 4.614 9.67319 4.62266 9.70137L4.89844 10.5467C4.90635 10.575 4.90535 10.605 4.89558 10.6327C4.88581 10.6604 4.86775 10.6844 4.84385 10.7015C4.81994 10.7186 4.79137 10.7279 4.76199 10.7281C4.73262 10.7284 4.70389 10.7196 4.67969 10.7029L3.96406 10.1818C3.93972 10.1643 3.91048 10.1549 3.88047 10.1549C3.85046 10.1549 3.82122 10.1643 3.79688 10.1818L3.08047 10.7029C3.05628 10.7196 3.02754 10.7284 2.99817 10.7281C2.9688 10.7279 2.94022 10.7186 2.91632 10.7015C2.89241 10.6844 2.87435 10.6604 2.86458 10.6327C2.85481 10.605 2.85382 10.575 2.86172 10.5467L3.13594 9.70527C3.14426 9.67708 3.14378 9.64701 3.13456 9.6191C3.12535 9.59118 3.10784 9.56673 3.08438 9.54902L2.98906 9.47949C3.03985 9.40137 3.09141 9.31699 3.14531 9.23496C3.43047 8.79043 3.73281 8.35605 4.05156 7.93652L4.28907 8.67168C4.29831 8.70026 4.31636 8.72518 4.34064 8.74286C4.36493 8.76055 4.39418 8.77009 4.42422 8.77012H5.3125C5.34179 8.77172 5.36987 8.78228 5.39295 8.80038C5.41602 8.81848 5.43297 8.84324 5.4415 8.8713C5.45003 8.89936 5.44972 8.92936 5.44062 8.95724C5.43152 8.98512 5.41407 9.00953 5.39063 9.02715Z" fill="#DBDBDB"/>
<path d="M5.39073 15.6978L5.28057 15.776L4.67432 16.2174C4.65022 16.2345 4.63222 16.2589 4.62295 16.287C4.61368 16.3151 4.61361 16.3455 4.62276 16.3736L4.8962 17.215C4.9046 17.2434 4.90394 17.2737 4.89432 17.3017C4.8847 17.3296 4.86659 17.3539 4.84251 17.3711C4.81843 17.3883 4.78959 17.3976 4.76 17.3976C4.73042 17.3976 4.70156 17.3884 4.67745 17.3713L3.96182 16.851C3.93748 16.8334 3.90823 16.824 3.87823 16.824C3.84822 16.824 3.81898 16.8334 3.79463 16.851L3.07823 17.3713C3.05412 17.3884 3.02526 17.3976 2.99567 17.3976C2.96608 17.3976 2.93724 17.3883 2.91316 17.3711C2.88909 17.3539 2.87097 17.3296 2.86135 17.3017C2.85173 17.2737 2.85107 17.2434 2.85948 17.215L3.1337 16.3736C3.14248 16.3454 3.14223 16.3152 3.13298 16.2872C3.12373 16.2592 3.10595 16.2348 3.08213 16.2174L2.36573 15.6963C2.34151 15.6786 2.3235 15.6537 2.31428 15.6252C2.30505 15.5967 2.30507 15.566 2.31434 15.5374C2.32362 15.5089 2.34166 15.4841 2.3659 15.4665C2.39014 15.4488 2.41934 15.4393 2.44932 15.4392H3.33682C3.35857 15.4392 3.38001 15.4342 3.39952 15.4246C3.41902 15.415 3.43606 15.401 3.44932 15.3838C3.459 15.3707 3.46664 15.3562 3.47198 15.3408L3.74541 14.4994C3.75473 14.4709 3.77281 14.4461 3.79709 14.4285C3.82136 14.4108 3.85058 14.4014 3.88057 14.4014C3.91056 14.4014 3.93978 14.4108 3.96405 14.4285C3.98833 14.4461 4.00641 14.4709 4.01573 14.4994L4.28916 15.3408C4.2945 15.3562 4.30214 15.3707 4.31182 15.3838C4.32508 15.401 4.34212 15.415 4.36162 15.4246C4.38113 15.4342 4.40258 15.4392 4.42432 15.4392H5.3126C5.32855 15.4393 5.34438 15.4419 5.35948 15.4471C5.38397 15.4561 5.40552 15.4716 5.42175 15.4921C5.43798 15.5125 5.44828 15.537 5.4515 15.5629C5.45473 15.5888 5.45077 15.6151 5.44005 15.6389C5.42933 15.6627 5.41226 15.6831 5.39073 15.6978Z" fill="#DBDBDB"/>
<path d="M7.15087 6.15693C7.14188 6.18541 7.14188 6.21596 7.15087 6.24443L7.42196 7.08584C7.43017 7.11409 7.42942 7.1442 7.4198 7.17201C7.41019 7.19981 7.39218 7.22395 7.36827 7.24109C7.34435 7.25824 7.31571 7.26754 7.28629 7.26772C7.25687 7.26789 7.22811 7.25894 7.20399 7.24209L6.48759 6.721C6.46324 6.70345 6.434 6.69401 6.40399 6.69401C6.37399 6.69401 6.34474 6.70345 6.3204 6.721L5.60399 7.24209C5.57987 7.25894 5.55112 7.26789 5.5217 7.26772C5.49227 7.26754 5.46363 7.25824 5.43972 7.24109C5.4158 7.22395 5.3978 7.19981 5.38818 7.17201C5.37856 7.1442 5.37781 7.11409 5.38602 7.08584L5.65946 6.24443C5.66845 6.21596 5.66845 6.18541 5.65946 6.15693C5.65425 6.133 5.64232 6.11105 5.62509 6.09365C5.98967 5.71865 6.36597 5.3585 6.75399 5.01318L6.81649 5.20615C6.82526 5.23557 6.84332 5.26136 6.86796 5.27967C6.89261 5.29797 6.92251 5.30781 6.95321 5.30772H7.83837C7.86831 5.30804 7.89739 5.31776 7.92151 5.33549C7.94564 5.35323 7.96358 5.3781 7.97282 5.40658C7.98205 5.43506 7.98211 5.46573 7.97299 5.49424C7.96386 5.52276 7.94602 5.5477 7.92196 5.56553L7.20556 6.08506C7.17992 6.10235 7.1607 6.12761 7.15087 6.15693Z" fill="#DBDBDB"/>
<path d="M3.14131 12.3093C3.13933 12.3288 3.13313 12.3476 3.12315 12.3645C3.11317 12.3813 3.09964 12.3958 3.0835 12.4069L2.36709 12.928C2.34345 12.9456 2.32581 12.97 2.31658 12.998C2.30735 13.026 2.30698 13.0561 2.31553 13.0843L2.58896 13.9265C2.5977 13.9548 2.5973 13.9852 2.58784 14.0133C2.57837 14.0414 2.56031 14.0658 2.53622 14.083C2.51212 14.1003 2.4832 14.1096 2.45355 14.1095C2.42391 14.1095 2.39503 14.1001 2.371 14.0827L1.65459 13.5632C1.63054 13.5449 1.60118 13.5351 1.571 13.5351C1.54081 13.5351 1.51145 13.5449 1.4874 13.5632L0.92334 13.9733C1.10199 13.4046 1.30511 12.8483 1.53271 12.3046C1.62959 12.0702 1.73115 11.8405 1.83818 11.6108L1.97959 12.0476C1.9888 12.0762 2.00683 12.1012 2.0311 12.1191C2.05537 12.1369 2.08464 12.1466 2.11475 12.1468H2.9999C3.02035 12.1467 3.04057 12.151 3.0592 12.1594C3.07783 12.1679 3.09442 12.1802 3.10784 12.1956C3.12126 12.211 3.1312 12.2292 3.13698 12.2488C3.14275 12.2684 3.14423 12.289 3.14131 12.3093Z" fill="#DBDBDB"/>
<path d="M2.36709 19.6383C2.34327 19.6557 2.32549 19.6801 2.31624 19.7081C2.307 19.7361 2.30675 19.7663 2.31553 19.7945L2.58896 20.6375C2.5977 20.6658 2.5973 20.6962 2.58784 20.7243C2.57837 20.7524 2.56031 20.7768 2.53622 20.7941C2.51212 20.8113 2.4832 20.8206 2.45355 20.8205C2.42391 20.8205 2.39503 20.8111 2.371 20.7937L1.65459 20.2742C1.63039 20.2563 1.60109 20.2467 1.571 20.2467C1.5409 20.2467 1.5116 20.2563 1.4874 20.2742L0.771777 20.7969C0.747764 20.8145 0.718775 20.8242 0.688954 20.8244C0.659134 20.8246 0.630009 20.8154 0.605742 20.7981C0.581475 20.7807 0.56331 20.7562 0.553842 20.7279C0.544375 20.6996 0.544089 20.6691 0.553027 20.6406L0.826465 19.7976C0.835489 19.7695 0.835359 19.7392 0.826095 19.7111C0.816831 19.6831 0.798909 19.6586 0.774902 19.6414L0.0584961 19.1172C0.0434808 19.1065 0.0307342 19.093 0.0209961 19.0773C0.0209961 19.0234 0.0256836 18.9695 0.0288086 18.9164C0.0418039 18.8987 0.0588977 18.8844 0.0786264 18.8747C0.0983551 18.8651 0.120131 18.8603 0.14209 18.8609H1.02725C1.05735 18.8607 1.08663 18.851 1.1109 18.8332C1.13516 18.8154 1.15319 18.7904 1.1624 18.7617L1.26006 18.4617L1.43584 17.9203C1.44515 17.8918 1.46324 17.867 1.48751 17.8494C1.51179 17.8317 1.54101 17.8223 1.571 17.8223C1.60098 17.8223 1.6302 17.8317 1.65448 17.8494C1.67875 17.867 1.69684 17.8918 1.70615 17.9203L1.88193 18.4617L1.97959 18.7617C1.9888 18.7904 2.00683 18.8154 2.0311 18.8332C2.05537 18.851 2.08464 18.8607 2.11475 18.8609H2.9999C3.02992 18.8607 3.05924 18.87 3.0836 18.8875C3.10797 18.9051 3.12612 18.9299 3.13543 18.9585C3.14474 18.987 3.14473 19.0178 3.13539 19.0463C3.12606 19.0748 3.10788 19.0997 3.0835 19.1172L2.36709 19.6383Z" fill="#DBDBDB"/>
<path d="M4.83521 19.004C4.83531 18.9725 4.84544 18.9419 4.86411 18.9165C4.86411 18.9696 4.85864 19.0235 4.8563 19.0774C4.8492 19.0667 4.84392 19.0548 4.84067 19.0423C4.84067 19.0353 4.84067 19.029 4.83677 19.0228C4.83583 19.0165 4.8353 19.0103 4.83521 19.004Z" fill="white"/>
<path d="M6.54136 11.2109L6.8148 12.0531C6.82434 12.082 6.84292 12.1071 6.86782 12.1247C6.89272 12.1423 6.92261 12.1514 6.95308 12.1507H7.83824C7.86822 12.1508 7.89741 12.1603 7.92165 12.1779C7.94589 12.1956 7.96394 12.2204 7.97321 12.2489C7.98248 12.2774 7.98251 12.3081 7.97328 12.3367C7.96405 12.3652 7.94604 12.3901 7.92183 12.4077L7.20542 12.9281C7.1816 12.9455 7.16382 12.9699 7.15458 12.9979C7.14533 13.0259 7.14508 13.0561 7.15386 13.0843L7.42183 13.9288C7.43056 13.9572 7.43017 13.9875 7.4207 14.0156C7.41124 14.0437 7.39318 14.0681 7.36908 14.0854C7.34498 14.1027 7.31607 14.1119 7.28642 14.1119C7.25677 14.1118 7.22789 14.1025 7.20386 14.0851L6.48746 13.5648C6.46311 13.5472 6.43387 13.5378 6.40386 13.5378C6.37386 13.5378 6.34461 13.5472 6.32027 13.5648L5.60386 14.0851C5.57983 14.1025 5.55095 14.1118 5.5213 14.1119C5.49166 14.1119 5.46274 14.1027 5.43864 14.0854C5.41454 14.0681 5.39649 14.0437 5.38702 14.0156C5.37756 13.9875 5.37716 13.9572 5.38589 13.9288L5.65933 13.0866C5.66811 13.0585 5.66786 13.0283 5.65861 13.0003C5.64937 12.9722 5.63159 12.9478 5.60777 12.9304L4.89136 12.4101C4.86715 12.3924 4.84914 12.3675 4.83991 12.339C4.83068 12.3105 4.83071 12.2798 4.83998 12.2513C4.84925 12.2228 4.8673 12.1979 4.89154 12.1803C4.91578 12.1626 4.94498 12.1531 4.97496 12.1531H5.85933C5.88927 12.1531 5.91846 12.1437 5.94273 12.1261C5.967 12.1086 5.98511 12.0838 5.99449 12.0554L6.26792 11.2132C6.27615 11.1834 6.29386 11.1571 6.31837 11.1383C6.34288 11.1195 6.37286 11.1092 6.40376 11.1089C6.43466 11.1086 6.46481 11.1184 6.48964 11.1368C6.51446 11.1552 6.53262 11.1812 6.54136 11.2109Z" fill="white"/>
<path d="M6.6734 11.6155C6.56637 11.8444 6.46481 12.0741 6.36793 12.3085C6.14033 12.8527 5.9372 13.4087 5.75856 13.9764L5.60621 14.0858C5.58219 14.1032 5.55331 14.1126 5.52366 14.1126C5.49401 14.1127 5.46509 14.1034 5.441 14.0861C5.4169 14.0689 5.39884 14.0445 5.38937 14.0164C5.37991 13.9883 5.37951 13.9579 5.38825 13.9296L5.66168 13.0874C5.67046 13.0592 5.67021 13.029 5.66097 13.001C5.65172 12.973 5.63394 12.9485 5.61012 12.9311L4.89371 12.41C4.87757 12.3989 4.86404 12.3844 4.85406 12.3676C4.84408 12.3507 4.83788 12.3319 4.8359 12.3124C4.83394 12.2926 4.83613 12.2727 4.84235 12.2538C4.84856 12.235 4.85865 12.2176 4.87197 12.2029C4.88529 12.1882 4.90154 12.1764 4.91969 12.1684C4.93783 12.1603 4.95746 12.1561 4.97731 12.1561H5.85934C5.88945 12.1559 5.91872 12.1462 5.94299 12.1284C5.96726 12.1106 5.98528 12.0856 5.9945 12.0569L6.26793 11.2147C6.27725 11.1862 6.29533 11.1614 6.31961 11.1438C6.34388 11.1262 6.3731 11.1167 6.40309 11.1167C6.43308 11.1167 6.4623 11.1262 6.48657 11.1438C6.51085 11.1614 6.52893 11.1862 6.53825 11.2147L6.6734 11.6155Z" fill="#DBDBDB"/>
<path d="M9.0671 7.82947L9.34053 8.67166C9.34991 8.7001 9.36803 8.72485 9.39229 8.74238C9.41656 8.75992 9.44575 8.76934 9.47569 8.76932H10.3608C10.3908 8.76937 10.42 8.77889 10.4443 8.79653C10.4685 8.81417 10.4865 8.83902 10.4958 8.86753C10.5051 8.89604 10.5051 8.92675 10.4959 8.95527C10.4867 8.9838 10.4687 9.00867 10.4444 9.02635L9.72803 9.54666C9.70439 9.56422 9.68675 9.58866 9.67752 9.61663C9.66829 9.64459 9.66793 9.67473 9.67647 9.70291L9.95069 10.5467C9.95909 10.575 9.95844 10.6053 9.94881 10.6333C9.93919 10.6613 9.92108 10.6856 9.897 10.7027C9.87293 10.7199 9.84409 10.7292 9.8145 10.7292C9.78491 10.7293 9.75605 10.7201 9.73194 10.7029L9.01553 10.1826C8.99131 10.1651 8.9622 10.1557 8.93233 10.1557C8.90246 10.1557 8.87335 10.1651 8.84913 10.1826L8.13272 10.7029C8.10861 10.7201 8.07975 10.7293 8.05016 10.7292C8.02058 10.7292 7.99173 10.7199 7.96766 10.7027C7.94358 10.6856 7.92547 10.6613 7.91585 10.6333C7.90622 10.6053 7.90557 10.575 7.91397 10.5467L8.18741 9.70447C8.19631 9.67631 8.19612 9.64607 8.18686 9.61802C8.17761 9.58997 8.15976 9.56555 8.13585 9.54822L7.42178 9.02635C7.3979 9.00896 7.38003 8.98457 7.37064 8.95656C7.36126 8.92855 7.36084 8.89831 7.36943 8.87005C7.37802 8.84178 7.3952 8.8169 7.41858 8.79884C7.44197 8.78079 7.47039 8.77047 7.49991 8.76932H8.38506C8.41556 8.77014 8.44551 8.76107 8.47043 8.74347C8.49536 8.72587 8.51392 8.70068 8.52335 8.67166L8.79678 7.82947C8.8061 7.80097 8.82418 7.77614 8.84846 7.75853C8.87273 7.74093 8.90195 7.73145 8.93194 7.73145C8.96193 7.73145 8.99115 7.74093 9.01542 7.75853C9.0397 7.77614 9.05778 7.80097 9.0671 7.82947Z" fill="white"/>
<path d="M7.49993 8.76953H8.28118C8.17649 8.92578 8.07493 9.07734 7.97493 9.23281L7.88899 9.36953L7.69993 9.23281L7.4218 9.02734C7.39806 9.00981 7.38033 8.98536 7.37104 8.95734C7.36175 8.92933 7.36135 8.89912 7.36991 8.87088C7.37847 8.84263 7.39557 8.81772 7.41884 8.79958C7.44212 8.78143 7.47045 8.77094 7.49993 8.76953Z" fill="#DBDBDB"/>
<path d="M11.5939 4.3679L11.8673 5.21009C11.8766 5.23859 11.8946 5.26341 11.9189 5.28096C11.9432 5.29851 11.9725 5.30789 12.0024 5.30775H12.8907C12.9202 5.3089 12.9487 5.31922 12.9721 5.33727C12.9954 5.35533 13.0126 5.38021 13.0212 5.40848C13.0298 5.43674 13.0294 5.46698 13.02 5.49499C13.0106 5.523 12.9927 5.54739 12.9689 5.56478L12.2524 6.08509C12.2285 6.10242 12.2107 6.12684 12.2014 6.15489C12.1922 6.18293 12.192 6.21318 12.2009 6.24134L12.4743 7.08353C12.4827 7.1119 12.4821 7.14218 12.4724 7.17016C12.4628 7.19814 12.4447 7.22242 12.4206 7.23962C12.3966 7.25682 12.3677 7.26607 12.3381 7.2661C12.3085 7.26613 12.2797 7.25693 12.2556 7.23978L11.5399 6.71947C11.5156 6.70192 11.4864 6.69248 11.4564 6.69248C11.4263 6.69248 11.3971 6.70192 11.3728 6.71947L10.6564 7.23978C10.6322 7.25693 10.6034 7.26613 10.5738 7.2661C10.5442 7.26607 10.5154 7.25682 10.4913 7.23962C10.4672 7.22242 10.4491 7.19814 10.4395 7.17016C10.4299 7.14218 10.4292 7.1119 10.4376 7.08353L10.7118 6.24134C10.7204 6.21316 10.72 6.18302 10.7108 6.15506C10.7015 6.12709 10.6839 6.10265 10.6603 6.08509L9.94385 5.56478C9.91964 5.5471 9.90163 5.52223 9.8924 5.4937C9.88317 5.46518 9.8832 5.43447 9.89247 5.40596C9.90174 5.37745 9.91979 5.3526 9.94403 5.33496C9.96827 5.31732 9.99747 5.3078 10.0274 5.30775H10.9126C10.9425 5.30777 10.9717 5.29835 10.996 5.28081C11.0203 5.26328 11.0384 5.23853 11.0478 5.21009L11.3212 4.3679C11.3299 4.33851 11.3479 4.31271 11.3725 4.29437C11.397 4.27602 11.4269 4.26611 11.4575 4.26611C11.4882 4.26611 11.518 4.27602 11.5426 4.29437C11.5672 4.31271 11.5851 4.33851 11.5939 4.3679Z" fill="white"/>
<path d="M11.7571 4.86932C11.7001 4.91697 11.6438 4.96619 11.5876 5.01619C11.2298 5.3326 10.8844 5.66307 10.5501 6.00369L9.94616 5.56541C9.92161 5.54784 9.90329 5.52292 9.89385 5.49425C9.88441 5.46557 9.88434 5.43464 9.89365 5.40593C9.90296 5.37721 9.92117 5.35221 9.94564 5.33453C9.97011 5.31685 9.99956 5.30742 10.0298 5.3076H10.9149C10.9449 5.30745 10.9741 5.29786 10.9984 5.2802C11.0226 5.26253 11.0407 5.23768 11.0501 5.20916L11.3235 4.36854C11.3328 4.34003 11.3509 4.3152 11.3752 4.29759C11.3994 4.27999 11.4287 4.27051 11.4587 4.27051C11.4886 4.27051 11.5179 4.27999 11.5421 4.29759C11.5664 4.3152 11.5845 4.34003 11.5938 4.36854L11.7571 4.86932Z" fill="#DBDBDB"/>
<path d="M14.1195 1.28118L14.3929 2.12259C14.4023 2.15168 14.4209 2.17697 14.4458 2.1947C14.4707 2.21243 14.5006 2.22166 14.5312 2.22102H15.4164C15.4463 2.22107 15.4755 2.2306 15.4998 2.24824C15.524 2.26588 15.5421 2.29072 15.5513 2.31923C15.5606 2.34774 15.5606 2.37845 15.5514 2.40698C15.5422 2.4355 15.5242 2.46038 15.5 2.47805L14.7835 2.99837C14.7597 3.01578 14.7419 3.0402 14.7327 3.06822C14.7235 3.09624 14.7232 3.12645 14.732 3.15462L15 3.99915C15.0087 4.02748 15.0083 4.05784 14.9988 4.08594C14.9894 4.11404 14.9713 4.13845 14.9472 4.15572C14.9231 4.17299 14.8942 4.18226 14.8645 4.1822C14.8349 4.18214 14.806 4.17277 14.782 4.1554L14.0656 3.63509C14.0412 3.61754 14.012 3.6081 13.982 3.6081C13.952 3.6081 13.9227 3.61754 13.8984 3.63509L13.182 4.1554C13.158 4.17277 13.1291 4.18214 13.0994 4.1822C13.0698 4.18226 13.0409 4.17299 13.0168 4.15572C12.9927 4.13845 12.9746 4.11404 12.9651 4.08594C12.9557 4.05784 12.9553 4.02748 12.964 3.99915L13.2375 3.15696C13.2462 3.12879 13.246 3.09858 13.2367 3.07056C13.2275 3.04254 13.2097 3.01812 13.1859 3.00071L12.4695 2.4804C12.4453 2.46272 12.4273 2.43785 12.418 2.40932C12.4088 2.3808 12.4088 2.35009 12.4181 2.32158C12.4274 2.29307 12.4454 2.26822 12.4697 2.25058C12.4939 2.23294 12.5231 2.22342 12.5531 2.22337H13.4375C13.4675 2.22334 13.4968 2.2138 13.521 2.19611C13.5453 2.17843 13.5634 2.15351 13.5726 2.12493L13.846 1.28352C13.8543 1.25374 13.872 1.22744 13.8965 1.20862C13.921 1.18979 13.951 1.17947 13.9819 1.1792C14.0128 1.17894 14.0429 1.18875 14.0678 1.20715C14.0926 1.22555 14.1107 1.25154 14.1195 1.28118Z" fill="white"/>
<path d="M15.5351 2.29061C15.4679 2.32498 15.4015 2.3617 15.3351 2.39686C14.9372 2.61196 14.5481 2.83982 14.1679 3.08045C13.771 3.32941 13.3843 3.59295 13.0077 3.87107L13.2421 3.15779C13.2492 3.13224 13.2492 3.10522 13.2421 3.07967C13.2344 3.04639 13.215 3.017 13.1874 2.99686L12.471 2.47654C12.4466 2.45903 12.4285 2.43421 12.4191 2.40568C12.4098 2.37714 12.4098 2.34638 12.4191 2.31784C12.4284 2.2893 12.4465 2.26446 12.4709 2.24693C12.4953 2.22939 12.5246 2.22006 12.5546 2.22029H13.4374C13.4674 2.22044 13.4966 2.21106 13.5209 2.19351C13.5452 2.17595 13.5633 2.15114 13.5726 2.12264L13.846 1.27967C13.8553 1.25116 13.8734 1.22633 13.8977 1.20873C13.922 1.19112 13.9512 1.18164 13.9812 1.18164C14.0112 1.18164 14.0404 1.19112 14.0647 1.20873C14.0889 1.22633 14.107 1.25116 14.1163 1.27967L14.3898 2.12264C14.3992 2.15233 14.4182 2.17808 14.4437 2.19588C14.4693 2.21368 14.5001 2.22254 14.5312 2.22107H15.4163C15.4405 2.22129 15.4641 2.22782 15.485 2.24002C15.5058 2.25222 15.5231 2.26966 15.5351 2.29061Z" fill="#DBDBDB"/>
<path d="M37.6024 21.2649C38.3049 21.2649 38.8743 20.6955 38.8743 19.9931C38.8743 19.2906 38.3049 18.7212 37.6024 18.7212C36.9 18.7212 36.3306 19.2906 36.3306 19.9931C36.3306 20.6955 36.9 21.2649 37.6024 21.2649Z" fill="#E54141"/>
<path d="M34.953 20.8938C35.4505 20.8938 35.8538 20.4906 35.8538 19.9931C35.8538 19.4956 35.4505 19.0923 34.953 19.0923C34.4555 19.0923 34.0522 19.4956 34.0522 19.9931C34.0522 20.4906 34.4555 20.8938 34.953 20.8938Z" fill="#E54141"/>
</g>
<defs>
<clipPath id="clip0_16011_66953">
<rect width="40" height="40" fill="white"/>
</clipPath>
</defs>
</svg>
