<svg width="18" height="28" viewBox="0 0 18 28" fill="none" xmlns="http://www.w3.org/2000/svg">
<path opacity="0.2" d="M17 25V3C17 1.89543 16.1046 1 15 1L3 1C1.89543 1 1 1.89543 1 3L1 25C1 26.1046 1.89543 27 3 27H15C16.1046 27 17 26.1046 17 25Z" fill="black"/>
<path d="M15 0H3C2.20536 0.00329046 1.44421 0.320417 0.882315 0.882315C0.320418 1.44421 0.00329046 2.20536 0 3V25C0.00329046 25.7946 0.320418 26.5558 0.882315 27.1177C1.44421 27.6796 2.20536 27.9967 3 28H15C15.7946 27.9967 16.5558 27.6796 17.1177 27.1177C17.6796 26.5558 17.9967 25.7946 18 25V3C17.9967 2.20536 17.6796 1.44421 17.1177 0.882315C16.5558 0.320417 15.7946 0.00329046 15 0V0ZM16 25C16 25.2652 15.8946 25.5196 15.7071 25.7071C15.5196 25.8946 15.2652 26 15 26H3C2.73478 26 2.48043 25.8946 2.29289 25.7071C2.10536 25.5196 2 25.2652 2 25V3C2 2.73478 2.10536 2.48043 2.29289 2.29289C2.48043 2.10536 2.73478 2 3 2H15C15.2652 2 15.5196 2.10536 15.7071 2.29289C15.8946 2.48043 16 2.73478 16 3V25Z" fill="black"/>
<path d="M13 4H5C4.73478 4 4.48043 4.10536 4.29289 4.29289C4.10536 4.48043 4 4.73478 4 5C4 5.26522 4.10536 5.51957 4.29289 5.70711C4.48043 5.89464 4.73478 6 5 6H13C13.2652 6 13.5196 5.89464 13.7071 5.70711C13.8946 5.51957 14 5.26522 14 5C14 4.73478 13.8946 4.48043 13.7071 4.29289C13.5196 4.10536 13.2652 4 13 4Z" fill="black"/>
</svg>
