<svg width="66" height="82" viewBox="0 0 66 82" fill="none" xmlns="http://www.w3.org/2000/svg">
<path d="M57.2788 70.8633C55.0661 70.2876 53.1209 68.961 51.7745 67.1095C51.494 66.7275 51.3076 66.7361 50.9671 66.9829C50.4338 67.3756 49.8684 67.7276 49.318 68.0968C49.332 68.1848 49.3572 68.2706 49.3929 68.3522C51.7381 71.7283 55.0857 73.3723 59.0458 73.9582C59.2749 73.9904 59.4056 73.9089 59.4334 73.6771C59.5234 72.9216 59.8018 72.194 59.8211 71.4106C58.9408 71.2239 58.097 71.0887 57.2788 70.8633ZM57.2788 70.8633C55.0661 70.2876 53.1209 68.961 51.7745 67.1095C51.494 66.7275 51.3076 66.7361 50.9671 66.9829C50.4338 67.3756 49.8684 67.7276 49.318 68.0968C49.332 68.1848 49.3572 68.2706 49.3929 68.3522C51.7381 71.7283 55.0857 73.3723 59.0458 73.9582C59.2749 73.9904 59.4056 73.9089 59.4334 73.6771C59.5234 72.9216 59.8018 72.194 59.8211 71.4106C58.9408 71.2239 58.097 71.0887 57.2788 70.8633ZM11.9145 71.3655C11.5997 71.0844 11.3534 70.7217 10.985 70.507C9.63785 71.6703 8.97177 71.666 7.57964 70.507L5.78271 72.312C7.54323 74.7116 11.3127 74.4905 12.8612 72.2133L11.9145 71.3655ZM57.2788 70.8633C55.0661 70.2876 53.1209 68.961 51.7745 67.1095C51.494 66.7275 51.3076 66.7361 50.9671 66.9829C50.4338 67.3756 49.8684 67.7276 49.318 68.0968C49.332 68.1848 49.3572 68.2706 49.3929 68.3522C51.7381 71.7283 55.0857 73.3723 59.0458 73.9582C59.2749 73.9904 59.4056 73.9089 59.4334 73.6771C59.5234 72.9216 59.8018 72.194 59.8211 71.4106C58.9408 71.2239 58.097 71.0887 57.2788 70.8633ZM11.9145 71.3655C11.5997 71.0844 11.3534 70.7217 10.985 70.507C9.63785 71.6703 8.97177 71.666 7.57964 70.507L5.78271 72.312C7.54323 74.7116 11.3127 74.4905 12.8612 72.2133L11.9145 71.3655ZM57.2788 70.8633C55.0661 70.2876 53.1209 68.961 51.7745 67.1095C51.494 66.7275 51.3076 66.7361 50.9671 66.9829C50.4338 67.3756 49.8684 67.7276 49.318 68.0968C49.332 68.1848 49.3572 68.2706 49.3929 68.3522C51.7381 71.7283 55.0857 73.3723 59.0458 73.9582C59.2749 73.9904 59.4056 73.9089 59.4334 73.6771C59.5234 72.9216 59.8018 72.194 59.8211 71.4106C58.9408 71.2239 58.097 71.0887 57.2788 70.8633ZM11.9145 71.3655C11.5997 71.0844 11.3534 70.7217 10.985 70.507C9.63785 71.6703 8.97177 71.666 7.57964 70.507L5.78271 72.312C7.54323 74.7116 11.3127 74.4905 12.8612 72.2133L11.9145 71.3655ZM57.2788 70.8633C55.0661 70.2876 53.1209 68.961 51.7745 67.1095C51.494 66.7275 51.3076 66.7361 50.9671 66.9829C50.4338 67.3756 49.8684 67.7276 49.318 68.0968C49.332 68.1848 49.3572 68.2706 49.3929 68.3522C51.7381 71.7283 55.0857 73.3723 59.0458 73.9582C59.2749 73.9904 59.4056 73.9089 59.4334 73.6771C59.5234 72.9216 59.8018 72.194 59.8211 71.4106C58.9408 71.2239 58.097 71.0887 57.2788 70.8633ZM11.9145 71.3655C11.5997 71.0844 11.3534 70.7217 10.985 70.507C9.63785 71.6703 8.97177 71.666 7.57964 70.507L5.78271 72.312C7.54323 74.7116 11.3127 74.4905 12.8612 72.2133L11.9145 71.3655ZM57.2788 70.8633C55.0661 70.2876 53.1209 68.961 51.7745 67.1095C51.494 66.7275 51.3076 66.7361 50.9671 66.9829C50.4338 67.3756 49.8684 67.7276 49.318 68.0968C49.332 68.1848 49.3572 68.2706 49.3929 68.3522C51.7381 71.7283 55.0857 73.3723 59.0458 73.9582C59.2749 73.9904 59.4056 73.9089 59.4334 73.6771C59.5234 72.9216 59.8018 72.194 59.8211 71.4106C58.9408 71.2239 58.097 71.0887 57.2788 70.8633ZM11.9145 71.3655C11.5997 71.0844 11.3534 70.7217 10.985 70.507C9.63785 71.6703 8.97177 71.666 7.57964 70.507L5.78271 72.312C7.54323 74.7116 11.3127 74.4905 12.8612 72.2133L11.9145 71.3655ZM57.2788 70.8633C55.0661 70.2876 53.1209 68.961 51.7745 67.1095C51.494 66.7275 51.3076 66.7361 50.9671 66.9829C50.4338 67.3756 49.8684 67.7276 49.318 68.0968C49.332 68.1848 49.3572 68.2706 49.3929 68.3522C51.7381 71.7283 55.0857 73.3723 59.0458 73.9582C59.2749 73.9904 59.4056 73.9089 59.4334 73.6771C59.5234 72.9216 59.8018 72.194 59.8211 71.4106C58.9408 71.2239 58.097 71.0887 57.2788 70.8633ZM11.9145 71.3655C11.5997 71.0844 11.3534 70.7217 10.985 70.507C9.63785 71.6703 8.97177 71.666 7.57964 70.507L5.78271 72.312C7.54323 74.7116 11.3127 74.4905 12.8612 72.2133L11.9145 71.3655ZM57.2788 70.8633C55.0661 70.2876 53.1209 68.961 51.7745 67.1095C51.494 66.7275 51.3076 66.7361 50.9671 66.9829C50.4338 67.3756 49.8684 67.7276 49.318 68.0968C49.332 68.1848 49.3572 68.2706 49.3929 68.3522C51.7381 71.7283 55.0857 73.3723 59.0458 73.9582C59.2749 73.9904 59.4056 73.9089 59.4334 73.6771C59.5234 72.9216 59.8018 72.194 59.8211 71.4106C58.9408 71.2239 58.097 71.0887 57.2788 70.8633ZM11.9145 71.3655C11.5997 71.0844 11.3534 70.7217 10.985 70.507C9.63785 71.6703 8.97177 71.666 7.57964 70.507L5.78271 72.312C7.54323 74.7116 11.3127 74.4905 12.8612 72.2133L11.9145 71.3655ZM57.2788 70.8633C55.0661 70.2876 53.1209 68.961 51.7745 67.1095C51.494 66.7275 51.3076 66.7361 50.9671 66.9829C50.4338 67.3756 49.8684 67.7276 49.318 68.0968C49.332 68.1848 49.3572 68.2706 49.3929 68.3522C51.7381 71.7283 55.0857 73.3723 59.0458 73.9582C59.2749 73.9904 59.4056 73.9089 59.4334 73.6771C59.5234 72.9216 59.8018 72.194 59.8211 71.4106C58.9408 71.2239 58.097 71.0887 57.2788 70.8633ZM11.9145 71.3655C11.5997 71.0844 11.3534 70.7217 10.985 70.507C9.63785 71.6703 8.97177 71.666 7.57964 70.507L5.78271 72.312C7.54323 74.7116 11.3127 74.4905 12.8612 72.2133L11.9145 71.3655ZM57.2788 70.8633C55.0661 70.2876 53.1209 68.961 51.7745 67.1095C51.494 66.7275 51.3076 66.7361 50.9671 66.9829C50.4338 67.3756 49.8684 67.7276 49.318 68.0968C49.332 68.1848 49.3572 68.2706 49.3929 68.3522C51.7381 71.7283 55.0857 73.3723 59.0458 73.9582C59.2749 73.9904 59.4056 73.9089 59.4334 73.6771C59.5234 72.9216 59.8018 72.194 59.8211 71.4106C58.9408 71.2239 58.097 71.0887 57.2788 70.8633ZM65.803 71.4407C65.0919 68.6634 63.3228 66.6309 61.1318 64.9074C59.7204 63.7983 58.1499 62.909 56.4735 62.2697C55.6361 61.9478 55.3641 61.4563 55.3684 60.5827C55.3941 53.1395 55.3684 45.6963 55.3919 38.2616C55.4125 37.2687 55.1819 36.2867 54.7216 35.4071C53.1817 32.4989 51.5475 29.6423 49.9498 26.7663C49.5621 26.0687 49.2837 25.4463 49.8255 24.7016C50.0611 24.3753 50.0847 23.9461 50.0868 23.5404C50.0868 22.7377 50.104 21.9329 50.0868 21.1302C50.0483 19.5291 49.1166 18.6083 47.5167 18.6062C42.0125 18.5976 36.5082 18.5976 31.0039 18.6062C30.7105 18.6062 30.4149 18.6062 30.1215 18.6062C29.1149 18.5869 28.9264 18.4495 28.7037 17.4558C28.1468 14.9747 27.585 12.4951 27.0181 10.0169C26.4934 7.72036 26.0136 5.41313 25.4332 3.12951C24.7907 0.614092 22.6704 -0.53845 20.2074 0.264252C19.7512 0.412344 19.2907 0.558289 18.8409 0.725697C16.9069 1.42752 15.9089 3.1059 16.1959 5.15129C16.4486 6.93053 16.9776 8.65183 17.376 10.3989C17.8943 12.6632 18.4618 14.9168 18.9823 17.1854C19.2436 18.3186 19.1965 18.4023 18.0785 18.6341C17.1232 18.8337 16.455 19.396 16.2601 20.3511C15.9346 21.9415 15.8446 23.5447 16.6221 25.0557C16.9005 25.5987 16.6842 26.0451 16.4422 26.4937C15.2664 28.655 14.0584 30.8012 12.8676 32.9539C12.4907 33.6322 12.1437 34.3275 11.7325 34.9864C10.9486 36.2399 10.7751 37.6392 10.773 39.0643C10.773 47.5249 10.773 55.9847 10.773 64.4439C10.773 66.3132 10.773 66.2896 8.93536 66.3283C6.62228 66.3776 4.42485 66.8734 2.52083 68.2771C-0.856697 70.7689 -0.837421 74.7352 2.57009 77.1991C4.22352 78.3924 6.10611 78.9161 8.1215 79.0384C8.41528 79.0588 8.71011 79.0588 9.0039 79.0384C10.3789 78.9247 11.6275 79.0127 12.4992 80.3648C12.8997 80.9872 13.6665 81.2748 14.3861 81.5216C14.6367 81.6096 15.0029 81.5903 15.0286 82.0003H51.1192C51.1341 81.6161 51.4683 81.6418 51.7017 81.571C52.8264 81.2722 53.8017 80.5685 54.441 79.5943C54.8886 78.9333 55.3984 78.8002 56.1415 78.9139C58.1441 79.2144 60.1252 79.1629 62.0635 78.4482C64.9977 77.3772 66.5783 74.4755 65.803 71.4407ZM53.0125 40.0323C52.9996 41.1827 53.0125 42.3331 53.0125 43.4856V60.0118C53.0018 60.1726 53.0018 60.3339 53.0125 60.4947C53.0681 60.924 52.8583 61.0034 52.4963 60.924C51.7845 60.8046 51.0634 60.7493 50.3417 60.7587C49.5403 60.7454 48.7401 60.8275 47.9579 61.0034C47.6538 61.0742 47.5446 61.0034 47.4311 60.7287C46.6879 58.855 45.2444 58.0673 43.2868 58.0781C41.205 58.0909 39.1211 58.0781 37.0372 58.0781C36.1805 58.0781 36.1805 58.078 35.9021 57.3183C35.418 56.0198 34.8976 54.732 34.4628 53.4164C34.2486 52.7596 33.9124 52.2853 33.2634 52.0471C33.1092 51.7766 33.1499 51.4783 33.1499 51.1886C33.1499 47.3124 33.1499 43.4377 33.1499 39.5644C35.78 39.5043 38.4079 39.5108 41.038 39.5644C41.038 39.9937 41.038 40.4229 41.038 40.8522C41.038 43.4277 41.038 45.9903 41.038 48.5615C41.038 50.1412 42.0467 51.1607 43.2397 51.4225C43.6136 51.4961 43.999 51.4861 44.3686 51.3932C44.7382 51.3003 45.0828 51.1269 45.3778 50.8852C45.6727 50.6435 45.9109 50.3395 46.0751 49.995C46.2394 49.6505 46.3258 49.2739 46.3281 48.8921C46.3495 45.7886 46.3281 42.6829 46.3388 39.5773C48.4206 39.4829 50.5023 39.5773 52.5841 39.5301C52.9568 39.5387 53.0167 39.7061 53.0125 40.0323ZM42.8542 69.5841C43.2623 70.6884 43.8452 71.7197 44.5804 72.6383C45.0088 73.2006 44.8974 73.6492 44.2377 73.926C43.9588 74.0202 43.664 74.0581 43.3703 74.0376C40.0863 74.0376 36.8023 74.0376 33.5183 74.0376C32.2568 74.0376 31.8242 73.6084 31.8178 72.3614C31.8178 70.4899 31.8327 68.614 31.8049 66.7425C31.8049 66.2875 31.9291 66.0621 32.3682 65.9484C32.91 65.811 33.4391 65.6157 33.9659 65.4376C36.0905 64.7143 37.1893 63.1024 37.0822 60.7888C39.3674 60.7888 41.5798 60.7888 43.7965 60.7888C44.0394 60.7882 44.2768 60.861 44.4778 60.9977C44.6788 61.1344 44.834 61.3286 44.9231 61.555C45.0923 61.9091 45.0859 62.1817 44.7261 62.45C42.4237 64.1606 41.9139 66.9163 42.8542 69.5841ZM19.4599 36.8279C20.0177 35.7934 20.9308 34.9966 22.03 34.5851C22.6766 34.3242 23.3733 34.212 24.0689 34.2567C24.2268 34.2738 24.3861 34.2418 24.5252 34.165C24.6643 34.0882 24.7765 33.9704 24.8464 33.8275C25.1955 33.2587 25.5681 32.7028 25.9537 32.1577C27.5578 29.8869 30.4513 29.595 32.5053 31.4902C32.568 31.5399 32.6255 31.596 32.6766 31.6576C33.4176 32.7436 34.4414 32.9861 35.7157 32.9239C37.9496 32.8123 39.905 33.6128 41.4984 35.2075C41.6288 35.3362 41.7857 35.4348 41.9581 35.4964C42.1305 35.5579 42.3143 35.5809 42.4965 35.5638C43.7815 35.5638 44.9295 35.9759 46.1011 36.8236L19.4599 36.8279ZM23.6213 26.2555C25.1012 26.2555 26.4548 26.2555 27.8084 26.2555C28.0997 26.2555 28.256 26.3499 28.3096 26.6311C28.3567 26.8671 28.4145 27.0989 28.4702 27.3307C28.5259 27.5625 28.5259 27.6698 28.256 27.7235C26.8349 27.9915 25.5316 28.6941 24.5251 29.7345C24.1225 28.5777 23.9661 27.4552 23.6213 26.2555ZM27.8534 52.8691C27.8562 53.2964 27.9632 53.7166 28.1651 54.0931C28.3669 54.4695 28.6575 54.7909 29.0116 55.0291C29.3657 55.2673 29.7725 55.4152 30.1966 55.46C30.6207 55.5047 31.0493 55.4449 31.4451 55.2858C31.6914 55.1892 31.9291 55.0711 32.1711 54.9681C32.8843 56.8654 33.6125 58.7584 34.3129 60.6643C34.6791 61.6709 34.3129 62.5122 33.3041 62.8492C30.1743 63.9123 27.0388 64.9547 23.8976 65.9763C22.8824 66.3068 22.0942 65.9183 21.713 64.916C20.6964 62.2504 19.6969 59.5769 18.7146 56.8955C18.344 55.8867 18.7146 55.0518 19.719 54.7106C22.2891 53.8285 24.8721 52.9807 27.4507 52.1351C27.5809 52.105 27.7135 52.0871 27.847 52.0814C27.8427 52.3368 27.8427 52.6029 27.8534 52.8691ZM52.4042 36.1712C52.5156 36.3751 52.6955 36.5575 52.6719 36.8687C51.7917 36.8687 50.9136 36.8537 50.0354 36.8687C49.697 36.8794 49.5771 36.6541 49.4208 36.4395C48.0672 34.628 46.2831 33.4647 44.0664 33.0741C43.3148 32.9453 42.6047 32.6384 41.9953 32.1791C40.1932 30.8571 37.9991 30.1819 35.7671 30.2625C35.5193 30.2834 35.2701 30.2446 35.0402 30.1494C34.8104 30.0542 34.6065 29.9053 34.4457 29.7152C33.7669 28.9524 32.893 28.3898 31.9184 28.0884C31.3958 27.9274 31.1752 27.6591 31.1195 27.1547C31.0874 26.8693 31.0146 26.5903 30.9611 26.3113C31.2027 26.244 31.4551 26.2243 31.7042 26.2533C36.5382 26.2533 41.3699 26.2533 46.2039 26.2383C46.4215 26.2128 46.6416 26.2587 46.8311 26.3689C47.0207 26.4792 47.1695 26.6479 47.2555 26.85C48.9581 29.9706 50.6887 33.0655 52.4042 36.1712ZM25.8466 15.8268C26.0029 16.6316 26.2042 17.43 26.4056 18.3164C24.9063 18.3164 23.4799 18.3164 22.0493 18.3164C21.9553 18.3224 21.8627 18.2915 21.7911 18.2302C21.7195 18.1689 21.6746 18.082 21.6659 17.9881C21.4217 16.9579 21.184 15.9277 20.9313 14.8502C21.6316 14.7794 22.2506 14.9876 22.8803 15.0327C23.677 15.0863 24.463 15.2473 25.2576 15.3203C25.6024 15.3589 25.7802 15.4684 25.8509 15.8268H25.8466ZM24.3474 9.17338C24.5615 10.2959 24.8378 11.4055 25.0991 12.5516C24.4844 12.6696 23.919 12.4657 23.345 12.4121C22.4433 12.3305 21.5481 12.1975 20.6486 12.0923C20.4558 12.0708 20.2566 12.0537 20.2052 11.8326C19.9182 10.577 19.6205 9.31503 19.3035 7.95859C20.837 8.14961 22.2077 8.33419 23.587 8.48228C24.0389 8.53164 24.2638 8.69047 24.3538 9.17767L24.3474 9.17338ZM19.0808 5.26074C18.6525 5.21353 18.5604 5.0268 18.5561 4.64477C18.5432 3.78626 18.8516 3.26687 19.6269 2.97712C20.1003 2.80113 20.58 2.63587 21.0641 2.49851C22.0792 2.21091 22.7946 2.62084 23.0602 3.64246C23.2379 4.33356 23.3836 5.03109 23.5678 5.82521C21.9829 5.62132 20.535 5.42171 19.0808 5.26074ZM18.6525 20.9993C19.3143 20.8941 19.9782 20.9585 20.6421 20.9563C24.81 20.9563 28.9778 20.9563 33.1456 20.9563H46.9299C47.7738 20.9563 47.7116 20.8726 47.7116 21.7247C47.7116 22.2334 47.7116 22.742 47.7116 23.2507C47.7116 23.5168 47.6131 23.6499 47.3368 23.6349C47.1484 23.6349 46.962 23.6349 46.7757 23.6349H19.4449C19.3123 23.6263 19.1792 23.6263 19.0465 23.6349C18.646 23.695 18.5239 23.5125 18.5582 23.1348C18.6203 22.4244 18.4576 21.7054 18.6503 20.9993H18.6525ZM13.8057 36.2506C15.5476 33.1027 17.2939 29.9549 19.0444 26.807C19.1558 26.6053 19.1986 26.2941 19.4727 26.2748C19.9245 26.2472 20.3776 26.253 20.8285 26.2919C20.9762 26.2919 20.9613 26.5066 20.9912 26.6225C21.366 28.2064 21.7301 29.7903 22.1264 31.37C22.2099 31.7005 22.0921 31.7799 21.8137 31.8593C20.6878 32.1582 19.645 32.7112 18.7652 33.476C17.8854 34.2409 17.1919 35.1973 16.7377 36.2721C16.5236 36.7228 16.2901 36.9159 15.7825 36.8837C15.0672 36.8365 14.3454 36.8709 13.6129 36.8709C13.6024 36.7598 13.6141 36.6478 13.6472 36.5413C13.6802 36.4348 13.7341 36.336 13.8057 36.2506ZM12.3536 76.1925C11.3118 76.5359 10.2205 76.7041 9.12383 76.6904C7.62529 76.6962 6.14485 76.3624 4.79322 75.7139C4.2364 75.4439 3.72944 75.081 3.294 74.6407C2.10105 73.4109 2.09677 71.9558 3.309 70.7431C4.16569 69.8846 5.21943 69.3974 6.37383 69.0948C8.75117 68.4745 11.075 68.5926 13.3324 69.6056C14.0204 69.9005 14.6375 70.3396 15.1421 70.8934C16.1273 71.9987 16.1488 73.3143 15.1807 74.4433C14.4289 75.334 13.4309 75.8491 12.3536 76.1925ZM50.8771 79.2681C50.5607 79.3189 50.2401 79.3397 49.9198 79.3303C38.7256 79.3303 27.5307 79.3303 16.3351 79.3303C15.4613 79.3303 14.6538 79.2123 14.0263 78.5104C14.1891 78.2422 14.4546 78.2228 14.6517 78.1155C15.7761 77.5253 16.7934 76.7934 17.5345 75.7546C18.9437 73.793 18.8988 71.4213 17.4188 69.5069C16.4743 68.2857 15.2278 67.483 13.8121 66.9314C13.403 66.7726 13.251 66.6008 13.2531 66.1373C13.2703 57.4921 13.2745 48.8463 13.266 40.1997C13.266 39.4914 13.2039 39.5365 13.9085 39.543C15.0308 39.5537 16.1509 39.5687 17.271 39.5816C17.271 41.8309 17.271 44.0887 17.2839 46.3273C17.2967 47.7739 18.6075 48.9414 20.2095 48.774C21.7237 48.6152 22.5783 47.2201 22.5654 46.001C22.5654 43.8548 22.5654 41.7085 22.5654 39.5751C24.3302 39.5236 26.0929 39.515 27.8577 39.5751C27.8577 42.7902 27.8577 46.0061 27.8577 49.2226C25.5046 49.9938 23.1523 50.7657 20.8006 51.5384C20.1174 51.7638 19.432 51.9827 18.7595 52.2338C16.515 53.0708 15.3799 55.3695 16.1894 57.6273C17.1889 60.4432 18.2348 63.2405 19.3271 66.0192C19.719 67.0299 20.4813 67.8525 21.4582 68.3188C22.4351 68.7852 23.5528 68.86 24.5829 68.5282C26.0822 68.0796 27.5685 67.5559 29.1063 67.0516C29.1837 67.2433 29.2074 67.4526 29.1748 67.6568C29.1748 69.2622 29.1748 70.8762 29.1748 72.4752C29.1748 74.9691 30.854 76.669 33.3341 76.6797C36.7266 76.6947 40.1192 76.6797 43.5117 76.6797C44.1006 76.7021 44.6874 76.5956 45.2311 76.3676C45.7748 76.1397 46.2625 75.7957 46.66 75.3597C46.8228 75.1816 46.9256 74.9799 47.2298 75.2288C48.7998 76.4935 50.5629 77.4965 52.4513 78.1992C52.2884 78.4869 52.0617 78.7332 51.7888 78.9193C51.5159 79.1053 51.204 79.2261 50.8771 79.2724V79.2681ZM61.8429 75.8856C60.9198 76.4178 59.6776 76.6926 57.5423 76.6861C55.4121 76.5286 53.3374 75.9311 51.4488 74.9312C49.5602 73.9314 47.8984 72.5508 46.568 70.8762C45.8311 69.9896 45.3314 68.9297 45.1158 67.7963C44.9646 67.0983 45.0461 66.3698 45.3479 65.7227C45.6497 65.0756 46.155 64.5457 46.7864 64.2142C47.8722 63.6275 49.0996 63.3555 50.331 63.4287C55.1092 63.6433 59.0757 65.5599 62.1106 69.3008C62.8311 70.1672 63.3145 71.2063 63.5134 72.3163C63.7833 73.8616 63.2114 75.1065 61.8429 75.8899V75.8856ZM51.7767 67.1052C51.4961 66.7232 51.3098 66.7318 50.9692 66.9786C50.4359 67.3714 49.8705 67.7233 49.3201 68.0925C49.3341 68.1805 49.3593 68.2663 49.3951 68.3479C51.7403 71.724 55.0878 73.368 59.0479 73.9539C59.2771 73.9861 59.4077 73.9046 59.4356 73.6728C59.5255 72.9173 59.8039 72.1897 59.8232 71.4063C58.943 71.2196 58.0991 71.0844 57.281 70.859C55.068 70.2849 53.1221 68.9598 51.7745 67.1095L51.7767 67.1052ZM10.985 70.507C9.63785 71.6703 8.97177 71.666 7.57964 70.507L5.78271 72.312C7.54323 74.7116 11.3127 74.4905 12.8612 72.2133L11.9231 71.3655C11.5997 71.0844 11.3512 70.7238 10.985 70.507ZM57.2788 70.8633C55.0661 70.2876 53.1209 68.961 51.7745 67.1095C51.494 66.7275 51.3076 66.7361 50.9671 66.9829C50.4338 67.3756 49.8684 67.7276 49.318 68.0968C49.332 68.1848 49.3572 68.2706 49.3929 68.3522C51.7381 71.7283 55.0857 73.3723 59.0458 73.9582C59.2749 73.9904 59.4056 73.9089 59.4334 73.6771C59.5234 72.9216 59.8018 72.194 59.8211 71.4106C58.9408 71.2239 58.097 71.0887 57.2788 70.8633ZM11.9145 71.3655C11.5997 71.0844 11.3534 70.7217 10.985 70.507C9.63785 71.6703 8.97177 71.666 7.57964 70.507L5.78271 72.312C7.54323 74.7116 11.3127 74.4905 12.8612 72.2133L11.9145 71.3655ZM57.2788 70.8633C55.0661 70.2876 53.1209 68.961 51.7745 67.1095C51.494 66.7275 51.3076 66.7361 50.9671 66.9829C50.4338 67.3756 49.8684 67.7276 49.318 68.0968C49.332 68.1848 49.3572 68.2706 49.3929 68.3522C51.7381 71.7283 55.0857 73.3723 59.0458 73.9582C59.2749 73.9904 59.4056 73.9089 59.4334 73.6771C59.5234 72.9216 59.8018 72.194 59.8211 71.4106C58.9408 71.2239 58.097 71.0887 57.2788 70.8633ZM11.9145 71.3655C11.5997 71.0844 11.3534 70.7217 10.985 70.507C9.63785 71.6703 8.97177 71.666 7.57964 70.507L5.78271 72.312C7.54323 74.7116 11.3127 74.4905 12.8612 72.2133L11.9145 71.3655ZM57.2788 70.8633C55.0661 70.2876 53.1209 68.961 51.7745 67.1095C51.494 66.7275 51.3076 66.7361 50.9671 66.9829C50.4338 67.3756 49.8684 67.7276 49.318 68.0968C49.332 68.1848 49.3572 68.2706 49.3929 68.3522C51.7381 71.7283 55.0857 73.3723 59.0458 73.9582C59.2749 73.9904 59.4056 73.9089 59.4334 73.6771C59.5234 72.9216 59.8018 72.194 59.8211 71.4106C58.9408 71.2239 58.097 71.0887 57.2788 70.8633ZM11.9145 71.3655C11.5997 71.0844 11.3534 70.7217 10.985 70.507C9.63785 71.6703 8.97177 71.666 7.57964 70.507L5.78271 72.312C7.54323 74.7116 11.3127 74.4905 12.8612 72.2133L11.9145 71.3655ZM57.2788 70.8633C55.0661 70.2876 53.1209 68.961 51.7745 67.1095C51.494 66.7275 51.3076 66.7361 50.9671 66.9829C50.4338 67.3756 49.8684 67.7276 49.318 68.0968C49.332 68.1848 49.3572 68.2706 49.3929 68.3522C51.7381 71.7283 55.0857 73.3723 59.0458 73.9582C59.2749 73.9904 59.4056 73.9089 59.4334 73.6771C59.5234 72.9216 59.8018 72.194 59.8211 71.4106C58.9408 71.2239 58.097 71.0887 57.2788 70.8633ZM11.9145 71.3655C11.5997 71.0844 11.3534 70.7217 10.985 70.507C9.63785 71.6703 8.97177 71.666 7.57964 70.507L5.78271 72.312C7.54323 74.7116 11.3127 74.4905 12.8612 72.2133L11.9145 71.3655ZM57.2788 70.8633C55.0661 70.2876 53.1209 68.961 51.7745 67.1095C51.494 66.7275 51.3076 66.7361 50.9671 66.9829C50.4338 67.3756 49.8684 67.7276 49.318 68.0968C49.332 68.1848 49.3572 68.2706 49.3929 68.3522C51.7381 71.7283 55.0857 73.3723 59.0458 73.9582C59.2749 73.9904 59.4056 73.9089 59.4334 73.6771C59.5234 72.9216 59.8018 72.194 59.8211 71.4106C58.9408 71.2239 58.097 71.0887 57.2788 70.8633ZM11.9145 71.3655C11.5997 71.0844 11.3534 70.7217 10.985 70.507C9.63785 71.6703 8.97177 71.666 7.57964 70.507L5.78271 72.312C7.54323 74.7116 11.3127 74.4905 12.8612 72.2133L11.9145 71.3655ZM57.2788 70.8633C55.0661 70.2876 53.1209 68.961 51.7745 67.1095C51.494 66.7275 51.3076 66.7361 50.9671 66.9829C50.4338 67.3756 49.8684 67.7276 49.318 68.0968C49.332 68.1848 49.3572 68.2706 49.3929 68.3522C51.7381 71.7283 55.0857 73.3723 59.0458 73.9582C59.2749 73.9904 59.4056 73.9089 59.4334 73.6771C59.5234 72.9216 59.8018 72.194 59.8211 71.4106C58.9408 71.2239 58.097 71.0887 57.2788 70.8633ZM11.9145 71.3655C11.5997 71.0844 11.3534 70.7217 10.985 70.507C9.63785 71.6703 8.97177 71.666 7.57964 70.507L5.78271 72.312C7.54323 74.7116 11.3127 74.4905 12.8612 72.2133L11.9145 71.3655ZM57.2788 70.8633C55.0661 70.2876 53.1209 68.961 51.7745 67.1095C51.494 66.7275 51.3076 66.7361 50.9671 66.9829C50.4338 67.3756 49.8684 67.7276 49.318 68.0968C49.332 68.1848 49.3572 68.2706 49.3929 68.3522C51.7381 71.7283 55.0857 73.3723 59.0458 73.9582C59.2749 73.9904 59.4056 73.9089 59.4334 73.6771C59.5234 72.9216 59.8018 72.194 59.8211 71.4106C58.9408 71.2239 58.097 71.0887 57.2788 70.8633ZM11.9145 71.3655C11.5997 71.0844 11.3534 70.7217 10.985 70.507C9.63785 71.6703 8.97177 71.666 7.57964 70.507L5.78271 72.312C7.54323 74.7116 11.3127 74.4905 12.8612 72.2133L11.9145 71.3655ZM57.2788 70.8633C55.0661 70.2876 53.1209 68.961 51.7745 67.1095C51.494 66.7275 51.3076 66.7361 50.9671 66.9829C50.4338 67.3756 49.8684 67.7276 49.318 68.0968C49.332 68.1848 49.3572 68.2706 49.3929 68.3522C51.7381 71.7283 55.0857 73.3723 59.0458 73.9582C59.2749 73.9904 59.4056 73.9089 59.4334 73.6771C59.5234 72.9216 59.8018 72.194 59.8211 71.4106C58.9408 71.2239 58.097 71.0887 57.2788 70.8633ZM11.9145 71.3655C11.5997 71.0844 11.3534 70.7217 10.985 70.507C9.63785 71.6703 8.97177 71.666 7.57964 70.507L5.78271 72.312C7.54323 74.7116 11.3127 74.4905 12.8612 72.2133L11.9145 71.3655ZM57.2788 70.8633C55.0661 70.2876 53.1209 68.961 51.7745 67.1095C51.494 66.7275 51.3076 66.7361 50.9671 66.9829C50.4338 67.3756 49.8684 67.7276 49.318 68.0968C49.332 68.1848 49.3572 68.2706 49.3929 68.3522C51.7381 71.7283 55.0857 73.3723 59.0458 73.9582C59.2749 73.9904 59.4056 73.9089 59.4334 73.6771C59.5234 72.9216 59.8018 72.194 59.8211 71.4106C58.9408 71.2239 58.097 71.0887 57.2788 70.8633ZM57.2788 70.8633C55.0661 70.2876 53.1209 68.961 51.7745 67.1095C51.494 66.7275 51.3076 66.7361 50.9671 66.9829C50.4338 67.3756 49.8684 67.7276 49.318 68.0968C49.332 68.1848 49.3572 68.2706 49.3929 68.3522C51.7381 71.7283 55.0857 73.3723 59.0458 73.9582C59.2749 73.9904 59.4056 73.9089 59.4334 73.6771C59.5234 72.9216 59.8018 72.194 59.8211 71.4106C58.9408 71.2239 58.097 71.0887 57.2788 70.8633Z" fill="#026F30"/>
<path d="M22.5611 46.0094C22.5611 47.2285 21.7044 48.6235 20.2052 48.7824C18.6032 48.9498 17.2924 47.7822 17.2796 46.3356C17.2582 44.0885 17.2689 41.8392 17.2667 39.5899C17.5709 39.8904 17.5152 40.281 17.5173 40.648C17.5173 42.4659 17.5023 44.2838 17.5302 46.1017C17.5473 47.2778 18.087 48.0505 19.0679 48.396C20.7214 48.9798 22.2549 47.8595 22.3255 45.9493C22.3898 44.1872 22.3255 42.4209 22.347 40.6566C22.347 40.2875 22.2998 39.9011 22.5611 39.5835C22.559 41.7255 22.5504 43.8674 22.5611 46.0094Z" fill="#FEFEFE"/>
<path d="M28.119 48.1902C28.119 48.5572 28.1639 48.9499 27.8427 49.2375C27.8427 46.0196 27.8427 42.8038 27.8427 39.5901C28.1297 39.8906 28.1125 40.2747 28.1125 40.6482C28.1254 43.1679 28.1275 45.6819 28.119 48.1902Z" fill="#FEFEFE"/>
<path d="M33.2613 52.0683C32.8801 51.828 32.9079 51.4245 32.9079 51.0639C32.8936 47.5397 32.8936 44.0149 32.9079 40.4893C32.9079 40.1695 32.9079 39.8454 33.1521 39.5857C33.1521 43.4604 33.1521 47.3351 33.1521 51.2098C33.1478 51.5103 33.1071 51.7979 33.2613 52.0683Z" fill="#FEFEFE"/>
<path d="M46.3238 48.907C46.3215 49.2888 46.2351 49.6654 46.0709 50.0099C45.9066 50.3545 45.6685 50.6584 45.3735 50.9001C45.0785 51.1418 44.7339 51.3153 44.3643 51.4081C43.9948 51.501 43.6093 51.511 43.2354 51.4374C42.0425 51.1756 41.0273 50.1497 41.0337 48.5765C41.0465 46.001 41.0337 43.4254 41.0337 40.8671C41.0337 40.4378 41.0337 40.0086 41.0337 39.5793C41.3078 39.927 41.2479 40.3391 41.2479 40.7362C41.2479 43.2215 41.2479 45.7069 41.2479 48.1923C41.2479 49.0401 41.3849 49.8363 42.0403 50.4673C42.7621 51.1627 43.5952 51.4181 44.5333 51.049C45.4714 50.6798 46.0325 49.9522 46.0475 48.9027C46.0732 46.471 46.0475 44.0393 46.0582 41.6054C46.0582 41.2062 46.0582 40.8049 46.0582 40.4035C46.0582 40.1095 46.0732 39.8111 46.3217 39.5922C46.3324 42.6979 46.3452 45.8035 46.3238 48.907Z" fill="#FEFEFE"/>
<path d="M32.1712 54.968C31.9291 55.0753 31.6914 55.1826 31.4451 55.2857C31.0493 55.4448 30.6207 55.5046 30.1966 55.4599C29.7725 55.4151 29.3657 55.2672 29.0116 55.029C28.6576 54.7907 28.367 54.4694 28.1651 54.093C27.9632 53.7165 27.8562 53.2963 27.8534 52.869C27.8534 52.6028 27.8534 52.3367 27.8405 52.0706C28.1125 52.2852 28.0547 52.5921 28.0783 52.8754C28.2325 54.6761 29.6782 55.6226 31.413 55.0581C31.6593 54.9787 31.897 54.8178 32.1712 54.968Z" fill="#FEFEFE"/>
<path d="M59.8211 71.4104C59.8018 72.1938 59.5234 72.9128 59.4334 73.6769C59.4056 73.9087 59.2749 73.9902 59.0458 73.958C55.0857 73.3721 51.7381 71.7281 49.3929 68.352C49.3572 68.2704 49.332 68.1846 49.3179 68.0966C49.8684 67.7275 50.4338 67.3755 50.9671 66.9827C51.3076 66.7359 51.494 66.7273 51.7745 67.1093C53.1209 68.9608 55.0661 70.2874 57.2788 70.8631C58.097 71.0885 58.9408 71.2237 59.8211 71.4104Z" fill="#FEFEFE"/>
<path d="M33.1735 52.1949C33.2634 53.2681 32.8479 54.1673 32.1712 54.9679C31.9291 55.0752 31.6914 55.1825 31.4451 55.2855C31.0493 55.4447 30.6207 55.5045 30.1966 55.4597C29.7725 55.415 29.3657 55.2671 29.0116 55.0289C28.6576 54.7906 28.367 54.4693 28.1651 54.0929C27.9632 53.7164 27.8562 53.2962 27.8534 52.8689C27.8534 52.6027 27.8534 52.3366 27.8405 52.0705C27.8405 51.1261 27.8405 50.1817 27.8405 49.2374C27.8405 46.0194 27.8405 42.8036 27.8405 39.59C29.6053 39.5277 31.3723 39.5342 33.1371 39.59C33.1371 43.4647 33.1371 47.3394 33.1371 51.2141C33.1371 51.5038 33.0964 51.8022 33.2506 52.0726C33.2313 52.1091 33.1713 52.1542 33.1735 52.1949Z" fill="#00B151"/>
<path d="M12.8505 72.2132C11.302 74.4904 7.53252 74.7115 5.78271 72.3119L7.58821 70.5005C8.98034 71.6659 9.64642 71.6702 10.9936 70.5005C11.362 70.7151 11.6083 71.0778 11.9231 71.359L12.8505 72.2132Z" fill="#FEFEFE"/>
<path d="M46.3238 48.9069C46.3215 49.2887 46.2351 49.6653 46.0709 50.0099C45.9066 50.3544 45.6685 50.6583 45.3735 50.9C45.0785 51.1417 44.7339 51.3152 44.3643 51.4081C43.9948 51.501 43.6093 51.511 43.2354 51.4374C42.0425 51.1755 41.0273 50.1496 41.0337 48.5764C41.0465 46.0009 41.0337 43.4254 41.0337 40.867C41.0337 40.4378 41.0337 40.0085 41.0337 39.5793C42.8006 39.5385 44.5654 39.5192 46.3324 39.59C46.3324 42.6978 46.3452 45.8034 46.3238 48.9069Z" fill="#00B151"/>
<path d="M22.5611 46.0096C22.5611 47.2287 21.7044 48.6237 20.2052 48.7825C18.6032 48.95 17.2924 47.7824 17.2796 46.3358C17.2582 44.0887 17.2689 41.8394 17.2667 39.5901C19.0337 39.5236 20.8006 39.5365 22.5654 39.5901C22.559 41.7257 22.5504 43.8676 22.5611 46.0096Z" fill="#00B151"/>
<path d="M59.8211 71.4104C59.8018 72.1938 59.5234 72.9128 59.4334 73.6769C59.4056 73.9087 59.2749 73.9902 59.0458 73.958C55.0857 73.3721 51.7381 71.7281 49.3929 68.352C49.3572 68.2704 49.332 68.1846 49.3179 68.0966C49.8684 67.7275 50.4338 67.3755 50.9671 66.9827C51.3076 66.7359 51.494 66.7273 51.7745 67.1093C53.1209 68.9608 55.0661 70.2874 57.2788 70.8631C58.097 71.0885 58.9408 71.2237 59.8211 71.4104Z" fill="#026F30"/>
<path d="M12.8505 72.2132C11.302 74.4904 7.53252 74.7115 5.78271 72.3119L7.58821 70.5005C8.98034 71.6659 9.64642 71.6702 10.9936 70.5005C11.362 70.7151 11.6083 71.0778 11.9231 71.359L12.8505 72.2132Z" fill="#026F30"/>
</svg>