<svg width="24" height="24" viewBox="0 0 24 24" fill="none" xmlns="http://www.w3.org/2000/svg">
<rect x="2.1" y="2.1" width="19.8" height="19.8" rx="3.9" fill="white"/>
<path d="M11.9921 18.5C10.118 18.5 8.24381 18.5 6.36967 18.5C5.64601 18.5 5.10651 18.0285 5.00468 17.3057C4.99818 17.2661 5.00035 17.2242 5.00035 17.1845C5.00035 14.0116 5.00035 10.8386 5.00035 7.66566C5.00035 7.02005 5.52034 6.43173 6.14867 6.37003C6.80083 6.30613 7.45515 6.25105 8.10948 6.19156C8.80281 6.12766 9.49397 6.06155 10.1873 5.99986C10.8005 5.94477 11.4158 5.89409 12.0289 5.839C12.7223 5.77731 13.4134 5.709 14.1068 5.6473C14.6376 5.59883 15.1706 5.55256 15.7014 5.51069C15.8227 5.50188 15.9484 5.49086 16.0654 5.51289C16.3037 5.55917 16.4814 5.75968 16.4922 6.00426C16.5074 6.348 16.5096 6.69394 16.5009 7.03988C16.4966 7.2426 16.4012 7.31311 16.1759 7.31311C13.0949 7.31311 10.0161 7.31311 6.93516 7.31311C6.89183 7.31311 6.84849 7.31531 6.80516 7.31311C6.465 7.29328 6.361 7.52684 6.46933 7.8199C6.56033 8.06448 6.77483 8.2011 7.05649 8.2011C10.573 8.2011 14.0894 8.2011 17.6081 8.2011C18.1497 8.2011 18.5679 8.43246 18.8387 8.91722C18.9557 9.12654 18.999 9.35791 18.999 9.59367C18.999 12.099 19.0012 14.6021 18.999 17.1074C18.999 17.7861 18.5939 18.3127 17.9655 18.4625C17.8615 18.4868 17.751 18.4978 17.6449 18.4978C15.7621 18.5 13.8771 18.5 11.9921 18.5ZM12.1069 17.0634C12.6161 17.0589 13.0884 16.9554 13.5239 16.6932C14.4924 16.1093 14.8672 14.4611 13.6301 13.6216C13.3679 13.4431 13.0884 13.2844 12.7981 13.1566C12.4168 12.987 12.0159 12.8592 11.6259 12.7049C11.3486 12.5948 11.0865 12.4537 10.8741 12.2378C10.4993 11.8588 10.4755 11.319 10.8135 10.9069C10.9651 10.7218 11.158 10.5984 11.3789 10.5147C11.8188 10.3473 12.2586 10.4001 12.6984 10.5059C13.0343 10.5874 13.3463 10.7307 13.6366 10.9224C13.7081 10.9686 13.7796 11.0083 13.8403 10.9113C13.9161 10.7901 13.9919 10.669 14.0656 10.5478C14.1089 10.4773 14.0916 10.4134 14.0288 10.3649C13.9854 10.3318 13.9399 10.3032 13.8923 10.2745C13.2618 9.89775 12.5836 9.71046 11.8491 9.73249C11.3876 9.74792 10.963 9.88012 10.5838 10.1533C9.95113 10.6051 9.67813 11.3785 9.91213 12.0792C10.092 12.6168 10.4798 12.9738 10.9695 13.2007C11.4439 13.4211 11.9423 13.5863 12.4298 13.7758C12.8154 13.9256 13.1751 14.1151 13.4416 14.4479C13.6453 14.7013 13.7254 14.9899 13.6648 15.3116C13.5803 15.7589 13.2834 16.0255 12.8891 16.1864C12.2954 16.431 11.6974 16.3913 11.1038 16.1776C10.7463 16.0476 10.4235 15.8581 10.1266 15.6223C9.9793 15.5055 9.94463 15.5121 9.8363 15.6708C9.77346 15.7655 9.70847 15.8581 9.6478 15.9528C9.56547 16.0762 9.56763 16.0894 9.68247 16.1864C10.3866 16.7791 11.2099 17.0457 12.1069 17.0634Z" fill="#EE4D2D"/>
<rect x="2.1" y="2.1" width="19.8" height="19.8" rx="3.9" stroke="#C7C7C7" stroke-width="0.2"/>
</svg>
