<svg width="24" height="24" viewBox="0 0 24 24" fill="none" xmlns="http://www.w3.org/2000/svg">
<g clip-path="url(#clip0_7487_92354)">
<path d="M15.9756 0H7.99012C6.58088 0.00159801 5.4389 1.14358 5.4375 2.55282V21.4473C5.4389 22.8566 6.58088 23.9985 7.99012 23.9999H15.9756C17.3848 23.9985 18.5268 22.8566 18.5284 21.4473V2.55282C18.5268 1.14358 17.3848 0.00159801 15.9756 0V0ZM11.983 21.8183C11.3803 21.8183 10.8919 21.3299 10.8919 20.7272C10.8919 20.1248 11.3803 19.6364 11.983 19.6364C12.5854 19.6364 13.0738 20.1248 13.0738 20.7272C13.0738 21.3299 12.5854 21.8183 11.983 21.8183ZM13.6193 3.27273H10.3466C10.0454 3.27273 9.80107 3.02843 9.80107 2.72721C9.80107 2.42598 10.0454 2.18189 10.3466 2.18189H13.6193C13.9205 2.18189 14.1646 2.42598 14.1646 2.72721C14.1646 3.02843 13.9205 3.27273 13.6193 3.27273Z" fill="white"/>
</g>
<defs>
<clipPath id="clip0_7487_92354">
<rect width="24" height="24" fill="white"/>
</clipPath>
</defs>
</svg>