<svg width="17" height="16" viewBox="0 0 17 16" fill="none" xmlns="http://www.w3.org/2000/svg">
<mask id="mask0_2729_2071" style="mask-type:luminance" maskUnits="userSpaceOnUse" x="1" y="0" width="15" height="16">
<path d="M15.8334 0.666687H1.16675V15.3334H15.8334V0.666687Z" fill="white"/>
</mask>
<g mask="url(#mask0_2729_2071)">
<path d="M9.15894 11.0937C9.15894 11.7256 9.673 12.2396 10.3048 12.2396H11.6511C12.2829 12.2396 12.7969 11.7256 12.7969 11.0937V9.7474C12.7969 9.11557 12.2829 8.60156 11.6511 8.60156H10.3048C9.673 8.60156 9.15894 9.11557 9.15894 9.7474V11.0937ZM10.3048 9.7474H11.6511L11.6518 11.0937H11.6511H10.3048V9.7474Z" fill="currentColor"/>
<path d="M12.2241 7.25518C12.5405 7.25518 12.797 6.99869 12.797 6.68229C12.797 6.36588 12.5405 6.10938 12.2241 6.10938C11.9077 6.10938 11.6511 6.36588 11.6511 6.68229C11.6511 6.99869 11.9077 7.25518 12.2241 7.25518Z" fill="currentColor"/>
<path d="M9.73185 7.25518C10.0483 7.25518 10.3048 6.99869 10.3048 6.68229C10.3048 6.36588 10.0483 6.10938 9.73185 6.10938C9.41548 6.10938 9.15894 6.36588 9.15894 6.68229C9.15894 6.99869 9.41548 7.25518 9.73185 7.25518Z" fill="currentColor"/>
<path d="M15.2605 10.75C15.5769 10.75 15.8334 10.4935 15.8334 10.1771V4.10419C15.8334 2.84056 14.8053 1.81252 13.5417 1.81252H12.7969V1.2396C12.7969 0.923182 12.5404 0.666687 12.2241 0.666687C11.9076 0.666687 11.6511 0.923182 11.6511 1.2396V1.81252H9.04434V1.2396C9.04434 0.923182 8.78785 0.666687 8.47142 0.666687C8.15499 0.666687 7.8985 0.923182 7.8985 1.2396V1.81252H5.3204V1.2396C5.3204 0.923182 5.0639 0.666687 4.74748 0.666687C4.43105 0.666687 4.17456 0.923182 4.17456 1.2396V1.81252H3.45841C2.19479 1.81252 1.16675 2.84056 1.16675 4.10419V13.0417C1.16675 14.3053 2.19479 15.3334 3.45841 15.3334H13.5417C14.8053 15.3334 15.8334 14.3053 15.8334 13.0417C15.8334 12.7253 15.5769 12.4688 15.2605 12.4688C14.9441 12.4688 14.6876 12.7253 14.6876 13.0417C14.6876 13.6735 14.1736 14.1875 13.5417 14.1875H3.45841C2.82661 14.1875 2.31258 13.6735 2.31258 13.0417V4.10419C2.31258 3.47238 2.82661 2.95835 3.45841 2.95835H4.17456V3.53127C4.17456 3.84769 4.43105 4.10419 4.74748 4.10419C5.0639 4.10419 5.3204 3.84769 5.3204 3.53127V2.95835H7.8985V3.53127C7.8985 3.84769 8.15499 4.10419 8.47142 4.10419C8.78785 4.10419 9.04434 3.84769 9.04434 3.53127V2.95835H11.6511V3.53127C11.6511 3.84769 11.9076 4.10419 12.2241 4.10419C12.5404 4.10419 12.7969 3.84769 12.7969 3.53127V2.95835H13.5417C14.1736 2.95835 14.6876 3.47238 14.6876 4.10419V10.1771C14.6876 10.4935 14.9441 10.75 15.2605 10.75Z" fill="currentColor"/>
<path d="M4.74748 12.2396C5.06389 12.2396 5.32039 11.9831 5.32039 11.6667C5.32039 11.3502 5.06389 11.0938 4.74748 11.0938C4.43106 11.0938 4.17456 11.3502 4.17456 11.6667C4.17456 11.9831 4.43106 12.2396 4.74748 12.2396Z" fill="currentColor"/>
<path d="M4.74748 7.25518C5.06389 7.25518 5.32039 6.99869 5.32039 6.68229C5.32039 6.36588 5.06389 6.10938 4.74748 6.10938C4.43106 6.10938 4.17456 6.36588 4.17456 6.68229C4.17456 6.99869 4.43106 7.25518 4.74748 7.25518Z" fill="currentColor"/>
<path d="M4.74748 9.7474C5.06389 9.7474 5.32039 9.49085 5.32039 9.17448C5.32039 8.85805 5.06389 8.60156 4.74748 8.60156C4.43106 8.60156 4.17456 8.85805 4.17456 9.17448C4.17456 9.49085 4.43106 9.7474 4.74748 9.7474Z" fill="currentColor"/>
<path d="M7.23966 9.7474C7.5561 9.7474 7.81258 9.49085 7.81258 9.17448C7.81258 8.85805 7.5561 8.60156 7.23966 8.60156C6.92325 8.60156 6.66675 8.85805 6.66675 9.17448C6.66675 9.49085 6.92325 9.7474 7.23966 9.7474Z" fill="currentColor"/>
<path d="M7.23966 7.25518C7.5561 7.25518 7.81258 6.99869 7.81258 6.68229C7.81258 6.36588 7.5561 6.10938 7.23966 6.10938C6.92325 6.10938 6.66675 6.36588 6.66675 6.68229C6.66675 6.99869 6.92325 7.25518 7.23966 7.25518Z" fill="currentColor"/>
<path d="M7.23966 12.2396C7.5561 12.2396 7.81258 11.9831 7.81258 11.6667C7.81258 11.3502 7.5561 11.0938 7.23966 11.0938C6.92325 11.0938 6.66675 11.3502 6.66675 11.6667C6.66675 11.9831 6.92325 12.2396 7.23966 12.2396Z" fill="currentColor"/>
</g>
</svg>
