<svg width="24" height="24" viewBox="0 0 24 24" fill="none" xmlns="http://www.w3.org/2000/svg">
<path d="M22.5575 10.3177C22.4593 10.3017 22.3599 10.2944 22.2604 10.2957H5.32893L5.69812 10.1239C6.059 9.95314 6.38731 9.72067 6.66833 9.43707L11.4164 4.68904C12.0417 4.09211 12.1468 3.13182 11.6653 2.41377C11.1051 1.6486 10.0306 1.48246 9.26537 2.04275C9.20355 2.08804 9.14479 2.13741 9.08957 2.19054L0.503632 10.7765C-0.167358 11.4467 -0.167949 12.534 0.502291 13.205C0.50272 13.2054 0.503203 13.2059 0.503632 13.2063L9.08957 21.7922C9.7611 22.4619 10.8483 22.4604 11.518 21.7888C11.5707 21.736 11.62 21.6798 11.6653 21.6205C12.1468 20.9025 12.0417 19.9422 11.4164 19.3452L6.67692 14.5886C6.42498 14.3364 6.13531 14.1249 5.81833 13.9619L5.30317 13.73H22.1659C23.0432 13.7626 23.8128 13.1498 23.9776 12.2876C24.1294 11.3515 23.4936 10.4695 22.5575 10.3177Z" fill="#50429B"/>
</svg>
