<svg width="25" height="24" viewBox="0 0 25 24" fill="none" xmlns="http://www.w3.org/2000/svg">
<path d="M18.9336 23H6.93359C6.66838 23 6.41402 22.8946 6.22649 22.7071C6.03895 22.5196 5.93359 22.2652 5.93359 22C5.93359 21.7348 6.03895 21.4804 6.22649 21.2929C6.41402 21.1054 6.66838 21 6.93359 21H18.9336C19.1988 21 19.4532 21.1054 19.6407 21.2929C19.8282 21.4804 19.9336 21.7348 19.9336 22C19.9336 22.2652 19.8282 22.5196 19.6407 22.7071C19.4532 22.8946 19.1988 23 18.9336 23ZM23.9336 6V14C23.9336 14.6566 23.8043 15.3068 23.553 15.9134C23.3017 16.52 22.9334 17.0712 22.4691 17.5355C22.0048 17.9998 21.4536 18.3681 20.847 18.6194C20.2404 18.8707 19.5902 19 18.9336 19H6.93359C6.27698 19 5.6268 18.8707 5.02018 18.6194C4.41355 18.3681 3.86235 17.9998 3.39806 17.5355C2.46038 16.5979 1.93359 15.3261 1.93359 14V6C1.93359 4.67392 2.46038 3.40215 3.39806 2.46447C4.33574 1.52678 5.60751 1 6.93359 1H18.9336C19.5902 1 20.2404 1.12933 20.847 1.3806C21.4536 1.63188 22.0048 2.00017 22.4691 2.46447C22.9334 2.92876 23.3017 3.47995 23.553 4.08658C23.8043 4.69321 23.9336 5.34339 23.9336 6ZM5.93359 8C5.93359 8.26522 6.03895 8.51957 6.22649 8.70711C6.41402 8.89464 6.66838 9 6.93359 9H12.9336C13.1988 9 13.4532 8.89464 13.6407 8.70711C13.8282 8.51957 13.9336 8.26522 13.9336 8C13.9336 7.73478 13.8282 7.48043 13.6407 7.29289C13.4532 7.10536 13.1988 7 12.9336 7H6.93359C6.66838 7 6.41402 7.10536 6.22649 7.29289C6.03895 7.48043 5.93359 7.73478 5.93359 8ZM19.9336 12C19.9336 11.7348 19.8282 11.4804 19.6407 11.2929C19.4532 11.1054 19.1988 11 18.9336 11H6.93359C6.66838 11 6.41402 11.1054 6.22649 11.2929C6.03895 11.4804 5.93359 11.7348 5.93359 12C5.93359 12.2652 6.03895 12.5196 6.22649 12.7071C6.41402 12.8946 6.66838 13 6.93359 13H18.9336C19.1988 13 19.4532 12.8946 19.6407 12.7071C19.8282 12.5196 19.9336 12.2652 19.9336 12Z" fill="#50429B"/>
</svg>
