<svg width="52" height="52" viewBox="0 0 52 52" fill="none" xmlns="http://www.w3.org/2000/svg">
<rect width="52" height="52" rx="16" fill="#FF8C21"/>
<path d="M15.5 23.5C15.5 19.7288 15.5 17.8431 16.6716 16.6716C17.8431 15.5 19.7288 15.5 23.5 15.5H28.5C32.2712 15.5 34.1569 15.5 35.3284 16.6716C36.5 17.8431 36.5 19.7288 36.5 23.5V28.5C36.5 32.2712 36.5 34.1569 35.3284 35.3284C34.1569 36.5 32.2712 36.5 28.5 36.5H23.5C19.7288 36.5 17.8431 36.5 16.6716 35.3284C15.5 34.1569 15.5 32.2712 15.5 28.5V23.5Z" fill="white"/>
<path d="M26 20.1667L26 31.8334M31.8333 26.0001L20.1666 26.0001" stroke="#FF8C21" stroke-width="2" stroke-linejoin="round"/>
</svg>
