<svg width="24" height="24" viewBox="0 0 24 24" fill="none" xmlns="http://www.w3.org/2000/svg">
<path d="M5 10.75H2C1.80109 10.75 1.61032 10.671 1.46967 10.5303C1.32902 10.3897 1.25 10.1989 1.25 10C1.25 9.80109 1.32902 9.61032 1.46967 9.46967C1.61032 9.32902 1.80109 9.25 2 9.25H5C5.19891 9.25 5.38968 9.32902 5.53033 9.46967C5.67098 9.61032 5.75 9.80109 5.75 10C5.75 10.1989 5.67098 10.3897 5.53033 10.5303C5.38968 10.671 5.19891 10.75 5 10.75Z" fill="#50429B"/>
<path d="M5 6.75H2C1.80109 6.75 1.61032 6.67098 1.46967 6.53033C1.32902 6.38968 1.25 6.19891 1.25 6C1.25 5.80109 1.32902 5.61032 1.46967 5.46967C1.61032 5.32902 1.80109 5.25 2 5.25H5C5.19891 5.25 5.38968 5.32902 5.53033 5.46967C5.67098 5.61032 5.75 5.80109 5.75 6C5.75 6.19891 5.67098 6.38968 5.53033 6.53033C5.38968 6.67098 5.19891 6.75 5 6.75Z" fill="#50429B"/>
<path d="M5 18.75H2C1.80109 18.75 1.61032 18.671 1.46967 18.5303C1.32902 18.3897 1.25 18.1989 1.25 18C1.25 17.8011 1.32902 17.6103 1.46967 17.4697C1.61032 17.329 1.80109 17.25 2 17.25H5C5.19891 17.25 5.38968 17.329 5.53033 17.4697C5.67098 17.6103 5.75 17.8011 5.75 18C5.75 18.1989 5.67098 18.3897 5.53033 18.5303C5.38968 18.671 5.19891 18.75 5 18.75Z" fill="#50429B"/>
<path d="M5 14.75H2C1.80109 14.75 1.61032 14.671 1.46967 14.5303C1.32902 14.3897 1.25 14.1989 1.25 14C1.25 13.8011 1.32902 13.6103 1.46967 13.4697C1.61032 13.329 1.80109 13.25 2 13.25H5C5.19891 13.25 5.38968 13.329 5.53033 13.4697C5.67098 13.6103 5.75 13.8011 5.75 14C5.75 14.1989 5.67098 14.3897 5.53033 14.5303C5.38968 14.671 5.19891 14.75 5 14.75Z" fill="#50429B"/>
<path d="M13.5 11.75C14.7426 11.75 15.75 10.7426 15.75 9.5C15.75 8.25736 14.7426 7.25 13.5 7.25C12.2574 7.25 11.25 8.25736 11.25 9.5C11.25 10.7426 12.2574 11.75 13.5 11.75Z" fill="#50429B"/>
<path d="M19 1.25H8C7.00584 1.25132 6.05279 1.64684 5.34981 2.34981C4.64684 3.05279 4.25132 4.00584 4.25 5V19C4.25132 19.9942 4.64684 20.9472 5.34981 21.6502C6.05279 22.3532 7.00584 22.7487 8 22.75H19C19.9942 22.7487 20.9472 22.3532 21.6502 21.6502C22.3532 20.9472 22.7487 19.9942 22.75 19V5C22.7487 4.00584 22.3532 3.05279 21.6502 2.34981C20.9472 1.64684 19.9942 1.25132 19 1.25ZM17.25 15.5V17.5C17.25 17.6989 17.171 17.8897 17.0303 18.0303C16.8897 18.171 16.6989 18.25 16.5 18.25C16.3011 18.25 16.1103 18.171 15.9697 18.0303C15.829 17.8897 15.75 17.6989 15.75 17.5V15.5C15.75 14.9033 15.5129 14.331 15.091 13.909C14.669 13.4871 14.0967 13.25 13.5 13.25C12.9033 13.25 12.331 13.4871 11.909 13.909C11.4871 14.331 11.25 14.9033 11.25 15.5V17.5C11.25 17.6989 11.171 17.8897 11.0303 18.0303C10.8897 18.171 10.6989 18.25 10.5 18.25C10.3011 18.25 10.1103 18.171 9.96967 18.0303C9.82902 17.8897 9.75 17.6989 9.75 17.5V15.5C9.75149 14.9157 9.89007 14.3398 10.1546 13.8188C10.4191 13.2978 10.8022 12.8461 11.273 12.5C10.6378 12.0311 10.1668 11.3738 9.92704 10.6215C9.68732 9.86929 9.69113 9.06058 9.93793 8.31064C10.1847 7.5607 10.6619 6.90778 11.3015 6.44492C11.9411 5.98207 12.7105 5.73289 13.5 5.73289C14.2895 5.73289 15.0589 5.98207 15.6985 6.44492C16.3381 6.90778 16.8153 7.5607 17.0621 8.31064C17.3089 9.06058 17.3127 9.86929 17.073 10.6215C16.8332 11.3738 16.3622 12.0311 15.727 12.5C16.1978 12.8461 16.5809 13.2978 16.8454 13.8188C17.1099 14.3398 17.2485 14.9157 17.25 15.5Z" fill="#50429B"/>
</svg>