<svg width="36" height="36" viewBox="0 0 36 36" fill="none" xmlns="http://www.w3.org/2000/svg">
<path d="M32.625 8.84521V24.5952C32.625 25.4903 32.2694 26.3488 31.6365 26.9817C31.0036 27.6146 30.1451 27.9702 29.25 27.9702H6.75C5.85489 27.9702 4.99645 27.6146 4.36351 26.9817C3.73058 26.3488 3.375 25.4903 3.375 24.5952V8.84521C3.3787 7.95125 3.73547 7.09495 4.3676 6.46282C4.99974 5.83068 5.85603 5.47392 6.75 5.47021H29.25C30.144 5.47392 31.0003 5.83068 31.6324 6.46282C32.2645 7.09495 32.6213 7.95125 32.625 8.84521ZM22.5 30.2202H13.5C13.2016 30.2202 12.9155 30.3387 12.7045 30.5497C12.4935 30.7607 12.375 31.0468 12.375 31.3452C12.375 31.6436 12.4935 31.9297 12.7045 32.1407C12.9155 32.3517 13.2016 32.4702 13.5 32.4702H22.5C22.7984 32.4702 23.0845 32.3517 23.2955 32.1407C23.5065 31.9297 23.625 31.6436 23.625 31.3452C23.625 31.0468 23.5065 30.7607 23.2955 30.5497C23.0845 30.3387 22.7984 30.2202 22.5 30.2202Z" fill="white"/>
</svg>