<svg width="40" height="40" viewBox="0 0 40 40" fill="none" xmlns="http://www.w3.org/2000/svg">
<mask id="mask0_3144_84268" style="mask-type:luminance" maskUnits="userSpaceOnUse" x="0" y="0" width="40" height="40">
<path d="M0 0H40V40H0V0Z" fill="white"/>
</mask>
<g mask="url(#mask0_3144_84268)">
<path className="custom-color-icon-drag" d="M18.3332 29.9998C18.3332 31.8332 16.8332 33.3332 14.9998 33.3332C13.1665 33.3332 11.6665 31.8332 11.6665 29.9998C11.6665 28.1665 13.1665 26.6665 14.9998 26.6665C16.8332 26.6665 18.3332 28.1665 18.3332 29.9998ZM14.9998 16.6665C13.1665 16.6665 11.6665 18.1665 11.6665 19.9998C11.6665 21.8332 13.1665 23.3332 14.9998 23.3332C16.8332 23.3332 18.3332 21.8332 18.3332 19.9998C18.3332 18.1665 16.8332 16.6665 14.9998 16.6665ZM14.9998 6.6665C13.1665 6.6665 11.6665 8.1665 11.6665 9.99984C11.6665 11.8332 13.1665 13.3332 14.9998 13.3332C16.8332 13.3332 18.3332 11.8332 18.3332 9.99984C18.3332 8.1665 16.8332 6.6665 14.9998 6.6665ZM24.9998 13.3332C26.8332 13.3332 28.3332 11.8332 28.3332 9.99984C28.3332 8.1665 26.8332 6.6665 24.9998 6.6665C23.1665 6.6665 21.6665 8.1665 21.6665 9.99984C21.6665 11.8332 23.1665 13.3332 24.9998 13.3332ZM24.9998 16.6665C23.1665 16.6665 21.6665 18.1665 21.6665 19.9998C21.6665 21.8332 23.1665 23.3332 24.9998 23.3332C26.8332 23.3332 28.3332 21.8332 28.3332 19.9998C28.3332 18.1665 26.8332 16.6665 24.9998 16.6665ZM24.9998 26.6665C23.1665 26.6665 21.6665 28.1665 21.6665 29.9998C21.6665 31.8332 23.1665 33.3332 24.9998 33.3332C26.8332 33.3332 28.3332 31.8332 28.3332 29.9998C28.3332 28.1665 26.8332 26.6665 24.9998 26.6665Z" fill="#A5ABDE"/>
</g>
</svg>
