<svg width="51" height="51" viewBox="0 0 51 51" fill="none" xmlns="http://www.w3.org/2000/svg">
<path d="M13.0002 21.3333C10.7085 21.3333 8.8335 23.2083 8.8335 25.5C8.8335 27.7916 10.7085 29.6666 13.0002 29.6666C15.2918 29.6666 17.1668 27.7916 17.1668 25.5C17.1668 23.2083 15.2918 21.3333 13.0002 21.3333ZM38.0002 21.3333C35.7085 21.3333 33.8335 23.2083 33.8335 25.5C33.8335 27.7916 35.7085 29.6666 38.0002 29.6666C40.2918 29.6666 42.1668 27.7916 42.1668 25.5C42.1668 23.2083 40.2918 21.3333 38.0002 21.3333ZM25.5002 21.3333C23.2085 21.3333 21.3335 23.2083 21.3335 25.5C21.3335 27.7916 23.2085 29.6666 25.5002 29.6666C27.7918 29.6666 29.6668 27.7916 29.6668 25.5C29.6668 23.2083 27.7918 21.3333 25.5002 21.3333Z" fill="#DAD4F4"/>
</svg>
