<svg width="28" height="28" viewBox="0 0 28 28" fill="none" xmlns="http://www.w3.org/2000/svg">
<path d="M14.0001 18.3131C16.3808 18.3131 18.3107 16.3831 18.3107 14.0024C18.3107 11.6217 16.3808 9.69177 14.0001 9.69177C11.6194 9.69177 9.68942 11.6217 9.68942 14.0024C9.68942 16.3831 11.6194 18.3131 14.0001 18.3131Z" fill="#50429B"/>
<path d="M27.5706 12.8084C24.2571 8.8043 19.2414 4.95004 14.0001 4.95004C8.75779 4.95004 3.7409 8.807 0.429614 12.8084C-0.143164 13.5002 -0.143164 14.5046 0.429614 15.1965C1.26211 16.2025 3.00738 18.1444 5.33837 19.8412C11.2089 24.1148 16.7784 24.1242 22.6618 19.8412C24.9928 18.1444 26.7381 16.2025 27.5706 15.1965C28.1417 14.5059 28.1446 13.5025 27.5706 12.8084ZM14.0001 7.9675C17.3279 7.9675 20.035 10.6746 20.035 14.0024C20.035 17.3302 17.3279 20.0373 14.0001 20.0373C10.6723 20.0373 7.96517 17.3302 7.96517 14.0024C7.96517 10.6746 10.6723 7.9675 14.0001 7.9675Z" fill="#50429B"/>
</svg>
