<svg width="28" height="28" viewBox="0 0 28 28" fill="none" xmlns="http://www.w3.org/2000/svg">
<g clip-path="url(#clip0_2473_79804)">
<path d="M9.33333 15.9649C9.61333 15.9649 9.88744 15.9605 10.1601 15.9565C11.206 15.2064 12.5195 14.9316 13.7785 15.1995C14.8458 13.5475 16.6724 12.5429 18.6392 12.5263H18.6667V9.2655C16.157 10.5422 9.67277 10.5614 9.33333 10.5614C8.9939 10.5614 2.50968 10.5422 0 9.2655V14.476C0.245614 15.0148 3.54667 15.9649 9.33333 15.9649ZM1.47368 10.5614C1.74498 10.5614 1.96491 10.7813 1.96491 11.0526C1.96491 11.3239 1.74498 11.5438 1.47368 11.5438C1.20239 11.5438 0.982456 11.3239 0.982456 11.0526C0.982456 10.7813 1.20239 10.5614 1.47368 10.5614ZM0.982456 13.0175C0.982456 12.7462 1.20239 12.5263 1.47368 12.5263C1.74498 12.5263 1.96491 12.7462 1.96491 13.0175V14C1.96491 14.2713 1.74498 14.4912 1.47368 14.4912C1.20239 14.4912 0.982456 14.2713 0.982456 14V13.0175Z" fill="#817CBA"/>
<path d="M9.33333 9.57889C15.1323 9.57889 18.4338 8.62443 18.6667 8.08653V2.87952C16.157 4.15622 9.67277 4.17538 9.33333 4.17538C8.9939 4.17538 2.50968 4.15622 0 2.87952V8.1052C0.213684 8.61903 3.51867 9.57889 9.33333 9.57889ZM13.2076 7.23769C14.5091 7.14295 15.8011 6.94585 17.0716 6.64822C17.3339 6.5829 17.5996 6.74167 17.6664 7.00355C17.7331 7.26542 17.5758 7.53203 17.3143 7.60022C15.9916 7.91163 14.6464 8.11842 13.2912 8.21867H13.2489C12.9776 8.23007 12.7484 8.01938 12.7371 7.74808C12.7257 7.47678 12.9364 7.24761 13.2076 7.23622V7.23769ZM1.47368 4.17538C1.74498 4.17538 1.96491 4.39531 1.96491 4.6666C1.96491 4.9379 1.74498 5.15783 1.47368 5.15783C1.20239 5.15783 0.982456 4.9379 0.982456 4.6666C0.982456 4.39531 1.20239 4.17538 1.47368 4.17538ZM0.982456 6.63152C0.982456 6.36022 1.20239 6.14029 1.47368 6.14029C1.74498 6.14029 1.96491 6.36022 1.96491 6.63152V7.61397C1.96491 7.88527 1.74498 8.1052 1.47368 8.1052C1.20239 8.1052 0.982456 7.88527 0.982456 7.61397V6.63152Z" fill="#817CBA"/>
<path d="M9.33333 3.19297C15.0635 3.19297 18.3572 2.25964 18.6588 1.71929C18.3572 1.17894 15.0635 0.245605 9.33333 0.245605C3.53684 0.245605 0.232842 1.20006 0 1.73796V1.74729C0.232842 2.23852 3.53684 3.19297 9.33333 3.19297Z" fill="#817CBA"/>
<path d="M8.02814 19.207C8.20562 18.3801 8.57421 17.6062 9.10442 16.9473C7.88175 16.9346 2.28912 16.8162 0 15.6515V21.3527C0.0982456 21.5521 1.05221 22.1509 4.13467 22.538C4.61746 20.7285 6.16574 19.4039 8.02814 19.207ZM1.96491 20.3859C1.96491 20.6572 1.74498 20.8772 1.47368 20.8772C1.20239 20.8772 0.982456 20.6572 0.982456 20.3859V19.4035C0.982456 19.1322 1.20239 18.9123 1.47368 18.9123C1.74498 18.9123 1.96491 19.1322 1.96491 19.4035V20.3859ZM1.47368 17.9298C1.20239 17.9298 0.982456 17.7099 0.982456 17.4386C0.982456 17.1673 1.20239 16.9473 1.47368 16.9473C1.74498 16.9473 1.96491 17.1673 1.96491 17.4386C1.96491 17.7099 1.74498 17.9298 1.47368 17.9298Z" fill="#817CBA"/>
<path d="M24.0044 18.5846C23.7952 18.5472 23.6339 18.3795 23.6045 18.1691C23.2312 15.5125 21.0968 13.5088 18.6392 13.5088C16.8884 13.5326 15.283 14.4873 14.4259 16.0141C14.311 16.2085 14.0783 16.2995 13.862 16.2346C13.5248 16.1333 13.1746 16.0818 12.8225 16.0818C10.892 16.0818 9.21791 17.6597 8.92857 19.7518C8.89498 19.9947 8.68744 20.1756 8.44226 20.1757H8.43292H8.36219C6.45966 20.1748 4.91229 21.8749 4.91229 23.9646C4.91229 26.0543 6.45966 27.7544 8.36219 27.7544H23.327C25.6485 27.7544 27.5368 25.6844 27.5368 23.1369C27.5368 20.8649 26.0513 18.9491 24.0044 18.5846Z" fill="#817CBA"/>
</g>
<defs>
<clipPath id="clip0_2473_79804">
<rect width="28" height="28" fill="white"/>
</clipPath>
</defs>
</svg>
