<svg width="24" height="25" viewBox="0 0 24 25" xmlns="http://www.w3.org/2000/svg">
<path d="M21 20.5H3C2.448 20.5 2 20.948 2 21.5C2 22.052 2.448 22.5 3 22.5H21C21.552 22.5 22 22.052 22 21.5C22 20.948 21.552 20.5 21 20.5Z" />
<path d="M9.1785 19.4957C9.9315 19.4957 10.6845 19.2087 11.2575 18.6357L18.8045 11.0887C19.1955 10.6977 19.1955 10.0657 18.8045 9.67469L10.5715 1.44169C10.1805 1.05069 9.5485 1.05069 9.1575 1.44169L1.6095 8.98769C0.4635 10.1337 0.4635 11.9997 1.6095 13.1457L7.0985 18.6347C7.6725 19.2087 8.4255 19.4957 9.1785 19.4957ZM9.8645 3.56169L16.6835 10.3807L16.5675 10.4967H2.9615C2.9855 10.4667 2.9965 10.4297 3.0245 10.4017L9.8645 3.56169Z" />
<path d="M17 16.9189C17 18.3429 18.122 19.5019 19.5 19.5019C20.878 19.5019 22 18.3429 22 16.9189C22 15.7709 20.566 13.5059 20.126 12.8399C19.849 12.4179 19.151 12.4179 18.874 12.8399C18.434 13.5059 17 15.7709 17 16.9189Z" />
</svg>
