<svg width="40" height="40" viewBox="0 0 40 40" fill="none" xmlns="http://www.w3.org/2000/svg">
<rect x="4.44531" y="4.44531" width="13.3333" height="13.3333" rx="5" fill="#50429B"/>
<rect x="4.44531" y="22.2188" width="13.3333" height="13.3333" rx="5" fill="#50429B"/>
<rect x="22.2188" y="4.44531" width="13.3333" height="13.3333" rx="5" fill="#50429B"/>
<path fill-rule="evenodd" clip-rule="evenodd" d="M28.6641 22.2266C27.5595 22.2266 26.6641 23.122 26.6641 24.2266V26.6727H24.2187C23.1142 26.6727 22.2188 27.5682 22.2188 28.6727V29.1172C22.2188 30.2218 23.1142 31.1172 24.2187 31.1172H26.6641V33.5599C26.6641 34.6645 27.5595 35.5599 28.6641 35.5599H29.1085C30.2131 35.5599 31.1085 34.6645 31.1085 33.5599V31.1172H33.5521C34.6567 31.1172 35.5521 30.2218 35.5521 29.1172V28.6727C35.5521 27.5682 34.6567 26.6727 33.5521 26.6727H31.1085V24.2266C31.1085 23.122 30.2131 22.2266 29.1085 22.2266H28.6641Z" fill="#50429B"/>
</svg>