<svg width="25" height="24" viewBox="0 0 25 24" fill="none" xmlns="http://www.w3.org/2000/svg">
<path opacity="0.4" d="M8.15 20.9101C8.12 20.9101 8.08 20.9301 8.05 20.9301C6.11 19.9701 4.53 18.3801 3.56 16.4401C3.56 16.4101 3.58 16.3701 3.58 16.3401C4.8 16.7001 6.06 16.9701 7.31 17.1801C7.53 18.4401 7.79 19.6901 8.15 20.9101Z" fill="#50429B"/>
<path opacity="0.4" d="M21.44 16.4501C20.45 18.4401 18.8 20.0501 16.79 21.0201C17.17 19.7501 17.49 18.4701 17.7 17.1801C18.96 16.9701 20.2 16.7001 21.42 16.3401C21.41 16.3801 21.44 16.4201 21.44 16.4501Z" fill="#50429B"/>
<path opacity="0.4" d="M21.52 7.70998C20.26 7.32998 18.99 7.01998 17.7 6.79998C17.49 5.50998 17.18 4.22998 16.79 2.97998C18.86 3.96998 20.53 5.63998 21.52 7.70998Z" fill="#50429B"/>
<path opacity="0.4" d="M8.15001 3.09006C7.79001 4.31006 7.53001 5.55006 7.32001 6.81006C6.03001 7.01006 4.75001 7.33006 3.48001 7.71006C4.45001 5.70006 6.06001 4.05006 8.05001 3.06006C8.08001 3.06006 8.12001 3.09006 8.15001 3.09006Z" fill="#50429B"/>
<path d="M15.99 6.59C13.67 6.33 11.33 6.33 9.01001 6.59C9.26001 5.22 9.58001 3.85 10.03 2.53C10.05 2.45 10.04 2.39 10.05 2.31C10.84 2.12 11.65 2 12.5 2C13.34 2 14.16 2.12 14.94 2.31C14.95 2.39 14.95 2.45 14.97 2.53C15.42 3.86 15.74 5.22 15.99 6.59Z" fill="#50429B"/>
<path d="M7.09 15.49C5.71 15.24 4.35 14.92 3.03 14.47C2.95 14.45 2.89 14.46 2.81 14.45C2.62 13.66 2.5 12.85 2.5 12C2.5 11.16 2.62 10.34 2.81 9.56001C2.89 9.55001 2.95 9.55001 3.03 9.53001C4.36 9.09001 5.71 8.76001 7.09 8.51001C6.84 10.83 6.84 13.17 7.09 15.49Z" fill="#50429B"/>
<path d="M22.5 12C22.5 12.85 22.38 13.66 22.19 14.45C22.11 14.46 22.05 14.45 21.97 14.47C20.64 14.91 19.28 15.24 17.91 15.49C18.17 13.17 18.17 10.83 17.91 8.51001C19.28 8.76001 20.65 9.08001 21.97 9.53001C22.05 9.55001 22.11 9.56001 22.19 9.56001C22.38 10.35 22.5 11.16 22.5 12Z" fill="#50429B"/>
<path d="M15.99 17.4099C15.74 18.7899 15.42 20.1499 14.97 21.4699C14.95 21.5499 14.95 21.6099 14.94 21.6899C14.16 21.8799 13.34 21.9999 12.5 21.9999C11.65 21.9999 10.84 21.8799 10.05 21.6899C10.04 21.6099 10.05 21.5499 10.03 21.4699C9.59001 20.1399 9.26001 18.7899 9.01001 17.4099C10.17 17.5399 11.33 17.6299 12.5 17.6299C13.67 17.6299 14.84 17.5399 15.99 17.4099Z" fill="#50429B"/>
<path d="M16.2633 15.7633C13.7622 16.0789 11.2378 16.0789 8.73667 15.7633C8.42111 13.2622 8.42111 10.7378 8.73667 8.23667C11.2378 7.92111 13.7622 7.92111 16.2633 8.23667C16.5789 10.7378 16.5789 13.2622 16.2633 15.7633Z" fill="#50429B"/>
</svg>
