<svg width="48" height="48" viewBox="0 0 48 48" fill="none" xmlns="http://www.w3.org/2000/svg">
<path d="M32.769 24C32.769 23.6142 32.6151 23.2443 32.341 22.9715C32.0669 22.6987 31.6951 22.5455 31.3075 22.5455H18.1534V13.0909C18.1534 10.1818 21.24 8 23.9997 8H37.8845C39.2408 8.00144 40.5411 8.53827 41.5001 9.49269C42.4591 10.4471 42.9985 11.7412 43 13.0909V34.9091C42.9985 36.2588 42.4591 37.5529 41.5001 38.5073C40.5411 39.4617 39.2408 39.9986 37.8845 40H23.2689C21.9126 39.9986 20.6123 39.4617 19.6533 38.5073C18.6943 37.5529 18.1549 36.2588 18.1534 34.9091V25.4545H31.3075C31.6951 25.4545 32.0669 25.3013 32.341 25.0285C32.6151 24.7557 32.769 24.3858 32.769 24ZM5.42774 22.9718L12.7356 15.6991C13.0119 15.4378 13.3798 15.2943 13.761 15.2992C14.1421 15.304 14.5062 15.4569 14.7757 15.7251C15.0452 15.9933 15.1988 16.3557 15.2037 16.735C15.2086 17.1143 15.0644 17.4805 14.8019 17.7555L9.98965 22.5455H18.1534V25.4545H9.98965L14.8019 30.2445C14.9433 30.3783 15.0564 30.5388 15.1345 30.7167C15.2126 30.8946 15.2541 31.0863 15.2566 31.2804C15.2591 31.4746 15.2225 31.6672 15.149 31.8471C15.0755 32.0269 14.9666 32.1903 14.8287 32.3276C14.6907 32.4649 14.5265 32.5733 14.3458 32.6464C14.1651 32.7196 13.9715 32.756 13.7765 32.7535C13.5814 32.751 13.3888 32.7097 13.21 32.6319C13.0313 32.5542 12.8699 32.4417 12.7356 32.3009L5.42774 25.0282C5.15385 24.7554 5 24.3856 5 24C5 23.6144 5.15385 23.2446 5.42774 22.9718Z" fill="#B7BEFF"/>
</svg>