<svg width="36" height="36" viewBox="0 0 36 36" fill="none" xmlns="http://www.w3.org/2000/svg">
<path d="M10 8.25C10 7.38805 10.3371 6.5614 10.9373 5.9519C11.5374 5.34241 12.3513 5 13.2 5H22.8C23.6487 5 24.4626 5.34241 25.0627 5.9519C25.6629 6.5614 26 7.38805 26 8.25V27.75C26 28.612 25.6629 29.4386 25.0627 30.0481C24.4626 30.6576 23.6487 31 22.8 31H13.2C12.3513 31 11.5374 30.6576 10.9373 30.0481C10.3371 29.4386 10 28.612 10 27.75V8.25ZM19.6 26.125C19.6 25.694 19.4314 25.2807 19.1314 24.976C18.8313 24.6712 18.4243 24.5 18 24.5C17.5757 24.5 17.1687 24.6712 16.8686 24.976C16.5686 25.2807 16.4 25.694 16.4 26.125C16.4 26.556 16.5686 26.9693 16.8686 27.274C17.1687 27.5788 17.5757 27.75 18 27.75C18.4243 27.75 18.8313 27.5788 19.1314 27.274C19.4314 26.9693 19.6 26.556 19.6 26.125Z" fill="#50429B"/>
</svg>