<svg width="18" height="18" viewBox="0 0 18 18" fill="none" xmlns="http://www.w3.org/2000/svg">
<path d="M8.99935 0.666992C4.40768 0.666992 0.666016 4.40866 0.666016 9.00033C0.666016 13.592 4.40768 17.3337 8.99935 17.3337C13.591 17.3337 17.3327 13.592 17.3327 9.00033C17.3327 4.40866 13.591 0.666992 8.99935 0.666992ZM8.37435 5.66699C8.37435 5.32533 8.65768 5.04199 8.99935 5.04199C9.34102 5.04199 9.62435 5.32533 9.62435 5.66699V9.83366C9.62435 10.1753 9.34102 10.4587 8.99935 10.4587C8.65768 10.4587 8.37435 10.1753 8.37435 9.83366V5.66699ZM9.76602 12.6503C9.72435 12.7587 9.66602 12.842 9.59102 12.9253C9.50768 13.0003 9.41602 13.0587 9.31602 13.1003C9.21602 13.142 9.10768 13.167 8.99935 13.167C8.89102 13.167 8.78268 13.142 8.68268 13.1003C8.58268 13.0587 8.49102 13.0003 8.40768 12.9253C8.33268 12.842 8.27435 12.7587 8.23268 12.6503C8.19102 12.5503 8.16602 12.442 8.16602 12.3337C8.16602 12.2253 8.19102 12.117 8.23268 12.017C8.27435 11.917 8.33268 11.8253 8.40768 11.742C8.49102 11.667 8.58268 11.6087 8.68268 11.567C8.88268 11.4837 9.11602 11.4837 9.31602 11.567C9.41602 11.6087 9.50768 11.667 9.59102 11.742C9.66602 11.8253 9.72435 11.917 9.76602 12.017C9.80768 12.117 9.83268 12.2253 9.83268 12.3337C9.83268 12.442 9.80768 12.5503 9.76602 12.6503Z" fill="#50429B"/>
</svg>
