<svg width="20" height="24" viewBox="0 0 20 24" xmlns="http://www.w3.org/2000/svg">
<path d="M5.25103 0L3.23423 3.52941H0.820361V1.41178C0.820361 0.632109 1.45242 0 2.23214 0H5.25103ZM6.87703 0H10.5451L8.52834 3.52941H4.86023L6.87703 0ZM12.1711 0H15.8392L13.8225 3.52941H10.1543L12.1711 0ZM17.7615 0C18.5412 0 19.1733 0.632062 19.1733 1.41178V3.52941H15.4485L17.4653 0H17.7615ZM14.7426 24L16.7594 20.4706H19.1732V22.5882C19.1732 23.3679 18.5412 24 17.7615 24H14.7426V24ZM13.1166 24H9.44845L11.4653 20.4706H15.1334L13.1166 24ZM7.82245 24H4.15435L6.17114 20.4706H9.83925L7.82245 24ZM2.2321 24C1.45238 24 0.820312 23.3679 0.820312 22.5882V20.4706H4.54514L2.52834 24H2.2321ZM0.820312 19.0588V4.94119H19.1732V19.0588H0.820312Z"/>
</svg>