<svg width="24" height="24" viewBox="0 0 24 24" fill="none" xmlns="http://www.w3.org/2000/svg">
<path d="M22.6092 21.6493V21.7536C22.6092 22.3415 22.1326 22.8215 21.5413 22.8215H2.10829C1.52047 22.8215 1.04395 22.3415 1.04395 21.7536V19.9415C1.04395 19.3537 1.52047 18.8771 2.10829 18.8771H21.5413C22.0909 18.8771 22.5431 19.291 22.6022 19.8232" fill="#EBE8FE"/>
<path d="M11.3905 6.84033H21.0705V18.8769H2.58008V6.84033H4.68095H11.3905Z" fill="#F7F5FF"/>
<path d="M11.469 4.25215V10.5249H4.76074V4.25215L6.27722 5.2215L8.11378 4.07391L9.70787 4.98786L11.469 4.25215Z" fill="white"/>
<path d="M15.7275 8.36908H17.7901V10.5259H15.7275V8.36908Z" fill="#EBE8FE"/>
<path d="M11.8257 21.6282C12.2564 21.6282 12.6056 21.2791 12.6056 20.8484C12.6056 20.4177 12.2564 20.0685 11.8257 20.0685C11.395 20.0685 11.0459 20.4177 11.0459 20.8484C11.0459 21.2791 11.395 21.6282 11.8257 21.6282Z" fill="white"/>
<path d="M17.517 4.25104H19.4857V8.36931H14.0283V4.25104H15.6909" fill="#F7F5FF"/>
<path d="M4.14746 11.9907H6.21529V13.7221H4.14746V11.9907Z" fill="#FF8C21"/>
<path d="M8.57715 11.9907H10.645V13.7221H8.57715V11.9907Z" fill="#FF8C21"/>
<path d="M13.0068 11.9907H15.0747V13.7221H13.0068V11.9907Z" fill="#FF8C21"/>
<path d="M17.4365 11.9907H19.5043V13.7221H17.4365V11.9907Z" fill="#FF8C21"/>
<path d="M4.14746 15.2728H6.21529V17.0042H4.14746V15.2728Z" fill="#FF8C21"/>
<path d="M8.57715 15.2728H10.645V17.0042H8.57715V15.2728Z" fill="#FF8C21"/>
<path d="M13.0068 15.2728H15.0747V17.0042H13.0068V15.2728Z" fill="#FF8C21"/>
<path d="M17.4365 15.2728H19.5043V17.0042H17.4365V15.2728Z" fill="#FF8C21"/>
<path d="M23.3026 22.4201H22.7823C22.89 22.2206 22.9568 21.9959 22.9568 21.7537V21.6494C22.9568 21.4572 22.8012 21.3016 22.609 21.3016C22.4167 21.3016 22.2611 21.4572 22.2611 21.6494V21.7537C22.2611 22.0551 22.0747 22.3129 21.8114 22.4201H1.83897C1.57704 22.3129 1.39156 22.0551 1.39156 21.7537V19.9415C1.39156 19.5465 1.71289 19.2248 2.10793 19.2248H21.541C21.9085 19.2248 22.2159 19.4986 22.256 19.8617C22.2774 20.0526 22.4476 20.1892 22.6402 20.1691C22.8311 20.1477 22.9687 19.9758 22.9476 19.7849C22.8681 19.0689 22.2635 18.5292 21.541 18.5292H21.4184V6.84031C21.4184 6.64822 21.2628 6.49248 21.0706 6.49248H19.8331V4.25097C19.8331 4.05888 19.6776 3.90315 19.4853 3.90315H17.5169C17.3246 3.90315 17.1691 4.05888 17.1691 4.25097C17.1691 4.44306 17.3246 4.5988 17.5169 4.5988H19.1375V8.02152C18.973 8.02152 14.1035 8.02155 14.3759 8.02152V4.5988H15.6908C15.8831 4.5988 16.0386 4.44306 16.0386 4.25097C16.0386 4.05888 15.8831 3.90315 15.6908 3.90315H14.0281C13.8359 3.90315 13.6803 4.05888 13.6803 4.25097V6.49248H11.8172V4.25216C11.8172 4.13582 11.7591 4.02713 11.6623 3.96259C11.5651 3.89805 11.4425 3.88616 11.3352 3.93117L9.73225 4.60084L8.28694 3.77203C8.17586 3.70851 8.03864 3.71106 7.9296 3.77883L6.27981 4.80991L4.94829 3.95902C4.84163 3.89075 4.70576 3.8865 4.59401 3.94713C4.48259 4.00811 4.4133 4.12512 4.4133 4.25216V6.49248H2.58042C2.38816 6.49248 2.23259 6.64822 2.23259 6.84031V18.5292H2.10793C1.3294 18.5292 0.695906 19.1627 0.695906 19.9415V21.7537C0.695906 21.9973 0.763245 22.2232 0.871774 22.4236C0.687927 22.433 0.541016 22.5818 0.541016 22.768C0.541016 22.9602 0.696588 23.1158 0.888842 23.1158C0.694188 23.1189 2.39973 23.1687 23.3026 23.1158C23.4948 23.1158 23.6504 22.9602 23.6504 22.768C23.6504 22.5757 23.4948 22.4201 23.3026 22.4201ZM16.075 8.71717H17.4418V10.1781H16.075V8.71717ZM6.09061 5.51456C6.20338 5.58657 6.34808 5.58759 6.46221 5.51643L8.12186 4.47923L9.53524 5.2897C9.62933 5.34354 9.74278 5.35049 9.84231 5.30889L11.1215 4.77441V10.1761C8.94627 10.1761 7.30232 10.1761 5.10895 10.1761V4.88718L6.09061 5.51456ZM2.92824 7.18813H4.4133V10.1761H4.14699C3.95474 10.1761 3.79917 10.3318 3.79917 10.5239C3.79917 10.716 3.95474 10.8717 4.14699 10.8717C4.18195 10.8717 12.6138 10.872 12.0838 10.8717C12.2761 10.8717 12.4316 10.716 12.4316 10.5239C12.4316 10.3318 12.2761 10.1761 12.0838 10.1761H11.8172V7.18813H13.6803V8.36935C13.6803 8.56144 13.8359 8.71718 14.0281 8.71718H15.3793V10.5259C15.3793 10.718 15.5349 10.8738 15.7272 10.8738H17.7897C17.9819 10.8738 18.1375 10.718 18.1375 10.5259V8.71718H19.4853C19.6776 8.71718 19.8331 8.56144 19.8331 8.36935V7.18813H20.7227V18.5292H2.92824V7.18813Z" fill="#50429B"/>
<path d="M10.6973 20.8485C10.6973 21.4704 11.2034 21.9762 11.8253 21.9762C12.4473 21.9762 12.953 21.4704 12.953 20.8485C12.953 20.2265 12.4473 19.7208 11.8253 19.7208C11.2034 19.7208 10.6973 20.2265 10.6973 20.8485ZM12.2574 20.8485C12.2574 21.0866 12.0634 21.2805 11.8253 21.2805C11.5869 21.2805 11.3929 21.0866 11.3929 20.8485C11.3929 20.6104 11.5869 20.4164 11.8253 20.4164C12.0634 20.4164 12.2574 20.6104 12.2574 20.8485Z" fill="#50429B"/>
<path d="M6.21425 11.6426H4.14665C3.9544 11.6426 3.79883 11.7984 3.79883 11.9905V13.7218C3.79883 13.914 3.9544 14.0696 4.14665 14.0696H6.21425C6.4065 14.0696 6.56208 13.914 6.56208 13.7218V11.9905C6.56208 11.7984 6.4065 11.6426 6.21425 11.6426ZM5.86642 13.374H4.49448V12.3383H5.86642V13.374Z" fill="#50429B"/>
<path d="M10.6443 11.6426H8.57634C8.38409 11.6426 8.22852 11.7984 8.22852 11.9905V13.7218C8.22852 13.914 8.38409 14.0696 8.57634 14.0696H10.6443C10.8365 14.0696 10.9921 13.914 10.9921 13.7218V11.9905C10.9921 11.7984 10.8365 11.6426 10.6443 11.6426ZM10.2964 13.374H8.92417V12.3383H10.2964V13.374Z" fill="#50429B"/>
<path d="M15.0746 11.6426H13.007C12.8148 11.6426 12.6592 11.7984 12.6592 11.9905V13.7218C12.6592 13.914 12.8148 14.0696 13.007 14.0696H15.0746C15.2669 14.0696 15.4224 13.914 15.4224 13.7218V11.9905C15.4224 11.7984 15.2669 11.6426 15.0746 11.6426ZM14.7268 13.374H13.3548V12.3383H14.7268V13.374Z" fill="#50429B"/>
<path d="M19.5043 11.6426H17.4367C17.2444 11.6426 17.0889 11.7984 17.0889 11.9905V13.7218C17.0889 13.914 17.2444 14.0696 17.4367 14.0696H19.5043C19.6965 14.0696 19.8521 13.914 19.8521 13.7218V11.9905C19.8521 11.7984 19.6965 11.6426 19.5043 11.6426ZM19.1565 13.374H17.7845V12.3383H19.1565V13.374Z" fill="#50429B"/>
<path d="M6.21425 14.9249H4.14665C3.9544 14.9249 3.79883 15.0804 3.79883 15.2727V17.004C3.79883 17.1963 3.9544 17.3518 4.14665 17.3518H6.21425C6.4065 17.3518 6.56208 17.1963 6.56208 17.004V15.2727C6.56208 15.0804 6.4065 14.9249 6.21425 14.9249ZM5.86642 16.6562H4.49448V15.6205H5.86642V16.6562Z" fill="#50429B"/>
<path d="M10.6443 14.9249H8.57634C8.38409 14.9249 8.22852 15.0804 8.22852 15.2727V17.004C8.22852 17.1963 8.38409 17.3518 8.57634 17.3518H10.6443C10.8365 17.3518 10.9921 17.1963 10.9921 17.004V15.2727C10.9921 15.0804 10.8365 14.9249 10.6443 14.9249ZM10.2964 16.6562H8.92417V15.6205H10.2964V16.6562Z" fill="#50429B"/>
<path d="M15.0746 14.9249H13.007C12.8148 14.9249 12.6592 15.0804 12.6592 15.2727V17.004C12.6592 17.1963 12.8148 17.3518 13.007 17.3518H15.0746C15.2669 17.3518 15.4224 17.1963 15.4224 17.004V15.2727C15.4224 15.0804 15.2669 14.9249 15.0746 14.9249ZM14.7268 16.6562H13.3548V15.6205H14.7268V16.6562Z" fill="#50429B"/>
<path d="M19.5043 14.9249H17.4367C17.2444 14.9249 17.0889 15.0804 17.0889 15.2727V17.004C17.0889 17.1963 17.2444 17.3518 17.4367 17.3518H19.5043C19.6965 17.3518 19.8521 17.1963 19.8521 17.004V15.2727C19.8521 15.0804 19.6965 14.9249 19.5043 14.9249ZM19.1565 16.6562H17.7845V15.6205H19.1565V16.6562Z" fill="#50429B"/>
</svg>
