<svg width="24" height="24" viewBox="0 0 24 24" fill="none" xmlns="http://www.w3.org/2000/svg">
<g clip-path="url(#clip0_10141_508886)">
<path d="M0.75 15.75V6C0.75 5.60218 0.908035 5.22064 1.18934 4.93934C1.47064 4.65804 1.85218 4.5 2.25 4.5H21.75C22.1478 4.5 22.5294 4.65804 22.8107 4.93934C23.092 5.22064 23.25 5.60218 23.25 6V15.75" fill="#E2E7F6"/>
<path d="M0.75 6V14.25H19.875C20.3723 14.25 20.8492 14.0525 21.2008 13.7008C21.5525 13.3492 21.75 12.8723 21.75 12.375V4.5H2.25C1.85218 4.5 1.47064 4.65804 1.18934 4.93934C0.908035 5.22064 0.75 5.60218 0.75 6Z" fill="#F2F2F2"/>
<path d="M17.25 7.5C19.114 7.5 20.625 5.98896 20.625 4.125C20.625 2.26104 19.114 0.75 17.25 0.75C15.386 0.75 13.875 2.26104 13.875 4.125C13.875 5.98896 15.386 7.5 17.25 7.5Z" fill="#FF8C21"/>
<path d="M13.8751 4.12492C13.8751 4.73005 14.0378 5.32405 14.3462 5.84471C14.6545 6.36538 15.0972 6.79356 15.6278 7.08442C16.4112 7.20187 17.2108 7.03986 17.8867 6.62681C18.5626 6.21375 19.0715 5.576 19.3243 4.82533C19.5771 4.07466 19.5576 3.25897 19.2693 2.52122C18.9809 1.78348 18.4421 1.17075 17.7473 0.790424C17.2671 0.715049 16.7762 0.745014 16.3087 0.878241C15.8412 1.01147 15.4083 1.24477 15.0399 1.56198C14.6715 1.87918 14.3766 2.27271 14.1754 2.71526C13.9743 3.15782 13.8718 3.63882 13.8751 4.12492Z" fill="#FFAC60"/>
<path d="M21 9H13.5C13.0858 9 12.75 9.33579 12.75 9.75V13.5C12.75 13.9142 13.0858 14.25 13.5 14.25H21C21.4142 14.25 21.75 13.9142 21.75 13.5V9.75C21.75 9.33579 21.4142 9 21 9Z" fill="#EBE8FE"/>
<path d="M20.625 12.75V9H13.5C13.3011 9 13.1103 9.07902 12.9697 9.21967C12.829 9.36032 12.75 9.55109 12.75 9.75V12.75H20.625Z" fill="#EBE8FE"/>
<path d="M4.875 6V1.5C4.875 1.30109 4.95402 1.11032 5.09467 0.96967C5.23532 0.829018 5.42609 0.75 5.625 0.75H10.875V1.5H10.125V6H4.875Z" fill="#E2E7F6"/>
<path d="M10.125 3V1.5C10.125 1.30109 10.204 1.11032 10.3447 0.96967C10.4853 0.829018 10.6761 0.75 10.875 0.75C11.0739 0.75 11.2647 0.829018 11.4053 0.96967C11.546 1.11032 11.625 1.30109 11.625 1.5V3H10.125Z" fill="#C8CDED"/>
<path d="M23.25 15.75V17.25C23.25 17.6478 23.092 18.0294 22.8107 18.3107C22.5294 18.592 22.1478 18.75 21.75 18.75H2.25C1.85218 18.75 1.47064 18.592 1.18934 18.3107C0.908035 18.0294 0.75 17.6478 0.75 17.25V15.75H23.25Z" fill="#CDC6FF"/>
<path d="M21.375 15.75H0.75V17.25C0.751618 17.3767 0.769386 17.5028 0.802875 17.625H21.375V15.75Z" fill="#F7F5FF"/>
<path d="M10.875 18.75H13.125V21H10.875V18.75Z" fill="#EBE8FE"/>
<path d="M10.875 18.75V20.25H11.625C11.7245 20.25 11.8198 20.2105 11.8902 20.1402C11.9605 20.0698 12 19.9745 12 19.875V18.75H10.875Z" fill="#EBE8FE"/>
<path d="M8.25 21H15.75C16.1478 21 16.5294 21.158 16.8107 21.4393C17.092 21.7206 17.25 22.1022 17.25 22.5V23.25H6.75V22.5C6.75 22.1022 6.90804 21.7206 7.18934 21.4393C7.47064 21.158 7.85218 21 8.25 21Z" fill="#CDC6FF"/>
<path d="M17.625 16.875H18.375V17.625H17.625V16.875Z" fill="#EBE8FE"/>
<path d="M19.125 16.875H19.875V17.625H19.125V16.875Z" fill="#EBE8FE"/>
<path d="M14.795 22.3403C14.9939 22.3403 15.1847 22.2612 15.3253 22.1206C15.466 21.9799 15.545 21.7892 15.545 21.5903V21H8.25048C7.88129 21.0007 7.52542 21.138 7.25145 21.3855C6.97747 21.6329 6.80476 21.973 6.7666 22.3403H14.795Z" fill="#F7F5FF"/>
<path d="M17.25 3.75C17.1758 3.75 17.1033 3.72801 17.0417 3.6868C16.98 3.6456 16.9319 3.58703 16.9035 3.51851C16.8752 3.44998 16.8677 3.37458 16.8822 3.30184C16.8967 3.2291 16.9324 3.16228 16.9848 3.10984C17.0373 3.05739 17.1041 3.02167 17.1768 3.00721C17.2496 2.99274 17.325 3.00016 17.3935 3.02855C17.462 3.05693 17.5206 3.10499 17.5618 3.16666C17.603 3.22833 17.625 3.30083 17.625 3.375H18.375C18.374 3.14315 18.3015 2.91726 18.1672 2.72824C18.033 2.53921 17.8436 2.39628 17.625 2.319V1.875H16.875V2.319C16.625 2.40706 16.4142 2.58075 16.28 2.80932C16.1458 3.0379 16.0968 3.30659 16.1417 3.56782C16.1866 3.82904 16.3226 4.06595 16.5254 4.23656C16.7283 4.40718 16.9849 4.5005 17.25 4.5C17.3242 4.5 17.3967 4.52199 17.4583 4.5632C17.52 4.6044 17.5681 4.66297 17.5965 4.73149C17.6248 4.80002 17.6323 4.87542 17.6178 4.94816C17.6033 5.0209 17.5676 5.08772 17.5152 5.14016C17.4627 5.19261 17.3959 5.22833 17.3232 5.24279C17.2504 5.25726 17.175 5.24984 17.1065 5.22145C17.038 5.19307 16.9794 5.14501 16.9382 5.08334C16.897 5.02167 16.875 4.94917 16.875 4.875H16.125C16.126 5.10685 16.1985 5.33274 16.3328 5.52176C16.467 5.71079 16.6564 5.85372 16.875 5.931V6.375H17.625V5.931C17.875 5.84294 18.0858 5.66925 18.22 5.44068C18.3542 5.2121 18.4032 4.94341 18.3583 4.68218C18.3134 4.42096 18.1774 4.18405 17.9746 4.01344C17.7717 3.84282 17.5151 3.7495 17.25 3.75Z" fill="#FCE797"/>
<path d="M10.5 6H4.5C4.08579 6 3.75 6.33579 3.75 6.75V13.5C3.75 13.9142 4.08579 14.25 4.5 14.25H10.5C10.9142 14.25 11.25 13.9142 11.25 13.5V6.75C11.25 6.33579 10.9142 6 10.5 6Z" fill="#EBE8FE"/>
<path d="M9 6H4.5C4.08579 6 3.75 6.33579 3.75 6.75V13.5C3.75 13.9142 4.08579 14.25 4.5 14.25H9C9.41421 14.25 9.75 13.9142 9.75 13.5V6.75C9.75 6.33579 9.41421 6 9 6Z" fill="#EBE8FE"/>
<path d="M5.25 7.5H9.75V9.75H5.25V7.5Z" fill="#E2E7F6"/>
<path d="M5.25 7.5V8.625H8.25C8.34946 8.625 8.44484 8.58549 8.51517 8.51517C8.58549 8.44484 8.625 8.34946 8.625 8.25V7.5H5.25Z" fill="#F2F2F2"/>
<path d="M4.875 10.875H5.625V11.625H4.875V10.875Z" fill="#F2F2F2"/>
<path d="M6.375 10.875H7.125V11.625H6.375V10.875Z" fill="#F2F2F2"/>
<path d="M7.875 10.875H8.625V11.625H7.875V10.875Z" fill="#F2F2F2"/>
<path d="M9.375 10.875H10.125V11.625H9.375V10.875Z" fill="#F2F2F2"/>
<path d="M4.875 12.375H5.625V13.125H4.875V12.375Z" fill="#F2F2F2"/>
<path d="M6.375 12.375H7.125V13.125H6.375V12.375Z" fill="#F2F2F2"/>
<path d="M7.875 12.375H8.625V13.125H7.875V12.375Z" fill="#F2F2F2"/>
<path d="M9.375 12.375H10.125V13.125H9.375V12.375Z" fill="#F2F2F2"/>
<path d="M13.875 10.5H20.625V11.25H13.875V10.5Z" fill="#F2F2F2"/>
<path d="M13.875 12H20.625V12.75H13.875V12Z" fill="#F2F2F2"/>
<path d="M6 1.875H9V2.625H6V1.875Z" fill="#C8CDED"/>
<path d="M6 3.375H9V4.125H6V3.375Z" fill="#C8CDED"/>
<path d="M21.75 4.125H21C21 3.13044 20.6049 2.17661 19.9016 1.47335C19.1984 0.770088 18.2446 0.375 17.25 0.375C16.2554 0.375 15.3016 0.770088 14.5983 1.47335C13.8951 2.17661 13.5 3.13044 13.5 4.125H10.5V3.375H11.625C11.7245 3.375 11.8198 3.33549 11.8902 3.26516C11.9605 3.19484 12 3.09946 12 3V1.5C12 1.20163 11.8815 0.915483 11.6705 0.704505C11.4595 0.493526 11.1734 0.375 10.875 0.375H5.625C5.32663 0.375 5.04048 0.493526 4.8295 0.704505C4.61853 0.915483 4.5 1.20163 4.5 1.5V4.125H2.25C1.7529 4.1256 1.27633 4.32333 0.924832 4.67483C0.573331 5.02633 0.375595 5.5029 0.375 6V17.25C0.375595 17.7471 0.573331 18.2237 0.924832 18.5752C1.27633 18.9267 1.7529 19.1244 2.25 19.125H10.5V20.625H8.25C7.7529 20.6256 7.27633 20.8233 6.92483 21.1748C6.57333 21.5263 6.3756 22.0029 6.375 22.5V23.25C6.375 23.3495 6.41451 23.4448 6.48483 23.5152C6.55516 23.5855 6.65054 23.625 6.75 23.625H17.25C17.3495 23.625 17.4448 23.5855 17.5152 23.5152C17.5855 23.4448 17.625 23.3495 17.625 23.25V22.5C17.6244 22.0029 17.4267 21.5263 17.0752 21.1748C16.7237 20.8233 16.2471 20.6256 15.75 20.625H13.5V19.125H21.75C22.2471 19.1244 22.7237 18.9267 23.0752 18.5752C23.4267 18.2237 23.6244 17.7471 23.625 17.25V6C23.6244 5.5029 23.4267 5.02633 23.0752 4.67483C22.7237 4.32333 22.2471 4.1256 21.75 4.125ZM17.25 1.125C17.8433 1.125 18.4234 1.30095 18.9167 1.63059C19.4101 1.96024 19.7946 2.42877 20.0216 2.97695C20.2487 3.52513 20.3081 4.12833 20.1924 4.71027C20.0766 5.29221 19.7909 5.82676 19.3713 6.24632C18.9518 6.66588 18.4172 6.9516 17.8353 7.06736C17.2533 7.18311 16.6501 7.1237 16.1019 6.89664C15.5538 6.66958 15.0852 6.28506 14.7556 5.79171C14.4259 5.29836 14.25 4.71834 14.25 4.125C14.2509 3.32962 14.5673 2.56708 15.1297 2.00467C15.6921 1.44225 16.4546 1.12589 17.25 1.125ZM10.5 6.375C10.5995 6.375 10.6948 6.41451 10.7652 6.48483C10.8355 6.55516 10.875 6.65054 10.875 6.75V13.5C10.875 13.5995 10.8355 13.6948 10.7652 13.7652C10.6948 13.8355 10.5995 13.875 10.5 13.875H4.5C4.40054 13.875 4.30516 13.8355 4.23484 13.7652C4.16451 13.6948 4.125 13.5995 4.125 13.5V6.75C4.125 6.65054 4.16451 6.55516 4.23484 6.48483C4.30516 6.41451 4.40054 6.375 4.5 6.375H10.5ZM11.25 1.5V2.625H10.5V1.5C10.5 1.40054 10.5395 1.30516 10.6098 1.23483C10.6802 1.16451 10.7755 1.125 10.875 1.125C10.9745 1.125 11.0698 1.16451 11.1402 1.23483C11.2105 1.30516 11.25 1.40054 11.25 1.5ZM5.625 1.125H9.819C9.77459 1.2451 9.75124 1.37196 9.75 1.5V5.625H5.25V1.5C5.25 1.40054 5.28951 1.30516 5.35984 1.23483C5.43016 1.16451 5.52554 1.125 5.625 1.125ZM2.25 4.875H4.5V5.625C4.20163 5.625 3.91548 5.74353 3.7045 5.9545C3.49353 6.16548 3.375 6.45163 3.375 6.75V13.5C3.375 13.7984 3.49353 14.0845 3.7045 14.2955C3.91548 14.5065 4.20163 14.625 4.5 14.625H10.5C10.7984 14.625 11.0845 14.5065 11.2955 14.2955C11.5065 14.0845 11.625 13.7984 11.625 13.5V6.75C11.625 6.45163 11.5065 6.16548 11.2955 5.9545C11.0845 5.74353 10.7984 5.625 10.5 5.625V4.875H13.575C13.7471 5.72272 14.207 6.48486 14.8768 7.03228C15.5466 7.57971 16.385 7.87876 17.25 7.87876C18.115 7.87876 18.9534 7.57971 19.6232 7.03228C20.293 6.48486 20.7529 5.72272 20.925 4.875H21.75C22.0484 4.875 22.3345 4.99353 22.5455 5.2045C22.7565 5.41548 22.875 5.70163 22.875 6V15.375H1.125V6C1.125 5.70163 1.24353 5.41548 1.4545 5.2045C1.66548 4.99353 1.95163 4.875 2.25 4.875ZM16.875 22.5V22.875H7.125V22.5C7.125 22.2016 7.24353 21.9155 7.4545 21.7045C7.66548 21.4935 7.95163 21.375 8.25 21.375H15.75C16.0484 21.375 16.3345 21.4935 16.5455 21.7045C16.7565 21.9155 16.875 22.2016 16.875 22.5ZM12.75 20.625H11.25V19.125H12.75V20.625ZM21.75 18.375H2.25C1.95163 18.375 1.66548 18.2565 1.4545 18.0455C1.24353 17.8345 1.125 17.5484 1.125 17.25V16.125H22.875V17.25C22.875 17.5484 22.7565 17.8345 22.5455 18.0455C22.3345 18.2565 22.0484 18.375 21.75 18.375Z" fill="#50429B"/>
<path d="M17.625 16.875H18.375V17.625H17.625V16.875Z" fill="#50429B"/>
<path d="M19.125 16.875H19.875V17.625H19.125V16.875Z" fill="#50429B"/>
<path d="M20.625 16.875H21.375V17.625H20.625V16.875Z" fill="#50429B"/>
<path d="M17.25 5.25C17.1505 5.25 17.0552 5.21049 16.9848 5.14016C16.9145 5.06984 16.875 4.97446 16.875 4.875H16.125C16.126 5.10685 16.1985 5.33274 16.3328 5.52176C16.467 5.71079 16.6564 5.85372 16.875 5.931V6.375H17.625V5.931C17.875 5.84294 18.0858 5.66925 18.22 5.44068C18.3542 5.2121 18.4032 4.94341 18.3583 4.68218C18.3134 4.42096 18.1774 4.18405 17.9746 4.01344C17.7717 3.84282 17.5151 3.7495 17.25 3.75C17.1758 3.75 17.1033 3.72801 17.0417 3.6868C16.98 3.6456 16.9319 3.58703 16.9035 3.51851C16.8752 3.44998 16.8677 3.37458 16.8822 3.30184C16.8967 3.2291 16.9324 3.16228 16.9848 3.10984C17.0373 3.05739 17.1041 3.02167 17.1768 3.00721C17.2496 2.99274 17.325 3.00016 17.3935 3.02855C17.462 3.05693 17.5206 3.10499 17.5618 3.16666C17.603 3.22833 17.625 3.30083 17.625 3.375H18.375C18.374 3.14315 18.3015 2.91726 18.1672 2.72824C18.033 2.53921 17.8436 2.39628 17.625 2.319V1.875H16.875V2.319C16.625 2.40706 16.4142 2.58075 16.28 2.80932C16.1458 3.0379 16.0968 3.30659 16.1417 3.56782C16.1866 3.82904 16.3226 4.06595 16.5254 4.23656C16.7283 4.40718 16.9849 4.5005 17.25 4.5C17.3495 4.5 17.4448 4.53951 17.5152 4.60984C17.5855 4.68016 17.625 4.77554 17.625 4.875C17.625 4.97446 17.5855 5.06984 17.5152 5.14016C17.4448 5.21049 17.3495 5.25 17.25 5.25Z" fill="#50429B"/>
<path d="M5.25 10.125H9.75C9.84946 10.125 9.94484 10.0855 10.0152 10.0152C10.0855 9.94484 10.125 9.84946 10.125 9.75V7.5C10.125 7.40054 10.0855 7.30516 10.0152 7.23483C9.94484 7.16451 9.84946 7.125 9.75 7.125H5.25C5.15054 7.125 5.05516 7.16451 4.98484 7.23483C4.91451 7.30516 4.875 7.40054 4.875 7.5V9.75C4.875 9.84946 4.91451 9.94484 4.98484 10.0152C5.05516 10.0855 5.15054 10.125 5.25 10.125ZM5.625 7.875H9.375V9.375H5.625V7.875Z" fill="#50429B"/>
<path d="M4.875 10.875H5.625V11.625H4.875V10.875Z" fill="#50429B"/>
<path d="M6.375 10.875H7.125V11.625H6.375V10.875Z" fill="#50429B"/>
<path d="M7.875 10.875H8.625V11.625H7.875V10.875Z" fill="#50429B"/>
<path d="M9.375 10.875H10.125V11.625H9.375V10.875Z" fill="#50429B"/>
<path d="M4.875 12.375H5.625V13.125H4.875V12.375Z" fill="#50429B"/>
<path d="M6.375 12.375H7.125V13.125H6.375V12.375Z" fill="#50429B"/>
<path d="M7.875 12.375H8.625V13.125H7.875V12.375Z" fill="#50429B"/>
<path d="M9.375 12.375H10.125V13.125H9.375V12.375Z" fill="#50429B"/>
<path d="M13.5 14.625H21C21.2984 14.625 21.5845 14.5065 21.7955 14.2955C22.0065 14.0845 22.125 13.7984 22.125 13.5V9.75C22.125 9.45163 22.0065 9.16548 21.7955 8.9545C21.5845 8.74353 21.2984 8.625 21 8.625H13.5C13.2016 8.625 12.9155 8.74353 12.7045 8.9545C12.4935 9.16548 12.375 9.45163 12.375 9.75V13.5C12.375 13.7984 12.4935 14.0845 12.7045 14.2955C12.9155 14.5065 13.2016 14.625 13.5 14.625ZM13.125 9.75C13.125 9.65054 13.1645 9.55516 13.2348 9.48483C13.3052 9.41451 13.4005 9.375 13.5 9.375H21C21.0995 9.375 21.1948 9.41451 21.2652 9.48483C21.3355 9.55516 21.375 9.65054 21.375 9.75V13.5C21.375 13.5995 21.3355 13.6948 21.2652 13.7652C21.1948 13.8355 21.0995 13.875 21 13.875H13.5C13.4005 13.875 13.3052 13.8355 13.2348 13.7652C13.1645 13.6948 13.125 13.5995 13.125 13.5V9.75Z" fill="#50429B"/>
<path d="M13.875 10.5H20.625V11.25H13.875V10.5Z" fill="#50429B"/>
<path d="M13.875 12H20.625V12.75H13.875V12Z" fill="#50429B"/>
<path d="M6 1.875H9V2.625H6V1.875Z" fill="#50429B"/>
<path d="M6 3.375H9V4.125H6V3.375Z" fill="#50429B"/>
</g>
<defs>
<clipPath id="clip0_10141_508886">
<rect width="24" height="24" fill="white"/>
</clipPath>
</defs>
</svg>
