<svg width="28" height="28" viewBox="0 0 28 28" fill="none" xmlns="http://www.w3.org/2000/svg">
<path d="M6.99984 9.61328C6.84513 9.61328 6.69675 9.67474 6.58736 9.78414C6.47796 9.89353 6.4165 10.0419 6.4165 10.1966V11.4635C6.4165 11.6183 6.47796 11.7666 6.58736 11.876C6.69675 11.9854 6.84513 12.0469 6.99984 12.0469C7.15455 12.0469 7.30292 11.9854 7.41232 11.876C7.52171 11.7666 7.58317 11.6183 7.58317 11.4635V10.1966C7.58317 10.0419 7.52171 9.89353 7.41232 9.78414C7.30292 9.67474 7.15455 9.61328 6.99984 9.61328Z" fill="white"/>
<path d="M6.99984 12.7812C6.84513 12.7812 6.69675 12.8427 6.58736 12.9521C6.47796 13.0615 6.4165 13.2099 6.4165 13.3646V14.6315C6.4165 14.7862 6.47796 14.9346 6.58736 15.044C6.69675 15.1534 6.84513 15.2148 6.99984 15.2148C7.15455 15.2148 7.30292 15.1534 7.41232 15.044C7.52171 14.9346 7.58317 14.7862 7.58317 14.6315V13.3646C7.58317 13.2099 7.52171 13.0615 7.41232 12.9521C7.30292 12.8427 7.15455 12.7812 6.99984 12.7812Z" fill="white"/>
<path d="M6.99984 15.9492C6.84513 15.9492 6.69675 16.0107 6.58736 16.1201C6.47796 16.2295 6.4165 16.3778 6.4165 16.5326V17.7995C6.4165 17.9542 6.47796 18.1026 6.58736 18.212C6.69675 18.3214 6.84513 18.3828 6.99984 18.3828C7.15455 18.3828 7.30292 18.3214 7.41232 18.212C7.52171 18.1026 7.58317 17.9542 7.58317 17.7995V16.5326C7.58317 16.3778 7.52171 16.2295 7.41232 16.1201C7.30292 16.0107 7.15455 15.9492 6.99984 15.9492Z" fill="white"/>
<path d="M5.17236 2.91797C4.49293 2.97486 3.87393 3.42769 3.64795 4.11084L2.87093 6.45671C1.92357 6.53593 1.1665 7.33149 1.1665 8.29785V10.6187C1.16669 10.8718 1.33006 11.0959 1.57096 11.1735C2.29868 11.4084 2.91625 12.3226 2.9165 13.4419C2.9166 14.5615 2.29891 15.4765 1.57096 15.7114C1.33006 15.7891 1.16669 16.0132 1.1665 16.2663V19.7526C1.1665 20.7707 2.00435 21.6086 3.02246 21.6086H12.2316L22.1357 24.9901C23.05 25.3023 24.0504 24.7913 24.3517 23.8804L25.1082 21.5949C26.0652 21.5257 26.8332 20.7259 26.8332 19.7526V16.2651C26.833 16.012 26.6696 15.7879 26.4287 15.7103C25.701 15.4754 25.0834 14.5612 25.0832 13.4419C25.0831 12.3223 25.7008 11.4073 26.4287 11.1724C26.6696 11.0947 26.833 10.8706 26.8332 10.6175V8.29785C26.8332 7.27974 25.9953 6.44189 24.9772 6.44189H15.7703L5.86735 3.00114C5.63808 2.92085 5.38819 2.931 5.17236 2.91797ZM5.25781 4.07552C5.33346 4.07036 5.41238 4.08032 5.49137 4.10628C7.7321 4.88437 9.97271 5.66325 12.2134 6.44189H4.10482L4.75537 4.47656C4.83377 4.23957 5.03087 4.091 5.25781 4.07552ZM3.02246 7.60856H6.4165V8.16341C6.4165 8.48558 6.67767 8.74675 6.99984 8.74675C7.322 8.74675 7.58317 8.48558 7.58317 8.16341V7.60856H24.9772C25.3693 7.60856 25.6665 7.90578 25.6665 8.29785V10.2837C24.5892 10.8513 23.9164 12.0745 23.9165 13.4419C23.9168 14.8088 24.5895 16.0316 25.6665 16.599V19.7526C25.6665 20.1447 25.3693 20.4419 24.9772 20.4419H7.58203C7.58493 20.2406 7.58317 20.0334 7.58317 19.8301C7.58317 19.5079 7.322 19.2467 6.99984 19.2467C6.67767 19.2467 6.4165 19.5079 6.4165 19.8301C6.41534 20.0325 6.417 20.2418 6.41767 20.4419H3.02249C2.6303 20.4419 2.33317 20.1447 2.33317 19.7526V16.6001C3.41052 16.0325 4.08329 14.8093 4.08317 13.4419C4.08287 12.0749 3.41021 10.8522 2.33317 10.2848V8.29785C2.33317 7.90578 2.63039 7.60856 3.02246 7.60856ZM15.8421 21.6086H23.8743L23.2443 23.5135C23.1396 23.8299 22.8219 23.9916 22.5129 23.8861L15.8421 21.6086Z" fill="white"/>
<path d="M19.1113 14.9102C20.1497 14.9102 21.0037 15.7642 21.0037 16.8026C21.0037 17.841 20.1497 18.6961 19.1113 18.6961C18.0729 18.6961 17.2178 17.841 17.2178 16.8026C17.2178 15.7642 18.0729 14.9102 19.1113 14.9102ZM19.1113 16.0768C18.7034 16.0768 18.3844 16.3947 18.3844 16.8026C18.3844 17.2105 18.7034 17.5295 19.1113 17.5295C19.5192 17.5295 19.8371 17.2105 19.8371 16.8026C19.8371 16.3947 19.5192 16.0768 19.1113 16.0768Z" fill="white"/>
<path d="M13.5562 9.35547C14.5946 9.35547 15.4486 10.2095 15.4486 11.2479C15.4486 12.2863 14.5946 13.1403 13.5562 13.1403C12.5177 13.1403 11.6626 12.2863 11.6626 11.2479C11.6626 10.2095 12.5177 9.35547 13.5562 9.35547ZM13.5562 10.5221C13.1483 10.5221 12.8293 10.84 12.8293 11.2479C12.8293 11.6558 13.1483 11.9736 13.5562 11.9736C13.964 11.9736 14.2819 11.6558 14.2819 11.2479C14.2819 10.84 13.964 10.5221 13.5562 10.5221Z" fill="white"/>
<path d="M18.6983 10.8353L13.143 16.3906C12.9152 16.6184 12.9152 16.9877 13.143 17.2155C13.3708 17.4432 13.7401 17.4432 13.9678 17.2155L19.5232 11.6602C19.7509 11.4324 19.7509 11.0631 19.5232 10.8353C19.2849 10.6234 18.923 10.6012 18.6983 10.8353Z" fill="white"/>
</svg>
