<svg width="24" height="24" viewBox="0 0 24 24" fill="none" xmlns="http://www.w3.org/2000/svg">
<g id="icon/qr">
<path id="Vector" d="M9.75 7.05V9.75H7.05V7.05H9.75ZM11.1 5.7H5.7V11.1H11.1V5.7ZM9.75 14.25V16.95H7.05V14.25H9.75ZM11.1 12.9H5.7V18.3H11.1V12.9ZM16.95 7.05V9.75H14.25V7.05H16.95ZM18.3 5.7H12.9V11.1H18.3V5.7ZM12.9 12.9H14.25V14.25H12.9V12.9ZM14.25 14.25H15.6V15.6H14.25V14.25ZM15.6 12.9H16.95V14.25H15.6V12.9ZM12.9 15.6H14.25V16.95H12.9V15.6ZM14.25 16.95H15.6V18.3H14.25V16.95ZM15.6 15.6H16.95V16.95H15.6V15.6ZM16.95 14.25H18.3V15.6H16.95V14.25ZM16.95 16.95H18.3V18.3H16.95V16.95ZM20.1 7.5C19.605 7.5 19.2 7.095 19.2 6.6V4.8H17.4C16.905 4.8 16.5 4.395 16.5 3.9C16.5 3.405 16.905 3 17.4 3H20.1C20.595 3 21 3.405 21 3.9V6.6C21 7.095 20.595 7.5 20.1 7.5ZM21 20.1V17.4C21 16.905 20.595 16.5 20.1 16.5C19.605 16.5 19.2 16.905 19.2 17.4V19.2H17.4C16.905 19.2 16.5 19.605 16.5 20.1C16.5 20.595 16.905 21 17.4 21H20.1C20.595 21 21 20.595 21 20.1ZM3.9 21H6.6C7.095 21 7.5 20.595 7.5 20.1C7.5 19.605 7.095 19.2 6.6 19.2H4.8V17.4C4.8 16.905 4.395 16.5 3.9 16.5C3.405 16.5 3 16.905 3 17.4V20.1C3 20.595 3.405 21 3.9 21ZM3 3.9V6.6C3 7.095 3.405 7.5 3.9 7.5C4.395 7.5 4.8 7.095 4.8 6.6V4.8H6.6C7.095 4.8 7.5 4.395 7.5 3.9C7.5 3.405 7.095 3 6.6 3H3.9C3.405 3 3 3.405 3 3.9Z" fill="#817CBA"/>
</g>
</svg>
