<svg width="61" height="60" viewBox="0 0 61 60" fill="none" xmlns="http://www.w3.org/2000/svg">
<g id="icon/warning">
<path id="Vector" d="M10.7494 52.5H50.2506C54.2899 52.5 56.8079 48.0814 54.7882 44.5623L35.0376 10.1393C33.018 6.62024 27.982 6.62024 25.9624 10.1393L6.21178 44.5623C4.19214 48.0814 6.71014 52.5 10.7494 52.5ZM30.5 33.9788C29.0574 33.9788 27.8771 32.7881 27.8771 31.3329V26.0411C27.8771 24.5858 29.0574 23.3952 30.5 23.3952C31.9426 23.3952 33.1229 24.5858 33.1229 26.0411V31.3329C33.1229 32.7881 31.9426 33.9788 30.5 33.9788ZM33.1229 44.5623H27.8771V39.2705H33.1229V44.5623Z" fill="#50429B"/>
</g>
</svg>
