<svg xmlns="http://www.w3.org/2000/svg" width="24" height="24" viewBox="0 0 24 24" fill="none">
  <g clip-path="url(#clip0_166_7388)">
    <path d="M0 16.1724C0 16.3245 0.0493438 16.4725 0.140625 16.5942C0.933281 17.6513 2.2125 18.2817 3.5625 18.2817C4.04795 18.2817 4.52545 18.1965 4.97461 18.0363C5.8538 17.7227 6.8962 17.7227 7.77539 18.0363C8.22455 18.1965 8.70205 18.2817 9.1875 18.2817C9.67033 18.2817 10.148 18.1972 10.599 18.0365C11.4785 17.723 12.5215 17.723 13.401 18.0365C13.8517 18.1971 14.3294 18.2817 14.8125 18.2817C15.2979 18.2817 15.7754 18.1965 16.2246 18.0363C17.1038 17.7227 18.1462 17.7227 19.0254 18.0363C19.4746 18.1965 19.9521 18.2817 20.4375 18.2817C21.788 18.2817 23.0667 17.6513 23.8594 16.5942C23.9507 16.4725 24 16.3245 24 16.1724V14.4946C24 13.4796 23.1772 12.6567 22.1622 12.6567H1.83784C0.822827 12.6567 0 13.4796 0 14.4946V16.1724Z" fill="black"/>
    <path d="M21.8906 8.43726H2.10938C0.946406 8.43726 0 9.38366 0 10.5466C0 10.935 0.3148 11.2498 0.703125 11.2498H23.2969C23.6852 11.2498 24 10.935 24 10.5466C24 9.38366 23.0536 8.43726 21.8906 8.43726Z" fill="black"/>
    <path d="M3.49154 4.31502C3.88584 4.70324 4.26758 5.1712 4.26758 5.72454V6.32812C4.26758 6.71645 4.58238 7.03125 4.9707 7.03125C5.35903 7.03125 5.67383 6.71645 5.67383 6.32812V5.72454C5.67383 5.1712 6.05557 4.70324 6.44987 4.31502C6.83867 3.93221 7.08008 3.40007 7.08008 2.8125V1.83784C7.08008 0.822828 6.25725 0 5.24224 0H4.69917C3.68416 0 2.86133 0.822828 2.86133 1.83784V2.8125C2.86133 3.40007 3.10273 3.93221 3.49154 4.31502Z" fill="black"/>
    <path d="M17.5511 4.31502C17.9454 4.70324 18.3271 5.1712 18.3271 5.72454V6.32812C18.3271 6.71645 18.6419 7.03125 19.0303 7.03125C19.4186 7.03125 19.7334 6.71645 19.7334 6.32812V5.72454C19.7334 5.1712 20.1151 4.70324 20.5094 4.31502C20.8982 3.93221 21.1396 3.40007 21.1396 2.8125V1.83784C21.1396 0.822828 20.3168 0 19.3018 0H18.7587C17.7437 0 16.9209 0.822828 16.9209 1.83784V2.8125C16.9209 3.40007 17.1623 3.93221 17.5511 4.31502Z" fill="black"/>
    <path d="M13.3639 3.00471C12.9911 2.89705 12.7033 2.57452 12.7033 2.18648V2.10937C12.7033 1.72105 12.3885 1.40625 12.0002 1.40625C11.6118 1.40625 11.297 1.72105 11.297 2.10937V2.18647C11.297 2.57451 11.0092 2.89704 10.6364 3.0047C9.48557 3.33705 8.50685 4.07901 7.86906 5.06165C7.25991 6.00016 8.13038 7.03111 9.24924 7.03111H14.7511C15.8699 7.03111 16.7404 6.00016 16.1312 5.06166C15.4935 4.07902 14.5147 3.33707 13.3639 3.00471Z" fill="black"/>
    <path d="M14.1094 20.9962C14.1094 20.2226 13.5282 19.5917 12.8056 19.3156C12.2929 19.1196 11.698 19.1243 11.1849 19.3193C10.4618 19.5942 9.89062 20.2227 9.89062 20.9963V21.1873C9.89062 21.9639 9.26103 22.5935 8.48438 22.5935H7.78125C7.39292 22.5935 7.07812 22.9083 7.07812 23.2967C7.07812 23.685 7.39292 23.9998 7.78125 23.9998H16.2188C16.6071 23.9998 16.9219 23.685 16.9219 23.2967C16.9219 22.9083 16.6071 22.5935 16.2188 22.5935H15.5156C14.739 22.5935 14.1094 21.9639 14.1094 21.1873V20.9962Z" fill="black"/>
  </g>
  <defs>
    <clipPath id="clip0_166_7388">
      <rect width="24" height="24" fill="white"/>
    </clipPath>
  </defs>
</svg>