<svg width="28" height="28" viewBox="0 0 28 28" fill="none" xmlns="http://www.w3.org/2000/svg">
<path d="M26.0867 9.6485L25.7483 6.41683C25.2583 2.8935 23.66 1.4585 20.2417 1.4585H17.4883H15.7617H12.215H10.4883H7.68834C4.25834 1.4585 2.67167 2.8935 2.17 6.45183L1.855 9.66016C1.73834 10.9085 2.07667 12.1218 2.81167 13.0668C3.69834 14.2218 5.06334 14.8752 6.58 14.8752C8.05 14.8752 9.46167 14.1402 10.3483 12.9618C11.1417 14.1402 12.495 14.8752 14 14.8752C15.505 14.8752 16.8233 14.1752 17.6283 13.0085C18.5267 14.1635 19.915 14.8752 21.3617 14.8752C22.9133 14.8752 24.3133 14.1868 25.1883 12.9735C25.8883 12.0402 26.2033 10.8618 26.0867 9.6485Z" fill="#50429B"/>
<path d="M13.2417 19.4366C11.76 19.5883 10.64 20.8483 10.64 22.3416V25.5383C10.64 25.8533 10.8967 26.11 11.2117 26.11H16.7767C17.0917 26.11 17.3483 25.8533 17.3483 25.5383V22.75C17.36 20.3116 15.925 19.1566 13.2417 19.4366Z" fill="#50429B"/>
<path d="M24.9317 16.8001V20.2768C24.9317 23.4968 22.3183 26.1101 19.0983 26.1101C18.7833 26.1101 18.5267 25.8534 18.5267 25.5384V22.7501C18.5267 21.2568 18.0717 20.0901 17.185 19.2968C16.4033 18.5851 15.3417 18.2351 14.0233 18.2351C13.7317 18.2351 13.44 18.2468 13.125 18.2818C11.0483 18.4918 9.47334 20.2418 9.47334 22.3418V25.5384C9.47334 25.8534 9.21667 26.1101 8.90167 26.1101C5.68167 26.1101 3.06834 23.4968 3.06834 20.2768V16.8234C3.06834 16.0068 3.87334 15.4584 4.63167 15.7268C4.94667 15.8318 5.26167 15.9134 5.58834 15.9601C5.72834 15.9834 5.88 16.0068 6.02 16.0068C6.20667 16.0301 6.39334 16.0418 6.58 16.0418C7.93334 16.0418 9.26334 15.5401 10.3133 14.6768C11.3167 15.5401 12.6233 16.0418 14 16.0418C15.3883 16.0418 16.6717 15.5634 17.675 14.7001C18.725 15.5518 20.0317 16.0418 21.3617 16.0418C21.5717 16.0418 21.7817 16.0301 21.98 16.0068C22.12 15.9951 22.2483 15.9834 22.3767 15.9601C22.7383 15.9134 23.065 15.8084 23.3917 15.7034C24.15 15.4468 24.9317 16.0068 24.9317 16.8001Z" fill="#50429B"/>
</svg>
