<svg width="24" height="24" viewBox="0 0 24 24" fill="none" xmlns="http://www.w3.org/2000/svg">
<path d="M22.3594 7.71429H0.9375C0.419719 7.71429 0 8.18023 0 8.75502V21.4286H23.2969V8.75502C23.2969 8.18023 22.8772 7.71429 22.3594 7.71429Z" fill="#F7F5FF"/>
<path d="M22.3594 7.71429H21.1807V21.4286H23.2969V8.75502C23.2969 8.18023 22.8772 7.71429 22.3594 7.71429Z" fill="#EBE8FE"/>
<g clip-path="url(#clip0_10141_508702)">
<path fill-rule="evenodd" clip-rule="evenodd" d="M2.81934 4.72236C2.81942 4.61915 2.85011 4.51829 2.90754 4.43253C2.96496 4.34678 3.04653 4.27998 3.14193 4.24059C3.23732 4.20121 3.34226 4.191 3.44345 4.21127C3.54465 4.23154 3.63756 4.28137 3.71043 4.35445C3.7833 4.42754 3.83286 4.5206 3.85282 4.62186C3.87279 4.72311 3.86227 4.82802 3.82261 4.9233C3.78294 5.01857 3.7159 5.09994 3.62997 5.15711C3.54404 5.21428 3.44309 5.24468 3.33988 5.24445C3.20171 5.24395 3.06937 5.18873 2.97182 5.09088C2.87426 4.99304 2.81943 4.86053 2.81934 4.72236Z" fill="#FF8C21"/>
<path fill-rule="evenodd" clip-rule="evenodd" d="M6.1123 4.72236C6.11239 4.61914 6.14309 4.51827 6.20052 4.43251C6.25796 4.34675 6.33954 4.27995 6.43495 4.24057C6.53036 4.20119 6.63531 4.191 6.73651 4.21129C6.83771 4.23157 6.93062 4.28143 7.00348 4.35454C7.07634 4.42765 7.12588 4.52073 7.14582 4.622C7.16576 4.72327 7.15521 4.82818 7.11551 4.92346C7.0758 5.01873 7.00873 5.10009 6.92277 5.15723C6.83681 5.21437 6.73583 5.24472 6.63262 5.24445C6.49449 5.24388 6.36221 5.18864 6.2647 5.0908C6.1672 4.99296 6.1124 4.86049 6.1123 4.72236Z" fill="#FF8C21"/>
<path fill-rule="evenodd" clip-rule="evenodd" d="M9.40527 4.72236C9.40536 4.61914 9.43606 4.51827 9.49349 4.43251C9.55092 4.34675 9.63251 4.27995 9.72792 4.24057C9.82333 4.20119 9.92827 4.191 10.0295 4.21129C10.1307 4.23157 10.2236 4.28143 10.2965 4.35454C10.3693 4.42765 10.4188 4.52073 10.4388 4.622C10.4587 4.72327 10.4482 4.82818 10.4085 4.92346C10.3688 5.01873 10.3017 5.10009 10.2157 5.15723C10.1298 5.21437 10.0288 5.24472 9.92559 5.24445C9.78746 5.24388 9.65518 5.18864 9.55767 5.0908C9.46016 4.99296 9.40537 4.86049 9.40527 4.72236Z" fill="#FF8C21"/>
<path fill-rule="evenodd" clip-rule="evenodd" d="M16.406 18.1164C16.4051 18.5444 16.2346 18.9545 15.9318 19.257C15.629 19.5595 15.2187 19.7295 14.7907 19.7299H9.20677C8.77903 19.7294 8.36896 19.5593 8.06655 19.2568C7.76414 18.9543 7.5941 18.5441 7.59375 18.1164V11.9882C7.59396 11.9335 7.61576 11.8809 7.65442 11.8421C7.69308 11.8033 7.74549 11.7813 7.80028 11.7808H9.76711V12.8888C9.76592 12.9264 9.77231 12.9639 9.7859 12.9991C9.79949 13.0342 9.82 13.0663 9.84623 13.0934C9.87245 13.1204 9.90384 13.1419 9.93854 13.1566C9.97324 13.1713 10.0105 13.1789 10.0482 13.1789C10.0859 13.1789 10.1232 13.1713 10.1579 13.1566C10.1926 13.1419 10.224 13.1204 10.2502 13.0934C10.2764 13.0663 10.2969 13.0342 10.3105 12.9991C10.3241 12.9639 10.3305 12.9264 10.3293 12.8888V11.7808H13.6704V12.8888C13.6691 12.9265 13.6754 12.9641 13.689 12.9993C13.7025 13.0345 13.723 13.0667 13.7492 13.0938C13.7755 13.121 13.8069 13.1425 13.8416 13.1573C13.8764 13.172 13.9137 13.1796 13.9515 13.1796C13.9892 13.1796 14.0266 13.172 14.0613 13.1573C14.0961 13.1425 14.1275 13.121 14.1537 13.0938C14.1799 13.0667 14.2004 13.0345 14.214 12.9993C14.2275 12.9641 14.2339 12.9265 14.2326 12.8888V11.7808H16.1972C16.2522 11.7812 16.3049 11.8031 16.3439 11.8419C16.383 11.8807 16.4052 11.9332 16.406 11.9882V18.1164Z" fill="#FF8C21"/>
<path fill-rule="evenodd" clip-rule="evenodd" d="M12.4231 18.7827C12.4231 18.8819 12.3837 18.9771 12.3137 19.0474C12.2436 19.1177 12.1486 19.1574 12.0493 19.1577H9.09034C8.99088 19.1577 8.8955 19.1182 8.82517 19.0479C8.75484 18.9775 8.71534 18.8822 8.71534 18.7827C8.71534 18.6832 8.75484 18.5879 8.82517 18.5175C8.8955 18.4472 8.99088 18.4077 9.09034 18.4077H12.0493C12.1486 18.408 12.2436 18.4477 12.3137 18.518C12.3837 18.5883 12.4231 18.6835 12.4231 18.7827ZM16.313 18.1166V11.9883C16.3123 11.9582 16.2999 11.9294 16.2785 11.9082C16.257 11.887 16.2282 11.875 16.198 11.8746H14.3271V12.8888C14.3286 12.939 14.32 12.9889 14.3018 13.0357C14.2837 13.0825 14.2563 13.1251 14.2213 13.1611C14.1864 13.1971 14.1446 13.2258 14.0983 13.2453C14.0521 13.2648 14.0025 13.2749 13.9523 13.2749C13.9021 13.2749 13.8524 13.2648 13.8062 13.2453C13.76 13.2258 13.7182 13.1971 13.6832 13.1611C13.6483 13.1251 13.6209 13.0825 13.6027 13.0357C13.5846 12.9889 13.576 12.939 13.5774 12.8888V11.8746H10.4239V12.8888C10.4254 12.939 10.4168 12.9889 10.3986 13.0357C10.3804 13.0825 10.3531 13.1251 10.3181 13.1611C10.2832 13.1971 10.2413 13.2258 10.1951 13.2453C10.1489 13.2648 10.0992 13.2749 10.049 13.2749C9.99887 13.2749 9.9492 13.2648 9.90298 13.2453C9.85677 13.2258 9.81494 13.1971 9.77999 13.1611C9.74504 13.1251 9.71766 13.0825 9.69949 13.0357C9.68132 12.9889 9.67273 12.939 9.67421 12.8888V11.8746H7.80109C7.77116 11.8751 7.74259 11.8872 7.72151 11.9085C7.70043 11.9297 7.68851 11.9584 7.6883 11.9883V18.1165C7.68864 18.5193 7.8488 18.9056 8.13363 19.1905C8.41846 19.4755 8.8047 19.6357 9.20757 19.6362H14.7915C15.1946 19.6358 15.5811 19.4757 15.8664 19.1908C16.1516 18.9059 16.3122 18.5197 16.313 18.1166ZM10.4239 11.0223C10.4239 10.6041 10.59 10.2031 10.8857 9.90736C11.1814 9.61166 11.5825 9.44553 12.0007 9.44553C12.4189 9.44553 12.8199 9.61166 13.1156 9.90736C13.4113 10.2031 13.5774 10.6041 13.5774 11.0223V11.1245H10.4239V11.0223ZM16.198 11.1245H14.3271V11.0223C14.3271 10.4053 14.082 9.81356 13.6457 9.37726C13.2094 8.94097 12.6177 8.69586 12.0007 8.69586C11.3837 8.69586 10.7919 8.94097 10.3556 9.37726C9.91932 9.81356 9.67421 10.4053 9.67421 11.0223V11.1245H7.80109C7.57226 11.125 7.35296 11.2162 7.19128 11.3781C7.02959 11.54 6.93872 11.7595 6.93859 11.9883V18.1165C6.93908 18.7182 7.17827 19.2951 7.60366 19.7206C8.02905 20.1461 8.60589 20.3854 9.20757 20.3861H14.7915C15.3935 20.3859 15.9708 20.1467 16.3966 19.7212C16.8225 19.2956 17.062 18.7185 17.0626 18.1165V11.9883C17.0624 11.7591 16.9711 11.5394 16.809 11.3775C16.6469 11.2155 16.4272 11.1245 16.198 11.1245ZM13.5885 4.72231C13.5885 4.673 13.5983 4.62417 13.6172 4.57863C13.6361 4.53309 13.6638 4.49172 13.6988 4.4569C13.7337 4.42207 13.7751 4.39447 13.8207 4.37566C13.8663 4.35686 13.9151 4.34723 13.9644 4.34731H21.4613C21.5608 4.34731 21.6561 4.38682 21.7265 4.45715C21.7968 4.52747 21.8363 4.62286 21.8363 4.72231C21.8363 4.82177 21.7968 4.91715 21.7265 4.98748C21.6561 5.0578 21.5608 5.09731 21.4613 5.09731H13.9644C13.9151 5.0974 13.8663 5.08776 13.8207 5.06896C13.7751 5.05016 13.7337 5.02255 13.6988 4.98773C13.6638 4.9529 13.6361 4.91153 13.6172 4.86599C13.5983 4.82045 13.5885 4.77163 13.5885 4.72231ZM9.9263 4.29397C10.0111 4.29367 10.094 4.31854 10.1647 4.36543C10.2353 4.41231 10.2905 4.47911 10.3231 4.55735C10.3558 4.63559 10.3645 4.72177 10.3481 4.80495C10.3317 4.88814 10.2911 4.96461 10.2312 5.02466C10.1714 5.08472 10.0951 5.12566 10.0119 5.14231C9.92879 5.15896 9.84259 5.15057 9.76423 5.11819C9.68588 5.08582 9.61889 5.03092 9.57176 4.96044C9.52462 4.88997 9.49946 4.80709 9.49946 4.72231C9.49966 4.60903 9.54464 4.50042 9.62461 4.42017C9.70457 4.33993 9.81302 4.29456 9.9263 4.29397ZM9.9263 5.9008C10.1595 5.90118 10.3875 5.83238 10.5816 5.70312C10.7756 5.57386 10.927 5.38994 11.0165 5.17463C11.1059 4.95933 11.1296 4.72231 11.0843 4.49358C11.039 4.26485 10.927 4.05469 10.7622 3.88968C10.5975 3.72467 10.3875 3.61224 10.1588 3.56661C9.93019 3.52099 9.69314 3.54421 9.47768 3.63335C9.26223 3.72249 9.07806 3.87354 8.94849 4.06738C8.81891 4.26122 8.74974 4.48915 8.74974 4.72231C8.7501 5.03442 8.87411 5.33368 9.09463 5.55455C9.31514 5.77543 9.61419 5.89993 9.9263 5.9008ZM6.63343 4.29397C6.71821 4.29367 6.80117 4.31854 6.87181 4.36543C6.94245 4.41231 6.99759 4.47911 7.03024 4.55735C7.06289 4.63559 7.07158 4.72177 7.05522 4.80495C7.03887 4.88814 6.99819 4.96461 6.93835 5.02466C6.8785 5.08472 6.80218 5.12566 6.71905 5.14231C6.63592 5.15896 6.54971 5.15057 6.47136 5.11819C6.393 5.08582 6.32601 5.03092 6.27888 4.96044C6.23175 4.88997 6.20659 4.80709 6.20659 4.72231C6.20678 4.60903 6.25177 4.50042 6.33173 4.42017C6.4117 4.33993 6.52015 4.29456 6.63343 4.29397ZM6.63343 5.9008C6.86659 5.90118 7.09463 5.83238 7.28868 5.70312C7.48274 5.57386 7.63408 5.38994 7.72358 5.17463C7.81307 4.95933 7.83668 4.72231 7.79142 4.49358C7.74617 4.26485 7.63408 4.05469 7.46935 3.88968C7.30461 3.72467 7.09463 3.61224 6.86597 3.56661C6.63731 3.52099 6.40026 3.54421 6.18481 3.63335C5.96936 3.72249 5.78519 3.87354 5.65561 4.06738C5.52603 4.26122 5.45687 4.48915 5.45687 4.72231C5.45723 5.03442 5.58124 5.33368 5.80175 5.55455C6.02227 5.77543 6.32132 5.89993 6.63343 5.9008ZM3.34055 4.29397C3.42534 4.29367 3.5083 4.31854 3.57894 4.36543C3.64958 4.41231 3.70471 4.47911 3.73736 4.55735C3.77001 4.63559 3.77871 4.72177 3.76235 4.80495C3.74599 4.88814 3.70532 4.96461 3.64547 5.02466C3.58563 5.08472 3.50931 5.12566 3.42617 5.14231C3.34304 5.15896 3.25684 5.15057 3.17848 5.11819C3.10013 5.08582 3.03314 5.03092 2.98601 4.96044C2.93887 4.88997 2.91371 4.80709 2.91371 4.72231C2.91391 4.60903 2.95889 4.50042 3.03886 4.42017C3.11882 4.33993 3.22727 4.29456 3.34055 4.29397ZM3.34055 5.9008C3.57363 5.90075 3.80145 5.83159 3.99522 5.70207C4.18899 5.57255 4.34 5.38848 4.42916 5.17314C4.51833 4.95779 4.54163 4.72085 4.49613 4.49226C4.45063 4.26367 4.33838 4.05371 4.17355 3.88892C4.00873 3.72412 3.79874 3.61191 3.57014 3.56646C3.34155 3.521 3.10461 3.54435 2.88928 3.63356C2.67395 3.72276 2.48991 3.87381 2.36043 4.06761C2.23095 4.2614 2.16184 4.48924 2.16184 4.72231C2.1622 5.0348 2.2865 5.33437 2.50749 5.55531C2.72847 5.77625 3.02807 5.9005 3.34055 5.9008ZM21.9854 21.4459C22.3208 21.4453 22.6423 21.3117 22.8794 21.0745C23.1166 20.8372 23.25 20.5157 23.2504 20.1802V7.63583H0.750945V20.1802C0.750945 20.5158 0.884191 20.8376 1.12139 21.0749C1.35859 21.3123 1.68032 21.4457 2.01587 21.4459H21.9854ZM2.01573 2.55927C1.68018 2.55945 1.35845 2.69288 1.12125 2.93021C0.88405 3.16754 0.750805 3.48935 0.750805 3.82489V6.88583H23.2504V3.82489C23.25 3.48947 23.1166 3.16791 22.8794 2.93067C22.6423 2.69343 22.3208 2.55987 21.9854 2.55927H2.01573ZM21.9853 1.80927H2.01573C1.48119 1.80972 0.968665 2.0222 0.59059 2.40007C0.212515 2.77794 -0.000231935 3.29035 -0.000976562 3.82489V20.1802C-0.000244253 20.7148 0.212518 21.2272 0.590626 21.6051C0.968734 21.983 1.4813 22.1955 2.01587 22.1959H21.9854C22.5196 22.195 23.0317 21.9823 23.4094 21.6045C23.787 21.2266 23.9994 20.7145 24.0001 20.1802V3.82489C23.9995 3.29062 23.7871 2.77836 23.4095 2.40045C23.0318 2.02254 22.5195 1.81015 21.9853 1.80927Z" fill="#50429B"/>
<path d="M2.06543 17.2441H4.14485C4.33905 17.2441 4.49641 17.0868 4.49641 16.8926C4.49641 16.6984 4.33905 16.541 4.14485 16.541H2.06543C1.87123 16.541 1.71387 16.6984 1.71387 16.8926C1.71387 17.0868 1.87123 17.2441 2.06543 17.2441Z" fill="#50429B"/>
<path d="M2.06543 18.83H5.94546C6.13966 18.83 6.29702 18.6726 6.29702 18.4784C6.29702 18.2842 6.13966 18.1268 5.94546 18.1268H2.06543C1.87123 18.1268 1.71387 18.2842 1.71387 18.4784C1.71387 18.6726 1.87123 18.83 2.06543 18.83Z" fill="#50429B"/>
<path d="M20.6318 9.42859C20.4376 9.42859 20.2803 9.58595 20.2803 9.78015V10.66H19.4004C19.2062 10.66 19.0488 10.8174 19.0488 11.0116C19.0488 11.2058 19.2062 11.3632 19.4004 11.3632H20.2803V12.2431C20.2803 12.4373 20.4376 12.5946 20.6318 12.5946C20.826 12.5946 20.9834 12.4373 20.9834 12.2431V11.3632H21.8632C22.0575 11.3632 22.2148 11.2058 22.2148 11.0116C22.2148 10.8174 22.0575 10.66 21.8632 10.66H20.9834V9.78015C20.9834 9.586 20.826 9.42859 20.6318 9.42859Z" fill="#FC983B"/>
</g>
<defs>
<clipPath id="clip0_10141_508702">
<rect width="24" height="24" fill="white"/>
</clipPath>
</defs>
</svg>
