<svg width="32" height="32" viewBox="0 0 32 32" fill="none" xmlns="http://www.w3.org/2000/svg">
<g id="xls 1" clip-path="url(#clip0_7148_4447)">
<g id="Group">
<path id="Vector" opacity="0.15" d="M21.2581 6.53942C20.5321 6.53872 19.8361 6.25001 19.3228 5.73671C18.8096 5.2234 18.5208 4.5274 18.5201 3.80148V0H6.28578C5.33813 0 4.42929 0.376462 3.7592 1.04655C3.08911 1.71663 2.71265 2.62545 2.71265 3.5731V25.1127C2.71265 26.0604 3.08911 26.9692 3.7592 27.6392C4.42929 28.3094 5.33813 28.6858 6.28578 28.6858H20.9712C21.9189 28.6858 22.8278 28.3094 23.4978 27.6392C24.1679 26.9692 24.5444 26.0604 24.5444 25.1127V6.53942H21.2581Z" fill="#00C650"/>
<path id="Vector_2" d="M24.5443 6.53942H21.2579C20.532 6.53872 19.836 6.25001 19.3227 5.73671C18.8095 5.2234 18.5207 4.5274 18.52 3.80148V0L24.5443 6.53942Z" fill="#00C650"/>
<path id="Vector_3" d="M27.1361 22.6536H10.5333C9.35562 22.6536 8.40088 23.6083 8.40088 24.786V29.7361C8.40088 30.9138 9.35562 31.8685 10.5333 31.8685H27.1361C28.3139 31.8685 29.2686 30.9138 29.2686 29.7361V24.786C29.2686 23.6083 28.3139 22.6536 27.1361 22.6536Z" fill="#00C650"/>
</g>
<path id="Vector_4" d="M13.0751 29.8146C12.9238 29.7108 12.9013 29.5776 13.0074 29.4151L14.2466 27.5867L12.9396 25.7448C12.8381 25.5958 12.8629 25.4626 13.0141 25.3452C13.1699 25.2391 13.3008 25.264 13.4069 25.4197L14.619 27.1194L15.838 25.4197C15.9553 25.2685 16.0863 25.2482 16.2307 25.3588C16.3842 25.4716 16.4068 25.6026 16.2984 25.7515L14.9644 27.607L16.2443 29.4083C16.3504 29.5641 16.3255 29.6995 16.1698 29.8146C16.014 29.9207 15.8831 29.8959 15.777 29.7401L14.5987 28.081L13.4746 29.7469C13.3708 29.8936 13.2376 29.9162 13.0751 29.8146Z" fill="white"/>
<path id="Vector_5" d="M17.7204 29.8755C17.5308 29.8755 17.436 29.7806 17.436 29.591V25.5686C17.436 25.379 17.5308 25.2842 17.7204 25.2842C17.9101 25.2842 18.0049 25.379 18.0049 25.5686V29.3066H19.8806C20.0703 29.3066 20.1651 29.4014 20.1651 29.591C20.1651 29.7806 20.0703 29.8755 19.8806 29.8755H17.7204Z" fill="white"/>
<path id="Vector_6" d="M22.2475 29.8755C21.8615 29.8755 21.5602 29.7976 21.3435 29.6419C21.1291 29.4861 20.9947 29.2457 20.9406 28.9206C20.9315 28.8213 20.9518 28.7468 21.0015 28.6972C21.0512 28.6475 21.1234 28.6227 21.2182 28.6227C21.313 28.6227 21.3819 28.6452 21.4248 28.6904C21.47 28.7355 21.5004 28.8055 21.5162 28.9003C21.55 29.0561 21.6223 29.1633 21.7329 29.222C21.8457 29.2785 22.0173 29.3066 22.2475 29.3066H23.2227C23.5138 29.3066 23.7114 29.2547 23.8153 29.1509C23.9213 29.0448 23.9743 28.8484 23.9743 28.5617C23.9743 28.2705 23.9201 28.0719 23.8118 27.9658C23.7034 27.8575 23.5071 27.8033 23.2227 27.8033H22.383C21.9563 27.8033 21.6393 27.6995 21.4316 27.4918C21.2262 27.2819 21.1234 26.9636 21.1234 26.537C21.1234 26.1126 21.225 25.7978 21.4281 25.5922C21.6335 25.387 21.9496 25.2842 22.3762 25.2842H23.182C23.5409 25.2842 23.822 25.3576 24.0252 25.5043C24.2306 25.6511 24.3603 25.8756 24.4145 26.1781C24.428 26.2751 24.41 26.3496 24.3603 26.4015C24.3107 26.4512 24.2362 26.476 24.1368 26.476C24.0466 26.476 23.9788 26.4524 23.9337 26.405C23.8885 26.3576 23.8592 26.2887 23.8457 26.1984C23.8095 26.0652 23.7408 25.9749 23.6392 25.9275C23.5376 25.8778 23.3852 25.853 23.182 25.853H22.3762C22.1053 25.853 21.9237 25.9016 21.8311 25.9985C21.7386 26.0935 21.6922 26.2729 21.6922 26.537C21.6922 26.8033 21.7396 26.9862 21.8344 27.0855C21.9292 27.1848 22.1121 27.2345 22.383 27.2345H23.2227C23.6673 27.2345 23.9981 27.3428 24.2148 27.5595C24.4337 27.7762 24.5431 28.1103 24.5431 28.5617C24.5431 29.0109 24.4348 29.3427 24.2181 29.5572C24.0014 29.7694 23.6696 29.8755 23.2227 29.8755H22.2475Z" fill="white"/>
<path id="Vector_7" fill-rule="evenodd" clip-rule="evenodd" d="M18.4989 20.0285H8.76351C7.92036 20.0285 7.23389 19.1894 7.23389 18.1563V11.0938C7.23389 10.0621 7.92036 9.2229 8.76351 9.2229H18.5029C19.3448 9.2229 20.0312 10.0621 20.0312 11.0938V18.1563C20.0272 19.1894 19.3408 20.0285 18.4989 20.0285ZM8.76351 10.1789C8.35057 10.1789 8.01597 10.5892 8.01597 11.0938V12.0949C8.01597 12.3149 8.19432 12.4933 8.41431 12.4933H10.2998C10.5198 12.4933 10.6981 12.3149 10.6981 12.0949V10.5772C10.6981 10.3573 10.5198 10.1789 10.2998 10.1789H8.76351ZM11.6555 10.5772C11.6555 10.3573 11.8338 10.1789 12.0538 10.1789H15.2033C15.4234 10.1789 15.6017 10.3573 15.6017 10.5772V12.0949C15.6017 12.3149 15.4234 12.4933 15.2033 12.4933H12.0538C11.8338 12.4933 11.6555 12.3149 11.6555 12.0949V10.5772ZM11.6555 13.849C11.6555 13.6289 11.8338 13.4506 12.0538 13.4506H15.2033C15.4234 13.4506 15.6017 13.6289 15.6017 13.849V15.3773C15.6017 15.5973 15.4234 15.7756 15.2033 15.7756H12.0538C11.8338 15.7756 11.6555 15.5973 11.6555 15.3773V13.849ZM10.6981 13.849C10.6981 13.6289 10.5198 13.4506 10.2998 13.4506H8.41431C8.19432 13.4506 8.01597 13.6289 8.01597 13.849V15.3773C8.01597 15.5973 8.19432 15.7756 8.41431 15.7756H10.2998C10.5198 15.7756 10.6981 15.5973 10.6981 15.3773V13.849ZM10.6981 17.1313C10.6981 16.9113 10.5198 16.7329 10.2998 16.7329H8.41431C8.19432 16.7329 8.01597 16.9113 8.01597 17.1313V18.1563C8.01597 18.6609 8.35057 19.0712 8.76351 19.0712H10.2998C10.5198 19.0712 10.6981 18.8929 10.6981 18.6729V17.1313ZM11.6555 18.6729C11.6555 18.8929 11.8338 19.0712 12.0538 19.0712H15.2033C15.4234 19.0712 15.6017 18.8929 15.6017 18.6729V17.1313C15.6017 16.9113 15.4234 16.7329 15.2033 16.7329H12.0538C11.8338 16.7329 11.6555 16.9113 11.6555 17.1313V18.6729ZM16.9574 13.4506C16.7374 13.4506 16.559 13.6289 16.559 13.849V15.3773C16.559 15.5973 16.7374 15.7756 16.9574 15.7756H18.8508C19.0708 15.7756 19.2492 15.5973 19.2492 15.3773V13.849C19.2492 13.6289 19.0708 13.4506 18.8508 13.4506H16.9574ZM16.9574 16.7329C16.7374 16.7329 16.559 16.9113 16.559 17.1313V18.6729C16.559 18.8929 16.7374 19.0712 16.9574 19.0712H18.5029C18.9146 19.0712 19.2492 18.6609 19.2492 18.1563V17.1313C19.2492 16.9113 19.0708 16.7329 18.8508 16.7329H16.9574ZM16.9574 10.1789C16.7374 10.1789 16.559 10.3573 16.559 10.5772V12.0949C16.559 12.3149 16.7374 12.4933 16.9574 12.4933H18.8508C19.0708 12.4933 19.2492 12.3149 19.2492 12.0949V11.0938C19.2492 10.5892 18.9146 10.1789 18.5029 10.1789H16.9574Z" fill="#00C650"/>
</g>
<defs>
<clipPath id="clip0_7148_4447">
<rect width="32" height="32" fill="white"/>
</clipPath>
</defs>
</svg>
