<svg width="72" height="72" viewBox="0 0 72 72" fill="none" xmlns="http://www.w3.org/2000/svg">
    <g clip-path="url(#clip0_5155_68762)">
        <path opacity="0.4"
            d="M72 12V42.84L66.27 37.92C64.8195 36.6752 62.9714 35.9909 61.06 35.9909C59.1486 35.9909 57.3005 36.6752 55.85 37.92L41.14 50.54C39.7111 51.7685 37.8944 52.4531 36.0101 52.4733C34.1258 52.4934 32.2948 51.8477 30.84 50.65L29.62 49.65C28.2918 48.5562 26.6464 47.9197 24.9278 47.835C23.2093 47.7503 21.5093 48.222 20.08 49.18L0.25 62.47C0.085171 61.657 0.00142742 60.8296 0 60L0 12C0 8.8174 1.26428 5.76515 3.51472 3.51472C5.76515 1.26428 8.8174 0 12 0L60 0C63.1826 0 66.2348 1.26428 68.4853 3.51472C70.7357 5.76515 72 8.8174 72 12Z"
            fill="#DBD6FF" />
        <path
            d="M72 42.8398V59.9998C72 63.1824 70.7357 66.2347 68.4853 68.4851C66.2348 70.7355 63.1826 71.9998 60 71.9998H12C9.24513 72.0014 6.5736 71.0551 4.434 69.3197C2.2944 67.5844 0.817044 65.1657 0.25 62.4698L20.08 49.1698C21.5093 48.2118 23.2093 47.7402 24.9278 47.8248C26.6464 47.9095 28.2918 48.546 29.62 49.6398L30.84 50.6398C32.2948 51.8375 34.1258 52.4832 36.0101 52.4631C37.8944 52.4429 39.7111 51.7583 41.14 50.5298L55.85 37.9198C57.3005 36.675 59.1486 35.9907 61.06 35.9907C62.9714 35.9907 64.8195 36.675 66.27 37.9198L72 42.8398Z"
            fill="#DBD6FF" />
        <path
            d="M25.1999 30.1698C26.8949 30.1698 28.5518 29.6672 29.9611 28.7255C31.3705 27.7838 32.4689 26.4453 33.1175 24.8794C33.7662 23.3134 33.9359 21.5903 33.6052 19.9279C33.2745 18.2654 32.4583 16.7384 31.2598 15.5399C30.0613 14.3413 28.5342 13.5251 26.8718 13.1945C25.2094 12.8638 23.4862 13.0335 21.9203 13.6821C20.3543 14.3308 19.0159 15.4292 18.0742 16.8386C17.1325 18.2479 16.6299 19.9048 16.6299 21.5998C16.6299 23.8727 17.5328 26.0525 19.14 27.6597C20.7472 29.2669 22.927 30.1698 25.1999 30.1698Z"
            fill="#DBD6FF" />
    </g>
    <defs>
        <clipPath id="clip0_5155_68762">
            <rect width="72" height="72" fill="white" />
        </clipPath>
    </defs>
</svg>
    