<svg width="106" height="106" viewBox="0 0 106 106" fill="none" xmlns="http://www.w3.org/2000/svg">
<path d="M53 0L76.055 13.0676L98.8993 26.5L99.11 53L98.8993 79.5L76.055 92.9324L53 106L29.945 92.9324L7.10065 79.5L6.89 53L7.10065 26.5L29.945 13.0676L53 0Z" fill="#50429B"/>
<path d="M63.5148 40.8727H63.5237ZM74.5806 37.7154H65.5474L66.4323 34.1969L70.2336 32.9092C71.0421 32.6359 71.5232 31.7815 71.2901 30.9645C71.2308 30.759 71.1301 30.5676 70.9942 30.402C70.8583 30.2363 70.69 30.0998 70.4994 30.0008C70.3089 29.9018 70.1001 29.8424 69.8858 29.826C69.6715 29.8097 69.456 29.8368 69.2525 29.9058L64.5901 31.4845C64.339 31.5696 64.1134 31.716 63.9339 31.9103C63.7543 32.1045 63.6266 32.3405 63.5624 32.5965L62.2758 37.7154H49.2746C48.4204 37.7154 47.6873 38.3685 47.6447 39.2181C47.6344 39.4315 47.6677 39.6448 47.7427 39.8451C47.8177 40.0454 47.9328 40.2284 48.081 40.3831C48.2292 40.5378 48.4075 40.661 48.605 40.7451C48.8024 40.8293 49.0151 40.8727 49.2299 40.8727H49.5027L49.6019 41.7272C49.6253 41.9267 49.7216 42.1108 49.8725 42.2443C50.0234 42.3778 50.2183 42.4516 50.4203 42.4514C54.2891 42.4514 57.7274 43.5269 60.3523 45.5614C61.8122 46.6803 62.9958 48.1163 63.8124 49.7597C64.2695 50.6842 64.6068 51.6625 64.8163 52.6714C64.858 52.868 64.9751 53.0408 65.1427 53.1529C66.4921 54.0637 67.4876 55.4063 67.9637 56.9577C68.4398 58.5091 68.3677 60.1758 67.7596 61.6808C67.6888 61.855 67.6836 62.0487 67.7447 62.2264C68.0961 63.2281 68.2759 64.2814 68.2764 65.3424C68.2764 67.5466 67.5225 69.6472 66.1535 71.2575C65.3774 72.1765 64.401 72.9077 63.2985 73.3956C63.1078 73.4792 62.9578 73.6341 62.8809 73.8268C62.4689 74.8943 61.8871 75.8891 61.1578 76.773C61.1274 76.8089 61.108 76.8526 61.1017 76.8991C61.0954 76.9456 61.1026 76.9928 61.1224 77.0354C61.1422 77.0779 61.1737 77.114 61.2134 77.1394C61.253 77.1647 61.2991 77.1783 61.3463 77.1786H66.2279C67.4231 77.1737 68.5732 76.724 69.4517 75.9179C70.3302 75.1119 70.8735 74.0079 70.9747 72.8234L74.3673 40.8727H74.6252C74.8403 40.873 75.0531 40.8298 75.2508 40.7457C75.4485 40.6617 75.627 40.5386 75.7755 40.3838C75.9239 40.2291 76.0392 40.046 76.1143 39.8456C76.1894 39.6452 76.2228 39.4317 76.2124 39.2181C76.1708 38.3685 75.4347 37.7154 74.5806 37.7154V37.7154Z" fill="white"/>
<path d="M38.3315 60.1482C38.6224 60.1467 38.9108 60.2058 39.1798 60.3221C39.4488 60.4384 39.6932 60.6095 39.8988 60.8255L41.3288 62.3263C41.3631 62.3623 41.4037 62.3908 41.4485 62.4103C41.4933 62.4298 41.5413 62.4398 41.5897 62.4398C41.6382 62.4398 41.6862 62.4298 41.731 62.4103C41.7757 62.3908 41.8164 62.3623 41.8506 62.3263L43.2779 60.8255C43.4835 60.6095 43.7279 60.4384 43.9969 60.3221C44.2659 60.2058 44.5543 60.1467 44.8452 60.1482H62.9693C63.0662 60.1492 63.1623 60.1302 63.2522 60.0922C63.342 60.0542 63.4239 59.9981 63.4931 59.9269C63.5622 59.8558 63.6174 59.771 63.6553 59.6775C63.6933 59.5839 63.7133 59.4835 63.7143 59.3818V59.3741C63.7133 58.4821 63.4192 57.6178 62.8818 56.9269C62.3444 56.2359 61.5964 55.7606 60.764 55.5809C60.6884 52.708 59.5654 50.3035 57.4901 48.614C55.5705 47.0425 53.0056 46.2142 50.0691 46.2142H43.4309C37.1412 46.2142 32.8808 49.9657 32.736 55.5809C31.9036 55.7606 31.1556 56.2359 30.6182 56.9269C30.0808 57.6178 29.7868 58.4821 29.7857 59.3741C29.7857 59.5794 29.8634 59.7763 30.0018 59.9214C30.1401 60.0666 30.3277 60.1482 30.5233 60.1482H38.3315ZM45.4537 63.2446C45.3568 63.2445 45.2609 63.2645 45.1713 63.3033C45.0818 63.3422 45.0004 63.3992 44.9319 63.471L42.8906 65.6143C42.5448 65.9771 42.0759 66.1809 41.587 66.1809C41.098 66.1809 40.6291 65.9771 40.2833 65.6143L38.242 63.471C38.1735 63.3992 38.0921 63.3422 38.0026 63.3033C37.9131 63.2645 37.8171 63.2445 37.7202 63.2446H31.3217C30.9752 63.243 30.6393 63.37 30.3734 63.6032C30.1075 63.8364 29.9287 64.1608 29.8687 64.519C29.8133 64.8652 29.7856 65.2158 29.7857 65.5669C29.7857 68.5269 31.7338 70.9382 34.143 70.9857C34.367 72.4487 34.9091 73.7705 35.7251 74.8049C36.9319 76.3347 38.6864 77.1785 40.665 77.1785H52.835C54.8136 77.1785 56.5681 76.3347 57.7749 74.803C58.5909 73.7686 59.133 72.4468 59.3571 70.9837C61.7662 70.9382 63.7143 68.5269 63.7143 65.565C63.7145 65.2138 63.6867 64.8633 63.6313 64.517C63.5709 64.1592 63.392 63.8353 63.1261 63.6025C62.8602 63.3696 62.5245 63.2429 62.1783 63.2446H45.4537Z" fill="white"/>
</svg>



