<svg width="40" height="40" viewBox="0 0 40 40" fill="none" xmlns="http://www.w3.org/2000/svg">
<rect width="40" height="40" rx="8" fill="#F9F9F9"/>
<path d="M21.4658 20.0001L27.6959 13.7697C28.1014 13.3645 28.1014 12.7092 27.6959 12.3039C27.2907 11.8987 26.6354 11.8987 26.2302 12.3039L19.9999 18.5343L13.7698 12.3039C13.3644 11.8987 12.7093 11.8987 12.3041 12.3039C11.8986 12.7092 11.8986 13.3645 12.3041 13.7697L18.5342 20.0001L12.3041 26.2305C11.8986 26.6358 11.8986 27.291 12.3041 27.6963C12.506 27.8984 12.7716 28 13.037 28C13.3023 28 13.5677 27.8984 13.7698 27.6963L19.9999 21.4659L26.2302 27.6963C26.4323 27.8984 26.6977 28 26.963 28C27.2284 28 27.4938 27.8984 27.6959 27.6963C28.1014 27.291 28.1014 26.6358 27.6959 26.2305L21.4658 20.0001Z" fill="#817CBA"/>
</svg>
