<svg xmlns="http://www.w3.org/2000/svg" width="20" height="21" viewBox="0 0 20 21" fill="none">
    <path d="M3.97 9.01C2.86772 9.01 1.97 9.90771 1.97 11.01C1.97 12.1123 2.86772 13.01 3.97 13.01C4.66699 13.01 5.2822 12.6511 5.64037 12.1084C5.96193 12.5052 6.45273 12.76 7 12.76H10C10.9623 12.76 11.75 11.9723 11.75 11.01C11.75 10.0477 10.9623 9.26 10 9.26H7C6.45273 9.26 5.96193 9.51479 5.64037 9.91156C5.2822 9.36893 4.667 9.01 3.97 9.01ZM3.97 9.01C4.66699 9.01 5.2822 8.65107 5.64037 8.10845C5.96193 8.50522 6.45273 8.76 7 8.76H10C10.9623 8.76 11.75 7.97228 11.75 7.01C11.75 6.04772 10.9623 5.26 10 5.26H7C6.45273 5.26 5.96193 5.51478 5.64037 5.91155C5.2822 5.36893 4.66699 5.01 3.97 5.01C2.86772 5.01 1.97 5.90772 1.97 7.01C1.97 8.11229 2.86772 9.01 3.97 9.01ZM1.00074 18.9994L1 19V5V4C1 3.02549 1.22289 2.29841 1.63185 1.82484C2.01714 1.37867 2.70472 1 4 1H5H13.1718C13.0606 1.31301 13 1.64966 13 2V18.997C12.9991 18.9974 12.9982 18.9978 12.9974 18.9981C12.9972 18.9979 12.997 18.9978 12.9968 18.9976C12.9966 18.9974 12.9963 18.9973 12.9961 18.9971L11.2937 17.7227C10.499 17.1163 9.38009 17.2057 8.68289 17.9029L7.00364 19.5821C7.00356 19.5822 7.00347 19.5822 7.00337 19.5822C7.00298 19.5823 7.00255 19.5823 7.00207 19.5824C7.00145 19.5825 7.00075 19.5825 7 19.5825C6.99868 19.5825 6.99752 19.5824 6.99663 19.5822C6.99654 19.5822 6.99645 19.5822 6.99637 19.5821L5.33923 17.915L5.33711 17.9129C4.62953 17.2053 3.51315 17.1179 2.71029 17.7198C2.71019 17.7199 2.7101 17.7199 2.71 17.72L1.00075 18.9994L1.00074 18.9994ZM0.996601 19.0023C0.996598 19.0023 0.996656 19.0023 0.996752 19.0024C0.996652 19.0024 0.996603 19.0023 0.996601 19.0023Z" fill="white" stroke="white" stroke-width="2"/>
    <mask id="path-2-inside-1_6893_431" fill="white">
    <path d="M16.01 0V1.5C16.67 1.5 17.3 1.77 17.76 2.22C18.24 2.71 18.5 3.34 18.5 4V6.42C18.5 7.16 18.17 7.5 17.42 7.5H15.5V2.01C15.5 1.73 15.73 1.5 16.01 1.5V0ZM16.01 0C14.9 0 14 0.9 14 2.01V9H17.42C19 9 20 8 20 6.42V4C20 2.9 19.55 1.9 18.83 1.17C18.1 0.45 17.11 0.01 16.01 0C16.02 0 16.01 0 16.01 0Z"/>
    </mask>
    <path d="M16.01 0V1.5C16.67 1.5 17.3 1.77 17.76 2.22C18.24 2.71 18.5 3.34 18.5 4V6.42C18.5 7.16 18.17 7.5 17.42 7.5H15.5V2.01C15.5 1.73 15.73 1.5 16.01 1.5V0ZM16.01 0C14.9 0 14 0.9 14 2.01V9H17.42C19 9 20 8 20 6.42V4C20 2.9 19.55 1.9 18.83 1.17C18.1 0.45 17.11 0.01 16.01 0C16.02 0 16.01 0 16.01 0Z" fill="white"/>
    <path d="M16.01 1.5H14.01V3.5H16.01V1.5ZM17.76 2.22L19.1887 0.82044L19.1738 0.805225L19.1586 0.790332L17.76 2.22ZM15.5 7.5H13.5V9.5H15.5V7.5ZM16.01 1.5V3.5H18.01V1.5H16.01ZM14 9H12V11H14V9ZM18.83 1.17L20.2539 -0.234427L20.2442 -0.244247L20.2344 -0.253933L18.83 1.17ZM14.01 0V1.5H18.01V0H14.01ZM16.01 3.5C16.1272 3.5 16.2606 3.55108 16.3614 3.64967L19.1586 0.790332C18.3394 -0.0110781 17.2128 -0.5 16.01 -0.5V3.5ZM16.3313 3.61956C16.4568 3.7477 16.5 3.8798 16.5 4H20.5C20.5 2.8002 20.0232 1.6723 19.1887 0.82044L16.3313 3.61956ZM16.5 4V6.42H20.5V4H16.5ZM16.5 6.42C16.5 6.53865 16.4686 6.1843 16.822 5.82829C17.1783 5.46951 17.5365 5.5 17.42 5.5V9.5C18.0535 9.5 18.9517 9.36049 19.6605 8.64671C20.3664 7.9357 20.5 7.04135 20.5 6.42H16.5ZM17.42 5.5H15.5V9.5H17.42V5.5ZM17.5 7.5V2.01H13.5V7.5H17.5ZM17.5 2.01C17.5 2.83457 16.8346 3.5 16.01 3.5V-0.5C14.6254 -0.5 13.5 0.625431 13.5 2.01H17.5ZM18.01 1.5V0H14.01V1.5H18.01ZM16.01 -2C13.7954 -2 12 -0.204569 12 2.01H16C16 2.00672 16.0003 2.00559 16.0002 2.00594C16.0002 2.00619 16.0001 2.00657 16 2.00682C15.9998 2.00706 16.0006 2.00535 16.003 2.00296C16.0054 2.00058 16.0071 1.99985 16.0068 1.99995C16.0066 2.00006 16.0062 2.00018 16.0059 2.00023C16.0056 2.0003 16.0067 2 16.01 2V-2ZM12 2.01V9H16V2.01H12ZM14 11H17.42V7H14V11ZM17.42 11C18.6382 11 19.8275 10.6059 20.7167 9.71671C21.6059 8.82754 22 7.63817 22 6.42H18C18 6.78183 17.8941 6.88246 17.8883 6.88829C17.8825 6.89411 17.7818 7 17.42 7V11ZM22 6.42V4H18V6.42H22ZM22 4C22 2.34333 21.3207 0.847148 20.2539 -0.234427L17.4061 2.57443C17.7793 2.95285 18 3.45667 18 4H22ZM20.2344 -0.253933C19.1471 -1.32639 17.6647 -1.98504 16.0282 -1.99992L15.9918 1.99992C16.5553 2.00504 17.0529 2.22639 17.4256 2.59393L20.2344 -0.253933ZM16.01 2C16.01 2 16.01 2 16.0101 2C16.0101 2 16.0101 2 16.0101 2C16.0101 2 16.0102 2 16.0102 2C16.0102 2 16.0102 2 16.0102 2C16.0102 2 16.0103 2 16.0103 2C16.0103 2 16.0103 2 16.0103 2C16.0104 2 16.0104 2 16.0104 2C16.0104 2 16.0104 2 16.0105 2C16.0105 2 16.0105 2 16.0105 2C16.0105 2 16.0105 2 16.0106 2C16.0106 2 16.0106 2 16.0106 2C16.0106 2 16.0107 2 16.0107 2C16.0107 2 16.0107 2 16.0107 2C16.0107 2 16.0108 2 16.0108 2C16.0108 2 16.0108 2 16.0108 2C16.0108 2 16.0109 2 16.0109 2C16.0109 2 16.0109 2 16.0109 2C16.0109 2 16.011 2 16.011 2C16.011 2 16.011 2 16.011 2C16.011 2 16.0111 2 16.0111 2C16.0111 2 16.0111 2 16.0111 2C16.0111 2 16.0112 2 16.0112 2C16.0112 2 16.0112 2 16.0112 2C16.0112 2 16.0113 2 16.0113 2C16.0113 2 16.0113 2 16.0113 2C16.0113 2 16.0114 2 16.0114 2C16.0114 2 16.0114 2 16.0114 2C16.0114 2 16.0115 2 16.0115 2C16.0115 2 16.0115 2 16.0115 2C16.0115 2 16.0115 2 16.0116 2C16.0116 2 16.0116 2 16.0116 2C16.0116 2 16.0116 2 16.0116 2C16.0117 2 16.0117 2 16.0117 2C16.0117 2 16.0117 2 16.0117 2C16.0118 2 16.0118 2 16.0118 2C16.0118 2 16.0118 2 16.0118 2C16.0118 2 16.0119 2 16.0119 2C16.0119 2 16.0119 2 16.0119 2C16.0119 2 16.0119 2 16.012 2C16.012 2 16.012 2 16.012 2C16.012 2 16.012 2 16.012 2C16.012 2 16.0121 2 16.0121 2C16.0121 2 16.0121 2 16.0121 2C16.0121 2 16.0121 2 16.0122 2C16.0122 2 16.0122 2 16.0122 2C16.0122 2 16.0122 2 16.0122 2C16.0122 2 16.0123 2 16.0123 2C16.0123 2 16.0123 2 16.0123 2C16.0123 2 16.0123 2 16.0123 2C16.0124 2 16.0124 2 16.0124 2C16.0124 2 16.0124 2 16.0124 2C16.0124 2 16.0124 2 16.0125 2C16.0125 2 16.0125 2 16.0125 2C16.0125 2 16.0125 2 16.0125 2C16.0125 2 16.0126 2 16.0126 2C16.0126 2 16.0126 2 16.0126 2C16.0126 2 16.0126 2 16.0126 2C16.0126 2 16.0127 2 16.0127 2C16.0127 2 16.0127 2 16.0127 2C16.0127 2 16.0127 2 16.0127 2C16.0128 2 16.0128 2 16.0128 2C16.0128 2 16.0128 2 16.0128 2C16.0128 2 16.0128 2 16.0128 2C16.0128 2 16.0129 2 16.0129 2C16.0129 2 16.0129 2 16.0129 2C16.0129 2 16.0129 2 16.0129 2C16.0129 2 16.013 2 16.013 2C16.013 2 16.013 2 16.013 2C16.013 2 16.013 2 16.013 2C16.013 2 16.013 2 16.0131 2C16.0131 2 16.0131 2 16.0131 2C16.0131 2 16.0131 2 16.0131 2C16.0131 2 16.0131 2 16.0131 2C16.0132 2 16.0132 2 16.0132 2C16.0132 2 16.0132 2 16.0132 2C16.0132 2 16.0132 2 16.0132 2C16.0132 2 16.0132 2 16.0133 2C16.0133 2 16.0133 2 16.0133 2C16.0133 2 16.0133 2 16.0133 2C16.0133 2 16.0133 2 16.0133 2C16.0133 2 16.0134 2 16.0134 2C16.0134 2 16.0134 2 16.0134 2C16.0134 2 16.0134 2 16.0134 2C16.0134 2 16.0134 2 16.0134 2C16.0134 2 16.0135 2 16.0135 2C16.0135 2 16.0135 2 16.0135 2C16.0135 2 16.0135 2 16.0135 2C16.0135 2 16.0135 2 16.0135 2C16.0135 2 16.0136 2 16.0136 2C16.0136 2 16.0136 2 16.0136 2C16.0136 2 16.0136 2 16.0136 2C16.0136 2 16.0136 2 16.0136 2C16.0136 2 16.0136 2 16.0136 2C16.0137 2 16.0137 2 16.0137 2C16.0137 2 16.0137 2 16.0137 2C16.0137 2 16.0137 2 16.0137 2C16.0137 2 16.0137 2 16.0137 2C16.0137 2 16.0137 2 16.0138 2C16.0138 2 16.0138 2 16.0138 2C16.0138 2 16.0138 2 16.0138 2C16.0138 2 16.0138 2 16.0138 2C16.0138 2 16.0138 2 16.0138 2C16.0138 2 16.0138 2 16.0139 2C16.0139 2 16.0139 2 16.0139 2C16.0139 2 16.0139 2 16.0139 2C16.0139 2 16.0139 2 16.0139 2C16.0139 2 16.0139 2 16.0139 2C16.0139 2 16.0139 2 16.0139 2C16.0139 2 16.014 2 16.014 2C16.014 2 16.014 2 16.014 2C16.014 2 16.014 2 16.014 2C16.014 2 16.014 2 16.014 2C16.014 2 16.014 2 16.014 2C16.014 2 16.014 2 16.014 2C16.014 2 16.014 2 16.0141 2C16.0141 2 16.0141 2 16.0141 2C16.0141 2 16.0141 2 16.0141 2C16.0141 2 16.0141 2 16.0141 2C16.0141 2 16.0141 2 16.0141 2C16.0141 2 16.0141 2 16.0141 2C16.0141 2 16.0141 2 16.0141 2C16.0141 2 16.0141 2 16.0141 2C16.0142 2 16.0142 2 16.0142 2C16.0142 2 16.0142 2 16.0142 2C16.0142 2 16.0142 2 16.0142 2C16.0142 2 16.0142 2 16.0142 2C16.0142 2 16.0142 2 16.0142 2C16.0142 2 16.0142 2 16.0142 2C16.0142 2 16.0142 2 16.0142 2C16.0142 2 16.0142 2 16.0142 2C16.0142 2 16.0142 2 16.0143 2C16.0143 2 16.0143 2 16.0143 2C16.0143 2 16.0143 2 16.0143 2C16.0143 2 16.0143 2 16.0143 2C16.0143 2 16.0143 2 16.0143 2C16.0143 2 16.0143 2 16.0143 2C16.0143 2 16.0143 2 16.0143 2C16.0143 2 16.0143 2 16.0143 2C16.0143 2 16.0143 2 16.0143 2C16.0143 2 16.0143 2 16.0143 2C16.0143 2 16.0143 2 16.0143 2C16.0143 2 16.0143 2 16.0143 2C16.0143 2 16.0144 2 16.0144 2C16.0144 2 16.0144 2 16.0144 2C16.0144 2 16.0144 2 16.0144 2C16.0144 2 16.0144 2 16.0144 2C16.0144 2 16.0144 2 16.0144 2C16.0144 2 16.0144 2 16.0144 2C16.0144 2 16.0144 2 16.0144 2C16.0144 2 16.0144 2 16.0144 2C16.0144 2 16.0144 2 16.0144 2C16.0144 2 16.0144 2 16.0144 2C16.0144 2 16.0144 2 16.0144 2C16.0144 2 16.0144 2 16.0144 2C16.0144 2 16.0144 2 16.0144 2C16.0144 2 16.0144 2 16.0144 2C16.0144 2 16.0144 2 16.0144 2C16.0144 2 16.0144 2 16.0144 2C16.0144 2 16.0144 2 16.0144 2C16.0144 2 16.0144 2 16.0144 2C16.0144 2 16.0144 2 16.0144 2C16.0144 2 16.0144 2 16.0144 2C16.0144 2 16.0144 2 16.0144 2C16.0144 2 16.0144 2 16.0144 2C16.0144 2 16.0144 2 16.0144 2C16.0144 2 16.0144 2 16.0144 2C16.0144 2 16.0144 2 16.0144 2C16.0144 2 16.0144 2 16.0144 2C16.0144 2 16.0144 2 16.0144 2C16.0144 2 16.0144 2 16.0144 2C16.0144 2 16.0144 0 16.0144 -2C16.0144 -2 16.0144 -2 16.0144 -2H16.0144C16.0144 -2 16.0144 -2 16.0144 -2C16.0144 -2 16.0144 -2 16.0144 -2C16.0144 -2 16.0144 -2 16.0144 -2C16.0144 -2 16.0144 -2 16.0144 -2C16.0144 -2 16.0144 -2 16.0144 -2C16.0144 -2 16.0144 -2 16.0144 -2C16.0144 -2 16.0144 -2 16.0144 -2C16.0144 -2 16.0144 -2 16.0144 -2C16.0144 -2 16.0144 -2 16.0144 -2C16.0144 -2 16.0144 -2 16.0144 -2C16.0144 -2 16.0144 -2 16.0144 -2C16.0144 -2 16.0144 -2 16.0144 -2C16.0144 -2 16.0144 -2 16.0144 -2C16.0144 -2 16.0144 -2 16.0144 -2C16.0144 -2 16.0144 -2 16.0144 -2C16.0144 -2 16.0144 -2 16.0144 -2C16.0144 -2 16.0144 -2 16.0144 -2C16.0144 -2 16.0144 -2 16.0144 -2C16.0144 -2 16.0144 -2 16.0144 -2C16.0144 -2 16.0144 -2 16.0144 -2C16.0144 -2 16.0144 -2 16.0144 -2C16.0144 -2 16.0144 -2 16.0144 -2C16.0144 -2 16.0144 -2 16.0144 -2C16.0144 -2 16.0144 -2 16.0144 -2C16.0144 -2 16.0144 -2 16.0144 -2C16.0144 -2 16.0144 -2 16.0144 -2C16.0144 -2 16.0144 -2 16.0144 -2C16.0143 -2 16.0143 -2 16.0143 -2C16.0143 -2 16.0143 -2 16.0143 -2C16.0143 -2 16.0143 -2 16.0143 -2C16.0143 -2 16.0143 -2 16.0143 -2C16.0143 -2 16.0143 -2 16.0143 -2C16.0143 -2 16.0143 -2 16.0143 -2C16.0143 -2 16.0143 -2 16.0143 -2C16.0143 -2 16.0143 -2 16.0143 -2C16.0143 -2 16.0143 -2 16.0143 -2C16.0143 -2 16.0143 -2 16.0143 -2C16.0143 -2 16.0143 -2 16.0143 -2C16.0143 -2 16.0143 -2 16.0143 -2C16.0143 -2 16.0143 -2 16.0143 -2C16.0143 -2 16.0143 -2 16.0142 -2C16.0142 -2 16.0142 -2 16.0142 -2C16.0142 -2 16.0142 -2 16.0142 -2C16.0142 -2 16.0142 -2 16.0142 -2C16.0142 -2 16.0142 -2 16.0142 -2C16.0142 -2 16.0142 -2 16.0142 -2C16.0142 -2 16.0142 -2 16.0142 -2C16.0142 -2 16.0142 -2 16.0142 -2C16.0142 -2 16.0142 -2 16.0142 -2C16.0142 -2 16.0142 -2 16.0142 -2C16.0142 -2 16.0142 -2 16.0142 -2C16.0141 -2 16.0141 -2 16.0141 -2C16.0141 -2 16.0141 -2 16.0141 -2C16.0141 -2 16.0141 -2 16.0141 -2C16.0141 -2 16.0141 -2 16.0141 -2C16.0141 -2 16.0141 -2 16.0141 -2C16.0141 -2 16.0141 -2 16.0141 -2C16.0141 -2 16.0141 -2 16.0141 -2C16.0141 -2 16.0141 -2 16.0141 -2C16.0141 -2 16.0141 -2 16.0141 -2C16.0141 -2 16.014 -2 16.014 -2C16.014 -2 16.014 -2 16.014 -2C16.014 -2 16.014 -2 16.014 -2C16.014 -2 16.014 -2 16.014 -2C16.014 -2 16.014 -2 16.014 -2C16.014 -2 16.014 -2 16.014 -2C16.014 -2 16.014 -2 16.014 -2C16.014 -2 16.014 -2 16.014 -2C16.014 -2 16.0139 -2 16.0139 -2C16.0139 -2 16.0139 -2 16.0139 -2C16.0139 -2 16.0139 -2 16.0139 -2C16.0139 -2 16.0139 -2 16.0139 -2C16.0139 -2 16.0139 -2 16.0139 -2C16.0139 -2 16.0139 -2 16.0139 -2C16.0139 -2 16.0139 -2 16.0139 -2C16.0139 -2 16.0139 -2 16.0138 -2C16.0138 -2 16.0138 -2 16.0138 -2C16.0138 -2 16.0138 -2 16.0138 -2C16.0138 -2 16.0138 -2 16.0138 -2C16.0138 -2 16.0138 -2 16.0138 -2C16.0138 -2 16.0138 -2 16.0138 -2C16.0138 -2 16.0138 -2 16.0138 -2C16.0138 -2 16.0138 -2 16.0138 -2C16.0137 -2 16.0137 -2 16.0137 -2C16.0137 -2 16.0137 -2 16.0137 -2C16.0137 -2 16.0137 -2 16.0137 -2C16.0137 -2 16.0137 -2 16.0137 -2C16.0137 -2 16.0137 -2 16.0137 -2C16.0137 -2 16.0137 -2 16.0137 -2C16.0137 -2 16.0137 -2 16.0136 -2C16.0136 -2 16.0136 -2 16.0136 -2C16.0136 -2 16.0136 -2 16.0136 -2C16.0136 -2 16.0136 -2 16.0136 -2C16.0136 -2 16.0136 -2 16.0136 -2C16.0136 -2 16.0136 -2 16.0136 -2C16.0136 -2 16.0136 -2 16.0136 -2C16.0135 -2 16.0135 -2 16.0135 -2C16.0135 -2 16.0135 -2 16.0135 -2C16.0135 -2 16.0135 -2 16.0135 -2C16.0135 -2 16.0135 -2 16.0135 -2C16.0135 -2 16.0135 -2 16.0135 -2C16.0135 -2 16.0135 -2 16.0135 -2C16.0134 -2 16.0134 -2 16.0134 -2C16.0134 -2 16.0134 -2 16.0134 -2C16.0134 -2 16.0134 -2 16.0134 -2C16.0134 -2 16.0134 -2 16.0134 -2C16.0134 -2 16.0134 -2 16.0134 -2C16.0134 -2 16.0134 -2 16.0134 -2C16.0133 -2 16.0133 -2 16.0133 -2C16.0133 -2 16.0133 -2 16.0133 -2C16.0133 -2 16.0133 -2 16.0133 -2C16.0133 -2 16.0133 -2 16.0133 -2C16.0133 -2 16.0133 -2 16.0133 -2C16.0133 -2 16.0133 -2 16.0132 -2C16.0132 -2 16.0132 -2 16.0132 -2C16.0132 -2 16.0132 -2 16.0132 -2C16.0132 -2 16.0132 -2 16.0132 -2C16.0132 -2 16.0132 -2 16.0132 -2C16.0132 -2 16.0132 -2 16.0132 -2C16.0132 -2 16.0131 -2 16.0131 -2C16.0131 -2 16.0131 -2 16.0131 -2C16.0131 -2 16.0131 -2 16.0131 -2C16.0131 -2 16.0131 -2 16.0131 -2C16.0131 -2 16.0131 -2 16.0131 -2C16.0131 -2 16.0131 -2 16.0131 -2C16.013 -2 16.013 -2 16.013 -2C16.013 -2 16.013 -2 16.013 -2C16.013 -2 16.013 -2 16.013 -2C16.013 -2 16.013 -2 16.013 -2C16.013 -2 16.013 -2 16.013 -2C16.013 -2 16.0129 -2 16.0129 -2C16.0129 -2 16.0129 -2 16.0129 -2C16.0129 -2 16.0129 -2 16.0129 -2C16.0129 -2 16.0129 -2 16.0129 -2C16.0129 -2 16.0129 -2 16.0129 -2C16.0129 -2 16.0129 -2 16.0128 -2C16.0128 -2 16.0128 -2 16.0128 -2C16.0128 -2 16.0128 -2 16.0128 -2C16.0128 -2 16.0128 -2 16.0128 -2C16.0128 -2 16.0128 -2 16.0128 -2C16.0128 -2 16.0128 -2 16.0128 -2C16.0127 -2 16.0127 -2 16.0127 -2C16.0127 -2 16.0127 -2 16.0127 -2C16.0127 -2 16.0127 -2 16.0127 -2C16.0127 -2 16.0127 -2 16.0127 -2C16.0127 -2 16.0127 -2 16.0127 -2C16.0126 -2 16.0126 -2 16.0126 -2C16.0126 -2 16.0126 -2 16.0126 -2C16.0126 -2 16.0126 -2 16.0126 -2C16.0126 -2 16.0126 -2 16.0126 -2C16.0126 -2 16.0126 -2 16.0126 -2C16.0126 -2 16.0125 -2 16.0125 -2C16.0125 -2 16.0125 -2 16.0125 -2C16.0125 -2 16.0125 -2 16.0125 -2C16.0125 -2 16.0125 -2 16.0125 -2C16.0125 -2 16.0125 -2 16.0125 -2C16.0125 -2 16.0124 -2 16.0124 -2C16.0124 -2 16.0124 -2 16.0124 -2C16.0124 -2 16.0124 -2 16.0124 -2C16.0124 -2 16.0124 -2 16.0124 -2C16.0124 -2 16.0124 -2 16.0124 -2C16.0124 -2 16.0124 -2 16.0123 -2C16.0123 -2 16.0123 -2 16.0123 -2C16.0123 -2 16.0123 -2 16.0123 -2C16.0123 -2 16.0123 -2 16.0123 -2C16.0123 -2 16.0123 -2 16.0123 -2C16.0123 -2 16.0123 -2 16.0122 -2C16.0122 -2 16.0122 -2 16.0122 -2C16.0122 -2 16.0122 -2 16.0122 -2C16.0122 -2 16.0122 -2 16.0122 -2C16.0122 -2 16.0122 -2 16.0122 -2C16.0122 -2 16.0122 -2 16.0122 -2C16.0121 -2 16.0121 -2 16.0121 -2C16.0121 -2 16.0121 -2 16.0121 -2C16.0121 -2 16.0121 -2 16.0121 -2C16.0121 -2 16.0121 -2 16.0121 -2C16.0121 -2 16.0121 -2 16.0121 -2C16.012 -2 16.012 -2 16.012 -2C16.012 -2 16.012 -2 16.012 -2C16.012 -2 16.012 -2 16.012 -2C16.012 -2 16.012 -2 16.012 -2C16.012 -2 16.012 -2 16.012 -2C16.0119 -2 16.0119 -2 16.0119 -2C16.0119 -2 16.0119 -2 16.0119 -2C16.0119 -2 16.0119 -2 16.0119 -2C16.0119 -2 16.0119 -2 16.0119 -2C16.0119 -2 16.0119 -2 16.0119 -2C16.0119 -2 16.0118 -2 16.0118 -2C16.0118 -2 16.0118 -2 16.0118 -2C16.0118 -2 16.0118 -2 16.0118 -2C16.0118 -2 16.0118 -2 16.0118 -2C16.0118 -2 16.0118 -2 16.0118 -2C16.0118 -2 16.0118 -2 16.0117 -2C16.0117 -2 16.0117 -2 16.0117 -2C16.0117 -2 16.0117 -2 16.0117 -2C16.0117 -2 16.0117 -2 16.0117 -2C16.0117 -2 16.0117 -2 16.0117 -2C16.0117 -2 16.0117 -2 16.0116 -2C16.0116 -2 16.0116 -2 16.0116 -2C16.0116 -2 16.0116 -2 16.0116 -2C16.0116 -2 16.0116 -2 16.0116 -2C16.0116 -2 16.0116 -2 16.0116 -2C16.0116 -2 16.0116 -2 16.0116 -2C16.0115 -2 16.0115 -2 16.0115 -2C16.0115 -2 16.0115 -2 16.0115 -2C16.0115 -2 16.0115 -2 16.0115 -2C16.0115 -2 16.0115 -2 16.0115 -2C16.0115 -2 16.0115 -2 16.0115 -2C16.0115 -2 16.0114 -2 16.0114 -2C16.0114 -2 16.0114 -2 16.0114 -2C16.0114 -2 16.0114 -2 16.0114 -2C16.0114 -2 16.0114 -2 16.0114 -2C16.0114 -2 16.0114 -2 16.0114 -2C16.0114 -2 16.0114 -2 16.0114 -2C16.0113 -2 16.0113 -2 16.0113 -2C16.0113 -2 16.0113 -2 16.0113 -2C16.0113 -2 16.0113 -2 16.0113 -2C16.0113 -2 16.0113 -2 16.0113 -2C16.0113 -2 16.0113 -2 16.0113 -2C16.0113 -2 16.0113 -2 16.0112 -2C16.0112 -2 16.0112 -2 16.0112 -2C16.0112 -2 16.0112 -2 16.0112 -2C16.0112 -2 16.0112 -2 16.0112 -2C16.0112 -2 16.0112 -2 16.0112 -2C16.0112 -2 16.0112 -2 16.0112 -2C16.0112 -2 16.0111 -2 16.0111 -2C16.0111 -2 16.0111 -2 16.0111 -2C16.0111 -2 16.0111 -2 16.0111 -2C16.0111 -2 16.0111 -2 16.0111 -2C16.0111 -2 16.0111 -2 16.0111 -2C16.0111 -2 16.0111 -2 16.0111 -2C16.011 -2 16.011 -2 16.011 -2C16.011 -2 16.011 -2 16.011 -2C16.011 -2 16.011 -2 16.011 -2C16.011 -2 16.011 -2 16.011 -2C16.011 -2 16.011 -2 16.011 -2C16.011 -2 16.011 -2 16.011 -2C16.0109 -2 16.0109 -2 16.0109 -2C16.0109 -2 16.0109 -2 16.0109 -2C16.0109 -2 16.0109 -2 16.0109 -2C16.0109 -2 16.0109 -2 16.0109 -2C16.0109 -2 16.0109 -2 16.0109 -2C16.0109 -2 16.0109 -2 16.0109 -2C16.0109 -2 16.0108 -2 16.0108 -2C16.0108 -2 16.0108 -2 16.0108 -2C16.0108 -2 16.0108 -2 16.0108 -2C16.0108 -2 16.0108 -2 16.0108 -2C16.0108 -2 16.0108 -2 16.0108 -2C16.0108 -2 16.0108 -2 16.0108 -2C16.0108 -2 16.0108 -2 16.0107 -2C16.0107 -2 16.0107 -2 16.0107 -2C16.0107 -2 16.0107 -2 16.0107 -2C16.0107 -2 16.0107 -2 16.0107 -2C16.0107 -2 16.0107 -2 16.0107 -2C16.0107 -2 16.0107 -2 16.0107 -2C16.0107 -2 16.0107 -2 16.0107 -2C16.0107 -2 16.0107 -2 16.0106 -2C16.0106 -2 16.0106 -2 16.0106 -2C16.0106 -2 16.0106 -2 16.0106 -2C16.0106 -2 16.0106 -2 16.0106 -2C16.0106 -2 16.0106 -2 16.0106 -2C16.0106 -2 16.0106 -2 16.0106 -2C16.0106 -2 16.0106 -2 16.0106 -2C16.0106 -2 16.0106 -2 16.0105 -2C16.0105 -2 16.0105 -2 16.0105 -2C16.0105 -2 16.0105 -2 16.0105 -2C16.0105 -2 16.0105 -2 16.0105 -2C16.0105 -2 16.0105 -2 16.0105 -2C16.0105 -2 16.0105 -2 16.0105 -2C16.0105 -2 16.0105 -2 16.0105 -2C16.0105 -2 16.0105 -2 16.0105 -2C16.0105 -2 16.0105 -2 16.0104 -2C16.0104 -2 16.0104 -2 16.0104 -2C16.0104 -2 16.0104 -2 16.0104 -2C16.0104 -2 16.0104 -2 16.0104 -2C16.0104 -2 16.0104 -2 16.0104 -2C16.0104 -2 16.0104 -2 16.0104 -2C16.0104 -2 16.0104 -2 16.0104 -2C16.0104 -2 16.0104 -2 16.0104 -2C16.0104 -2 16.0104 -2 16.0104 -2C16.0103 -2 16.0103 -2 16.0103 -2C16.0103 -2 16.0103 -2 16.0103 -2C16.0103 -2 16.0103 -2 16.0103 -2C16.0103 -2 16.0103 -2 16.0103 -2C16.0103 -2 16.0103 -2 16.0103 -2C16.0103 -2 16.0103 -2 16.0103 -2C16.0103 -2 16.0103 -2 16.0103 -2C16.0103 -2 16.0103 -2 16.0103 -2C16.0103 -2 16.0103 -2 16.0103 -2C16.0103 -2 16.0103 -2 16.0102 -2C16.0102 -2 16.0102 -2 16.0102 -2C16.0102 -2 16.0102 -2 16.0102 -2C16.0102 -2 16.0102 -2 16.0102 -2C16.0102 -2 16.0102 -2 16.0102 -2C16.0102 -2 16.0102 -2 16.0102 -2C16.0102 -2 16.0102 -2 16.0102 -2C16.0102 -2 16.0102 -2 16.0102 -2C16.0102 -2 16.0102 -2 16.0102 -2C16.0102 -2 16.0102 -2 16.0102 -2C16.0102 -2 16.0102 -2 16.0102 -2C16.0102 -2 16.0102 -2 16.0102 -2C16.0102 -2 16.0101 -2 16.0101 -2C16.0101 -2 16.0101 -2 16.0101 -2C16.0101 -2 16.0101 -2 16.0101 -2C16.0101 -2 16.0101 -2 16.0101 -2C16.0101 -2 16.0101 -2 16.0101 -2C16.0101 -2 16.0101 -2 16.0101 -2C16.0101 -2 16.0101 -2 16.0101 -2C16.0101 -2 16.0101 -2 16.0101 -2C16.0101 -2 16.0101 -2 16.0101 -2C16.0101 -2 16.0101 -2 16.0101 -2C16.0101 -2 16.0101 -2 16.0101 -2C16.0101 -2 16.0101 -2 16.0101 -2C16.0101 -2 16.0101 -2 16.0101 -2C16.0101 -2 16.0101 -2 16.0101 -2C16.0101 -2 16.0101 -2 16.0101 -2C16.0101 -2 16.0101 -2 16.0101 -2C16.0101 -2 16.0101 -2 16.01 -2C16.01 -2 16.01 -2 16.01 -2C16.01 -2 16.01 -2 16.01 -2C16.01 -2 16.01 -2 16.01 -2C16.01 -2 16.01 -2 16.01 -2C16.01 -2 16.01 -2 16.01 -2C16.01 -2 16.01 -2 16.01 -2C16.01 -2 16.01 -2 16.01 -2C16.01 -2 16.01 -2 16.01 -2C16.01 -2 16.01 -2 16.01 -2C16.01 -2 16.01 -2 16.01 -2C16.01 -2 16.01 -2 16.01 -2C16.01 -2 16.01 -2 16.01 -2C16.01 -2 16.01 -2 16.01 -2C16.01 -2 16.01 -2 16.01 -2C16.01 -2 16.01 -2 16.01 -2C16.01 -2 16.01 -2 16.01 -2C16.01 -2 16.01 -2 16.01 -2C16.01 -2 16.01 -2 16.01 -2C16.01 -2 16.01 -2 16.01 -2C16.01 -2 16.01 -2 16.01 -2C16.01 -2 16.01 -2 16.01 0C16.01 2 16.01 2 16.01 2C16.01 2 16.01 2 16.01 2C16.01 2 16.01 2 16.01 2C16.01 2 16.01 2 16.01 2C16.01 2 16.01 2 16.01 2C16.01 2 16.01 2 16.01 2C16.01 2 16.01 2 16.01 2C16.01 2 16.01 2 16.01 2C16.01 2 16.01 2 16.01 2C16.01 2 16.01 2 16.01 2C16.01 2 16.01 2 16.01 2C16.01 2 16.01 2 16.01 2C16.01 2 16.01 2 16.01 2C16.01 2 16.01 2 16.01 2C16.01 2 16.01 2 16.01 2C16.01 2 16.01 2 16.01 2C16.01 2 16.01 2 16.01 2C16.01 2 16.01 2 16.01 2C16.01 2 16.01 2 16.01 2C16.01 2 16.01 2 16.01 2C16.01 2 16.01 2 16.01 2C16.0101 2 16.0101 2 16.0101 2C16.0101 2 16.0101 2 16.0101 2C16.0101 2 16.0101 2 16.0101 2C16.0101 2 16.0101 2 16.0101 2C16.0101 2 16.0101 2 16.0101 2C16.0101 2 16.0101 2 16.0101 2C16.0101 2 16.0101 2 16.0101 2C16.0101 2 16.0101 2 16.0101 2C16.0101 2 16.0101 2 16.0101 2C16.0101 2 16.0101 2 16.0101 2C16.0101 2 16.0101 2 16.0101 2C16.0101 2 16.0101 2 16.0101 2C16.0101 2 16.0101 2 16.0101 2C16.0101 2 16.0101 2 16.0101 2C16.0101 2 16.0101 2 16.0101 2C16.0101 2 16.0101 2 16.0101 2C16.0101 2 16.0102 2 16.0102 2C16.0102 2 16.0102 2 16.0102 2C16.0102 2 16.0102 2 16.0102 2C16.0102 2 16.0102 2 16.0102 2C16.0102 2 16.0102 2 16.0102 2C16.0102 2 16.0102 2 16.0102 2C16.0102 2 16.0102 2 16.0102 2C16.0102 2 16.0102 2 16.0102 2C16.0102 2 16.0102 2 16.0102 2C16.0102 2 16.0102 2 16.0102 2C16.0102 2 16.0102 2 16.0102 2C16.0102 2 16.0102 2 16.0102 2C16.0103 2 16.0103 2 16.0103 2C16.0103 2 16.0103 2 16.0103 2C16.0103 2 16.0103 2 16.0103 2C16.0103 2 16.0103 2 16.0103 2C16.0103 2 16.0103 2 16.0103 2C16.0103 2 16.0103 2 16.0103 2C16.0103 2 16.0103 2 16.0103 2C16.0103 2 16.0103 2 16.0103 2C16.0103 2 16.0103 2 16.0103 2C16.0103 2 16.0103 2 16.0104 2C16.0104 2 16.0104 2 16.0104 2C16.0104 2 16.0104 2 16.0104 2C16.0104 2 16.0104 2 16.0104 2C16.0104 2 16.0104 2 16.0104 2C16.0104 2 16.0104 2 16.0104 2C16.0104 2 16.0104 2 16.0104 2C16.0104 2 16.0104 2 16.0104 2C16.0104 2 16.0104 2 16.0104 2C16.0105 2 16.0105 2 16.0105 2C16.0105 2 16.0105 2 16.0105 2C16.0105 2 16.0105 2 16.0105 2C16.0105 2 16.0105 2 16.0105 2C16.0105 2 16.0105 2 16.0105 2C16.0105 2 16.0105 2 16.0105 2C16.0105 2 16.0105 2 16.0105 2C16.0105 2 16.0105 2 16.0105 2C16.0106 2 16.0106 2 16.0106 2C16.0106 2 16.0106 2 16.0106 2C16.0106 2 16.0106 2 16.0106 2C16.0106 2 16.0106 2 16.0106 2C16.0106 2 16.0106 2 16.0106 2C16.0106 2 16.0106 2 16.0106 2C16.0106 2 16.0106 2 16.0106 2C16.0107 2 16.0107 2 16.0107 2C16.0107 2 16.0107 2 16.0107 2C16.0107 2 16.0107 2 16.0107 2C16.0107 2 16.0107 2 16.0107 2C16.0107 2 16.0107 2 16.0107 2C16.0107 2 16.0107 2 16.0107 2C16.0107 2 16.0107 2 16.0107 2C16.0108 2 16.0108 2 16.0108 2C16.0108 2 16.0108 2 16.0108 2C16.0108 2 16.0108 2 16.0108 2C16.0108 2 16.0108 2 16.0108 2C16.0108 2 16.0108 2 16.0108 2C16.0108 2 16.0108 2 16.0108 2C16.0108 2 16.0109 2 16.0109 2C16.0109 2 16.0109 2 16.0109 2C16.0109 2 16.0109 2 16.0109 2C16.0109 2 16.0109 2 16.0109 2C16.0109 2 16.0109 2 16.0109 2C16.0109 2 16.0109 2 16.0109 2C16.0109 2 16.0109 2 16.011 2C16.011 2 16.011 2 16.011 2C16.011 2 16.011 2 16.011 2C16.011 2 16.011 2 16.011 2C16.011 2 16.011 2 16.011 2C16.011 2 16.011 2 16.011 2C16.011 2 16.011 2 16.0111 2C16.0111 2 16.0111 2 16.0111 2C16.0111 2 16.0111 2 16.0111 2C16.0111 2 16.0111 2 16.0111 2C16.0111 2 16.0111 2 16.0111 2C16.0111 2 16.0111 2 16.0111 2C16.0111 2 16.0112 2 16.0112 2C16.0112 2 16.0112 2 16.0112 2C16.0112 2 16.0112 2 16.0112 2C16.0112 2 16.0112 2 16.0112 2C16.0112 2 16.0112 2 16.0112 2C16.0112 2 16.0112 2 16.0112 2C16.0113 2 16.0113 2 16.0113 2C16.0113 2 16.0113 2 16.0113 2C16.0113 2 16.0113 2 16.0113 2C16.0113 2 16.0113 2 16.0113 2C16.0113 2 16.0113 2 16.0113 2C16.0113 2 16.0113 2 16.0114 2C16.0114 2 16.0114 2 16.0114 2C16.0114 2 16.0114 2 16.0114 2C16.0114 2 16.0114 2 16.0114 2C16.0114 2 16.0114 2 16.0114 2C16.0114 2 16.0114 2 16.0114 2C16.0114 2 16.0115 2 16.0115 2C16.0115 2 16.0115 2 16.0115 2C16.0115 2 16.0115 2 16.0115 2C16.0115 2 16.0115 2 16.0115 2C16.0115 2 16.0115 2 16.0115 2C16.0115 2 16.0115 2 16.0116 2C16.0116 2 16.0116 2 16.0116 2C16.0116 2 16.0116 2 16.0116 2C16.0116 2 16.0116 2 16.0116 2C16.0116 2 16.0116 2 16.0116 2C16.0116 2 16.0116 2 16.0116 2C16.0117 2 16.0117 2 16.0117 2C16.0117 2 16.0117 2 16.0117 2C16.0117 2 16.0117 2 16.0117 2C16.0117 2 16.0117 2 16.0117 2C16.0117 2 16.0117 2 16.0117 2C16.0118 2 16.0118 2 16.0118 2C16.0118 2 16.0118 2 16.0118 2C16.0118 2 16.0118 2 16.0118 2C16.0118 2 16.0118 2 16.0118 2C16.0118 2 16.0118 2 16.0118 2C16.0118 2 16.0119 2 16.0119 2C16.0119 2 16.0119 2 16.0119 2C16.0119 2 16.0119 2 16.0119 2C16.0119 2 16.0119 2 16.0119 2C16.0119 2 16.0119 2 16.0119 2C16.0119 2 16.0119 2 16.012 2C16.012 2 16.012 2 16.012 2C16.012 2 16.012 2 16.012 2C16.012 2 16.012 2 16.012 2C16.012 2 16.012 2 16.012 2C16.012 2 16.012 2 16.0121 2C16.0121 2 16.0121 2 16.0121 2C16.0121 2 16.0121 2 16.0121 2C16.0121 2 16.0121 2 16.0121 2C16.0121 2 16.0121 2 16.0121 2C16.0121 2 16.0121 2 16.0122 2C16.0122 2 16.0122 2 16.0122 2C16.0122 2 16.0122 2 16.0122 2C16.0122 2 16.0122 2 16.0122 2C16.0122 2 16.0122 2 16.0122 2C16.0122 2 16.0122 2 16.0122 2C16.0123 2 16.0123 2 16.0123 2C16.0123 2 16.0123 2 16.0123 2C16.0123 2 16.0123 2 16.0123 2C16.0123 2 16.0123 2 16.0123 2C16.0123 2 16.0123 2 16.0123 2C16.0124 2 16.0124 2 16.0124 2C16.0124 2 16.0124 2 16.0124 2C16.0124 2 16.0124 2 16.0124 2C16.0124 2 16.0124 2 16.0124 2C16.0124 2 16.0124 2 16.0124 2C16.0124 2 16.0125 2 16.0125 2C16.0125 2 16.0125 2 16.0125 2C16.0125 2 16.0125 2 16.0125 2C16.0125 2 16.0125 2 16.0125 2C16.0125 2 16.0125 2 16.0125 2C16.0125 2 16.0126 2 16.0126 2C16.0126 2 16.0126 2 16.0126 2C16.0126 2 16.0126 2 16.0126 2C16.0126 2 16.0126 2 16.0126 2C16.0126 2 16.0126 2 16.0126 2C16.0126 2 16.0126 2 16.0127 2C16.0127 2 16.0127 2 16.0127 2C16.0127 2 16.0127 2 16.0127 2C16.0127 2 16.0127 2 16.0127 2C16.0127 2 16.0127 2 16.0127 2C16.0127 2 16.0127 2 16.0128 2C16.0128 2 16.0128 2 16.0128 2C16.0128 2 16.0128 2 16.0128 2C16.0128 2 16.0128 2 16.0128 2C16.0128 2 16.0128 2 16.0128 2C16.0128 2 16.0128 2 16.0128 2C16.0129 2 16.0129 2 16.0129 2C16.0129 2 16.0129 2 16.0129 2C16.0129 2 16.0129 2 16.0129 2C16.0129 2 16.0129 2 16.0129 2C16.0129 2 16.0129 2 16.0129 2C16.0129 2 16.013 2 16.013 2C16.013 2 16.013 2 16.013 2C16.013 2 16.013 2 16.013 2C16.013 2 16.013 2 16.013 2C16.013 2 16.013 2 16.013 2C16.013 2 16.013 2 16.0131 2C16.0131 2 16.0131 2 16.0131 2C16.0131 2 16.0131 2 16.0131 2C16.0131 2 16.0131 2 16.0131 2C16.0131 2 16.0131 2 16.0131 2C16.0131 2 16.0131 2 16.0131 2C16.0131 2 16.0132 2 16.0132 2C16.0132 2 16.0132 2 16.0132 2C16.0132 2 16.0132 2 16.0132 2C16.0132 2 16.0132 2 16.0132 2C16.0132 2 16.0132 2 16.0132 2C16.0132 2 16.0132 2 16.0132 2C16.0133 2 16.0133 2 16.0133 2C16.0133 2 16.0133 2 16.0133 2C16.0133 2 16.0133 2 16.0133 2C16.0133 2 16.0133 2 16.0133 2C16.0133 2 16.0133 2 16.0133 2C16.0133 2 16.0133 2 16.0134 2C16.0134 2 16.0134 2 16.0134 2C16.0134 2 16.0134 2 16.0134 2C16.0134 2 16.0134 2 16.0134 2C16.0134 2 16.0134 2 16.0134 2C16.0134 2 16.0134 2 16.0134 2C16.0134 2 16.0134 2 16.0135 2C16.0135 2 16.0135 2 16.0135 2C16.0135 2 16.0135 2 16.0135 2C16.0135 2 16.0135 2 16.0135 2C16.0135 2 16.0135 2 16.0135 2C16.0135 2 16.0135 2 16.0135 2C16.0135 2 16.0135 2 16.0136 2C16.0136 2 16.0136 2 16.0136 2C16.0136 2 16.0136 2 16.0136 2C16.0136 2 16.0136 2 16.0136 2C16.0136 2 16.0136 2 16.0136 2C16.0136 2 16.0136 2 16.0136 2C16.0136 2 16.0136 2 16.0136 2C16.0137 2 16.0137 2 16.0137 2C16.0137 2 16.0137 2 16.0137 2C16.0137 2 16.0137 2 16.0137 2C16.0137 2 16.0137 2 16.0137 2C16.0137 2 16.0137 2 16.0137 2C16.0137 2 16.0137 2 16.0137 2C16.0137 2 16.0137 2 16.0138 2C16.0138 2 16.0138 2 16.0138 2C16.0138 2 16.0138 2 16.0138 2C16.0138 2 16.0138 2 16.0138 2C16.0138 2 16.0138 2 16.0138 2C16.0138 2 16.0138 2 16.0138 2C16.0138 2 16.0138 2 16.0138 2C16.0138 2 16.0138 2 16.0138 2C16.0139 2 16.0139 2 16.0139 2C16.0139 2 16.0139 2 16.0139 2C16.0139 2 16.0139 2 16.0139 2C16.0139 2 16.0139 2 16.0139 2C16.0139 2 16.0139 2 16.0139 2C16.0139 2 16.0139 2 16.0139 2C16.0139 2 16.0139 2 16.0139 2C16.0139 2 16.014 2 16.014 2C16.014 2 16.014 2 16.014 2C16.014 2 16.014 2 16.014 2C16.014 2 16.014 2 16.014 2C16.014 2 16.014 2 16.014 2C16.014 2 16.014 2 16.014 2C16.014 2 16.014 2 16.014 2C16.014 2 16.014 2 16.014 2C16.014 2 16.0141 2 16.0141 2C16.0141 2 16.0141 2 16.0141 2C16.0141 2 16.0141 2 16.0141 2C16.0141 2 16.0141 2 16.0141 2C16.0141 2 16.0141 2 16.0141 2C16.0141 2 16.0141 2 16.0141 2C16.0141 2 16.0141 2 16.0141 2C16.0141 2 16.0141 2 16.0141 2C16.0141 2 16.0141 2 16.0141 2C16.0141 2 16.0141 2 16.0142 2C16.0142 2 16.0142 2 16.0142 2C16.0142 2 16.0142 2 16.0142 2C16.0142 2 16.0142 2 16.0142 2C16.0142 2 16.0142 2 16.0142 2C16.0142 2 16.0142 2 16.0142 2C16.0142 2 16.0142 2 16.0142 2C16.0142 2 16.0142 2 16.0142 2C16.0142 2 16.0142 2 16.0142 2C16.0142 2 16.0142 2 16.0142 2C16.0142 2 16.0142 2 16.0142 2C16.0143 2 16.0143 2 16.0143 2C16.0143 2 16.0143 2 16.0143 2C16.0143 2 16.0143 2 16.0143 2C16.0143 2 16.0143 2 16.0143 2C16.0143 2 16.0143 2 16.0143 2C16.0143 2 16.0143 2 16.0143 2C16.0143 2 16.0143 2 16.0143 2C16.0143 2 16.0143 2 16.0143 2C16.0143 2 16.0143 2 16.0143 2C16.0143 2 16.0143 2 16.0143 2C16.0143 2 16.0143 2 16.0143 2C16.0143 2 16.0143 2 16.0143 2C16.0143 2 16.0143 2 16.0143 2C16.0143 2 16.0143 2 16.0144 2C16.0144 2 16.0144 2 16.0144 2C16.0144 2 16.0144 2 16.0144 2C16.0144 2 16.0144 2 16.0144 2C16.0144 2 16.0144 2 16.0144 2C16.0144 2 16.0144 2 16.0144 2C16.0144 2 16.0144 2 16.0144 2C16.0144 2 16.0144 2 16.0144 2C16.0144 2 16.0144 2 16.0144 2C16.0144 2 16.0144 2 16.0144 2C16.0144 2 16.0144 2 16.0144 2C16.0144 2 16.0144 2 16.0144 2C16.0144 2 16.0144 2 16.0144 2C16.0144 2 16.0144 2 16.0144 2C16.0144 2 16.0144 2 16.0144 2C16.0144 2 16.0144 2 16.0144 2C16.0144 2 16.0144 2 16.0144 2C16.0144 2 16.0144 2 16.0144 2C16.0144 2 16.0144 2 16.0144 2C16.0144 2 16.0144 2 16.0144 2C16.0144 2 16.0144 2 16.0144 2C16.0144 2 16.0144 2 16.0144 2C16.0144 2 16.0144 2 16.0144 2C16.0144 2 16.0144 2 16.0144 2C16.0144 2 16.0144 2 16.0144 2C16.0144 2 16.0144 2 16.0144 2C16.0144 2 16.0144 2 16.0144 2C16.0144 2 16.0144 2 16.0144 2H16.0144C16.0144 2 16.0144 2 16.0144 2C16.0144 0 16.0144 -2 16.0144 -2C16.0144 -2 16.0144 -2 16.0144 -2C16.0144 -2 16.0144 -2 16.0144 -2C16.0144 -2 16.0144 -2 16.0144 -2C16.0144 -2 16.0144 -2 16.0144 -2C16.0144 -2 16.0144 -2 16.0144 -2C16.0144 -2 16.0144 -2 16.0144 -2C16.0144 -2 16.0144 -2 16.0144 -2C16.0144 -2 16.0144 -2 16.0144 -2C16.0144 -2 16.0144 -2 16.0144 -2C16.0144 -2 16.0144 -2 16.0144 -2C16.0144 -2 16.0144 -2 16.0144 -2C16.0144 -2 16.0144 -2 16.0144 -2C16.0144 -2 16.0144 -2 16.0144 -2C16.0144 -2 16.0144 -2 16.0144 -2C16.0144 -2 16.0144 -2 16.0144 -2C16.0144 -2 16.0144 -2 16.0144 -2C16.0144 -2 16.0144 -2 16.0144 -2C16.0144 -2 16.0144 -2 16.0144 -2C16.0144 -2 16.0144 -2 16.0144 -2C16.0144 -2 16.0144 -2 16.0144 -2C16.0144 -2 16.0144 -2 16.0144 -2C16.0144 -2 16.0144 -2 16.0144 -2C16.0144 -2 16.0144 -2 16.0144 -2C16.0144 -2 16.0144 -2 16.0144 -2C16.0144 -2 16.0144 -2 16.0144 -2C16.0144 -2 16.0144 -2 16.0144 -2C16.0144 -2 16.0144 -2 16.0144 -2C16.0144 -2 16.0143 -2 16.0143 -2C16.0143 -2 16.0143 -2 16.0143 -2C16.0143 -2 16.0143 -2 16.0143 -2C16.0143 -2 16.0143 -2 16.0143 -2C16.0143 -2 16.0143 -2 16.0143 -2C16.0143 -2 16.0143 -2 16.0143 -2C16.0143 -2 16.0143 -2 16.0143 -2C16.0143 -2 16.0143 -2 16.0143 -2C16.0143 -2 16.0143 -2 16.0143 -2C16.0143 -2 16.0143 -2 16.0143 -2C16.0143 -2 16.0143 -2 16.0143 -2C16.0143 -2 16.0143 -2 16.0143 -2C16.0142 -2 16.0142 -2 16.0142 -2C16.0142 -2 16.0142 -2 16.0142 -2C16.0142 -2 16.0142 -2 16.0142 -2C16.0142 -2 16.0142 -2 16.0142 -2C16.0142 -2 16.0142 -2 16.0142 -2C16.0142 -2 16.0142 -2 16.0142 -2C16.0142 -2 16.0142 -2 16.0142 -2C16.0142 -2 16.0142 -2 16.0142 -2C16.0142 -2 16.0142 -2 16.0141 -2C16.0141 -2 16.0141 -2 16.0141 -2C16.0141 -2 16.0141 -2 16.0141 -2C16.0141 -2 16.0141 -2 16.0141 -2C16.0141 -2 16.0141 -2 16.0141 -2C16.0141 -2 16.0141 -2 16.0141 -2C16.0141 -2 16.0141 -2 16.0141 -2C16.0141 -2 16.0141 -2 16.0141 -2C16.014 -2 16.014 -2 16.014 -2C16.014 -2 16.014 -2 16.014 -2C16.014 -2 16.014 -2 16.014 -2C16.014 -2 16.014 -2 16.014 -2C16.014 -2 16.014 -2 16.014 -2C16.014 -2 16.014 -2 16.014 -2C16.014 -2 16.0139 -2 16.0139 -2C16.0139 -2 16.0139 -2 16.0139 -2C16.0139 -2 16.0139 -2 16.0139 -2C16.0139 -2 16.0139 -2 16.0139 -2C16.0139 -2 16.0139 -2 16.0139 -2C16.0139 -2 16.0139 -2 16.0139 -2C16.0138 -2 16.0138 -2 16.0138 -2C16.0138 -2 16.0138 -2 16.0138 -2C16.0138 -2 16.0138 -2 16.0138 -2C16.0138 -2 16.0138 -2 16.0138 -2C16.0138 -2 16.0138 -2 16.0138 -2C16.0137 -2 16.0137 -2 16.0137 -2C16.0137 -2 16.0137 -2 16.0137 -2C16.0137 -2 16.0137 -2 16.0137 -2C16.0137 -2 16.0137 -2 16.0137 -2C16.0137 -2 16.0137 -2 16.0136 -2C16.0136 -2 16.0136 -2 16.0136 -2C16.0136 -2 16.0136 -2 16.0136 -2C16.0136 -2 16.0136 -2 16.0136 -2C16.0136 -2 16.0136 -2 16.0136 -2C16.0136 -2 16.0135 -2 16.0135 -2C16.0135 -2 16.0135 -2 16.0135 -2C16.0135 -2 16.0135 -2 16.0135 -2C16.0135 -2 16.0135 -2 16.0135 -2C16.0135 -2 16.0134 -2 16.0134 -2C16.0134 -2 16.0134 -2 16.0134 -2C16.0134 -2 16.0134 -2 16.0134 -2C16.0134 -2 16.0134 -2 16.0134 -2C16.0134 -2 16.0133 -2 16.0133 -2C16.0133 -2 16.0133 -2 16.0133 -2C16.0133 -2 16.0133 -2 16.0133 -2C16.0133 -2 16.0133 -2 16.0133 -2C16.0132 -2 16.0132 -2 16.0132 -2C16.0132 -2 16.0132 -2 16.0132 -2C16.0132 -2 16.0132 -2 16.0132 -2C16.0132 -2 16.0132 -2 16.0131 -2C16.0131 -2 16.0131 -2 16.0131 -2C16.0131 -2 16.0131 -2 16.0131 -2C16.0131 -2 16.0131 -2 16.0131 -2C16.013 -2 16.013 -2 16.013 -2C16.013 -2 16.013 -2 16.013 -2C16.013 -2 16.013 -2 16.013 -2C16.013 -2 16.0129 -2 16.0129 -2C16.0129 -2 16.0129 -2 16.0129 -2C16.0129 -2 16.0129 -2 16.0129 -2C16.0129 -2 16.0128 -2 16.0128 -2C16.0128 -2 16.0128 -2 16.0128 -2C16.0128 -2 16.0128 -2 16.0128 -2C16.0128 -2 16.0128 -2 16.0127 -2C16.0127 -2 16.0127 -2 16.0127 -2C16.0127 -2 16.0127 -2 16.0127 -2C16.0127 -2 16.0126 -2 16.0126 -2C16.0126 -2 16.0126 -2 16.0126 -2C16.0126 -2 16.0126 -2 16.0126 -2C16.0126 -2 16.0125 -2 16.0125 -2C16.0125 -2 16.0125 -2 16.0125 -2C16.0125 -2 16.0125 -2 16.0125 -2C16.0124 -2 16.0124 -2 16.0124 -2C16.0124 -2 16.0124 -2 16.0124 -2C16.0124 -2 16.0124 -2 16.0123 -2C16.0123 -2 16.0123 -2 16.0123 -2C16.0123 -2 16.0123 -2 16.0123 -2C16.0123 -2 16.0122 -2 16.0122 -2C16.0122 -2 16.0122 -2 16.0122 -2C16.0122 -2 16.0122 -2 16.0122 -2C16.0121 -2 16.0121 -2 16.0121 -2C16.0121 -2 16.0121 -2 16.0121 -2C16.0121 -2 16.012 -2 16.012 -2C16.012 -2 16.012 -2 16.012 -2C16.012 -2 16.012 -2 16.012 -2C16.0119 -2 16.0119 -2 16.0119 -2C16.0119 -2 16.0119 -2 16.0119 -2C16.0119 -2 16.0118 -2 16.0118 -2C16.0118 -2 16.0118 -2 16.0118 -2C16.0118 -2 16.0118 -2 16.0117 -2C16.0117 -2 16.0117 -2 16.0117 -2C16.0117 -2 16.0117 -2 16.0116 -2C16.0116 -2 16.0116 -2 16.0116 -2C16.0116 -2 16.0116 -2 16.0116 -2C16.0115 -2 16.0115 -2 16.0115 -2C16.0115 -2 16.0115 -2 16.0115 -2C16.0115 -2 16.0114 -2 16.0114 -2C16.0114 -2 16.0114 -2 16.0114 -2C16.0114 -2 16.0113 -2 16.0113 -2C16.0113 -2 16.0113 -2 16.0113 -2C16.0113 -2 16.0112 -2 16.0112 -2C16.0112 -2 16.0112 -2 16.0112 -2C16.0112 -2 16.0111 -2 16.0111 -2C16.0111 -2 16.0111 -2 16.0111 -2C16.0111 -2 16.011 -2 16.011 -2C16.011 -2 16.011 -2 16.011 -2C16.011 -2 16.0109 -2 16.0109 -2C16.0109 -2 16.0109 -2 16.0109 -2C16.0109 -2 16.0108 -2 16.0108 -2C16.0108 -2 16.0108 -2 16.0108 -2C16.0108 -2 16.0107 -2 16.0107 -2C16.0107 -2 16.0107 -2 16.0107 -2C16.0107 -2 16.0106 -2 16.0106 -2C16.0106 -2 16.0106 -2 16.0106 -2C16.0105 -2 16.0105 -2 16.0105 -2C16.0105 -2 16.0105 -2 16.0105 -2C16.0104 -2 16.0104 -2 16.0104 -2C16.0104 -2 16.0104 -2 16.0103 -2C16.0103 -2 16.0103 -2 16.0103 -2C16.0103 -2 16.0102 -2 16.0102 -2C16.0102 -2 16.0102 -2 16.0102 -2C16.0102 -2 16.0101 -2 16.0101 -2C16.0101 -2 16.0101 -2 16.0101 -2C16.01 -2 16.01 -2 16.01 -2V2Z" fill="white" mask="url(#path-2-inside-1_6893_431)"/>
    </svg>