<svg width="88" height="88" viewBox="0 0 88 88" fill="none" xmlns="http://www.w3.org/2000/svg">
<path opacity="0.2" d="M42.3522 0.93399C43.3743 0.354627 44.6257 0.354626 45.6478 0.933989L63.14 10.8485L80.4723 21.0399C81.4852 21.6355 82.1108 22.7192 82.1202 23.8941L82.28 44L82.1202 64.1059C82.1108 65.2808 81.4852 66.3645 80.4723 66.9601L63.14 77.1515L45.6478 87.066C44.6257 87.6454 43.3743 87.6454 42.3522 87.066L24.86 77.1515L7.52766 66.9601C6.51483 66.3645 5.88917 65.2808 5.87983 64.1059L5.72 44L5.87983 23.8941C5.88917 22.7192 6.51483 21.6355 7.52766 21.0399L24.86 10.8485L42.3522 0.93399Z" fill="#1D1740"/>
<path d="M53.4685 82.4304L27.2913 59.5949L60.152 28.962L80.7596 66.8355L53.4685 82.4304Z" fill="url(#paint0_linear_875_69694)"/>
<path d="M55.6875 45.375C56.9113 45.375 58.1076 45.0121 59.1251 44.3322C60.1426 43.6523 60.9357 42.686 61.404 41.5554C61.8723 40.4247 61.9949 39.1806 61.7561 37.9804C61.5174 36.7801 60.9281 35.6776 60.0627 34.8123C59.1974 33.9469 58.0949 33.3576 56.8946 33.1189C55.6944 32.8801 54.4503 33.0027 53.3196 33.471C52.189 33.9393 51.2227 34.7324 50.5428 35.7499C49.8629 36.7674 49.5 37.9637 49.5 39.1875C49.5 40.8285 50.1519 42.4023 51.3123 43.5627C52.4727 44.7231 54.0465 45.375 55.6875 45.375ZM52.9375 38.5H55V36.4375H56.375V38.5H58.4375V39.875H56.375V41.9375H55V39.875H52.9375V38.5Z" fill="white"/>
<path d="M60.2319 45.2306C58.7753 46.3275 56.9715 46.8612 55.1526 46.7334C53.3337 46.6056 51.6222 45.825 50.3333 44.5353C49.0443 43.2455 48.2648 41.5335 48.1382 39.7145C48.0116 37.8955 48.5465 36.092 49.6444 34.6362C48.6586 34.2947 47.6438 34.0439 46.6125 33.8868L47.1625 30.5868C47.2118 30.2892 47.1952 29.9843 47.1139 29.6938C47.0325 29.4032 46.8885 29.1341 46.6918 28.9053C46.4951 28.6765 46.2506 28.4936 45.9756 28.3696C45.7006 28.2456 45.4017 28.1834 45.1 28.1874H42.8725C42.5708 28.1834 42.2719 28.2456 41.9969 28.3696C41.7219 28.4936 41.4774 28.6765 41.2807 28.9053C41.084 29.1341 40.94 29.4032 40.8586 29.6938C40.7773 29.9843 40.7607 30.2892 40.81 30.5868L41.36 33.8868C37.307 34.5168 33.6129 36.5755 30.9451 39.691C28.2772 42.8064 26.8114 46.7733 26.8125 50.8749V52.2499H61.1875C61.3059 49.8712 60.9819 47.4911 60.2319 45.2306ZM37.125 39.7649C35.5305 40.7523 34.1673 42.0714 33.1281 43.6326C32.0889 45.1938 31.398 46.9604 31.1025 48.8124C31.0761 48.9751 30.9922 49.1229 30.866 49.2289C30.7399 49.3349 30.5798 49.3921 30.415 49.3899H30.305C30.1256 49.3612 29.9649 49.2626 29.858 49.1158C29.7511 48.9689 29.7067 48.7857 29.7344 48.6062C30.065 46.5534 30.8351 44.5963 31.992 42.8686C33.1489 41.141 34.6653 39.6836 36.4375 38.5962C36.514 38.5319 36.6037 38.4852 36.7001 38.4591C36.7966 38.433 36.8976 38.4283 36.9961 38.4452C37.0946 38.4622 37.1882 38.5004 37.2704 38.5572C37.3526 38.614 37.4214 38.6881 37.4721 38.7742C37.5228 38.8603 37.554 38.9565 37.5638 39.0559C37.5735 39.1554 37.5614 39.2558 37.5284 39.3501C37.4953 39.4444 37.4421 39.5304 37.3724 39.602C37.3028 39.6737 37.2183 39.7293 37.125 39.7649Z" fill="white"/>
<path d="M63.25 53.625H24.75C24.5677 53.625 24.3928 53.6974 24.2639 53.8264C24.1349 53.9553 24.0625 54.1302 24.0625 54.3125V56.0312C24.0623 56.1481 24.0918 56.2631 24.1484 56.3653C24.2049 56.4675 24.2865 56.5537 24.3856 56.6156L27.1356 58.3344C27.245 58.4022 27.3713 58.4379 27.5 58.4375H60.5C60.6287 58.4379 60.755 58.4022 60.8644 58.3344L63.6144 56.6156C63.7135 56.5537 63.7951 56.4675 63.8517 56.3653C63.9082 56.2631 63.9377 56.1481 63.9375 56.0312V54.3125C63.9375 54.1302 63.8651 53.9553 63.7361 53.8264C63.6072 53.6974 63.4323 53.625 63.25 53.625Z" fill="white"/>
<defs>
<linearGradient id="paint0_linear_875_69694" x1="67.9495" y1="74.076" x2="45.114" y2="42.8861" gradientUnits="userSpaceOnUse">
<stop stop-color="#3E3184"/>
<stop offset="1" stop-color="#463896" stop-opacity="0"/>
</linearGradient>
</defs>
</svg>
