<svg width="88" height="88" viewBox="0 0 88 88" fill="none" xmlns="http://www.w3.org/2000/svg">
<path opacity="0.2" d="M42.5928 0.939296C43.6208 0.356641 44.8792 0.356641 45.9072 0.939296L63.4987 10.9102L80.9296 21.1595C81.9482 21.7584 82.5774 22.8482 82.5868 24.0298L82.7475 44.25L82.5868 64.4702C82.5774 65.6518 81.9482 66.7416 80.9296 67.3405L63.4987 77.5898L45.9072 87.5607C44.8792 88.1434 43.6208 88.1434 42.5928 87.5607L25.0012 77.5898L7.57043 67.3405C6.55185 66.7416 5.92263 65.6518 5.91323 64.4702L5.7525 44.25L5.91323 24.0298C5.92263 22.8482 6.55184 21.7584 7.57042 21.1595L25.0012 10.9102L42.5928 0.939296Z" fill="#8B3D00"/>
<path d="M53.9998 83L27.291 59.5949L60.1518 28.962L80.4998 67.5L53.9998 83Z" fill="url(#paint0_linear_875_69708)"/>
<g clip-path="url(#clip0_875_69708)">
<path d="M64.2465 39.7571L62.0115 37.5261C61.4649 36.975 61.1569 36.231 61.1539 35.4548V32.839C61.1517 31.2488 60.5189 29.7244 59.3943 28.6002C58.2697 27.4759 56.745 26.8436 55.1548 26.842H52.5432C52.1586 26.843 51.7775 26.768 51.4221 26.6211C51.0666 26.4743 50.7436 26.2586 50.4719 25.9865L48.2409 23.7535C47.1151 22.6306 45.59 22 44 22C42.41 22 40.8849 22.6306 39.7591 23.7535L37.5281 25.9865C37.2565 26.259 36.9337 26.475 36.5782 26.6222C36.2227 26.7694 35.8416 26.8448 35.4568 26.8441H32.8431C31.2529 26.8457 29.7283 27.478 28.6037 28.6022C27.479 29.7265 26.8462 31.2509 26.8441 32.8411V35.4548C26.842 36.2302 26.5346 36.9736 25.9885 37.5241L23.7535 39.7571C22.6306 40.8828 22 42.4079 22 43.998C22 45.588 22.6306 47.1131 23.7535 48.2388L25.9885 50.4698C26.5351 51.021 26.8431 51.7649 26.8461 52.5411V55.1569C26.8483 56.7471 27.4811 58.2715 28.6057 59.3957C29.7303 60.52 31.255 61.1523 32.8452 61.1539H35.4568C35.8416 61.1531 36.2227 61.2285 36.5782 61.3757C36.9337 61.5229 37.2565 61.739 37.5281 62.0115L39.7591 64.2445C40.8846 65.3679 42.4098 65.9988 44 65.9988C45.5902 65.9988 47.1154 65.3679 48.2409 64.2445L50.4719 62.0115C50.7435 61.739 51.0663 61.5229 51.4218 61.3757C51.7773 61.2285 52.1584 61.1531 52.5432 61.1539H55.1569C56.7471 61.1523 58.2717 60.52 59.3963 59.3957C60.521 58.2715 61.1538 56.7471 61.1559 55.1569V52.5411C61.1577 51.7652 61.4659 51.0215 62.0135 50.4719L64.2465 48.2388C65.3694 47.1131 66 45.588 66 43.998C66 42.4079 65.3694 40.8828 64.2465 39.7571Z" fill="white"/>
<path d="M49.1175 52.1848C50.8131 52.1848 52.1876 50.8103 52.1876 49.1147C52.1876 47.4191 50.8131 46.0446 49.1175 46.0446C47.4219 46.0446 46.0474 47.4191 46.0474 49.1147C46.0474 50.8103 47.4219 52.1848 49.1175 52.1848Z" fill="#E68031"/>
<path d="M38.8836 41.9511C40.5792 41.9511 41.9538 40.5765 41.9538 38.8809C41.9538 37.1853 40.5792 35.8108 38.8836 35.8108C37.188 35.8108 35.8135 37.1853 35.8135 38.8809C35.8135 40.5765 37.188 41.9511 38.8836 41.9511Z" fill="#E68031"/>
<path d="M38.2121 51.3232C37.9087 51.3224 37.6123 51.2318 37.3603 51.0628C37.1083 50.8939 36.912 50.6541 36.796 50.3738C36.68 50.0934 36.6495 49.785 36.7085 49.4874C36.7675 49.1898 36.9132 48.9163 37.1273 48.7013L48.7079 37.1228C49.0009 36.8652 49.3811 36.7289 49.771 36.7415C50.161 36.7542 50.5315 36.9148 50.8073 37.1908C51.0831 37.4669 51.2434 37.8375 51.2556 38.2275C51.2679 38.6175 51.1312 38.9975 50.8733 39.2903L39.2928 50.873C39.0064 51.1603 38.6177 51.3222 38.2121 51.3232Z" fill="#E68031"/>
</g>
<defs>
<linearGradient id="paint0_linear_875_69708" x1="67.9492" y1="74.076" x2="45.1138" y2="42.8861" gradientUnits="userSpaceOnUse">
<stop stop-color="#DD701D"/>
<stop offset="1" stop-color="#DD701D" stop-opacity="0"/>
</linearGradient>
<clipPath id="clip0_875_69708">
<rect width="44" height="44" fill="white" transform="translate(22 22)"/>
</clipPath>
</defs>
</svg>
