<svg xmlns="http://www.w3.org/2000/svg" width="21" height="21" viewBox="0 0 17 16" fill="none">
    <path d="M8.29333 1.47338L6.68666 5.21338H5.07999C4.81333 5.21338 4.55333 5.23338 4.29999 5.28672L4.96666 3.68672L4.99333 3.62672L5.03333 3.52005C5.05333 3.47338 5.06666 3.43338 5.08666 3.40005C5.85999 1.60672 6.72666 1.04672 8.29333 1.47338Z" fill="white"/>
    <path d="M12.82 5.39338L12.8067 5.38672C12.4067 5.27338 12 5.21338 11.5867 5.21338H7.41333L8.91333 1.72672L8.93333 1.68005C9.02666 1.71338 9.12666 1.76005 9.22666 1.79338L10.7 2.41338C11.52 2.75338 12.0933 3.10672 12.4467 3.53338C12.5067 3.61338 12.56 3.68672 12.6133 3.77338C12.6733 3.86672 12.72 3.96005 12.7467 4.06005C12.7733 4.12005 12.7933 4.17338 12.8067 4.23338C12.9067 4.57338 12.9133 4.96005 12.82 5.39338Z" fill="white"/>
    <path d="M8.67999 11.7734H8.84666C9.04666 11.7734 9.21333 11.5934 9.21333 11.3734C9.21333 11.0934 9.13333 11.0534 8.95999 10.9867L8.67999 10.8867V11.7734Z" fill="white"/>
    <path d="M12.5267 6.34672C12.2267 6.26005 11.9133 6.21338 11.5867 6.21338H5.07999C4.62666 6.21338 4.19999 6.30005 3.79999 6.47338C2.63999 6.97338 1.82666 8.12672 1.82666 9.46672V10.7667C1.82666 10.9267 1.83999 11.0801 1.85999 11.2401C2.00666 13.3601 3.13999 14.4934 5.25999 14.6334C5.41333 14.6534 5.56666 14.6667 5.73333 14.6667H10.9333C13.4 14.6667 14.7 13.4934 14.8267 11.1601C14.8333 11.0334 14.84 10.9001 14.84 10.7667V9.46672C14.84 7.99338 13.86 6.75338 12.5267 6.34672ZM9.18666 10.3334C9.49333 10.4401 9.90666 10.6667 9.90666 11.3734C9.90666 11.9801 9.43333 12.4667 8.84666 12.4667H8.67999V12.6134C8.67999 12.8067 8.52666 12.9601 8.33333 12.9601C8.13999 12.9601 7.98666 12.8067 7.98666 12.6134V12.4667H7.92666C7.28666 12.4667 6.75999 11.9267 6.75999 11.26C6.75999 11.0667 6.91333 10.9134 7.10666 10.9134C7.29999 10.9134 7.45333 11.0667 7.45333 11.26C7.45333 11.5401 7.66666 11.7734 7.92666 11.7734H7.98666V10.6467L7.47999 10.4667C7.17333 10.3601 6.75999 10.1334 6.75999 9.42672C6.75999 8.82005 7.23333 8.33338 7.81999 8.33338H7.98666V8.18672C7.98666 7.99338 8.13999 7.84005 8.33333 7.84005C8.52666 7.84005 8.67999 7.99338 8.67999 8.18672V8.33338H8.73999C9.37999 8.33338 9.90666 8.87338 9.90666 9.54005C9.90666 9.73338 9.75333 9.88672 9.55999 9.88672C9.36666 9.88672 9.21333 9.73338 9.21333 9.54005C9.21333 9.26005 8.99999 9.02672 8.73999 9.02672H8.67999V10.1534L9.18666 10.3334Z" fill="white"/>
    <path d="M7.45333 9.42672C7.45333 9.70672 7.53333 9.74672 7.70666 9.81338L7.98666 9.91338V9.02672H7.81999C7.61333 9.02672 7.45333 9.20672 7.45333 9.42672Z" fill="white"/>
    </svg>