<svg width="24" height="24" viewBox="0 0 24 24" fill="none" xmlns="http://www.w3.org/2000/svg">
<g clip-path="url(#clip0_10141_509303)">
<path d="M5.71875 2.90496V2.12548C5.71875 1.21051 6.46051 0.46875 7.37548 0.46875H16.5954C17.5104 0.46875 18.2521 1.21051 18.2521 2.12548V2.90496" fill="#EBE8FE"/>
<path d="M11.6418 2.90491H18.2521V20.6255H5.71875V2.90491H7.42309" fill="white"/>
<path d="M9.40039 3.37352C9.36999 3.37352 9.33905 3.37077 9.30902 3.36473C9.27899 3.3585 9.24951 3.34971 9.22095 3.338C9.19275 3.32628 9.16565 3.31163 9.1402 3.29478C9.11456 3.27757 9.09058 3.25835 9.06897 3.23674C9.04736 3.21458 9.02777 3.19078 9.01093 3.16551C8.99408 3.13969 8.97943 3.11241 8.96771 3.0844C8.95599 3.0562 8.94666 3.02672 8.94098 2.99669C8.93494 2.96629 8.93164 2.93571 8.93164 2.90532C8.93164 2.87437 8.93494 2.84398 8.94098 2.8134C8.94666 2.78337 8.95599 2.75389 8.96771 2.72569C8.97943 2.69768 8.99408 2.67039 9.01093 2.64476C9.02777 2.61931 9.04736 2.59496 9.06897 2.57335C9.09058 2.55193 9.11456 2.53215 9.1402 2.5153C9.16565 2.49846 9.19275 2.48381 9.22095 2.47209C9.24951 2.46037 9.27899 2.45158 9.30902 2.44554C9.46136 2.41496 9.62305 2.46458 9.73181 2.57335C9.75342 2.59496 9.77301 2.61931 9.78985 2.64476C9.80688 2.67039 9.82135 2.69768 9.83307 2.72569C9.84479 2.75389 9.85376 2.78337 9.8598 2.8134C9.86584 2.84398 9.86914 2.87437 9.86914 2.90532C9.86914 2.93571 9.86584 2.96629 9.8598 2.99669C9.85376 3.02672 9.84479 3.0562 9.83307 3.0844C9.82135 3.11241 9.80688 3.13969 9.78985 3.16551C9.77301 3.19078 9.75342 3.21458 9.73181 3.23674C9.64465 3.3239 9.52362 3.37352 9.40039 3.37352Z" fill="#50429B"/>
<path d="M18.2521 20.6255V21.8744C18.2521 22.7894 17.5104 23.5312 16.5954 23.5312H7.37548C6.46051 23.5312 5.71875 22.7894 5.71875 21.8744V20.6255H18.2521Z" fill="#EBE8FE"/>
<path d="M16.5954 0H7.37548C6.20361 0 5.25 0.953428 5.25 2.12548V21.8745C5.25 23.0465 6.20361 24 7.37548 24H16.5954C17.7672 24 18.7209 23.0465 18.7209 21.8745V2.12548C18.7209 0.953428 17.7672 0 16.5954 0ZM7.37548 0.937498H16.5954C17.2503 0.937498 17.7834 1.47052 17.7834 2.12548V2.4364H11.6418C11.3829 2.4364 11.1731 2.64623 11.1731 2.90515C11.1731 3.16387 11.3829 3.37389 11.6418 3.37389H17.7834V20.1568H6.1875V3.37389H7.42309C7.682 3.37389 7.89184 3.16387 7.89184 2.90515C7.89184 2.64623 7.682 2.4364 7.42309 2.4364H6.1875V2.12548C6.1875 1.47052 6.72052 0.937498 7.37548 0.937498ZM17.7834 21.8745C17.7834 22.5294 17.2503 23.0625 16.5954 23.0625H7.37548C6.72052 23.0625 6.1875 22.5294 6.1875 21.8745V21.0943H17.7834V21.8745Z" fill="#50429B"/>
<path d="M7.69922 6.79919H11.0072V10.107H7.69922V6.79919Z" fill="#FF8C21"/>
<path d="M11.0072 10.5757H7.69922C7.44031 10.5757 7.23047 10.3659 7.23047 10.107V6.79919C7.23047 6.54028 7.44031 6.33044 7.69922 6.33044H11.0072C11.2661 6.33044 11.4759 6.54028 11.4759 6.79919V10.107C11.4759 10.3659 11.2661 10.5757 11.0072 10.5757ZM8.16797 9.63824H10.5384V7.26794H8.16797V9.63824Z" fill="#50429B"/>
<path d="M12.9639 6.79919H16.2718V10.107H12.9639V6.79919Z" fill="#FF8C21"/>
<path d="M16.2718 10.5757H12.9639C12.705 10.5757 12.4951 10.3659 12.4951 10.107V6.79919C12.4951 6.54028 12.705 6.33044 12.9639 6.33044H16.2718C16.5308 6.33044 16.7406 6.54028 16.7406 6.79919V10.107C16.7406 10.3659 16.5308 10.5757 16.2718 10.5757ZM13.4326 9.63824H15.8031V7.26794H13.4326V9.63824Z" fill="#50429B"/>
<path d="M7.69922 12.0166H11.0072V15.3246H7.69922V12.0166Z" fill="#FF8C21"/>
<path d="M11.0072 15.7933H7.69922C7.44031 15.7933 7.23047 15.5835 7.23047 15.3246V12.0166C7.23047 11.7579 7.44031 11.5479 7.69922 11.5479H11.0072C11.2661 11.5479 11.4759 11.7579 11.4759 12.0166V15.3246C11.4759 15.5835 11.2661 15.7933 11.0072 15.7933ZM8.16797 14.8558H10.5384V12.4853H8.16797V14.8558Z" fill="#50429B"/>
<path d="M12.9639 12.0166H16.2718V15.3246H12.9639V12.0166Z" fill="#FF8C21"/>
<path d="M16.2718 15.7933H12.9639C12.705 15.7933 12.4951 15.5835 12.4951 15.3246V12.0166C12.4951 11.7579 12.705 11.5479 12.9639 11.5479H16.2718C16.5308 11.5479 16.7406 11.7579 16.7406 12.0166V15.3246C16.7406 15.5835 16.5308 15.7933 16.2718 15.7933ZM13.4326 14.8558H15.8031V12.4853H13.4326V14.8558Z" fill="#50429B"/>
<path d="M12.5635 22.547H11.4072C11.1483 22.547 10.9385 22.3372 10.9385 22.0782C10.9385 21.8193 11.1483 21.6095 11.4072 21.6095H12.5635C12.8224 21.6095 13.0323 21.8193 13.0323 22.0782C13.0323 22.3372 12.8224 22.547 12.5635 22.547Z" fill="#50429B"/>
<path d="M13.5322 17.8594H10.4385C10.1796 17.8594 9.96973 17.6495 9.96973 17.3906C9.96973 17.1317 10.1796 16.9219 10.4385 16.9219H13.5322C13.7909 16.9219 14.001 17.1317 14.001 17.3906C14.001 17.6495 13.7909 17.8594 13.5322 17.8594Z" fill="#50429B"/>
</g>
<defs>
<clipPath id="clip0_10141_509303">
<rect width="24" height="24" fill="white"/>
</clipPath>
</defs>
</svg>
