<svg width="24" height="24" viewBox="0 0 24 24" fill="none" xmlns="http://www.w3.org/2000/svg">
<g clip-path="url(#clip0_10141_509231)">
<path d="M8.73145 19.736H15.2412V21.6981H8.73145V19.736Z" fill="#A5ABDE"/>
<path d="M22.4278 19.736H1.54632C0.886413 19.736 0.351562 19.201 0.351562 18.5413V1.54602C0.351562 0.88629 0.886413 0.35144 1.54632 0.35144H22.4278C23.0875 0.35144 23.6224 0.88629 23.6224 1.54602V18.5413C23.6224 19.201 23.0875 19.736 22.4278 19.736Z" fill="#F7F5FF"/>
<path d="M23.6227 1.5462V18.5413C23.6227 19.2012 23.0878 19.736 22.4281 19.736H20.9688C21.6287 19.736 22.1633 19.2012 22.1633 18.5413V1.5462C22.1633 0.88629 21.6287 0.35144 20.9688 0.35144H22.4281C23.0878 0.35144 23.6227 0.88629 23.6227 1.5462Z" fill="#A5ABDE"/>
<path d="M23.6224 16.8578H0.351562V18.5413C0.351562 19.2012 0.886413 19.736 1.54632 19.736H22.4278C23.0875 19.736 23.6224 19.2012 23.6224 18.5413V16.8578Z" fill="#EBE8FE"/>
<path d="M23.6227 16.8575V18.5412C23.6227 19.2011 23.0878 19.736 22.4281 19.736H20.9688C21.6287 19.736 22.1633 19.2011 22.1633 18.5412V16.8575H23.6227Z" fill="#A5ABDE"/>
<path d="M23.6485 4.42681H0.376953V1.54602C0.376953 0.88629 0.911803 0.35144 1.57153 0.35144H22.4539C23.1137 0.35144 23.6485 0.88629 23.6485 1.54602V4.42681Z" fill="#EBE8FE"/>
<path d="M23.6494 1.54565V4.42681H22.1633V1.54565C22.1633 0.88629 21.6287 0.35144 20.9688 0.35144H22.4546C23.1146 0.35144 23.6494 0.88629 23.6494 1.54565Z" fill="#A5ABDE"/>
<path d="M3.27014 2.37915C3.27014 2.75433 2.966 3.05865 2.59064 3.05865C2.21527 3.05865 1.91113 2.75433 1.91113 2.37915C1.91113 2.00378 2.21527 1.69946 2.59064 1.69946C2.966 1.69946 3.27014 2.00378 3.27014 2.37915Z" fill="#FF6B81"/>
<path d="M5.89435 2.37915C5.89435 2.75433 5.59002 3.05865 5.21484 3.05865C4.83948 3.05865 4.53516 2.75433 4.53516 2.37915C4.53516 2.00378 4.83948 1.69946 5.21484 1.69946C5.59002 1.69946 5.89435 2.00378 5.89435 2.37915Z" fill="#FFD86E"/>
<path d="M8.51819 2.37915C8.51819 2.75433 8.21405 3.05865 7.83868 3.05865C7.4635 3.05865 7.15918 2.75433 7.15918 2.37915C7.15918 2.00378 7.4635 1.69946 7.83868 1.69946C8.21405 1.69946 8.51819 2.00378 8.51819 2.37915Z" fill="#80E0DC"/>
<path d="M3.26996 2.37933C3.26996 2.75451 2.966 3.05847 2.59082 3.05847C2.40918 3.05847 2.24384 2.98724 2.12207 2.8706C2.48975 2.86273 2.78564 2.56189 2.78564 2.19202C2.78564 1.99811 2.70471 1.82397 2.57489 1.7002C2.5802 1.69983 2.58569 1.69983 2.59082 1.69983C2.966 1.69983 3.26996 2.00378 3.26996 2.37933Z" fill="#FF435F"/>
<path d="M5.89435 2.37933C5.89435 2.75451 5.59039 3.05847 5.21484 3.05847C5.0332 3.05847 4.86822 2.98724 4.74609 2.8706C5.11413 2.86273 5.41022 2.56189 5.41022 2.19202C5.41022 1.99811 5.3291 1.82397 5.19946 1.7002C5.20459 1.69983 5.20972 1.69983 5.21484 1.69983C5.59039 1.69983 5.89435 2.00378 5.89435 2.37933Z" fill="#FFB509"/>
<path d="M8.51855 2.37933C8.51855 2.75451 8.21405 3.05847 7.83887 3.05847C7.65723 3.05847 7.49243 2.98724 7.37012 2.8706C7.73834 2.86273 8.03369 2.56189 8.03369 2.19202C8.03369 1.99811 7.95276 1.82397 7.82294 1.7002C7.82825 1.69983 7.83374 1.69983 7.83887 1.69983C8.21405 1.69983 8.51855 2.00378 8.51855 2.37933Z" fill="#00A8B0"/>
<path d="M17.3504 23.6229H6.62189C6.49261 23.6229 6.3877 23.518 6.3877 23.3887V22.6299C6.3877 22.1152 6.80499 21.6981 7.31952 21.6981H16.6529C17.1675 21.6981 17.5846 22.1152 17.5846 22.6299V23.3887C17.5846 23.518 17.4798 23.6229 17.3504 23.6229Z" fill="#EBE8FE"/>
<path d="M17.585 22.6298V23.3889C17.585 23.5182 17.48 23.6229 17.3508 23.6229H16.5242V22.6298C16.5242 22.1154 16.1069 21.6981 15.5928 21.6981H16.6535C17.1678 21.6981 17.585 22.1152 17.585 22.6298Z" fill="#A5ABDE"/>
<path d="M21.7743 15.5678H18.75V10.3076C18.75 10.1607 18.869 10.0415 19.0159 10.0415H21.5085C21.6553 10.0415 21.7743 10.1607 21.7743 10.3076V15.5678Z" fill="#FFA858"/>
<path d="M9.15734 15.5677H6.13281V12.1807C6.13281 12.0338 6.25183 11.9148 6.39868 11.9148H8.89147C9.03832 11.9148 9.15734 12.0338 9.15734 12.1807V15.5677Z" fill="#0396FD"/>
<path d="M13.3632 15.5679H10.3389V9.04309C10.3389 8.89624 10.4579 8.77722 10.6047 8.77722H13.0973C13.2442 8.77722 13.3634 8.89624 13.3634 9.04309V15.5679H13.3632Z" fill="#80E0DC"/>
<path d="M17.5683 15.5678H14.5439V6.27978C14.5439 6.13293 14.663 6.01392 14.8098 6.01392H17.3024C17.4493 6.01392 17.5685 6.13293 17.5685 6.27978V15.5678H17.5683Z" fill="#FF6B81"/>
<path d="M21.7748 15.5678H20.7793V10.0415H21.509C21.6558 10.0415 21.7748 10.1607 21.7748 10.3076V15.5678Z" fill="#FF8C21"/>
<path d="M9.15668 15.5677H8.16113V11.9148H8.89081C9.03766 11.9148 9.15668 12.0338 9.15668 12.1807V15.5677Z" fill="#0077F0"/>
<path d="M13.3627 15.5679H12.3672V8.77722H13.0969C13.2437 8.77722 13.3627 8.89624 13.3627 9.04309V15.5679Z" fill="#00A8B0"/>
<path d="M17.5687 15.5678H16.5889V6.01392H17.3028C17.4496 6.01392 17.5688 6.13293 17.5688 6.27978V15.5678H17.5687Z" fill="#FF435F"/>
<path d="M2.59027 1.34827C2.02191 1.34827 1.55957 1.81079 1.55957 2.37915C1.55957 2.94751 2.02191 3.40985 2.59027 3.40985C3.15863 3.40985 3.62115 2.94751 3.62115 2.37915C3.62115 1.81079 3.15863 1.34827 2.59027 1.34827ZM2.59027 2.70746C2.40936 2.70746 2.26196 2.56006 2.26196 2.37915C2.26196 2.19806 2.40936 2.05084 2.59027 2.05084C2.77136 2.05084 2.91858 2.19806 2.91858 2.37915C2.91858 2.56006 2.77136 2.70746 2.59027 2.70746Z" fill="#50429B"/>
<path d="M5.21448 1.34827C4.64612 1.34827 4.18359 1.81079 4.18359 2.37915C4.18359 2.94751 4.64612 3.40985 5.21448 3.40985C5.78283 3.40985 6.24517 2.94751 6.24517 2.37915C6.24517 1.81079 5.78283 1.34827 5.21448 1.34827ZM5.21448 2.70746C5.03338 2.70746 4.88617 2.56006 4.88617 2.37915C4.88617 2.19806 5.03338 2.05084 5.21448 2.05084C5.39538 2.05084 5.54278 2.19806 5.54278 2.37915C5.54278 2.56006 5.39538 2.70746 5.21448 2.70746Z" fill="#50429B"/>
<path d="M7.83929 1.34827C7.27093 1.34827 6.80859 1.81079 6.80859 2.37915C6.80859 2.94751 7.27093 3.40985 7.83929 3.40985C8.40765 3.40985 8.87017 2.94751 8.87017 2.37915C8.87017 1.81079 8.40765 1.34827 7.83929 1.34827ZM7.83929 2.70746C7.65838 2.70746 7.51098 2.56006 7.51098 2.37915C7.51098 2.19806 7.65838 2.05084 7.83929 2.05084C8.02038 2.05084 8.1676 2.19806 8.1676 2.37915C8.1676 2.56006 8.02038 2.70746 7.83929 2.70746Z" fill="#50429B"/>
<path d="M22.4542 0H1.54596C0.693602 0 0 0.693602 0 1.54596V18.5412C0 19.3137 0.56964 19.9557 1.31085 20.0694C1.38757 20.0811 1.46612 20.0872 1.54596 20.0872H8.38054V21.3469H7.31999C6.61266 21.3469 6.03698 21.9224 6.03698 22.63V23.3887C6.03698 23.7116 6.29955 23.9741 6.62236 23.9741H12.5387C12.7328 23.9741 12.8899 23.8168 12.8899 23.6229C12.8899 23.4288 12.7328 23.2716 12.5387 23.2716H6.73955V22.63C6.73955 22.3099 6.99993 22.0493 7.31999 22.0493H16.6534C16.9735 22.0493 17.2339 22.3097 17.2339 22.63V23.2716H14.7163C14.5224 23.2716 14.3651 23.4288 14.3651 23.6229C14.3651 23.8168 14.5224 23.9741 14.7163 23.9741H17.3509C17.6737 23.9741 17.9364 23.7116 17.9364 23.3887V22.63C17.9364 21.9224 17.3607 21.3469 16.6534 21.3469H15.5929V20.0872H22.4274C22.5073 20.0872 22.5858 20.0811 22.6626 20.0694C23.4038 19.9557 23.9734 19.3137 23.9734 18.5412V16.8578L24 1.54596C24 0.693419 23.3065 0 22.4542 0ZM14.8903 21.3469H9.08293V20.0872H14.8903V21.3469ZM23.2708 18.5412C23.2708 18.9772 22.9383 19.337 22.5135 19.3804C22.4851 19.3831 22.4566 19.3846 22.4274 19.3846H1.54596C1.51684 19.3846 1.4881 19.3831 1.4599 19.3804C1.03509 19.337 0.702574 18.9772 0.702574 18.5412V17.209H23.2708V18.5412ZM23.2708 16.5064H0.702574V4.77794H23.2708V16.5064ZM23.2708 4.07537H0.728392V1.54596C0.728392 1.08087 1.10669 0.702574 1.57177 0.702574H22.4274C22.8925 0.702574 23.2708 1.08105 23.2708 1.54596V4.07537Z" fill="#50429B"/>
<path d="M1.9176 6.41199H2.85199C3.0459 6.41199 3.20318 6.2547 3.20318 6.06079C3.20318 5.86688 3.0459 5.70959 2.85199 5.70959H1.9176C1.72369 5.70959 1.56641 5.86688 1.56641 6.06079C1.56641 6.2547 1.72369 6.41199 1.9176 6.41199Z" fill="#50429B"/>
<path d="M4.03888 6.41199H9.73876C9.93285 6.41199 10.0901 6.2547 10.0901 6.06079C10.0901 5.86688 9.93285 5.70959 9.73876 5.70959H4.03888C3.84479 5.70959 3.6875 5.86688 3.6875 6.06079C3.6875 6.2547 3.84479 6.41199 4.03888 6.41199Z" fill="#50429B"/>
<path d="M9.33105 7.95758C9.52496 7.95758 9.68225 7.80029 9.68225 7.6062C9.68225 7.41229 9.52496 7.255 9.33105 7.255H7.02209C6.828 7.255 6.6709 7.41229 6.6709 7.6062C6.6709 7.80029 6.828 7.95758 7.02209 7.95758H9.33105Z" fill="#50429B"/>
<path d="M6.24713 7.6062C6.24713 7.41229 6.08984 7.255 5.89593 7.255H5.10217C4.90826 7.255 4.75098 7.41229 4.75098 7.6062C4.75098 7.80029 4.90826 7.95758 5.10217 7.95758H5.89593C6.08984 7.95758 6.24713 7.80029 6.24713 7.6062Z" fill="#50429B"/>
<path d="M1.9176 7.95758H3.86199C4.05609 7.95758 4.21337 7.80029 4.21337 7.6062C4.21337 7.41229 4.05609 7.255 3.86199 7.255H1.9176C1.72369 7.255 1.56641 7.41229 1.56641 7.6062C1.56641 7.80029 1.72369 7.95758 1.9176 7.95758Z" fill="#50429B"/>
<path d="M9.98736 15.2166H9.50835V12.1807C9.50835 11.8405 9.2315 11.5636 8.89111 11.5636H6.3985C6.05829 11.5636 5.78125 11.8405 5.78125 12.1807V15.5678C5.78125 15.7619 5.93854 15.919 6.13263 15.919H21.7747C21.9687 15.919 22.1259 15.7619 22.1259 15.5678V10.3075C22.1259 9.96715 21.8491 9.6903 21.5087 9.6903H19.0161C18.6757 9.6903 18.399 9.96715 18.399 10.3075V15.2166H17.9202V9.64562C17.9202 9.45153 17.7629 9.29424 17.5688 9.29424C17.3749 9.29424 17.2176 9.45153 17.2176 9.64562V15.2166H14.8957V6.36529H17.2176V7.49121C17.2176 7.6853 17.3749 7.8424 17.5688 7.8424C17.7629 7.8424 17.9202 7.6853 17.9202 7.49121V6.27978C17.9202 5.93957 17.6433 5.66272 17.303 5.66272H14.8103C14.47 5.66272 14.1931 5.93957 14.1931 6.27978V15.2166H13.7141V9.04302C13.7141 8.70263 13.4374 8.42578 13.097 8.42578H10.6044C10.264 8.42578 9.98717 8.70263 9.98717 9.04302V15.2166H9.98736ZM8.80596 15.2166H6.48382V12.266H8.80596V15.2166ZM19.1016 10.3929H21.4236V15.2166H19.1016V10.3929ZM10.6897 9.12835H13.0117V15.2166H10.6897V9.12835Z" fill="#50429B"/>
</g>
<defs>
<clipPath id="clip0_10141_509231">
<rect width="24" height="24" fill="white"/>
</clipPath>
</defs>
</svg>
