<svg width="24" height="25" viewBox="0 0 24 25" fill="none" xmlns="http://www.w3.org/2000/svg">
<path d="M22.5575 10.8177C22.4593 10.8017 22.3599 10.7944 22.2604 10.7957H5.32893L5.69812 10.6239C6.059 10.4531 6.38731 10.2207 6.66833 9.93707L11.4164 5.18904C12.0417 4.59211 12.1468 3.63182 11.6653 2.91377C11.1051 2.1486 10.0306 1.98246 9.26537 2.54275C9.20355 2.58804 9.14479 2.63741 9.08957 2.69054L0.503632 11.2765C-0.167358 11.9467 -0.167949 13.034 0.502291 13.705C0.50272 13.7054 0.503203 13.7059 0.503632 13.7063L9.08957 22.2922C9.7611 22.9619 10.8483 22.9604 11.518 22.2888C11.5707 22.236 11.62 22.1798 11.6653 22.1205C12.1468 21.4025 12.0417 20.4422 11.4164 19.8452L6.67692 15.0886C6.42498 14.8364 6.13531 14.6249 5.81833 14.4619L5.30317 14.23H22.1659C23.0432 14.2626 23.8128 13.6498 23.9776 12.7876C24.1294 11.8515 23.4936 10.9695 22.5575 10.8177Z" fill="#50429B"/>
</svg>
