<svg width="24" height="22" viewBox="0 0 24 22" fill="none" xmlns="http://www.w3.org/2000/svg">
<path d="M22.5575 9.31766C22.4593 9.30172 22.3599 9.29437 22.2604 9.29566H5.32893L5.69812 9.12394C6.059 8.95314 6.38731 8.72067 6.66833 8.43707L11.4164 3.68904C12.0417 3.09211 12.1468 2.13182 11.6653 1.41377C11.1051 0.648602 10.0306 0.482465 9.26537 1.04275C9.20355 1.08804 9.14479 1.13741 9.08957 1.19054L0.503632 9.77647C-0.167358 10.4467 -0.167949 11.534 0.502291 12.205C0.50272 12.2054 0.503203 12.2059 0.503632 12.2063L9.08957 20.7922C9.7611 21.4619 10.8483 21.4604 11.518 20.7888C11.5707 20.736 11.62 20.6798 11.6653 20.6205C12.1468 19.9025 12.0417 18.9422 11.4164 18.3452L6.67692 13.5886C6.42498 13.3364 6.13531 13.1249 5.81833 12.9619L5.30317 12.73H22.1659C23.0432 12.7626 23.8128 12.1498 23.9776 11.2876C24.1294 10.3515 23.4936 9.46953 22.5575 9.31766Z" fill="#50429B"/>
</svg>
