<svg xmlns="http://www.w3.org/2000/svg" width="24" height="24" viewBox="0 0 24 24" fill="none">
    <g id="bag-tick">
        <path id="Vector"
            d="M18.84 6.58H19.24C19.7193 6.58 20.15 6.5983 20.4699 6.77513C20.6025 6.84848 20.7176 6.95196 20.8087 7.12525C20.9049 7.30814 21 7.61929 21 8.14C21 8.86755 20.8593 9.21112 20.7513 9.36801C20.6623 9.49725 20.5377 9.58608 20.2992 9.64458C20.1148 9.68299 19.904 9.7 19.64 9.7H4.36C4.06873 9.7 3.86086 9.68804 3.69464 9.64791L3.68746 9.64618L3.68026 9.64456C3.5039 9.60473 3.40991 9.54884 3.34139 9.47747L3.33432 9.47011L3.32711 9.46289C3.18012 9.3159 3 8.99691 3 8.14C3 7.61926 3.09515 7.30827 3.19127 7.12555C3.28231 6.95249 3.39746 6.84902 3.53058 6.77558C3.85177 6.59837 4.28499 6.58 4.77 6.58H5.17H5.58508H7.14H16.86H18.4258H18.84Z"
            fill="white" stroke="white" stroke-width="2" />
        <path id="Vector_2"
            d="M4.90709 13.0001L4.90995 13H19.0882L19.0881 13.0004L18.0781 18.2304L18.0776 18.2329C17.8989 19.171 17.6958 19.8054 17.2934 20.2356C16.9317 20.6222 16.2513 21 14.7299 21H9.11995C7.66784 21 6.94611 20.578 6.53962 20.1262C6.09681 19.634 5.87795 18.944 5.74696 18.1393L5.74686 18.1387L4.90709 13.0001ZM8.39493 15.751L8.38884 15.7569L8.38284 15.7629C7.70232 16.4434 7.70232 17.5566 8.38284 18.2371L9.88284 19.7371C10.2303 20.0845 10.679 20.25 11.1199 20.25C11.56 20.25 11.983 20.0862 12.309 19.7841C12.3095 19.7837 12.3099 19.7832 12.3104 19.7828L15.555 16.7878C16.2774 16.1307 16.3144 15.0309 15.6721 14.3197L15.6666 14.3137L15.661 14.3077C15.0107 13.6109 13.9001 13.5565 13.1901 14.2166L11.1778 16.0736L10.8671 15.7629L10.8611 15.7569L10.855 15.751C10.1674 15.0863 9.08253 15.0863 8.39493 15.751Z"
            fill="white" stroke="white" stroke-width="2" />
    </g>
</svg>