<svg width="25" height="24" viewBox="0 0 25 24" fill="none" xmlns="http://www.w3.org/2000/svg">
<g clip-path="url(#clip0_36_17450)">
<path d="M12.1289 17.2188H13.7352V18.825H12.1289V17.2188Z" fill="#50429B"/>
<path d="M18.5352 17.2188H20.1414V18.825H18.5352V17.2188Z" fill="#50429B"/>
<path d="M5.73047 11.1953H7.33678V12.8015H5.73047V11.1953Z" fill="#50429B"/>
<path d="M5.73047 17.2188H7.33678V18.825H5.73047V17.2188Z" fill="#50429B"/>
<path d="M22.3476 1.50623H21.8211V3.71564C21.8211 4.10395 21.5063 4.41877 21.118 4.41877C20.7297 4.41877 20.4148 4.10395 20.4148 3.71564V1.50623V0.703125C20.4148 0.314812 20.1 0 19.7117 0C19.3234 0 19.0086 0.314812 19.0086 0.703125V1.50623H17.3023V3.71564C17.3023 4.10395 16.9875 4.41877 16.5992 4.41877C16.2109 4.41877 15.8961 4.10395 15.8961 3.71564V1.50623V0.703125C15.8961 0.314812 15.5813 0 15.193 0C14.8047 0 14.4898 0.314812 14.4898 0.703125V1.50623H12.7836V3.71564C12.7836 4.10395 12.4688 4.41877 12.0805 4.41877C11.6922 4.41877 11.3773 4.10395 11.3773 3.71564V1.50623V0.703125C11.3773 0.314812 11.0625 0 10.6742 0C10.2859 0 9.97109 0.314812 9.97109 0.703125V1.50623H8.26484V3.71564C8.26484 4.10395 7.95003 4.41877 7.56172 4.41877C7.17341 4.41877 6.85859 4.10395 6.85859 3.71564V1.50623V0.703125C6.85859 0.314812 6.54378 0 6.15547 0C5.76716 0 5.45234 0.314812 5.45234 0.703125V1.50623H3.5195C2.09366 1.50623 0.933594 2.6663 0.933594 4.09219V6.02498H24.9336V4.09219C24.9336 2.6663 23.7735 1.50623 22.3476 1.50623Z" fill="#50429B"/>
<path d="M0.933594 21.4125C0.933594 22.8384 2.09366 23.9985 3.5195 23.9985H22.3476C23.7735 23.9985 24.9336 22.8384 24.9336 21.4125V7.42969H0.933594V21.4125ZM15.143 19.5297C15.143 19.918 14.8281 20.2328 14.4398 20.2328H11.4273C11.039 20.2328 10.7241 19.918 10.7241 19.5297V16.5172C10.7241 16.1289 11.039 15.8141 11.4273 15.8141H14.4398C14.8281 15.8141 15.143 16.1289 15.143 16.5172V19.5297ZM17.1258 10.4922C17.1258 10.1039 17.4406 9.78909 17.8289 9.78909H20.8414C21.2297 9.78909 21.5445 10.1039 21.5445 10.4922V13.5047C21.5445 13.893 21.2297 14.2078 20.8414 14.2078H17.8289C17.4406 14.2078 17.1258 13.893 17.1258 13.5047V10.4922ZM17.1258 16.5172C17.1258 16.1289 17.4406 15.8141 17.8289 15.8141H20.8414C21.2297 15.8141 21.5445 16.1289 21.5445 16.5172V19.5297C21.5445 19.918 21.2297 20.2328 20.8414 20.2328H17.8289C17.4406 20.2328 17.1258 19.918 17.1258 19.5297V16.5172ZM10.8388 11.5013C11.1134 11.2267 11.5586 11.2267 11.8332 11.5013L12.4011 12.0692L14.034 10.4362C14.3086 10.1617 14.7537 10.1616 15.0284 10.4362C15.303 10.7108 15.303 11.156 15.0284 11.4306L12.8984 13.5607C12.7665 13.6926 12.5877 13.7667 12.4012 13.7667C12.2147 13.7667 12.0359 13.6927 11.904 13.5607L10.8389 12.4956C10.5642 12.2211 10.5642 11.7758 10.8388 11.5013ZM4.32261 10.4922C4.32261 10.1039 4.63742 9.78909 5.02573 9.78909H8.0383C8.42661 9.78909 8.74142 10.1039 8.74142 10.4922V13.5047C8.74142 13.893 8.42661 14.2078 8.0383 14.2078H5.02573C4.63742 14.2078 4.32261 13.893 4.32261 13.5047V10.4922ZM4.32261 16.5172C4.32261 16.1289 4.63742 15.8141 5.02573 15.8141H8.0383C8.42661 15.8141 8.74142 16.1289 8.74142 16.5172V19.5297C8.74142 19.918 8.42661 20.2328 8.0383 20.2328H5.02573C4.63742 20.2328 4.32261 19.918 4.32261 19.5297V16.5172Z" fill="#50429B"/>
<path d="M18.5352 11.1953H20.1414V12.8015H18.5352V11.1953Z" fill="#50429B"/>
</g>
<defs>
<clipPath id="clip0_36_17450">
<rect width="24" height="24" fill="white" transform="translate(0.933594)"/>
</clipPath>
</defs>
</svg>
