<svg width="40" height="40" viewBox="0 0 40 40" fill="none" xmlns="http://www.w3.org/2000/svg">
<path d="M25.8721 7.82448C25.6558 8.3834 25.4104 8.90394 25.2517 9.44951C24.6239 11.6093 25.1824 13.4904 26.6652 15.1296C26.8004 15.2789 26.8472 15.4015 26.8021 15.5942C26.3454 17.5571 26.1517 19.5534 26.0507 21.5613C26.0455 21.6232 26.0369 21.6847 26.0248 21.7456C25.6433 21.6948 25.2735 21.6272 24.9044 21.5997C23.9026 21.5237 23.0393 21.8499 22.343 22.5807C21.1216 23.8687 20.8686 25.3978 21.3412 27.0445C21.6484 28.1098 22.1059 29.13 22.4549 30.1853C22.6454 30.7437 22.7799 31.3196 22.8565 31.9046C22.935 32.5527 22.5935 33.0366 22.0425 33.3744C21.4361 33.7451 20.7442 33.9529 20.0338 33.9776C16.8612 34.1269 13.9033 33.4445 11.2592 31.6518C7.75526 29.2768 5.64052 25.9801 5.12206 21.769C4.54183 17.0508 6.03625 13.0182 9.47677 9.74815C11.6474 7.68767 14.2573 6.49476 17.2311 6.12104C20.149 5.75232 22.9082 6.26369 25.5122 7.62261C25.64 7.68934 25.7627 7.76359 25.8721 7.82448ZM15.037 11.983C15.0334 12.5757 15.2059 13.1562 15.5326 13.651C15.8593 14.1458 16.3255 14.5326 16.8723 14.7625C17.4191 14.9924 18.0219 15.055 18.6043 14.9424C19.1868 14.8299 19.7227 14.5472 20.1443 14.1301C20.5659 13.7131 20.8542 13.1805 20.9726 12.5997C21.0911 12.0188 21.0345 11.416 20.8099 10.8673C20.5854 10.3187 20.203 9.84892 19.7111 9.51754C19.2192 9.18616 18.64 9.00803 18.0468 9.00571C17.6533 9.00308 17.2632 9.07807 16.8988 9.22638C16.5344 9.3747 16.2029 9.59343 15.9233 9.87003C15.6437 10.1466 15.4215 10.4756 15.2694 10.8382C15.1173 11.2008 15.0384 11.5898 15.037 11.983ZM8.99004 18.0151C8.99285 18.6079 9.17153 19.1865 9.50348 19.6779C9.83542 20.1692 10.3057 20.5512 10.8549 20.7754C11.4041 20.9997 12.0075 21.0562 12.5889 20.9378C13.1702 20.8194 13.7033 20.5314 14.1208 20.1102C14.5384 19.6891 14.8215 19.1537 14.9345 18.5717C15.0475 17.9898 14.9853 17.3874 14.7556 16.8408C14.526 16.2942 14.1393 15.8279 13.6445 15.5009C13.1496 15.1739 12.5688 15.0008 11.9756 15.0036C11.1805 15.0089 10.4199 15.3288 9.8603 15.8932C9.30074 16.4577 8.98781 17.2206 8.99004 18.0151ZM10.9937 26.0101C10.9964 26.6029 11.1749 27.1817 11.5068 27.6731C11.8386 28.1645 12.3089 28.5466 12.858 28.771C13.4072 28.9954 14.0107 29.052 14.592 28.9337C15.1734 28.8154 15.7066 28.5275 16.1243 28.1064C16.5419 27.6852 16.8251 27.1498 16.9382 26.5678C17.0512 25.9859 16.989 25.3835 16.7594 24.8368C16.5298 24.2902 16.1431 23.8238 15.6483 23.4968C15.1534 23.1697 14.5726 22.9967 13.9793 22.9995C13.1845 23.0039 12.4238 23.3227 11.8636 23.8861C11.3035 24.4495 10.9895 25.2117 10.9904 26.0059L10.9937 26.0101Z" fill="white"/>
<path d="M28.6389 16.5604C31.0642 17.1368 31.0642 17.1368 33.3618 16.5537C33.467 17.2294 33.5897 17.8993 33.6732 18.5733C33.9996 21.2713 34.0814 23.9932 33.9178 26.706C33.8017 28.7414 33.6439 30.7794 32.9827 32.7281C32.7894 33.3088 32.5078 33.8563 32.1479 34.3514C31.4966 35.2265 30.5265 35.2023 29.8194 34.3648C29.3744 33.8375 29.1306 33.2061 28.9286 32.5587C28.5053 31.2015 28.3158 29.8 28.1855 28.3877C27.9742 26.0968 27.9301 23.7936 28.0536 21.4964C28.1446 19.8496 28.3007 18.2038 28.6389 16.5604Z" fill="white"/>
<path d="M31.9938 5.00098C31.9754 6.18471 32.5273 7.06229 33.3179 7.82559C33.52 8.02079 33.707 8.23184 33.9073 8.42871C35.6389 10.138 35.1329 12.7098 33.646 13.9803C32.3662 15.074 30.906 15.3284 29.3681 14.636C27.8094 13.9344 27.018 12.6648 27.0029 10.9513C27.0062 10.5767 27.0757 10.2056 27.2083 9.8552C27.8232 8.12679 28.9586 6.63099 30.4585 5.57324C30.9026 5.25708 31.3919 5.03184 31.9938 5.00098Z" fill="white"/>
</svg>