<svg xmlns="http://www.w3.org/2000/svg" width="24" height="24" viewBox="0 0 24 24" fill="none">
    <path
        d="M20.8228 11.5771L20.8228 11.5771L20.8285 11.5827C21.0616 11.8122 21.0534 12.177 20.8256 12.3908L20.814 12.4017L20.8028 12.4129L19.2828 13.9329C19.0328 14.1828 18.8517 14.4997 18.7336 14.7845C18.6158 15.0687 18.5199 15.4195 18.5199 15.77V17.92C18.5199 18.2477 18.2476 18.52 17.9199 18.52H15.7699C15.4194 18.52 15.0686 18.6159 14.7844 18.7338C14.4996 18.8518 14.1827 19.033 13.9328 19.2829L12.4128 20.8029C12.1833 21.0324 11.7965 21.0324 11.567 20.8029L10.047 19.2829C9.79705 19.033 9.48017 18.8518 9.1954 18.7338C8.91117 18.6159 8.56037 18.52 8.20988 18.52H6.05988C5.73217 18.52 5.45988 18.2477 5.45988 17.92V15.77C5.45988 15.4195 5.36398 15.0687 5.24612 14.7845C5.12805 14.4997 4.94693 14.1828 4.69699 13.9329L3.17699 12.4129C2.94751 12.1834 2.94751 11.7966 3.17699 11.5671L4.69699 10.0471C4.94693 9.79717 5.12805 9.4803 5.24612 9.19552C5.36398 8.91129 5.45988 8.56049 5.45988 8.21V6.06C5.45988 5.73229 5.73217 5.46 6.05988 5.46H8.20988C8.5623 5.46 8.91484 5.36569 9.2029 5.24625C9.48466 5.12942 9.80141 4.94849 10.0499 4.69425L11.5824 3.18172L11.5824 3.18173L11.587 3.17711C11.8165 2.94764 12.2033 2.94764 12.4328 3.17711L13.9528 4.69711C14.2027 4.94705 14.5196 5.12817 14.8044 5.24625C15.0886 5.3641 15.4394 5.46 15.7899 5.46H17.9399C18.2676 5.46 18.5399 5.73229 18.5399 6.06V8.22001C18.5399 8.57049 18.6358 8.92129 18.7536 9.20552C18.8717 9.4903 19.0528 9.80717 19.3028 10.0571L20.8228 11.5771ZM8.99988 7C7.8976 7 6.99988 7.89772 6.99988 9C6.99988 10.1023 7.8976 11 8.99988 11C10.1187 11 10.9999 10.0958 10.9999 9C10.9999 7.89772 10.1022 7 8.99988 7ZM8.99988 16.75C9.44079 16.75 9.88957 16.5845 10.237 16.2371L16.237 10.2371C16.9175 9.55659 16.9175 8.44342 16.237 7.7629C15.5565 7.08237 14.4433 7.08237 13.7628 7.7629L7.76278 13.7629C7.08225 14.4434 7.08225 15.5566 7.76278 16.2371C8.11019 16.5845 8.55897 16.75 8.99988 16.75ZM12.9899 15C12.9899 16.1088 13.8941 17 14.9999 17C16.1152 17 16.9899 16.0891 16.9899 15C16.9899 13.8977 16.0922 13 14.9899 13C13.8876 13 12.9899 13.8977 12.9899 15Z"
        fill="white" stroke="white" stroke-width="2" />
</svg>