<svg width="62" height="66" viewBox="0 0 62 66" fill="none" xmlns="http://www.w3.org/2000/svg">
<g filter="url(#filter0_d_123_19924)">
<path d="M41.475 23.75H37.5V11.25C37.5 9.875 36.375 8.75 35 8.75H25C23.625 8.75 22.5 9.875 22.5 11.25V23.75H18.525C16.3 23.75 15.175 26.45 16.75 28.025L28.225 39.5C29.2 40.475 30.775 40.475 31.75 39.5L43.225 28.025C44.8 26.45 43.7 23.75 41.475 23.75ZM12.5 48.75C12.5 50.125 13.625 51.25 15 51.25H45C46.375 51.25 47.5 50.125 47.5 48.75C47.5 47.375 46.375 46.25 45 46.25H15C13.625 46.25 12.5 47.375 12.5 48.75Z" fill="white"/>
</g>
<defs>
<filter id="filter0_d_123_19924" x="-6" y="-6" width="80" height="80" filterUnits="userSpaceOnUse" color-interpolation-filters="sRGB">
<feFlood flood-opacity="0" result="BackgroundImageFix"/>
<feColorMatrix in="SourceAlpha" type="matrix" values="0 0 0 0 0 0 0 0 0 0 0 0 0 0 0 0 0 0 127 0" result="hardAlpha"/>
<feOffset dx="4" dy="4"/>
<feGaussianBlur stdDeviation="5"/>
<feComposite in2="hardAlpha" operator="out"/>
<feColorMatrix type="matrix" values="0 0 0 0 0 0 0 0 0 0 0 0 0 0 0 0 0 0 0.8 0"/>
<feBlend mode="normal" in2="BackgroundImageFix" result="effect1_dropShadow_123_19924"/>
<feBlend mode="normal" in="SourceGraphic" in2="effect1_dropShadow_123_19924" result="shape"/>
</filter>
</defs>
</svg>
