<svg width="36" height="36" viewBox="0 0 36 36" fill="none" xmlns="http://www.w3.org/2000/svg">
    <path d="M16.125 6.96004L9.47999 3.67504C5.89499 1.92004 2.95499 3.70504 2.95499 7.63504V29.895C2.95499 31.605 4.37999 33 6.11999 33H17.25C18.075 33 18.75 32.325 18.75 31.5V11.115C18.75 9.54004 17.565 7.66504 16.125 6.96004ZM13.455 20.625H8.24999C7.63499 20.625 7.12499 20.115 7.12499 19.5C7.12499 18.885 7.63499 18.375 8.24999 18.375H13.455C14.07 18.375 14.58 18.885 14.58 19.5C14.58 20.115 14.085 20.625 13.455 20.625ZM13.455 14.625H8.24999C7.63499 14.625 7.12499 14.115 7.12499 13.5C7.12499 12.885 7.63499 12.375 8.24999 12.375H13.455C14.07 12.375 14.58 12.885 14.58 13.5C14.58 14.115 14.085 14.625 13.455 14.625Z" fill="#50429B"/>
    <path d="M33 27.0601V29.2501C33 31.3201 31.32 33.0001 29.25 33.0001H22.455C21.645 33.0001 21 32.3551 21 31.5451V28.3051C22.605 28.5001 24.3 28.0351 25.515 27.0601C26.535 27.8851 27.84 28.3801 29.265 28.3801C30.66 28.3801 31.965 27.8851 33 27.0601Z" fill="#50429B"/>
    <path d="M33 22.575V22.59C32.88 24.555 31.275 26.13 29.265 26.13C27.18 26.13 25.515 24.435 25.515 22.38C25.515 24.675 23.4 26.52 21 26.055V18C21 17.04 21.885 16.32 22.83 16.53L25.515 17.13L26.235 17.295L29.295 17.985C30.03 18.135 30.705 18.39 31.29 18.765C31.29 18.78 31.305 18.78 31.305 18.78C31.455 18.885 31.605 19.005 31.74 19.14C32.43 19.83 32.88 20.835 32.985 22.305C32.985 22.395 33 22.485 33 22.575Z" fill="#50429B"/>
</svg>
