<svg width="24" height="24" viewBox="0 0 24 24" fill="none" xmlns="http://www.w3.org/2000/svg">
<path d="M11.9887 8.10967C11.5717 8.11642 11.2395 8.45617 11.2477 8.87392V14.5604L10.4055 13.7182C10.2645 13.5734 10.0725 13.4917 9.86925 13.4909C9.4545 13.4902 9.1185 13.8247 9.11775 14.2394C9.11775 14.4427 9.20025 14.6384 9.348 14.7817L11.469 16.9027C11.763 17.1937 12.2347 17.1937 12.5265 16.9027L14.652 14.7817C14.9392 14.4824 14.9295 14.0062 14.6302 13.7189C14.3392 13.4407 13.881 13.4399 13.59 13.7182L12.7477 14.5634V8.87392C12.756 8.45017 12.4117 8.10517 11.9887 8.10967ZM23.25 15.9937C23.25 18.2609 21.4013 20.1112 19.137 20.1112C14.6573 20.1112 10.179 20.1112 5.7 20.1112C2.9685 20.1112 0.75 17.8867 0.75 15.1522C0.75 12.6989 2.61975 10.8412 4.95675 10.4459C5.187 6.91042 7.92 4.18717 11.9445 3.88867C16.1295 4.18717 19.1033 7.09492 19.1033 10.8532C19.1025 11.2004 19.0095 11.5342 19.0477 11.8747C21.402 11.8747 23.25 13.7249 23.25 15.9937Z" fill="white"/>
</svg>
