<svg width="88" height="88" viewBox="0 0 88 88" fill="none" xmlns="http://www.w3.org/2000/svg">
<path opacity="0.2" d="M42.5928 0.939296C43.6208 0.356641 44.8792 0.356641 45.9072 0.939296L63.4987 10.9102L80.9296 21.1595C81.9482 21.7584 82.5774 22.8482 82.5868 24.0298L82.7475 44.25L82.5868 64.4702C82.5774 65.6518 81.9482 66.7416 80.9296 67.3405L63.4987 77.5898L45.9072 87.5607C44.8792 88.1434 43.6208 88.1434 42.5928 87.5607L25.0012 77.5898L7.57043 67.3405C6.55185 66.7416 5.92263 65.6518 5.91323 64.4702L5.7525 44.25L5.91323 24.0298C5.92263 22.8482 6.55184 21.7584 7.57042 21.1595L25.0012 10.9102L42.5928 0.939296Z" fill="#6D1F1F"/>
<path d="M53.9998 83L27.291 59.5949L60.1518 28.962L80.4998 67.5L53.9998 83Z" fill="url(#paint0_linear_7469_246128)"/>
<path fill-rule="evenodd" clip-rule="evenodd" d="M43.546 29.8182H37.6C37.0112 29.8182 36.4544 29.9398 35.9344 30.1334L47.8074 38.8487L48.9811 36.3537L43.546 29.8182ZM46.4194 41.7991L44.4811 45.9193L50.4022 53.1084V45.9193L51.3747 43.4643C51.9805 43.3362 52.5732 43.0898 53.1216 42.7238L67.3616 32.271C67.7568 32.9686 68 33.7606 68 34.6166V34.6182V53.8182C68 56.4646 65.8464 58.6182 63.2 58.6182H37.6C34.9536 58.6182 32.8 56.4646 32.8 53.8182V34.6182C32.8 33.7622 33.0432 32.9686 33.4384 32.271L46.4194 41.7991ZM53.2887 38.633L54.1916 36.3537L49.2955 29.8182H63.1984C63.7872 29.8182 64.344 29.9382 64.8656 30.1334L53.2887 38.633ZM21.6 34.6182H29.6C30.4832 34.6182 31.2 35.335 31.2 36.2182C31.2 37.1014 30.4832 37.8182 29.6 37.8182H21.6C20.7168 37.8182 20 37.1014 20 36.2182C20 35.335 20.7168 34.6182 21.6 34.6182ZM24.8 42.6182H29.6C30.4832 42.6182 31.2 43.335 31.2 44.2182C31.2 45.1014 30.4832 45.8182 29.6 45.8182H24.8C23.9168 45.8182 23.2 45.1014 23.2 44.2182C23.2 43.335 23.9168 42.6182 24.8 42.6182ZM26.4 50.6182H29.6C30.4832 50.6182 31.2 51.335 31.2 52.2182C31.2 53.1014 30.4832 53.8182 29.6 53.8182H26.4C25.5168 53.8182 24.8 53.1014 24.8 52.2182C24.8 51.335 25.5168 50.6182 26.4 50.6182Z" fill="white"/>
<defs>
<linearGradient id="paint0_linear_7469_246128" x1="67.9492" y1="74.076" x2="45.1138" y2="42.8861" gradientUnits="userSpaceOnUse">
<stop stop-color="#C85252"/>
<stop offset="1" stop-color="#C85252" stop-opacity="0"/>
</linearGradient>
</defs>
</svg>
