<svg width="24" height="24" viewBox="0 0 24 24" fill="none" xmlns="http://www.w3.org/2000/svg">
<path d="M23.353 0.647334C22.936 0.229725 22.3811 -0.000244141 21.7906 -0.000244141H13.3771C12.7869 -0.000244141 12.232 0.229631 11.8147 0.647053L0.647391 11.8143C0.229875 12.2318 0 12.7866 0 13.3767C0 13.9669 0.229969 14.5217 0.647391 14.9389L9.0607 23.3522C9.47798 23.7698 10.0328 23.9998 10.623 23.9998C11.2131 23.9998 11.768 23.7699 12.1854 23.3524L23.3527 12.1851C23.7701 11.7677 24 11.2128 24 10.6226V2.20912C24 1.61863 23.77 1.06372 23.353 0.647334ZM12 5.52993C13.2183 5.52993 14.2094 6.52105 14.2094 7.73929C14.2094 8.95752 13.2183 9.94865 12 9.94865C10.7818 9.94865 9.79069 8.95752 9.79069 7.73929C9.79069 6.52105 10.7818 5.52993 12 5.52993ZM12 18.4695C10.7818 18.4695 9.79069 17.4784 9.79069 16.2601C9.79069 15.0419 10.7818 14.0508 12 14.0508C13.2183 14.0508 14.2094 15.0419 14.2094 16.2601C14.2094 17.4784 13.2183 18.4695 12 18.4695ZM16.5187 12.7028H7.48134C7.09303 12.7028 6.77822 12.388 6.77822 11.9997C6.77822 11.6114 7.09303 11.2966 7.48134 11.2966H16.5187C16.9071 11.2966 17.2219 11.6114 17.2219 11.9997C17.2219 12.388 16.9071 12.7028 16.5187 12.7028ZM19.5313 5.17162C19.1431 5.17162 18.8281 4.85662 18.8281 4.46849C18.8281 4.08037 19.1431 3.76537 19.5313 3.76537C19.9194 3.76537 20.2344 4.08037 20.2344 4.46849C20.2344 4.85662 19.9194 5.17162 19.5313 5.17162Z" fill="#50429B"/>
</svg>
