<svg width="24" height="24" viewBox="0 0 24 24" fill="none" xmlns="http://www.w3.org/2000/svg">
<path d="M20.5716 10.7142C20.5716 10.0041 19.9959 9.42847 19.2859 9.42847H4.71443C4.00434 9.42847 3.42871 10.0041 3.42871 10.7142V13.2856H20.5716V10.7142ZM6.00014 11.1428H5.143V11.9999C5.143 12.2366 4.95112 12.4285 4.71443 12.4285C4.47773 12.4285 4.28585 12.2366 4.28585 11.9999V10.7142C4.28585 10.4775 4.47773 10.2856 4.71443 10.2856H6.00014C6.23683 10.2856 6.42871 10.4775 6.42871 10.7142C6.42871 10.9509 6.23683 11.1428 6.00014 11.1428Z" fill="#50429B"/>
<path d="M3.42871 22.7143C3.42871 23.4243 4.00434 24 4.71443 24H19.2859C19.9959 24 20.5716 23.4243 20.5716 22.7143V20.1428H3.42871V22.7143Z" fill="#50429B"/>
<path d="M23.5714 14.1428H0.428571C0.191878 14.1428 0 14.3347 0 14.5714V18.8571C0 19.0938 0.191878 19.2857 0.428571 19.2857H23.5714C23.8081 19.2857 24 19.0938 24 18.8571V14.5714C24 14.3347 23.8081 14.1428 23.5714 14.1428ZM4.095 17.2148C4.29193 17.3462 4.34508 17.6123 4.21371 17.8093C4.08235 18.0062 3.81621 18.0593 3.61929 17.928L3 17.5148V18C3 18.2367 2.80812 18.4285 2.57143 18.4285C2.33474 18.4285 2.14286 18.2367 2.14286 18V17.5148L1.52357 17.928C1.32664 18.0593 1.06051 18.0062 0.929143 17.8093C0.797778 17.6123 0.850928 17.3462 1.04786 17.2148L1.8 16.7143L1.04786 16.2137C0.850928 16.0823 0.797778 15.8162 0.929143 15.6193C1.06051 15.4223 1.32664 15.3692 1.52357 15.5005L2.14286 15.9137V15.4285C2.14286 15.1918 2.33474 15 2.57143 15C2.80812 15 3 15.1918 3 15.4285V15.9137L3.61929 15.5005C3.74668 15.4156 3.90973 15.405 4.04701 15.4728C4.1843 15.5407 4.27497 15.6766 4.28487 15.8294C4.29477 15.9822 4.22239 16.1287 4.095 16.2137L3.34286 16.7143L4.095 17.2148ZM8.80929 17.2148C9.00622 17.3462 9.05937 17.6123 8.928 17.8093C8.79664 18.0062 8.5305 18.0593 8.33357 17.928L7.71429 17.5148V18C7.71429 18.2367 7.52241 18.4285 7.28571 18.4285C7.04902 18.4285 6.85714 18.2367 6.85714 18V17.5148L6.23786 17.928C6.04093 18.0593 5.77479 18.0062 5.64343 17.8093C5.51206 17.6123 5.56521 17.3462 5.76214 17.2148L6.51429 16.7143L5.76343 16.2137C5.5665 16.0823 5.51335 15.8162 5.64471 15.6193C5.77608 15.4223 6.04221 15.3692 6.23914 15.5005L6.85714 15.9137V15.4285C6.85714 15.1918 7.04902 15 7.28571 15C7.52241 15 7.71429 15.1918 7.71429 15.4285V15.9137L8.33357 15.5005C8.46096 15.4156 8.62401 15.405 8.7613 15.4728C8.89859 15.5407 8.98926 15.6766 8.99916 15.8294C9.00906 15.9822 8.93668 16.1287 8.80929 16.2137L8.05714 16.7143L8.80929 17.2148ZM13.5236 17.2148C13.7205 17.3462 13.7737 17.6123 13.6423 17.8093C13.5109 18.0062 13.2448 18.0593 13.0479 17.928L12.4286 17.5148V18C12.4286 18.2367 12.2367 18.4285 12 18.4285C11.7633 18.4285 11.5714 18.2367 11.5714 18V17.5148L10.9521 17.928C10.7552 18.0593 10.4891 18.0062 10.3577 17.8093C10.2263 17.6123 10.2795 17.3462 10.4764 17.2148L11.2286 16.7143L10.4777 16.2137C10.2808 16.0823 10.2276 15.8162 10.359 15.6193C10.4904 15.4223 10.7565 15.3692 10.9534 15.5005L11.5714 15.9137V15.4285C11.5714 15.1918 11.7633 15 12 15C12.2367 15 12.4286 15.1918 12.4286 15.4285V15.9137L13.0479 15.5005C13.1752 15.4156 13.3383 15.405 13.4756 15.4728C13.6129 15.5407 13.7035 15.6766 13.7134 15.8294C13.7233 15.9822 13.651 16.1287 13.5236 16.2137L12.7714 16.7143L13.5236 17.2148ZM18.2379 17.2148C18.4348 17.3462 18.4879 17.6123 18.3566 17.8093C18.2252 18.0062 17.9591 18.0593 17.7621 17.928L17.1429 17.5148V18C17.1429 18.2367 16.951 18.4285 16.7143 18.4285C16.4776 18.4285 16.2857 18.2367 16.2857 18V17.5148L15.6664 17.928C15.4695 18.0593 15.2034 18.0062 15.072 17.8093C14.9406 17.6123 14.9938 17.3462 15.1907 17.2148L15.9429 16.7143L15.192 16.2137C14.9951 16.0823 14.9419 15.8162 15.0733 15.6193C15.2047 15.4223 15.4708 15.3692 15.6677 15.5005L16.2857 15.9137V15.4285C16.2857 15.1918 16.4776 15 16.7143 15C16.951 15 17.1429 15.1918 17.1429 15.4285V15.9137L17.7621 15.5005C17.8895 15.4156 18.0526 15.405 18.1899 15.4728C18.3272 15.5407 18.4178 15.6766 18.4277 15.8294C18.4376 15.9822 18.3652 16.1287 18.2379 16.2137L17.4857 16.7143L18.2379 17.2148ZM22.7143 18.4285H20.1429C19.9062 18.4285 19.7143 18.2367 19.7143 18C19.7143 17.7633 19.9062 17.5714 20.1429 17.5714H22.7143C22.951 17.5714 23.1429 17.7633 23.1429 18C23.1429 18.2367 22.951 18.4285 22.7143 18.4285Z" fill="#50429B"/>
<path d="M7.28557 6.42857C7.28557 3.82494 9.39623 1.71429 11.9999 1.71429C14.6035 1.71429 16.7141 3.82494 16.7141 6.42857V8.57143H18.4284V6.42857C18.4284 2.87817 15.5503 0 11.9999 0C8.44946 0 5.57129 2.87817 5.57129 6.42857V8.57143H7.28557V6.42857Z" fill="#50429B"/>
</svg>