<svg width="24" height="24" viewBox="0 0 24 24" fill="none" xmlns="http://www.w3.org/2000/svg">
<g clip-path="url(#clip0_7487_83656)">
<path d="M20.6984 14.548C20.5109 14.3277 20.1641 14.3277 19.9766 14.548C19.0672 15.6121 16.7656 18.7949 16.7656 20.3652C16.7656 22.3199 18.3641 23.9043 20.3375 23.9043C22.3109 23.9043 23.9094 22.3199 23.9094 20.3652C23.9094 18.7996 21.6078 15.6121 20.6984 14.548Z" fill="white"/>
<path d="M21.3475 11.3571C21.5303 11.1696 21.5303 10.8696 21.3428 10.6821L10.8334 0.247678C10.6459 0.0601782 10.3459 0.0648657 10.1584 0.252366L7.84747 2.59143L11.3912 6.13518C11.5881 6.08362 11.7897 6.04612 12.0006 6.04612C13.3178 6.04612 14.3818 7.11018 14.3818 8.42737C14.3818 9.74455 13.3178 10.8086 12.0006 10.8086C10.6834 10.8086 9.61934 9.74455 9.61934 8.42737C9.61934 8.21643 9.65684 8.01487 9.7084 7.81799L6.17403 4.28362L0.230279 10.293C0.0474665 10.4805 0.0474665 10.7805 0.234967 10.968L9.55372 20.2164C9.74122 20.4039 10.0412 20.3992 10.2287 20.2117L18.3475 11.9992L21.3475 11.3571Z" fill="white"/>
<path d="M5.70273 0.441797C5.23867 -0.0222656 4.48398 -0.0222656 4.01992 0.441797C3.55586 0.905859 3.55586 1.66055 4.01992 2.12461L6.17617 4.28086L7.84961 2.58867L5.70273 0.441797Z" fill="white"/>
</g>
<defs>
<clipPath id="clip0_7487_83656">
<rect width="24" height="24" fill="white"/>
</clipPath>
</defs>
</svg>