<svg width="24" height="22" viewBox="0 0 24 22" fill="none" xmlns="http://www.w3.org/2000/svg">
<g clip-path="url(#clip0_10141_508608)">
<path d="M9.47656 16.8038H14.6509V20.4062H9.47656V16.8038Z" fill="#EBE8FE"/>
<path d="M13.1553 16.8038H14.6511V20.4062H13.1553V16.8038Z" fill="#DBD6F9"/>
<path d="M1.02611 13.7093L0.561523 14.6014V16.5387C0.561523 16.9951 0.977513 17.3651 1.49069 17.3651H22.7222C23.2354 17.3651 23.6514 16.9951 23.6514 16.5387V14.6014L23.1868 13.7093H1.02611Z" fill="#EBE8FE"/>
<path d="M23.1868 13.7093H21.554V14.6734C21.554 15.1298 21.138 15.4998 20.6248 15.4998H0.561523V16.5388C0.561523 16.9952 0.977513 17.3651 1.49069 17.3651H22.7222C23.2354 17.3651 23.6514 16.9952 23.6514 16.5388V14.6015L23.1868 13.7093Z" fill="#DBD6F9"/>
<path d="M22.7222 3.71143H1.49069C0.977513 3.71143 0.561523 4.08139 0.561523 4.53779V14.601H23.6514V4.53779C23.6514 4.08139 23.2354 3.71143 22.7222 3.71143Z" fill="#F7F5FF"/>
<path d="M22.7229 3.71149H21.5547V14.6011H23.6521V4.53785C23.6521 4.08145 23.2361 3.71149 22.7229 3.71149Z" fill="#EBE8FE"/>
<path d="M12.0644 12.9193C15.4008 12.9193 18.1054 10.5139 18.1054 7.54668C18.1054 4.57947 15.4008 2.17407 12.0644 2.17407C8.72809 2.17407 6.02344 4.57947 6.02344 7.54668C6.02344 10.5139 8.72809 12.9193 12.0644 12.9193Z" fill="#FF8C21"/>
<path d="M15.4035 3.07025C16.0396 3.92112 16.4109 4.94201 16.4109 6.04033C16.4109 9.00751 13.7063 11.4129 10.3699 11.4129C9.13494 11.4129 7.98704 11.0827 7.03027 10.517C8.11252 11.9648 9.96255 12.9195 12.0639 12.9195C15.4002 12.9195 18.1049 10.5141 18.1049 7.54691C18.1049 5.67809 17.0314 4.03276 15.4035 3.07025Z" fill="#E48124"/>
<path d="M22.722 3.40122H16.4542C16.4476 3.40122 16.4412 3.40175 16.4347 3.40208C16.205 3.21033 15.9582 3.03229 15.695 2.87032C15.5367 2.77301 15.3197 2.80818 15.2102 2.94882C15.1007 3.08955 15.1402 3.28263 15.2984 3.38002C16.8375 4.32695 17.7562 5.88452 17.7562 7.54647C17.7562 10.338 15.2025 12.6092 12.0637 12.6092C8.92484 12.6092 6.37115 10.338 6.37115 7.54647C6.37115 4.75493 8.92484 2.48379 12.0637 2.48379C12.6868 2.48379 13.2991 2.57266 13.8837 2.74798C14.0661 2.8028 14.2638 2.71554 14.3252 2.55337C14.3867 2.39119 14.2888 2.21538 14.1064 2.16072C13.4499 1.96384 12.7626 1.86401 12.0637 1.86401C8.54053 1.86401 5.67427 4.41314 5.67427 7.54647C5.67427 10.6798 8.54053 13.229 12.0637 13.229C15.5868 13.229 18.4531 10.6798 18.4531 7.54647C18.4531 6.25131 17.9556 5.01292 17.0737 4.02099H22.722C23.0423 4.02099 23.3028 4.25266 23.3028 4.53747V14.2908H20.5468C20.3543 14.2908 20.1983 14.4295 20.1983 14.6007C20.1983 14.7719 20.3543 14.9106 20.5468 14.9106H23.3028V16.538C23.3028 16.8228 23.0423 17.0545 22.722 17.0545H1.4905C1.17026 17.0545 0.909768 16.8228 0.909768 16.538V14.9106H18.7919C18.9844 14.9106 19.1404 14.7719 19.1404 14.6007C19.1404 14.4295 18.9844 14.2908 18.7919 14.2908H0.909768V4.53747C0.909768 4.25266 1.17026 4.02099 1.4905 4.02099H5.64566C5.83813 4.02099 5.9941 3.88228 5.9941 3.7111C5.9941 3.53992 5.83813 3.40122 5.64566 3.40122H1.4905C0.786003 3.40122 0.212891 3.91096 0.212891 4.53747V16.538C0.212891 17.1645 0.786003 17.6742 1.4905 17.6742H9.12809V20.096H8.07618C7.8837 20.096 7.72774 20.2348 7.72774 20.4059C7.72774 20.5771 7.8837 20.7158 8.07618 20.7158H16.0512C16.2436 20.7158 16.3996 20.5771 16.3996 20.4059C16.3996 20.2348 16.2436 20.096 16.0512 20.096H14.9992V17.6742H22.722C23.4265 17.6742 23.9997 17.1645 23.9997 16.538V4.53747C23.9997 3.91096 23.4265 3.40122 22.722 3.40122ZM14.3024 20.0961H9.82497V17.6743H14.3024V20.0961Z" fill="#50429B"/>
<path d="M9.58028 5.071C9.50594 4.72066 9.16104 4.46631 8.7601 4.46631H8.3875C8.19502 4.46631 8.03906 4.60501 8.03906 4.7762C8.03906 4.94738 8.19502 5.08608 8.3875 5.08608H8.7601C8.8263 5.08608 8.88321 5.12806 8.89548 5.18595L9.92667 10.0435C9.95775 10.1899 10.1016 10.2959 10.2691 10.2959H10.5042C10.4012 10.3982 10.3381 10.5328 10.3381 10.6809C10.3381 11.0003 10.6293 11.2592 10.9884 11.2592C11.3475 11.2592 11.6387 11.0003 11.6387 10.6809C11.6387 10.5328 11.5756 10.3982 11.4726 10.2959H12.9061C12.8032 10.3982 12.74 10.5328 12.74 10.6809C12.74 11.0003 13.0312 11.2592 13.3903 11.2592C13.7494 11.2592 14.0406 11.0003 14.0406 10.6809C14.0406 10.5328 13.9775 10.3982 13.8745 10.2959H14.1881C14.3806 10.2959 14.5365 10.1571 14.5365 9.98597C14.5365 9.81479 14.3806 9.67608 14.1881 9.67608H10.5578L10.4156 9.00644H14.3097C14.4771 9.00644 14.6208 8.90058 14.652 8.75423L15.2705 5.85258C15.2708 5.85072 15.2713 5.84886 15.2716 5.847C15.2924 5.73854 15.2586 5.62814 15.1788 5.54405C15.099 5.45997 14.9823 5.41175 14.8586 5.41175H9.65261L9.58028 5.071ZM10.1 7.51898H11.0506L11.1219 8.38666H10.2842L10.1 7.51898ZM12.5882 7.51898L12.5169 8.38666H11.8206L11.7493 7.51898H12.5882ZM11.6984 6.89921L11.6271 6.03157H12.7104L12.6391 6.89921H11.6984ZM13.2157 8.38666L13.287 7.51898H14.2061L14.0212 8.38666H13.2157ZM14.3382 6.89921H13.3379L13.4092 6.03157H14.5232L14.3382 6.89921ZM10.9283 6.03157L10.9996 6.89921H9.96839L9.78418 6.03157H10.9283Z" fill="white"/>
<path d="M2.48223 12.0791H4.54317C4.73565 12.0791 4.89161 11.9404 4.89161 11.7692C4.89161 11.5981 4.73565 11.4594 4.54317 11.4594H2.48223C2.28975 11.4594 2.13379 11.5981 2.13379 11.7692C2.13379 11.9404 2.28975 12.0791 2.48223 12.0791Z" fill="#50429B"/>
<path d="M2.48223 13.4768H6.32779C6.52026 13.4768 6.67622 13.3381 6.67622 13.1669C6.67622 12.9958 6.52026 12.8571 6.32779 12.8571H2.48223C2.28975 12.8571 2.13379 12.9958 2.13379 13.1669C2.13379 13.3381 2.28975 13.4768 2.48223 13.4768Z" fill="#50429B"/>
<path d="M20.8834 5.19012C20.6909 5.19012 20.535 5.32883 20.535 5.50001V6.2756H19.6629C19.4704 6.2756 19.3145 6.4143 19.3145 6.58548C19.3145 6.75666 19.4704 6.89537 19.6629 6.89537H20.535V7.67095C20.535 7.84213 20.6909 7.98084 20.8834 7.98084C21.0759 7.98084 21.2318 7.84213 21.2318 7.67095V6.89537H22.1039C22.2963 6.89537 22.4523 6.75666 22.4523 6.58548C22.4523 6.4143 22.2963 6.2756 22.1039 6.2756H21.2318V5.50001C21.2318 5.32887 21.0758 5.19012 20.8834 5.19012Z" fill="#FC983B"/>
</g>
<defs>
<clipPath id="clip0_10141_508608">
<rect width="23.7868" height="21.1549" fill="white" transform="translate(0.213867 0.714294)"/>
</clipPath>
</defs>
</svg>
