<svg width="24" height="28" viewBox="0 0 24 28" fill="none" xmlns="http://www.w3.org/2000/svg">
<path d="M8.12247 18.5819L3.01459 27.0455H6.19216L10.0613 20.631C9.50974 20.0795 8.83519 19.3795 8.12247 18.5819Z" fill="#50429B"/>
<path d="M12.5728 21.9504L12 22.4679L11.4316 21.9504C11.3891 21.9122 11.2406 21.7764 11.0116 21.5601H10.4897L8.95398 24.1055H23.4334L21.8976 21.5601H12.9885C12.7594 21.7764 12.6152 21.9122 12.5728 21.9504Z" fill="#50429B"/>
<path d="M5.33517 21.5601H2.10668L0.570923 24.1055H3.79941L5.33517 21.5601Z" fill="#50429B"/>
<path d="M12.0001 21.3225C12.0001 21.3225 20.277 13.8007 20.277 9.22732C20.277 4.65398 16.5691 0.95459 12.0001 0.95459C7.43096 0.95459 3.72308 4.65823 3.72308 9.23156C3.72308 13.8049 12.0001 21.3225 12.0001 21.3225ZM9.03036 9.23156C9.03036 7.58974 10.3582 6.26186 12.0001 6.26186C13.6419 6.26186 14.9698 7.58974 14.9698 9.23156C14.9698 10.8734 13.6419 12.2013 12.0001 12.2013C10.3582 12.2013 9.03036 10.8691 9.03036 9.23156Z" fill="#50429B"/>
<path d="M7.53278 17.9116L7.61763 17.7716H7.414H5.34793C4.754 17.7716 4.20248 18.0855 3.89703 18.5946L2.62006 20.7116H5.8443L7.53278 17.9116Z" fill="#50429B"/>
<path d="M18.6522 17.7716H16.5861C15.5849 18.9468 14.6006 19.9734 13.8582 20.7116H21.3843L20.1073 18.5946C19.7976 18.0855 19.2461 17.7716 18.6522 17.7716Z" fill="#50429B"/>
<path d="M0.150938 24.954C-0.0951226 25.9722 0.664271 27.0455 1.80124 27.0455H2.02185L3.28185 24.954H0.150938Z" fill="#50429B"/>
<path d="M23.8492 24.954H8.44066L7.18066 27.0455H22.1988C23.3358 27.0455 24.0952 25.9764 23.8492 24.954Z" fill="#50429B"/>
</svg>
