<svg width="24" height="25" viewBox="0 0 24 25" fill="none" xmlns="http://www.w3.org/2000/svg">
<g id="grabexpress-seeklogo.com-2 1">
<g clip-path="url(#clip0_1241_79475)">
<rect y="0.5" width="24" height="24" rx="8" fill="#009828"/>
<path id="Vector" d="M12 24.5C18.6274 24.5 24 19.1274 24 12.5C24 5.87258 18.6274 0.5 12 0.5C5.37258 0.5 0 5.87258 0 12.5C0 19.1274 5.37258 24.5 12 24.5Z" fill="#009539"/>
<path id="Vector_2" d="M5.24658 16.8045C5.12974 16.7326 5.00145 16.6814 4.86729 16.6529C4.71848 16.6221 4.5647 16.6245 4.41693 16.66C4.306 16.6847 4.20394 16.7393 4.12181 16.8178C4.03969 16.8964 3.98063 16.9959 3.95105 17.1056C3.89091 17.3016 3.89321 17.5115 3.95764 17.7061C4.04234 17.9687 4.23434 18.1009 4.50258 18.1296C4.62475 18.1437 4.7485 18.132 4.86587 18.0953C4.90493 18.0831 4.92423 18.0656 4.92329 18.0214C4.92046 17.8986 4.92093 17.7762 4.92329 17.6534C4.92329 17.6087 4.91152 17.5904 4.86352 17.5918C4.76046 17.5951 4.65693 17.5918 4.55387 17.5918C4.50117 17.5918 4.48705 17.5739 4.4894 17.5249C4.4927 17.4576 4.4894 17.3894 4.4894 17.3221C4.4894 17.284 4.49599 17.2624 4.54164 17.2624C4.79262 17.2642 5.0436 17.2642 5.29458 17.2624C5.34164 17.2624 5.34681 17.2849 5.34634 17.3221C5.34634 17.4351 5.34634 17.548 5.34634 17.6609C5.34634 17.8384 5.34634 18.0162 5.34634 18.1936C5.34838 18.214 5.34421 18.2345 5.33439 18.2525C5.32456 18.2705 5.30954 18.2851 5.29129 18.2944C5.14419 18.3886 4.97799 18.4491 4.8047 18.4713C4.58226 18.5051 4.355 18.4862 4.14117 18.4162C3.75246 18.2751 3.53646 17.9927 3.46964 17.5908C3.43816 17.4121 3.44701 17.2287 3.49552 17.0539C3.53537 16.8965 3.61349 16.7515 3.72293 16.6316C3.83237 16.5118 3.96974 16.4208 4.12281 16.3668C4.45865 16.2414 4.82883 16.2434 5.16329 16.3725C5.2574 16.4059 5.2574 16.4092 5.2574 16.5136C5.25991 16.6107 5.25629 16.7079 5.24658 16.8045Z" fill="white"/>
<path id="Vector_3" d="M6.0536 17.0572C6.10066 17.0101 6.1289 16.9706 6.16325 16.9376C6.21566 16.8872 6.27855 16.8489 6.34743 16.8255C6.41632 16.802 6.48952 16.7941 6.56184 16.8021C6.6089 16.8049 6.6296 16.8209 6.62725 16.8727C6.62348 16.9781 6.62725 17.084 6.62725 17.1951C6.51987 17.1793 6.4106 17.1815 6.30395 17.2016C6.26312 17.212 6.22387 17.2279 6.18725 17.2487C6.14941 17.266 6.11782 17.2945 6.09677 17.3304C6.07572 17.3662 6.06623 17.4077 6.0696 17.4492C6.07666 17.7551 6.07242 18.0609 6.0696 18.3673C6.0696 18.4473 6.0696 18.4478 5.99195 18.4482C5.91431 18.4487 5.84372 18.4482 5.76937 18.4482C5.65878 18.4482 5.6696 18.4605 5.6696 18.3541C5.6696 18.0125 5.6696 17.671 5.6696 17.3296C5.6696 17.1885 5.6696 17.0473 5.6696 16.9061C5.6696 16.8398 5.6696 16.8393 5.73972 16.8384C5.8169 16.8384 5.89407 16.8384 5.97172 16.8384C6.00654 16.8384 6.02442 16.8478 6.02772 16.8854C6.03431 16.9329 6.04372 16.9861 6.0536 17.0572Z" fill="white"/>
<path id="Vector_4" d="M8.06541 17.4074C8.06461 17.3719 8.06194 17.3366 8.05741 17.3015C8.03011 17.0379 7.87905 16.8699 7.61976 16.8163C7.45772 16.7861 7.29172 16.7839 7.12894 16.8097C7.036 16.8216 6.94568 16.8488 6.86164 16.8902C6.83858 16.9015 6.81176 16.9109 6.81223 16.9424C6.80799 17.0379 6.8094 17.1336 6.81646 17.229C6.82489 17.2303 6.83346 17.2303 6.84188 17.229C6.85976 17.2224 6.87717 17.2144 6.89458 17.2059C7.0505 17.1333 7.2234 17.105 7.39435 17.1241C7.57035 17.1405 7.65505 17.2304 7.66305 17.4064C7.66305 17.4426 7.65458 17.4586 7.61599 17.4634C7.53599 17.4723 7.45646 17.4855 7.37693 17.4972C7.226 17.5124 7.07817 17.55 6.93835 17.6088C6.85532 17.6428 6.78562 17.703 6.73978 17.7802C6.69394 17.8573 6.67444 17.9473 6.68423 18.0365C6.69411 18.2318 6.78588 18.3796 6.97364 18.4431C7.22776 18.5288 7.47011 18.5165 7.66682 18.3019C7.66964 18.2986 7.67811 18.2996 7.68423 18.2986C7.69842 18.3312 7.70624 18.3662 7.70729 18.4017C7.70729 18.4394 7.72893 18.4488 7.76376 18.4488C7.84141 18.4488 7.91858 18.4488 7.99623 18.4488C8.06305 18.4488 8.06446 18.4488 8.06446 18.3777C8.06572 18.0539 8.06603 17.7305 8.06541 17.4074ZM7.53976 18.1471C7.44804 18.1966 7.34132 18.2105 7.23999 18.1862C7.19979 18.1799 7.16286 18.1603 7.13513 18.1305C7.10739 18.1007 7.09046 18.0625 7.08705 18.0219C7.07765 17.9789 7.08391 17.934 7.1047 17.8951C7.12549 17.8563 7.15944 17.8262 7.20046 17.8102C7.26216 17.7826 7.3277 17.7647 7.39482 17.757C7.46823 17.7462 7.54117 17.7354 7.61411 17.7236C7.65176 17.7175 7.66776 17.7311 7.66588 17.7706C7.66399 17.8102 7.66588 17.8478 7.66588 17.8864C7.66454 17.9021 7.66454 17.9178 7.66588 17.9335C7.68611 18.0431 7.62352 18.1024 7.53976 18.1471Z" fill="white"/>
<path id="Vector_5" d="M9.88993 17.1965C9.85208 17.0925 9.78636 17.0009 9.69996 16.9318C9.61356 16.8627 9.5098 16.8186 9.40005 16.8045C9.18452 16.7697 8.9817 16.8007 8.8184 16.9654C8.81702 16.9681 8.81508 16.9704 8.81272 16.9722C8.81036 16.974 8.80763 16.9753 8.80473 16.976C8.80182 16.9767 8.79881 16.9767 8.79589 16.9761C8.79297 16.9755 8.79022 16.9743 8.78781 16.9725C8.78056 16.9438 8.7788 16.9139 8.78264 16.8845C8.78264 16.6751 8.78264 16.4652 8.78264 16.2558C8.78264 16.1537 8.78734 16.1617 8.69511 16.18C8.61275 16.1956 8.53181 16.2181 8.44946 16.2304C8.39723 16.2384 8.38123 16.2586 8.38123 16.3109C8.38311 17.0011 8.38311 17.6912 8.38123 18.3814C8.38123 18.4285 8.39017 18.4525 8.44428 18.4487C8.512 18.445 8.57987 18.445 8.64758 18.4487C8.69464 18.4511 8.71723 18.4374 8.72617 18.389C8.73181 18.3574 8.72617 18.3179 8.75817 18.2949C8.79817 18.3269 8.83487 18.3584 8.87299 18.389C8.9144 18.42 8.9609 18.4436 9.0104 18.4586C9.29276 18.5452 9.69793 18.4812 9.87299 18.0944C9.93826 17.9542 9.97348 17.8019 9.9764 17.6472C9.97931 17.4926 9.94986 17.3391 9.88993 17.1965ZM9.52617 17.8647C9.50614 17.9359 9.4683 18.0007 9.41621 18.0532C9.36413 18.1056 9.29953 18.1439 9.22852 18.1644C9.15752 18.1849 9.08246 18.1869 9.01044 18.1703C8.93843 18.1537 8.87185 18.119 8.81699 18.0694C8.80481 18.0592 8.79529 18.0461 8.78923 18.0313C8.78317 18.0166 8.78075 18.0006 8.78217 17.9847C8.78217 17.8751 8.78217 17.7654 8.78217 17.6553C8.78217 17.5452 8.78217 17.436 8.78217 17.3259C8.78097 17.3066 8.78465 17.2873 8.79287 17.2698C8.8011 17.2523 8.8136 17.2371 8.82923 17.2257C8.89559 17.169 8.97624 17.1317 9.06239 17.1177C9.14853 17.1038 9.23685 17.1138 9.3177 17.1466C9.45134 17.1965 9.51205 17.3113 9.53981 17.4431C9.57047 17.5826 9.56578 17.7275 9.52617 17.8647Z" fill="white"/>
<path id="Vector_6" d="M10.2588 17.3762V16.428C10.2588 16.4054 10.2588 16.3809 10.2588 16.3602C10.2588 16.3268 10.2758 16.3131 10.3059 16.3169H11.4475C11.5266 16.3169 11.5271 16.3169 11.528 16.396C11.528 16.4637 11.528 16.5315 11.528 16.5992C11.528 16.6463 11.5115 16.66 11.4659 16.6595C11.2532 16.6595 11.0424 16.6595 10.8273 16.6595C10.6923 16.6595 10.6923 16.6595 10.6923 16.8007C10.6923 16.907 10.6923 17.0134 10.6923 17.1197C10.6923 17.1865 10.6923 17.188 10.7633 17.188C10.9515 17.188 11.1435 17.188 11.3341 17.188C11.4132 17.188 11.4137 17.188 11.4146 17.267C11.4146 17.3298 11.4146 17.3909 11.4146 17.4505C11.4146 17.5169 11.4123 17.5178 11.3426 17.5183C11.1624 17.5183 10.9817 17.5183 10.801 17.5183C10.7817 17.5183 10.7624 17.5183 10.7431 17.5183C10.7064 17.516 10.6913 17.5315 10.6913 17.5691C10.6913 17.7334 10.6913 17.8985 10.6913 18.0623C10.6913 18.1188 10.7275 18.1127 10.7628 18.1127C10.9821 18.1127 11.2014 18.1127 11.4217 18.1127C11.5595 18.1127 11.5379 18.0976 11.5398 18.2303C11.5398 18.2821 11.5365 18.3338 11.5398 18.3851C11.5431 18.4364 11.5191 18.4487 11.472 18.4487C11.0885 18.4487 10.705 18.4487 10.321 18.4487C10.2579 18.4487 10.257 18.4487 10.257 18.3748C10.2582 18.041 10.2588 17.7081 10.2588 17.3762Z" fill="white"/>
<path id="Vector_7" d="M12.4997 17.324C12.551 17.2593 12.5972 17.1909 12.6381 17.1193C12.6899 17.0416 12.7383 16.9616 12.7891 16.884C12.8042 16.86 12.8164 16.8336 12.8536 16.8336C12.9684 16.8336 13.0833 16.8336 13.2004 16.8336C13.1981 16.8691 13.1828 16.9026 13.1576 16.9277C13.0211 17.1353 12.8851 17.3428 12.7459 17.5484C12.7298 17.5658 12.721 17.5886 12.721 17.6122C12.721 17.6358 12.7298 17.6586 12.7459 17.676C12.8997 17.899 13.0494 18.1249 13.2 18.3499C13.2228 18.3729 13.239 18.4017 13.247 18.4331C13.231 18.4576 13.2061 18.4477 13.1859 18.4482C13.0988 18.4482 13.0108 18.4416 12.9247 18.4506C12.8386 18.4595 12.7863 18.4223 12.7426 18.3475C12.6555 18.1974 12.5586 18.0529 12.4659 17.9066C12.4282 17.9221 12.4188 17.9536 12.4023 17.9819C12.3167 18.115 12.2306 18.2473 12.1501 18.3833C12.139 18.406 12.121 18.4246 12.0987 18.4365C12.0764 18.4484 12.0509 18.453 12.0259 18.4496C11.9275 18.4454 11.8287 18.4496 11.7233 18.4496C11.7319 18.4152 11.7479 18.3831 11.7703 18.3555C11.9115 18.1362 12.0527 17.915 12.1986 17.6995C12.2202 17.6747 12.2318 17.6427 12.231 17.6097C12.2302 17.5768 12.2171 17.5454 12.1943 17.5216C12.0593 17.3291 11.9303 17.132 11.8 16.9362C11.7826 16.9103 11.7567 16.8891 11.7557 16.8529C11.7713 16.8275 11.7962 16.8374 11.8169 16.8374C11.911 16.8374 12.0051 16.843 12.0993 16.8374C12.1306 16.8328 12.1626 16.8389 12.1901 16.8546C12.2176 16.8704 12.239 16.895 12.2508 16.9244C12.3256 17.0543 12.4131 17.1856 12.4997 17.324Z" fill="white"/>
<path id="Vector_8" d="M15.0405 17.5376C15.0346 17.3727 14.986 17.2121 14.8993 17.0717C14.6767 16.7301 14.1299 16.7098 13.8965 16.9649C13.8828 16.9795 13.8739 17.0054 13.8386 16.9988C13.8334 16.9592 13.8278 16.9188 13.8226 16.8778C13.8231 16.8712 13.8221 16.8646 13.8197 16.8585C13.8173 16.8523 13.8135 16.8468 13.8087 16.8422C13.8039 16.8377 13.7981 16.8344 13.7918 16.8324C13.7855 16.8304 13.7788 16.8298 13.7723 16.8308C13.6819 16.8308 13.5916 16.8308 13.5012 16.8308C13.4664 16.8308 13.457 16.8472 13.4588 16.8778C13.4588 16.8971 13.4588 16.9164 13.4588 16.9357V18.9484C13.4588 18.9677 13.4588 18.987 13.4588 19.0063C13.4565 19.0435 13.4725 19.0581 13.5097 19.0576C13.6038 19.0576 13.6979 19.0576 13.792 19.0576C13.864 19.0576 13.865 19.0576 13.8654 18.9818C13.8654 18.7914 13.8654 18.6011 13.8654 18.411V18.3018C13.941 18.3751 14.0327 18.4296 14.1332 18.4609C14.4706 18.5432 14.8193 18.4199 14.9699 18.0482C15.0321 17.8856 15.0562 17.7109 15.0405 17.5376ZM14.5986 17.867C14.5788 17.9374 14.5414 18.0015 14.4898 18.0533C14.4382 18.1051 14.3743 18.1428 14.304 18.163C14.2338 18.1831 14.1596 18.1849 14.0884 18.1683C14.0172 18.1517 13.9515 18.1171 13.8974 18.0679C13.8852 18.0578 13.8756 18.045 13.8693 18.0304C13.863 18.0159 13.8602 18 13.8612 17.9842C13.8612 17.8712 13.8612 17.7583 13.8612 17.6454C13.8612 17.5324 13.8636 17.4327 13.8612 17.3263C13.8596 17.3055 13.8635 17.2847 13.8724 17.2659C13.8813 17.2471 13.895 17.2309 13.912 17.219C13.9772 17.1653 14.0555 17.13 14.1389 17.1167C14.2223 17.1034 14.3077 17.1126 14.3864 17.1432C14.5247 17.1931 14.5864 17.3108 14.6146 17.4458C14.6447 17.5855 14.6392 17.7305 14.5986 17.8675V17.867Z" fill="white"/>
<path id="Vector_9" d="M15.6584 17.0562C15.7054 17.0091 15.7341 16.9696 15.7685 16.9366C15.8221 16.8851 15.8867 16.8463 15.9574 16.8232C16.0282 16.8002 16.1032 16.7934 16.1769 16.8035C16.2024 16.8063 16.2301 16.8077 16.2301 16.8449V17.1959C16.1227 17.1786 16.013 17.1806 15.9064 17.2021C15.8687 17.211 15.8324 17.2246 15.7981 17.2425C15.7583 17.2595 15.7249 17.2885 15.7025 17.3255C15.6801 17.3625 15.67 17.4056 15.6734 17.4486C15.6805 17.7545 15.6762 18.0604 15.6758 18.3668C15.6758 18.4454 15.6758 18.4458 15.5962 18.4463C15.5064 18.4463 15.416 18.4463 15.3256 18.4463C15.2894 18.4463 15.272 18.435 15.2753 18.3969C15.2753 18.3743 15.2753 18.3498 15.2753 18.3291V16.9479C15.2753 16.9254 15.2753 16.9009 15.2753 16.8806C15.2753 16.8501 15.2824 16.8336 15.3176 16.8336C15.408 16.8336 15.4979 16.8336 15.5882 16.8336C15.5937 16.8327 15.5993 16.833 15.6046 16.8345C15.61 16.836 15.6149 16.8387 15.6191 16.8423C15.6233 16.846 15.6266 16.8505 15.6288 16.8556C15.6311 16.8607 15.6321 16.8662 15.632 16.8717C15.6391 16.9277 15.648 16.9837 15.6584 17.0562Z" fill="white"/>
<path id="Vector_10" d="M17.751 17.1315C17.7169 17.0618 17.6692 16.9996 17.6106 16.9487C17.552 16.8977 17.4837 16.8591 17.4099 16.8351C17.302 16.8009 17.1886 16.7874 17.0758 16.7951C16.928 16.7982 16.7846 16.8456 16.6641 16.9312C16.5436 17.0168 16.4516 17.1366 16.4 17.2751C16.3415 17.4366 16.3232 17.6099 16.3468 17.78C16.3835 18.1301 16.5948 18.3725 16.9322 18.4548C17.0994 18.4924 17.2721 18.4981 17.4414 18.4718C17.5471 18.4583 17.6501 18.4287 17.7468 18.3838C17.7666 18.3748 17.7939 18.3682 17.7939 18.3409C17.7999 18.2409 17.7982 18.1405 17.7887 18.0407C17.7769 18.0407 17.7732 18.0369 17.7708 18.0379L17.7007 18.0699C17.5487 18.1428 17.381 18.1767 17.2127 18.1687C16.9209 18.1569 16.7656 18.0115 16.7365 17.7207C16.7687 17.7099 16.803 17.7067 16.8367 17.7113H17.7948C17.823 17.7113 17.8343 17.6977 17.8358 17.6704C17.8447 17.4845 17.8353 17.3 17.751 17.1315ZM16.759 17.4351C16.759 17.2318 16.9219 17.0849 17.1379 17.0882C17.3294 17.0911 17.4456 17.2224 17.4409 17.4351H16.759Z" fill="white"/>
<path id="Vector_11" d="M19.0964 17.1946C18.9943 17.1523 18.8884 17.1197 18.7802 17.0972C18.6976 17.0821 18.6131 17.0802 18.5299 17.0915C18.4113 17.1103 18.3534 17.2077 18.3939 17.3094C18.4032 17.33 18.4165 17.3485 18.4332 17.3638C18.4499 17.3791 18.4695 17.3908 18.4908 17.3983C18.5541 17.4225 18.6193 17.4415 18.6856 17.4553C18.7795 17.4784 18.8712 17.5099 18.9595 17.5494C19.0281 17.5787 19.0872 17.6267 19.13 17.6878C19.1728 17.7489 19.1977 17.8208 19.2019 17.8953C19.2268 18.1475 19.103 18.3621 18.8621 18.4397C18.6046 18.5239 18.3247 18.506 18.08 18.3899C18.0558 18.3816 18.0352 18.3651 18.022 18.3433C18.0087 18.3214 18.0036 18.2956 18.0075 18.2703C18.0127 18.188 18.0075 18.1047 18.0075 18.0214C18.0546 18.012 18.0734 18.0426 18.0993 18.0581C18.2583 18.1601 18.4487 18.2017 18.6357 18.1753C18.6903 18.1699 18.7407 18.144 18.7769 18.1028C18.7919 18.0848 18.8027 18.0636 18.8085 18.0409C18.8143 18.0182 18.815 17.9944 18.8105 17.9714C18.806 17.9484 18.7964 17.9266 18.7824 17.9078C18.7685 17.8889 18.7505 17.8734 18.7299 17.8623C18.6868 17.8401 18.6411 17.8234 18.5939 17.8129C18.5167 17.7903 18.4376 17.7729 18.3614 17.7475C18.1087 17.6633 17.992 17.499 18.0037 17.2501C18.0136 17.0313 18.1661 16.859 18.407 16.8054C18.6135 16.7621 18.828 16.7772 19.0263 16.8492C19.0365 16.8507 19.0463 16.8543 19.0551 16.8596C19.0639 16.8649 19.0715 16.872 19.0776 16.8803C19.0837 16.8886 19.0881 16.898 19.0905 16.908C19.0929 16.918 19.0933 16.9284 19.0917 16.9386C19.0936 17.0176 19.0964 17.0981 19.0964 17.1946Z" fill="white"/>
<path id="Vector_12" d="M19.3544 17.9988C19.4573 18.0736 19.5731 18.1288 19.696 18.1616C19.7965 18.1866 19.9011 18.1898 20.0028 18.171C20.0946 18.1517 20.1506 18.0972 20.1595 18.0223C20.1671 17.987 20.1615 17.9502 20.1437 17.9188C20.1259 17.8874 20.0972 17.8636 20.0631 17.852C19.9914 17.8232 19.9174 17.8007 19.8419 17.7847C19.7667 17.7667 19.6933 17.7418 19.6226 17.7103C19.5401 17.6755 19.4702 17.6163 19.4223 17.5406C19.3744 17.4649 19.3509 17.3763 19.3548 17.2868C19.3511 17.1959 19.3747 17.1059 19.4226 17.0286C19.4705 16.9512 19.5405 16.89 19.6235 16.8529C19.7379 16.7996 19.8636 16.775 19.9897 16.7814C20.1252 16.782 20.2597 16.8058 20.3873 16.8515C20.4292 16.867 20.4508 16.8868 20.4475 16.9348C20.4433 16.9927 20.4475 17.0506 20.4475 17.1089C20.4475 17.1988 20.4475 17.1993 20.3652 17.1663C20.2345 17.11 20.0933 17.0824 19.9511 17.0854C19.9194 17.0855 19.8878 17.0892 19.857 17.0962C19.8246 17.1009 19.7949 17.1165 19.7725 17.1403C19.7502 17.1642 19.7367 17.1949 19.7341 17.2275C19.7278 17.2612 19.7335 17.2961 19.7502 17.3261C19.7669 17.3561 19.7935 17.3793 19.8254 17.3917C19.8693 17.4126 19.9154 17.4283 19.9628 17.4388C20.0659 17.4652 20.1671 17.4957 20.2678 17.5329C20.6659 17.6741 20.6014 18.203 20.3619 18.364C20.2855 18.4183 20.1981 18.4551 20.1059 18.4717C19.8795 18.5145 19.6454 18.4868 19.4353 18.3922C19.4092 18.3846 19.3867 18.3677 19.372 18.3448C19.3573 18.3219 19.3514 18.2944 19.3553 18.2675C19.3595 18.1852 19.3544 18.1 19.3544 17.9988Z" fill="white"/>
<path id="Vector_13" d="M17.7821 8.13488C17.7821 8.10523 17.7745 8.08782 17.735 8.09347C17.6739 8.09778 17.6127 8.09904 17.5515 8.09723H8.68418C8.655 8.09723 8.6263 8.09723 8.59712 8.09723C8.56042 8.09723 8.543 8.11088 8.54583 8.14852C8.54583 8.16782 8.54583 8.18711 8.54583 8.20641V10.7885L8.56653 10.7951C8.583 10.7801 8.59947 10.7655 8.61359 10.7481C8.82912 10.5344 9.04559 10.3222 9.2583 10.1062C9.27871 10.0816 9.30422 10.0617 9.33307 10.048C9.36192 10.0343 9.39341 10.027 9.42536 10.0266C9.44475 10.0259 9.46408 10.024 9.48324 10.021C9.96183 9.97676 10.4404 9.93441 10.9185 9.88735C11.1443 9.8629 11.3707 9.92683 11.5503 10.0657C11.7299 10.2046 11.8487 10.4077 11.8818 10.6323C11.9155 10.8521 11.8635 11.0764 11.7367 11.2589C11.6098 11.4415 11.4177 11.5684 11.1999 11.6135C11.1014 11.6296 11.0022 11.6406 10.9025 11.6464C10.7868 11.6568 10.671 11.6652 10.5552 11.6756C10.5261 11.6779 10.4997 11.6812 10.4964 11.7226C10.4832 11.877 10.4672 12.0313 10.4494 12.1852C10.4465 12.2121 10.4522 12.2285 10.4814 12.2323C10.5035 12.2356 10.5251 12.2412 10.5477 12.245C11.135 12.3462 11.7242 12.4488 12.3105 12.5476C12.4408 12.5727 12.5753 12.5646 12.7016 12.5241C13.0432 12.4073 13.3868 12.2972 13.7308 12.1876C13.9124 12.1254 14.109 12.1223 14.2924 12.1788C14.4759 12.2353 14.6367 12.3484 14.7519 12.5019C14.7652 12.5214 14.7834 12.537 14.8046 12.5473C14.8258 12.5575 14.8494 12.562 14.8729 12.5603C15.231 12.5603 15.5891 12.5603 15.9472 12.5603C16.3571 12.5603 16.767 12.5603 17.1769 12.5603C17.3337 12.5626 17.485 12.5027 17.5979 12.3939C17.7107 12.285 17.7759 12.1359 17.7792 11.9791C17.7792 11.9466 17.7792 11.9142 17.7792 11.8822C17.7792 10.6558 17.7792 9.42947 17.7792 8.20311C17.7825 8.18005 17.7825 8.15747 17.7821 8.13488Z" fill="white"/>
<path id="Vector_14" d="M14.1468 12.4708C14.0357 12.4476 13.9203 12.4558 13.8136 12.4944C13.4159 12.6257 13.0174 12.7541 12.6192 12.8845C12.5743 12.9018 12.5257 12.9073 12.4781 12.9005C11.7289 12.7706 10.9794 12.6417 10.2296 12.5137C10.0992 12.4911 10.0988 12.4906 10.1124 12.3574C10.1438 12.0622 10.1752 11.7672 10.2065 11.4723C10.215 11.3847 10.2141 11.3847 10.3007 11.3781C10.5543 11.3579 10.8084 11.3381 11.0625 11.316C11.1416 11.3102 11.2185 11.2876 11.2881 11.2496C11.3577 11.2116 11.4183 11.1591 11.466 11.0957C11.5136 11.0323 11.5471 10.9594 11.5642 10.882C11.5813 10.8046 11.5816 10.7244 11.5651 10.6468C11.5385 10.5124 11.4626 10.3928 11.3522 10.3116C11.2419 10.2303 11.1051 10.1933 10.9689 10.2078C10.4983 10.2483 10.0244 10.293 9.55194 10.3344C9.50075 10.3389 9.4531 10.3624 9.4183 10.4003C9.11477 10.7038 8.80653 11.004 8.5063 11.309C8.48168 11.3378 8.45073 11.3605 8.41587 11.3753C8.38101 11.3902 8.34319 11.3968 8.30536 11.3946C8.16042 11.3871 8.015 11.3918 7.86959 11.3946C7.8023 11.3946 7.80042 11.3946 7.80042 11.4633C7.80042 12.1849 7.80042 12.9077 7.80042 13.6318C7.80042 13.7019 7.80042 13.7028 7.87759 13.7033C8.03241 13.7033 8.18724 13.7033 8.34206 13.7033C8.3935 13.702 8.44419 13.7158 8.48794 13.7428C8.72324 13.884 8.96136 14.0191 9.19712 14.1593C9.24628 14.1892 9.30287 14.2047 9.36042 14.204C9.91242 14.204 10.4644 14.204 11.0159 14.204C11.5675 14.204 12.1129 14.204 12.663 14.204C12.7176 14.2042 12.7718 14.194 12.8225 14.1739C13.0334 14.0934 13.2461 14.0148 13.4555 13.9353C13.7209 13.8356 13.9868 13.7367 14.2512 13.6346C14.3726 13.5862 14.4752 13.5 14.5437 13.3888C14.6123 13.2775 14.6431 13.1472 14.6318 13.017C14.6204 12.8868 14.5674 12.7638 14.4807 12.6661C14.3939 12.5684 14.278 12.5013 14.1501 12.4746L14.1468 12.4708Z" fill="white"/>
<path id="Vector_15" d="M16.1411 7.00214C14.1568 7.00214 12.1724 7.00214 10.1877 7.00214C10.1367 7.00161 10.087 7.01818 10.0466 7.0492C9.73079 7.2732 9.41362 7.49485 9.09738 7.7179C9.07762 7.73202 9.05032 7.74049 9.03809 7.77249H17.3068C17.2837 7.75367 17.2743 7.7452 17.264 7.73814C16.9346 7.50614 16.6051 7.27508 16.2757 7.04167C16.2364 7.01405 16.1891 7.00016 16.1411 7.00214Z" fill="white"/>
<path id="Vector_16" d="M10.1223 6.64638C10.1477 6.68968 10.1811 6.68826 10.2202 6.68826C12.1822 6.68826 14.144 6.68826 16.1054 6.68826C16.1287 6.69075 16.1523 6.68604 16.1729 6.67477C16.1935 6.6635 16.2102 6.64621 16.2207 6.6252C16.3411 6.41909 16.4663 6.21579 16.5891 6.01109C16.5986 5.99509 16.6131 5.9805 16.6103 5.95744C16.5589 5.93934 16.504 5.93322 16.4499 5.93956H9.86726C9.81744 5.93388 9.76699 5.94 9.71997 5.95744C9.72013 5.96581 9.72172 5.97408 9.72468 5.98191C9.85738 6.20403 9.9915 6.42426 10.1223 6.64638Z" fill="white"/>
<path id="Vector_17" d="M7.39484 10.9338H6.28237C6.19955 10.9338 6.19861 10.9338 6.19861 11.019V14.1145C6.19861 14.1983 6.19861 14.1992 6.28284 14.1992H7.39531C7.40802 14.1992 7.4212 14.1992 7.4339 14.1992C7.46778 14.1992 7.48096 14.1832 7.47814 14.1522C7.47814 14.1296 7.47814 14.1051 7.47814 14.0844V12.5663C7.47814 12.0505 7.47814 11.5346 7.47814 11.0185C7.47814 10.9343 7.4772 10.9338 7.39484 10.9338Z" fill="white"/>
<path id="Vector_18" d="M17.5929 7.58044C17.5975 7.57346 17.6 7.56528 17.6 7.55691C17.6 7.54855 17.5975 7.54037 17.5929 7.53338C17.4005 7.07644 17.1953 6.62562 16.9849 6.17715C16.9695 6.14094 16.9419 6.11129 16.9068 6.09338C16.7656 6.33103 16.6245 6.56397 16.4833 6.79927L17.5929 7.58044Z" fill="white"/>
<path id="Vector_19" d="M8.75624 7.56593C9.09946 7.3253 9.44236 7.08483 9.78495 6.84452C9.8466 6.80122 9.8466 6.80028 9.80565 6.73252L9.51154 6.24452C9.48189 6.19746 9.45177 6.14663 9.42307 6.09863C9.40234 6.10656 9.38373 6.11918 9.36871 6.13551C9.35369 6.15185 9.34265 6.17144 9.33648 6.19275C9.12895 6.63934 8.92189 7.08687 8.73318 7.54146C8.72001 7.55463 8.70354 7.5711 8.72236 7.58852C8.73271 7.59463 8.75295 7.58287 8.75624 7.56593Z" fill="white"/>
</g>
</g>
<defs>
<clipPath id="clip0_1241_79475">
<rect y="0.5" width="24" height="24" rx="8" fill="white"/>
</clipPath>
</defs>
</svg>
