<svg width="24" height="24" viewBox="0 0 33 33" fill="none" xmlns="http://www.w3.org/2000/svg">
<path d="M10.6923 5.94132C12.2326 4.40103 14.3217 3.53571 16.5 3.53571C18.6783 3.53571 20.7673 4.40103 22.3076 5.94132C23.8479 7.4816 24.7132 9.57068 24.7132 11.749C24.7132 14.232 25.2936 16.013 26.054 17.2752C26.3294 17.7324 26.8442 17.9563 27.3621 18.0854C29.979 18.7377 29.8452 21.8945 28.3566 22.9952C28.3566 22.9952 26.3297 24.75 16.5 24.75C6.67025 24.75 4.64327 22.9952 4.64327 22.9952C3.15472 21.8945 3.02088 18.7377 5.63781 18.0854C6.15571 17.9563 6.67049 17.7324 6.94592 17.2752C7.70635 16.013 8.28669 14.232 8.28669 11.749C8.28669 9.57068 9.15201 7.4816 10.6923 5.94132Z" fill="#000000"/>
<path d="M10.6923 5.94132C12.2326 4.40103 14.3217 3.53571 16.5 3.53571C18.6783 3.53571 20.7673 4.40103 22.3076 5.94132C23.8479 7.4816 24.7132 9.57068 24.7132 11.749C24.7132 14.232 25.2936 16.013 26.054 17.2752C26.3294 17.7324 26.8442 17.9563 27.3621 18.0854C29.979 18.7377 29.8452 21.8945 28.3566 22.9952C28.3566 22.9952 26.3297 24.75 16.5 24.75C6.67025 24.75 4.64327 22.9952 4.64327 22.9952C3.15472 21.8945 3.02088 18.7377 5.63781 18.0854C6.15571 17.9563 6.67049 17.7324 6.94592 17.2752C7.70635 16.013 8.28669 14.232 8.28669 11.749C8.28669 9.57068 9.15201 7.4816 10.6923 5.94132Z" stroke="#000000" stroke-width="2" stroke-linecap="round" stroke-linejoin="round"/>
<path d="M13.5904 29.3653C14.1864 30.4765 15.3591 31.2323 16.7083 31.2323C18.0575 31.2323 19.2303 30.4765 19.8262 29.3653" stroke="#000000" stroke-width="2" stroke-linecap="round" stroke-linejoin="round"/>
</svg>
