<svg xmlns="http://www.w3.org/2000/svg" width="24" height="24" viewBox="0 0 24 24" fill="none">
    <path
        d="M18.189 6.83437L18.1921 6.84966L18.1956 6.86485C18.2647 7.16424 18.3 7.50614 18.3 7.91999V13.07C18.3 14.4194 17.9194 15.2187 17.4095 15.6922C16.8862 16.1782 16.0667 16.47 14.9 16.47H6.10996C5.71748 16.47 5.36307 16.4349 5.04947 16.3644L5.0189 16.3575L4.98795 16.3525C4.81837 16.3254 4.64285 16.2759 4.46572 16.2117C3.90384 16.0011 3.48928 15.6705 3.20347 15.2073C2.91017 14.7321 2.70996 14.047 2.70996 13.07V7.91999C2.70996 6.57059 3.09047 5.7713 3.60041 5.29778C4.12377 4.81181 4.94325 4.51999 6.10996 4.51999H14.89C15.8787 4.51999 16.6218 4.73068 17.1402 5.08893C17.6369 5.43215 18.0182 5.97222 18.189 6.83437ZM4.77996 13.75C5.74225 13.75 6.52996 12.9623 6.52996 12V8.99999C6.52996 8.0377 5.74225 7.24999 4.77996 7.24999C3.81768 7.24999 3.02996 8.0377 3.02996 8.99999V12C3.02996 12.9623 3.81768 13.75 4.77996 13.75ZM6.85996 10.5C6.85996 12.5123 8.48768 14.14 10.5 14.14C12.5122 14.14 14.14 12.5123 14.14 10.5C14.14 8.4877 12.5122 6.85999 10.5 6.85999C8.48768 6.85999 6.85996 8.4877 6.85996 10.5ZM16.21 13.75C17.1722 13.75 17.96 12.9623 17.96 12V8.99999C17.96 8.0377 17.1722 7.24999 16.21 7.24999C15.2477 7.24999 14.46 8.03771 14.46 8.99999V12C14.46 12.9623 15.2477 13.75 16.21 13.75Z"
        fill="white" stroke="white" stroke-width="2" />
    <path
        d="M22.3 10.92V16.07C22.3 19.15 20.54 20.48 17.89 20.48H9.11001C8.36001 20.48 7.69001 20.37 7.11001 20.15C6.64001 19.98 6.23001 19.73 5.90001 19.41C5.72001 19.24 5.86001 18.97 6.11001 18.97H14.89C18.59 18.97 20.79 16.77 20.79 13.08V7.92C20.79 7.68 21.06 7.53 21.23 7.71C21.91 8.43 22.3 9.48 22.3 10.92Z"
        fill="white" />
</svg>