<svg width="41" height="32" viewBox="0 0 41 32" fill="none" xmlns="http://www.w3.org/2000/svg">
<g id="fast-forward-double-right-arrows-symbol 1">
<g id="Group">
<g id="_x35__11_">
<g id="Group_2">
<path id="Vector" d="M34.2445 15.1335L21.9862 5.56595C21.0193 4.81135 19.4513 4.81135 18.4844 5.56595C17.5176 6.32055 17.5176 7.54439 18.4844 8.29899L28.9908 16.499L18.4844 24.699C17.5176 25.4536 17.5176 26.6775 18.4844 27.4321C19.4513 28.1867 21.0193 28.1867 21.9862 27.4321L34.2445 17.8646C35.2113 17.1119 35.2113 15.8881 34.2445 15.1335ZM19.5053 14.5541L9.77318 6.54848C8.79528 5.74506 7.21134 5.74506 6.23343 6.54848C5.25552 7.3519 5.25552 8.65523 6.23343 9.45963L14.1963 16.0097L6.23343 22.5597C5.25552 23.3632 5.25552 24.6674 6.23343 25.4709C7.21134 26.2743 8.79528 26.2743 9.77318 25.4709L19.5053 17.4653C20.4832 16.6618 20.4832 15.3585 19.5053 14.5541Z" fill="url(#paint0_linear_4385_89462)"/>
</g>
</g>
</g>
</g>
<defs>
<linearGradient id="paint0_linear_4385_89462" x1="38.7004" y1="13.5858" x2="4.63332" y2="13.5858" gradientUnits="userSpaceOnUse">
<stop stop-color="white"/>
<stop offset="1" stop-color="white" stop-opacity="0"/>
</linearGradient>
</defs>
</svg>
