<svg width="24" height="24" viewBox="0 0 24 24" fill="none" xmlns="http://www.w3.org/2000/svg">
<path fill-rule="evenodd" clip-rule="evenodd" d="M13.7569 4.93438L16.4099 2.28054C17.5763 1.11376 18.1595 0.530369 18.8746 0.461583C19.002 0.449329 19.1302 0.449329 19.2576 0.461583C19.9727 0.530369 20.5559 1.11376 21.7223 2.28054C22.888 3.44666 23.4709 4.02972 23.5397 4.74447C23.5519 4.8718 23.5519 5.00001 23.5397 5.12734C23.4709 5.84208 22.888 6.42514 21.7223 7.59127L19.0971 10.2173C16.8859 8.94141 15.0485 7.11733 13.7569 4.93438ZM12.3027 6.389L2.66233 16.0324L2.66232 16.0324C2.23741 16.4574 2.02495 16.67 1.88526 16.931C1.74558 17.1921 1.68666 17.4868 1.56883 18.0761L0.625594 22.7938C0.559092 23.1264 0.525841 23.2927 0.620455 23.3873C0.715068 23.4819 0.881372 23.4486 1.21398 23.3821L5.92919 22.4388C6.51873 22.3208 6.81351 22.2618 7.07463 22.122C7.33575 21.9823 7.54829 21.7697 7.97336 21.3445L17.6394 11.6755C15.4789 10.3355 13.6558 8.52463 12.3027 6.389Z" fill="#A5ABDE"/>
</svg>
