<svg width="36" height="36" viewBox="0 0 36 36" xmlns="http://www.w3.org/2000/svg">
    <path d="M28.7549 9.95979C28.1099 6.70478 25.6949 5.27979 22.3349 5.27979H9.16494C5.20494 5.27979 2.56494 7.25979 2.56494 11.8798V19.6048C2.56494 22.9348 3.92994 24.8848 6.17994 25.7248C6.50994 25.8448 6.86994 25.9498 7.24494 26.0098C7.84494 26.1448 8.48994 26.2048 9.16494 26.2048H22.3499C26.3099 26.2048 28.9499 24.2248 28.9499 19.6048V11.8798C28.9499 11.1748 28.8899 10.5448 28.7549 9.95979ZM8.29494 17.9998C8.29494 18.6148 7.78494 19.1248 7.16994 19.1248C6.55494 19.1248 6.04494 18.6148 6.04494 17.9998V13.4998C6.04494 12.8848 6.55494 12.3748 7.16994 12.3748C7.78494 12.3748 8.29494 12.8848 8.29494 13.4998V17.9998ZM15.7499 19.7098C13.5599 19.7098 11.7899 17.9398 11.7899 15.7498C11.7899 13.5598 13.5599 11.7898 15.7499 11.7898C17.9399 11.7898 19.7099 13.5598 19.7099 15.7498C19.7099 17.9398 17.9399 19.7098 15.7499 19.7098ZM25.4399 17.9998C25.4399 18.6148 24.9299 19.1248 24.3149 19.1248C23.6999 19.1248 23.1899 18.6148 23.1899 17.9998V13.4998C23.1899 12.8848 23.6999 12.3748 24.3149 12.3748C24.9299 12.3748 25.4399 12.8848 25.4399 13.4998V17.9998Z" fill="white"/>
    <path d="M33.4501 16.3799V24.1049C33.4501 28.7249 30.8101 30.7199 26.8351 30.7199H13.6651C12.5401 30.7199 11.5351 30.5549 10.6651 30.2249C9.96014 29.9699 9.34514 29.5949 8.85014 29.1149C8.58014 28.8599 8.79014 28.4549 9.16514 28.4549H22.3351C27.8851 28.4549 31.1851 25.1549 31.1851 19.6199V11.8799C31.1851 11.5199 31.5901 11.2949 31.8451 11.5649C32.8651 12.6449 33.4501 14.2199 33.4501 16.3799Z" fill="white"/>
</svg>
