<svg width="24" height="24" viewBox="0 0 24 24" fill="none" xmlns="http://www.w3.org/2000/svg">
<path d="M5.97 11.01C4.86772 11.01 3.97 11.9077 3.97 13.01C3.97 14.1123 4.86772 15.01 5.97 15.01C6.66699 15.01 7.2822 14.6511 7.64037 14.1084C7.96193 14.5052 8.45273 14.76 9 14.76H12C12.9623 14.76 13.75 13.9723 13.75 13.01C13.75 12.0477 12.9623 11.26 12 11.26H9C8.45273 11.26 7.96193 11.5148 7.64037 11.9116C7.2822 11.3689 6.667 11.01 5.97 11.01ZM5.97 11.01C6.66699 11.01 7.2822 10.6511 7.64037 10.1084C7.96193 10.5052 8.45273 10.76 9 10.76H12C12.9623 10.76 13.75 9.97228 13.75 9.01C13.75 8.04772 12.9623 7.26 12 7.26H9C8.45273 7.26 7.96193 7.51478 7.64037 7.91155C7.2822 7.36893 6.66699 7.01 5.97 7.01C4.86772 7.01 3.97 7.90772 3.97 9.01C3.97 10.1123 4.86772 11.01 5.97 11.01ZM3.00074 20.9994L3 21V7V6C3 5.02549 3.22289 4.29841 3.63185 3.82484C4.01714 3.37867 4.70472 3 6 3H7H15.1718C15.0606 3.31301 15 3.64966 15 4V20.997C14.9991 20.9974 14.9982 20.9978 14.9974 20.9981C14.9972 20.9979 14.997 20.9978 14.9968 20.9976C14.9966 20.9974 14.9963 20.9973 14.9961 20.9971L13.2937 19.7227C12.499 19.1163 11.3801 19.2057 10.6829 19.9029L9.00364 21.5821C9.00356 21.5822 9.00347 21.5822 9.00337 21.5822C9.00298 21.5823 9.00255 21.5823 9.00207 21.5824C9.00145 21.5825 9.00075 21.5825 9 21.5825C8.99868 21.5825 8.99752 21.5824 8.99663 21.5822C8.99654 21.5822 8.99645 21.5822 8.99637 21.5821L7.33923 19.915L7.33711 19.9129C6.62953 19.2053 5.51315 19.1179 4.71029 19.7198C4.71019 19.7199 4.7101 19.7199 4.71 19.72L3.00075 20.9994L3.00074 20.9994ZM2.9966 21.0023C2.9966 21.0023 2.99666 21.0023 2.99675 21.0024C2.99665 21.0024 2.9966 21.0023 2.9966 21.0023Z" fill="currentColor" stroke="currentColor" stroke-width="2"/>
<mask id="path-2-inside-1_636_8334" fill="currentColor">
<path d="M18.01 2V3.5C18.67 3.5 19.3 3.77 19.76 4.22C20.24 4.71 20.5 5.34 20.5 6V8.42C20.5 9.16 20.17 9.5 19.42 9.5H17.5V4.01C17.5 3.73 17.73 3.5 18.01 3.5V2ZM18.01 2C16.9 2 16 2.9 16 4.01V11H19.42C21 11 22 10 22 8.42V6C22 4.9 21.55 3.9 20.83 3.17C20.1 2.45 19.11 2.01 18.01 2C18.02 2 18.01 2 18.01 2Z"/>
</mask>
<path d="M18.01 2V3.5C18.67 3.5 19.3 3.77 19.76 4.22C20.24 4.71 20.5 5.34 20.5 6V8.42C20.5 9.16 20.17 9.5 19.42 9.5H17.5V4.01C17.5 3.73 17.73 3.5 18.01 3.5V2ZM18.01 2C16.9 2 16 2.9 16 4.01V11H19.42C21 11 22 10 22 8.42V6C22 4.9 21.55 3.9 20.83 3.17C20.1 2.45 19.11 2.01 18.01 2C18.02 2 18.01 2 18.01 2Z" fill="currentColor"/>
<path d="M18.01 3.5H16.01V5.5H18.01V3.5ZM19.76 4.22L21.1887 2.82044L21.1738 2.80523L21.1586 2.79033L19.76 4.22ZM17.5 9.5H15.5V11.5H17.5V9.5ZM18.01 3.5V5.5H20.01V3.5H18.01ZM16 11H14V13H16V11ZM20.83 3.17L22.2539 1.76557L22.2442 1.75575L22.2344 1.74607L20.83 3.17ZM16.01 2V3.5H20.01V2H16.01ZM18.01 5.5C18.1272 5.5 18.2606 5.55108 18.3614 5.64967L21.1586 2.79033C20.3394 1.98892 19.2128 1.5 18.01 1.5V5.5ZM18.3313 5.61956C18.4568 5.7477 18.5 5.8798 18.5 6H22.5C22.5 4.8002 22.0232 3.6723 21.1887 2.82044L18.3313 5.61956ZM18.5 6V8.42H22.5V6H18.5ZM18.5 8.42C18.5 8.53865 18.4686 8.1843 18.822 7.82829C19.1783 7.46951 19.5365 7.5 19.42 7.5V11.5C20.0535 11.5 20.9517 11.3605 21.6605 10.6467C22.3664 9.9357 22.5 9.04135 22.5 8.42H18.5ZM19.42 7.5H17.5V11.5H19.42V7.5ZM19.5 9.5V4.01H15.5V9.5H19.5ZM19.5 4.01C19.5 4.83457 18.8346 5.5 18.01 5.5V1.5C16.6254 1.5 15.5 2.62543 15.5 4.01H19.5ZM20.01 3.5V2H16.01V3.5H20.01ZM18.01 0C15.7954 0 14 1.79543 14 4.01H18C18 4.00672 18.0003 4.00559 18.0002 4.00594C18.0002 4.00619 18.0001 4.00657 18 4.00682C17.9998 4.00706 18.0006 4.00535 18.003 4.00296C18.0054 4.00058 18.0071 3.99985 18.0068 3.99995C18.0066 4.00006 18.0062 4.00018 18.0059 4.00023C18.0056 4.0003 18.0067 4 18.01 4V0ZM14 4.01V11H18V4.01H14ZM16 13H19.42V9H16V13ZM19.42 13C20.6382 13 21.8275 12.6059 22.7167 11.7167C23.6059 10.8275 24 9.63817 24 8.42H20C20 8.78183 19.8941 8.88246 19.8883 8.88829C19.8825 8.89411 19.7818 9 19.42 9V13ZM24 8.42V6H20V8.42H24ZM24 6C24 4.34333 23.3207 2.84715 22.2539 1.76557L19.4061 4.57443C19.7793 4.95285 20 5.45667 20 6H24ZM22.2344 1.74607C21.1471 0.673609 19.6647 0.0149601 18.0282 8.2612e-05L17.9918 3.99992C18.5553 4.00504 19.0529 4.22639 19.4256 4.59393L22.2344 1.74607ZM18.01 4C18.01 4 18.01 4 18.0101 4C18.0101 4 18.0101 4 18.0101 4C18.0101 4 18.0102 4 18.0102 4C18.0102 4 18.0102 4 18.0102 4C18.0102 4 18.0103 4 18.0103 4C18.0103 4 18.0103 4 18.0103 4C18.0104 4 18.0104 4 18.0104 4C18.0104 4 18.0104 4 18.0105 4C18.0105 4 18.0105 4 18.0105 4C18.0105 4 18.0105 4 18.0106 4C18.0106 4 18.0106 4 18.0106 4C18.0106 4 18.0107 4 18.0107 4C18.0107 4 18.0107 4 18.0107 4C18.0107 4 18.0108 4 18.0108 4C18.0108 4 18.0108 4 18.0108 4C18.0108 4 18.0109 4 18.0109 4C18.0109 4 18.0109 4 18.0109 4C18.0109 4 18.011 4 18.011 4C18.011 4 18.011 4 18.011 4C18.011 4 18.0111 4 18.0111 4C18.0111 4 18.0111 4 18.0111 4C18.0111 4 18.0112 4 18.0112 4C18.0112 4 18.0112 4 18.0112 4C18.0112 4 18.0113 4 18.0113 4C18.0113 4 18.0113 4 18.0113 4C18.0113 4 18.0114 4 18.0114 4C18.0114 4 18.0114 4 18.0114 4C18.0114 4 18.0115 4 18.0115 4C18.0115 4 18.0115 4 18.0115 4C18.0115 4 18.0115 4 18.0116 4C18.0116 4 18.0116 4 18.0116 4C18.0116 4 18.0116 4 18.0116 4C18.0117 4 18.0117 4 18.0117 4C18.0117 4 18.0117 4 18.0117 4C18.0118 4 18.0118 4 18.0118 4C18.0118 4 18.0118 4 18.0118 4C18.0118 4 18.0119 4 18.0119 4C18.0119 4 18.0119 4 18.0119 4C18.0119 4 18.0119 4 18.012 4C18.012 4 18.012 4 18.012 4C18.012 4 18.012 4 18.012 4C18.012 4 18.0121 4 18.0121 4C18.0121 4 18.0121 4 18.0121 4C18.0121 4 18.0121 4 18.0122 4C18.0122 4 18.0122 4 18.0122 4C18.0122 4 18.0122 4 18.0122 4C18.0122 4 18.0123 4 18.0123 4C18.0123 4 18.0123 4 18.0123 4C18.0123 4 18.0123 4 18.0123 4C18.0124 4 18.0124 4 18.0124 4C18.0124 4 18.0124 4 18.0124 4C18.0124 4 18.0124 4 18.0125 4C18.0125 4 18.0125 4 18.0125 4C18.0125 4 18.0125 4 18.0125 4C18.0125 4 18.0126 4 18.0126 4C18.0126 4 18.0126 4 18.0126 4C18.0126 4 18.0126 4 18.0126 4C18.0126 4 18.0127 4 18.0127 4C18.0127 4 18.0127 4 18.0127 4C18.0127 4 18.0127 4 18.0127 4C18.0128 4 18.0128 4 18.0128 4C18.0128 4 18.0128 4 18.0128 4C18.0128 4 18.0128 4 18.0128 4C18.0128 4 18.0129 4 18.0129 4C18.0129 4 18.0129 4 18.0129 4C18.0129 4 18.0129 4 18.0129 4C18.0129 4 18.013 4 18.013 4C18.013 4 18.013 4 18.013 4C18.013 4 18.013 4 18.013 4C18.013 4 18.013 4 18.0131 4C18.0131 4 18.0131 4 18.0131 4C18.0131 4 18.0131 4 18.0131 4C18.0131 4 18.0131 4 18.0131 4C18.0132 4 18.0132 4 18.0132 4C18.0132 4 18.0132 4 18.0132 4C18.0132 4 18.0132 4 18.0132 4C18.0132 4 18.0132 4 18.0133 4C18.0133 4 18.0133 4 18.0133 4C18.0133 4 18.0133 4 18.0133 4C18.0133 4 18.0133 4 18.0133 4C18.0133 4 18.0134 4 18.0134 4C18.0134 4 18.0134 4 18.0134 4C18.0134 4 18.0134 4 18.0134 4C18.0134 4 18.0134 4 18.0134 4C18.0134 4 18.0135 4 18.0135 4C18.0135 4 18.0135 4 18.0135 4C18.0135 4 18.0135 4 18.0135 4C18.0135 4 18.0135 4 18.0135 4C18.0135 4 18.0136 4 18.0136 4C18.0136 4 18.0136 4 18.0136 4C18.0136 4 18.0136 4 18.0136 4C18.0136 4 18.0136 4 18.0136 4C18.0136 4 18.0136 4 18.0136 4C18.0137 4 18.0137 4 18.0137 4C18.0137 4 18.0137 4 18.0137 4C18.0137 4 18.0137 4 18.0137 4C18.0137 4 18.0137 4 18.0137 4C18.0137 4 18.0137 4 18.0138 4C18.0138 4 18.0138 4 18.0138 4C18.0138 4 18.0138 4 18.0138 4C18.0138 4 18.0138 4 18.0138 4C18.0138 4 18.0138 4 18.0138 4C18.0138 4 18.0138 4 18.0139 4C18.0139 4 18.0139 4 18.0139 4C18.0139 4 18.0139 4 18.0139 4C18.0139 4 18.0139 4 18.0139 4C18.0139 4 18.0139 4 18.0139 4C18.0139 4 18.0139 4 18.0139 4C18.0139 4 18.014 4 18.014 4C18.014 4 18.014 4 18.014 4C18.014 4 18.014 4 18.014 4C18.014 4 18.014 4 18.014 4C18.014 4 18.014 4 18.014 4C18.014 4 18.014 4 18.014 4C18.014 4 18.014 4 18.0141 4C18.0141 4 18.0141 4 18.0141 4C18.0141 4 18.0141 4 18.0141 4C18.0141 4 18.0141 4 18.0141 4C18.0141 4 18.0141 4 18.0141 4C18.0141 4 18.0141 4 18.0141 4C18.0141 4 18.0141 4 18.0141 4C18.0141 4 18.0141 4 18.0141 4C18.0142 4 18.0142 4 18.0142 4C18.0142 4 18.0142 4 18.0142 4C18.0142 4 18.0142 4 18.0142 4C18.0142 4 18.0142 4 18.0142 4C18.0142 4 18.0142 4 18.0142 4C18.0142 4 18.0142 4 18.0142 4C18.0142 4 18.0142 4 18.0142 4C18.0142 4 18.0142 4 18.0142 4C18.0142 4 18.0142 4 18.0143 4C18.0143 4 18.0143 4 18.0143 4C18.0143 4 18.0143 4 18.0143 4C18.0143 4 18.0143 4 18.0143 4C18.0143 4 18.0143 4 18.0143 4C18.0143 4 18.0143 4 18.0143 4C18.0143 4 18.0143 4 18.0143 4C18.0143 4 18.0143 4 18.0143 4C18.0143 4 18.0143 4 18.0143 4C18.0143 4 18.0143 4 18.0143 4C18.0143 4 18.0143 4 18.0143 4C18.0143 4 18.0143 4 18.0143 4C18.0143 4 18.0144 4 18.0144 4C18.0144 4 18.0144 4 18.0144 4C18.0144 4 18.0144 4 18.0144 4C18.0144 4 18.0144 4 18.0144 4C18.0144 4 18.0144 4 18.0144 4C18.0144 4 18.0144 4 18.0144 4C18.0144 4 18.0144 4 18.0144 4C18.0144 4 18.0144 4 18.0144 4C18.0144 4 18.0144 4 18.0144 4C18.0144 4 18.0144 4 18.0144 4C18.0144 4 18.0144 4 18.0144 4C18.0144 4 18.0144 4 18.0144 4C18.0144 4 18.0144 4 18.0144 4C18.0144 4 18.0144 4 18.0144 4C18.0144 4 18.0144 4 18.0144 4C18.0144 4 18.0144 4 18.0144 4C18.0144 4 18.0144 4 18.0144 4C18.0144 4 18.0144 4 18.0144 4C18.0144 4 18.0144 4 18.0144 4C18.0144 4 18.0144 4 18.0144 4C18.0144 4 18.0144 4 18.0144 4C18.0144 4 18.0144 4 18.0144 4C18.0144 4 18.0144 4 18.0144 4C18.0144 4 18.0144 4 18.0144 4C18.0144 4 18.0144 4 18.0144 4C18.0144 4 18.0144 4 18.0144 4C18.0144 4 18.0144 4 18.0144 4C18.0144 4 18.0144 4 18.0144 4C18.0144 4 18.0144 2 18.0144 0C18.0144 0 18.0144 0 18.0144 0H18.0144C18.0144 0 18.0144 0 18.0144 0C18.0144 0 18.0144 0 18.0144 0C18.0144 0 18.0144 0 18.0144 0C18.0144 0 18.0144 0 18.0144 0C18.0144 0 18.0144 0 18.0144 0C18.0144 0 18.0144 0 18.0144 0C18.0144 0 18.0144 0 18.0144 0C18.0144 0 18.0144 0 18.0144 0C18.0144 0 18.0144 0 18.0144 0C18.0144 0 18.0144 0 18.0144 0C18.0144 0 18.0144 0 18.0144 0C18.0144 0 18.0144 0 18.0144 0C18.0144 0 18.0144 0 18.0144 0C18.0144 0 18.0144 0 18.0144 0C18.0144 0 18.0144 0 18.0144 0C18.0144 0 18.0144 0 18.0144 0C18.0144 0 18.0144 0 18.0144 0C18.0144 0 18.0144 0 18.0144 0C18.0144 0 18.0144 0 18.0144 0C18.0144 0 18.0144 0 18.0144 0C18.0144 0 18.0144 0 18.0144 0C18.0144 0 18.0144 0 18.0144 0C18.0144 0 18.0144 0 18.0144 0C18.0144 0 18.0144 0 18.0144 0C18.0144 0 18.0144 0 18.0144 0C18.0144 0 18.0144 0 18.0144 0C18.0144 0 18.0144 0 18.0144 0C18.0143 0 18.0143 0 18.0143 0C18.0143 0 18.0143 0 18.0143 0C18.0143 0 18.0143 0 18.0143 0C18.0143 0 18.0143 0 18.0143 0C18.0143 0 18.0143 0 18.0143 0C18.0143 0 18.0143 0 18.0143 0C18.0143 0 18.0143 0 18.0143 0C18.0143 0 18.0143 0 18.0143 0C18.0143 0 18.0143 0 18.0143 0C18.0143 0 18.0143 0 18.0143 0C18.0143 0 18.0143 0 18.0143 0C18.0143 0 18.0143 0 18.0143 0C18.0143 0 18.0143 0 18.0143 0C18.0143 0 18.0143 0 18.0142 0C18.0142 0 18.0142 0 18.0142 0C18.0142 0 18.0142 0 18.0142 0C18.0142 0 18.0142 0 18.0142 0C18.0142 0 18.0142 0 18.0142 0C18.0142 0 18.0142 0 18.0142 0C18.0142 0 18.0142 0 18.0142 0C18.0142 0 18.0142 0 18.0142 0C18.0142 0 18.0142 0 18.0142 0C18.0142 0 18.0142 0 18.0142 0C18.0142 0 18.0142 0 18.0142 0C18.0141 0 18.0141 0 18.0141 0C18.0141 0 18.0141 0 18.0141 0C18.0141 0 18.0141 0 18.0141 0C18.0141 0 18.0141 0 18.0141 0C18.0141 0 18.0141 0 18.0141 0C18.0141 0 18.0141 0 18.0141 0C18.0141 0 18.0141 0 18.0141 0C18.0141 0 18.0141 0 18.0141 0C18.0141 0 18.0141 0 18.0141 0C18.0141 0 18.014 0 18.014 0C18.014 0 18.014 0 18.014 0C18.014 0 18.014 0 18.014 0C18.014 0 18.014 0 18.014 0C18.014 0 18.014 0 18.014 0C18.014 0 18.014 0 18.014 0C18.014 0 18.014 0 18.014 0C18.014 0 18.014 0 18.014 0C18.014 0 18.0139 0 18.0139 0C18.0139 0 18.0139 0 18.0139 0C18.0139 0 18.0139 0 18.0139 0C18.0139 0 18.0139 0 18.0139 0C18.0139 0 18.0139 0 18.0139 0C18.0139 0 18.0139 0 18.0139 0C18.0139 0 18.0139 0 18.0139 0C18.0139 0 18.0139 0 18.0138 0C18.0138 0 18.0138 0 18.0138 0C18.0138 0 18.0138 0 18.0138 0C18.0138 0 18.0138 0 18.0138 0C18.0138 0 18.0138 0 18.0138 0C18.0138 0 18.0138 0 18.0138 0C18.0138 0 18.0138 0 18.0138 0C18.0138 0 18.0138 0 18.0138 0C18.0137 0 18.0137 0 18.0137 0C18.0137 0 18.0137 0 18.0137 0C18.0137 0 18.0137 0 18.0137 0C18.0137 0 18.0137 0 18.0137 0C18.0137 0 18.0137 0 18.0137 0C18.0137 0 18.0137 0 18.0137 0C18.0137 0 18.0137 0 18.0136 0C18.0136 0 18.0136 0 18.0136 0C18.0136 0 18.0136 0 18.0136 0C18.0136 0 18.0136 0 18.0136 0C18.0136 0 18.0136 0 18.0136 0C18.0136 0 18.0136 0 18.0136 0C18.0136 0 18.0136 0 18.0136 0C18.0135 0 18.0135 0 18.0135 0C18.0135 0 18.0135 0 18.0135 0C18.0135 0 18.0135 0 18.0135 0C18.0135 0 18.0135 0 18.0135 0C18.0135 0 18.0135 0 18.0135 0C18.0135 0 18.0135 0 18.0135 0C18.0134 0 18.0134 0 18.0134 0C18.0134 0 18.0134 0 18.0134 0C18.0134 0 18.0134 0 18.0134 0C18.0134 0 18.0134 0 18.0134 0C18.0134 0 18.0134 0 18.0134 0C18.0134 0 18.0134 0 18.0134 0C18.0133 0 18.0133 0 18.0133 0C18.0133 0 18.0133 0 18.0133 0C18.0133 0 18.0133 0 18.0133 0C18.0133 0 18.0133 0 18.0133 0C18.0133 0 18.0133 0 18.0133 0C18.0133 0 18.0133 0 18.0132 0C18.0132 0 18.0132 0 18.0132 0C18.0132 0 18.0132 0 18.0132 0C18.0132 0 18.0132 0 18.0132 0C18.0132 0 18.0132 0 18.0132 0C18.0132 0 18.0132 0 18.0132 0C18.0132 0 18.0131 0 18.0131 0C18.0131 0 18.0131 0 18.0131 0C18.0131 0 18.0131 0 18.0131 0C18.0131 0 18.0131 0 18.0131 0C18.0131 0 18.0131 0 18.0131 0C18.0131 0 18.0131 0 18.0131 0C18.013 0 18.013 0 18.013 0C18.013 0 18.013 0 18.013 0C18.013 0 18.013 0 18.013 0C18.013 0 18.013 0 18.013 0C18.013 0 18.013 0 18.013 0C18.013 0 18.0129 0 18.0129 0C18.0129 0 18.0129 0 18.0129 0C18.0129 0 18.0129 0 18.0129 0C18.0129 0 18.0129 0 18.0129 0C18.0129 0 18.0129 0 18.0129 0C18.0129 0 18.0129 0 18.0128 0C18.0128 0 18.0128 0 18.0128 0C18.0128 0 18.0128 0 18.0128 0C18.0128 0 18.0128 0 18.0128 0C18.0128 0 18.0128 0 18.0128 0C18.0128 0 18.0128 0 18.0128 0C18.0127 0 18.0127 0 18.0127 0C18.0127 0 18.0127 0 18.0127 0C18.0127 0 18.0127 0 18.0127 0C18.0127 0 18.0127 0 18.0127 0C18.0127 0 18.0127 0 18.0127 0C18.0126 0 18.0126 0 18.0126 0C18.0126 0 18.0126 0 18.0126 0C18.0126 0 18.0126 0 18.0126 0C18.0126 0 18.0126 0 18.0126 0C18.0126 0 18.0126 0 18.0126 0C18.0126 0 18.0125 0 18.0125 0C18.0125 0 18.0125 0 18.0125 0C18.0125 0 18.0125 0 18.0125 0C18.0125 0 18.0125 0 18.0125 0C18.0125 0 18.0125 0 18.0125 0C18.0125 0 18.0124 0 18.0124 0C18.0124 0 18.0124 0 18.0124 0C18.0124 0 18.0124 0 18.0124 0C18.0124 0 18.0124 0 18.0124 0C18.0124 0 18.0124 0 18.0124 0C18.0124 0 18.0124 0 18.0123 0C18.0123 0 18.0123 0 18.0123 0C18.0123 0 18.0123 0 18.0123 0C18.0123 0 18.0123 0 18.0123 0C18.0123 0 18.0123 0 18.0123 0C18.0123 0 18.0123 0 18.0122 0C18.0122 0 18.0122 0 18.0122 0C18.0122 0 18.0122 0 18.0122 0C18.0122 0 18.0122 0 18.0122 0C18.0122 0 18.0122 0 18.0122 0C18.0122 0 18.0122 0 18.0122 0C18.0121 0 18.0121 0 18.0121 0C18.0121 0 18.0121 0 18.0121 0C18.0121 0 18.0121 0 18.0121 0C18.0121 0 18.0121 0 18.0121 0C18.0121 0 18.0121 0 18.0121 0C18.012 0 18.012 0 18.012 0C18.012 0 18.012 0 18.012 0C18.012 0 18.012 0 18.012 0C18.012 0 18.012 0 18.012 0C18.012 0 18.012 0 18.012 0C18.0119 0 18.0119 0 18.0119 0C18.0119 0 18.0119 0 18.0119 0C18.0119 0 18.0119 0 18.0119 0C18.0119 0 18.0119 0 18.0119 0C18.0119 0 18.0119 0 18.0119 0C18.0119 0 18.0118 0 18.0118 0C18.0118 0 18.0118 0 18.0118 0C18.0118 0 18.0118 0 18.0118 0C18.0118 0 18.0118 0 18.0118 0C18.0118 0 18.0118 0 18.0118 0C18.0118 0 18.0118 0 18.0117 0C18.0117 0 18.0117 0 18.0117 0C18.0117 0 18.0117 0 18.0117 0C18.0117 0 18.0117 0 18.0117 0C18.0117 0 18.0117 0 18.0117 0C18.0117 0 18.0117 0 18.0116 0C18.0116 0 18.0116 0 18.0116 0C18.0116 0 18.0116 0 18.0116 0C18.0116 0 18.0116 0 18.0116 0C18.0116 0 18.0116 0 18.0116 0C18.0116 0 18.0116 0 18.0116 0C18.0115 0 18.0115 0 18.0115 0C18.0115 0 18.0115 0 18.0115 0C18.0115 0 18.0115 0 18.0115 0C18.0115 0 18.0115 0 18.0115 0C18.0115 0 18.0115 0 18.0115 0C18.0115 0 18.0114 0 18.0114 0C18.0114 0 18.0114 0 18.0114 0C18.0114 0 18.0114 0 18.0114 0C18.0114 0 18.0114 0 18.0114 0C18.0114 0 18.0114 0 18.0114 0C18.0114 0 18.0114 0 18.0114 0C18.0113 0 18.0113 0 18.0113 0C18.0113 0 18.0113 0 18.0113 0C18.0113 0 18.0113 0 18.0113 0C18.0113 0 18.0113 0 18.0113 0C18.0113 0 18.0113 0 18.0113 0C18.0113 0 18.0113 0 18.0112 0C18.0112 0 18.0112 0 18.0112 0C18.0112 0 18.0112 0 18.0112 0C18.0112 0 18.0112 0 18.0112 0C18.0112 0 18.0112 0 18.0112 0C18.0112 0 18.0112 0 18.0112 0C18.0112 0 18.0111 0 18.0111 0C18.0111 0 18.0111 0 18.0111 0C18.0111 0 18.0111 0 18.0111 0C18.0111 0 18.0111 0 18.0111 0C18.0111 0 18.0111 0 18.0111 0C18.0111 0 18.0111 0 18.0111 0C18.011 0 18.011 0 18.011 0C18.011 0 18.011 0 18.011 0C18.011 0 18.011 0 18.011 0C18.011 0 18.011 0 18.011 0C18.011 0 18.011 0 18.011 0C18.011 0 18.011 0 18.011 0C18.0109 0 18.0109 0 18.0109 0C18.0109 0 18.0109 0 18.0109 0C18.0109 0 18.0109 0 18.0109 0C18.0109 0 18.0109 0 18.0109 0C18.0109 0 18.0109 0 18.0109 0C18.0109 0 18.0109 0 18.0109 0C18.0109 0 18.0108 0 18.0108 0C18.0108 0 18.0108 0 18.0108 0C18.0108 0 18.0108 0 18.0108 0C18.0108 0 18.0108 0 18.0108 0C18.0108 0 18.0108 0 18.0108 0C18.0108 0 18.0108 0 18.0108 0C18.0108 0 18.0108 0 18.0107 0C18.0107 0 18.0107 0 18.0107 0C18.0107 0 18.0107 0 18.0107 0C18.0107 0 18.0107 0 18.0107 0C18.0107 0 18.0107 0 18.0107 0C18.0107 0 18.0107 0 18.0107 0C18.0107 0 18.0107 0 18.0107 0C18.0107 0 18.0107 0 18.0106 0C18.0106 0 18.0106 0 18.0106 0C18.0106 0 18.0106 0 18.0106 0C18.0106 0 18.0106 0 18.0106 0C18.0106 0 18.0106 0 18.0106 0C18.0106 0 18.0106 0 18.0106 0C18.0106 0 18.0106 0 18.0106 0C18.0106 0 18.0106 0 18.0105 0C18.0105 0 18.0105 0 18.0105 0C18.0105 0 18.0105 0 18.0105 0C18.0105 0 18.0105 0 18.0105 0C18.0105 0 18.0105 0 18.0105 0C18.0105 0 18.0105 0 18.0105 0C18.0105 0 18.0105 0 18.0105 0C18.0105 0 18.0105 0 18.0105 0C18.0105 0 18.0105 0 18.0104 0C18.0104 0 18.0104 0 18.0104 0C18.0104 0 18.0104 0 18.0104 0C18.0104 0 18.0104 0 18.0104 0C18.0104 0 18.0104 0 18.0104 0C18.0104 0 18.0104 0 18.0104 0C18.0104 0 18.0104 0 18.0104 0C18.0104 0 18.0104 0 18.0104 0C18.0104 0 18.0104 0 18.0104 0C18.0103 0 18.0103 0 18.0103 0C18.0103 0 18.0103 0 18.0103 0C18.0103 0 18.0103 0 18.0103 0C18.0103 0 18.0103 0 18.0103 0C18.0103 0 18.0103 0 18.0103 0C18.0103 0 18.0103 0 18.0103 0C18.0103 0 18.0103 0 18.0103 0C18.0103 0 18.0103 0 18.0103 0C18.0103 0 18.0103 0 18.0103 0C18.0103 0 18.0103 0 18.0102 0C18.0102 0 18.0102 0 18.0102 0C18.0102 0 18.0102 0 18.0102 0C18.0102 0 18.0102 0 18.0102 0C18.0102 0 18.0102 0 18.0102 0C18.0102 0 18.0102 0 18.0102 0C18.0102 0 18.0102 0 18.0102 0C18.0102 0 18.0102 0 18.0102 0C18.0102 0 18.0102 0 18.0102 0C18.0102 0 18.0102 0 18.0102 0C18.0102 0 18.0102 0 18.0102 0C18.0102 0 18.0102 0 18.0102 0C18.0102 0 18.0101 0 18.0101 0C18.0101 0 18.0101 0 18.0101 0C18.0101 0 18.0101 0 18.0101 0C18.0101 0 18.0101 0 18.0101 0C18.0101 0 18.0101 0 18.0101 0C18.0101 0 18.0101 0 18.0101 0C18.0101 0 18.0101 0 18.0101 0C18.0101 0 18.0101 0 18.0101 0C18.0101 0 18.0101 0 18.0101 0C18.0101 0 18.0101 0 18.0101 0C18.0101 0 18.0101 0 18.0101 0C18.0101 0 18.0101 0 18.0101 0C18.0101 0 18.0101 0 18.0101 0C18.0101 0 18.0101 0 18.0101 0C18.0101 0 18.0101 0 18.0101 0C18.0101 0 18.0101 0 18.0101 0C18.0101 0 18.0101 0 18.01 0C18.01 0 18.01 0 18.01 0C18.01 0 18.01 0 18.01 0C18.01 0 18.01 0 18.01 0C18.01 0 18.01 0 18.01 0C18.01 0 18.01 0 18.01 0C18.01 0 18.01 0 18.01 0C18.01 0 18.01 0 18.01 0C18.01 0 18.01 0 18.01 0C18.01 0 18.01 0 18.01 0C18.01 0 18.01 0 18.01 0C18.01 0 18.01 0 18.01 0C18.01 0 18.01 0 18.01 0C18.01 0 18.01 0 18.01 0C18.01 0 18.01 0 18.01 0C18.01 0 18.01 0 18.01 0C18.01 0 18.01 0 18.01 0C18.01 0 18.01 0 18.01 0C18.01 0 18.01 0 18.01 0C18.01 0 18.01 0 18.01 0C18.01 0 18.01 0 18.01 0C18.01 0 18.01 0 18.01 2C18.01 4 18.01 4 18.01 4C18.01 4 18.01 4 18.01 4C18.01 4 18.01 4 18.01 4C18.01 4 18.01 4 18.01 4C18.01 4 18.01 4 18.01 4C18.01 4 18.01 4 18.01 4C18.01 4 18.01 4 18.01 4C18.01 4 18.01 4 18.01 4C18.01 4 18.01 4 18.01 4C18.01 4 18.01 4 18.01 4C18.01 4 18.01 4 18.01 4C18.01 4 18.01 4 18.01 4C18.01 4 18.01 4 18.01 4C18.01 4 18.01 4 18.01 4C18.01 4 18.01 4 18.01 4C18.01 4 18.01 4 18.01 4C18.01 4 18.01 4 18.01 4C18.01 4 18.01 4 18.01 4C18.01 4 18.01 4 18.01 4C18.01 4 18.01 4 18.01 4C18.01 4 18.01 4 18.01 4C18.0101 4 18.0101 4 18.0101 4C18.0101 4 18.0101 4 18.0101 4C18.0101 4 18.0101 4 18.0101 4C18.0101 4 18.0101 4 18.0101 4C18.0101 4 18.0101 4 18.0101 4C18.0101 4 18.0101 4 18.0101 4C18.0101 4 18.0101 4 18.0101 4C18.0101 4 18.0101 4 18.0101 4C18.0101 4 18.0101 4 18.0101 4C18.0101 4 18.0101 4 18.0101 4C18.0101 4 18.0101 4 18.0101 4C18.0101 4 18.0101 4 18.0101 4C18.0101 4 18.0101 4 18.0101 4C18.0101 4 18.0101 4 18.0101 4C18.0101 4 18.0101 4 18.0101 4C18.0101 4 18.0101 4 18.0101 4C18.0101 4 18.0102 4 18.0102 4C18.0102 4 18.0102 4 18.0102 4C18.0102 4 18.0102 4 18.0102 4C18.0102 4 18.0102 4 18.0102 4C18.0102 4 18.0102 4 18.0102 4C18.0102 4 18.0102 4 18.0102 4C18.0102 4 18.0102 4 18.0102 4C18.0102 4 18.0102 4 18.0102 4C18.0102 4 18.0102 4 18.0102 4C18.0102 4 18.0102 4 18.0102 4C18.0102 4 18.0102 4 18.0102 4C18.0102 4 18.0102 4 18.0102 4C18.0103 4 18.0103 4 18.0103 4C18.0103 4 18.0103 4 18.0103 4C18.0103 4 18.0103 4 18.0103 4C18.0103 4 18.0103 4 18.0103 4C18.0103 4 18.0103 4 18.0103 4C18.0103 4 18.0103 4 18.0103 4C18.0103 4 18.0103 4 18.0103 4C18.0103 4 18.0103 4 18.0103 4C18.0103 4 18.0103 4 18.0103 4C18.0103 4 18.0103 4 18.0104 4C18.0104 4 18.0104 4 18.0104 4C18.0104 4 18.0104 4 18.0104 4C18.0104 4 18.0104 4 18.0104 4C18.0104 4 18.0104 4 18.0104 4C18.0104 4 18.0104 4 18.0104 4C18.0104 4 18.0104 4 18.0104 4C18.0104 4 18.0104 4 18.0104 4C18.0104 4 18.0104 4 18.0104 4C18.0105 4 18.0105 4 18.0105 4C18.0105 4 18.0105 4 18.0105 4C18.0105 4 18.0105 4 18.0105 4C18.0105 4 18.0105 4 18.0105 4C18.0105 4 18.0105 4 18.0105 4C18.0105 4 18.0105 4 18.0105 4C18.0105 4 18.0105 4 18.0105 4C18.0105 4 18.0105 4 18.0105 4C18.0106 4 18.0106 4 18.0106 4C18.0106 4 18.0106 4 18.0106 4C18.0106 4 18.0106 4 18.0106 4C18.0106 4 18.0106 4 18.0106 4C18.0106 4 18.0106 4 18.0106 4C18.0106 4 18.0106 4 18.0106 4C18.0106 4 18.0106 4 18.0106 4C18.0107 4 18.0107 4 18.0107 4C18.0107 4 18.0107 4 18.0107 4C18.0107 4 18.0107 4 18.0107 4C18.0107 4 18.0107 4 18.0107 4C18.0107 4 18.0107 4 18.0107 4C18.0107 4 18.0107 4 18.0107 4C18.0107 4 18.0107 4 18.0107 4C18.0108 4 18.0108 4 18.0108 4C18.0108 4 18.0108 4 18.0108 4C18.0108 4 18.0108 4 18.0108 4C18.0108 4 18.0108 4 18.0108 4C18.0108 4 18.0108 4 18.0108 4C18.0108 4 18.0108 4 18.0108 4C18.0108 4 18.0109 4 18.0109 4C18.0109 4 18.0109 4 18.0109 4C18.0109 4 18.0109 4 18.0109 4C18.0109 4 18.0109 4 18.0109 4C18.0109 4 18.0109 4 18.0109 4C18.0109 4 18.0109 4 18.0109 4C18.0109 4 18.0109 4 18.011 4C18.011 4 18.011 4 18.011 4C18.011 4 18.011 4 18.011 4C18.011 4 18.011 4 18.011 4C18.011 4 18.011 4 18.011 4C18.011 4 18.011 4 18.011 4C18.011 4 18.011 4 18.0111 4C18.0111 4 18.0111 4 18.0111 4C18.0111 4 18.0111 4 18.0111 4C18.0111 4 18.0111 4 18.0111 4C18.0111 4 18.0111 4 18.0111 4C18.0111 4 18.0111 4 18.0111 4C18.0111 4 18.0112 4 18.0112 4C18.0112 4 18.0112 4 18.0112 4C18.0112 4 18.0112 4 18.0112 4C18.0112 4 18.0112 4 18.0112 4C18.0112 4 18.0112 4 18.0112 4C18.0112 4 18.0112 4 18.0112 4C18.0113 4 18.0113 4 18.0113 4C18.0113 4 18.0113 4 18.0113 4C18.0113 4 18.0113 4 18.0113 4C18.0113 4 18.0113 4 18.0113 4C18.0113 4 18.0113 4 18.0113 4C18.0113 4 18.0113 4 18.0114 4C18.0114 4 18.0114 4 18.0114 4C18.0114 4 18.0114 4 18.0114 4C18.0114 4 18.0114 4 18.0114 4C18.0114 4 18.0114 4 18.0114 4C18.0114 4 18.0114 4 18.0114 4C18.0114 4 18.0115 4 18.0115 4C18.0115 4 18.0115 4 18.0115 4C18.0115 4 18.0115 4 18.0115 4C18.0115 4 18.0115 4 18.0115 4C18.0115 4 18.0115 4 18.0115 4C18.0115 4 18.0115 4 18.0116 4C18.0116 4 18.0116 4 18.0116 4C18.0116 4 18.0116 4 18.0116 4C18.0116 4 18.0116 4 18.0116 4C18.0116 4 18.0116 4 18.0116 4C18.0116 4 18.0116 4 18.0116 4C18.0117 4 18.0117 4 18.0117 4C18.0117 4 18.0117 4 18.0117 4C18.0117 4 18.0117 4 18.0117 4C18.0117 4 18.0117 4 18.0117 4C18.0117 4 18.0117 4 18.0117 4C18.0118 4 18.0118 4 18.0118 4C18.0118 4 18.0118 4 18.0118 4C18.0118 4 18.0118 4 18.0118 4C18.0118 4 18.0118 4 18.0118 4C18.0118 4 18.0118 4 18.0118 4C18.0118 4 18.0119 4 18.0119 4C18.0119 4 18.0119 4 18.0119 4C18.0119 4 18.0119 4 18.0119 4C18.0119 4 18.0119 4 18.0119 4C18.0119 4 18.0119 4 18.0119 4C18.0119 4 18.0119 4 18.012 4C18.012 4 18.012 4 18.012 4C18.012 4 18.012 4 18.012 4C18.012 4 18.012 4 18.012 4C18.012 4 18.012 4 18.012 4C18.012 4 18.012 4 18.0121 4C18.0121 4 18.0121 4 18.0121 4C18.0121 4 18.0121 4 18.0121 4C18.0121 4 18.0121 4 18.0121 4C18.0121 4 18.0121 4 18.0121 4C18.0121 4 18.0121 4 18.0122 4C18.0122 4 18.0122 4 18.0122 4C18.0122 4 18.0122 4 18.0122 4C18.0122 4 18.0122 4 18.0122 4C18.0122 4 18.0122 4 18.0122 4C18.0122 4 18.0122 4 18.0122 4C18.0123 4 18.0123 4 18.0123 4C18.0123 4 18.0123 4 18.0123 4C18.0123 4 18.0123 4 18.0123 4C18.0123 4 18.0123 4 18.0123 4C18.0123 4 18.0123 4 18.0123 4C18.0124 4 18.0124 4 18.0124 4C18.0124 4 18.0124 4 18.0124 4C18.0124 4 18.0124 4 18.0124 4C18.0124 4 18.0124 4 18.0124 4C18.0124 4 18.0124 4 18.0124 4C18.0124 4 18.0125 4 18.0125 4C18.0125 4 18.0125 4 18.0125 4C18.0125 4 18.0125 4 18.0125 4C18.0125 4 18.0125 4 18.0125 4C18.0125 4 18.0125 4 18.0125 4C18.0125 4 18.0126 4 18.0126 4C18.0126 4 18.0126 4 18.0126 4C18.0126 4 18.0126 4 18.0126 4C18.0126 4 18.0126 4 18.0126 4C18.0126 4 18.0126 4 18.0126 4C18.0126 4 18.0126 4 18.0127 4C18.0127 4 18.0127 4 18.0127 4C18.0127 4 18.0127 4 18.0127 4C18.0127 4 18.0127 4 18.0127 4C18.0127 4 18.0127 4 18.0127 4C18.0127 4 18.0127 4 18.0128 4C18.0128 4 18.0128 4 18.0128 4C18.0128 4 18.0128 4 18.0128 4C18.0128 4 18.0128 4 18.0128 4C18.0128 4 18.0128 4 18.0128 4C18.0128 4 18.0128 4 18.0128 4C18.0129 4 18.0129 4 18.0129 4C18.0129 4 18.0129 4 18.0129 4C18.0129 4 18.0129 4 18.0129 4C18.0129 4 18.0129 4 18.0129 4C18.0129 4 18.0129 4 18.0129 4C18.0129 4 18.013 4 18.013 4C18.013 4 18.013 4 18.013 4C18.013 4 18.013 4 18.013 4C18.013 4 18.013 4 18.013 4C18.013 4 18.013 4 18.013 4C18.013 4 18.013 4 18.0131 4C18.0131 4 18.0131 4 18.0131 4C18.0131 4 18.0131 4 18.0131 4C18.0131 4 18.0131 4 18.0131 4C18.0131 4 18.0131 4 18.0131 4C18.0131 4 18.0131 4 18.0131 4C18.0131 4 18.0132 4 18.0132 4C18.0132 4 18.0132 4 18.0132 4C18.0132 4 18.0132 4 18.0132 4C18.0132 4 18.0132 4 18.0132 4C18.0132 4 18.0132 4 18.0132 4C18.0132 4 18.0132 4 18.0132 4C18.0133 4 18.0133 4 18.0133 4C18.0133 4 18.0133 4 18.0133 4C18.0133 4 18.0133 4 18.0133 4C18.0133 4 18.0133 4 18.0133 4C18.0133 4 18.0133 4 18.0133 4C18.0133 4 18.0133 4 18.0134 4C18.0134 4 18.0134 4 18.0134 4C18.0134 4 18.0134 4 18.0134 4C18.0134 4 18.0134 4 18.0134 4C18.0134 4 18.0134 4 18.0134 4C18.0134 4 18.0134 4 18.0134 4C18.0134 4 18.0134 4 18.0135 4C18.0135 4 18.0135 4 18.0135 4C18.0135 4 18.0135 4 18.0135 4C18.0135 4 18.0135 4 18.0135 4C18.0135 4 18.0135 4 18.0135 4C18.0135 4 18.0135 4 18.0135 4C18.0135 4 18.0135 4 18.0136 4C18.0136 4 18.0136 4 18.0136 4C18.0136 4 18.0136 4 18.0136 4C18.0136 4 18.0136 4 18.0136 4C18.0136 4 18.0136 4 18.0136 4C18.0136 4 18.0136 4 18.0136 4C18.0136 4 18.0136 4 18.0136 4C18.0137 4 18.0137 4 18.0137 4C18.0137 4 18.0137 4 18.0137 4C18.0137 4 18.0137 4 18.0137 4C18.0137 4 18.0137 4 18.0137 4C18.0137 4 18.0137 4 18.0137 4C18.0137 4 18.0137 4 18.0137 4C18.0137 4 18.0137 4 18.0138 4C18.0138 4 18.0138 4 18.0138 4C18.0138 4 18.0138 4 18.0138 4C18.0138 4 18.0138 4 18.0138 4C18.0138 4 18.0138 4 18.0138 4C18.0138 4 18.0138 4 18.0138 4C18.0138 4 18.0138 4 18.0138 4C18.0138 4 18.0138 4 18.0138 4C18.0139 4 18.0139 4 18.0139 4C18.0139 4 18.0139 4 18.0139 4C18.0139 4 18.0139 4 18.0139 4C18.0139 4 18.0139 4 18.0139 4C18.0139 4 18.0139 4 18.0139 4C18.0139 4 18.0139 4 18.0139 4C18.0139 4 18.0139 4 18.0139 4C18.0139 4 18.014 4 18.014 4C18.014 4 18.014 4 18.014 4C18.014 4 18.014 4 18.014 4C18.014 4 18.014 4 18.014 4C18.014 4 18.014 4 18.014 4C18.014 4 18.014 4 18.014 4C18.014 4 18.014 4 18.014 4C18.014 4 18.014 4 18.014 4C18.014 4 18.0141 4 18.0141 4C18.0141 4 18.0141 4 18.0141 4C18.0141 4 18.0141 4 18.0141 4C18.0141 4 18.0141 4 18.0141 4C18.0141 4 18.0141 4 18.0141 4C18.0141 4 18.0141 4 18.0141 4C18.0141 4 18.0141 4 18.0141 4C18.0141 4 18.0141 4 18.0141 4C18.0141 4 18.0141 4 18.0141 4C18.0141 4 18.0141 4 18.0142 4C18.0142 4 18.0142 4 18.0142 4C18.0142 4 18.0142 4 18.0142 4C18.0142 4 18.0142 4 18.0142 4C18.0142 4 18.0142 4 18.0142 4C18.0142 4 18.0142 4 18.0142 4C18.0142 4 18.0142 4 18.0142 4C18.0142 4 18.0142 4 18.0142 4C18.0142 4 18.0142 4 18.0142 4C18.0142 4 18.0142 4 18.0142 4C18.0142 4 18.0142 4 18.0142 4C18.0143 4 18.0143 4 18.0143 4C18.0143 4 18.0143 4 18.0143 4C18.0143 4 18.0143 4 18.0143 4C18.0143 4 18.0143 4 18.0143 4C18.0143 4 18.0143 4 18.0143 4C18.0143 4 18.0143 4 18.0143 4C18.0143 4 18.0143 4 18.0143 4C18.0143 4 18.0143 4 18.0143 4C18.0143 4 18.0143 4 18.0143 4C18.0143 4 18.0143 4 18.0143 4C18.0143 4 18.0143 4 18.0143 4C18.0143 4 18.0143 4 18.0143 4C18.0143 4 18.0143 4 18.0143 4C18.0143 4 18.0143 4 18.0144 4C18.0144 4 18.0144 4 18.0144 4C18.0144 4 18.0144 4 18.0144 4C18.0144 4 18.0144 4 18.0144 4C18.0144 4 18.0144 4 18.0144 4C18.0144 4 18.0144 4 18.0144 4C18.0144 4 18.0144 4 18.0144 4C18.0144 4 18.0144 4 18.0144 4C18.0144 4 18.0144 4 18.0144 4C18.0144 4 18.0144 4 18.0144 4C18.0144 4 18.0144 4 18.0144 4C18.0144 4 18.0144 4 18.0144 4C18.0144 4 18.0144 4 18.0144 4C18.0144 4 18.0144 4 18.0144 4C18.0144 4 18.0144 4 18.0144 4C18.0144 4 18.0144 4 18.0144 4C18.0144 4 18.0144 4 18.0144 4C18.0144 4 18.0144 4 18.0144 4C18.0144 4 18.0144 4 18.0144 4C18.0144 4 18.0144 4 18.0144 4C18.0144 4 18.0144 4 18.0144 4C18.0144 4 18.0144 4 18.0144 4C18.0144 4 18.0144 4 18.0144 4C18.0144 4 18.0144 4 18.0144 4C18.0144 4 18.0144 4 18.0144 4C18.0144 4 18.0144 4 18.0144 4C18.0144 4 18.0144 4 18.0144 4C18.0144 4 18.0144 4 18.0144 4H18.0144C18.0144 4 18.0144 4 18.0144 4C18.0144 2 18.0144 0 18.0144 0C18.0144 0 18.0144 0 18.0144 0C18.0144 0 18.0144 0 18.0144 0C18.0144 0 18.0144 0 18.0144 0C18.0144 0 18.0144 0 18.0144 0C18.0144 0 18.0144 0 18.0144 0C18.0144 0 18.0144 0 18.0144 0C18.0144 0 18.0144 0 18.0144 0C18.0144 0 18.0144 0 18.0144 0C18.0144 0 18.0144 0 18.0144 0C18.0144 0 18.0144 0 18.0144 0C18.0144 0 18.0144 0 18.0144 0C18.0144 0 18.0144 0 18.0144 0C18.0144 0 18.0144 0 18.0144 0C18.0144 0 18.0144 0 18.0144 0C18.0144 0 18.0144 0 18.0144 0C18.0144 0 18.0144 0 18.0144 0C18.0144 0 18.0144 0 18.0144 0C18.0144 0 18.0144 0 18.0144 0C18.0144 0 18.0144 0 18.0144 0C18.0144 0 18.0144 0 18.0144 0C18.0144 0 18.0144 0 18.0144 0C18.0144 0 18.0144 0 18.0144 0C18.0144 0 18.0144 0 18.0144 0C18.0144 0 18.0144 0 18.0144 0C18.0144 0 18.0144 0 18.0144 0C18.0144 0 18.0144 0 18.0144 0C18.0144 0 18.0144 0 18.0144 0C18.0144 0 18.0143 0 18.0143 0C18.0143 0 18.0143 0 18.0143 0C18.0143 0 18.0143 0 18.0143 0C18.0143 0 18.0143 0 18.0143 0C18.0143 0 18.0143 0 18.0143 0C18.0143 0 18.0143 0 18.0143 0C18.0143 0 18.0143 0 18.0143 0C18.0143 0 18.0143 0 18.0143 0C18.0143 0 18.0143 0 18.0143 0C18.0143 0 18.0143 0 18.0143 0C18.0143 0 18.0143 0 18.0143 0C18.0143 0 18.0143 0 18.0143 0C18.0142 0 18.0142 0 18.0142 0C18.0142 0 18.0142 0 18.0142 0C18.0142 0 18.0142 0 18.0142 0C18.0142 0 18.0142 0 18.0142 0C18.0142 0 18.0142 0 18.0142 0C18.0142 0 18.0142 0 18.0142 0C18.0142 0 18.0142 0 18.0142 0C18.0142 0 18.0142 0 18.0142 0C18.0142 0 18.0142 0 18.0141 0C18.0141 0 18.0141 0 18.0141 0C18.0141 0 18.0141 0 18.0141 0C18.0141 0 18.0141 0 18.0141 0C18.0141 0 18.0141 0 18.0141 0C18.0141 0 18.0141 0 18.0141 0C18.0141 0 18.0141 0 18.0141 0C18.0141 0 18.0141 0 18.0141 0C18.014 0 18.014 0 18.014 0C18.014 0 18.014 0 18.014 0C18.014 0 18.014 0 18.014 0C18.014 0 18.014 0 18.014 0C18.014 0 18.014 0 18.014 0C18.014 0 18.014 0 18.014 0C18.014 0 18.0139 0 18.0139 0C18.0139 0 18.0139 0 18.0139 0C18.0139 0 18.0139 0 18.0139 0C18.0139 0 18.0139 0 18.0139 0C18.0139 0 18.0139 0 18.0139 0C18.0139 0 18.0139 0 18.0139 0C18.0138 0 18.0138 0 18.0138 0C18.0138 0 18.0138 0 18.0138 0C18.0138 0 18.0138 0 18.0138 0C18.0138 0 18.0138 0 18.0138 0C18.0138 0 18.0138 0 18.0138 0C18.0137 0 18.0137 0 18.0137 0C18.0137 0 18.0137 0 18.0137 0C18.0137 0 18.0137 0 18.0137 0C18.0137 0 18.0137 0 18.0137 0C18.0137 0 18.0137 0 18.0136 0C18.0136 0 18.0136 0 18.0136 0C18.0136 0 18.0136 0 18.0136 0C18.0136 0 18.0136 0 18.0136 0C18.0136 0 18.0136 0 18.0136 0C18.0136 0 18.0135 0 18.0135 0C18.0135 0 18.0135 0 18.0135 0C18.0135 0 18.0135 0 18.0135 0C18.0135 0 18.0135 0 18.0135 0C18.0135 0 18.0134 0 18.0134 0C18.0134 0 18.0134 0 18.0134 0C18.0134 0 18.0134 0 18.0134 0C18.0134 0 18.0134 0 18.0134 0C18.0134 0 18.0133 0 18.0133 0C18.0133 0 18.0133 0 18.0133 0C18.0133 0 18.0133 0 18.0133 0C18.0133 0 18.0133 0 18.0133 0C18.0132 0 18.0132 0 18.0132 0C18.0132 0 18.0132 0 18.0132 0C18.0132 0 18.0132 0 18.0132 0C18.0132 0 18.0132 0 18.0131 0C18.0131 0 18.0131 0 18.0131 0C18.0131 0 18.0131 0 18.0131 0C18.0131 0 18.0131 0 18.0131 0C18.013 0 18.013 0 18.013 0C18.013 0 18.013 0 18.013 0C18.013 0 18.013 0 18.013 0C18.013 0 18.0129 0 18.0129 0C18.0129 0 18.0129 0 18.0129 0C18.0129 0 18.0129 0 18.0129 0C18.0129 0 18.0128 0 18.0128 0C18.0128 0 18.0128 0 18.0128 0C18.0128 0 18.0128 0 18.0128 0C18.0128 0 18.0128 0 18.0127 0C18.0127 0 18.0127 0 18.0127 0C18.0127 0 18.0127 0 18.0127 0C18.0127 0 18.0126 0 18.0126 0C18.0126 0 18.0126 0 18.0126 0C18.0126 0 18.0126 0 18.0126 0C18.0126 0 18.0125 0 18.0125 0C18.0125 0 18.0125 0 18.0125 0C18.0125 0 18.0125 0 18.0125 0C18.0124 0 18.0124 0 18.0124 0C18.0124 0 18.0124 0 18.0124 0C18.0124 0 18.0124 0 18.0123 0C18.0123 0 18.0123 0 18.0123 0C18.0123 0 18.0123 0 18.0123 0C18.0123 0 18.0122 0 18.0122 0C18.0122 0 18.0122 0 18.0122 0C18.0122 0 18.0122 0 18.0122 0C18.0121 0 18.0121 0 18.0121 0C18.0121 0 18.0121 0 18.0121 0C18.0121 0 18.012 0 18.012 0C18.012 0 18.012 0 18.012 0C18.012 0 18.012 0 18.012 0C18.0119 0 18.0119 0 18.0119 0C18.0119 0 18.0119 0 18.0119 0C18.0119 0 18.0118 0 18.0118 0C18.0118 0 18.0118 0 18.0118 0C18.0118 0 18.0118 0 18.0117 0C18.0117 0 18.0117 0 18.0117 0C18.0117 0 18.0117 0 18.0116 0C18.0116 0 18.0116 0 18.0116 0C18.0116 0 18.0116 0 18.0116 0C18.0115 0 18.0115 0 18.0115 0C18.0115 0 18.0115 0 18.0115 0C18.0115 0 18.0114 0 18.0114 0C18.0114 0 18.0114 0 18.0114 0C18.0114 0 18.0113 0 18.0113 0C18.0113 0 18.0113 0 18.0113 0C18.0113 0 18.0112 0 18.0112 0C18.0112 0 18.0112 0 18.0112 0C18.0112 0 18.0111 0 18.0111 0C18.0111 0 18.0111 0 18.0111 0C18.0111 0 18.011 0 18.011 0C18.011 0 18.011 0 18.011 0C18.011 0 18.0109 0 18.0109 0C18.0109 0 18.0109 0 18.0109 0C18.0109 0 18.0108 0 18.0108 0C18.0108 0 18.0108 0 18.0108 0C18.0108 0 18.0107 0 18.0107 0C18.0107 0 18.0107 0 18.0107 0C18.0107 0 18.0106 0 18.0106 0C18.0106 0 18.0106 0 18.0106 0C18.0105 0 18.0105 0 18.0105 0C18.0105 0 18.0105 0 18.0105 0C18.0104 0 18.0104 0 18.0104 0C18.0104 0 18.0104 0 18.0103 0C18.0103 0 18.0103 0 18.0103 0C18.0103 0 18.0102 0 18.0102 0C18.0102 0 18.0102 0 18.0102 0C18.0102 0 18.0101 0 18.0101 0C18.0101 0 18.0101 0 18.0101 0C18.01 0 18.01 0 18.01 0V4Z" fill="currentColor" mask="url(#path-2-inside-1_636_8334)"/>
</svg>
