<svg width="88" height="89" viewBox="0 0 88 89" fill="none" xmlns="http://www.w3.org/2000/svg">
<path opacity="0.2" d="M42.8334 0.944601C43.8672 0.358655 45.1328 0.358656 46.1666 0.944602L63.8575 10.9718L81.3868 21.279C82.4111 21.8813 83.0439 22.9773 83.0534 24.1656L83.215 44.5L83.0534 64.8344C83.0439 66.0227 82.4111 67.1187 81.3868 67.721L63.8575 78.0282L46.1666 88.0554C45.1328 88.6413 43.8672 88.6413 42.8334 88.0554L25.1425 78.0282L7.61319 67.721C6.58886 67.1187 5.95609 66.0227 5.94664 64.8344L5.785 44.5L5.94664 24.1656C5.95609 22.9773 6.58886 21.8813 7.61319 21.279L25.1425 10.9718L42.8334 0.944601Z" fill="#124860"/>
<path d="M53.9998 83.5L27.291 59.5949L64.9998 44L80.9998 68L53.9998 83.5Z" fill="url(#paint0_linear_7469_246115)"/>
<g clip-path="url(#clip0_7469_246115)">
<path d="M25.1723 31.8743H52.0883C53.5979 31.8761 54.8975 32.9399 55.1982 34.4191L40.438 46.9376C39.3997 47.823 37.8722 47.8238 36.8331 46.9391L22.0608 34.4299C22.3567 32.9456 23.6586 31.8761 25.1723 31.8743ZM25.1723 56.2362C24.4855 56.2365 23.8171 56.0135 23.2688 55.5997L31.3868 47.2969C31.5573 47.1253 31.623 46.8756 31.5584 46.6428C31.4939 46.4096 31.3091 46.2294 31.0748 46.1701C30.8405 46.1107 30.5923 46.1817 30.4248 46.3559L22.3856 54.5783C22.1322 54.1138 21.9993 53.593 22 53.0639V36.1422L35.9638 47.9661C37.5042 49.2777 39.7692 49.2766 41.3084 47.9638L55.2606 36.1302V40.8713C52.7432 41.4316 51.349 42.4845 51.0805 42.7038L51.079 42.7023C49.5909 43.9242 48.4257 45.493 47.6856 47.2707L46.7851 46.3544C46.5241 46.0916 46.0998 46.0889 45.8358 46.3484C45.5718 46.6083 45.567 47.0322 45.8253 47.2977L47.1989 48.6953C47.1253 48.9668 47.0585 49.2413 47.0033 49.5203C46.7419 50.8113 46.6954 52.1368 46.8647 53.4432L46.8658 53.4488C46.867 53.4593 46.8685 53.4698 46.8703 53.4804L47.0359 54.4326C47.0844 54.7094 47.2995 54.9275 47.5759 54.9786C47.8523 55.0301 48.1317 54.9043 48.2762 54.6632L48.7726 53.836C49.203 53.1142 49.6968 52.4323 50.248 51.7988L53.9876 55.6031C53.4398 56.0146 52.7732 56.2369 52.0883 56.2362H25.1723ZM55.2606 53.0639C55.2613 53.5949 55.1277 54.1176 54.8723 54.5832L51.1913 50.8379C52.3444 49.7719 53.7417 49.0047 55.2606 48.6041V53.0639ZM59.3844 51.1139V47.734C59.3844 47.404 59.1448 47.1223 58.8189 47.0698C57.8302 46.9278 56.8253 46.9413 55.8407 47.1096C55.8235 47.1122 55.8062 47.1148 55.7889 47.1186C53.5652 47.4933 50.5788 48.734 48.1178 52.3617C48.0862 51.4969 48.1553 50.631 48.3235 49.782C48.8023 47.3611 50.0182 45.3282 51.9378 43.739C51.9468 43.7315 51.9558 43.724 51.9644 43.7161C52.0549 43.6422 54.2989 41.8649 58.5875 41.8649H58.7118C59.0836 41.8649 59.3847 41.5638 59.3847 41.192V37.8838L66 44.4656L59.3844 51.1139Z" fill="white"/>
</g>
<defs>
<linearGradient id="paint0_linear_7469_246115" x1="67.9492" y1="74.0759" x2="45.1138" y2="42.8861" gradientUnits="userSpaceOnUse">
<stop stop-color="#237497"/>
<stop offset="1" stop-color="#237497" stop-opacity="0"/>
</linearGradient>
<clipPath id="clip0_7469_246115">
<rect width="44" height="44" fill="white" transform="translate(22 22)"/>
</clipPath>
</defs>
</svg>
