<svg xmlns="http://www.w3.org/2000/svg" width="24" height="24" viewBox="0 0 24 24" fill="none">
  <path d="M16.5003 2.54896V0.827579C16.5003 0.375165 16.0923 -7.62939e-06 15.6003 -7.62939e-06C15.1083 -7.62939e-06 14.7003 0.375165 14.7003 0.827579V2.48275H6.90028V0.827579C6.90028 0.375165 6.49228 -7.62939e-06 6.00028 -7.62939e-06C5.50828 -7.62939e-06 5.10028 0.375165 5.10028 0.827579V2.54896C1.86028 2.82482 0.288275 4.60137 0.048275 7.23861C0.024275 7.55861 0.312275 7.82344 0.648275 7.82344H20.9523C21.3003 7.82344 21.5883 7.54758 21.5523 7.23861C21.3123 4.60137 19.7403 2.82482 16.5003 2.54896Z" fill="#50429B"/>
  <path d="M19.1999 15.1724C16.5479 15.1724 14.3999 17.1476 14.3999 19.5862C14.3999 20.4138 14.6519 21.1972 15.0959 21.8593C15.9239 23.1393 17.4479 24 19.1999 24C20.9519 24 22.4759 23.1393 23.3039 21.8593C23.7479 21.1972 23.9999 20.4138 23.9999 19.5862C23.9999 17.1476 21.8519 15.1724 19.1999 15.1724ZM21.6839 19.1117L19.1279 21.2855C18.9599 21.429 18.7319 21.5062 18.5159 21.5062C18.2879 21.5062 18.0599 21.429 17.8799 21.2635L16.6919 20.171C16.3439 19.851 16.3439 19.3214 16.6919 19.0014C17.0399 18.6814 17.6159 18.6814 17.9639 19.0014L18.5399 19.531L20.4599 17.8979C20.8199 17.589 21.3959 17.611 21.7319 17.9421C22.0679 18.2731 22.0439 18.7917 21.6839 19.1117Z" fill="#50429B"/>
  <path d="M20.4 9.4786H1.2C0.54 9.4786 0 9.97515 0 10.582V17.3793C0 20.6896 1.8 22.8965 6 22.8965H11.916C12.744 22.8965 13.32 22.1572 13.056 21.44C12.816 20.8 12.612 20.0938 12.612 19.5862C12.612 16.2427 15.576 13.5172 19.212 13.5172C19.56 13.5172 19.908 13.5393 20.244 13.5945C20.964 13.6938 21.612 13.1752 21.612 12.5131V10.5931C21.6 9.97515 21.06 9.4786 20.4 9.4786ZM7.452 18.7145C7.224 18.9131 6.912 19.0345 6.6 19.0345C6.288 19.0345 5.976 18.9131 5.748 18.7145C5.532 18.5048 5.4 18.2179 5.4 17.931C5.4 17.6441 5.532 17.3572 5.748 17.1476C5.868 17.0483 5.988 16.971 6.144 16.9158C6.588 16.7393 7.116 16.8386 7.452 17.1476C7.668 17.3572 7.8 17.6441 7.8 17.931C7.8 18.2179 7.668 18.5048 7.452 18.7145ZM7.452 14.8524C7.392 14.8965 7.332 14.9407 7.272 14.9848C7.2 15.0289 7.128 15.062 7.056 15.0841C6.984 15.1172 6.912 15.1393 6.84 15.1503C6.756 15.1614 6.672 15.1724 6.6 15.1724C6.288 15.1724 5.976 15.051 5.748 14.8524C5.532 14.6427 5.4 14.3558 5.4 14.0689C5.4 13.782 5.532 13.4952 5.748 13.2855C6.024 13.0317 6.444 12.9103 6.84 12.9876C6.912 12.9986 6.984 13.0207 7.056 13.0538C7.128 13.0758 7.2 13.1089 7.272 13.1531C7.332 13.1972 7.392 13.2414 7.452 13.2855C7.668 13.4952 7.8 13.782 7.8 14.0689C7.8 14.3558 7.668 14.6427 7.452 14.8524ZM11.652 14.8524C11.424 15.051 11.112 15.1724 10.8 15.1724C10.488 15.1724 10.176 15.051 9.948 14.8524C9.732 14.6427 9.6 14.3558 9.6 14.0689C9.6 13.782 9.732 13.4952 9.948 13.2855C10.404 12.8772 11.208 12.8772 11.652 13.2855C11.868 13.4952 12 13.782 12 14.0689C12 14.3558 11.868 14.6427 11.652 14.8524Z" fill="#50429B"/>
</svg>