<svg width="24" height="24" viewBox="0 0 24 24" fill="none" xmlns="http://www.w3.org/2000/svg">
<path d="M14.6708 6L9.33081 6C6.01081 6 4.66081 8.35 6.31081 11.22L7.05081 12.5C7.23081 12.81 7.56081 13 7.92081 13L16.0808 13C16.4408 13 16.7708 12.81 16.9508 12.5L17.6908 11.22C19.3408 8.35 17.9908 6 14.6708 6Z" fill="#50429B"/>
<path d="M15.2085 14L8.77848 14C8.38848 14 8.14848 14.42 8.34848 14.75L8.98848 15.85C10.6385 18.72 13.3585 18.72 15.0085 15.85L15.6485 14.75C15.8385 14.42 15.5985 14 15.2085 14Z" fill="#50429B"/>
</svg>
