<svg width="88" height="88" viewBox="0 0 88 88" fill="none" xmlns="http://www.w3.org/2000/svg">
<g id="OBJECTS">
<path id="Vector" fill-rule="evenodd" clip-rule="evenodd" d="M20.5428 59.793C23.0531 59.793 25.5072 60.6214 27.5945 62.1735C29.6818 63.7256 31.3087 65.9316 32.2694 68.5127C33.23 71.0937 33.4814 73.9338 32.9916 76.6739C32.5019 79.4139 31.293 81.9308 29.5179 83.9062C27.7428 85.8816 25.4811 87.2269 23.019 87.772C20.5568 88.317 18.0047 88.0373 15.6854 86.9682C13.3661 85.8991 11.3838 84.0886 9.98909 81.7657C8.59439 79.4428 7.84998 76.7119 7.84998 73.9182C7.84998 70.1719 9.18725 66.5791 11.5676 63.9301C13.948 61.2812 17.1764 59.793 20.5428 59.793ZM20.5428 63.4166C18.6798 63.4166 16.8587 64.0315 15.3099 65.1836C13.7611 66.3356 12.5541 67.9729 11.8416 69.8885C11.1291 71.8041 10.9432 73.9118 11.3074 75.9449C11.6715 77.9781 12.5694 79.8454 13.8873 81.3106C15.2053 82.7758 16.8842 83.7731 18.7116 84.1762C20.5389 84.5794 22.4327 84.3703 24.1533 83.5754C25.8739 82.7805 27.3439 81.4356 28.3775 79.7108C29.4111 77.986 29.9618 75.9587 29.9598 73.8856C29.9598 71.1062 28.9677 68.4406 27.2016 66.4752C25.4356 64.5099 23.0403 63.4058 20.5428 63.4058" fill="#000044"/>
<path id="Vector_2" fill-rule="evenodd" clip-rule="evenodd" d="M20.5428 63.4166C22.4057 63.4166 24.2268 64.0315 25.7757 65.1836C27.3245 66.3356 28.5315 67.9729 29.244 69.8885C29.9564 71.8041 30.1424 73.9118 29.7782 75.9449C29.414 77.9781 28.5162 79.8454 27.1982 81.3106C25.8802 82.7758 24.2014 83.7731 22.374 84.1762C20.5466 84.5793 18.6529 84.3703 16.9323 83.5754C15.2117 82.7805 13.7416 81.4356 12.708 79.7108C11.6745 77.986 11.1238 75.9587 11.1257 73.8856C11.1257 71.1062 12.1179 68.4406 13.8839 66.4752C15.65 64.5099 18.0452 63.4058 20.5428 63.4058M20.5428 67.3554C19.3842 67.3554 18.2515 67.7377 17.2882 68.4541C16.3248 69.1704 15.5739 70.1886 15.1305 71.3799C14.6871 72.5711 14.5711 73.8819 14.7972 75.1466C15.0232 76.4112 15.5811 77.5728 16.4004 78.4846C17.2197 79.3963 18.2635 80.0172 19.3999 80.2688C20.5363 80.5203 21.7142 80.3912 22.7846 79.8978C23.8551 79.4043 24.77 78.5687 25.4137 77.4966C26.0574 76.4245 26.401 75.1641 26.401 73.8747C26.401 72.1457 25.7838 70.4875 24.6852 69.2649C23.5866 68.0422 22.0965 67.3554 20.5428 67.3554Z" fill="#A9C2C2"/>
<path id="Vector_3" d="M20.5427 81.3122C19.2252 81.3122 17.9372 80.8775 16.8416 80.0632C15.7459 79.2488 14.8918 78.0913 14.3872 76.7368C13.8825 75.3824 13.75 73.8919 14.0063 72.4537C14.2627 71.0155 14.8964 69.6941 15.8273 68.6566C16.7583 67.619 17.9447 66.9119 19.2367 66.6245C20.5287 66.3372 21.8682 66.4825 23.086 67.0421C24.3039 67.6017 25.3453 68.5505 26.0786 69.7686C26.812 70.9867 27.2045 72.4194 27.2064 73.8856C27.2064 75.8524 26.5044 77.7386 25.2547 79.1293C24.005 80.52 22.31 81.3013 20.5427 81.3013M20.5427 64.2859C18.8366 64.2859 17.1688 64.8489 15.7503 65.9037C14.3317 66.9586 13.226 68.4578 12.5731 70.2119C11.9202 71.9661 11.7494 73.8962 12.0823 75.7584C12.4151 77.6206 13.2367 79.3311 14.4431 80.6736C15.6495 82.0162 17.1865 82.9304 18.8598 83.3008C20.5331 83.6713 22.2676 83.4811 23.8438 82.7546C25.4201 82.028 26.7673 80.7976 27.7151 79.2189C28.663 77.6402 29.1689 75.7842 29.1689 73.8856C29.1689 71.3396 28.2601 68.8979 26.6424 67.0976C25.0246 65.2973 22.8305 64.2859 20.5427 64.2859Z" fill="#7E9191"/>
<path id="Vector_4" fill-rule="evenodd" clip-rule="evenodd" d="M19.3956 71.5712C19.5506 71.4776 19.7143 71.4029 19.8837 71.3485L20.1962 66.7795H20.8943L21.2116 71.3485C21.3807 71.4041 21.5443 71.4787 21.6998 71.5712L24.829 68.5941L25.0731 68.8657L25.3221 69.1428L22.642 72.6198C22.7251 72.7928 22.7922 72.9748 22.8421 73.163L26.9478 73.5162V74.2931L22.8421 74.6408C22.7928 74.8292 22.7257 75.0113 22.642 75.184L25.3221 78.661L25.0731 78.9381L24.829 79.2097L21.6998 76.2271C21.5453 76.322 21.3815 76.3967 21.2116 76.4499L20.8943 81.0188H20.1913L19.8789 76.4499C19.7087 76.3977 19.5448 76.3229 19.3907 76.2271L16.2614 79.2097L16.0173 78.9381L15.7684 78.661L18.4485 75.184C18.3648 75.0113 18.2977 74.8292 18.2483 74.6408L14.1573 74.2876V73.5107L18.263 73.1576C18.3129 72.9694 18.38 72.7874 18.4631 72.6143L15.783 69.1374L16.032 68.8603L16.2761 68.5887L19.3956 71.5712Z" fill="#A9C2C2"/>
<path id="Vector_5" fill-rule="evenodd" clip-rule="evenodd" d="M75.3267 77.0801C75.8923 77.079 76.4449 76.8914 76.9147 76.5409C77.3845 76.1904 77.7504 75.6929 77.9662 75.111C78.182 74.5292 78.2379 73.8893 78.127 73.2721C78.0161 72.6549 77.7432 72.0881 77.343 71.6434C76.9427 71.1987 76.4329 70.8961 75.8781 70.7737C75.3233 70.6513 74.7484 70.7146 74.2259 70.9557C73.7035 71.1969 73.257 71.6049 72.9429 72.1283C72.6287 72.6518 72.4611 73.2671 72.4611 73.8965C72.4624 74.7413 72.7648 75.5511 73.3021 76.148C73.8394 76.7449 74.5675 77.0801 75.3267 77.0801Z" fill="#A9C2C2"/>
<path id="Vector_6" fill-rule="evenodd" clip-rule="evenodd" d="M77.3479 71.6473C77.7478 72.0926 78.0201 72.6599 78.1303 73.2774C78.2405 73.8949 78.1838 74.5349 77.9672 75.1165C77.7506 75.6981 77.3839 76.1952 76.9135 76.5449C76.4431 76.8947 75.8901 77.0813 75.3244 77.0813C74.7587 77.0813 74.2056 76.8947 73.7352 76.5449C73.2648 76.1952 72.8981 75.6981 72.6816 75.1165C72.465 74.5349 72.4082 73.8949 72.5185 73.2774C72.6287 72.6599 72.901 72.0926 73.3009 71.6473C73.5665 71.3515 73.882 71.1168 74.2292 70.9566C74.5764 70.7965 74.9485 70.7141 75.3244 70.7141C75.7002 70.7141 76.0724 70.7965 76.4196 70.9566C76.7668 71.1168 77.0822 71.3515 77.3479 71.6473Z" fill="#A9C2C2"/>
<path id="Vector_7" fill-rule="evenodd" clip-rule="evenodd" d="M78.1876 73.8855C78.1876 74.5152 78.0198 75.1307 77.7054 75.6542C77.3911 76.1778 76.9443 76.5858 76.4216 76.8268C75.8988 77.0677 75.3236 77.1308 74.7687 77.0079C74.2138 76.8851 73.704 76.5819 73.304 76.1367C72.9039 75.6914 72.6314 75.1242 72.521 74.5066C72.4107 73.889 72.4673 73.2489 72.6838 72.6672C72.9004 72.0855 73.267 71.5883 73.7375 71.2384C74.2079 70.8886 74.761 70.7019 75.3268 70.7019C76.0855 70.7019 76.8132 71.0373 77.3497 71.6344C77.8862 72.2314 78.1876 73.0412 78.1876 73.8855Z" fill="#A9C2C2"/>
<path id="Vector_8" fill-rule="evenodd" clip-rule="evenodd" d="M77.3478 76.1511C76.9476 76.5961 76.4379 76.8991 75.883 77.0218C75.3281 77.1444 74.753 77.0813 74.2304 76.8403C73.7078 76.5992 73.2611 76.1912 72.9468 75.6677C72.6326 75.1442 72.4648 74.5287 72.4648 73.8992C72.4648 73.2696 72.6326 72.6542 72.9468 72.1307C73.2611 71.6072 73.7078 71.1991 74.2304 70.9581C74.753 70.7171 75.3281 70.6539 75.883 70.7766C76.4379 70.8993 76.9476 71.2023 77.3478 71.6473C77.6136 71.943 77.8245 72.294 77.9684 72.6804C78.1123 73.0668 78.1864 73.4809 78.1864 73.8992C78.1864 74.3174 78.1123 74.7316 77.9684 75.118C77.8245 75.5044 77.6136 75.8554 77.3478 76.1511Z" fill="#A9C2C2"/>
<path id="Vector_9" fill-rule="evenodd" clip-rule="evenodd" d="M75.3268 77.0801C74.761 77.0801 74.2079 76.8934 73.7375 76.5436C73.267 76.1937 72.9004 75.6965 72.6838 75.1148C72.4673 74.5331 72.4107 73.893 72.521 73.2754C72.6314 72.6578 72.9039 72.0906 73.304 71.6454C73.704 71.2001 74.2138 70.8969 74.7687 70.7741C75.3236 70.6512 75.8988 70.7143 76.4216 70.9552C76.9443 71.1962 77.3911 71.6042 77.7054 72.1278C78.0198 72.6513 78.1876 73.2668 78.1876 73.8965C78.1876 74.3146 78.1136 74.7286 77.9698 75.1148C77.826 75.5011 77.6153 75.852 77.3497 76.1476C77.084 76.4433 76.7687 76.6778 76.4216 76.8378C76.0745 76.9977 75.7025 77.0801 75.3268 77.0801Z" fill="#A9C2C2"/>
<path id="Vector_10" fill-rule="evenodd" clip-rule="evenodd" d="M73.3009 76.1511C72.901 75.7057 72.6287 75.1385 72.5185 74.521C72.4082 73.9035 72.465 73.2635 72.6816 72.6819C72.8981 72.1002 73.2648 71.6032 73.7352 71.2534C74.2056 70.9037 74.7587 70.717 75.3244 70.717C75.8901 70.717 76.4431 70.9037 76.9135 71.2534C77.3839 71.6032 77.7506 72.1002 77.9672 72.6819C78.1838 73.2635 78.2405 73.9035 78.1303 74.521C78.0201 75.1385 77.7478 75.7057 77.3479 76.1511C77.0822 76.4469 76.7668 76.6816 76.4196 76.8417C76.0724 77.0018 75.7002 77.0843 75.3244 77.0843C74.9485 77.0843 74.5764 77.0018 74.2292 76.8417C73.882 76.6816 73.5665 76.4469 73.3009 76.1511Z" fill="#A9C2C2"/>
<path id="Vector_11" fill-rule="evenodd" clip-rule="evenodd" d="M72.4611 73.8856C72.4601 73.2547 72.6273 72.6376 72.9416 72.1124C73.2559 71.5873 73.7031 71.1777 74.2267 70.9355C74.7502 70.6933 75.3266 70.6293 75.8828 70.7518C76.439 70.8742 76.95 71.1775 77.3513 71.6233C77.7525 72.0691 78.026 72.6373 78.1369 73.2561C78.2479 73.8748 78.1914 74.5163 77.9747 75.0993C77.7579 75.6824 77.3906 76.1808 76.9193 76.5314C76.4479 76.8821 75.8937 77.0692 75.3267 77.0692C74.9506 77.07 74.5781 76.9881 74.2304 76.8285C73.8828 76.6688 73.5669 76.4344 73.3007 76.1387C73.0345 75.843 72.8234 75.4918 72.6793 75.1052C72.5352 74.7186 72.4611 74.3042 72.4611 73.8856Z" fill="#A9C2C2"/>
<path id="Vector_12" fill-rule="evenodd" clip-rule="evenodd" d="M75.3268 59.793C77.8372 59.793 80.2912 60.6214 82.3785 62.1735C84.4659 63.7256 86.0927 65.9316 87.0534 68.5127C88.0141 71.0937 88.2654 73.9338 87.7757 76.6739C87.2859 79.4139 86.0771 81.9308 84.302 83.9062C82.5268 85.8816 80.2652 87.2269 77.803 87.772C75.3409 88.317 72.7888 88.0373 70.4695 86.9682C68.1502 85.8991 66.1679 84.0886 64.7732 81.7657C63.3785 79.4428 62.634 76.7119 62.634 73.9182C62.634 70.1719 63.9713 66.5791 66.3517 63.9301C68.732 61.2812 71.9605 59.793 75.3268 59.793ZM75.3268 63.4166C73.4639 63.4166 71.6428 64.0315 70.094 65.1836C68.5451 66.3356 67.3381 67.9729 66.6256 69.8885C65.9132 71.8041 65.7273 73.9118 66.0914 75.9449C66.4556 77.9781 67.3534 79.8454 68.6714 81.3106C69.9894 82.7758 71.6682 83.7731 73.4956 84.1762C75.323 84.5794 77.2168 84.3703 78.9373 83.5754C80.6579 82.7805 82.128 81.4356 83.1616 79.7108C84.1951 77.986 84.7458 75.9587 84.7439 73.8856C84.7439 71.1062 83.7517 68.4406 81.9857 66.4752C80.2196 64.5099 77.8244 63.4058 75.3268 63.4058" fill="#000044"/>
<path id="Vector_13" fill-rule="evenodd" clip-rule="evenodd" d="M75.3267 63.4166C77.1895 63.4177 79.0101 64.0335 80.5583 65.1862C82.1065 66.3389 83.3127 67.9766 84.0244 69.8923C84.7361 71.8079 84.9214 73.9155 84.5567 75.9483C84.192 77.9811 83.2937 79.8479 81.9755 81.3125C80.6574 82.7772 78.9785 83.7739 77.1512 84.1766C75.324 84.5793 73.4305 84.3699 71.7102 83.5749C69.9899 82.7799 68.5201 81.435 67.4868 79.7102C66.4534 77.9855 65.9029 75.9585 65.9048 73.8856C65.9048 71.1062 66.8969 68.4406 68.663 66.4752C70.429 64.5099 72.8243 63.4058 75.3219 63.4058M75.3219 67.3554C74.1632 67.3554 73.0306 67.7377 72.0672 68.4541C71.1038 69.1704 70.353 70.1886 69.9096 71.3799C69.4662 72.5711 69.3502 73.8819 69.5762 75.1466C69.8023 76.4112 70.3602 77.5728 71.1795 78.4846C71.9988 79.3963 73.0426 80.0172 74.179 80.2688C75.3154 80.5203 76.4932 80.3912 77.5637 79.8978C78.6341 79.4044 79.5491 78.5687 80.1928 77.4966C80.8365 76.4246 81.1801 75.1641 81.1801 73.8747C81.1801 72.1457 80.5629 70.4875 79.4642 69.2649C78.3656 68.0422 76.8755 67.3554 75.3219 67.3554Z" fill="#A9C2C2"/>
<path id="Vector_14" d="M75.3268 81.3122C74.009 81.3133 72.7206 80.8795 71.6243 80.0658C70.528 79.2521 69.6732 78.0949 69.1678 76.7406C68.6624 75.3863 68.5292 73.8956 68.7849 72.457C69.0407 71.0185 69.674 69.6966 70.6048 68.6585C71.5355 67.6204 72.722 66.9127 74.0141 66.6249C75.3062 66.3371 76.646 66.4821 77.8641 67.0416C79.0822 67.601 80.1239 68.5498 80.8575 69.768C81.5911 70.9862 81.9837 72.4191 81.9856 73.8856C81.9856 75.8514 81.2842 77.7368 80.0356 79.1274C78.7869 80.5179 77.0933 81.2999 75.3268 81.3013M75.3268 64.2859C73.6213 64.2891 71.955 64.8549 70.5383 65.9116C69.1217 66.9684 68.0183 68.4688 67.3677 70.2232C66.717 71.9776 66.5483 73.9073 66.8828 75.7684C67.2172 77.6295 68.04 79.3384 69.2469 80.6793C70.4539 82.0203 71.991 82.9329 73.6639 83.302C75.3368 83.6711 77.0705 83.4801 78.6459 82.753C80.2213 82.0259 81.5677 80.7955 82.5149 79.2172C83.4621 77.6389 83.9676 75.7835 83.9676 73.8856C83.9676 71.3396 83.0588 68.8979 81.4411 67.0976C79.8233 65.2973 77.6292 64.2859 75.3414 64.2859" fill="#7E9191"/>
<path id="Vector_15" fill-rule="evenodd" clip-rule="evenodd" d="M74.1746 71.5712C74.3298 71.4781 74.4935 71.4034 74.6628 71.3485L74.9752 66.7795H75.6685L75.9858 71.3485C76.1549 71.4041 76.3185 71.4787 76.474 71.5712L79.5983 68.5941L79.8473 68.8657L80.0914 69.1428L77.4161 72.6198C77.4993 72.7928 77.5664 72.9748 77.6163 73.163L81.7219 73.5162V74.2931L77.6163 74.6408C77.567 74.8292 77.4999 75.0113 77.4161 75.184L80.0914 78.661L79.8473 78.9381L79.5983 79.2097L76.474 76.2271C76.3194 76.322 76.1556 76.3967 75.9858 76.4499L75.6685 81.0188H74.9704L74.6579 76.4499C74.4878 76.3973 74.324 76.3226 74.1697 76.2271L71.0454 79.2097L70.7964 78.9381L70.5523 78.661L73.2324 75.184C73.1467 75.0124 73.0795 74.83 73.0323 74.6408L68.9266 74.2931V73.5162L73.0323 73.163C73.08 72.974 73.1472 72.7917 73.2324 72.6198L70.5523 69.1428L70.7964 68.8657L71.0454 68.5941L74.1746 71.5712Z" fill="#A9C2C2"/>
<path id="Vector_16" fill-rule="evenodd" clip-rule="evenodd" d="M64.5037 56.0825L66.803 54.6047L76.3812 73.3424C76.7424 74.0432 76.4105 74.782 75.893 75.3579C75.3755 75.9338 74.4284 75.5209 74.0818 74.8146L64.5037 56.0825Z" fill="black"/>
<path id="Vector_17" fill-rule="evenodd" clip-rule="evenodd" d="M75.3268 55.865C76.7614 55.8686 78.1894 56.0823 79.574 56.5006C79.7724 56.5589 79.9535 56.6746 80.0987 56.836C80.244 56.9975 80.3482 57.1988 80.4008 57.4197C80.4533 57.6405 80.4524 57.8728 80.3981 58.0931C80.3438 58.3134 80.2379 58.5137 80.0914 58.6737L61.6137 79.2368C61.4699 79.3998 61.2899 79.5175 61.092 79.578C60.894 79.6385 60.6852 79.6395 60.4868 79.581C60.2884 79.5225 60.1074 79.4065 59.9624 79.2449C59.8173 79.0833 59.7133 78.8818 59.661 78.6609C59.0091 75.9869 58.9191 73.1819 59.3978 70.463C59.8765 67.7441 60.9112 65.1843 62.4216 62.9818C63.932 60.7794 65.8777 58.9933 68.1079 57.762C70.3382 56.5307 72.7932 55.8872 75.2828 55.8813L75.3268 55.865Z" fill="#463796"/>
<path id="Vector_18" fill-rule="evenodd" clip-rule="evenodd" d="M20.0594 52.3445L45.196 51.9316C40.4509 62.3082 40.2409 69.8055 45.196 76.064H33.6846L32.8694 75.1676H5.121C4.78574 75.1669 4.45446 75.0867 4.14926 74.9323C3.84407 74.7778 3.57198 74.5527 3.35114 74.272C3.13031 73.9913 2.9658 73.6614 2.8686 73.3043C2.7714 72.9473 2.74375 72.5712 2.78748 72.2013C4.05187 61.6672 9.83685 53.844 19.0391 53.3007C20.1326 53.2409 20.2645 52.6162 20.0594 52.3445Z" fill="#463796"/>
<path id="Vector_19" fill-rule="evenodd" clip-rule="evenodd" d="M41.3785 74.6515H42.6527C38.7863 67.9529 40.1873 60.5263 43.1409 53.3768H42.1645C41.742 53.3733 41.3287 53.5135 40.9797 53.7785C40.6308 54.0436 40.3628 54.4209 40.2118 54.8599C38.0149 61.0478 37.1313 67.3553 39.4258 73.2227C39.5835 73.6525 39.8545 74.019 40.203 74.2741C40.5516 74.5291 40.9614 74.6607 41.3785 74.6515Z" fill="#371A45"/>
<path id="Vector_20" fill-rule="evenodd" clip-rule="evenodd" d="M33.4406 75.4394H44.6689C48.2375 75.4394 53.0266 75.9827 55.2673 71.8701L65.1042 53.6975C66.354 51.3831 66.3686 49.6175 65.69 46.4719L63.4444 36.0464C63.2442 35.1174 63.1515 34.4166 63.9326 34.4166H64.9675C65.4413 34.4124 65.9023 34.5876 66.2749 34.9134C66.6474 35.2391 66.9094 35.6961 67.0179 36.2094L69.0048 45.3201C69.41 47.1619 70.772 53.252 69.9031 54.8764L57.8645 77.3463H33.1965C33.3091 76.7161 33.3906 76.0795 33.4406 75.4394Z" fill="#371A45"/>
<path id="Vector_21" d="M57.5959 77.167H33.0109C32.8465 77.167 32.7131 77.3154 32.7131 77.4984V78.7208C32.7131 78.9038 32.8465 79.0522 33.0109 79.0522H57.5959C57.7603 79.0522 57.8937 78.9038 57.8937 78.7208V77.4984C57.8937 77.3154 57.7603 77.167 57.5959 77.167Z" fill="#463796"/>
<path id="Vector_22" fill-rule="evenodd" clip-rule="evenodd" d="M20.5038 55.2676C24.832 55.2677 29.0133 57.0148 32.272 60.1847C35.5308 63.3547 37.6458 67.7324 38.2248 72.5058C38.2644 72.8374 38.24 73.1745 38.1531 73.4948C38.0663 73.8151 37.9192 74.111 37.7214 74.363C37.5237 74.6149 37.2799 74.817 37.0064 74.9558C36.7329 75.0946 36.436 75.1669 36.1354 75.1678H4.88187C4.58128 75.1669 4.28434 75.0946 4.01084 74.9558C3.73735 74.817 3.4936 74.6149 3.29585 74.363C3.09811 74.111 2.95092 73.8151 2.86412 73.4948C2.77731 73.1745 2.75287 72.8374 2.79244 72.5058C3.37121 67.7342 5.48484 63.358 8.74156 60.1883C11.9983 57.0186 16.1772 55.2703 20.5038 55.2676Z" fill="#371A45"/>
<path id="Vector_23" fill-rule="evenodd" clip-rule="evenodd" d="M20.5037 57.1907C24.1785 57.1907 27.7286 58.6741 30.4954 61.3655C33.2622 64.0569 35.058 67.7738 35.5495 71.8266C35.5886 72.1082 35.5702 72.396 35.4959 72.6687C35.4215 72.9414 35.293 73.1921 35.1199 73.4021C35.0765 73.4603 35.0292 73.5148 34.9783 73.565C34.0022 70.1452 32.0733 67.1599 29.471 65.0412C26.8687 62.9226 23.728 61.7806 20.5037 61.7806C17.2793 61.7806 14.1387 62.9226 11.5364 65.0412C8.93407 67.1599 7.00521 70.1452 6.02904 73.565C5.97822 73.5148 5.93089 73.4603 5.88746 73.4021C5.71434 73.1921 5.58585 72.9414 5.51149 72.6687C5.43713 72.396 5.4188 72.1082 5.45786 71.8266C5.94941 67.7738 7.74515 64.0569 10.512 61.3655C13.2788 58.6741 16.8289 57.1907 20.5037 57.1907Z" fill="#463796"/>
<path id="Vector_24" d="M45.2986 47.178H19.6104C19.303 47.178 19.0538 47.4553 19.0538 47.7973V51.7252C19.0538 52.0673 19.303 52.3445 19.6104 52.3445H45.2986C45.606 52.3445 45.8551 52.0673 45.8551 51.7252V47.7973C45.8551 47.4553 45.606 47.178 45.2986 47.178Z" fill="black"/>
<path id="Vector_25" d="M30.6433 15.8853H1.04471C0.467734 15.8853 0 16.4058 0 17.0479V45.9502C0 46.5923 0.467734 47.1128 1.04471 47.1128H30.6433C31.2203 47.1128 31.688 46.5923 31.688 45.9502V17.0479C31.688 16.4058 31.2203 15.8853 30.6433 15.8853Z" fill="#371A45"/>
<path id="Vector_26" fill-rule="evenodd" clip-rule="evenodd" d="M2.74359 17.6726H28.9444C29.19 17.674 29.4252 17.7832 29.5989 17.9765C29.7725 18.1698 29.8707 18.4315 29.872 18.7048V29.3368C20.5037 33.5472 8.37723 23.7084 1.81604 37.5565V18.7048C1.81732 18.4315 1.91546 18.1698 2.08913 17.9765C2.2628 17.7832 2.49798 17.674 2.74359 17.6726Z" fill="#463796"/>
<path id="Vector_27" fill-rule="evenodd" clip-rule="evenodd" d="M70.7866 38.2955C71.4261 38.2303 72.0608 39.7081 72.2023 41.5878C72.3439 43.4675 71.9436 45.0376 71.3041 45.0974C70.6646 45.1571 70.0299 43.6794 69.8835 41.8051C69.737 39.9308 70.1569 38.3553 70.7866 38.2955Z" fill="#F1CF00"/>
<path id="Vector_28" fill-rule="evenodd" clip-rule="evenodd" d="M70.5376 37.8445C70.5943 37.8338 70.6524 37.8361 70.7082 37.8513C70.764 37.8666 70.8165 37.8944 70.8622 37.9331C70.908 37.9718 70.9461 38.0206 70.9743 38.0764C71.0024 38.1322 71.02 38.1938 71.0258 38.2574L71.7191 44.9995C71.7273 45.0624 71.7242 45.1264 71.7099 45.1879C71.6957 45.2495 71.6705 45.3072 71.636 45.3578C71.6014 45.4083 71.5582 45.4508 71.5087 45.4825C71.4593 45.5143 71.4047 45.5348 71.348 45.5428C69.1903 45.8198 67.2668 44.3204 67.052 42.2016C66.8372 40.0828 68.3848 38.1162 70.5376 37.8445Z" fill="#463796"/>
<path id="Vector_29" fill-rule="evenodd" clip-rule="evenodd" d="M69.8591 37.9912L70.7427 45.5536C70.9385 45.5588 71.1343 45.5479 71.3286 45.521C71.3852 45.513 71.4398 45.4926 71.4893 45.4608C71.5387 45.429 71.582 45.3866 71.6165 45.336C71.6511 45.2855 71.6762 45.2277 71.6905 45.1662C71.7047 45.1047 71.7078 45.0406 71.6996 44.9778L71.0064 38.2357C71.0005 38.1721 70.983 38.1104 70.9548 38.0546C70.9267 37.9989 70.8885 37.9501 70.8428 37.9114C70.797 37.8727 70.7446 37.8449 70.6887 37.8296C70.6329 37.8144 70.5748 37.8121 70.5182 37.8228C70.2948 37.8595 70.0745 37.9158 69.8591 37.9912Z" fill="#9DC6C6"/>
<path id="Vector_30" d="M59.3095 34.2371L59.1881 34.7633C59.1257 35.0336 59.2719 35.309 59.5148 35.3784L64.1769 36.7115C64.4197 36.7809 64.6672 36.6181 64.7296 36.3479L64.8511 35.8217C64.9135 35.5514 64.7672 35.276 64.5243 35.2066L59.8623 33.8735C59.6194 33.8041 59.3719 33.9669 59.3095 34.2371Z" fill="black"/>
<path id="Vector_31" d="M45.3717 71.6744C45.1595 72.145 44.9957 72.6407 44.8836 73.1522C44.8226 73.4094 44.8089 73.6776 44.8433 73.9409C44.8777 74.2041 44.9595 74.4569 45.0837 74.6842C45.5719 75.5209 46.6654 75.5426 47.5734 75.4774L48.9062 75.385C49.4725 75.3416 50.1364 75.2383 50.4196 74.6896C50.7027 74.1409 50.4977 73.6031 50.3561 73.0598C50.019 71.8276 49.8543 70.5449 49.8679 69.2569C49.8989 68.8778 49.8624 68.4956 49.7605 68.1323C49.6589 67.8923 49.5093 67.6813 49.3232 67.5156C49.137 67.3499 48.9192 67.2337 48.6865 67.1761C47.6467 66.861 46.8607 66.8882 46.5776 67.9965C46.2623 69.2555 45.8591 70.4853 45.3717 71.6744Z" fill="#191213"/>
<path id="Vector_32" d="M48.9112 54.4798C49.1619 54.7421 49.3512 55.0684 49.4628 55.4306C49.5224 55.7797 49.4954 56.1403 49.3847 56.4737C48.9893 57.9677 48.1106 59.3204 48.0325 60.8742C48.0456 61.3421 48.0292 61.8105 47.9836 62.2759C47.8669 62.7855 47.6721 63.2688 47.4076 63.7047L46.4312 65.4866C46.203 65.8331 46.0722 66.2472 46.0553 66.6764C46.0992 67.4859 46.8901 67.9477 47.5784 68.203C47.9739 68.3497 48.4767 68.4583 48.7696 68.1215C48.878 67.9728 48.9578 67.8008 49.0039 67.6163C50.1951 63.6685 51.3895 59.7225 52.5872 55.7783C52.885 54.7895 53.1828 53.7029 52.8557 52.7305C52.4896 51.6439 51.4888 51.0626 50.5612 50.5574L47.9836 49.1503C47.2318 48.7374 46.2115 48.3788 45.6599 49.0797C44.8886 50.0576 45.6599 50.8616 46.2603 51.3832C47.2562 52.1926 48.091 53.4856 48.9112 54.4798Z" fill="#2E4C5E"/>
<path id="Vector_33" d="M47.1439 72.0275C46.7844 72.8394 46.6069 73.7359 46.6265 74.6407C46.6314 74.8409 46.6987 75.0329 46.8168 75.184C46.9331 75.2882 47.0706 75.3591 47.2172 75.3904C49.7378 76.1351 52.3755 76.2483 54.9402 75.7218C55.3167 75.678 55.6774 75.5305 55.9898 75.2926C56.1401 75.1728 56.2526 75.0033 56.3114 74.8083C56.3701 74.6132 56.372 74.4025 56.3169 74.2061C56.1314 73.7334 55.5895 73.6194 55.1257 73.565C54.2978 73.5052 53.4884 73.2652 52.7434 72.8588C52.3747 72.6526 52.0599 72.3445 51.8291 71.964C51.5983 71.5834 51.4592 71.1432 51.4253 70.6857C51.4253 69.9848 51.6938 69.1373 51.2203 68.6755C50.9724 68.4861 50.6762 68.3909 50.3757 68.4039C49.3993 68.3333 48.8623 68.0942 48.2619 68.9037C47.7298 69.5774 47.4466 71.1692 47.1439 72.0275Z" fill="#281B1C"/>
<path id="Vector_34" d="M34.4999 25.8817C32.3666 30.3475 31.2877 35.313 30.2283 40.2405C30.1041 40.6684 30.0773 41.1239 30.1502 41.5661C30.1933 41.7841 30.3063 41.9771 30.4681 42.1091C30.6298 42.2411 30.8292 42.303 31.029 42.2833C31.029 42.7016 31.029 43.1253 31.029 43.5491C31.3172 43.9615 31.6826 44.299 32.1 44.5383C32.5173 44.7775 32.9764 44.9127 33.4455 44.9345C34.3831 44.9749 35.321 44.8595 36.2281 44.5922L42.1986 43.1905C42.6055 43.1546 42.9885 42.9626 43.2824 42.6473C43.5362 42.2941 43.4435 41.6259 43.0432 41.5607C44.4491 41.2782 45.0398 39.4365 45.3669 37.8881C45.694 36.3398 46.026 34.7697 46.3775 33.1942C46.9806 30.7462 47.3423 28.2323 47.4563 25.697C47.4563 23.8173 47.3148 21.6768 48.5108 20.3512C48.8818 19.9383 49.3798 19.6177 49.5653 19.069C49.8484 18.2324 49.2626 17.3631 48.7159 16.7004L46.5483 14.1252C46.4508 13.9686 46.3017 13.8612 46.1334 13.8264C46.0359 13.8372 45.9418 13.8714 45.8575 13.9268C45.7732 13.9821 45.7007 14.0573 45.6452 14.1469C44.8059 15.2158 43.7637 16.0638 42.594 16.6297C41.3997 17.2901 40.2858 18.1171 39.2793 19.0908C37.4339 20.851 35.4128 23.3609 34.4999 25.8817Z" fill="#50429B"/>
<path id="Vector_35" d="M38.3078 29.2229C38.0198 32.0207 38.6349 35.0848 40.4997 36.9863C41.8061 38.2243 43.4315 38.9699 45.1424 39.1159C46.8406 39.2543 48.5472 39.1942 50.2341 38.9367L50.5514 38.2902L51.7621 38.7628L52.2015 38.1761C52.282 38.4131 52.4377 38.6091 52.6391 38.7272C52.8405 38.8453 53.0738 38.8773 53.295 38.8171C53.4301 37.5151 53.7705 36.2498 54.3007 35.0794C51.2251 34.4057 48.1105 33.7103 45.2986 32.162C44.8829 31.8514 44.3784 31.7237 43.8828 31.8034C44.255 29.5209 44.3551 27.1937 44.1806 24.8821C44.0976 23.7955 43.9317 22.6329 43.297 21.7854C40.3191 17.814 38.4933 27.392 38.3078 29.2229Z" fill="#50429B"/>
<path id="Vector_36" d="M44.3418 23.4532C44.2824 22.9159 44.1542 22.3909 43.961 21.894C43.7413 21.3834 43.258 20.9053 42.7796 21.0791C42.1938 21.2964 42.1791 22.1983 42.2914 22.8719C42.5746 24.8422 42.861 26.8161 43.1506 28.7937C43.3556 30.1953 43.5607 31.6676 43.1506 33.0095L43.961 32.9226L44.0196 33.9168C46.1142 34.5964 48.2649 35.0405 50.4392 35.2424C50.3953 34.3514 49.4042 33.9982 48.6231 33.7972C47.6664 33.5709 46.7373 33.219 45.8551 32.7487C44.786 32.1457 44.9227 31.9284 44.9081 30.5756C44.8836 28.1888 44.6943 25.8077 44.3418 23.4532Z" fill="#371A45"/>
<path id="Vector_37" d="M47.5393 20.1663C48.0102 19.7932 48.4396 19.3592 48.8184 18.8733L47.6907 17.3032C47.6389 17.2183 47.5705 17.1477 47.4905 17.0968C47.4075 17.0613 47.3171 17.0538 47.2303 17.075C47.1435 17.0963 47.0642 17.1454 47.0023 17.2163C46.8431 17.3981 46.737 17.6292 46.6978 17.8793C46.6586 18.1294 46.6881 18.3869 46.7826 18.6179C46.9789 19.0767 47.2581 19.4854 47.6028 19.8186" fill="#371A45"/>
<path id="Vector_38" d="M43.1555 41.2293C42.7251 41.5491 42.2011 41.6735 41.6909 41.577C41.4386 41.588 41.188 41.5262 40.9635 41.3977C40.8493 41.3345 40.7619 41.224 40.7199 41.09C40.678 40.956 40.6848 40.809 40.739 40.6805C40.8159 40.5789 40.9138 40.4997 41.0244 40.4495C41.1349 40.3994 41.2548 40.3798 41.3736 40.3926C41.7171 40.3951 42.0592 40.3421 42.389 40.2351C42.5538 40.1788 42.7034 40.0779 42.8244 39.9413C42.9454 39.8047 43.034 39.6369 43.0822 39.4527C43.1521 39.4201 43.2273 39.4039 43.3031 39.4054C43.3789 39.4068 43.4536 39.4257 43.5225 39.461C43.5913 39.4962 43.6528 39.547 43.7031 39.6101C43.7534 39.6732 43.7913 39.7473 43.8145 39.8276C43.8528 39.9938 43.8518 40.1682 43.8116 40.3339C43.7714 40.4995 43.6934 40.6508 43.5851 40.7729C43.3652 41.0142 43.1091 41.211 42.8284 41.3542" fill="#371A45"/>
<path id="Vector_39" d="M33.5822 47.8353C34.9101 48.6883 36.4771 48.9219 37.9759 49.0958L43.0579 49.7531C45.4011 50.0519 48.0129 50.5137 49.4433 52.5999C49.5615 52.8437 49.7509 53.0354 49.9803 53.1432C50.2469 53.1572 50.5124 53.0955 50.7516 52.9639C51.0055 52.877 51.3716 52.9639 51.396 53.2627C51.2613 53.3998 51.1551 53.5682 51.0851 53.7559C51.0151 53.9437 50.9829 54.1462 50.9908 54.3492L51.5669 54.2406C51.585 54.5057 51.555 54.7722 51.4787 55.0242C51.4024 55.2762 51.2813 55.5086 51.1227 55.7074C50.3172 57.1157 49.8251 58.7174 49.6874 60.3796C49.5946 61.5585 49.6874 62.8189 49.1113 63.824C48.8624 64.2803 48.5011 64.6552 48.2424 65.1061C47.9866 65.5519 47.8453 66.0671 47.8336 66.5959C47.8219 67.1246 47.9404 67.6469 48.1761 68.1062C48.4119 68.5654 48.756 68.9442 49.1712 69.2016C49.5864 69.459 50.057 69.5851 50.5319 69.5664C52.0258 69.4252 53.0314 67.8442 53.754 66.3774C56.0238 61.9321 57.4977 57.0393 58.0939 51.9697C58.2241 51.1337 58.1942 50.2765 58.006 49.4543C57.4886 47.6289 55.7311 46.6782 54.1299 45.9719C51.4383 44.7767 48.6915 43.7046 45.8893 42.7557C45.1372 42.478 44.3593 42.2958 43.5704 42.2124C42.8631 42.19 42.1555 42.2409 41.4566 42.3645L33.3967 43.5217C32.147 43.7064 31.1413 43.4783 31.5855 45.1842C31.9287 46.3153 32.6414 47.2616 33.5822 47.8353Z" fill="#3D5E77"/>
<path id="Vector_40" d="M51.7475 47.5529C52.562 47.8398 53.3205 48.2951 53.9834 48.8948C55.4821 50.4703 55.3552 53.1813 54.7108 55.3652C54.0664 57.5492 53.0168 59.6571 53.0315 61.9552C53.339 62.2594 53.7735 61.8031 53.9639 61.4119C55.3644 58.4553 56.2678 55.2388 56.6294 51.9208C56.7975 51.055 56.6977 50.1514 56.3462 49.3566C55.9338 48.7478 55.3754 48.2808 54.7352 48.0093C51.6157 46.3142 47.6614 43.9347 44.1807 43.5164C44.083 45.2385 50.4246 46.9933 51.7475 47.5529Z" fill="#4A6D82"/>
<path id="Vector_41" d="M56.0239 38.339C56.3341 38.3602 56.6455 38.3402 56.9515 38.2792C58.1036 37.975 58.7529 36.5027 59.8806 36.1387C59.9509 36.1177 60.025 36.1177 60.0954 36.1387C60.1968 36.1716 60.2858 36.2403 60.3492 36.3343C60.5149 36.5783 60.7048 36.8007 60.9155 36.9971C61.0203 37.0967 61.1478 37.1622 61.284 37.1861C61.4201 37.2101 61.5595 37.1917 61.6868 37.1329C61.747 37.0989 61.799 37.0496 61.8388 36.9891C61.8787 36.9285 61.9051 36.8583 61.916 36.7843C61.927 36.7102 61.9221 36.6343 61.9018 36.5628C61.8815 36.4912 61.8463 36.426 61.7991 36.3723C61.8561 36.502 61.957 36.6012 62.0797 36.6481C62.2024 36.6949 62.3368 36.6856 62.4533 36.6222C62.5698 36.5588 62.6589 36.4465 62.7011 36.31C62.7432 36.1735 62.7348 36.0239 62.6779 35.8943C62.7364 35.9978 62.8221 36.0788 62.9234 36.1265C63.0247 36.1741 63.1366 36.1859 63.2441 36.1605C63.3507 36.131 63.4467 36.0665 63.5199 35.9754C63.593 35.8843 63.6398 35.7709 63.6542 35.6498C63.6835 35.2912 63.4248 34.9924 63.21 34.7262C62.8975 34.335 62.6339 33.895 62.3068 33.5201C61.9952 33.1184 61.5667 32.8511 61.0961 32.765C60.722 32.7433 60.3482 32.8157 60.0026 32.9769C59.207 33.2798 58.4375 33.6616 57.7033 34.1177C57.1334 34.5173 56.5433 34.88 55.936 35.2043C55.3272 35.5214 54.6459 35.6238 53.9833 35.4977C53.5781 35.3944 53.0069 37.8175 53.1778 38.1597C53.3487 38.502 54.0761 38.3281 54.3787 38.339H56.0239Z" fill="#EDB38C"/>
<path id="Vector_42" d="M58.3917 10.1971C58.6846 10.7404 59.3681 10.9143 59.5878 11.4793C59.1824 11.6575 58.8159 11.93 58.5129 12.2785C58.2098 12.627 57.9771 13.0436 57.8303 13.5003C57.4886 14.5868 57.6253 15.9178 56.9223 16.7599C56.2876 17.5151 55.2136 17.564 54.3105 17.3032C53.4073 17.0424 52.5579 16.5806 51.6304 16.472C51.0531 16.4105 50.4708 16.4943 49.9266 16.7172C49.3824 16.94 48.8902 17.2963 48.4865 17.7595C48.3009 17.9823 48.0813 18.2431 47.8176 18.1887C47.6371 18.128 47.4848 17.9917 47.3929 17.8084L46.0602 15.8146C46.7015 15.0314 47.0507 14.0057 47.0365 12.9461C47.0365 12.1366 46.7973 11.3434 46.7485 10.534C46.5679 7.57311 48.8672 4.94365 51.4546 4.24282C53.4757 3.69954 56.8735 3.92228 58.6212 5.32937C60.3689 6.73646 57.4739 8.551 58.3917 10.1971Z" fill="#EDB38C"/>
<path id="Vector_43" d="M56.6879 7.02991C56.81 7.38304 56.3657 7.64925 56.024 7.64381C55.3601 7.64381 54.7206 7.35588 54.0713 7.29068C53.422 7.22549 52.6067 7.49713 52.4114 8.19796C52.3289 8.68509 52.3472 9.18676 52.4651 9.6648C52.5237 10.1538 52.4163 10.7514 51.977 10.9415C51.6108 10.3982 51.7377 9.57788 51.2935 9.14326C51.0789 8.99731 50.8323 8.92009 50.5808 8.92009C50.3292 8.92009 50.0826 8.99731 49.868 9.14326C49.4618 9.30112 49.117 9.61004 48.8916 10.0179C48.4523 10.9958 49.2578 12.191 48.9307 13.2776C48.8082 13.5955 48.6308 13.8835 48.4083 14.1251C48.1492 14.4724 47.8263 14.754 47.4613 14.9509C47.2781 15.0476 47.0741 15.0846 46.8728 15.0577C46.6715 15.0308 46.4812 14.941 46.3238 14.7988C45.8356 14.2827 46.1041 13.3645 45.9772 12.6257C45.8503 11.8868 45.24 11.224 45.1082 10.4526C45.0628 10.0114 45.096 9.56467 45.2058 9.13782C45.393 8.01762 45.7425 6.93873 46.2408 5.94336C47.1683 4.3657 48.5958 3.23483 50.239 2.77605C51.872 2.32906 53.5727 2.28272 55.2234 2.64023C55.9504 2.74318 56.654 2.99556 57.2982 3.38452C58.0353 3.87347 58.709 4.69382 59.5633 4.60689C59.3327 4.83938 59.0596 5.01359 58.7627 5.11758C59.1605 5.32051 59.5175 5.6106 59.8123 5.97052C59.7526 6.0727 59.6718 6.15756 59.5768 6.21803C59.4817 6.2785 59.375 6.31285 59.2655 6.31822C59.3285 6.42363 59.3674 6.54459 59.3789 6.67055C59.3903 6.79652 59.3738 6.92368 59.331 7.04096C59.2882 7.15825 59.2202 7.26211 59.1331 7.34351C59.046 7.42491 58.9423 7.48137 58.8311 7.50799C58.4698 7.55146 58.0646 7.1114 57.6936 7.05164C57.7863 7.10597 57.884 7.24179 57.9767 7.30698C57.7424 7.36131 56.8149 7.39391 56.6879 7.02991Z" fill="#9E5E32"/>
<path id="Vector_44" d="M50.8346 11.588C50.8346 11.6369 50.7711 11.6587 50.732 11.6369C50.6998 11.6014 50.6777 11.556 50.6686 11.5066C50.6116 11.3323 50.6031 11.143 50.6442 10.9633C50.6566 10.9185 50.6773 10.877 50.7049 10.8416C50.7326 10.8062 50.7665 10.7776 50.8047 10.7577C50.8428 10.7377 50.8843 10.7269 50.9264 10.7258C50.9686 10.7247 51.0104 10.7334 51.0494 10.7514C51.1218 10.5946 51.1441 10.415 51.1127 10.2421C51.0812 10.0693 50.9979 9.9135 50.8764 9.80036C50.7548 9.68722 50.6023 9.62347 50.4439 9.61957C50.2855 9.61568 50.1306 9.67188 50.0046 9.77894C49.818 9.94939 49.6819 10.1785 49.6141 10.4363C49.5298 10.638 49.4993 10.8624 49.5262 11.0828C49.5741 11.2572 49.6521 11.4196 49.7557 11.5609L50.0925 12.077C50.1999 12.2454 50.3366 12.4247 50.5172 12.4301C50.6093 12.4225 50.6963 12.3801 50.7638 12.31C50.8312 12.2398 50.8752 12.1461 50.8883 12.0444C50.9091 11.8388 50.8804 11.6306 50.8053 11.4414" fill="#C19272"/>
<path id="Vector_45" d="M57.8254 10.8654C58.1092 10.6758 58.4369 10.5832 58.7676 10.5992C59.0117 10.6701 59.2252 10.8352 59.3701 11.0651C59.5149 11.2949 59.5817 11.5746 59.5584 11.8541C59.4892 12.4036 59.3034 12.9269 59.0166 13.3807C58.5821 14.1902 58.1476 15.0106 57.7033 15.8092C57.4425 16.376 57.0643 16.8657 56.6001 17.238C56.2856 17.426 55.9386 17.5368 55.5824 17.5631C55.2262 17.5893 54.869 17.5304 54.535 17.3901C53.871 17.1089 53.2477 16.7209 52.6848 16.2384C52.6848 15.8092 53.0851 15.5484 53.3487 15.2388C53.5798 14.916 53.7468 14.5423 53.8385 14.1424C53.9302 13.7425 53.9447 13.3255 53.8809 12.919C53.7686 11.6368 54.4325 11.9465 55.3454 11.7509C56.2022 11.5729 57.0355 11.2754 57.8254 10.8654Z" fill="#CEEAE8"/>
<path id="Vector_46" d="M51.6693 10.3711C52.531 11.0762 53.4328 11.7186 54.369 12.2943C54.5155 12.3866 54.6521 12.1313 54.5008 12.0444C53.5635 11.4688 52.6616 10.8245 51.8012 10.1157C51.6645 10.0071 51.5326 10.2624 51.6693 10.3711Z" fill="#CEEAE8"/>
<path id="Vector_47" d="M48.877 13.0386C50.3058 14.1252 51.7085 15.2371 53.0852 16.3744C53.2218 16.4884 53.3537 16.2331 53.217 16.119C51.8403 14.9673 50.4376 13.8554 49.0088 12.7833C48.8672 12.6583 48.7354 12.9137 48.877 13.0386Z" fill="#CEEAE8"/>
<path id="Vector_48" d="M54.5936 13.7394C54.5792 13.4454 54.6365 13.1525 54.7596 12.8919C54.9681 12.6486 55.2458 12.4931 55.5456 12.4518C56.0576 12.2904 56.5496 12.0587 57.0101 11.7619C57.0879 11.6987 57.1784 11.6577 57.2738 11.6423C57.4934 11.6423 57.6448 11.914 57.6301 12.1584C57.5909 12.3983 57.5132 12.6283 57.4007 12.8375V12.9679C57.4007 13.0168 57.4544 13.044 57.4886 13.082C57.5591 13.1788 57.5976 13.2996 57.5976 13.4243C57.5976 13.5489 57.5591 13.6698 57.4886 13.7665C57.4131 13.8601 57.3215 13.9357 57.2191 13.9889C57.1168 14.0421 57.0059 14.0718 56.893 14.0762C56.7465 14.0762 56.5659 14.0762 56.4927 14.2392C56.4667 14.3116 56.455 14.3895 56.4585 14.4674C56.4418 14.8481 56.3149 15.2125 56.0966 15.5063C55.8784 15.8001 55.5806 16.0074 55.2478 16.0972C55.2958 16.2526 55.3173 16.4166 55.3113 16.5807C55.313 16.6114 55.3091 16.6421 55.2998 16.671C55.2906 16.7 55.2762 16.7265 55.2576 16.7491C55.1892 16.8143 55.0818 16.7491 55.0037 16.722C54.5155 16.4232 53.8028 16.2656 53.9736 15.5594C54.1445 14.8531 54.5936 14.4674 54.5936 13.7394Z" fill="#B7CECC"/>
<path id="Vector_49" d="M49.9168 12.5496C50.1432 12.5508 50.3664 12.4892 50.5661 12.3703C50.7489 12.2234 50.895 12.0271 50.9908 11.7999C51.5131 10.7133 51.6401 9.31168 52.387 8.43157C53.2999 7.34502 54.7351 7.50257 55.9995 7.50257C57.0115 7.50273 58.0196 7.3659 59.0019 7.09511C59.1882 7.05932 59.365 6.97765 59.5193 6.85607C59.6487 6.71557 59.7495 6.54595 59.8152 6.35857C59.8809 6.17118 59.9098 5.97035 59.9001 5.76951C59.9441 4.25377 58.9872 2.97164 57.9474 2.11869C56.1868 0.632911 54.0131 -0.117044 51.806 -8.83527e-05C49.5841 0.163823 47.4822 1.18162 45.86 2.87928C44.9197 3.77805 44.2571 4.98295 43.9658 6.32366C43.8413 7.18556 43.8413 8.06405 43.9658 8.92595C44.02 9.68753 44.1849 10.4343 44.454 11.1371C45.5134 13.4786 48.1447 12.7017 49.9168 12.5496Z" fill="#50429B"/>
<path id="Vector_50" d="M50.5221 16.3581V16.4993L50.4391 16.5754C50.2823 16.6619 50.1189 16.7328 49.9509 16.7873C49.5539 15.4841 49.2886 14.1356 49.1601 12.767C49.1284 12.6261 49.1284 12.4787 49.1601 12.3378C49.2431 12.1042 49.7459 11.7946 49.9412 11.9901C50.0583 12.1151 49.9412 13.2397 49.9412 13.457C50.0042 14.4508 50.2 15.4286 50.5221 16.3581Z" fill="#681616"/>
<path id="Vector_51" d="M55.7994 8.96408C56.2784 8.6968 56.8118 8.57321 57.3469 8.60552C57.6057 8.60552 57.879 8.52403 57.8888 8.1872V8.1546C57.7158 8.14935 57.5427 8.16025 57.3713 8.1872C57.1553 8.16551 56.938 8.16551 56.7221 8.1872C56.3255 8.24291 55.9635 8.4667 55.7115 8.81197C55.6529 8.92062 55.731 9.00211 55.7994 8.96408Z" fill="#4C3729"/>
<path id="Vector_52" d="M55.9312 9.83856C56.271 9.66153 56.6398 9.56356 57.0149 9.55062C57.2053 9.51803 57.4299 9.48543 57.5324 9.27898C57.5385 9.26936 57.5416 9.2578 57.5413 9.24604C57.541 9.23427 57.5372 9.22294 57.5306 9.21375C57.524 9.20456 57.5149 9.198 57.5047 9.19507C57.4944 9.19214 57.4836 9.19299 57.4738 9.19749C57.3469 9.23552 57.2395 9.31701 57.1126 9.36048C56.9856 9.40394 56.8343 9.42567 56.6927 9.4637C56.421 9.53731 56.162 9.66029 55.9263 9.82769L55.9312 9.83856Z" fill="#4C3729"/>
<path id="Vector_53" d="M56.8246 9.5019C56.7953 9.63228 56.7172 9.95825 56.9076 9.99628C57.098 10.0343 57.1175 9.68661 57.0931 9.54536L57.0199 9.46387L56.9369 9.5019V9.61055V9.69204V9.77897L56.9613 9.73007V9.65945C56.9613 9.60512 56.9613 9.54536 56.932 9.49103L56.8246 9.5019Z" fill="#4C3729"/>
<path id="Vector_54" d="M56.3949 9.99629C56.533 10.0829 56.6908 10.1226 56.8489 10.1104C56.9661 10.1104 57.1467 10.0723 57.2053 9.93653L57.1809 9.89307C57.0792 9.9156 56.9795 9.94833 56.8831 9.99086C56.7293 10.0215 56.5708 9.9987 56.4291 9.92566C56.4207 9.92062 56.4108 9.9195 56.4017 9.92256C56.3925 9.92562 56.3848 9.9326 56.3803 9.94196C56.3758 9.95133 56.3748 9.96231 56.3775 9.9725C56.3802 9.98269 56.3865 9.99125 56.3949 9.99629Z" fill="#4C3729"/>
<path id="Vector_55" d="M56.7172 10.3222C56.7885 10.3309 56.8604 10.3138 56.9222 10.2733V10.2026C56.8588 10.2026 56.8002 10.2026 56.7367 10.2026C56.7225 10.1998 56.7078 10.2033 56.6959 10.2125C56.684 10.2216 56.6758 10.2357 56.6732 10.2515C56.6707 10.2674 56.6738 10.2837 56.6821 10.297C56.6903 10.3102 56.7029 10.3193 56.7172 10.3222Z" fill="#4C3729"/>
</g>
</svg>
