<svg width="17" height="79" viewBox="0 0 17 79" fill="none" xmlns="http://www.w3.org/2000/svg">
<path fill-rule="evenodd" clip-rule="evenodd" d="M17 0.5C17 0.223858 16.7761 1.65958e-09 16.5 1.63226e-09V1.63226e-09C16.2239 1.60494e-09 16 0.223857 16 0.5L16 11.521C16 16.3912 12.7123 20.6475 8 21.8777V21.8777C3.28773 23.108 -2.707e-09 27.3642 -3.18878e-09 32.2344L-4.8897e-09 49.4285C-5.37149e-09 54.2987 3.28773 58.555 8 59.7852L8.7783 59.9884C13.0321 61.0989 16 64.9411 16 69.3375L16 78.5C16 78.7761 16.2239 79 16.5 79V79C16.7761 79 17 78.7761 17 78.5L17 62.1348L17 19.5281L17 0.5Z" fill="#E9E5FF" fill-opacity="0.5"/>
<line x1="10.5" y1="30.1798" x2="10.5" y2="51.4832" stroke="#50429B"/>
</svg>
