<svg width="17" height="79" viewBox="0 0 17 79" fill="none" xmlns="http://www.w3.org/2000/svg">
<path fill-rule="evenodd" clip-rule="evenodd" d="M0 78.5C0 78.7761 0.223858 79 0.5 79V79C0.776142 79 1 78.7761 1 78.5L1 70.2517C1 66.3709 3.55669 62.9539 7.27981 61.8589L9 61.353C13.743 59.958 17 55.605 17 50.6612L17 29.3389C17 24.395 13.743 20.0421 9 18.6471L7.69044 18.2619C3.72387 17.0953 1 13.4549 1 9.32032L1 0.5C1 0.223858 0.776142 0 0.5 0V0C0.223858 0 0 0.223858 0 0.5L0 16L0 64L0 78.5Z" fill="#E9E5FF" fill-opacity="0.5"/>
<line x1="8.01172" y1="27.6255" x2="8.01172" y2="51.6255" stroke="#50429B"/>
</svg>
