<svg width="25" height="24" viewBox="0 0 25 24" fill="none" xmlns="http://www.w3.org/2000/svg">
<g clip-path="url(#clip0_312_46536)">
<path d="M12.5 24.0001C19.1275 24.0001 24.5001 18.6275 24.5001 12C24.5001 5.3726 19.1275 0 12.5 0C5.8726 0 0.5 5.3726 0.5 12C0.5 18.6275 5.8726 24.0001 12.5 24.0001Z" fill="#E24C4B"/>
<path d="M24.5 12C24.5 18.6 19.1 24 12.5 24C8.67503 24 5.30003 22.275 3.125 19.5C5.15 21.15 7.77501 22.125 10.625 22.125C17.225 22.125 22.625 16.725 22.625 10.125C22.625 7.27501 21.65 4.65 20 2.625C22.775 4.79992 24.5 8.17493 24.5 12Z" fill="#D1403F"/>
<path d="M19.0249 8.55084L11.2249 17.1009C10.6999 17.7009 9.79993 17.7009 9.27491 17.1009L5.97489 13.4259C5.52491 12.9008 5.52491 12.0759 6.04988 11.5508C6.57491 11.1009 7.39988 11.1009 7.92491 11.6258L10.2499 14.2508L17.0749 6.82584C17.5999 6.30082 18.4249 6.22583 18.9499 6.75085C19.4749 7.20084 19.4749 8.10085 19.0249 8.55084Z" fill="white"/>
</g>
<defs>
<clipPath id="clip0_312_46536">
<rect width="24" height="24" fill="white" transform="translate(0.5)"/>
</clipPath>
</defs>
</svg>
