<svg width="25" height="24" viewBox="0 0 25 24" fill="none" xmlns="http://www.w3.org/2000/svg">
<g clip-path="url(#clip0_312_46529)">
<path d="M12.5 24.0001C19.1275 24.0001 24.5001 18.6275 24.5001 12C24.5001 5.3726 19.1275 0 12.5 0C5.8726 0 0.5 5.3726 0.5 12C0.5 18.6275 5.8726 24.0001 12.5 24.0001Z" fill="#50429B"/>
<path d="M24.5 12C24.5 18.6 19.1 24 12.5 24C8.67503 24 5.30003 22.275 3.125 19.5C5.15 21.15 7.77501 22.125 10.625 22.125C17.225 22.125 22.625 16.725 22.625 10.125C22.625 7.27501 21.65 4.65 20 2.625C22.775 4.79992 24.5 8.17493 24.5 12Z" fill="#2B2162"/>
<path d="M17.2602 9.54737L11.5699 15.6774C11.1868 16.1075 10.5303 16.1075 10.1472 15.6774L7.73977 13.0426C7.41149 12.6661 7.41149 12.0747 7.79447 11.6982C8.1775 11.3756 8.77935 11.3756 9.16237 11.752L10.8585 13.634L15.8376 8.31063C16.2207 7.93421 16.8225 7.88045 17.2055 8.25687C17.5885 8.57948 17.5885 9.22476 17.2602 9.54737Z" fill="white"/>
</g>
<defs>
<clipPath id="clip0_312_46529">
<rect width="24" height="24" fill="white" transform="translate(0.5)"/>
</clipPath>
</defs>
</svg>
