<svg width="24" height="24" viewBox="0 0 24 24" fill="none" xmlns="http://www.w3.org/2000/svg">
<path d="M21.4502 8.757C19.3385 8.757 18.4752 7.26367 19.5252 5.432C20.1318 4.37033 19.7702 3.017 18.7085 2.41033L16.6902 1.25533C15.7685 0.706999 14.5785 1.03367 14.0302 1.95533L13.9018 2.177C12.8518 4.00867 11.1252 4.00867 10.0635 2.177L9.93516 1.95533C9.41016 1.03367 8.22016 0.706999 7.2985 1.25533L5.28016 2.41033C4.2185 3.017 3.85683 4.382 4.4635 5.44367C5.52516 7.26367 4.66183 8.757 2.55016 8.757C1.33683 8.757 0.333496 9.74866 0.333496 10.9737V13.027C0.333496 14.2403 1.32516 15.2437 2.55016 15.2437C4.66183 15.2437 5.52516 16.737 4.4635 18.5687C3.85683 19.6303 4.2185 20.9837 5.28016 21.5903L7.2985 22.7453C8.22016 23.2937 9.41016 22.967 9.9585 22.0453L10.0868 21.8237C11.1368 19.992 12.8635 19.992 13.9252 21.8237L14.0535 22.0453C14.6018 22.967 15.7918 23.2937 16.7135 22.7453L18.7318 21.5903C19.7935 20.9837 20.1552 19.6187 19.5485 18.5687C18.4868 16.737 19.3502 15.2437 21.4618 15.2437C22.6752 15.2437 23.6785 14.252 23.6785 13.027V10.9737C23.6668 9.76033 22.6752 8.757 21.4502 8.757ZM12.0002 15.792C9.91183 15.792 8.2085 14.0887 8.2085 12.0003C8.2085 9.912 9.91183 8.20867 12.0002 8.20867C14.0885 8.20867 15.7918 9.912 15.7918 12.0003C15.7918 14.0887 14.0885 15.792 12.0002 15.792Z" fill="#50429B"/>
</svg>
