<svg width="24" height="24" viewBox="0 0 24 24" fill="none" xmlns="http://www.w3.org/2000/svg">
<g clip-path="url(#clip0_10141_508548)">
<path d="M15.0469 0.351562H4.73438C4.21661 0.351562 3.79688 0.771296 3.79688 1.28906V22.7109C3.79688 23.2287 4.21661 23.6484 4.73438 23.6484H15.0469C15.5646 23.6484 15.9844 23.2287 15.9844 22.7109V1.28906C15.9844 0.771296 15.5646 0.351562 15.0469 0.351562Z" fill="#FAF7F5"/>
<path d="M15.9844 22.7109V21.3047H3.79688V22.7109C3.79688 22.9596 3.89565 23.198 4.07146 23.3739C4.24728 23.5497 4.48573 23.6484 4.73438 23.6484H15.0469C15.2955 23.6484 15.534 23.5497 15.7098 23.3739C15.8856 23.198 15.9844 22.9596 15.9844 22.7109Z" fill="#DBD6F9"/>
<path d="M11.5022 2.22656H8.27906C8.06992 2.22664 7.86677 2.15678 7.7019 2.0281C7.53704 1.89941 7.41994 1.7193 7.36922 1.51641L7.07812 0.351562H12.7031L12.412 1.51641C12.3613 1.7193 12.2442 1.89941 12.0793 2.0281C11.9145 2.15678 11.7113 2.22664 11.5022 2.22656Z" fill="#CDC6FF"/>
<path d="M19.2656 4.57031H6.60938C6.36073 4.57031 6.12228 4.66908 5.94646 4.8449C5.77065 5.02072 5.67188 5.25917 5.67188 5.50781V18.3441C5.6719 18.4752 5.7137 18.6029 5.79121 18.7086C5.86871 18.8144 5.9779 18.8927 6.10292 18.9322C6.22794 18.9717 6.36229 18.9703 6.48648 18.9283C6.61068 18.8862 6.71825 18.8057 6.79359 18.6984L8.48438 16.2891H19.2656C19.5143 16.2891 19.7527 16.1903 19.9285 16.0145C20.1044 15.8387 20.2031 15.6002 20.2031 15.3516V5.50781C20.2031 5.25917 20.1044 5.02072 19.9285 4.8449C19.7527 4.66908 19.5143 4.57031 19.2656 4.57031Z" fill="#FF8C21"/>
<path d="M9.49313 13.68L8.71875 10.1953H17.1562L16.3819 13.68C16.3357 13.8879 16.2201 14.0738 16.0541 14.2072C15.8881 14.3407 15.6817 14.4136 15.4688 14.4141H10.4062C10.1933 14.4136 9.98686 14.3407 9.8209 14.2072C9.65493 14.0738 9.53933 13.8879 9.49313 13.68Z" fill="#FAF7F5"/>
<path d="M18.0938 9.25781V10.1953H7.78125V9.25781C7.78125 9.13349 7.83064 9.01426 7.91854 8.92636C8.00645 8.83845 8.12568 8.78906 8.25 8.78906H17.625C17.7493 8.78906 17.8685 8.83845 17.9565 8.92636C18.0444 9.01426 18.0938 9.13349 18.0938 9.25781Z" fill="#CDC6FF"/>
<path d="M16.5293 8.78906H15.123L15.8965 6.85547C15.9449 6.73435 16.0286 6.63053 16.1366 6.55742C16.2447 6.48431 16.3721 6.44526 16.5026 6.44531C16.6093 6.44527 16.7144 6.47139 16.8087 6.52138C16.9029 6.57136 16.9835 6.64369 17.0434 6.73204C17.1033 6.82039 17.1405 6.92206 17.152 7.02815C17.1635 7.13425 17.1487 7.24153 17.1091 7.34063L16.5293 8.78906Z" fill="#FAF7F5"/>
<path d="M9.34523 8.78906H10.7515L9.97804 6.85547C9.92959 6.73435 9.84595 6.63053 9.73791 6.55742C9.62987 6.48431 9.5024 6.44526 9.37195 6.44531C9.26524 6.44527 9.16014 6.47139 9.06586 6.52138C8.97158 6.57136 8.89098 6.64369 8.83113 6.73204C8.77128 6.82039 8.73399 6.92206 8.72253 7.02815C8.71107 7.13425 8.72578 7.24153 8.76539 7.34063L9.34523 8.78906Z" fill="#FAF7F5"/>
<path d="M19.2656 4.21875H16.3359V1.28906C16.3354 0.947334 16.1995 0.619744 15.9578 0.378105C15.7162 0.136467 15.3886 0.000495978 15.0469 0L4.73438 0C4.39265 0.000495978 4.06506 0.136467 3.82342 0.378105C3.58178 0.619744 3.44581 0.947334 3.44531 1.28906V22.7109C3.44581 23.0527 3.58178 23.3803 3.82342 23.6219C4.06506 23.8635 4.39265 23.9995 4.73438 24H15.0469C15.3886 23.9995 15.7162 23.8635 15.9578 23.6219C16.1995 23.3803 16.3354 23.0527 16.3359 22.7109V16.6406H19.2656C19.6074 16.6401 19.9349 16.5042 20.1766 16.2625C20.4182 16.0209 20.5542 15.6933 20.5547 15.3516V5.50781C20.5542 5.16608 20.4182 4.83849 20.1766 4.59686C19.9349 4.35522 19.6074 4.21925 19.2656 4.21875ZM12.2527 0.703125L12.0708 1.43109C12.0392 1.55799 11.9661 1.67065 11.863 1.75112C11.76 1.83158 11.6329 1.87519 11.5022 1.875H8.27906C8.14831 1.87519 8.02126 1.83158 7.9182 1.75112C7.81514 1.67065 7.742 1.55799 7.71047 1.43109L7.52859 0.703125H12.2527ZM15.0469 23.2969H4.73438C4.57905 23.2966 4.43016 23.2348 4.32033 23.125C4.2105 23.0152 4.14869 22.8663 4.14844 22.7109V21.6562H15.6328V22.7109C15.6326 22.8663 15.5708 23.0152 15.4609 23.125C15.3511 23.2348 15.2022 23.2966 15.0469 23.2969ZM15.6328 20.9531H4.14844V1.28906C4.14869 1.13374 4.2105 0.984847 4.32033 0.875016C4.43016 0.765185 4.57905 0.703373 4.73438 0.703125H6.80344L7.02844 1.60172C7.09779 1.88082 7.25866 2.12864 7.48534 2.30563C7.71203 2.48261 7.99147 2.57855 8.27906 2.57812H11.5022C11.7898 2.57855 12.0692 2.48261 12.2959 2.30563C12.5226 2.12864 12.6835 1.88082 12.7528 1.60172L12.9778 0.703125H15.0469C15.2022 0.703373 15.3511 0.765185 15.4609 0.875016C15.5708 0.984847 15.6326 1.13374 15.6328 1.28906V4.21875H6.60938C6.26765 4.21925 5.94006 4.35522 5.69842 4.59686C5.45678 4.83849 5.32081 5.16608 5.32031 5.50781V18.3441C5.32031 18.5499 5.38591 18.7504 5.50759 18.9165C5.62926 19.0825 5.80069 19.2055 5.99699 19.2675C6.19329 19.3295 6.40425 19.3274 6.59925 19.2614C6.79424 19.1954 6.96313 19.069 7.08141 18.9005L8.66719 16.6406H15.6328V20.9531ZM19.8516 15.3516C19.8513 15.5069 19.7895 15.6558 19.6797 15.7656C19.5698 15.8754 19.4209 15.9373 19.2656 15.9375H6.89062C6.79738 15.9375 6.70796 15.9745 6.64203 16.0405C6.5761 16.1064 6.53906 16.1958 6.53906 16.2891C6.53906 16.3823 6.5761 16.4717 6.64203 16.5377C6.70796 16.6036 6.79738 16.6406 6.89062 16.6406H7.80797L6.50578 18.4964C6.47337 18.5425 6.42711 18.5771 6.37372 18.5951C6.32033 18.6132 6.26258 18.6138 6.20884 18.5968C6.1551 18.5798 6.10816 18.5462 6.07483 18.5007C6.04149 18.4553 6.02349 18.4004 6.02344 18.3441V5.50781C6.02369 5.35249 6.0855 5.2036 6.19533 5.09377C6.30516 4.98393 6.45405 4.92212 6.60938 4.92188H19.2656C19.4209 4.92212 19.5698 4.98393 19.6797 5.09377C19.7895 5.2036 19.8513 5.35249 19.8516 5.50781V15.3516Z" fill="#50429B"/>
<path d="M17.625 8.43748H17.0489L17.4375 7.47092C17.5308 7.22474 17.5237 6.95179 17.4178 6.71079C17.3118 6.46978 17.1155 6.28 16.8711 6.18226C16.6267 6.08452 16.3536 6.08664 16.1107 6.18817C15.8678 6.2897 15.6745 6.48252 15.5723 6.72514L14.8852 8.43748H10.9898L10.305 6.72514C10.2572 6.60107 10.1852 6.48773 10.0932 6.3917C10.0012 6.29567 9.89105 6.21886 9.76915 6.16572C9.64725 6.11258 9.51601 6.08417 9.38305 6.08215C9.25009 6.08012 9.11805 6.10451 8.99459 6.15391C8.87112 6.20331 8.7587 6.27673 8.66383 6.36991C8.56896 6.46309 8.49354 6.57418 8.44193 6.69674C8.39033 6.81929 8.36357 6.95088 8.36321 7.08385C8.36285 7.21683 8.3889 7.34855 8.43984 7.47139L8.82609 8.43748H8.25C8.03252 8.43773 7.82401 8.52424 7.67023 8.67802C7.51644 8.8318 7.42994 9.04031 7.42969 9.25779V10.1953C7.42969 10.2885 7.46673 10.378 7.53266 10.4439C7.59859 10.5098 7.68801 10.5469 7.78125 10.5469H8.4375L9.15094 13.7564C9.21322 14.0428 9.3718 14.2992 9.60023 14.4828C9.82867 14.6665 10.1131 14.7663 10.4062 14.7656H15.4688C15.7623 14.7669 16.0475 14.6674 16.2765 14.4837C16.5055 14.3 16.6645 14.0433 16.7269 13.7564L17.4375 10.5469H18.0938C18.187 10.5469 18.2764 10.5098 18.3423 10.4439C18.4083 10.378 18.4453 10.2885 18.4453 10.1953V9.25779C18.4451 9.04031 18.3586 8.8318 18.2048 8.67802C18.051 8.52424 17.8425 8.43773 17.625 8.43748ZM16.223 6.98436C16.2456 6.9285 16.2846 6.88075 16.3347 6.84731C16.3849 6.81387 16.4439 6.79629 16.5042 6.79686C16.5535 6.79665 16.6022 6.80856 16.6458 6.83153C16.6895 6.8545 16.7268 6.88783 16.7546 6.9286C16.7824 6.96937 16.7997 7.01633 16.8051 7.06536C16.8105 7.1144 16.8037 7.164 16.7855 7.20983L16.2914 8.43748H15.6427L16.223 6.98436ZM9.09375 7.20983C9.07549 7.164 9.06876 7.1144 9.07414 7.06536C9.07953 7.01633 9.09686 6.96937 9.12463 6.9286C9.15239 6.88783 9.18974 6.8545 9.2334 6.83153C9.27705 6.80856 9.32567 6.79665 9.375 6.79686C9.43528 6.79629 9.49433 6.81387 9.54449 6.84731C9.59465 6.88075 9.63359 6.9285 9.65625 6.98436L10.2366 8.43748H9.58359L9.09375 7.20983ZM16.0402 13.6036C16.0118 13.7339 15.9396 13.8506 15.8356 13.9341C15.7316 14.0176 15.6021 14.0629 15.4688 14.0625H10.4062C10.2728 14.0631 10.1432 14.0178 10.0391 13.9343C9.93498 13.8507 9.86272 13.734 9.83438 13.6036L9.15703 10.5469H16.718L16.0402 13.6036ZM17.7422 9.84373H8.13281V9.25779C8.13281 9.22671 8.14516 9.19691 8.16714 9.17493C8.18911 9.15295 8.21892 9.14061 8.25 9.14061H17.625C17.6561 9.14061 17.6859 9.15295 17.7079 9.17493C17.7298 9.19691 17.7422 9.22671 17.7422 9.25779V9.84373Z" fill="#50429B"/>
<path d="M11.2969 13.3594C11.3901 13.3594 11.4795 13.3223 11.5455 13.2564C11.6114 13.1905 11.6484 13.1011 11.6484 13.0078V11.6016C11.6484 11.5083 11.6114 11.4189 11.5455 11.353C11.4795 11.287 11.3901 11.25 11.2969 11.25C11.2036 11.25 11.1142 11.287 11.0483 11.353C10.9824 11.4189 10.9453 11.5083 10.9453 11.6016V13.0078C10.9453 13.1011 10.9824 13.1905 11.0483 13.2564C11.1142 13.3223 11.2036 13.3594 11.2969 13.3594Z" fill="#50429B"/>
<path d="M12.9375 13.3594C13.0307 13.3594 13.1202 13.3223 13.1861 13.2564C13.252 13.1905 13.2891 13.1011 13.2891 13.0078V11.6016C13.2891 11.5083 13.252 11.4189 13.1861 11.353C13.1202 11.287 13.0307 11.25 12.9375 11.25C12.8443 11.25 12.7548 11.287 12.6889 11.353C12.623 11.4189 12.5859 11.5083 12.5859 11.6016V13.0078C12.5859 13.1011 12.623 13.1905 12.6889 13.2564C12.7548 13.3223 12.8443 13.3594 12.9375 13.3594Z" fill="#50429B"/>
<path d="M14.5781 13.3594C14.6714 13.3594 14.7608 13.3223 14.8267 13.2564C14.8926 13.1905 14.9297 13.1011 14.9297 13.0078V11.6016C14.9297 11.5083 14.8926 11.4189 14.8267 11.353C14.7608 11.287 14.6714 11.25 14.5781 11.25C14.4849 11.25 14.3955 11.287 14.3295 11.353C14.2636 11.4189 14.2266 11.5083 14.2266 11.6016V13.0078C14.2266 13.1011 14.2636 13.1905 14.3295 13.2564C14.3955 13.3223 14.4849 13.3594 14.5781 13.3594Z" fill="#50429B"/>
</g>
<defs>
<clipPath id="clip0_10141_508548">
<rect width="24" height="24" fill="white"/>
</clipPath>
</defs>
</svg>
