<svg width="24" height="24" viewBox="0 0 24 24" fill="none" xmlns="http://www.w3.org/2000/svg">
<path fill-rule="evenodd" clip-rule="evenodd" d="M19.7142 12.043H18.8571H17.9999H5.99993H5.14279H4.28565V17.1389L4.28565 17.1954C4.2856 17.9552 4.28557 18.6099 4.35605 19.1342C4.4316 19.6961 4.60195 20.2346 5.0388 20.6715C5.47566 21.1084 6.01424 21.2787 6.57611 21.3542C7.10039 21.4247 7.75509 21.4247 8.51493 21.4247L8.57136 21.4247H15.4285L15.4849 21.4247C16.2448 21.4247 16.8995 21.4247 17.4238 21.3542C17.9856 21.2787 18.5242 21.1084 18.9611 20.6715C19.3979 20.2346 19.5683 19.6961 19.6438 19.1342C19.7143 18.6099 19.7143 17.9552 19.7142 17.1954L19.7142 17.1389V12.043ZM8.57143 16.2857C8.57143 15.3389 9.33894 14.5714 10.2857 14.5714H13.7143C14.6611 14.5714 15.4286 15.3389 15.4286 16.2857V20.5714V21.4285H13.7143V20.5714V16.2857H10.2857V20.5714V21.4285H8.57143V20.5714V16.2857Z" fill="#50429B"/>
<path d="M5.03616 3.91542C5.17868 3.27114 5.24995 2.949 5.48507 2.7602C5.72019 2.57141 6.05012 2.57141 6.70998 2.57141H17.2903C17.9502 2.57141 18.2801 2.57141 18.5152 2.7602C18.7503 2.949 18.8216 3.27114 18.9641 3.91542L20.2268 9.62328C20.3307 10.0932 20.3827 10.3281 20.3396 10.5163C20.281 10.7719 20.1085 10.9867 19.8715 11.0992C19.6971 11.1819 19.4565 11.1819 18.9753 11.1819C18.2827 11.1819 17.9365 11.1819 17.6497 11.0763C17.2601 10.9328 16.9358 10.6529 16.737 10.2884C16.5907 10.0201 16.5402 9.6775 16.4391 8.99237L16.4201 8.86344C16.3835 8.61485 16.3651 8.49055 16.3338 8.4694C16.3048 8.44987 16.2669 8.44987 16.2379 8.4694C16.2066 8.49055 16.1882 8.61485 16.1516 8.86344L16.0528 9.53308C16.0272 9.70699 16.0144 9.79395 15.9963 9.86885C15.8243 10.5836 15.2156 11.1091 14.4834 11.175C14.4067 11.1819 14.3188 11.1819 14.143 11.1819C13.9672 11.1819 13.8793 11.1819 13.8026 11.175C13.0704 11.1091 12.4617 10.5836 12.2897 9.86885C12.2716 9.79395 12.2588 9.70699 12.2332 9.53307L12.1344 8.86344C12.0977 8.61485 12.0794 8.49055 12.0481 8.4694C12.0191 8.44987 11.9812 8.44987 11.9522 8.4694C11.9209 8.49055 11.9025 8.61485 11.8659 8.86344L11.7671 9.53308C11.7415 9.70699 11.7286 9.79395 11.7106 9.86885C11.5385 10.5836 10.9299 11.1091 10.1977 11.175C10.121 11.1819 10.0331 11.1819 9.85728 11.1819C9.68149 11.1819 9.59359 11.1819 9.51686 11.175C8.78466 11.1091 8.17602 10.5836 8.00396 9.86885C7.98592 9.79395 7.9731 9.70699 7.94745 9.53307L7.8487 8.86344C7.81204 8.61485 7.7937 8.49055 7.76235 8.4694C7.73338 8.44987 7.69547 8.44987 7.6665 8.4694C7.63515 8.49055 7.61681 8.61485 7.58015 8.86344L7.56114 8.99237C7.4601 9.6775 7.40958 10.0201 7.26327 10.2884C7.0645 10.6529 6.7402 10.9328 6.35059 11.0763C6.06382 11.1819 5.71755 11.1819 5.02502 11.1819C4.54378 11.1819 4.30316 11.1819 4.12876 11.0992C3.89177 10.9867 3.71931 10.7719 3.66071 10.5163C3.61758 10.3281 3.66956 10.0932 3.7735 9.62328L5.03616 3.91542Z" fill="#50429B"/>
</svg>