<svg width="24" height="24" viewBox="0 0 24 24" fill="none" xmlns="http://www.w3.org/2000/svg">
<path d="M12 22.5002C17.51 22.5002 22 18.0102 22 12.5002C22 6.99024 17.51 2.50024 12 2.50024C6.49 2.50024 2 6.99024 2 12.5002C2 18.0102 6.49 22.5002 12 22.5002ZM12.75 16.5002C12.75 16.9102 12.41 17.2502 12 17.2502C11.59 17.2502 11.25 16.9102 11.25 16.5002L11.25 11.5002C11.25 11.0902 11.59 10.7502 12 10.7502C12.41 10.7502 12.75 11.0902 12.75 11.5002L12.75 16.5002ZM11.08 8.12024C11.13 7.99024 11.2 7.89024 11.29 7.79024C11.39 7.70024 11.5 7.63024 11.62 7.58024C11.74 7.53024 11.87 7.50024 12 7.50024C12.13 7.50024 12.26 7.53024 12.38 7.58024C12.5 7.63024 12.61 7.70024 12.71 7.79024C12.8 7.89024 12.87 7.99024 12.92 8.12024C12.97 8.24024 13 8.37024 13 8.50024C13 8.63024 12.97 8.76024 12.92 8.88024C12.87 9.00024 12.8 9.11024 12.71 9.21024C12.61 9.30024 12.5 9.37024 12.38 9.42024C12.14 9.52024 11.86 9.52024 11.62 9.42024C11.5 9.37024 11.39 9.30024 11.29 9.21024C11.2 9.11024 11.13 9.00024 11.08 8.88024C11.03 8.76024 11 8.63024 11 8.50024C11 8.37024 11.03 8.24024 11.08 8.12024Z" fill="#817CBA"/>
</svg>
