<svg width="28" height="28" viewBox="0 0 28 28" fill="none" xmlns="http://www.w3.org/2000/svg">
<path d="M22.3651 7.74669C21.8635 5.21502 19.9851 4.10669 17.3718 4.10669H7.12845C4.04845 4.10669 1.99512 5.64669 1.99512 9.24002V15.2484C1.99512 17.8384 3.05678 19.355 4.80678 20.0084C5.06345 20.1017 5.34345 20.1834 5.63512 20.23C6.10178 20.335 6.60345 20.3817 7.12845 20.3817H17.3835C20.4635 20.3817 22.5168 18.8417 22.5168 15.2484V9.24002C22.5168 8.69169 22.4701 8.20169 22.3651 7.74669ZM6.45178 14C6.45178 14.4784 6.05512 14.875 5.57678 14.875C5.09845 14.875 4.70178 14.4784 4.70178 14V10.5C4.70178 10.0217 5.09845 9.62502 5.57678 9.62502C6.05512 9.62502 6.45178 10.0217 6.45178 10.5V14ZM12.2501 15.33C10.5468 15.33 9.17012 13.9534 9.17012 12.25C9.17012 10.5467 10.5468 9.17002 12.2501 9.17002C13.9535 9.17002 15.3301 10.5467 15.3301 12.25C15.3301 13.9534 13.9535 15.33 12.2501 15.33ZM19.7868 14C19.7868 14.4784 19.3901 14.875 18.9118 14.875C18.4335 14.875 18.0368 14.4784 18.0368 14V10.5C18.0368 10.0217 18.4335 9.62502 18.9118 9.62502C19.3901 9.62502 19.7868 10.0217 19.7868 10.5V14Z" fill="#50429B"/>
<path d="M26.0166 12.74V18.7483C26.0166 22.3417 23.9633 23.8933 20.8716 23.8933H10.6283C9.75331 23.8933 8.97164 23.765 8.29497 23.5083C7.74664 23.31 7.26831 23.0183 6.88331 22.645C6.67331 22.4467 6.83664 22.1317 7.12831 22.1317H17.3716C21.6883 22.1317 24.255 19.565 24.255 15.26V9.24C24.255 8.96 24.57 8.785 24.7683 8.995C25.5616 9.835 26.0166 11.06 26.0166 12.74Z" fill="#50429B"/>
</svg>
