<svg width="88" height="88" viewBox="0 0 88 88" fill="none" xmlns="http://www.w3.org/2000/svg">
<path opacity="0.2" d="M42.5928 0.939296C43.6208 0.356641 44.8792 0.356641 45.9072 0.939296L63.4987 10.9102L80.9296 21.1595C81.9482 21.7584 82.5774 22.8482 82.5868 24.0298L82.7475 44.25L82.5868 64.4702C82.5774 65.6518 81.9482 66.7416 80.9296 67.3405L63.4987 77.5898L45.9072 87.5607C44.8792 88.1434 43.6208 88.1434 42.5928 87.5607L25.0012 77.5898L7.57043 67.3405C6.55185 66.7416 5.92263 65.6518 5.91323 64.4702L5.7525 44.25L5.91323 24.0298C5.92263 22.8482 6.55184 21.7584 7.57042 21.1595L25.0012 10.9102L42.5928 0.939296Z" fill="#073323"/>
<path d="M53.9998 83L27.291 59.5949L60.1518 28.962L80.4998 67.5L53.9998 83Z" fill="url(#paint0_linear_7469_246100)"/>
<path d="M48.0425 52.9701C48.0425 47.6751 52.3505 43.3671 57.6455 43.3671C59.8145 43.3671 61.811 44.0976 63.4205 45.3156V36.3411C63.4205 31.5576 59.543 27.6801 54.7595 27.6801H31.661C26.8775 27.6771 23 31.5561 23 36.3396V50.0841C23 54.8676 26.8775 58.7451 31.661 58.7451H49.9925C48.7745 57.1356 48.0425 55.1391 48.0425 52.9701ZM43.211 43.2906C42.5915 43.2906 41.9705 43.1721 41.3795 42.9366L29.0045 37.9941C28.3115 37.7166 27.974 36.9321 28.2515 36.2391C28.529 35.5461 29.3165 35.2116 30.0065 35.4861L42.3815 40.4286C42.914 40.6431 43.5065 40.6431 44.039 40.4286L56.4155 35.4861C57.1085 35.2131 57.8945 35.5461 58.1705 36.2391C58.448 36.9321 58.109 37.7166 57.4175 37.9941L45.041 42.9366C44.4515 43.1736 43.8305 43.2906 43.211 43.2906Z" fill="white"/>
<path d="M57.6469 45.6156C53.5864 45.6156 50.2939 48.9081 50.2939 52.9686C50.2939 57.0291 53.5864 60.3216 57.6469 60.3216C61.7074 60.3216 64.9999 57.0291 64.9999 52.9686C64.9999 48.9081 61.7074 45.6156 57.6469 45.6156ZM60.9934 52.7691L57.4024 55.6611C57.1609 55.8546 56.8624 55.9596 56.5564 55.9596C56.5054 55.9596 56.4544 55.9566 56.4019 55.9506C56.0434 55.9101 55.7164 55.7271 55.4944 55.4421L54.0844 53.6436C53.6239 53.0571 53.7274 52.2081 54.3124 51.7491C54.9004 51.2871 55.7479 51.3906 56.2084 51.9786L56.7754 52.7001L59.3014 50.6661C59.8834 50.1966 60.7339 50.2926 61.2004 50.8716C61.6654 51.4506 61.5739 52.3011 60.9934 52.7691Z" fill="white"/>
<defs>
<linearGradient id="paint0_linear_7469_246100" x1="67.9492" y1="74.076" x2="45.1138" y2="42.8861" gradientUnits="userSpaceOnUse">
<stop stop-color="#1B835D"/>
<stop offset="1" stop-color="#21825F" stop-opacity="0"/>
</linearGradient>
</defs>
</svg>
