<svg width="88" height="88" viewBox="0 0 88 88" fill="none" xmlns="http://www.w3.org/2000/svg">
<path opacity="0.2" d="M42.3522 0.93399C43.3743 0.354627 44.6257 0.354626 45.6478 0.933989L63.14 10.8485L80.4723 21.0399C81.4852 21.6355 82.1108 22.7192 82.1202 23.8941L82.28 44L82.1202 64.1059C82.1108 65.2808 81.4852 66.3645 80.4723 66.9601L63.14 77.1515L45.6478 87.066C44.6257 87.6454 43.3743 87.6454 42.3522 87.066L24.86 77.1515L7.52766 66.9601C6.51483 66.3645 5.88917 65.2808 5.87983 64.1059L5.72 44L5.87983 23.8941C5.88917 22.7192 6.51483 21.6355 7.52766 21.0399L24.86 10.8485L42.3522 0.93399Z" fill="#1D1740"/>
<path d="M53.4682 82.4304L27.291 59.5949L60.1518 28.962L80.7594 66.8355L53.4682 82.4304Z" fill="url(#paint0_linear_7469_246086)"/>
<path d="M60.6012 26.971L50.2041 58.1603C50.023 58.7085 49.6734 59.1856 49.2051 59.5233C48.7368 59.861 48.1738 60.0421 47.5964 60.0408L47.5534 60.0402C46.9689 60.0329 46.402 59.8387 45.9357 59.4861C45.4694 59.1334 45.1281 58.6409 44.9619 58.0804L41.0381 45.0006L51.2689 34.7692C51.3966 34.6415 51.4978 34.49 51.5669 34.3232C51.636 34.1564 51.6716 33.9776 51.6716 33.797C51.6716 33.6165 51.636 33.4377 51.5669 33.2709C51.4978 33.1041 51.3966 32.9525 51.2689 32.8249C51.1412 32.6972 50.9897 32.5959 50.8229 32.5269C50.6561 32.4578 50.4773 32.4222 50.2967 32.4222C50.1162 32.4222 49.9374 32.4578 49.7706 32.5269C49.6038 32.5959 49.4522 32.6972 49.3246 32.8249L39.0937 43.0563L26.0133 39.1318C25.4536 38.964 24.9619 38.6223 24.6095 38.1561C24.2571 37.69 24.0624 37.1237 24.0535 36.5394C24.0447 35.9551 24.2222 35.3832 24.5604 34.9066C24.8985 34.4301 25.3797 34.0736 25.9341 33.889L57.1234 23.4925C57.6078 23.3308 58.1278 23.3072 58.6249 23.4245C59.122 23.5418 59.5766 23.7952 59.9377 24.1564C60.2989 24.5176 60.5522 24.9723 60.6694 25.4694C60.7866 25.9665 60.763 26.4865 60.6012 26.971ZM32.0189 43.8248C31.8913 43.6971 31.7397 43.5958 31.5729 43.5267C31.4061 43.4576 31.2273 43.422 31.0467 43.422C30.8662 43.422 30.6874 43.4576 30.5206 43.5267C30.3538 43.5958 30.2022 43.6971 30.0746 43.8248L23.1996 50.6998C22.9417 50.9577 22.7969 51.3074 22.7969 51.672C22.7969 52.0366 22.9417 52.3863 23.1996 52.6442C23.4574 52.902 23.8071 53.0468 24.1717 53.0468C24.5364 53.0468 24.8861 52.902 25.1439 52.6442L32.0189 45.7692C32.1466 45.6415 32.2479 45.49 32.317 45.3232C32.3862 45.1563 32.4217 44.9776 32.4217 44.797C32.4217 44.6164 32.3862 44.4376 32.317 44.2708C32.2479 44.104 32.1466 43.9525 32.0189 43.8248ZM40.2689 52.0748C40.1413 51.9471 39.9897 51.8458 39.8229 51.7767C39.6561 51.7076 39.4773 51.672 39.2967 51.672C39.1162 51.672 38.9374 51.7076 38.7706 51.7767C38.6038 51.8458 38.4522 51.9471 38.3246 52.0748L31.4496 58.9498C31.3219 59.0775 31.2206 59.2291 31.1515 59.3959C31.0824 59.5627 31.0469 59.7414 31.0469 59.922C31.0469 60.1025 31.0824 60.2813 31.1515 60.4481C31.2206 60.6149 31.3219 60.7665 31.4496 60.8942C31.5772 61.0218 31.7288 61.1231 31.8956 61.1922C32.0624 61.2613 32.2412 61.2968 32.4217 61.2968C32.6023 61.2968 32.7811 61.2613 32.9479 61.1922C33.1147 61.1231 33.2662 61.0218 33.3939 60.8942L40.2689 54.0192C40.3966 53.8915 40.4979 53.74 40.567 53.5732C40.6362 53.4063 40.6717 53.2276 40.6717 53.047C40.6717 52.8664 40.6362 52.6876 40.567 52.5208C40.4979 52.354 40.3966 52.2025 40.2689 52.0748ZM33.3402 50.6461C33.0805 50.3901 32.7299 50.2477 32.3652 50.2503C32.0006 50.2528 31.6519 50.4 31.3959 50.6595L24.5678 57.5815C24.4404 57.7099 24.3396 57.8622 24.2711 58.0297C24.2026 58.1971 24.1679 58.3764 24.1689 58.5573C24.1698 58.7383 24.2065 58.9172 24.2768 59.0839C24.347 59.2506 24.4495 59.4018 24.5783 59.5289C24.7071 59.6559 24.8597 59.7563 25.0274 59.8242C25.195 59.8922 25.3745 59.9263 25.5554 59.9248C25.7363 59.9233 25.9151 59.8861 26.0816 59.8153C26.2481 59.7445 26.399 59.6416 26.5256 59.5124L33.3536 52.5904C33.6096 52.3308 33.752 51.9801 33.7495 51.6155C33.7469 51.2509 33.5997 50.9022 33.3402 50.6461Z" fill="white"/>
<defs>
<linearGradient id="paint0_linear_7469_246086" x1="67.9492" y1="74.076" x2="45.1138" y2="42.8861" gradientUnits="userSpaceOnUse">
<stop stop-color="#3E3184"/>
<stop offset="1" stop-color="#463896" stop-opacity="0"/>
</linearGradient>
</defs>
</svg>
