<?xml version="1.0" encoding="UTF-8" standalone="no"?>
<svg
   xmlns:dc="http://purl.org/dc/elements/1.1/"
   xmlns:cc="http://creativecommons.org/ns#"
   xmlns:rdf="http://www.w3.org/1999/02/22-rdf-syntax-ns#"
   xmlns:svg="http://www.w3.org/2000/svg"
   xmlns="http://www.w3.org/2000/svg"
   viewBox="0 0 340.16 415.74667"
   height="24"
   width="24"
   xml:space="preserve"
   id="svg2"
   version="1.1"><metadata
     id="metadata8"><rdf:RDF><cc:Work
         rdf:about=""><dc:format>image/svg+xml</dc:format><dc:type
           rdf:resource="http://purl.org/dc/dcmitype/StillImage" /></cc:Work></rdf:RDF></metadata><defs
     id="defs6"><clipPath
       id="clipPath18"
       clipPathUnits="userSpaceOnUse"><path
         id="path16"
         d="M 0,311.81 H 255.12 V 0 H 0 Z" /></clipPath></defs><g
     transform="matrix(1.3333333,0,0,-1.3333333,0,415.74667)"
     id="g10"><g
       id="g12"><g
         clip-path="url(#clipPath18)"
         id="g14"><g
           transform="translate(136.7406,221.0639)"
           id="g20"><path
             id="path22"
             style="fill:#1263ad;fill-opacity:1;fill-rule:nonzero;stroke:none"
             d="m 0,0 -11.547,-11.547 -0.576,-0.568 -3.669,-3.677 -2.735,-2.735 -3.67,-3.67 -0.568,-0.568 -1.599,-1.599 -0.569,-0.575 h -0.007 l -5.411,-5.405 v -0.007 l -0.568,-0.568 c -1.622,-1.622 -3.415,-2.952 -5.321,-4.006 -0.964,-0.53 -1.951,-0.986 -2.96,-1.375 -2.249,-0.867 -4.611,-1.375 -6.988,-1.524 -1.457,-0.098 -2.937,-0.061 -4.387,0.119 -3.139,0.374 -6.218,1.375 -9.028,3.005 -1.203,0.694 -2.437,1.42 -3.46,2.436 -0.008,0 -0.008,0 -0.015,0.007 -0.224,0.217 -0.449,0.442 -0.673,0.673 l -21.023,21.023 -0.449,0.449 c -0.366,0.403 -0.695,0.844 -0.971,1.315 -0.703,1.189 -1.106,2.564 -1.106,4.043 0,0.233 0.007,0.464 0.029,0.689 0.03,0.343 0.083,0.671 0.15,0.993 0.03,0.128 0.059,0.255 0.09,0.374 0.014,0.052 0.03,0.104 0.044,0.157 0.299,0.986 0.785,1.921 1.458,2.758 0.179,0.217 0.366,0.426 0.568,0.635 l 0.374,0.366 22.398,22.406 h 0.008 l 13.572,13.572 c 3.027,3.028 7.847,3.161 11.024,0.389 z" /></g><g
           transform="translate(95.8519,170.6235)"
           id="g24"><path
             id="path26"
             style="fill:#ee3338;fill-opacity:1;fill-rule:nonzero;stroke:none"
             d="m 0,0 c -1.809,0 -3.587,0.404 -5.292,1.181 l -4.304,4.298 -1.054,1.045 -0.18,0.188 -2.003,2.003 -10.029,10.141 c 0.224,-0.231 0.448,-0.456 0.673,-0.672 1.023,-1.017 2.264,-1.749 3.475,-2.444 2.81,-1.63 5.889,-2.631 9.028,-3.005 1.45,-0.179 2.93,-0.216 4.387,-0.119 2.377,0.15 4.738,0.657 6.988,1.525 1.009,0.388 1.996,0.844 2.959,1.375 1.906,1.053 3.7,2.383 5.322,4.005 l 0.568,0.569 v 0.007 l 5.411,5.404 h 0.007 l 0.568,0.575 1.6,1.6 0.567,0.567 3.67,3.67 2.736,2.735 3.669,3.677 0.576,0.569 23.265,23.265 9.597,10.396 c 0.022,0.022 0.037,0.038 0.059,0.06 l 0.516,0.508 c 2.929,2.93 7.683,2.93 10.613,0 l 5.254,-5.254 h 0.007 l 0.172,-0.172 C 76.501,67.81 74.154,66.972 72.397,65.253 L 54.618,47.765 54.438,47.548 23.497,17.1 23.452,17.138 12.055,5.941 11.98,5.853 C 11.95,5.814 11.704,5.538 11.292,5.135 10.396,4.261 8.52,2.608 6.009,1.42 4.873,0.882 3.714,0.493 2.571,0.254 1.891,0.12 1.196,0.03 0.516,0 Z" /></g><g
           transform="translate(202.9574,199.4125)"
           id="g28"><path
             id="path30"
             style="fill:#ee3338;fill-opacity:1;fill-rule:nonzero;stroke:none"
             d="m 0,0 -0.568,-0.575 -25.201,-25.583 -26.464,-26.868 c -0.845,-0.844 -1.727,-1.607 -2.661,-2.294 -0.03,-0.031 -0.067,-0.06 -0.105,-0.09 -0.127,-0.09 -0.254,-0.187 -0.389,-0.277 -0.014,-0.014 -0.029,-0.022 -0.045,-0.037 -3.99,-2.855 -8.886,-4.529 -14.162,-4.529 -6.517,0 -12.436,2.556 -16.816,6.719 -0.007,0.008 -0.007,0.008 -0.015,0.014 -0.201,0.172 -0.396,0.344 -0.59,0.524 l -4.552,4.552 -12.787,12.795 -4.268,4.267 -0.598,0.598 c 0.696,-0.112 1.398,-0.164 2.1,-0.164 h 0.023 l 0.568,0.007 c 0.815,0.03 1.629,0.127 2.429,0.292 1.308,0.268 2.631,0.716 3.931,1.33 2.795,1.322 4.88,3.153 5.875,4.125 0.388,0.382 0.679,0.703 0.799,0.844 l 9.835,9.664 0.038,-0.044 33.818,33.272 0.18,0.217 16.427,16.166 c 2.212,2.159 5.665,2.443 8.176,0.717 l 3.894,-3.894 c 0.007,0 0.007,-0.007 0.007,-0.007 L 0,10.62 C 0.187,10.434 0.366,10.239 0.531,10.037 2.922,7.085 2.743,2.735 0,0" /></g><g
           transform="translate(121.3294,227.4164)"
           id="g32"><path
             id="path34"
             style="fill:#00a1dc;fill-opacity:1;fill-rule:nonzero;stroke:none"
             d="m 0,0 c -0.598,-0.591 -1.577,-0.575 -2.175,0.022 -9.97,10.045 -26.247,10.105 -36.292,0.142 -10.037,-9.97 -10.104,-26.247 -0.135,-36.292 l 7.803,-7.87 c 0.052,-0.052 0.105,-0.111 0.134,-0.172 -0.037,0 -0.074,-0.007 -0.111,-0.007 -1.42,-0.097 -2.855,-0.06 -4.268,0.105 l -5.732,5.784 C -51.935,-27.047 -51.867,-8.819 -40.627,2.339 -29.379,13.497 -11.158,13.423 0,2.183 L 0.022,2.16 C 0.621,1.562 0.605,0.598 0,0" /></g><g
           transform="translate(133.2577,217.5815)"
           id="g36"><path
             id="path38"
             style="fill:#00a1dc;fill-opacity:1;fill-rule:nonzero;stroke:none"
             d="m 0,0 -2.167,-2.168 -3.805,3.827 c -0.597,0.605 -0.59,1.576 0.008,2.167 0.606,0.598 1.569,0.598 2.168,-0.008 z" /></g><g
           transform="translate(100.5677,186.1762)"
           id="g40"><path
             id="path42"
             style="fill:#00a1dc;fill-opacity:1;fill-rule:nonzero;stroke:none"
             d="M 0,0 C -0.022,-0.015 -0.045,-0.022 -0.067,-0.037 -1.009,-0.553 -1.966,-1.001 -2.952,-1.383 L -13.58,9.335 c -6.651,6.704 -7.601,17.204 -2.264,24.978 0.478,0.694 1.435,0.874 2.13,0.395 0.702,-0.479 0.874,-1.435 0.396,-2.138 -4.507,-6.553 -3.7,-15.418 1.913,-21.075 z" /></g><g
           transform="translate(126.8451,211.1684)"
           id="g44"><path
             id="path46"
             style="fill:#00a1dc;fill-opacity:1;fill-rule:nonzero;stroke:none"
             d="M 0,0 -0.052,-0.052 -1.651,-1.651 -2.167,-2.16 -14.125,9.888 c -4.439,4.469 -10.919,6.039 -16.92,4.095 -0.8,-0.261 -1.667,0.18 -1.929,0.98 -0.261,0.807 0.18,1.674 0.987,1.935 7.1,2.302 14.783,0.441 20.037,-4.85 z" /></g><g
           transform="translate(120.433,204.7563)"
           id="g48"><path
             id="path50"
             style="fill:#00a1dc;fill-opacity:1;fill-rule:nonzero;stroke:none"
             d="M 0,0 -2.167,-2.168 -14.148,9.91 c -2.922,2.952 -7.705,2.967 -10.65,0.045 -2.945,-2.93 -2.967,-7.706 -0.037,-10.65 l 7.72,-7.787 c 0.598,-0.599 0.598,-1.571 -0.008,-2.168 -0.597,-0.598 -1.569,-0.59 -2.167,0.007 l -7.728,7.788 c -4.11,4.148 -4.087,10.867 0.06,14.985 4.148,4.118 10.875,4.088 14.985,-0.06 z" /></g><g
           transform="translate(114.0277,198.351)"
           id="g52"><path
             id="path54"
             style="fill:#00a1dc;fill-opacity:1;fill-rule:nonzero;stroke:none"
             d="m 0,0 -0.052,-0.052 -1.599,-1.599 -0.516,-0.516 -12.01,12.1 c -0.598,0.597 -0.591,1.569 0.007,2.168 0.606,0.597 1.577,0.589 2.168,-0.008 z" /></g><g
           transform="translate(65.4622,57.7016)"
           id="g56"><path
             id="path58"
             style="fill:#00a1dc;fill-opacity:1;fill-rule:nonzero;stroke:none"
             d="M 0,0 C 1.146,0 1.999,0.197 2.559,0.592 3.119,0.987 3.486,1.593 3.66,2.409 3.764,2.921 3.705,3.355 3.484,3.711 3.262,4.067 2.765,4.502 1.993,5.014 l -3.061,2.11 c -0.695,0.485 -1.222,0.982 -1.582,1.491 -0.36,0.507 -0.574,1.039 -0.639,1.595 -0.065,0.556 -0.028,1.154 0.111,1.797 0.33,1.571 1.105,2.808 2.325,3.712 1.22,0.903 2.963,1.354 5.229,1.354 0.885,0 1.732,-0.108 2.539,-0.326 0.808,-0.217 1.415,-0.455 1.823,-0.716 0.174,-0.113 0.3,-0.218 0.378,-0.319 0.078,-0.1 0.1,-0.233 0.065,-0.397 l -0.39,-1.81 C 8.695,13.07 8.443,12.936 8.035,13.102 c -0.443,0.181 -1.096,0.359 -1.96,0.533 -0.864,0.174 -1.647,0.261 -2.35,0.261 -1.867,0 -2.931,-0.622 -3.191,-1.863 -0.096,-0.434 -0.028,-0.799 0.202,-1.094 0.23,-0.294 0.722,-0.703 1.478,-1.224 l 2.8,-1.902 C 5.83,7.258 6.442,6.7 6.85,6.141 7.258,5.58 7.503,5.007 7.586,4.421 7.668,3.835 7.631,3.164 7.475,2.409 7.267,1.428 6.85,0.519 6.225,-0.319 5.6,-1.157 4.719,-1.841 3.582,-2.37 2.444,-2.9 1.059,-3.165 -0.573,-3.165 c -1.094,0 -2.069,0.126 -2.924,0.378 -0.855,0.252 -1.439,0.481 -1.752,0.69 -0.216,0.148 -0.353,0.262 -0.41,0.345 -0.056,0.083 -0.067,0.206 -0.032,0.371 L -5.3,0.43 c 0.086,0.408 0.338,0.542 0.755,0.403 C -2.93,0.277 -1.416,0 0,0" /></g><g
           transform="translate(80.6209,57.519)"
           id="g60"><path
             id="path62"
             style="fill:#00a1dc;fill-opacity:1;fill-rule:nonzero;stroke:none"
             d="M 0,0 C 0.999,0 2.188,0.204 3.569,0.612 3.968,0.717 4.124,0.573 4.038,0.183 L 3.686,-1.523 C 3.642,-1.688 3.569,-1.821 3.464,-1.921 3.36,-2.021 3.195,-2.118 2.97,-2.214 1.945,-2.727 0.747,-2.982 -0.625,-2.982 c -1.189,0 -2.192,0.223 -3.008,0.67 -0.816,0.448 -1.383,1.155 -1.7,2.124 -0.316,0.967 -0.318,2.194 -0.006,3.678 l 0.534,2.488 c 0.304,1.45 0.818,2.661 1.543,3.633 0.725,0.973 1.595,1.689 2.611,2.149 1.016,0.46 2.119,0.69 3.308,0.69 1.372,0 2.462,-0.256 3.269,-0.768 0.182,-0.096 0.306,-0.194 0.371,-0.293 0.065,-0.1 0.08,-0.233 0.045,-0.398 L 5.978,9.285 C 5.891,8.896 5.674,8.752 5.327,8.856 4.78,9.047 4.28,9.196 3.829,9.305 3.377,9.414 2.818,9.468 2.149,9.468 0.352,9.468 -0.794,8.305 -1.289,5.978 L -1.823,3.49 C -2.083,2.231 -2.027,1.335 -1.654,0.801 -1.28,0.268 -0.729,0 0,0" /></g><g
           transform="translate(94.8553,57.4145)"
           id="g64"><path
             id="path66"
             style="fill:#00a1dc;fill-opacity:1;fill-rule:nonzero;stroke:none"
             d="M 0,0 0.833,3.946 H -1.042 C -1.849,3.946 -2.461,3.875 -2.878,3.731 -3.294,3.588 -3.597,3.367 -3.783,3.067 -3.97,2.768 -4.12,2.349 -4.232,1.811 L -4.271,1.654 c -0.104,-0.503 -0.104,-0.887 0,-1.152 0.104,-0.265 0.333,-0.451 0.689,-0.561 0.357,-0.108 0.908,-0.162 1.655,-0.162 0.755,0 1.398,0.074 1.927,0.221 m -0.312,9.624 c -1.398,0 -2.865,-0.229 -4.402,-0.689 -0.4,-0.105 -0.556,0.039 -0.469,0.429 l 0.339,1.628 c 0.034,0.164 0.106,0.299 0.215,0.404 0.108,0.104 0.275,0.2 0.501,0.287 0.59,0.234 1.306,0.438 2.149,0.611 0.842,0.174 1.74,0.261 2.695,0.261 1.146,0 2.086,-0.187 2.82,-0.56 0.734,-0.374 1.237,-0.946 1.51,-1.72 C 5.32,9.503 5.34,8.565 5.105,7.463 L 3.165,-1.628 C 3.13,-1.818 3.082,-1.953 3.021,-2.031 2.96,-2.109 2.843,-2.17 2.67,-2.214 1.836,-2.431 1.038,-2.596 0.273,-2.708 c -0.763,-0.113 -1.684,-0.17 -2.76,-0.17 -1.459,0 -2.618,0.152 -3.477,0.456 -0.86,0.304 -1.442,0.783 -1.745,1.44 -0.305,0.655 -0.344,1.516 -0.118,2.585 L -7.8,1.732 c 0.173,0.79 0.429,1.463 0.768,2.019 0.338,0.556 0.796,1.024 1.374,1.406 0.577,0.383 1.283,0.667 2.116,0.854 0.834,0.186 1.836,0.28 3.008,0.28 H 1.342 L 1.589,7.463 C 1.763,8.296 1.698,8.865 1.394,9.169 1.089,9.473 0.521,9.624 -0.312,9.624" /></g><g
           transform="translate(113.2308,55.3051)"
           id="g68"><path
             id="path70"
             style="fill:#00a1dc;fill-opacity:1;fill-rule:nonzero;stroke:none"
             d="M 0,0 C -0.026,-0.139 -0.106,-0.267 -0.241,-0.384 -0.375,-0.501 -0.512,-0.56 -0.651,-0.56 h -2.462 c -0.147,0 -0.258,0.059 -0.331,0.176 -0.074,0.117 -0.098,0.245 -0.072,0.384 l 1.875,8.804 c 0.148,0.703 0.184,1.262 0.111,1.679 -0.074,0.417 -0.284,0.721 -0.632,0.913 -0.347,0.19 -0.859,0.286 -1.536,0.286 -0.817,0 -1.711,-0.096 -2.683,-0.286 L -8.803,0 C -8.83,-0.156 -8.906,-0.289 -9.032,-0.396 -9.157,-0.506 -9.298,-0.56 -9.455,-0.56 h -2.448 c -0.157,0 -0.272,0.059 -0.345,0.176 -0.074,0.117 -0.098,0.245 -0.072,0.384 l 2.84,13.336 c 0.051,0.261 0.268,0.438 0.65,0.534 0.938,0.243 1.932,0.436 2.983,0.579 1.05,0.144 2.014,0.215 2.891,0.215 2.092,0 3.529,-0.462 4.31,-1.387 0.782,-0.924 0.959,-2.407 0.535,-4.448 z" /></g><g
           transform="translate(131.5545,55.2006)"
           id="g72"><path
             id="path74"
             style="fill:#00a1dc;fill-opacity:1;fill-rule:nonzero;stroke:none"
             d="m 0,0 c -0.052,-0.269 -0.252,-0.43 -0.599,-0.481 -0.773,-0.123 -1.485,-0.183 -2.136,-0.183 -1.059,0 -1.867,0.106 -2.423,0.319 -0.555,0.213 -0.911,0.623 -1.067,1.231 -0.156,0.608 -0.109,1.502 0.143,2.682 l 1.771,8.374 -2.123,0.378 c -0.347,0.061 -0.49,0.239 -0.429,0.534 l 0.26,1.199 c 0.026,0.147 0.1,0.273 0.222,0.377 0.121,0.104 0.26,0.156 0.416,0.156 h 2.215 l 0.468,2.188 c 0.061,0.295 0.278,0.473 0.651,0.534 l 2.566,0.429 h 0.117 c 0.278,0 0.386,-0.134 0.325,-0.403 l -0.586,-2.748 h 2.696 c 0.165,0 0.286,-0.048 0.365,-0.143 0.078,-0.095 0.1,-0.225 0.065,-0.39 L 2.578,12.477 C 2.543,12.329 2.463,12.203 2.337,12.099 2.211,11.994 2.075,11.942 1.927,11.942 H -0.769 L -2.54,3.568 C -2.679,2.909 -2.711,2.496 -2.637,2.332 -2.563,2.167 -2.292,2.084 -1.823,2.084 h 1.706 c 0.373,0 0.534,-0.135 0.482,-0.403 z" /></g><g
           transform="translate(143.6136,61.1782)"
           id="g76"><path
             id="path78"
             style="fill:#00a1dc;fill-opacity:1;fill-rule:nonzero;stroke:none"
             d="M 0,0 0.456,2.149 C 0.69,3.261 0.632,4.14 0.28,4.786 -0.071,5.434 -0.712,5.757 -1.641,5.757 -2.561,5.757 -3.336,5.434 -3.965,4.786 -4.595,4.14 -5.027,3.261 -5.261,2.149 L -5.717,0 c -0.234,-1.111 -0.174,-1.99 0.182,-2.637 0.356,-0.647 0.99,-0.969 1.902,-0.969 0.92,0 1.697,0.322 2.331,0.969 C -0.668,-1.99 -0.234,-1.111 0,0 M 3.516,0 C 3.247,-1.268 2.759,-2.409 2.051,-3.425 1.344,-4.44 0.454,-5.23 -0.619,-5.795 c -1.072,-0.564 -2.289,-0.847 -3.652,-0.847 -1.346,0 -2.442,0.283 -3.289,0.847 -0.846,0.565 -1.404,1.355 -1.673,2.37 -0.269,1.016 -0.269,2.157 0,3.425 l 0.456,2.149 c 0.269,1.268 0.755,2.41 1.458,3.425 0.703,1.016 1.597,1.806 2.683,2.37 1.085,0.565 2.301,0.847 3.646,0.847 1.363,0 2.462,-0.282 3.295,-0.847 C 3.139,7.38 3.692,6.59 3.966,5.574 4.239,4.559 4.241,3.417 3.972,2.149 Z" /></g><g
           transform="translate(168.2015,68.3803)"
           id="g80"><path
             id="path82"
             style="fill:#00a1dc;fill-opacity:1;fill-rule:nonzero;stroke:none"
             d="m 0,0 0.052,0.234 c 0.235,1.112 0.08,1.906 -0.462,2.384 -0.543,0.477 -1.5,0.716 -2.872,0.716 -0.86,0 -1.658,-0.039 -2.396,-0.117 l -1.354,-6.342 c 0.85,-0.053 1.636,-0.078 2.357,-0.078 0.955,0 1.747,0.114 2.377,0.345 0.629,0.229 1.131,0.579 1.504,1.048 C -0.421,-1.342 -0.156,-0.738 0,0 m 3.686,0 c -0.46,-2.196 -1.507,-3.788 -3.139,-4.772 -1.632,-0.987 -3.59,-1.479 -5.874,-1.479 -0.138,0 -0.444,0.011 -0.918,0.032 -0.473,0.023 -0.781,0.037 -0.924,0.046 -0.143,0.009 -0.311,0.018 -0.501,0.027 l -1.472,-6.956 c -0.035,-0.156 -0.113,-0.284 -0.234,-0.383 -0.122,-0.1 -0.252,-0.15 -0.392,-0.15 h -2.669 c -0.13,0 -0.241,0.052 -0.332,0.156 -0.091,0.105 -0.12,0.23 -0.085,0.377 l 3.894,18.35 c 0.052,0.252 0.163,0.437 0.332,0.554 0.17,0.117 0.402,0.197 0.697,0.241 1.511,0.234 3.277,0.352 5.3,0.352 2.293,0 4.044,-0.481 5.255,-1.44 C 3.835,3.996 4.206,2.423 3.738,0.234 Z" /></g><g
           transform="translate(178.0081,57.4145)"
           id="g84"><path
             id="path86"
             style="fill:#00a1dc;fill-opacity:1;fill-rule:nonzero;stroke:none"
             d="M 0,0 0.833,3.946 H -1.042 C -1.849,3.946 -2.461,3.875 -2.878,3.731 -3.295,3.588 -3.597,3.367 -3.783,3.067 -3.97,2.768 -4.12,2.349 -4.232,1.811 l -0.04,-0.157 c -0.103,-0.503 -0.103,-0.887 0,-1.152 0.105,-0.265 0.334,-0.451 0.69,-0.561 0.356,-0.108 0.908,-0.162 1.655,-0.162 0.755,0 1.397,0.074 1.927,0.221 m -0.313,9.624 c -1.397,0 -2.865,-0.229 -4.401,-0.689 -0.4,-0.105 -0.556,0.039 -0.47,0.429 l 0.339,1.628 c 0.035,0.164 0.107,0.299 0.215,0.404 0.109,0.104 0.276,0.2 0.502,0.287 0.59,0.234 1.306,0.438 2.149,0.611 0.841,0.174 1.74,0.261 2.695,0.261 1.146,0 2.086,-0.187 2.82,-0.56 0.734,-0.374 1.237,-0.946 1.51,-1.72 C 5.32,9.503 5.339,8.565 5.105,7.463 L 3.165,-1.628 C 3.13,-1.818 3.082,-1.953 3.021,-2.031 2.96,-2.109 2.843,-2.17 2.669,-2.214 1.836,-2.431 1.037,-2.596 0.273,-2.708 c -0.764,-0.113 -1.684,-0.17 -2.76,-0.17 -1.459,0 -2.618,0.152 -3.477,0.456 -0.86,0.304 -1.442,0.783 -1.746,1.44 -0.304,0.655 -0.343,1.516 -0.117,2.585 l 0.026,0.129 c 0.174,0.79 0.429,1.463 0.768,2.019 0.339,0.556 0.797,1.024 1.374,1.406 0.577,0.383 1.284,0.667 2.117,0.854 0.833,0.186 1.835,0.28 3.008,0.28 H 1.341 L 1.589,7.463 C 1.762,8.296 1.697,8.865 1.393,9.169 1.089,9.473 0.521,9.624 -0.313,9.624" /></g><g
           transform="translate(199.7435,69.3315)"
           id="g88"><path
             id="path90"
             style="fill:#00a1dc;fill-opacity:1;fill-rule:nonzero;stroke:none"
             d="M 0,0 C -0.018,-0.07 -0.039,-0.122 -0.065,-0.156 L -7.84,-15.732 c -0.513,-1.042 -1.022,-1.858 -1.53,-2.449 -0.508,-0.59 -1.138,-1.029 -1.888,-1.315 -0.752,-0.286 -1.718,-0.43 -2.898,-0.43 -0.452,0 -0.947,0.035 -1.485,0.105 -0.538,0.069 -0.96,0.151 -1.263,0.247 -0.356,0.095 -0.513,0.247 -0.469,0.456 l 0.365,1.706 c 0.026,0.13 0.102,0.243 0.227,0.339 0.126,0.094 0.263,0.142 0.411,0.142 h 0.052 c 0.234,-0.008 0.725,-0.039 1.471,-0.09 0.747,-0.052 1.246,-0.079 1.498,-0.079 0.391,0 0.729,0.048 1.016,0.144 0.287,0.095 0.544,0.267 0.775,0.514 0.23,0.248 0.458,0.601 0.683,1.061 l 0.378,0.795 h -0.39 c -0.304,0 -0.585,0.047 -0.841,0.144 -0.255,0.094 -0.477,0.305 -0.664,0.63 -0.187,0.326 -0.306,0.805 -0.358,1.44 l -0.885,12.216 c -0.009,0.052 -0.005,0.112 0.012,0.181 0.061,0.287 0.261,0.43 0.6,0.43 h 2.696 c 0.121,0 0.219,-0.048 0.293,-0.143 0.073,-0.095 0.11,-0.208 0.11,-0.338 l 0.391,-10.849 c 0,-0.391 0.078,-0.586 0.234,-0.586 h 0.027 0.129 0.092 L -3.738,0 c 0.131,0.304 0.343,0.455 0.638,0.455 h 2.722 c 0.122,0 0.222,-0.045 0.3,-0.137 C 0,0.228 0.026,0.121 0,0" /></g><g
           transform="translate(99.9535,121.3881)"
           id="g92"><path
             id="path94"
             style="fill:#1263ad;fill-opacity:1;fill-rule:evenodd;stroke:none"
             d="m 0,0 8.916,0.034 h 4.245 6.582 c 5.955,0 10.827,-4.872 10.827,-10.827 v -1.334 c 0,-5.955 -4.875,-10.495 -10.827,-10.677 l -4.938,-0.15 c 3.971,1.826 5.632,6.439 5.136,10.592 -0.398,3.334 -2.115,6.54 -4.976,6.6 l -1.804,0.038 V -35.4 c 0,-0.578 0.099,-0.818 0.404,-1.326 0.484,-0.807 1.129,-1.614 1.796,-2.421 0.174,-0.21 0.348,-0.419 0.522,-0.628 H 0.525 c 0.231,0.282 0.457,0.568 0.673,0.862 0.464,0.635 0.878,1.307 1.187,2.058 0.199,0.482 0.298,0.838 0.298,1.352 v 31.88 C 2.621,-1.961 0.97,-1.019 0,0 M 47.171,-22.497 H 37.75 l 4.568,13.018 z M 35.88,0.034 c 1.114,-1.528 1.443,-2.065 1.568,-3.426 0.087,-0.946 0.023,-1.486 -0.282,-2.371 L 26.793,-35.838 c -0.482,-1.235 -1.487,-2.601 -2.948,-3.928 h 11.319 c -0.84,0.745 -1.377,1.632 -1.573,2.689 -0.178,0.965 -0.171,1.327 0.039,2.256 l 2.301,7.142 h 13.172 l 2.052,-5.504 c 0.215,-0.576 0.338,-1.112 0.392,-1.73 0.181,-2.056 -0.479,-3.747 -2.111,-4.942 h 17.745 c -1.742,1.55 -3.339,3.172 -4.242,5.143 L 49.984,0.034 Z M 73.744,-21.259 59.798,-1.267 58.38,0.034 h 13.745 l 9.315,-15.113 0.749,0.611 5.632,8.368 c 1.383,2.056 1.197,4.445 -0.776,6.134 h 12.988 L 85.02,-21.255 85.012,-36.702 87.659,-39.848 H 71.523 l 2.275,3.1 c 0,5.148 -0.187,10.355 -0.054,15.489" /></g><g
           transform="translate(66.1893,107.6196)"
           id="g96"><path
             id="path98"
             style="fill:#ee3338;fill-opacity:1;fill-rule:evenodd;stroke:none"
             d="m 0,0 v -21.318 c 0,-0.866 0.2,-1.02 0.732,-1.714 l 2.443,-3.184 H -8.494 c 0.657,1.003 1.314,2.007 1.971,3.009 0.507,0.828 0.726,1.109 0.726,2.069 V 8.646 l -3.28,5.333 H 3.015 L 22.594,-11.237 V 8.858 c 0,0.96 -0.19,1.271 -0.698,2.098 -0.657,1.003 -1.342,1.978 -2,2.981 H 31.554 L 29.123,10.753 C 28.59,10.059 28.391,9.904 28.391,9.039 v -36.273 c -4.415,0.581 -8.528,1.661 -12.184,6.335 z m -49.497,13.979 h 12.398 l 10.404,-29.833 8.824,24.712 c 0.161,0.96 0.023,1.271 -0.345,2.098 -0.489,1.003 -1.011,1.978 -1.499,2.981 h 9.26 c -0.549,-2.018 -1.359,-4.232 -2.059,-6.265 L -24.47,-27.073 c -3.264,0.651 -6.902,1.942 -9.717,4.609 -2.118,2.007 -2.869,4.289 -3.916,7.01 L -48.1,11.022 c -0.394,1.044 -0.88,1.981 -1.397,2.957" /></g><g
           transform="translate(226.5238,109.9741)"
           id="g100"><path
             id="path102"
             style="fill:#ee3338;fill-opacity:1;fill-rule:evenodd;stroke:none"
             d="m 0,0 v -5.418 c 0,-1.351 0.423,-2.266 1.255,-2.743 v -0.122 h -7.859 v 0.122 c 0.791,0.45 1.2,1.351 1.2,2.702 v 0.505 12.76 c 0,0.804 -0.082,1.446 -0.218,1.896 -0.15,0.464 -0.478,0.873 -0.982,1.229 v 0.053 h 9.538 c 1.065,0 2.02,-0.19 2.866,-0.586 C 6.646,10.002 7.314,9.429 7.806,8.638 8.065,8.256 8.242,7.819 8.365,7.341 8.501,6.877 8.57,6.358 8.57,5.826 8.57,5.104 8.338,4.325 7.86,3.466 7.396,2.62 6.496,1.855 5.145,1.2 l 3.78,-6.372 c 0.9,-1.379 1.719,-2.361 2.456,-2.948 L 8.065,-8.365 7.232,-8.393 H 6.455 c -0.751,0 -1.338,0.123 -1.774,0.382 -0.423,0.246 -0.833,0.738 -1.201,1.46 z M 0,1.542 C 0.614,1.637 1.16,1.855 1.624,2.169 2.102,2.497 2.47,2.934 2.743,3.466 2.879,3.725 2.975,3.984 3.057,4.257 3.125,4.53 3.152,4.816 3.152,5.104 3.152,5.99 2.92,6.728 2.429,7.327 1.951,7.914 1.214,8.215 0.232,8.215 H 0 Z m -21.902,0.204 c 0,-0.614 0.068,-1.255 0.218,-1.91 0.109,-0.464 0.273,-1.051 0.519,-1.761 0.382,-1.119 0.941,-2.047 1.678,-2.756 0.723,-0.723 1.624,-1.078 2.689,-1.078 1.378,0 2.402,0.546 3.056,1.638 0.656,1.091 0.996,2.483 0.996,4.188 0,0.438 -0.054,1.147 -0.136,2.102 -0.096,0.71 -0.232,1.365 -0.396,1.952 -0.163,0.613 -0.354,1.146 -0.573,1.61 -0.409,0.928 -0.955,1.623 -1.665,2.088 -0.696,0.478 -1.528,0.709 -2.469,0.709 -0.437,0 -0.847,-0.082 -1.229,-0.245 -0.368,-0.15 -0.723,-0.383 -1.037,-0.682 -0.573,-0.546 -0.996,-1.256 -1.255,-2.116 -0.26,-0.859 -0.396,-1.801 -0.396,-2.811 V 2.155 Z m -5.527,0.055 c 0,0.859 0.123,1.706 0.355,2.524 0.245,0.806 0.587,1.597 1.051,2.362 0.859,1.459 2.101,2.62 3.711,3.479 1.625,0.859 3.494,1.282 5.65,1.282 0.873,0 1.706,-0.094 2.456,-0.313 0.765,-0.218 1.515,-0.546 2.279,-0.983 1.419,-0.818 2.538,-1.978 3.357,-3.479 0.424,-0.792 0.751,-1.611 0.983,-2.457 0.218,-0.86 0.327,-1.787 0.327,-2.783 0,-1.366 -0.3,-2.771 -0.9,-4.217 -0.601,-1.433 -1.461,-2.661 -2.58,-3.644 l 1.392,-1.337 c 0.56,-0.532 1.147,-1.023 1.774,-1.488 0.628,-0.464 1.324,-0.859 2.088,-1.2 0.764,-0.356 1.569,-0.56 2.388,-0.628 -0.723,-0.601 -1.501,-1.065 -2.306,-1.392 -0.819,-0.328 -1.665,-0.477 -2.552,-0.477 -0.75,0 -1.515,0.149 -2.279,0.477 -0.778,0.314 -1.501,0.709 -2.183,1.173 -0.723,0.491 -1.378,0.996 -1.965,1.475 l -1.555,1.309 c -0.11,0 -0.246,0 -0.424,-0.013 -0.177,-0.014 -0.382,-0.041 -0.628,-0.082 l -0.927,-0.082 c -1.788,0 -3.412,0.477 -4.872,1.406 -1.461,0.928 -2.607,2.196 -3.412,3.793 -0.395,0.792 -0.709,1.624 -0.914,2.511 -0.205,0.901 -0.314,1.815 -0.314,2.784" /></g></g></g></g></svg>